<?xml version="1.0" encoding="UTF-8" standalone="no"?>
<!-- Created with Inkscape (http://www.inkscape.org/) -->

<svg
   xmlns:dc="http://purl.org/dc/elements/1.1/"
   xmlns:cc="http://creativecommons.org/ns#"
   xmlns:rdf="http://www.w3.org/1999/02/22-rdf-syntax-ns#"
   xmlns:svg="http://www.w3.org/2000/svg"
   xmlns="http://www.w3.org/2000/svg"
   xmlns:sodipodi="http://sodipodi.sourceforge.net/DTD/sodipodi-0.dtd"
   xmlns:inkscape="http://www.inkscape.org/namespaces/inkscape"
   width="223.03748"
   height="499.00626"
   id="svg8906"
   version="1.1"
   inkscape:version="0.48.4 r9939"
   sodipodi:docname="Aon Deo.svg">
  <defs
     id="defs8908" />
  <sodipodi:namedview
     id="base"
     pagecolor="#ffffff"
     bordercolor="#666666"
     borderopacity="1.0"
     inkscape:pageopacity="0.0"
     inkscape:pageshadow="2"
     inkscape:zoom="0.35"
     inkscape:cx="111.51873"
     inkscape:cy="249.50313"
     inkscape:document-units="px"
     inkscape:current-layer="layer1"
     showgrid="false"
     fit-margin-top="0"
     fit-margin-left="0"
     fit-margin-right="0"
     fit-margin-bottom="0"
     inkscape:window-width="476"
     inkscape:window-height="406"
     inkscape:window-x="934"
     inkscape:window-y="511"
     inkscape:window-maximized="0" />
  <metadata
     id="metadata8911">
    <rdf:RDF>
      <cc:Work
         rdf:about="">
        <dc:format>image/svg+xml</dc:format>
        <dc:type
           rdf:resource="http://purl.org/dc/dcmitype/StillImage" />
        <dc:title></dc:title>
      </cc:Work>
    </rdf:RDF>
  </metadata>
  <g
     inkscape:label="Layer 1"
     inkscape:groupmode="layer"
     id="layer1"
     transform="translate(-115,63.78689)">
    <path
       id="path5465"
       style="fill:#000000;fill-opacity:1;stroke:none;display:inline"
       d="m 214.03357,17.215693 c -1.1058,-1.33246 -1.0791,-1.84093 0.1623,-3.08225 1.8684,-1.86846 4.8416,-0.82825 4.8416,1.69392 0,1.04115 -0.1882,1.89301 -0.4182,1.89301 -0.23,0 -1.0579,0.24548 -1.8398,0.54551 -0.7819,0.30003 -2.0175,-0.17256 -2.7459,-1.05019 z m 11.2539,61.83799 c -1.6653,-0.6661 -1.6004,-3.9849 0.091,-4.6338 1.9892,-0.7633 3.9053,0.7866 3.5077,2.8375 -0.3786,1.9531 -1.6365,2.5811 -3.5984,1.7963 z m -0.5488,218.034597 c -0.3856,-0.3857 -0.7012,-1.5262 -0.7012,-2.5346 0,-1.3021 0.7445,-1.8333 2.5696,-1.8333 2.0896,0 2.5098,0.4183 2.25,2.2398 -0.3163,2.2168 -2.7645,3.4819 -4.1184,2.1281 z m -10.7051,60.1274 c -1.1058,-1.3324 -1.0791,-1.8409 0.1623,-3.0822 1.8684,-1.8685 4.8416,-0.8283 4.8416,1.6939 0,1.0411 -0.1882,1.893 -0.4182,1.893 -0.23,0 -1.0579,0.2455 -1.8398,0.5455 -0.7819,0.3 -2.0175,-0.1726 -2.7459,-1.0502 z m 13.0432,-187.9953 c 6.9434,-21.5144 15.9349,-35.4933 35.4373,-55.0941 7.7129,-7.7518 15.3734,-15.049997 17.0234,-16.218297 l 3,-2.1242 -70.9642,-0.032 -70.9642,-0.032 41.4642,41.749997 c 22.8053,22.9624 41.5344,41.75 41.6202,41.75 0.086,0 1.6082,-4.5 3.3833,-10 z m 49.9607,102.7139 c -26.3236,-21.6219 -46.3145,-50.3116 -51.1894,-73.4639 -0.6659,-3.1625 -1.4602,-5.75 -1.7652,-5.75 -0.3049,0 -19.2254,18.675 -42.0454,41.5 l -41.491,41.5 70.4955,-0.045 70.4955,-0.045 -4.5,-3.6963 z m 12.5473,160.4049 c -7.1458,-7.5767 -15.1567,-26.9448 -19.6958,-47.6188 -1.9639,-8.9452 -2.3023,-13.3134 -2.2848,-29.5 0.021,-19.3988 1.0418,-26.9055 6.0413,-44.4212 1.8485,-6.476 8.894,-22.466 11.601,-26.3288 l 1.9272,-2.75 -74.3681,0 c -47.5104,0 -74.724,-0.3559 -75.3535,-0.9854 -0.6472,-0.6472 -4.055,2.0986 -9.9291,8 -9.0626,9.1048 -12.4855,10.9522 -12.4855,6.7388 0,-1.6341 14.6315,-16.8799 53.6687,-55.9221 l 53.6687,-53.6756 -53.6687,-53.9028 c -52.8272,-53.057597 -57.4558,-58.252897 -51.8978,-58.252897 0.9739,0 5.7955,4.0434 10.7146,8.9854 5.8741,5.9014 9.2819,8.6472 9.9291,8 0.6295,-0.6295 27.8431,-0.9854 75.3535,-0.9854 l 74.3681,0 -1.9272,-2.75 c -2.707,-3.8629 -9.7525,-19.8529 -11.601,-26.3288 -4.9995,-17.5157 -6.0204,-25.0224 -6.0413,-44.42121 -0.023,-20.8761296 1.4839,-30.63769 7.5498,-48.92039 5.5628,-16.76673 15.34,-32.49288 19.2649,-30.98675 2.5266,0.96955 1.9711,2.80711 -2.9973,9.91447 -16.1585,23.1149 -22.7177,66.45999 -15.2828,100.99268 3.2285,14.995 9.964,31.87 15.6644,39.2449 l 1.7352,2.2449 5.977,-3.1478 c 11.534,-6.0743 33.3494,-12.613 37.1787,-11.1435 0.797,0.3058 1.3129,1.4695 1.1463,2.5859 -0.252,1.6886 -1.7359,2.3252 -8.8283,3.787 -15.7332,3.2428 -31.1582,10.6615 -46.9746,22.592497 -6.0493,4.5633 -25.8368,24.5121 -30.5867,30.8361 -11.5237,15.3426 -22.4098,39.8951 -22.3907,50.5 0.021,11.7878 7.7001,31.2094 19.0021,48.0606 10.2636,15.3029 36.9692,40.581 45.851,43.3999 1.1684,0.3709 2.1243,1.0234 2.1243,1.4502 0,0.4268 4.1625,2.804 9.25,5.2828 8.6995,4.2386 20.5007,8.034 29,9.3267 3.16,0.4807 3.75,0.9566 3.75,3.0251 0,2.0492 -0.4853,2.4547 -2.9379,2.4547 -7.5233,0 -24.3557,-5.3671 -35.663,-11.3713 l -6.3154,-3.3535 -2.4355,3.6803 c -14.1373,21.3628 -20.5389,56.5407 -16.2082,89.0665 2.7493,20.6486 8.4683,37.346 16.9441,49.4707 4.9684,7.1073 5.5239,8.9449 2.9973,9.9144 -1.0637,0.4082 -2.7209,-0.5476 -4.8341,-2.7883 z"
       inkscape:connector-curvature="0" />
  </g>
</svg>
