<?xml version="1.0" encoding="UTF-8" standalone="no"?>
<!-- Created with Inkscape (http://www.inkscape.org/) -->

<svg
   xmlns:dc="http://purl.org/dc/elements/1.1/"
   xmlns:cc="http://creativecommons.org/ns#"
   xmlns:rdf="http://www.w3.org/1999/02/22-rdf-syntax-ns#"
   xmlns:svg="http://www.w3.org/2000/svg"
   xmlns="http://www.w3.org/2000/svg"
   version="1.1"
   width="64.902298"
   height="52.15625"
   id="svg4635">
  <defs
     id="defs4637" />
  <metadata
     id="metadata4640">
    <rdf:RDF>
      <cc:Work
         rdf:about="">
        <dc:format>image/svg+xml</dc:format>
        <dc:type
           rdf:resource="http://purl.org/dc/dcmitype/StillImage" />
        <dc:title></dc:title>
      </cc:Work>
    </rdf:RDF>
  </metadata>
  <g
     transform="translate(-501.30722,-478.5)"
     id="layer1">
    <path
       d="m 185.17857,137.18361 a 3.0357144,2.6785715 0 1 1 -6.07143,0 3.0357144,2.6785715 0 1 1 6.07143,0 z"
       transform="matrix(0.98094032,0,0,1.1117324,353.80953,351.42309)"
       id="path3926-3-66"
       style="fill:#000000;fill-opacity:1;fill-rule:nonzero;stroke:none;display:inline" />
    <path
       d="m 501.30722,485.897 64.9023,0.50507"
       id="path4161"
       style="fill:#000000;fill-opacity:1;stroke:none;display:inline" />
    <path
       d="m 502.21294,486.33899 c 30.8599,1.43922 50.32815,1.43493 63.39286,-1.25 -6.80626,1.94658 -14.19704,2.3734 -18.75,10.17858 -10.98633,-8.78445 -22.56704,-6.27193 -28.88607,1.73086 -7.48661,9.48148 -3.35241,28.40933 20.85036,27.01914 -21.26966,7.47853 -47.01369,-20.09604 -17.83177,-34.64286 z"
       id="path3152-2-5-7-2"
       style="fill:#000000;fill-opacity:1;stroke:none;display:inline" />
    <path
       d="m 534.64226,495.99852 -2.52538,-17.42513"
       id="path4159"
       style="fill:none;stroke:#000000;stroke-width:1px;stroke-linecap:butt;stroke-linejoin:miter;stroke-opacity:1" />
    <path
       d="m 541.46079,504.07974 16.16244,-0.50507"
       id="path4163"
       style="fill:none;stroke:#000000;stroke-width:1px;stroke-linecap:butt;stroke-linejoin:miter;stroke-opacity:1" />
    <path
       d="m 539.18794,516.20157 2.02031,14.39468"
       id="path4165"
       style="fill:none;stroke:#000000;stroke-width:1px;stroke-linecap:butt;stroke-linejoin:miter;stroke-opacity:1" />
    <path
       d="m 523.27804,512.66604 -8.33376,16.66752"
       id="path4167"
       style="fill:none;stroke:#000000;stroke-width:1px;stroke-linecap:butt;stroke-linejoin:miter;stroke-opacity:1" />
    <path
       d="m 523.27804,503.06959 -21.46574,2.27284"
       id="path4169"
       style="fill:none;stroke:#000000;stroke-width:1px;stroke-linecap:butt;stroke-linejoin:miter;stroke-opacity:1" />
  </g>
</svg>
