<?xml version="1.0" encoding="UTF-8" standalone="no"?>
<!-- Generator: Adobe Illustrator 14.0.0, SVG Export Plug-In . SVG Version: 6.00 Build 43363)  -->

<svg
   xmlns:dc="http://purl.org/dc/elements/1.1/"
   xmlns:cc="http://creativecommons.org/ns#"
   xmlns:rdf="http://www.w3.org/1999/02/22-rdf-syntax-ns#"
   xmlns:svg="http://www.w3.org/2000/svg"
   xmlns="http://www.w3.org/2000/svg"
   xmlns:sodipodi="http://sodipodi.sourceforge.net/DTD/sodipodi-0.dtd"
   xmlns:inkscape="http://www.inkscape.org/namespaces/inkscape"
   version="1.1"
   id="Layer_1"
   x="0px"
   y="0px"
   width="293.985px"
   height="800px"
   viewBox="0 0 293.985 800"
   enable-background="new 0 0 293.985 800"
   xml:space="preserve"
   sodipodi:docname="Herald_Glyph_Kalak.svg"
   inkscape:version="0.92.4 (5da689c313, 2019-01-14)"><metadata
   id="metadata49"><rdf:RDF><cc:Work
       rdf:about=""><dc:format>image/svg+xml</dc:format><dc:type
         rdf:resource="http://purl.org/dc/dcmitype/StillImage" /></cc:Work></rdf:RDF></metadata><defs
   id="defs47" /><sodipodi:namedview
   pagecolor="#ffffff"
   bordercolor="#666666"
   borderopacity="1"
   objecttolerance="10"
   gridtolerance="10"
   guidetolerance="10"
   inkscape:pageopacity="0"
   inkscape:pageshadow="2"
   inkscape:window-width="674"
   inkscape:window-height="480"
   id="namedview45"
   showgrid="false"
   inkscape:zoom="0.295"
   inkscape:cx="146.99249"
   inkscape:cy="400"
   inkscape:window-x="550"
   inkscape:window-y="121"
   inkscape:window-maximized="0"
   inkscape:current-layer="g42" />
<g
   id="g42">
	<path
   d="m 148.366,4.69 c 4.856,21.03 3.257,44.152 4.129,67.434 1.965,52.473 4.56,108.076 -4.129,156.885 C 135.214,161.387 143.903,78.22 146.302,4.691 146.989,4.69 147.677,4.69 148.366,4.69 Z"
   id="path2"
   inkscape:connector-curvature="0"
   style="clip-rule:evenodd;fill:#672861;fill-rule:evenodd;fill-opacity:1" />
	<path
   d="m 281.168,73.5 c 3.086,27.736 -7.657,45.149 -19.267,63.305 -6.931,10.834 -10.846,23.682 -15.138,36.468 -4.016,11.96 -9.646,24.215 -15.14,36.469 -5.27,11.76 -12.862,25.859 -13.761,37.846 -0.999,13.327 4.79,26.855 7.569,41.286 5.771,29.979 2.188,60.867 1.377,94.269 -9.672,-17.6 -4.212,-38.502 -5.506,-59.864 -0.872,-14.4 -4.013,-28.625 -6.193,-41.974 -2.369,-14.509 -7.454,-30.979 -5.505,-43.35 1.657,-10.515 9.682,-19.822 13.073,-30.276 2.264,-6.971 2.04,-14.728 4.131,-21.331 2.865,-9.06 8.866,-18.187 13.761,-27.524 13.663,-26.061 31.348,-56.161 40.599,-85.324 z"
   id="path4"
   inkscape:connector-curvature="0"
   style="clip-rule:evenodd;fill:#672861;fill-rule:evenodd;fill-opacity:1" />
	<path
   d="m 14.188,76.252 c 10.14,27.245 27.053,59.18 41.286,86.011 4.938,9.31 10.876,18.184 13.762,27.524 1.933,6.257 2.087,13.524 4.128,19.955 3.561,11.217 12.739,21.258 13.761,33.028 1.092,12.568 -4,27.86 -6.192,41.286 -2.218,13.58 -5.269,27.502 -6.193,41.286 -1.452,21.65 3.662,43.1 -4.816,60.552 -1.978,-24.867 -3.465,-47.171 -2.065,-70.873 1.38,-23.338 11.533,-43.906 10.322,-63.993 C 77.193,234.65 65.163,214.873 58.226,199.422 50.626,182.491 46.297,162.72 38.96,147.814 31.536,132.733 20.866,121.554 16.94,105.841 14.612,96.521 15.079,85.562 14.188,76.252 Z"
   id="path6"
   inkscape:connector-curvature="0"
   style="clip-rule:evenodd;fill:#672861;fill-rule:evenodd;fill-opacity:1" />
	<path
   d="m 210.295,79.005 c 4.886,6.299 -1.682,13.811 -4.816,18.578 -9.747,14.822 -27.894,29.301 -46.792,32.34 0.801,-14.715 18.92,-16.271 26.148,-24.083 4.096,-4.426 4.675,-11.473 9.634,-17.203 3.799,-4.391 10.317,-6.482 15.137,-9.632 0.229,0 0.459,0 0.689,0 z"
   id="path8"
   inkscape:connector-curvature="0"
   style="clip-rule:evenodd;fill:#672861;fill-rule:evenodd;fill-opacity:1" />
	<path
   d="m 137.357,132.675 c -18.907,-3.261 -51.874,-24.96 -53.672,-48.167 -0.112,-1.451 0.336,-1.812 0.688,-2.752 15.186,1.139 18.281,15.904 26.147,25.46 7.832,9.512 25.329,10.204 26.837,25.459 z"
   id="path10"
   inkscape:connector-curvature="0"
   style="clip-rule:evenodd;fill:#672861;fill-rule:evenodd;fill-opacity:1" />
	<path
   d="m 237.13,102.399 c 15.166,44.645 -29.678,63.356 -34.406,101.838 -13.055,-25.273 4.652,-41.617 17.205,-57.112 9.717,-11.997 18.042,-23.793 17.201,-44.726 z"
   id="path12"
   inkscape:connector-curvature="0"
   style="clip-rule:evenodd;fill:#672861;fill-rule:evenodd;fill-opacity:1" />
	<path
   d="m 58.226,105.152 c 0.369,18.261 7.44,32.74 17.203,44.727 12.583,15.45 30.432,28.972 18.578,57.111 C 87.812,168.377 46.122,153.198 58.226,105.152 Z"
   id="path14"
   inkscape:connector-curvature="0"
   style="clip-rule:evenodd;fill:#672861;fill-rule:evenodd;fill-opacity:1" />
	<path
   d="m 204.792,111.344 c 0.799,-0.112 1.224,0.153 1.374,0.688 4.066,30.734 -13.86,46.334 -21.33,69.497 -2.376,7.369 -0.157,18.588 -0.688,28.212 -0.753,13.655 -7.051,27.627 -2.752,43.351 -15.882,-3.709 -5.842,-25.201 -4.816,-38.534 0.771,-10.04 -4.043,-20.274 -3.441,-28.899 0.615,-8.8 7.706,-14.062 12.386,-22.019 8.852,-15.053 13.615,-34.336 18.579,-50.231 -0.196,-1.112 0.647,-1.185 0.688,-2.065 z"
   id="path16"
   inkscape:connector-curvature="0"
   style="clip-rule:evenodd;fill:#672861;fill-rule:evenodd;fill-opacity:1" />
	<path
   d="m 89.878,114.097 c 1.112,-0.194 1.185,0.65 2.064,0.688 4.794,19.253 11.067,40.001 22.019,56.424 3.763,5.643 8.388,10.905 8.945,16.514 0.869,8.741 -4.046,18.926 -3.441,28.9 0.82,13.508 11.175,35.546 -4.816,39.222 4.366,-14.389 -1.863,-29.252 -2.752,-42.662 -0.615,-9.271 1.885,-19.852 -0.688,-28.212 -7.311,-23.759 -25.146,-38.277 -21.331,-70.874 z"
   id="path18"
   inkscape:connector-curvature="0"
   style="clip-rule:evenodd;fill:#672861;fill-rule:evenodd;fill-opacity:1" />
	<path
   d="m 189.652,126.482 c 4.568,5.75 -3.072,10.734 -7.569,13.762 -5.25,3.535 -11.84,5.975 -15.825,8.945 -5.214,19.289 6.444,33.526 6.88,52.295 0.396,17.071 -7.741,33.511 -6.192,50.23 0.537,5.789 4.573,10.726 5.505,16.515 2.399,14.903 -6.828,26.708 -9.634,39.22 -6.023,26.861 -2.61,57.427 -5.504,86.701 -13.057,-37.966 5.143,-76.79 4.816,-111.472 -0.136,-14.348 -9.149,-21.616 -7.569,-37.845 1.36,-13.965 12.489,-26.461 11.698,-41.286 -0.594,-11.094 -7.841,-21.73 -8.945,-34.405 -0.932,-10.675 1.174,-19.421 1.375,-30.964 13.665,-0.553 18.897,-9.542 30.964,-11.696 z"
   id="path20"
   inkscape:connector-curvature="0"
   style="clip-rule:evenodd;fill:#672861;fill-rule:evenodd;fill-opacity:1" />
	<path
   d="m 137.357,140.933 c 0.223,11.505 2.286,20.521 1.377,30.965 -1.097,12.564 -8.146,22.844 -8.946,33.716 -1.329,18.068 13.446,29.577 11.697,49.542 -0.854,9.766 -7.302,17.24 -7.568,28.9 -0.394,17.169 5.077,35.805 7.568,55.047 2.502,19.319 1.192,38.176 -2.063,57.8 -3.852,-27.019 -0.321,-57.637 -6.193,-86.012 -2.414,-11.665 -11.665,-24.694 -9.633,-39.222 0.716,-5.122 4.785,-10.159 5.504,-16.514 1.903,-16.804 -6.443,-31.782 -6.192,-50.231 0.212,-15.612 13.906,-38.875 6.881,-52.295 -4.434,-8.471 -25.694,-8.833 -25.459,-20.643 -0.192,-1.568 0.166,-2.586 1.376,-2.752 12.734,1.715 17.688,11.212 31.651,11.699 z"
   id="path22"
   inkscape:connector-curvature="0"
   style="clip-rule:evenodd;fill:#672861;fill-rule:evenodd;fill-opacity:1" />
	<path
   d="m 191.028,195.98 c 6.016,7.271 5.247,23.142 6.192,37.846 0.674,10.466 0.856,20.811 1.377,30.963 2.043,39.828 12.386,74.239 12.386,117.664 0,19.616 -1.279,40.115 -12.386,52.295 6.048,-28.557 8.063,-54.726 2.752,-81.195 -4.998,-24.91 -15.382,-48.626 -17.202,-72.25 -1.204,-15.641 4.422,-22.863 6.881,-35.093 2.897,-14.406 -0.394,-32.359 0,-50.23 z"
   id="path24"
   inkscape:connector-curvature="0"
   style="clip-rule:evenodd;fill:#672861;fill-rule:evenodd;fill-opacity:1" />
	<path
   d="m 104.328,198.732 c 1.717,13.645 -2.129,34.69 0.688,49.543 2.409,12.702 8.068,18.53 6.881,35.092 -1.705,23.8 -12.157,47.794 -17.203,72.938 -5.317,26.504 -3.29,52.649 2.752,81.197 -18.729,-25.786 -13.209,-76.185 -7.569,-112.849 2.785,-18.097 6.498,-37.919 7.569,-57.799 0.542,-10.05 0.716,-20.518 1.377,-30.964 0.904,-14.275 0.506,-28.251 5.505,-37.158 z"
   id="path26"
   inkscape:connector-curvature="0"
   style="clip-rule:evenodd;fill:#672861;fill-rule:evenodd;fill-opacity:1" />
	<path
   d="m 257.773,279.239 c -0.327,23.299 -10.471,46.411 -24.771,55.736 2.373,-24.462 21.018,-32.655 24.771,-55.736 z"
   id="path28"
   inkscape:connector-curvature="0"
   style="clip-rule:evenodd;fill:#672861;fill-rule:evenodd;fill-opacity:1" />
	<path
   d="m 37.583,281.992 c 4.987,21.848 22.199,31.472 25.459,55.047 -3.061,0.595 -6.709,-5.169 -9.634,-8.945 -8.387,-10.828 -14.473,-27.359 -15.825,-46.102 z"
   id="path30"
   inkscape:connector-curvature="0"
   style="clip-rule:evenodd;fill:#672861;fill-rule:evenodd;fill-opacity:1" />
	<path
   d="m 175.891,302.635 c 17.646,37.699 8.967,105.515 6.191,152.756 1.812,1.543 4.615,-1.776 7.569,-1.376 -3.424,30.753 -6.294,62.058 -6.881,95.646 -7.297,-22.562 -12.376,-47.292 -13.763,-74.314 -1.911,-37.258 8.889,-71.989 6.883,-110.095 -6.863,5.294 -5.203,19.112 -7.57,28.9 -11.193,-28.032 7.869,-60.581 7.571,-91.517 z"
   id="path32"
   inkscape:connector-curvature="0"
   style="clip-rule:evenodd;fill:#672861;fill-rule:evenodd;fill-opacity:1" />
	<path
   d="m 119.466,305.387 c 1.37,30.931 17.872,59.213 8.945,91.517 -3.525,-8.63 -1.46,-22.852 -7.568,-28.9 -3.201,36.889 7.819,72.408 6.193,109.407 -1.191,27.102 -6.92,51.727 -13.074,75.003 -2.136,-32.27 -3.675,-65.136 -7.569,-95.646 3.119,0.094 4.739,1.686 7.569,2.064 -2.989,-47.673 -10.819,-114.297 5.504,-153.445 z"
   id="path34"
   inkscape:connector-curvature="0"
   style="clip-rule:evenodd;fill:#672861;fill-rule:evenodd;fill-opacity:1" />
	<path
   d="m 147.677,381.766 c 0.586,-0.128 0.649,0.267 0.688,0.687 6.331,64.584 6.193,136.11 6.193,207.118 0,71.069 2.113,142.168 -6.193,205.739 -9.777,-61.669 -6.881,-133.437 -6.881,-205.052 0,-35.134 -0.931,-71.162 0.688,-105.968 1.663,-35.711 0.847,-70.001 5.505,-102.524 z"
   id="path36"
   inkscape:connector-curvature="0"
   style="clip-rule:evenodd;fill:#672861;fill-rule:evenodd;fill-opacity:1" />
	<path
   d="m 158.687,440.941 c 9.165,24.354 5.805,65.734 11.01,96.333 1.788,10.507 5.572,20.46 5.504,29.588 -0.05,6.713 -2.572,14.331 -4.127,21.331 -4.688,21.091 -5.986,44.727 -8.945,67.434 -5.299,-67.41 -1.942,-143.477 -3.442,-214.686 z"
   id="path38"
   inkscape:connector-curvature="0"
   style="clip-rule:evenodd;fill:#672861;fill-rule:evenodd;fill-opacity:1" />
	<path
   d="m 136.668,443.693 c 0.562,70.059 1.191,146.15 -2.063,214.686 -4.932,-21.894 -3.97,-44.476 -8.946,-67.434 -1.521,-7.019 -4.662,-13.741 -4.817,-20.643 -0.217,-9.68 3.745,-19.931 5.505,-30.276 5.192,-30.515 1.874,-66.579 10.321,-96.333 z"
   id="path40"
   inkscape:connector-curvature="0"
   style="clip-rule:evenodd;fill:#672861;fill-rule:evenodd;fill-opacity:1" />
</g>
</svg>