<?xml version="1.0" encoding="UTF-8" standalone="no"?>
<!-- Created with Inkscape (http://www.inkscape.org/) -->

<svg
   xmlns:dc="http://purl.org/dc/elements/1.1/"
   xmlns:cc="http://creativecommons.org/ns#"
   xmlns:rdf="http://www.w3.org/1999/02/22-rdf-syntax-ns#"
   xmlns:svg="http://www.w3.org/2000/svg"
   xmlns="http://www.w3.org/2000/svg"
   xmlns:sodipodi="http://sodipodi.sourceforge.net/DTD/sodipodi-0.dtd"
   xmlns:inkscape="http://www.inkscape.org/namespaces/inkscape"
   width="160"
   height="300"
   viewBox="0 0 160 300.00001"
   id="svg3381"
   version="1.1"
   inkscape:version="0.91 r13725"
   sodipodi:docname="Thaylen script N-M.svg">
  <defs
     id="defs3383" />
  <sodipodi:namedview
     id="base"
     pagecolor="#ffffff"
     bordercolor="#666666"
     borderopacity="1.0"
     inkscape:pageopacity="0.0"
     inkscape:pageshadow="2"
     inkscape:zoom="0.49497475"
     inkscape:cx="9.0828997"
     inkscape:cy="247.94521"
     inkscape:document-units="px"
     inkscape:current-layer="layer1"
     showgrid="false"
     inkscape:window-width="719"
     inkscape:window-height="678"
     inkscape:window-x="193"
     inkscape:window-y="86"
     inkscape:window-maximized="0"
     units="px" />
  <metadata
     id="metadata3386">
    <rdf:RDF>
      <cc:Work
         rdf:about="">
        <dc:format>image/svg+xml</dc:format>
        <dc:type
           rdf:resource="http://purl.org/dc/dcmitype/StillImage" />
        <dc:title></dc:title>
      </cc:Work>
    </rdf:RDF>
  </metadata>
  <g
     inkscape:label="Layer 1"
     inkscape:groupmode="layer"
     id="layer1"
     transform="translate(0,-752.36214)">
    <path
       style="fill:#000000"
       d="m 84.763383,1048.1747 c -8.125444,-5.4889 -14.848042,-12.2549 -16.723399,-16.8313 -1.45428,-3.5488 0.994404,-9.3584 25.50462,-60.50964 l 27.113356,-56.58385 -16.63217,-0.74484 c -15.853021,-0.70996 -16.892881,-0.95847 -22.197453,-5.30471 -3.060908,-2.50793 -7.595309,-7.0936 -10.076447,-10.1904 -4.511166,-5.63054 -4.511166,-5.63054 -5.248059,-48.66559 l -0.736894,-43.03505 -19.712454,20.07969 c -10.841851,11.04383 -20.528743,20.07968 -21.526426,20.07968 -5.075614,0 -24.34464246,-19.34686 -24.34464246,-24.44296 0,-0.90779 15.45704646,-17.26382 34.34899346,-36.34673 39.023503,-39.418 35.912989,-37.83299 48.335553,-24.63009 12.526173,13.31301 11.637817,8.01813 11.637817,69.3646 l 0,54.78732 18.790792,0.009 c 10.33492,0.004 21.30094,0.71291 24.36892,1.57408 6.4901,1.82174 20.78784,15.44969 22.2075,21.16715 0.72222,2.90856 -6.42682,19.15874 -32.5167,73.91247 -18.39333,38.60117 -34.211509,70.18417 -35.151491,70.18417 -0.939981,0 -4.288617,-1.7425 -7.441416,-3.8723 z"
       id="path3480"
       inkscape:connector-curvature="0" />
  </g>
</svg>
