<svg xmlns="http://www.w3.org/2000/svg" viewBox="0 0 1000 1000"><title>Chromium</title><path d="M612.44,703l55,44.66L659,676.18l.22-.12L549.75,484c-14.87-26.08-19.87-50.81,2.85-63.77l10.33-5.89-9.14-16-64.52,36.79-64.52,36.79,9.14,16,10.33-5.89c22.72-13,43.48,2.79,58.35,28.87l.77-.44-.77.44L611.78,702.45h0l.39.69Z"/><circle cx="500" cy="283.08" r="34.08"/><path d="M309.2,645.77c48.41,61.49,117.27,90.16,189.83,90.75v0H501v0c72.56-.59,141.42-29.26,189.83-90.75,84.68-107.56,69-261.6-38.58-346.28H626.67v10.22c11.84,6.36,23.22,16.3,33.1,26.74,69.23,73.15,50.29,192.42-32.53,265.7C589.8,629.87,544.5,650.67,500,651c-44.5-.3-89.8-21.1-127.23-48.82C289.94,528.87,271,409.6,340.23,336.45c9.87-10.43,21.25-20.38,33.1-26.74V299.49H347.78C240.21,384.17,224.52,538.2,309.2,645.77Z"/><path d="M393.07,555.92c27.13,34.46,65.72,50.53,106.39,50.86h1.09c40.67-.33,79.26-16.4,106.39-50.86,47.46-60.28,38.66-146.62-21.62-194.07H571v5.73c6.64,3.56,13,9.14,18.55,15,38.8,41,28.19,107.84-18.23,148.91-21,15.54-46.37,27.2-71.31,27.36-24.94-.17-50.33-11.83-71.31-27.36-46.42-41.07-57-107.91-18.23-148.91,5.53-5.85,11.91-11.42,18.55-15v-5.73H414.69C354.4,409.3,345.61,495.63,393.07,555.92Z"/></svg>