<svg xmlns="http://www.w3.org/2000/svg" viewBox="0 0 1000 1000"><title>Iron</title><path d="M486.06,204.5v8.28c1.35,31.41-25.41,34.86-44.15,39.21-5.05,1.17-8.94,2.24-9.84,2.24v33.85l-30.51,67.11c24-20.3,37.91-28.72,50.64-29.72,11.7-.91,29.28,4,33.86,34.29,1,6.59.56,5.64.56,11.89h17.88V204.5Z"/><path d="M541.83,204.5v11.05c0,31.79-24,28.89-54,28.89v69.91c35.28,0,54,1.36,54,46.24v11.05h18.45V204.5Z"/><path d="M657.88,648.44c-81.57,68.19-202.75,55.14-268-30.8-78.67-92.9-60.37-216,34.62-280.47,36-21.72,33.71-22.74,135.61-21.64l.16.05V249.31a235.6,235.6,0,0,0-47.8-4.87c-82.31,0-153.54,26.36-204.49,91.08-84.68,107.57-66.13,263.42,41.44,348.1s259.15,65.5,343.83-42.06V616H683C674.34,627.74,668.74,639,657.88,648.44Z"/><circle cx="655.69" cy="288.02" r="34.08"/></svg>