<svg xmlns="http://www.w3.org/2000/svg" viewBox="0 0 1000 1000"><title>UnknownH</title><circle cx="632.09" cy="317.71" r="42.38"/><path d="M705.15,363.41a198.82,198.82,0,0,1,20.6,88.36c0,109.87-88.65,198.94-198,198.94s-198-89.07-198-198.94,88.65-198.94,198-198.94c2.07,0,4.11.09,6.16.16A244.87,244.87,0,0,0,500,250.58c-134.21,0-243,108.79-243,243s108.79,243,243,243,243-108.79,243-243A241.77,241.77,0,0,0,705.15,363.41Z"/><path d="M110.25,214.33,450.9,413.89a20.75,20.75,0,0,0,22.87-1.25l43.48-32.31c-29,38.58-52.83,74.42-66.5,105Z"/><path d="M516.75,535.33l-64-65-334.5,393.5L466.74,541.48a34.07,34.07,0,0,1,27.09-8.83Z"/></svg>