<svg xmlns="http://www.w3.org/2000/svg" viewBox="0 0 208.58 209.67"><title>Asset 101</title><g id="Layer_2" data-name="Layer 2"><g id="Background"><path d="M145.74,143c6.33,6.8,12.74,13.54,19,20.43,4.13,4.56,8,9.32,12,14,.36.42.5,1,0,2.14-1.5-1.42-3-2.81-4.48-4.27Q159,162.13,145.75,148.9c-.81-.81-1.76-1.5-2.64-2.24l-1.23-.77a2,2,0,0,0-.17-.33l.25.25.78,1.21c2.31,6.55,4.21,13.16,3.93,20.22-.69,17.6-8.6,31.07-24.52,38.41-14.76,6.8-29.36,4.87-42.71-5a42.12,42.12,0,0,1-11.77-13.31c-7.2-12.68-8.12-25.69-2-39.07a6.37,6.37,0,0,0,.27-1.47l.31-.25-.23.33Q57.86,155,49.74,163C44,168.67,38.24,174.33,32,179.56c9-13.34,21.06-24.08,31.15-36.7-.87.34-1.77.61-2.6,1-15,7.42-33.61,3.23-45.12-6.94A44.88,44.88,0,0,1,.24,107.55c-1-9,1.34-17.42,6-25.16,7.94-13.29,20-20.1,35.19-21,4.66-.29,9.46,1.21,14.17,2,2.1.37,4.13,1.11,6.19,1.68l.63.59-.26-1Q49.89,52.35,37.68,40c-2.62-2.65-5.14-5.39-7.72-8.11,1.59-1.46,2.5.23,3.3,1Q43.48,41.93,53.5,51.23c4.31,4,8.47,8.18,13,12.07a51.34,51.34,0,0,1-4.77-18.6C60.71,24.6,74.33,5.75,95.7,1c22-4.91,45,9.44,50,32.6a46.18,46.18,0,0,1-2.38,27.22c-.24.61-.37,1.27-.55,1.9l-.91,1.62,1.28-1.25c3.3-2.94,6.65-5.83,9.89-8.83,6.59-6.08,13.1-12.25,19.71-18.32,1.7-1.56,3.61-2.89,5.8-4.61.49,2.58-1.35,3.48-2.45,4.6-8.3,8.39-16.68,16.72-25,25.09-1.16,1.17-2.2,2.46-3.3,3.7l-1.21,1.62,1.57-1.25c4.31-1.11,8.57-2.53,12.94-3.25a37.14,37.14,0,0,1,25.72,5.14C197.52,73.39,204.5,82.68,207.23,95c.38,1.75.29,3.6.51,5.39.2,1.59.54,3.17.84,4.92a15.83,15.83,0,0,0-.78,3.36c-.24,11.51-5.43,20.87-13.68,28.2-13.57,12.08-29.06,14-45.68,6.59-.75-.33-1.56-.54-2.34-.8l-1.82-1Zm-54-58.36-5.4-2c1.72,2.09,2.63,3.18,4.19,5.06L92.12,85l.39-.7Zm30,41.37,1.5.51.11-.43-1.27-.48c-.92-1.2-1.84-2.41-2.82-3.71l-3.21,2.81Zm1-43.37c-2,.62-4.07.93-5.8,2.68l2.42,1.78,3.74-4.1,1.21-1.62Zm3,4-4,3.65,2.74,2.93c.66-2.49,1.15-4.36,1.65-6.22l.45-.79-.26-.15Zm-42.61,0-.51-1.26-.54.26L82.75,87l1.57,6.47,2.5-4.22Zm0,36.36,4.3-4.08-3-4c-.65,3-1.16,5.38-1.68,7.78l-.47,1.45.36.09Zm23.61,8.75c-.7,25.25-1.36,49.55-2,73.92,2.14,0,4.34.33,6.4-.06,21.61-4,37.64-23.83,33.1-46.5a38,38,0,0,0-16.14-24.72,12.81,12.81,0,0,0-5.86-2.52C117.3,131.54,112.33,131.78,106.75,131.78Zm18.78-54.73c18-9.91,23.36-31.13,17.13-46.94C136.08,13.4,117.9,1.49,105,4.75c.25,4.22.63,8.5.72,12.78.37,18.11.65,36.23,1,54.34a10.72,10.72,0,0,0,0,1.5c.16,1.1.38,2.19.64,3.68ZM102.6,4.31a7.14,7.14,0,0,0-1.46-.19A40.11,40.11,0,0,0,75.33,16.56C60.46,31.68,59.7,59.81,79.62,75c1.16.88,2.57,1.94,3.9,2,6.25.21,12.52.09,19.08.09Zm-.66,127.47c-5.24,0-9.87-.1-14.49.06a8.78,8.78,0,0,0-4.2,1.28C70.13,141.58,63.6,154,64.41,169.28c.89,16.78,10.12,28.4,25.85,34.55,3.61,1.41,7.39,2.79,11.68,1.5ZM40.73,143.47V106.56c-7.85-.84-34.08-.11-37.44,1C2.59,125.8,21.49,145.53,40.73,143.47ZM206.32,106.3c-8.59-.94-33.63-.64-37.1.44-1.2,14.18-.92,33.56.54,37C187.27,143.29,206.58,127,206.32,106.3Zm-74.43,19.58c8.11,12.84,23.16,20.53,33.85,17.35-.4-12.32-.8-24.67-1.21-37.4-11.12.29-21.84-.42-32.64.56ZM41,102.59c.2-12.48.49-24.5,0-36.43-17.4-2-39.5,18.41-37.28,38Zm128.82-37c-1.25,5.11-1.1,33.47.07,37l36.57,1a35.39,35.39,0,0,0-11.14-26.12A41.42,41.42,0,0,0,169.79,65.55ZM44.06,143.65a15.5,15.5,0,0,0,3.54.38A42.22,42.22,0,0,0,73.35,131.1c2.71-2.82,4.33-6.11,3.93-10.33-.36-3.63,0-7.32-.11-11a22.27,22.27,0,0,0-.66-3.55c-10.53.07-20.81-.33-31,.2C45,119.14,44.54,131.25,44.06,143.65Zm87.62-41.56h32.8q.83-18.24,1.66-36.87c-1.35.14-2.49.26-3.63.36a38.47,38.47,0,0,0-27.95,15,12.36,12.36,0,0,0-2.75,6.17C131.4,91.53,131.68,96.34,131.68,102.09Zm-54.54.07c0-6.44.15-12.07-.1-17.68a8.31,8.31,0,0,0-2.17-4.37c-6.32-7.54-14.56-12-24.06-14.09-2.14-.47-4.47-.07-6.56-.07.41,12.52.81,24.51,1.23,37Zm12,15.12c3.72-3.68,7.37-6.89,10.47-10.82H85.35C85.42,112.1,85.56,112.49,89.19,117.28Zm33.52-11c-4.08.09-8.22-.46-12,.15L120,116.81C123.22,113.62,124.72,110.44,122.71,106.25ZM107,110v13.49c4.07.35,6.89-1.37,9.39-3.44Zm-5,1-9.7,9.57c3,1.73,5.65,3.93,9.7,2.59Zm5-11.57,10-10c-3.63-1.83-6.41-4.06-10-2.78Zm15.5,2.42c1.37-4.19.78-6-3.05-9.28l-9,9.28Zm-32.38-9.3L88.61,93l-3.88,8.32c4.91,1.39,9.2.71,13.85.63Zm11.93-7-9.66,3.59,9.66,8.46ZM80.3,117.18c2-5,2.08-7.39,0-10.48Zm.1-15.64,1.59-.11c-.37-3.3-.73-6.61-1.1-9.91l-.49.07Zm45.7,22,.56-.58c-.69-2.48-1.38-5-2.19-7.89l-2.36,3.52Zm-34.8-1L86,127l7.71-2.54Zm.48-42.14c3.18.58,6.3,2.31,9.65.66C98.31,79.75,95,80.14,91.78,80.41Zm37,26.05-1.53.07.87,9.47.66,0ZM107.14,80.33c3.85,2,3.85,2,7.06,0Zm21,21.26a10.1,10.1,0,0,0,.23-8C128.42,96.23,126.26,98.78,128.1,101.59ZM106.83,128l0,.77h7.42V128ZM95.57,128l0,1c1.86,0,3.74.71,5.53-1.28Zm20.77-47.7v.35l1.18-.07v-.28ZM80.22,119.33l.23.17,0-.3ZM65.6,141.48l-.22-.19-.06.28Z"/></g></g></svg>