<?xml version="1.0" encoding="UTF-8" standalone="no"?>
<!-- Created with Inkscape (http://www.inkscape.org/) -->

<svg
   xmlns:dc="http://purl.org/dc/elements/1.1/"
   xmlns:cc="http://creativecommons.org/ns#"
   xmlns:rdf="http://www.w3.org/1999/02/22-rdf-syntax-ns#"
   xmlns:svg="http://www.w3.org/2000/svg"
   xmlns="http://www.w3.org/2000/svg"
   version="1.1"
   width="351.93796"
   height="500"
   id="svg3071">
  <defs
     id="defs3073" />
  <metadata
     id="metadata3076">
    <rdf:RDF>
      <cc:Work
         rdf:about="">
        <dc:format>image/svg+xml</dc:format>
        <dc:type
           rdf:resource="http://purl.org/dc/dcmitype/StillImage" />
        <dc:title></dc:title>
      </cc:Work>
    </rdf:RDF>
  </metadata>
  <g
     transform="translate(679.5762,689.25053)"
     id="layer1">
    <path
       d="m -327.63824,-689.25053 v 500 H -485.3572 v -37.563 h 123.37496 v -362.656 l -84.26596,120.895 c 33.57,73.711 31.703,114.074 31.703,114.074 0,0 -24.848,-67.078 -42.23,-98.945 l -32.156,46.095 c 27.266,48.633 36.887,90.93 37.34,93.02 -1,-1.832 -28.1331,-52.305 -46.5741,-79.758 l -142.7859,204.838 h -38.625 l 161.229,-229.047 c -30.191,-29.16 -79.148,-59.578 -79.148,-59.578 l 26.039,-26.008 c 0,0 44.967,43.809 64.859,68.883 l 31.059,-44.098 c -22.305,-25.043 -58.098,-57.777 -58.098,-57.777 l 27.875,-20.922 c 0,0 27.586,33.766 43.84,59.32 l 134.28296,-190.773 z"
       id="Gold" />
  </g>
</svg>
