<?xml version="1.0" encoding="UTF-8" standalone="no"?>
<!-- Created with Inkscape (http://www.inkscape.org/) -->

<svg
   xmlns:dc="http://purl.org/dc/elements/1.1/"
   xmlns:cc="http://creativecommons.org/ns#"
   xmlns:rdf="http://www.w3.org/1999/02/22-rdf-syntax-ns#"
   xmlns:svg="http://www.w3.org/2000/svg"
   xmlns="http://www.w3.org/2000/svg"
   version="1.1"
   width="63.39286"
   height="52.49543"
   id="svg4635">
  <defs
     id="defs4637" />
  <metadata
     id="metadata4640">
    <rdf:RDF>
      <cc:Work
         rdf:about="">
        <dc:format>image/svg+xml</dc:format>
        <dc:type
           rdf:resource="http://purl.org/dc/dcmitype/StillImage" />
        <dc:title></dc:title>
      </cc:Work>
    </rdf:RDF>
  </metadata>
  <g
     transform="translate(-512.23035,-492.22332)"
     id="layer1">
    <path
       d="m 185.17857,137.18361 a 3.0357144,2.6785715 0 1 1 -6.07143,0 3.0357144,2.6785715 0 1 1 6.07143,0 z"
       transform="matrix(0.98094032,0,0,1.1117324,387.75552,348.37156)"
       id="path3926-3-2"
       style="fill:#000000;fill-opacity:1;fill-rule:nonzero;stroke:none;display:inline" />
    <path
       d="m 512.23035,493.47332 c 30.8599,1.43922 50.32815,1.43493 63.39286,-1.25 -6.80626,1.94658 -14.19704,2.3734 -18.75,10.17858 -10.98633,-8.78445 -22.56704,-6.27193 -28.88607,1.73086 -7.48661,9.48148 -3.35241,28.40933 20.85036,27.01914 -21.08314,7.53182 -45.53524,-18.95209 -20.35715,-34.64286 z"
       id="path3152-3"
       style="fill:#000000;fill-opacity:1;stroke:none;display:inline" />
    <path
       d="m 532.67918,502.22528 6.31345,42.4264"
       id="path4183"
       style="fill:none;stroke:#000000;stroke-width:1px;stroke-linecap:butt;stroke-linejoin:miter;stroke-opacity:1" />
    <path
       d="m 543.28578,518.89279 3.78807,23.99113"
       id="path4185"
       style="fill:none;stroke:#000000;stroke-width:1px;stroke-linecap:butt;stroke-linejoin:miter;stroke-opacity:1" />
  </g>
</svg>
