<svg xmlns="http://www.w3.org/2000/svg" viewBox="0 0 1000 1000"><title>Copper</title><circle cx="448.62" cy="265.69" r="34.08" transform="translate(-57.49 391) rotate(-44.54)"/><path d="M665.41,580.88c-11,11.5-21.92,21.83-32,31C598.13,644,564.93,661.53,515,661.53c-121.24-11-196.26-104.86-173.8-217.46,9.53-41.33,3.93-42.44,81.47-110.55l.15-.08-46.48-47.22c-13.5,8.72-26.64,18.22-37.49,30.06-53.2,58.06-86.58,100.54-78,194.84C273.62,652,368.12,740.61,515,735.84c78.26-2.54,144.17-48.35,194.89-113.94Z"/><path d="M678.39,743.34,651.14,676,401.19,426.09c-19.4-19.4-29.09-39.89-16.5-57.39,6-6,26.83-22.84,56.58,9.77,4.17,4.58,3.68,3.74,7.75,7.88l13.15-12.94-62.76-63.77-54.49-55.37-13.15,12.94,7.75,7.88c22.3,22.66,3.18,39.66-18.21,60.72l26.47,24.64,1.63,2.55-40,45.25,53.37,56.24h0L612.73,714.44Z"/><path d="M716.49,615.11l-81-86.66c-20.51-21.92-31.11-44.82-12-62.69l8.68-8.13-12.6-13.47L565.36,494.9l-54.24,50.75,12.6,13.47,8.68-8.13c19.1-17.87,42.95-7.36,63.46,14.56h0l-.07.06,81,86.6,64.66,31.06Z"/></svg>