<?xml version="1.0" encoding="utf-8"?>
<!-- Generator: Adobe Illustrator 14.0.0, SVG Export Plug-In . SVG Version: 6.00 Build 43363)  -->
<!DOCTYPE svg PUBLIC "-//W3C//DTD SVG 1.1//EN" "http://www.w3.org/Graphics/SVG/1.1/DTD/svg11.dtd">
<svg version="1.1" id="Layer_1" xmlns="http://www.w3.org/2000/svg" xmlns:xlink="http://www.w3.org/1999/xlink" x="0px" y="0px"
	 width="515px" height="800px" viewBox="0 0 515 800" enable-background="new 0 0 515 800" xml:space="preserve">
<g>
	<path fill-rule="evenodd" clip-rule="evenodd" d="M320.835,45.318c-27.142-4.971-49.654-4.582-68.597,8.139
		c-12.663,8.503-18.233,24.164-26.741,36.042c4.569,11.98,9.021,31.721,1.163,43.019c3.338,11.706,10.509,26.919,4.651,40.693
		c16.493,18.209-1.435,36.115-4.651,56.971c10.522,15.056,35.188,31.949,23.253,58.133c-9.035-0.708-16.366-5.812-24.417-1.162
		c-2.818,11.733,2.391,24.454,5.814,33.717c0.459,5.111-6.266,3.036-6.977,6.976c1.832,15.32-6.333,45.298,8.139,48.833
		c11.471,2.802,21.926-11.153,32.555-13.952c29.815-6.837,68.913-15.375,106.966-10.464c23.016,2.97,43.369,17.239,56.971,26.741
		c11.924,11.329,24.532,21.975,44.182,25.58c7.176,15.302,7.579,37.376,25.578,41.855c-0.337,34.932-10.285,60.251-8.139,97.664
		c-6.616,12.895-17.904,26.872-16.276,44.183c-13.518,11.285-23.048,26.559-29.067,45.344c-9.734,4.992-16.289,13.165-26.741,17.439
		c-0.013,8.151-0.73,17.008,2.325,22.091c-2.983,12.886-29.688,24.678-39.53,9.302c-25.096,7.212-34.063-13.248-51.159-22.091
		c-4.893-2.53-11.422-2.638-13.951-4.651c-9.219-7.337-15.756-24.34-29.067-29.066c-1.036-8.401-2.238-16.488-6.976-24.416
		c-2.298-3.847-7.358-6.852-8.139-10.464c-1.279-5.929,3.364-9.979,4.651-17.44c2.746-15.922,2.514-36.755,17.439-39.53
		c-14.737,39.805,19.27,71.955,53.483,82.549c4.894,1.517,12.791,3.342,16.277,3.488c35.168,1.482,45.78-34.212,65.109-52.319
		c-10.19-16.036-0.704-37.933,4.649-54.646c-16.702-18.565-20.867-49.667-48.832-56.971c-2.518-9.04-8.511-15.678-5.812-26.742
		c-8.253,0.411-16.328-10.92-26.741-15.114c-18.396,20.359-40.975,36.536-73.249,43.02c-3.406,12.322,5.663,21.183,13.953,25.578
		c3.592,12.686,11.003,21.552,12.789,36.042c-22.036-4.926-31.872-29.306-44.182-46.507c-5.062-7.072-14.146-22.747-24.416-23.252
		c-3.991-0.198-7.607,4.238-11.626,5.812c-6.386,2.501-14.414,2.115-18.603,4.65c-8.918,5.396-12.276,18.198-23.253,19.765
		c-2.695,10.87-9.484,17.646-15.115,25.58c-2.99,31.909-19.92,59.758-9.301,91.852c4.312,1.528,8.645,0.358,11.627,0
		c4.923-6.317,3.756-18.723,8.138-25.581c5.97,1.846,2.82,9.532,0,13.953c4.034,10.186,10.758,29.183,5.813,40.693
		c-9.684-0.78-11.704-9.224-13.952-17.44c-4.437,0.825-5.6,0.771-9.302-1.163c-8.301,14.026,7.22,22.514,8.139,34.881
		c10.761,12.493,18.91,27.597,22.091,47.67c3.905,5.008,6.751,11.075,12.79,13.952c3.476,14.18,14.676,22.56,25.579,32.554
		c6.873,6.3,13.886,13.904,19.766,18.603c7.625,6.095,18.632,9.255,22.09,19.766c-12.253-10.17-28.555-1.767-44.182-2.325
		c-12.372-0.441-22.537-7.058-33.717-5.812c-12.053-8.355-26.909-10.943-39.531-19.767c-4.043-2.825-5.818-8.117-10.464-10.464
		c-7.973-4.027-19.107-3.201-25.579-6.976c-6.837-3.987-11.303-12.078-17.44-16.277c-18.286-2.864-30.375-21.396-44.181-32.555
		c7.333-8.646,0.275-20.263-1.163-30.229c-23.301,0.139-52.525-25.021-30.229-41.856c5.647-0.843,9.793,4.186,13.952,1.163
		c4.386-6.517-0.568-21.221-1.163-30.23c12.281-17.489-0.442-44.467,2.326-65.108c-7.503-3.313-13.32,4.279-23.254,2.325
		c1.625-7.169-5.26-7.617-2.325-12.789c2.3-5.452,12.19-3.312,13.952-9.302c1.167-5.61-4.168-9.199-4.651-15.115
		c-0.594-7.294,4.97-12.212,5.813-19.765c1.474-13.196-6.703-38.308,9.302-44.181c13.694,14.157-0.168,52.057,13.952,67.435
		c-0.504,11.354,3.873,17.829,4.651,27.903c8.707,9.89,12.74,23.064,19.765,37.206c2.594,5.221,7.163,9.981,9.301,15.114
		c8.219,19.726,6.37,41.134,17.44,58.134c8.411,12.916,18.731,18.415,31.393,29.066c-1.772,25.026,12.775,33.73,19.765,49.995
		c5.195,1.006,9.578,2.824,16.277,2.325c-2.391-10.011-9.082-15.722-16.277-20.928c-2.711-8.917-4.86-18.394-11.626-23.254
		c-6.02-21.669-9.81-48.938-12.789-75.573c-1.603-14.321,0.446-29.288,1.162-41.855c0.496-8.688-3.427-18.149-2.325-25.58
		c0.89-5.997,8.252-12.626,11.626-20.928c1.668-4.1,1.044-8.27,2.326-11.626c2.675-7.004,10.001-11.454,4.651-20.929
		c5.941-6.073,11.13-12.897,18.603-17.44c5.73-23.723,20.466-38.441,37.206-51.157c-2.332-12.783-4.096-26.134-12.79-32.555
		c0.085-13.481-12.287-21.043-15.115-32.554c-10.409-42.38,2.43-106.496-19.765-141.845c3.796-8.232,0.161-17.42,1.163-29.067
		c18.918-15.471,18.913-44.694,29.066-74.411c3.064-8.967,4.425-17.693,6.976-24.416c2.382-6.28,9-11.05,9.301-16.277
		c0.687-11.893-15.794-25.31,0-31.392c26.13-1.428,51.731-6.189,75.573-3.488c7.117,4.897,14.188,9.841,24.416,11.626
		C305.09,32.063,323.432,32.406,320.835,45.318z M275.492,445.275c1.715-9.812-2.705-17.439-9.302-22.09
		C261.356,432.05,263.814,446.103,275.492,445.275z"/>
	<path fill-rule="evenodd" clip-rule="evenodd" d="M356.878,774.312c3.983,2.219,7.129,5.274,6.978,11.627
		c-3.615,1.267-5.417,4.342-9.301,2.326C352.151,783.425,354.104,777.344,356.878,774.312z"/>
	<path fill-rule="evenodd" clip-rule="evenodd" d="M337.114,785.938c-0.354,4.299-4.942,4.359-6.978,6.976
		c-3.408-0.079-4.317-2.657-5.812-4.649C324.768,782.975,335.463,779.861,337.114,785.938z"/>
</g>
</svg>
