<?xml version="1.0" encoding="UTF-8" standalone="no"?>
<!-- Created with Inkscape (http://www.inkscape.org/) -->

<svg
   xmlns:dc="http://purl.org/dc/elements/1.1/"
   xmlns:cc="http://creativecommons.org/ns#"
   xmlns:rdf="http://www.w3.org/1999/02/22-rdf-syntax-ns#"
   xmlns:svg="http://www.w3.org/2000/svg"
   xmlns="http://www.w3.org/2000/svg"
   xmlns:sodipodi="http://sodipodi.sourceforge.net/DTD/sodipodi-0.dtd"
   xmlns:inkscape="http://www.inkscape.org/namespaces/inkscape"
   width="885"
   height="885"
   id="svg3446"
   version="1.1"
   inkscape:version="0.48.4 r9939"
   sodipodi:docname="New document 4">
  <defs
     id="defs3448" />
  <sodipodi:namedview
     id="base"
     pagecolor="#ffffff"
     bordercolor="#666666"
     borderopacity="1.0"
     inkscape:pageopacity="0.0"
     inkscape:pageshadow="2"
     inkscape:zoom="0.35"
     inkscape:cx="953.16226"
     inkscape:cy="379.80625"
     inkscape:document-units="px"
     inkscape:current-layer="layer1"
     showgrid="false"
     fit-margin-top="0"
     fit-margin-left="0"
     fit-margin-right="0"
     fit-margin-bottom="0"
     inkscape:window-width="1366"
     inkscape:window-height="705"
     inkscape:window-x="-8"
     inkscape:window-y="-8"
     inkscape:window-maximized="1" />
  <metadata
     id="metadata3451">
    <rdf:RDF>
      <cc:Work
         rdf:about="">
        <dc:format>image/svg+xml</dc:format>
        <dc:type
           rdf:resource="http://purl.org/dc/dcmitype/StillImage" />
        <dc:title></dc:title>
      </cc:Work>
    </rdf:RDF>
  </metadata>
  <g
     inkscape:label="Layer 1"
     inkscape:groupmode="layer"
     id="layer1"
     transform="translate(1676.9491,429.97439)">
    <g
       transform="matrix(0.99967067,0,0,0.99967067,-1405.0335,-413.76646)"
       style="display:inline"
       id="g3146">
      <path
         style="fill:#000000;stroke:#000000;stroke-width:0;stroke-linecap:butt;stroke-linejoin:miter;stroke-miterlimit:4;stroke-opacity:1;stroke-dasharray:none"
         d="m 170.64061,426.42817 292.00001,0 c 0,0 -37.99611,29.97758 -37.99611,133.4939 0,98.52014 37.99611,133.5061 37.99611,133.5061 0,0 -48,-16.96406 -48,-133.5061 0,-109.0069 42.00389,-131.49387 42.00389,-131.49387 0,0 -7.35937,6.00041 -139.91795,5.9962 -146.08595,-0.005 -146.08595,-7.99623 -146.08595,-7.99623 z"
         id="path3044"
         inkscape:connector-curvature="0"
         sodipodi:nodetypes="ccscscsc" />
      <path
         sodipodi:type="arc"
         style="fill:#000000;fill-opacity:1;fill-rule:evenodd;stroke:none"
         id="path3052"
         sodipodi:cx="149.00233"
         sodipodi:cy="142.00241"
         sodipodi:rx="6.0023398"
         sodipodi:ry="5.9980502"
         d="m 155.00467,142.00241 c 0,3.31263 -2.68733,5.99805 -6.00234,5.99805 -3.315,0 -6.00234,-2.68542 -6.00234,-5.99805 0,-3.31263 2.68734,-5.99805 6.00234,-5.99805 3.31501,0 6.00234,2.68542 6.00234,5.99805 z"
         transform="matrix(0.99961018,0,0,1.0003251,165.69636,421.38004)" />
    </g>
    <g
       style="display:inline"
       id="g3150"
       inkscape:transform-center-y="-133.45603"
       transform="matrix(0.99967067,0,0,-0.99967067,-1405.0335,438.80901)"
       inkscape:transform-center-x="2.3167309e-005">
      <path
         sodipodi:nodetypes="ccscscsc"
         inkscape:connector-curvature="0"
         id="path3152"
         d="m 170.64061,426.42817 292.00001,0 c 0,0 -37.99611,29.97758 -37.99611,133.4939 0,98.52014 37.99611,133.5061 37.99611,133.5061 0,0 -48,-16.96406 -48,-133.5061 0,-109.0069 42.00389,-131.49387 42.00389,-131.49387 0,0 -7.35937,6.00041 -139.91795,5.9962 -146.08595,-0.005 -146.08595,-7.99623 -146.08595,-7.99623 z"
         style="fill:#000000;stroke:#000000;stroke-width:0;stroke-linecap:butt;stroke-linejoin:miter;stroke-miterlimit:4;stroke-opacity:1;stroke-dasharray:none" />
      <path
         transform="matrix(0.99961018,0,0,1.0003251,165.69636,421.38004)"
         d="m 155.00467,142.00241 c 0,3.31263 -2.68733,5.99805 -6.00234,5.99805 -3.315,0 -6.00234,-2.68542 -6.00234,-5.99805 0,-3.31263 2.68734,-5.99805 6.00234,-5.99805 3.31501,0 6.00234,2.68542 6.00234,5.99805 z"
         sodipodi:ry="5.9980502"
         sodipodi:rx="6.0023398"
         sodipodi:cy="142.00241"
         sodipodi:cx="149.00233"
         id="path3154"
         style="fill:#000000;fill-opacity:1;fill-rule:evenodd;stroke:none"
         sodipodi:type="arc" />
    </g>
    <g
       style="display:inline"
       id="g3156"
       inkscape:transform-center-x="145.95195"
       inkscape:transform-center-y="-133.45603"
       transform="matrix(-0.99967067,0,0,-0.99967067,-1063.8647,438.80901)">
      <path
         sodipodi:nodetypes="ccscscsc"
         inkscape:connector-curvature="0"
         id="path3158"
         d="m 170.64061,426.42817 292.00001,0 c 0,0 -37.99611,29.97758 -37.99611,133.4939 0,98.52014 37.99611,133.5061 37.99611,133.5061 0,0 -48,-16.96406 -48,-133.5061 0,-109.0069 42.00389,-131.49387 42.00389,-131.49387 0,0 -7.35937,6.00041 -139.91795,5.9962 -146.08595,-0.005 -146.08595,-7.99623 -146.08595,-7.99623 z"
         style="fill:#000000;stroke:#000000;stroke-width:0;stroke-linecap:butt;stroke-linejoin:miter;stroke-miterlimit:4;stroke-opacity:1;stroke-dasharray:none" />
      <path
         transform="matrix(0.99961018,0,0,1.0003251,165.69636,421.38004)"
         d="m 155.00467,142.00241 c 0,3.31263 -2.68733,5.99805 -6.00234,5.99805 -3.315,0 -6.00234,-2.68542 -6.00234,-5.99805 0,-3.31263 2.68734,-5.99805 6.00234,-5.99805 3.31501,0 6.00234,2.68542 6.00234,5.99805 z"
         sodipodi:ry="5.9980502"
         sodipodi:rx="6.0023398"
         sodipodi:cy="142.00241"
         sodipodi:cx="149.00233"
         id="path3160"
         style="fill:#000000;fill-opacity:1;fill-rule:evenodd;stroke:none"
         sodipodi:type="arc" />
    </g>
    <g
       style="display:inline"
       transform="matrix(-0.99967067,0,0,0.99967067,-1063.8647,-413.76646)"
       inkscape:transform-center-y="133.45603"
       id="g3162"
       inkscape:transform-center-x="145.95195">
      <path
         style="fill:#000000;stroke:#000000;stroke-width:0;stroke-linecap:butt;stroke-linejoin:miter;stroke-miterlimit:4;stroke-opacity:1;stroke-dasharray:none"
         d="m 170.64061,426.42817 292.00001,0 c 0,0 -37.99611,29.97758 -37.99611,133.4939 0,98.52014 37.99611,133.5061 37.99611,133.5061 0,0 -48,-16.96406 -48,-133.5061 0,-109.0069 42.00389,-131.49387 42.00389,-131.49387 0,0 -7.35937,6.00041 -139.91795,5.9962 -146.08595,-0.005 -146.08595,-7.99623 -146.08595,-7.99623 z"
         id="path3164"
         inkscape:connector-curvature="0"
         sodipodi:nodetypes="ccscscsc" />
      <path
         sodipodi:type="arc"
         style="fill:#000000;fill-opacity:1;fill-rule:evenodd;stroke:none"
         id="path3166"
         sodipodi:cx="149.00233"
         sodipodi:cy="142.00241"
         sodipodi:rx="6.0023398"
         sodipodi:ry="5.9980502"
         d="m 155.00467,142.00241 c 0,3.31263 -2.68733,5.99805 -6.00234,5.99805 -3.315,0 -6.00234,-2.68542 -6.00234,-5.99805 0,-3.31263 2.68734,-5.99805 6.00234,-5.99805 3.31501,0 6.00234,2.68542 6.00234,5.99805 z"
         transform="matrix(0.99961018,0,0,1.0003251,165.69636,421.38004)" />
    </g>
    <g
       style="display:inline"
       id="g3168"
       transform="matrix(0,0.99967067,-0.99967067,0,-808.16138,-158.06314)">
      <path
         sodipodi:nodetypes="ccscscsc"
         inkscape:connector-curvature="0"
         id="path3170"
         d="m 170.64061,426.42817 292.00001,0 c 0,0 -37.99611,29.97758 -37.99611,133.4939 0,98.52014 37.99611,133.5061 37.99611,133.5061 0,0 -48,-16.96406 -48,-133.5061 0,-109.0069 42.00389,-131.49387 42.00389,-131.49387 0,0 -7.35937,6.00041 -139.91795,5.9962 -146.08595,-0.005 -146.08595,-7.99623 -146.08595,-7.99623 z"
         style="fill:#000000;stroke:#000000;stroke-width:0;stroke-linecap:butt;stroke-linejoin:miter;stroke-miterlimit:4;stroke-opacity:1;stroke-dasharray:none" />
      <path
         transform="matrix(0.99961018,0,0,1.0003251,165.69636,421.38004)"
         d="m 155.00467,142.00241 c 0,3.31263 -2.68733,5.99805 -6.00234,5.99805 -3.315,0 -6.00234,-2.68542 -6.00234,-5.99805 0,-3.31263 2.68734,-5.99805 6.00234,-5.99805 3.31501,0 6.00234,2.68542 6.00234,5.99805 z"
         sodipodi:ry="5.9980502"
         sodipodi:rx="6.0023398"
         sodipodi:cy="142.00241"
         sodipodi:cx="149.00233"
         id="path3172"
         style="fill:#000000;fill-opacity:1;fill-rule:evenodd;stroke:none"
         sodipodi:type="arc" />
    </g>
    <g
       style="display:inline"
       transform="matrix(0,0.99967067,0.99967067,0,-1660.7368,-158.06314)"
       id="g3174"
       inkscape:transform-center-x="-133.45607">
      <path
         style="fill:#000000;stroke:#000000;stroke-width:0;stroke-linecap:butt;stroke-linejoin:miter;stroke-miterlimit:4;stroke-opacity:1;stroke-dasharray:none"
         d="m 170.64061,426.42817 292.00001,0 c 0,0 -37.99611,29.97758 -37.99611,133.4939 0,98.52014 37.99611,133.5061 37.99611,133.5061 0,0 -48,-16.96406 -48,-133.5061 0,-109.0069 42.00389,-131.49387 42.00389,-131.49387 0,0 -7.35937,6.00041 -139.91795,5.9962 -146.08595,-0.005 -146.08595,-7.99623 -146.08595,-7.99623 z"
         id="path3176"
         inkscape:connector-curvature="0"
         sodipodi:nodetypes="ccscscsc" />
      <path
         sodipodi:type="arc"
         style="fill:#000000;fill-opacity:1;fill-rule:evenodd;stroke:none"
         id="path3178"
         sodipodi:cx="149.00233"
         sodipodi:cy="142.00241"
         sodipodi:rx="6.0023398"
         sodipodi:ry="5.9980502"
         d="m 155.00467,142.00241 c 0,3.31263 -2.68733,5.99805 -6.00234,5.99805 -3.315,0 -6.00234,-2.68542 -6.00234,-5.99805 0,-3.31263 2.68734,-5.99805 6.00234,-5.99805 3.31501,0 6.00234,2.68542 6.00234,5.99805 z"
         transform="matrix(0.99961018,0,0,1.0003251,165.69636,421.38004)" />
    </g>
    <g
       style="display:inline"
       transform="matrix(0,-0.99967067,0.99967067,0,-1660.7368,183.1057)"
       inkscape:transform-center-y="-145.95192"
       inkscape:transform-center-x="-133.45607"
       id="g3180">
      <path
         style="fill:#000000;stroke:#000000;stroke-width:0;stroke-linecap:butt;stroke-linejoin:miter;stroke-miterlimit:4;stroke-opacity:1;stroke-dasharray:none"
         d="m 170.64061,426.42817 292.00001,0 c 0,0 -37.99611,29.97758 -37.99611,133.4939 0,98.52014 37.99611,133.5061 37.99611,133.5061 0,0 -48,-16.96406 -48,-133.5061 0,-109.0069 42.00389,-131.49387 42.00389,-131.49387 0,0 -7.35937,6.00041 -139.91795,5.9962 -146.08595,-0.005 -146.08595,-7.99623 -146.08595,-7.99623 z"
         id="path3182"
         inkscape:connector-curvature="0"
         sodipodi:nodetypes="ccscscsc" />
      <path
         sodipodi:type="arc"
         style="fill:#000000;fill-opacity:1;fill-rule:evenodd;stroke:none"
         id="path3184"
         sodipodi:cx="149.00233"
         sodipodi:cy="142.00241"
         sodipodi:rx="6.0023398"
         sodipodi:ry="5.9980502"
         d="m 155.00467,142.00241 c 0,3.31263 -2.68733,5.99805 -6.00234,5.99805 -3.315,0 -6.00234,-2.68542 -6.00234,-5.99805 0,-3.31263 2.68734,-5.99805 6.00234,-5.99805 3.31501,0 6.00234,2.68542 6.00234,5.99805 z"
         transform="matrix(0.99961018,0,0,1.0003251,165.69636,421.38004)" />
    </g>
    <g
       style="display:inline"
       inkscape:transform-center-x="133.45603"
       id="g3186"
       inkscape:transform-center-y="-145.95192"
       transform="matrix(0,-0.99967067,-0.99967067,0,-808.16138,183.1057)">
      <path
         sodipodi:nodetypes="ccscscsc"
         inkscape:connector-curvature="0"
         id="path3188"
         d="m 170.64061,426.42817 292.00001,0 c 0,0 -37.99611,29.97758 -37.99611,133.4939 0,98.52014 37.99611,133.5061 37.99611,133.5061 0,0 -48,-16.96406 -48,-133.5061 0,-109.0069 42.00389,-131.49387 42.00389,-131.49387 0,0 -7.35937,6.00041 -139.91795,5.9962 -146.08595,-0.005 -146.08595,-7.99623 -146.08595,-7.99623 z"
         style="fill:#000000;stroke:#000000;stroke-width:0;stroke-linecap:butt;stroke-linejoin:miter;stroke-miterlimit:4;stroke-opacity:1;stroke-dasharray:none" />
      <path
         transform="matrix(0.99961018,0,0,1.0003251,165.69636,421.38004)"
         d="m 155.00467,142.00241 c 0,3.31263 -2.68733,5.99805 -6.00234,5.99805 -3.315,0 -6.00234,-2.68542 -6.00234,-5.99805 0,-3.31263 2.68734,-5.99805 6.00234,-5.99805 3.31501,0 6.00234,2.68542 6.00234,5.99805 z"
         sodipodi:ry="5.9980502"
         sodipodi:rx="6.0023398"
         sodipodi:cy="142.00241"
         sodipodi:cx="149.00233"
         id="path3190"
         style="fill:#000000;fill-opacity:1;fill-rule:evenodd;stroke:none"
         sodipodi:type="arc" />
    </g>
    <g
       style="display:inline"
       id="g3192"
       transform="matrix(0.70687391,0.70687391,-0.70687391,0.70687391,-1053.6395,-409.53108)">
      <path
         sodipodi:nodetypes="ccscscsc"
         inkscape:connector-curvature="0"
         id="path3194"
         d="m 170.64061,426.42817 292.00001,0 c 0,0 -37.99611,29.97758 -37.99611,133.4939 0,98.52014 37.99611,133.5061 37.99611,133.5061 0,0 -48,-16.96406 -48,-133.5061 0,-109.0069 42.00389,-131.49387 42.00389,-131.49387 0,0 -7.35937,6.00041 -139.91795,5.9962 -146.08595,-0.005 -146.08595,-7.99623 -146.08595,-7.99623 z"
         style="fill:#000000;stroke:#000000;stroke-width:0;stroke-linecap:butt;stroke-linejoin:miter;stroke-miterlimit:4;stroke-opacity:1;stroke-dasharray:none" />
      <path
         transform="matrix(0.99961018,0,0,1.0003251,165.69636,421.38004)"
         d="m 155.00467,142.00241 c 0,3.31263 -2.68733,5.99805 -6.00234,5.99805 -3.315,0 -6.00234,-2.68542 -6.00234,-5.99805 0,-3.31263 2.68734,-5.99805 6.00234,-5.99805 3.31501,0 6.00234,2.68542 6.00234,5.99805 z"
         sodipodi:ry="5.9980502"
         sodipodi:rx="6.0023398"
         sodipodi:cy="142.00241"
         sodipodi:cx="149.00233"
         id="path3196"
         style="fill:#000000;fill-opacity:1;fill-rule:evenodd;stroke:none"
         sodipodi:type="arc" />
    </g>
    <g
       style="display:inline"
       transform="matrix(0.70687391,0.70687391,0.70687391,-0.70687391,-1656.5014,193.33082)"
       inkscape:transform-center-y="-0.52511425"
       id="g3198"
       inkscape:transform-center-x="-94.367698">
      <path
         style="fill:#000000;stroke:#000000;stroke-width:0;stroke-linecap:butt;stroke-linejoin:miter;stroke-miterlimit:4;stroke-opacity:1;stroke-dasharray:none"
         d="m 170.64061,426.42817 292.00001,0 c 0,0 -37.99611,29.97758 -37.99611,133.4939 0,98.52014 37.99611,133.5061 37.99611,133.5061 0,0 -48,-16.96406 -48,-133.5061 0,-109.0069 42.00389,-131.49387 42.00389,-131.49387 0,0 -7.35937,6.00041 -139.91795,5.9962 -146.08595,-0.005 -146.08595,-7.99623 -146.08595,-7.99623 z"
         id="path3200"
         inkscape:connector-curvature="0"
         sodipodi:nodetypes="ccscscsc" />
      <path
         sodipodi:type="arc"
         style="fill:#000000;fill-opacity:1;fill-rule:evenodd;stroke:none"
         id="path3202"
         sodipodi:cx="149.00233"
         sodipodi:cy="142.00241"
         sodipodi:rx="6.0023398"
         sodipodi:ry="5.9980502"
         d="m 155.00467,142.00241 c 0,3.31263 -2.68733,5.99805 -6.00234,5.99805 -3.315,0 -6.00234,-2.68542 -6.00234,-5.99805 0,-3.31263 2.68734,-5.99805 6.00234,-5.99805 3.31501,0 6.00234,2.68542 6.00234,5.99805 z"
         transform="matrix(0.99961018,0,0,1.0003251,165.69636,421.38004)" />
    </g>
    <g
       style="display:inline"
       transform="matrix(-0.70687391,-0.70687391,0.70687391,-0.70687391,-1415.2586,434.57362)"
       inkscape:transform-center-y="-197.57126"
       inkscape:transform-center-x="102.67847"
       id="g3204">
      <path
         style="fill:#000000;stroke:#000000;stroke-width:0;stroke-linecap:butt;stroke-linejoin:miter;stroke-miterlimit:4;stroke-opacity:1;stroke-dasharray:none"
         d="m 170.64061,426.42817 292.00001,0 c 0,0 -37.99611,29.97758 -37.99611,133.4939 0,98.52014 37.99611,133.5061 37.99611,133.5061 0,0 -48,-16.96406 -48,-133.5061 0,-109.0069 42.00389,-131.49387 42.00389,-131.49387 0,0 -7.35937,6.00041 -139.91795,5.9962 -146.08595,-0.005 -146.08595,-7.99623 -146.08595,-7.99623 z"
         id="path3206"
         inkscape:connector-curvature="0"
         sodipodi:nodetypes="ccscscsc" />
      <path
         sodipodi:type="arc"
         style="fill:#000000;fill-opacity:1;fill-rule:evenodd;stroke:none"
         id="path3208"
         sodipodi:cx="149.00233"
         sodipodi:cy="142.00241"
         sodipodi:rx="6.0023398"
         sodipodi:ry="5.9980502"
         d="m 155.00467,142.00241 c 0,3.31263 -2.68733,5.99805 -6.00234,5.99805 -3.315,0 -6.00234,-2.68542 -6.00234,-5.99805 0,-3.31263 2.68734,-5.99805 6.00234,-5.99805 3.31501,0 6.00234,2.68542 6.00234,5.99805 z"
         transform="matrix(0.99961018,0,0,1.0003251,165.69636,421.38004)" />
    </g>
    <g
       style="display:inline"
       inkscape:transform-center-x="197.57125"
       id="g3210"
       inkscape:transform-center-y="-102.67849"
       transform="matrix(-0.70687391,-0.70687391,-0.70687391,0.70687391,-812.39676,-168.28828)">
      <path
         sodipodi:nodetypes="ccscscsc"
         inkscape:connector-curvature="0"
         id="path3212"
         d="m 170.64061,426.42817 292.00001,0 c 0,0 -37.99611,29.97758 -37.99611,133.4939 0,98.52014 37.99611,133.5061 37.99611,133.5061 0,0 -48,-16.96406 -48,-133.5061 0,-109.0069 42.00389,-131.49387 42.00389,-131.49387 0,0 -7.35937,6.00041 -139.91795,5.9962 -146.08595,-0.005 -146.08595,-7.99623 -146.08595,-7.99623 z"
         style="fill:#000000;stroke:#000000;stroke-width:0;stroke-linecap:butt;stroke-linejoin:miter;stroke-miterlimit:4;stroke-opacity:1;stroke-dasharray:none" />
      <path
         transform="matrix(0.99961018,0,0,1.0003251,165.69636,421.38004)"
         d="m 155.00467,142.00241 c 0,3.31263 -2.68733,5.99805 -6.00234,5.99805 -3.315,0 -6.00234,-2.68542 -6.00234,-5.99805 0,-3.31263 2.68734,-5.99805 6.00234,-5.99805 3.31501,0 6.00234,2.68542 6.00234,5.99805 z"
         sodipodi:ry="5.9980502"
         sodipodi:rx="6.0023398"
         sodipodi:cy="142.00241"
         sodipodi:cx="149.00233"
         id="path3214"
         style="fill:#000000;fill-opacity:1;fill-rule:evenodd;stroke:none"
         sodipodi:type="arc" />
    </g>
    <g
       style="display:inline"
       transform="matrix(-0.70687391,0.70687391,-0.70687391,-0.70687391,-812.39676,193.33083)"
       id="g3216">
      <path
         style="fill:#000000;stroke:#000000;stroke-width:0;stroke-linecap:butt;stroke-linejoin:miter;stroke-miterlimit:4;stroke-opacity:1;stroke-dasharray:none"
         d="m 170.64061,426.42817 292.00001,0 c 0,0 -37.99611,29.97758 -37.99611,133.4939 0,98.52014 37.99611,133.5061 37.99611,133.5061 0,0 -48,-16.96406 -48,-133.5061 0,-109.0069 42.00389,-131.49387 42.00389,-131.49387 0,0 -7.35937,6.00041 -139.91795,5.9962 -146.08595,-0.005 -146.08595,-7.99623 -146.08595,-7.99623 z"
         id="path3218"
         inkscape:connector-curvature="0"
         sodipodi:nodetypes="ccscscsc" />
      <path
         sodipodi:type="arc"
         style="fill:#000000;fill-opacity:1;fill-rule:evenodd;stroke:none"
         id="path3220"
         sodipodi:cx="149.00233"
         sodipodi:cy="142.00241"
         sodipodi:rx="6.0023398"
         sodipodi:ry="5.9980502"
         d="m 155.00467,142.00241 c 0,3.31263 -2.68733,5.99805 -6.00234,5.99805 -3.315,0 -6.00234,-2.68542 -6.00234,-5.99805 0,-3.31263 2.68734,-5.99805 6.00234,-5.99805 3.31501,0 6.00234,2.68542 6.00234,5.99805 z"
         transform="matrix(0.99961018,0,0,1.0003251,165.69636,421.38004)" />
    </g>
    <g
       style="display:inline"
       inkscape:transform-center-x="-0.5251199"
       id="g3222"
       transform="matrix(-0.70687391,0.70687391,0.70687391,0.70687391,-1415.2586,-409.53107)"
       inkscape:transform-center-y="94.36766">
      <path
         sodipodi:nodetypes="ccscscsc"
         inkscape:connector-curvature="0"
         id="path3224"
         d="m 170.64061,426.42817 292.00001,0 c 0,0 -37.99611,29.97758 -37.99611,133.4939 0,98.52014 37.99611,133.5061 37.99611,133.5061 0,0 -48,-16.96406 -48,-133.5061 0,-109.0069 42.00389,-131.49387 42.00389,-131.49387 0,0 -7.35937,6.00041 -139.91795,5.9962 -146.08595,-0.005 -146.08595,-7.99623 -146.08595,-7.99623 z"
         style="fill:#000000;stroke:#000000;stroke-width:0;stroke-linecap:butt;stroke-linejoin:miter;stroke-miterlimit:4;stroke-opacity:1;stroke-dasharray:none" />
      <path
         transform="matrix(0.99961018,0,0,1.0003251,165.69636,421.38004)"
         d="m 155.00467,142.00241 c 0,3.31263 -2.68733,5.99805 -6.00234,5.99805 -3.315,0 -6.00234,-2.68542 -6.00234,-5.99805 0,-3.31263 2.68734,-5.99805 6.00234,-5.99805 3.31501,0 6.00234,2.68542 6.00234,5.99805 z"
         sodipodi:ry="5.9980502"
         sodipodi:rx="6.0023398"
         sodipodi:cy="142.00241"
         sodipodi:cx="149.00233"
         id="path3226"
         style="fill:#000000;fill-opacity:1;fill-rule:evenodd;stroke:none"
         sodipodi:type="arc" />
    </g>
    <g
       style="display:inline"
       id="g3228"
       inkscape:transform-center-x="-197.57129"
       inkscape:transform-center-y="-102.67849"
       transform="matrix(0.70687391,-0.70687391,0.70687391,0.70687391,-1656.5014,-168.28827)">
      <path
         sodipodi:nodetypes="ccscscsc"
         inkscape:connector-curvature="0"
         id="path3230"
         d="m 170.64061,426.42817 292.00001,0 c 0,0 -37.99611,29.97758 -37.99611,133.4939 0,98.52014 37.99611,133.5061 37.99611,133.5061 0,0 -48,-16.96406 -48,-133.5061 0,-109.0069 42.00389,-131.49387 42.00389,-131.49387 0,0 -7.35937,6.00041 -139.91795,5.9962 -146.08595,-0.005 -146.08595,-7.99623 -146.08595,-7.99623 z"
         style="fill:#000000;stroke:#000000;stroke-width:0;stroke-linecap:butt;stroke-linejoin:miter;stroke-miterlimit:4;stroke-opacity:1;stroke-dasharray:none" />
      <path
         transform="matrix(0.99961018,0,0,1.0003251,165.69636,421.38004)"
         d="m 155.00467,142.00241 c 0,3.31263 -2.68733,5.99805 -6.00234,5.99805 -3.315,0 -6.00234,-2.68542 -6.00234,-5.99805 0,-3.31263 2.68734,-5.99805 6.00234,-5.99805 3.31501,0 6.00234,2.68542 6.00234,5.99805 z"
         sodipodi:ry="5.9980502"
         sodipodi:rx="6.0023398"
         sodipodi:cy="142.00241"
         sodipodi:cx="149.00233"
         id="path3232"
         style="fill:#000000;fill-opacity:1;fill-rule:evenodd;stroke:none"
         sodipodi:type="arc" />
    </g>
    <g
       style="display:inline"
       transform="matrix(0.70687391,-0.70687391,-0.70687391,-0.70687391,-1053.6395,434.57363)"
       inkscape:transform-center-y="-197.57126"
       id="g3234"
       inkscape:transform-center-x="-102.67851">
      <path
         style="fill:#000000;stroke:#000000;stroke-width:0;stroke-linecap:butt;stroke-linejoin:miter;stroke-miterlimit:4;stroke-opacity:1;stroke-dasharray:none"
         d="m 170.64061,426.42817 292.00001,0 c 0,0 -37.99611,29.97758 -37.99611,133.4939 0,98.52014 37.99611,133.5061 37.99611,133.5061 0,0 -48,-16.96406 -48,-133.5061 0,-109.0069 42.00389,-131.49387 42.00389,-131.49387 0,0 -7.35937,6.00041 -139.91795,5.9962 -146.08595,-0.005 -146.08595,-7.99623 -146.08595,-7.99623 z"
         id="path3236"
         inkscape:connector-curvature="0"
         sodipodi:nodetypes="ccscscsc" />
      <path
         sodipodi:type="arc"
         style="fill:#000000;fill-opacity:1;fill-rule:evenodd;stroke:none"
         id="path3238"
         sodipodi:cx="149.00233"
         sodipodi:cy="142.00241"
         sodipodi:rx="6.0023398"
         sodipodi:ry="5.9980502"
         d="m 155.00467,142.00241 c 0,3.31263 -2.68733,5.99805 -6.00234,5.99805 -3.315,0 -6.00234,-2.68542 -6.00234,-5.99805 0,-3.31263 2.68734,-5.99805 6.00234,-5.99805 3.31501,0 6.00234,2.68542 6.00234,5.99805 z"
         transform="matrix(0.99961018,0,0,1.0003251,165.69636,421.38004)" />
    </g>
    <g
       style="display:inline"
       inkscape:transform-center-x="-133.45607"
       id="g3244"
       transform="matrix(0,0.99967067,0.99967067,0,-1660.7368,-91.085226)">
      <path
         sodipodi:nodetypes="ccscscsc"
         inkscape:connector-curvature="0"
         id="path3246"
         d="m 170.64061,426.42817 292.00001,0 c 0,0 -37.99611,29.97758 -37.99611,133.4939 0,98.52014 37.99611,133.5061 37.99611,133.5061 0,0 -48,-16.96406 -48,-133.5061 0,-109.0069 42.00389,-131.49387 42.00389,-131.49387 0,0 -7.35937,6.00041 -139.91795,5.9962 -146.08595,-0.005 -146.08595,-7.99623 -146.08595,-7.99623 z"
         style="fill:#000000;stroke:#000000;stroke-width:0;stroke-linecap:butt;stroke-linejoin:miter;stroke-miterlimit:4;stroke-opacity:1;stroke-dasharray:none" />
      <path
         transform="matrix(0.99961018,0,0,1.0003251,165.69636,421.38004)"
         d="m 155.00467,142.00241 c 0,3.31263 -2.68733,5.99805 -6.00234,5.99805 -3.315,0 -6.00234,-2.68542 -6.00234,-5.99805 0,-3.31263 2.68734,-5.99805 6.00234,-5.99805 3.31501,0 6.00234,2.68542 6.00234,5.99805 z"
         sodipodi:ry="5.9980502"
         sodipodi:rx="6.0023398"
         sodipodi:cy="142.00241"
         sodipodi:cx="149.00233"
         id="path3248"
         style="fill:#000000;fill-opacity:1;fill-rule:evenodd;stroke:none"
         sodipodi:type="arc" />
    </g>
    <g
       style="display:inline"
       transform="matrix(0,0.99967067,-0.99967067,0,-808.16138,-91.085226)"
       id="g3250"
       inkscape:transform-center-x="133.45603"
       inkscape:transform-center-y="212.92548">
      <path
         style="fill:#000000;stroke:#000000;stroke-width:0;stroke-linecap:butt;stroke-linejoin:miter;stroke-miterlimit:4;stroke-opacity:1;stroke-dasharray:none"
         d="m 170.64061,426.42817 292.00001,0 c 0,0 -37.99611,29.97758 -37.99611,133.4939 0,98.52014 37.99611,133.5061 37.99611,133.5061 0,0 -48,-16.96406 -48,-133.5061 0,-109.0069 42.00389,-131.49387 42.00389,-131.49387 0,0 -7.35937,6.00041 -139.91795,5.9962 -146.08595,-0.005 -146.08595,-7.99623 -146.08595,-7.99623 z"
         id="path3252"
         inkscape:connector-curvature="0"
         sodipodi:nodetypes="ccscscsc" />
      <path
         sodipodi:type="arc"
         style="fill:#000000;fill-opacity:1;fill-rule:evenodd;stroke:none"
         id="path3254"
         sodipodi:cx="149.00233"
         sodipodi:cy="142.00241"
         sodipodi:rx="6.0023398"
         sodipodi:ry="5.9980502"
         d="m 155.00467,142.00241 c 0,3.31263 -2.68733,5.99805 -6.00234,5.99805 -3.315,0 -6.00234,-2.68542 -6.00234,-5.99805 0,-3.31263 2.68734,-5.99805 6.00234,-5.99805 3.31501,0 6.00234,2.68542 6.00234,5.99805 z"
         transform="matrix(0.99961018,0,0,1.0003251,165.69636,421.38004)" />
    </g>
    <g
       style="display:inline"
       transform="matrix(0.99967067,0,0,-0.99967067,-1338.0599,438.81335)"
       id="g3256"
       inkscape:transform-center-y="-133.45603"
       inkscape:transform-center-x="-4.0194333e-005">
      <path
         style="fill:#000000;stroke:#000000;stroke-width:0;stroke-linecap:butt;stroke-linejoin:miter;stroke-miterlimit:4;stroke-opacity:1;stroke-dasharray:none"
         d="m 170.64061,426.42817 292.00001,0 c 0,0 -37.99611,29.97758 -37.99611,133.4939 0,98.52014 37.99611,133.5061 37.99611,133.5061 0,0 -48,-16.96406 -48,-133.5061 0,-109.0069 42.00389,-131.49387 42.00389,-131.49387 0,0 -7.35937,6.00041 -139.91795,5.9962 -146.08595,-0.005 -146.08595,-7.99623 -146.08595,-7.99623 z"
         id="path3258"
         inkscape:connector-curvature="0"
         sodipodi:nodetypes="ccscscsc" />
      <path
         sodipodi:type="arc"
         style="fill:#000000;fill-opacity:1;fill-rule:evenodd;stroke:none"
         id="path3260"
         sodipodi:cx="149.00233"
         sodipodi:cy="142.00241"
         sodipodi:rx="6.0023398"
         sodipodi:ry="5.9980502"
         d="m 155.00467,142.00241 c 0,3.31263 -2.68733,5.99805 -6.00234,5.99805 -3.315,0 -6.00234,-2.68542 -6.00234,-5.99805 0,-3.31263 2.68734,-5.99805 6.00234,-5.99805 3.31501,0 6.00234,2.68542 6.00234,5.99805 z"
         transform="matrix(0.99961018,0,0,1.0003251,165.69636,421.38004)" />
    </g>
    <g
       style="display:inline"
       inkscape:transform-center-y="133.45603"
       inkscape:transform-center-x="-212.92553"
       id="g3262"
       transform="matrix(0.99967067,0,0,0.99967067,-1338.0599,-413.76212)">
      <path
         sodipodi:nodetypes="ccscscsc"
         inkscape:connector-curvature="0"
         id="path3264"
         d="m 170.64061,426.42817 292.00001,0 c 0,0 -37.99611,29.97758 -37.99611,133.4939 0,98.52014 37.99611,133.5061 37.99611,133.5061 0,0 -48,-16.96406 -48,-133.5061 0,-109.0069 42.00389,-131.49387 42.00389,-131.49387 0,0 -7.35937,6.00041 -139.91795,5.9962 -146.08595,-0.005 -146.08595,-7.99623 -146.08595,-7.99623 z"
         style="fill:#000000;stroke:#000000;stroke-width:0;stroke-linecap:butt;stroke-linejoin:miter;stroke-miterlimit:4;stroke-opacity:1;stroke-dasharray:none" />
      <path
         transform="matrix(0.99961018,0,0,1.0003251,165.69636,421.38004)"
         d="m 155.00467,142.00241 c 0,3.31263 -2.68733,5.99805 -6.00234,5.99805 -3.315,0 -6.00234,-2.68542 -6.00234,-5.99805 0,-3.31263 2.68734,-5.99805 6.00234,-5.99805 3.31501,0 6.00234,2.68542 6.00234,5.99805 z"
         sodipodi:ry="5.9980502"
         sodipodi:rx="6.0023398"
         sodipodi:cy="142.00241"
         sodipodi:cx="149.00233"
         id="path3266"
         style="fill:#000000;fill-opacity:1;fill-rule:evenodd;stroke:none"
         sodipodi:type="arc" />
    </g>
    <g
       style="display:inline"
       id="g3268"
       transform="matrix(0,-0.99967067,-0.99967067,0,-808.16139,116.13647)"
       inkscape:transform-center-x="133.45603">
      <path
         sodipodi:nodetypes="ccscscsc"
         inkscape:connector-curvature="0"
         id="path3270"
         d="m 170.64061,426.42817 292.00001,0 c 0,0 -37.99611,29.97758 -37.99611,133.4939 0,98.52014 37.99611,133.5061 37.99611,133.5061 0,0 -48,-16.96406 -48,-133.5061 0,-109.0069 42.00389,-131.49387 42.00389,-131.49387 0,0 -7.35937,6.00041 -139.91795,5.9962 -146.08595,-0.005 -146.08595,-7.99623 -146.08595,-7.99623 z"
         style="fill:#000000;stroke:#000000;stroke-width:0;stroke-linecap:butt;stroke-linejoin:miter;stroke-miterlimit:4;stroke-opacity:1;stroke-dasharray:none" />
      <path
         transform="matrix(0.99961018,0,0,1.0003251,165.69636,421.38004)"
         d="m 155.00467,142.00241 c 0,3.31263 -2.68733,5.99805 -6.00234,5.99805 -3.315,0 -6.00234,-2.68542 -6.00234,-5.99805 0,-3.31263 2.68734,-5.99805 6.00234,-5.99805 3.31501,0 6.00234,2.68542 6.00234,5.99805 z"
         sodipodi:ry="5.9980502"
         sodipodi:rx="6.0023398"
         sodipodi:cy="142.00241"
         sodipodi:cx="149.00233"
         id="path3272"
         style="fill:#000000;fill-opacity:1;fill-rule:evenodd;stroke:none"
         sodipodi:type="arc" />
    </g>
    <g
       style="display:inline"
       transform="matrix(0,-0.99967067,0.99967067,0,-1660.7368,116.13647)"
       id="g3274"
       inkscape:transform-center-x="-133.45607"
       inkscape:transform-center-y="-212.92549">
      <path
         style="fill:#000000;stroke:#000000;stroke-width:0;stroke-linecap:butt;stroke-linejoin:miter;stroke-miterlimit:4;stroke-opacity:1;stroke-dasharray:none"
         d="m 170.64061,426.42817 292.00001,0 c 0,0 -37.99611,29.97758 -37.99611,133.4939 0,98.52014 37.99611,133.5061 37.99611,133.5061 0,0 -48,-16.96406 -48,-133.5061 0,-109.0069 42.00389,-131.49387 42.00389,-131.49387 0,0 -7.35937,6.00041 -139.91795,5.9962 -146.08595,-0.005 -146.08595,-7.99623 -146.08595,-7.99623 z"
         id="path3276"
         inkscape:connector-curvature="0"
         sodipodi:nodetypes="ccscscsc" />
      <path
         sodipodi:type="arc"
         style="fill:#000000;fill-opacity:1;fill-rule:evenodd;stroke:none"
         id="path3278"
         sodipodi:cx="149.00233"
         sodipodi:cy="142.00241"
         sodipodi:rx="6.0023398"
         sodipodi:ry="5.9980502"
         d="m 155.00467,142.00241 c 0,3.31263 -2.68733,5.99805 -6.00234,5.99805 -3.315,0 -6.00234,-2.68542 -6.00234,-5.99805 0,-3.31263 2.68734,-5.99805 6.00234,-5.99805 3.31501,0 6.00234,2.68542 6.00234,5.99805 z"
         transform="matrix(0.99961018,0,0,1.0003251,165.69636,421.38004)" />
    </g>
    <g
       style="display:inline"
       transform="matrix(-0.99967067,0,0,0.99967067,-1130.8382,-413.76211)"
       id="g3280"
       inkscape:transform-center-y="133.45603">
      <path
         style="fill:#000000;stroke:#000000;stroke-width:0;stroke-linecap:butt;stroke-linejoin:miter;stroke-miterlimit:4;stroke-opacity:1;stroke-dasharray:none"
         d="m 170.64061,426.42817 292.00001,0 c 0,0 -37.99611,29.97758 -37.99611,133.4939 0,98.52014 37.99611,133.5061 37.99611,133.5061 0,0 -48,-16.96406 -48,-133.5061 0,-109.0069 42.00389,-131.49387 42.00389,-131.49387 0,0 -7.35937,6.00041 -139.91795,5.9962 -146.08595,-0.005 -146.08595,-7.99623 -146.08595,-7.99623 z"
         id="path3282"
         inkscape:connector-curvature="0"
         sodipodi:nodetypes="ccscscsc" />
      <path
         sodipodi:type="arc"
         style="fill:#000000;fill-opacity:1;fill-rule:evenodd;stroke:none"
         id="path3284"
         sodipodi:cx="149.00233"
         sodipodi:cy="142.00241"
         sodipodi:rx="6.0023398"
         sodipodi:ry="5.9980502"
         d="m 155.00467,142.00241 c 0,3.31263 -2.68733,5.99805 -6.00234,5.99805 -3.315,0 -6.00234,-2.68542 -6.00234,-5.99805 0,-3.31263 2.68734,-5.99805 6.00234,-5.99805 3.31501,0 6.00234,2.68542 6.00234,5.99805 z"
         transform="matrix(0.99961018,0,0,1.0003251,165.69636,421.38004)" />
    </g>
    <g
       style="display:inline"
       inkscape:transform-center-y="-133.45603"
       inkscape:transform-center-x="212.92548"
       id="g3286"
       transform="matrix(-0.99967067,0,0,-0.99967067,-1130.8382,438.81336)">
      <path
         sodipodi:nodetypes="ccscscsc"
         inkscape:connector-curvature="0"
         id="path3288"
         d="m 170.64061,426.42817 292.00001,0 c 0,0 -37.99611,29.97758 -37.99611,133.4939 0,98.52014 37.99611,133.5061 37.99611,133.5061 0,0 -48,-16.96406 -48,-133.5061 0,-109.0069 42.00389,-131.49387 42.00389,-131.49387 0,0 -7.35937,6.00041 -139.91795,5.9962 -146.08595,-0.005 -146.08595,-7.99623 -146.08595,-7.99623 z"
         style="fill:#000000;stroke:#000000;stroke-width:0;stroke-linecap:butt;stroke-linejoin:miter;stroke-miterlimit:4;stroke-opacity:1;stroke-dasharray:none" />
      <path
         transform="matrix(0.99961018,0,0,1.0003251,165.69636,421.38004)"
         d="m 155.00467,142.00241 c 0,3.31263 -2.68733,5.99805 -6.00234,5.99805 -3.315,0 -6.00234,-2.68542 -6.00234,-5.99805 0,-3.31263 2.68734,-5.99805 6.00234,-5.99805 3.31501,0 6.00234,2.68542 6.00234,5.99805 z"
         sodipodi:ry="5.9980502"
         sodipodi:rx="6.0023398"
         sodipodi:cy="142.00241"
         sodipodi:cx="149.00233"
         id="path3290"
         style="fill:#000000;fill-opacity:1;fill-rule:evenodd;stroke:none"
         sodipodi:type="arc" />
    </g>
    <g
       style="display:inline"
       transform="matrix(0.70687391,0.70687391,0.70687391,-0.70687391,-1609.1439,240.69263)"
       id="g3292"
       inkscape:transform-center-x="-94.367705"
       inkscape:transform-center-y="-0.52511301">
      <path
         style="fill:#000000;stroke:#000000;stroke-width:0;stroke-linecap:butt;stroke-linejoin:miter;stroke-miterlimit:4;stroke-opacity:1;stroke-dasharray:none"
         d="m 170.64061,426.42817 292.00001,0 c 0,0 -37.99611,29.97758 -37.99611,133.4939 0,98.52014 37.99611,133.5061 37.99611,133.5061 0,0 -48,-16.96406 -48,-133.5061 0,-109.0069 42.00389,-131.49387 42.00389,-131.49387 0,0 -7.35937,6.00041 -139.91795,5.9962 -146.08595,-0.005 -146.08595,-7.99623 -146.08595,-7.99623 z"
         id="path3294"
         inkscape:connector-curvature="0"
         sodipodi:nodetypes="ccscscsc" />
      <path
         sodipodi:type="arc"
         style="fill:#000000;fill-opacity:1;fill-rule:evenodd;stroke:none"
         id="path3296"
         sodipodi:cx="149.00233"
         sodipodi:cy="142.00241"
         sodipodi:rx="6.0023398"
         sodipodi:ry="5.9980502"
         d="m 155.00467,142.00241 c 0,3.31263 -2.68733,5.99805 -6.00234,5.99805 -3.315,0 -6.00234,-2.68542 -6.00234,-5.99805 0,-3.31263 2.68734,-5.99805 6.00234,-5.99805 3.31501,0 6.00234,2.68542 6.00234,5.99805 z"
         transform="matrix(0.99961018,0,0,1.0003251,165.69636,421.38004)" />
    </g>
    <g
       style="display:inline"
       inkscape:transform-center-y="244.92872"
       inkscape:transform-center-x="-150.03598"
       id="g3298"
       transform="matrix(0.70687391,0.70687391,-0.70687391,0.70687391,-1006.282,-362.16927)">
      <path
         sodipodi:nodetypes="ccscscsc"
         inkscape:connector-curvature="0"
         id="path3300"
         d="m 170.64061,426.42817 292.00001,0 c 0,0 -37.99611,29.97758 -37.99611,133.4939 0,98.52014 37.99611,133.5061 37.99611,133.5061 0,0 -48,-16.96406 -48,-133.5061 0,-109.0069 42.00389,-131.49387 42.00389,-131.49387 0,0 -7.35937,6.00041 -139.91795,5.9962 -146.08595,-0.005 -146.08595,-7.99623 -146.08595,-7.99623 z"
         style="fill:#000000;stroke:#000000;stroke-width:0;stroke-linecap:butt;stroke-linejoin:miter;stroke-miterlimit:4;stroke-opacity:1;stroke-dasharray:none" />
      <path
         transform="matrix(0.99961018,0,0,1.0003251,165.69636,421.38004)"
         d="m 155.00467,142.00241 c 0,3.31263 -2.68733,5.99805 -6.00234,5.99805 -3.315,0 -6.00234,-2.68542 -6.00234,-5.99805 0,-3.31263 2.68734,-5.99805 6.00234,-5.99805 3.31501,0 6.00234,2.68542 6.00234,5.99805 z"
         sodipodi:ry="5.9980502"
         sodipodi:rx="6.0023398"
         sodipodi:cy="142.00241"
         sodipodi:cx="149.00233"
         id="path3302"
         style="fill:#000000;fill-opacity:1;fill-rule:evenodd;stroke:none"
         sodipodi:type="arc" />
    </g>
    <g
       style="display:inline"
       inkscape:transform-center-y="-94.367661"
       inkscape:transform-center-x="0.52507162"
       id="g3304"
       transform="matrix(0.70687391,-0.70687391,-0.70687391,-0.70687391,-1006.282,387.22051)">
      <path
         sodipodi:nodetypes="ccscscsc"
         inkscape:connector-curvature="0"
         id="path3306"
         d="m 170.64061,426.42817 292.00001,0 c 0,0 -37.99611,29.97758 -37.99611,133.4939 0,98.52014 37.99611,133.5061 37.99611,133.5061 0,0 -48,-16.96406 -48,-133.5061 0,-109.0069 42.00389,-131.49387 42.00389,-131.49387 0,0 -7.35937,6.00041 -139.91795,5.9962 -146.08595,-0.005 -146.08595,-7.99623 -146.08595,-7.99623 z"
         style="fill:#000000;stroke:#000000;stroke-width:0;stroke-linecap:butt;stroke-linejoin:miter;stroke-miterlimit:4;stroke-opacity:1;stroke-dasharray:none" />
      <path
         transform="matrix(0.99961018,0,0,1.0003251,165.69636,421.38004)"
         d="m 155.00467,142.00241 c 0,3.31263 -2.68733,5.99805 -6.00234,5.99805 -3.315,0 -6.00234,-2.68542 -6.00234,-5.99805 0,-3.31263 2.68734,-5.99805 6.00234,-5.99805 3.31501,0 6.00234,2.68542 6.00234,5.99805 z"
         sodipodi:ry="5.9980502"
         sodipodi:rx="6.0023398"
         sodipodi:cy="142.00241"
         sodipodi:cx="149.00233"
         id="path3308"
         style="fill:#000000;fill-opacity:1;fill-rule:evenodd;stroke:none"
         sodipodi:type="arc" />
    </g>
    <g
       style="display:inline"
       transform="matrix(0.70687391,-0.70687391,0.70687391,0.70687391,-1609.1439,-215.64139)"
       id="g3310"
       inkscape:transform-center-x="-244.92876"
       inkscape:transform-center-y="-150.03594">
      <path
         style="fill:#000000;stroke:#000000;stroke-width:0;stroke-linecap:butt;stroke-linejoin:miter;stroke-miterlimit:4;stroke-opacity:1;stroke-dasharray:none"
         d="m 170.64061,426.42817 292.00001,0 c 0,0 -37.99611,29.97758 -37.99611,133.4939 0,98.52014 37.99611,133.5061 37.99611,133.5061 0,0 -48,-16.96406 -48,-133.5061 0,-109.0069 42.00389,-131.49387 42.00389,-131.49387 0,0 -7.35937,6.00041 -139.91795,5.9962 -146.08595,-0.005 -146.08595,-7.99623 -146.08595,-7.99623 z"
         id="path3312"
         inkscape:connector-curvature="0"
         sodipodi:nodetypes="ccscscsc" />
      <path
         sodipodi:type="arc"
         style="fill:#000000;fill-opacity:1;fill-rule:evenodd;stroke:none"
         id="path3314"
         sodipodi:cx="149.00233"
         sodipodi:cy="142.00241"
         sodipodi:rx="6.0023398"
         sodipodi:ry="5.9980502"
         d="m 155.00467,142.00241 c 0,3.31263 -2.68733,5.99805 -6.00234,5.99805 -3.315,0 -6.00234,-2.68542 -6.00234,-5.99805 0,-3.31263 2.68734,-5.99805 6.00234,-5.99805 3.31501,0 6.00234,2.68542 6.00234,5.99805 z"
         transform="matrix(0.99961018,0,0,1.0003251,165.69636,421.38004)" />
    </g>
    <g
       style="display:inline"
       transform="matrix(-0.70687391,-0.70687391,-0.70687391,0.70687391,-859.75423,-215.64139)"
       id="g3316"
       inkscape:transform-center-x="94.367665"
       inkscape:transform-center-y="0.52511235">
      <path
         style="fill:#000000;stroke:#000000;stroke-width:0;stroke-linecap:butt;stroke-linejoin:miter;stroke-miterlimit:4;stroke-opacity:1;stroke-dasharray:none"
         d="m 170.64061,426.42817 292.00001,0 c 0,0 -37.99611,29.97758 -37.99611,133.4939 0,98.52014 37.99611,133.5061 37.99611,133.5061 0,0 -48,-16.96406 -48,-133.5061 0,-109.0069 42.00389,-131.49387 42.00389,-131.49387 0,0 -7.35937,6.00041 -139.91795,5.9962 -146.08595,-0.005 -146.08595,-7.99623 -146.08595,-7.99623 z"
         id="path3318"
         inkscape:connector-curvature="0"
         sodipodi:nodetypes="ccscscsc" />
      <path
         sodipodi:type="arc"
         style="fill:#000000;fill-opacity:1;fill-rule:evenodd;stroke:none"
         id="path3320"
         sodipodi:cx="149.00233"
         sodipodi:cy="142.00241"
         sodipodi:rx="6.0023398"
         sodipodi:ry="5.9980502"
         d="m 155.00467,142.00241 c 0,3.31263 -2.68733,5.99805 -6.00234,5.99805 -3.315,0 -6.00234,-2.68542 -6.00234,-5.99805 0,-3.31263 2.68734,-5.99805 6.00234,-5.99805 3.31501,0 6.00234,2.68542 6.00234,5.99805 z"
         transform="matrix(0.99961018,0,0,1.0003251,165.69636,421.38004)" />
    </g>
    <g
       style="display:inline"
       inkscape:transform-center-y="-244.92872"
       inkscape:transform-center-x="150.03593"
       id="g3322"
       transform="matrix(-0.70687391,-0.70687391,0.70687391,-0.70687391,-1462.6161,387.22051)">
      <path
         sodipodi:nodetypes="ccscscsc"
         inkscape:connector-curvature="0"
         id="path3324"
         d="m 170.64061,426.42817 292.00001,0 c 0,0 -37.99611,29.97758 -37.99611,133.4939 0,98.52014 37.99611,133.5061 37.99611,133.5061 0,0 -48,-16.96406 -48,-133.5061 0,-109.0069 42.00389,-131.49387 42.00389,-131.49387 0,0 -7.35937,6.00041 -139.91795,5.9962 -146.08595,-0.005 -146.08595,-7.99623 -146.08595,-7.99623 z"
         style="fill:#000000;stroke:#000000;stroke-width:0;stroke-linecap:butt;stroke-linejoin:miter;stroke-miterlimit:4;stroke-opacity:1;stroke-dasharray:none" />
      <path
         transform="matrix(0.99961018,0,0,1.0003251,165.69636,421.38004)"
         d="m 155.00467,142.00241 c 0,3.31263 -2.68733,5.99805 -6.00234,5.99805 -3.315,0 -6.00234,-2.68542 -6.00234,-5.99805 0,-3.31263 2.68734,-5.99805 6.00234,-5.99805 3.31501,0 6.00234,2.68542 6.00234,5.99805 z"
         sodipodi:ry="5.9980502"
         sodipodi:rx="6.0023398"
         sodipodi:cy="142.00241"
         sodipodi:cx="149.00233"
         id="path3326"
         style="fill:#000000;fill-opacity:1;fill-rule:evenodd;stroke:none"
         sodipodi:type="arc" />
    </g>
    <g
       style="display:inline"
       inkscape:transform-center-y="94.367665"
       inkscape:transform-center-x="-0.52512116"
       id="g3328"
       transform="matrix(-0.70687391,0.70687391,0.70687391,0.70687391,-1462.6161,-362.16926)">
      <path
         sodipodi:nodetypes="ccscscsc"
         inkscape:connector-curvature="0"
         id="path3330"
         d="m 170.64061,426.42817 292.00001,0 c 0,0 -37.99611,29.97758 -37.99611,133.4939 0,98.52014 37.99611,133.5061 37.99611,133.5061 0,0 -48,-16.96406 -48,-133.5061 0,-109.0069 42.00389,-131.49387 42.00389,-131.49387 0,0 -7.35937,6.00041 -139.91795,5.9962 -146.08595,-0.005 -146.08595,-7.99623 -146.08595,-7.99623 z"
         style="fill:#000000;stroke:#000000;stroke-width:0;stroke-linecap:butt;stroke-linejoin:miter;stroke-miterlimit:4;stroke-opacity:1;stroke-dasharray:none" />
      <path
         transform="matrix(0.99961018,0,0,1.0003251,165.69636,421.38004)"
         d="m 155.00467,142.00241 c 0,3.31263 -2.68733,5.99805 -6.00234,5.99805 -3.315,0 -6.00234,-2.68542 -6.00234,-5.99805 0,-3.31263 2.68734,-5.99805 6.00234,-5.99805 3.31501,0 6.00234,2.68542 6.00234,5.99805 z"
         sodipodi:ry="5.9980502"
         sodipodi:rx="6.0023398"
         sodipodi:cy="142.00241"
         sodipodi:cx="149.00233"
         id="path3332"
         style="fill:#000000;fill-opacity:1;fill-rule:evenodd;stroke:none"
         sodipodi:type="arc" />
    </g>
    <g
       style="display:inline"
       transform="matrix(-0.70687391,0.70687391,-0.70687391,-0.70687391,-859.75423,240.69264)"
       id="g3334"
       inkscape:transform-center-x="244.92872"
       inkscape:transform-center-y="150.03594">
      <path
         style="fill:#000000;stroke:#000000;stroke-width:0;stroke-linecap:butt;stroke-linejoin:miter;stroke-miterlimit:4;stroke-opacity:1;stroke-dasharray:none"
         d="m 170.64061,426.42817 292.00001,0 c 0,0 -37.99611,29.97758 -37.99611,133.4939 0,98.52014 37.99611,133.5061 37.99611,133.5061 0,0 -48,-16.96406 -48,-133.5061 0,-109.0069 42.00389,-131.49387 42.00389,-131.49387 0,0 -7.35937,6.00041 -139.91795,5.9962 -146.08595,-0.005 -146.08595,-7.99623 -146.08595,-7.99623 z"
         id="path3336"
         inkscape:connector-curvature="0"
         sodipodi:nodetypes="ccscscsc" />
      <path
         sodipodi:type="arc"
         style="fill:#000000;fill-opacity:1;fill-rule:evenodd;stroke:none"
         id="path3338"
         sodipodi:cx="149.00233"
         sodipodi:cy="142.00241"
         sodipodi:rx="6.0023398"
         sodipodi:ry="5.9980502"
         d="m 155.00467,142.00241 c 0,3.31263 -2.68733,5.99805 -6.00234,5.99805 -3.315,0 -6.00234,-2.68542 -6.00234,-5.99805 0,-3.31263 2.68734,-5.99805 6.00234,-5.99805 3.31501,0 6.00234,2.68542 6.00234,5.99805 z"
         transform="matrix(0.99961018,0,0,1.0003251,165.69636,421.38004)" />
    </g>
  </g>
</svg>
