<svg xmlns="http://www.w3.org/2000/svg" viewBox="0 0 1000 1000"><title>Electrum</title><path d="M326.61,262.87l7.89,7.74c22.69,22.27,4.42,37.92-16.61,59.34l26.35,25.86,23,22.54c24.71-25.18,38.78-37.58,70.82-6.14L445.9,380l12.92-13.16L395,304.12,339.53,249.7Z"/><path d="M724.72,491C716.25,597,622.05,674.34,515,660.7,393.61,651.77,318.59,552.5,339.1,439.53c9.75-40.93,7.38-40,79.55-111.94l.15-.08-47.29-46.41a235.6,235.6,0,0,0-37,30.7c-57.66,58.74-88.74,128-78.24,209.73C273.76,657.31,398,753.24,533.77,735.79S762,596.73,744.6,460.94L726.36,443l-7.16,7.3C721.49,464.77,725.62,476.68,724.72,491Z"/><circle cx="598.97" cy="495.11" r="34.08" transform="translate(-173.94 575.76) rotate(-45.53)"/></svg>