<?xml version="1.0" encoding="UTF-8" standalone="no"?>
<!-- Created with Inkscape (http://www.inkscape.org/) -->

<svg
   xmlns:dc="http://purl.org/dc/elements/1.1/"
   xmlns:cc="http://creativecommons.org/ns#"
   xmlns:rdf="http://www.w3.org/1999/02/22-rdf-syntax-ns#"
   xmlns:svg="http://www.w3.org/2000/svg"
   xmlns="http://www.w3.org/2000/svg"
   xmlns:sodipodi="http://sodipodi.sourceforge.net/DTD/sodipodi-0.dtd"
   xmlns:inkscape="http://www.inkscape.org/namespaces/inkscape"
   version="1.1"
   id="svg19604"
   width="169.29057"
   height="222.74544"
   viewBox="0 0 169.29057 222.74544"
   sodipodi:docname="Kalak.svg"
   inkscape:version="0.92.3 (2405546, 2018-03-11)">
  <metadata
     id="metadata19610">
    <rdf:RDF>
      <cc:Work
         rdf:about="">
        <dc:format>image/svg+xml</dc:format>
        <dc:type
           rdf:resource="http://purl.org/dc/dcmitype/StillImage" />
        <dc:title></dc:title>
      </cc:Work>
    </rdf:RDF>
  </metadata>
  <defs
     id="defs19608" />
  <sodipodi:namedview
     pagecolor="#ffffff"
     bordercolor="#666666"
     borderopacity="1"
     objecttolerance="10"
     gridtolerance="10"
     guidetolerance="10"
     inkscape:pageopacity="0"
     inkscape:pageshadow="2"
     inkscape:window-width="640"
     inkscape:window-height="480"
     id="namedview19606"
     showgrid="false"
     inkscape:zoom="1.01548"
     inkscape:cx="27.581115"
     inkscape:cy="130.40911"
     inkscape:window-x="3197"
     inkscape:window-y="502"
     inkscape:window-maximized="0"
     inkscape:current-layer="svg19604" />
  <path
     style="fill:#000000"
     d="m 67.510317,220.09727 c -3.6992,-3.69919 -4.30292,-9.44758 -2.33995,-22.27997 1.88083,-12.2954 1.94901,-18.06744 0.27884,-23.60468 l -1.1877,-3.93768 -5.24655,6.59343 c -6.40998,8.05552 -8.55822,13.5911 -7.70646,19.85796 0.59593,4.38463 0.43195,4.78199 -3.92037,9.5 -5.15237,5.58528 -6.55492,5.12315 -6.5822,-2.16875 -0.0202,-5.41023 2.53095,-9.92787 13.88911,-24.59477 l 9.40441,-12.14401 -2.2652,-1.83425 c -3.53147,-2.85961 -6.71238,-2.29045 -10.70668,1.91575 l -3.56109,3.75 1.86207,-3.34929 c 2.26318,-4.07077 14.13831,-15.40703 15.35299,-14.65632 0.47899,0.29603 1.15661,0.0759 1.50584,-0.48914 0.66502,-1.07603 -4.6538,-7.00525 -6.28406,-7.00525 -0.51763,0 -3.53146,2.44945 -6.69738,5.44322 -6.84551,6.47326 -10.86154,8.55678 -16.49337,8.55678 -5.10886,0 -9.2777,-3.65612 -10.9221,-9.5788 -2.56215,-9.22821 -1.14995,-12.95258 9.05467,-23.87958 7.35957,-7.88056 10.24057,-9.47091 13.75234,-7.59147 1.69548,0.90739 2.09314,2.06956 2.09314,6.11715 0,6.42401 -1.80149,10.50595 -6.71942,15.22532 l -3.95219,3.79261 0.44774,-5.3992 c 0.47159,-5.68677 -0.86779,-9.68603 -3.24393,-9.68603 -3.40661,0 -2.98683,8.86067 0.70423,14.86473 4.87776,7.93441 14.40876,7.15386 23.26728,-1.9055 6.41332,-6.55873 7.58981,-7.17119 11.29448,-5.87974 2.42766,0.84629 3.21184,1.90327 4.13651,5.57548 1.19263,4.73636 0.97309,6.43467 -1.62157,12.54416 -1.43462,3.37799 -1.42959,4.05255 0.0579,7.77023 1.88528,4.71178 2.1486,17.14164 0.50908,24.03064 -0.58903,2.475 -1.13682,7.96183 -1.2173,12.19295 -0.13657,7.17897 0.0428,7.8904 2.68503,10.64827 3.30725,3.45202 2.97938,4.55766 -3.09704,10.44409 l -3.90749,3.78531 -2.62365,-2.62365 z m 26.38798,-2.82495 -5.39231,-5.47312 2.74069,-2.35745 c 3.77335,-3.24569 4.21091,-8.69547 1.99625,-24.86294 -1.73496,-12.66555 -1.73468,-13.40289 0.008,-20.40029 1.73296,-6.95915 1.73453,-7.45173 0.038,-11.89414 -1.26066,-3.30099 -1.58654,-5.97189 -1.13266,-9.28332 0.81147,-5.92034 2.0459,-7.35076 6.3436,-7.35076 2.855573,0 4.546833,1.02821 9.627553,5.85313 3.3899,3.21923 7.64811,6.35354 9.4627,6.96515 8.80034,2.96625 16.2005,-4.01615 16.2005,-15.28616 0,-4.76173 -1.5614,-5.97046 -3.96745,-3.07134 -1.77564,2.13951 -2.4357,8.91742 -1.1097,11.39506 1.95717,3.657 -0.21404,2.21935 -5.11844,-3.38913 -5.3335,-6.09919 -6.67171,-10.62854 -4.89366,-16.56317 1.02973,-3.43692 1.53669,-3.90354 4.24095,-3.90354 2.52882,0 4.33247,1.33644 10.20985,7.56518 9.00718,9.54562 10.63845,12.49505 10.63845,19.23496 0,5.85589 -0.94796,8.30989 -4.80928,12.44986 -5.06281,5.42817 -14.18274,3.12327 -23.32036,-5.89381 -5.2311,-5.16209 -5.79746,-5.46597 -8,-4.29244 -2.42761,1.29344 -4.78182,3.82886 -4.83856,5.211 -0.0175,0.42611 0.9807,1.16463 2.2182,1.64115 2.63049,1.01291 15.75,14.35872 15.75,16.02167 0,0.62261 -1.39662,-0.45864 -3.10359,-2.40277 -3.22573,-3.6739 -6.31816,-4.44982 -9.96215,-2.49962 -1.06384,0.56935 -1.93426,1.60849 -1.93426,2.3092 0,0.7007 4.14323,6.64737 9.20718,13.21481 11.5765,15.01357 12.79282,17.35747 12.79282,24.65225 0,3.18371 -0.32204,5.78856 -0.71565,5.78856 -0.39361,0 -2.83014,-2.08269 -5.41452,-4.62821 -4.65319,-4.58323 -4.69357,-4.67951 -4.15405,-9.90687 0.29964,-2.90326 0.0419,-6.72131 -0.57278,-8.48454 -1.34016,-3.8444 -11.21917,-17.05134 -12.26924,-16.40236 -1.9005,1.17457 -2.87135,11.09466 -1.80291,18.42198 0.60149,4.125 1.33143,11.82465 1.62208,17.11033 0.52193,9.49142 0.49307,9.64977 -2.33223,12.79757 l -2.860703,3.18724 z m -14.48946,-81.65289 -4.67521,-7.03087 4.61627,-6.46913 c 2.53895,-3.55802 4.97392,-6.46913 5.41104,-6.46913 0.43712,0 2.72961,2.96972 5.09442,6.59937 3.51839,5.40023 4.08911,6.8993 3.14088,8.25 -0.63732,0.90785 -2.63182,4.00037 -4.4322,6.87227 -1.80038,2.8719 -3.5449,5.2344 -3.8767,5.25 -0.33181,0.0156 -2.70713,-3.13553 -5.2785,-7.00251 z m -24.65389,2.46796 c -0.0196,-1.6154 -0.42174,-7.25434 -0.8936,-12.53099 -1.17018,-13.08578 -4.01556,-18.14507 -10.98935,-19.53982 -3.06889,-0.61378 -3.69597,-0.22279 -9.43439,5.88244 -3.38084,3.59695 -7.49699,8.82854 -9.14699,11.62575 -1.65,2.79722 -3.30495,5.09477 -3.67766,5.10569 -0.37271,0.0109 -2.88897,-3.28634 -5.59167,-7.32722 C 9.7892267,113.48067 2.9295167,95.927632 0.72451668,84.719832 c -1.33705,-6.79606 -0.70725,-34.463575 0.93953002,-41.275015 0.79793,-3.3004 9.8365803,-15.41784 10.7896003,-14.46481 0.20815,0.20815 -0.17278,2.80661 -0.84652,5.77437 -0.69933,3.08057 -1.23661,12.69054 -1.25212,22.39593 l -0.0272,17 3.8532,11.499995 c 4.21512,12.58013 8.53666,22.121608 11.969,26.426168 l 2.20955,2.77104 8.46551,-8.72455 c 9.9306,-10.234458 13.54829,-12.256888 17.89979,-10.006648 1.59942,0.8271 3.86405,2.8464 5.03251,4.487348 2.56767,3.60596 4.9921,14.41166 5.01585,22.35566 0.0112,3.73677 0.38575,5.58134 1.05004,5.17078 0.56797,-0.35102 3.05762,-4.12326 5.53255,-8.38275 2.47493,-4.2595 6.54156,-9.73635 9.03696,-12.17079 l 4.53708,-4.42626 4.36583,4.86503 c 2.40121,2.67576 6.0453,7.73677 8.09797,11.24669 2.05267,3.50991 4.444213,7.01885 5.314533,7.79764 1.42577,1.27582 1.60764,0.70699 1.83743,-5.74669 0.4138,-11.62141 1.97635,-17.35958 5.91403,-21.718118 6.48992,-7.18357 9.40578,-6.34346 21.59067,6.220638 l 8.75974,9.03234 1.94427,-2.34877 c 5.7668,-6.96652 14.585,-31.124268 16.05005,-43.969623 0.94602,-8.29467 -0.14787,-28.71206 -1.94338,-36.27302 l -0.92469,-3.89388 5.30135,5.2355 c 4.99736,4.93528 5.38025,5.67465 6.67714,12.89389 0.75669,4.21211 1.37579,14.18338 1.37579,22.15838 v 14.499995 l -4.94327,14.91776 c -3.56259,10.751128 -6.25833,16.932218 -9.65157,22.130148 -2.58957,3.96682 -5.14556,7.48263 -5.67998,7.81292 -0.53442,0.33029 -2.78632,-2.20327 -5.00422,-5.63015 -2.2179,-3.42687 -6.2743,-8.56682 -9.01421,-11.4221 -4.26124,-4.44068 -5.42741,-5.13501 -8.06404,-4.80133 -8.27101,1.04676 -11.0596,6.46592 -11.87798,23.0829 -0.30907,6.27542 -0.91269,11.40985 -1.34138,11.40985 -2.2179,0 -22.274483,-23.91374 -27.410013,-32.68134 l -1.86344,-3.18134 -3.57495,6.08963 c -3.34855,5.70398 -15.91459,20.60396 -22.94794,27.21014 l -3.12701,2.93709 -0.0357,-2.93709 z m 12.06747,-24.14958 c -0.0192,-3.753 -0.84773,-8.39326 -2.09279,-11.72098 -2.38291,-6.368898 -9.15491,-13.901928 -13.4714,-14.985298 -2.60188,-0.65303 -3.41399,-0.19334 -7.67461,4.34423 -6.15326,6.55321 -7.17741,6.52454 -6.26836,-0.17546 1.03343,-7.61673 4.04243,-14.96104 7.47824,-18.252755 3.89973,-3.73618 3.77967,-4.49724 -0.70944,-4.49724 -2.70725,0 -5.24395,1.07842 -9.40894,4 -3.13632,2.199995 -6.38384,3.999995 -7.21672,3.999995 -2.80182,0 -7.47658,-4.990625 -9.07846,-9.691865 -2.0814,-6.10859 -2.12613,-23.76718 -0.0807,-31.84803 2.52567,-9.97796 8.06042,-19.68591 16.06715,-28.1817498 7.97804,-8.46539 9.77955,-9.34641 3.45058,-1.68748 -2.18549,2.64475 -5.07697,7.5647398 -6.42551,10.9333198 -2.43131,6.07332 -4.60086,20.40799 -4.60086,30.39888 0,5.35432 3.15128,15.12766 5.50849,17.08397 2.91123,2.41611 8.04081,1.54692 13.64361,-2.31187 4.00958,-2.76151 6.37372,-3.6913 9.35656,-3.67986 4.86298,0.0187 7.7633,1.44621 4.82982,2.37726 -4.05175,1.28597 -10.5376,9.2456 -11.94042,14.653625 -1.6223,6.25412 -0.97268,7.84226 2.04731,5.00512 5.52882,-5.19405 12.39499,-4.23236 19.00068,2.66127 6.23242,6.5041 7.16024,9.15342 5.8405,16.67711 -1.19165,6.793488 -4.5043,16.193888 -6.75544,19.170118 -1.34148,1.77356 -1.47023,1.40667 -1.49931,-4.27231 z m 32.22604,1.12579 c -1.17253,-2.24769 -3.08084,-7.80344 -4.24069,-12.34612 -2.56452,-10.044228 -1.95193,-12.698928 4.61604,-20.004098 6.771693,-7.53174 13.944633,-8.540725 20.168163,-2.83696 l 2.48109,2.27388 -0.65181,-4.9668 c -0.7883,-6.006935 -4.34541,-11.665075 -9.6314,-15.320265 -2.15783,-1.49211 -3.94041,-3.05043 -3.96128,-3.46293 -0.0209,-0.4125 2.37234,-0.75 5.31825,-0.75 4.63674,0 6.00709,0.49699 10.20194,3.7 6.10526,4.66172 10.59868,4.98158 14.0249,0.99835 3.26417,-3.79482 4.40807,-8.79588 4.39128,-19.19835 -0.028,-17.36444 -3.04401,-28.61328 -10.04695,-37.4726698 -5.80065,-7.33837 -4.77687,-7.25093 2.32263,0.19837 7.13246,7.4838998 11.89923,14.9230198 14.73849,23.0012198 5.77544,16.43217 4.82959,39.62461 -1.82961,44.86275 -4.39123,3.454135 -6.71877,3.426955 -11.21093,-0.1309 -4.64405,-3.67815 -10.3252,-5.93438 -13.10937,-5.20631 -1.67596,0.43828 -1.47873,0.9807 1.82066,5.00717 4.29224,5.238115 7.34076,13.591315 7.34076,20.114285 v 4.56347 l -5.88423,-5.82283 c -6.7405,-6.67016 -7.76862,-6.72986 -14.29873,-0.8303 -5.47418,4.9456 -8.02537,10.341668 -9.32133,19.715738 l -1.106,8 z"
     id="path19639"
     inkscape:connector-curvature="0" />
</svg>
