<svg xmlns="http://www.w3.org/2000/svg" viewBox="0 0 198.46 198.46"><title>Aon Are</title><g id="Layer_2" data-name="Layer 2"><g id="Background"><path d="M144.16,159.66c-6.67-.69-25.43-.41-29.83.57-1.76-2.66,1.43-3.08,2.15-4.54.81-1.63,1.79-3.18,2.78-4.92L99.1,133.6,79,150.71c.81,3.4,3.39,5.73,5.9,8.25-2.58,2.77-5-.34-7.56.32s-5.29.12-7.95.11l-7.49,0H53.7L41.54,172c-.47,8.35-1,17.43-1.5,26.51l-.95,0V159.65c-13.33-.5-26.2-.09-39.09-.66,8.88-2.21,18.06-1,27.88-2.53L38.8,144.54V113.38l8.67,6.43L64.9,99.4c-5.61-6.58-11.25-13.2-17.34-20.32l-8.06,5.6L38.67,84V53.3L27.5,42.18,1,40.64l0-1.12H38.85V.43C41.92,9,40,18,41.8,27.47,45,30.7,48.47,34.65,52.41,38.14c1.3,1.16,3.64,1.55,5.52,1.58,6.45.12,12.9,0,19.35-.18,1.6,0,3.18-.64,4.78-.77a10.26,10.26,0,0,1,2.75.56l-6.16,8.38L99.26,65.16l19.89-17.08c-.67-1.3-1.63-3-2.39-4.72s-4.1-1.71-2.83-4.12c9.5.2,18.7.51,27.9.49a8.13,8.13,0,0,0,4.81-2.11c3.51-3,6.76-6.4,9.9-9.44L158.07,0l1.2,0V39.51H197c-8.61,2.39-17.46,1.65-25.68,2.57L159,53.58c.43,10.48-.76,20.55.92,30.73-2.73,1.55-3.09-1.64-4.62-2.38s-3.21-1.68-4.92-2.58l-17,19.92,17.18,20.36,8.31-5.68.77.44a219.24,219.24,0,0,0-.39,29.37l11.74,13,27.43,1.4v1.26H159.32v38.75c-2.8-8.66-1.83-17.62-2.65-27.06Zm22.38-2.88.78.42-.1-1.11c-2.11-2.59-4.26-5.13-7.9-6.87V156A10.28,10.28,0,0,0,166.54,156.78Zm-13-18,1.3.78-.62-1.47c-.25-5.48-3.23-9.86-5.9-14.9l-8.37,3Zm-43.76-28.14c4.27-7.12,4.42-13.21.65-22a21.28,21.28,0,0,0-23.07.41c-2.45,7.29-3.24,14.63.8,21.64C95.73,114,102.86,114.32,109.78,110.64ZM157,146.35c-6.85-6.76-13.57-13.37-20.27-20l-9.52,1.39c-.3,3.61-.55,6.7-.76,9.29l19.88,20.06,10.21-.52C156.71,153.15,156.84,150.07,157,146.35ZM125.9,61.86c.7,3.77,1.21,6.5,1.76,9.41l8.71,1.1,20.13-20V42.19h-11ZM72.07,137.25c-.51-3.36-1-6.43-1.48-9.73l-9.51-1.15c-6.24,6.67-12.57,13.44-19.54,20.91.23,2.23-.85,5.7.71,9.32H52.79Zm-30.32-95V52.94l19.6,19.3c1.92-.17,3.4-.24,4.87-.45s2.83-.55,4.53-.89c.42-3.3.82-6.36,1.26-9.84L51.79,42.28ZM85.5,127.45l.43,1.28-11,9,2.69,9.39a81.75,81.75,0,0,0,19-16.39l-2.54-3.84ZM130,97.07c6.83-5.13,11.9-11.47,16.86-19l-9.6-2.53L129,83.83c-3,3-1.87,6.8-2.28,10.45ZM74.82,61.26l10.5,8.67-.64,1,9.42,1.24,2.57-4a78.32,78.32,0,0,0-19-16.44ZM70.7,85.37l-9.88-10L51.19,78c5.33,7.38,10.17,14,17,19.24l3.43-3C71.29,91.15,71,88.36,70.7,85.37Zm52.43,52.44-10.7-10.44-8.6-.4c-.75,1-1.27,1.67-1.68,2.36a8.55,8.55,0,0,0-.54,1.61c5.46,6.07,11.32,11.69,19.07,15.91C121.57,143.58,122.29,140.9,123.13,137.81Zm13.57-14.23,10.21-2.88c-5.2-7.42-10.12-13.84-16.89-19.07l-3.91,3.53c.85,3.09,1.11,6.55,2.7,9.22C130.8,117.71,133.88,120.39,136.7,123.58ZM120.54,51.47c-7.7,5.27-13.93,10.45-19.25,17.07l2.82,3c9.83,2,13.66-5.22,19-10.47C122.3,58.05,121.55,55.22,120.54,51.47ZM67.77,101.63c-6.29,5.85-11.74,11.63-16.3,19.31l9.74,2.28L70.82,113l.82-8.76Zm8.38,9.8c-3.2,3.26-3.72,8-1.45,13.09,8.26,1,10.06.64,12.38-2.71ZM76,87.32,87.7,76.38c-4.39-3.61-9.09-2.52-14.22-1.75C74,79.34,71.72,84,76,87.32Zm46.18,24-11.47,10.89c3.84,4.46,8.62,2.38,13.34,2.45C124.6,119.54,125.82,115,122.19,111.28ZM110.51,76.34,122.2,87.55c3.72-3.7,1.78-8.36,2.44-12.54-3.91-1.9-7.54-.66-11.62-.86ZM140.2,72.6c2.76,1.41,5.12,2.51,8.23,2.58,3.08-4.79,5.55-9.72,5.14-16Zm-65,76.29c-.92-2.89-1.67-5.28-2.71-8.55-4.93,4.91-9.19,9.16-13.46,13.4C65.09,154.34,69.87,151.66,75.22,148.89Zm-16.84-76L44.08,58.7c-.08,7.24,3.05,12,6,17Zm80.85-28.17a22.45,22.45,0,0,0-16.08,6.16c.81,2.32,1.62,4.68,2.65,7.63C130.63,53.62,135.11,49.67,139.23,44.68ZM44.37,139.26c4.78-3.94,8.87-8.46,13.74-13.56l-8.27-2.43C47,128.51,44.08,133.21,44.37,139.26ZM58.56,44.07c4.85,5.2,8.88,9.79,14.1,13.86l2.57-8C70,47.3,65.33,44.31,58.56,44.07Zm64.68,104.56c5,2.77,9.48,5.79,15.36,5.87-1.91-3.9-9.73-11.55-13.45-13.12C124.52,143.77,123.9,146.1,123.24,148.63ZM41.07,137.8c2.15-5.9,3.93-10.78,5.8-15.93-1.32-.87-2.63-1.75-4.32-2.88-.79,1.29-1.82,2.19-1.82,3.1C40.69,127,40.91,131.87,41.07,137.8Zm.31-76.51c.12,6-1.76,12,.32,18.57l5.06-2.73Zm37.1,32.05c-3.33,5.29-3.22,8.12.37,12l5.91-6Zm41.59.35-6,5.75c1.76,2,3,4.64,6.17,5.37C123,101,122.73,97.43,120.07,93.69Zm-20-9.43,5.43-5.55c-4.47-2.63-8.12-3.17-12.56.38Zm5.61,36.18L99.25,114c-2.65,1.92-4.78,3.57-5.83,6.91l5.64,1.69Zm15.62,31.05c-.72,1.84-1.33,3.38-2.19,5.56,5.62,1,10.39.19,15.29-.53Zm-42.18,4-2.64-3.86c-2.19.88-4.22,1.59-6.16,2.52s-4.54.6-6.53,3.21H77.58Zm77.75-94.21L151.46,77l4.14,2.47,2-1.82C157.32,72.45,157.1,67.38,156.83,61.28Zm-.22,75.94c1.48-9.5,1.21-15-1.13-17.87l-3.93,2.27C153.33,127.1,155,132.21,156.61,137.22Zm-80.1-90,2.86-4.69c-5.05-2.48-9.53-.75-13.93-1l-.23,1.05ZM119,42.85c1,1.54,1.92,2.89,2.8,4.23l11.07-4.39-.23-1.07c-3.73-.16-7.45-.39-11.17-.42C120.86,41.19,120.21,42,119,42.85Zm37.47-3.44V30.77c-3.28,2.77-6,4.89-7.48,8.64Zm-.92,128.22.88-.44v-7.57h-8.11Zm-117-10.42v-8.47l-8.71,7.95ZM41.71,38.79c2.57,1.53,4.82,1,7.59.22-2.19-3.16-4-6-7.59-7.78Zm.06,120.94v8.11A19.66,19.66,0,0,0,49,159.73ZM159,42.3c.19,2.5.35,4.63.58,7.65,3.13-2.83,5.91-4.54,8-7.65Zm-120.28,0H30.39c3,2.82,4.76,5.68,8.65,6.88C38.92,46.65,38.82,44.59,38.72,42.31Zm41.1,68.3c1.77,5,3.09,6.15,7.71,7.34C86.65,112.74,85.78,111.87,79.82,110.61Zm5.71-24.38c1.82-3.17,1.82-3.17,2-5.8-4.93,1.76-7.07,3.6-7.17,7.76.31,0,.68.24.91.14C82.74,87.64,84.2,86.89,85.53,86.23Zm23.89,32.47c6.41-2.2,7.66-3.54,8.38-8.51l-5.15,2.26C111.63,114.44,110.76,116.11,109.42,118.7Zm8.68-29.95c-1.27-5.45-3.13-7.15-8.28-8l2.76,5.61Zm6,39.45c-2.18-.58-4.17-1-7.15.34,2.65,1.66,3.47,4.46,6.71,4.73C123.83,131.57,124,130.12,124.12,128.2Zm4.95-9.95-1.15.55v5.74c1.81-.85,3.82.61,5.31-1.82Zm-54.87,15,1,.63,5.36-5.07a5.62,5.62,0,0,0-6.54-.27Zm6.74-62.7c-2.44-2.71-3.55-4.92-6.61-5.13v5.13ZM70.71,75c-3.66-.53-3.66-.53-5.72,1.24l4.89,4.62Zm52.85-10.38-6.62,5.87h7.29C124,68.56,123.84,67,123.56,64.64Zm4.35,16.49,6.2-5.9-6.2-.87Zm-57,43.33c-.41-2.58-.66-4.19-.87-5.53l-5.33,3.68.43,1.09ZM89.43,84.57l6.81-.34-3.88-3.44Zm25.41,5.86-1.08.64c.35,1.4.7,2.8,1.24,4.94,1.13-1.58,1.73-2.44,2.51-3.52Zm-22.53,28,3.59-3.89H90.48Zm13.26-.22,2.91-3.61h-6Zm.05-37.69c-1.14,1.52-1.83,2.45-2.74,3.68h5.61Zm9.13,22.23c-.38,2.49-.59,3.9-.81,5.31l.9.38,3.28-2.54ZM84,89.93,80.34,92.8,84,95.88Zm0,12.88-3.65,3.24L84,108.56Zm15.3-29.54.56-.6-1.25-1.11-.53.56Zm26.83,26.79.32,0V98.9l-.49,0Zm-26.93,27c-.21-.66-.11-.33,0,0ZM72.44,99.15Zm2-8c.09-.1.25-.2.25-.3s-.17-.19-.26-.29c-.1.09-.27.18-.27.28S74.38,91.05,74.49,91.17Zm81.85-33.54c-.11.09-.3.16-.31.26s.15.22.24.33c.1-.08.29-.16.3-.26S156.42,57.74,156.34,57.63Zm-33,50c-.11.09-.29.16-.3.26s.15.22.23.33c.11-.09.3-.16.31-.26S123.43,107.73,123.34,107.62ZM140.7,42.9c-.09-.11-.16-.3-.26-.31s-.23.15-.34.24c.09.11.17.3.27.31S140.59,43,140.7,42.9Zm-82.94,0c-.08-.1-.16-.27-.25-.28s-.21.15-.31.23c.09.1.16.28.26.29S57.66,43,57.76,42.9Zm.61,114.24.32-.28c-.09-.11-.19-.29-.29-.3s-.21.17-.31.27Zm82.33-.25c-.09-.11-.16-.3-.26-.31s-.22.15-.34.23c.09.11.17.3.27.31S140.59,157,140.7,156.89ZM123.34,90.62c-.11.08-.3.16-.31.26s.15.22.23.33c.12-.08.3-.16.32-.26S123.42,90.73,123.34,90.62ZM42.61,140.94l-.29-.31c-.11.09-.29.19-.29.29s.17.21.26.31Zm114,0-.29-.32c-.1.1-.28.19-.29.3s.17.2.27.31ZM74.77,108l-.26-.33c-.11.1-.3.18-.31.28s.16.22.25.33Z"/></g></g></svg>