<?xml version="1.0" encoding="utf-8"?>
<!-- Generator: Adobe Illustrator 14.0.0, SVG Export Plug-In . SVG Version: 6.00 Build 43363)  -->
<!DOCTYPE svg PUBLIC "-//W3C//DTD SVG 1.1//EN" "http://www.w3.org/Graphics/SVG/1.1/DTD/svg11.dtd">
<svg version="1.1" id="Layer_1" xmlns="http://www.w3.org/2000/svg" xmlns:xlink="http://www.w3.org/1999/xlink" x="0px" y="0px"
	 width="732px" height="800px" viewBox="0 0 732 800" enable-background="new 0 0 732 800" xml:space="preserve">
<g>
	<path fill-rule="evenodd" clip-rule="evenodd" d="M31.315,399.645c-9.1,1.328-11.439-4.104-16.319-6.994
		c3.169-5.857,16.226-13.487,20.981-6.993C36.163,392.061,33.159,395.273,31.315,399.645z"/>
	<path fill-rule="evenodd" clip-rule="evenodd" d="M32.48,447.435c4.297,3.085,0.92,13.845,5.829,16.318
		c-5.104,1.358-5.994-0.314-10.491,1.165c-1.738-3.812,0.945-7.729,1.165-12.82c2.744,1.14,1.045,6.726,3.497,8.159
		C35.134,458.16,29.62,449.932,32.48,447.435z"/>
	<path fill-rule="evenodd" clip-rule="evenodd" d="M680.562,618.779c-12.146-16.354-2.845-34.078-4.662-54.784
		c9.772-15.884,15.047-35.626,13.986-59.445c5.91-0.336,13.943-4.668,17.483-3.497c4.114,17.046-1.659,27.122-2.331,41.962
		c-6.613,4.925-4.479,12.925-5.827,19.814c-2.423,12.373-9.149,23.276-12.822,34.97C684.074,605.17,685.908,613.09,680.562,618.779z
		"/>
	<path fill-rule="evenodd" clip-rule="evenodd" d="M703.873,635.098c-3.18,8.477-4.102,19.211-15.152,19.815
		c-1.493-3.557-1.812-8.29-4.661-10.49c2.2-5.569,1.37-14.17,4.661-18.651C696.854,625.798,699.743,631.069,703.873,635.098z"/>
	<path fill-rule="evenodd" clip-rule="evenodd" d="M358.853,765.646c4.063,4.2,10.732,12.511,5.826,18.649
		C352.087,785.962,352.486,770.717,358.853,765.646z"/>
	<path fill-rule="evenodd" clip-rule="evenodd" d="M298.24,770.31c2.091-0.149,2.458,1.426,4.663,1.164
		C301.832,776.545,297.74,776.912,298.24,770.31z"/>
	<path fill-rule="evenodd" clip-rule="evenodd" d="M239.959,788.959c2.647-16.912,28.779-17.085,26.809-1.165
		C265.203,800.441,246.604,795.617,239.959,788.959z"/>
	<path fill-rule="evenodd" clip-rule="evenodd" d="M298.24,778.468c3.249,2.191,3.165,7.717,8.16,8.16
		C302.641,792.86,295.685,785.903,298.24,778.468z"/>
	<path fill-rule="evenodd" clip-rule="evenodd" d="M594.305,35.972c-2.392,18.201-27.375,13.81-34.968,26.81
		c-12.688,5.166-27.42,8.184-38.466,17.484c-6.759-1.341-12.776,4.863-19.814,6.994c-2.039,0.618-4.951-0.75-6.993,0
		c-1.346,0.494-1.281,2.986-2.331,3.497c-4.221,2.053-9.548,1.972-13.988,3.498c-5.513,1.894-10.535,5.715-15.152,6.993
		c-3.389,0.938-6.494-0.229-9.325,1.166c-8.562,4.221-12.272,12.981-17.483,19.815c-20.61,6.976-36.959,18.214-45.46,37.299
		c9.23,13.94,25.107-3.273,40.796-5.828c9.692-1.579,18.275,1.423,27.975,2.331c12.079,1.131,24.409-0.707,36.134,1.166
		c12.046,1.923,24.294,7.182,34.97,9.325c6.445,1.293,11.674,1.401,18.65,4.663c4.992,19.873,5.541,44.19,29.139,45.459
		c-14.424,8.951-20.347-12.464-40.796-8.159c-7.492,9.992-15.885,19.083-17.483,34.968c16.807,1.174,37.584-16.763,37.299,12.822
		c9.816,3.783,16.536,10.661,20.98,19.816c5.625-0.594,9.046-3.389,16.318-2.332c4.087,10.758,11.122,19.474,11.658,31.472
		c0.102,2.315-1.715,6.423-1.167,9.325c1.979,10.474,14.036,18.793,18.65,30.307c0.887,2.216,0.126,5.69,1.165,9.325
		c1.932,6.758,7.807,7.956,1.165,15.152c2.851,5.309,5.999,10.321,10.492,13.987c2.82,19.325,12.793,31.5,19.814,46.626
		c6.43,20.54,6.759,43.023,10.489,65.273c1.586,9.449,1.516,15.04,2.332,29.141c0.546,9.405,4.999,19.031,3.497,24.478
		c-2.044,7.416-15.144,8.536-16.318,16.319c0,3.885,0,7.77,0,11.655c-12.798,39.282-23.258,86.747-54.784,109.567
		c-32.194,2.775-39.371,30.565-64.108,40.796c-3.012,5.148-7.218,9.102-10.49,13.988c-7.473,0.299-12.242,3.3-16.318,6.993
		c-21.494,5.705-44.393,10.004-64.108,17.484c-11.874-1.496-20.948,8.004-29.142,0c26.749-26.46,67.806-39.5,96.747-66.44
		c4.608-0.054,6.758-2.565,10.49-3.496c18.05-16.142,36.829-31.554,52.452-50.122c3.081-20.23,11.692-34.931,22.147-47.789
		c4.004-17.123,14.821-28.484,19.814-46.624c2.705-9.827,6.683-25.081,6.993-33.804c0.374-10.469-6.416-20.631-10.49-32.637
		c-1.97-5.808-1.335-11.745-3.496-16.318c-4.025-8.522-9.478-14.273-12.821-23.313c-3.469-9.375-6.356-17.971-8.16-27.975
		c-7.126-5.694-13.335-12.308-23.313-15.152c0.021-5.07,0.387-10.487-1.163-13.987c-24.319-14.973-55.156-30.241-73.435-54.784
		c-4.843,0.568-6.41-2.138-9.324-3.497c-22.051-18.211-51.681-22.171-81.593-31.471c-54.48,2.144-93.309,15.334-129.384,37.3
		c-1.539,11.67-8,18.421-13.988,25.643c-14.753-5.396-19.203,6.371-22.146,16.319c-6.297,2.251-11.259,5.837-18.65,6.993
		c-6.123,9.101-16.302,12.389-26.809,20.981c-5.193,4.245-14.52,10.623-16.319,15.152c-2.783,7.005,2.037,12.422,2.331,20.981
		c0.417,12.11-5.182,20.899-9.324,31.472c7.643,14.891,15.723,29.346,22.146,45.459c13.331,6.057,33.518,7.99,47.791,1.165
		c3.512-14.209-10.032-27.529,1.165-34.968c9.614,0.487,12.736,7.468,18.65,11.656c12.546,0.595,22.805,6.689,33.802,3.496
		c6.097-1.771,9.295-10.785,15.153-15.152c6.887-5.135,14.47-4.869,16.319-11.656c-5.573-9.58-12.436-17.87-25.644-19.815
		c-8.095,7.186-15.012,8.854-25.643,13.987c-4.873-14.432,7.472-42.235,22.147-44.293c7.449-1.046,24.795-3.313,31.471-2.332
		c12.066,1.773,20.032,14.672,31.473,12.822c11.576,19.635,30.934,27.612,29.139,61.777c-0.958,18.235-9.36,28.148-17.483,40.796
		c-9.849,15.339-10.947,16.967-24.477,29.142c-15.092,13.575-33.643,31.69-55.951,38.465c-5.86,1.779-12.204,1.724-17.483,3.495
		c-5.048,1.696-9.598,5.093-13.988,5.829c-25.475,4.274-51.541-6.761-73.434,2.331c-4.054-0.607-3.051-6.273-4.663-9.323
		c-45.868-16.052-64.909-67.365-95.58-100.244c-3.103-3.326-8.817-5.122-10.49-9.324c-4.416-11.092,2.053-25.926,0-39.632
		c-2.51-16.746-14.908-27.421-18.65-43.127c2.692-18.975-2.614-39.926-12.822-53.619c1.369-50.119,22.083-82.075,31.472-125.886
		c3.22-15.029,0.11-31.526,3.497-46.625c3.162-14.101,17.894-26.805,32.637-30.306c24.876-24.856,46.282-53.183,66.44-82.758
		c-1.845-11.754-10.275-16.923-9.325-31.472c50.317,6.072,69.372-26.491,122.389-18.65c-1.432,16.441-12.482,23.262-22.146,31.471
		c-14.849,25.171-38.228,41.811-53.618,66.44c-12.38,7.172-17.842,16.626-18.649,32.637c-0.589,11.688-12.445,18.459-12.822,30.307
		c17.292-4.858,29.712-24.681,48.956-31.472c12.139-12.881,30.185-15.552,40.797-31.472c23.471-9.943,36.713-30.115,52.453-47.79
		c14.563-7.343,28.252-0.305,43.127,0c8.481,0.173,14.48-3.803,23.312-6.994c15.055-5.438,33.671-9.419,46.625-15.153
		c14.147-6.262,26.436-15.704,36.133-22.147c-1.447-7.869-3.555-16.327-1.165-22.146c15.367,3.059,21.592,8.044,33.803,13.987
		C544.227,19.073,567.273,28.21,594.305,35.972z M351.857,184.006c-3.742-2.004-14.84-4.75-16.317,1.166
		c5.975,0.876,11.691,6.789,18.649,6.993c5.556,0.164,13.863-6.991,19.815-8.159c2.917-0.572,4.118,2.392,5.828,1.166
		c6.63-4.757,3.205-14.559,5.827-20.981C365.053,158.848,365.917,179.56,351.857,184.006z"/>
</g>
</svg>
