<svg xmlns="http://www.w3.org/2000/svg" viewBox="0 0 1000 1000"><title>Aluminum</title><path d="M226.34,563.29l7.91-2.46c35.23-13.26,37.73,12.62,46.36,36,1.79,4.87,5.37,10.58,5.63,11.44l35.93-18.27,49.52,15.36c-18-26.71-20.9-32.76-23-45.35-2.43-14.36-1.65-29.46,26-42.83,6-2.9,5.22-2.21,11.19-4.07l-5.31-17.08-79.81,24.8-79.81,24.8Z"/><path d="M540.86,216.7l-1.79,8.08c-8.21,31.7,14.62,37.73,38.68,44.38,5,1.38,11.57,4.54,12.45,4.73L575.47,310l19.41,48.08c-28.1-15.68-34.38-18.11-47.1-19.19-14.51-1.23-29.5.8-40.53,29.41-2.4,6.22-1.77,5.38-3.12,11.49l-17.46-3.87,18.09-81.59,18.09-81.59Z"/><path d="M725.38,670.13,638.87,589c-21.91-20.52-34-42.67-16.12-61.76l8.13-8.68-13.46-12.61-50.77,54.22-50.77,54.22L529.34,627l8.13-8.68c17.88-19.09,42.37-10.18,64.28,10.34l86.51,81.13,66.57,26.72Z"/><circle cx="349.27" cy="354.02" r="34.08" transform="translate(-89.31 119.56) rotate(-17.26)"/><path d="M737,464.09A240.41,240.41,0,0,0,515.64,256.48L500.4,330c34.7.28,71.89,8.61,99.24,34,66.21,61.34,79.29,155.43,23.71,228.34s-145.5,84-225.29,36.1c-39.81-23.9-52.87-68.8-58.21-111.6l-77.62,20.25A240.1,240.1,0,0,0,498.36,736.5,244,244,0,0,0,531,734.3,240.25,240.25,0,0,0,737,464.09Z"/></svg>