<?xml version="1.0" encoding="UTF-8" standalone="no"?>
<!-- Created with Inkscape (http://www.inkscape.org/) -->

<svg
   xmlns:dc="http://purl.org/dc/elements/1.1/"
   xmlns:cc="http://creativecommons.org/ns#"
   xmlns:rdf="http://www.w3.org/1999/02/22-rdf-syntax-ns#"
   xmlns:svg="http://www.w3.org/2000/svg"
   xmlns="http://www.w3.org/2000/svg"
   xmlns:sodipodi="http://sodipodi.sourceforge.net/DTD/sodipodi-0.dtd"
   xmlns:inkscape="http://www.inkscape.org/namespaces/inkscape"
   width="160"
   height="300"
   viewBox="0 0 160 300.00001"
   id="svg3381"
   version="1.1"
   inkscape:version="0.91 r13725"
   sodipodi:docname="Thaylen script P-F.svg">
  <defs
     id="defs3383" />
  <sodipodi:namedview
     id="base"
     pagecolor="#ffffff"
     bordercolor="#666666"
     borderopacity="1.0"
     inkscape:pageopacity="0.0"
     inkscape:pageshadow="2"
     inkscape:zoom="0.7"
     inkscape:cx="6.3601937"
     inkscape:cy="141.28691"
     inkscape:document-units="px"
     inkscape:current-layer="layer1"
     showgrid="false"
     inkscape:window-width="719"
     inkscape:window-height="678"
     inkscape:window-x="193"
     inkscape:window-y="86"
     inkscape:window-maximized="0"
     units="px" />
  <metadata
     id="metadata3386">
    <rdf:RDF>
      <cc:Work
         rdf:about="">
        <dc:format>image/svg+xml</dc:format>
        <dc:type
           rdf:resource="http://purl.org/dc/dcmitype/StillImage" />
        <dc:title></dc:title>
      </cc:Work>
    </rdf:RDF>
  </metadata>
  <g
     inkscape:label="Layer 1"
     inkscape:groupmode="layer"
     id="layer1"
     transform="translate(0,-752.36214)">
    <path
       style="fill:#000000"
       d="m 54.600839,1047.8448 c -8.176767,-6.0295 -15.187874,-13.7208 -17.078348,-18.7351 -2.131944,-5.6548 -2.062885,-129.09781 0.07673,-137.14987 1.262664,-4.75181 7.288957,-11.46531 32.697035,-36.42563 L 101.44533,824.93408 70.37718,793.57821 C 53.289699,776.33249 38.484431,760.62449 37.476584,758.67155 c -2.621377,-5.0795 -0.03028,-7.09735 5.428271,-4.22733 6.850456,3.60187 89.418715,87.39535 89.418715,90.74561 0,1.79163 -13.05478,15.95927 -33.890751,36.77982 l -33.890752,33.86564 0,68.17065 c 0,56.22446 -0.356327,68.17056 -2.033387,68.17056 -1.118362,0 -4.67689,-1.9493 -7.907841,-4.3317 z"
       id="path3519"
       inkscape:connector-curvature="0" />
  </g>
</svg>
