<?xml version="1.0" encoding="utf-8"?>
<!-- Generator: Adobe Illustrator 14.0.0, SVG Export Plug-In . SVG Version: 6.00 Build 43363)  -->
<!DOCTYPE svg PUBLIC "-//W3C//DTD SVG 1.1//EN" "http://www.w3.org/Graphics/SVG/1.1/DTD/svg11.dtd">
<svg version="1.1" id="Layer_1" xmlns="http://www.w3.org/2000/svg" xmlns:xlink="http://www.w3.org/1999/xlink" x="0px" y="0px"
	 width="800px" height="800px" viewBox="0 0 800 800" enable-background="new 0 0 800 800" xml:space="preserve">
<g>
	<g>
		<path fill-rule="evenodd" clip-rule="evenodd" d="M607.934,219.404c0.004,7.156-4.837,3.544-10.285,3.429
			C599.12,219.732,603.328,219.37,607.934,219.404z"/>
		<path fill-rule="evenodd" clip-rule="evenodd" d="M70.85,379.387c2.352,4.263-1.975,5.605-2.286,10.285
			c-9.069,1.069-13.211-2.788-17.141-6.856C52.396,376.449,66.151,374.93,70.85,379.387z"/>
		<path fill-rule="evenodd" clip-rule="evenodd" d="M65.136,436.523c5.462,2.362,9.458,12.406,4.571,18.284
			C61.227,454.979,61.777,441.673,65.136,436.523z"/>
		<path fill-rule="evenodd" clip-rule="evenodd" d="M727.92,502.802c8.608,12.638-0.285,25.854-3.428,39.996
			c-4.743,21.346-6.475,45.181-17.141,59.422c0.019,4.971,0.377,10.282-1.144,13.713c-14.044-7.368-6.688-22.825-5.713-41.139
			c0.216-4.058-1.857-8.759-1.144-11.427c0.916-3.424,6.854-7.067,9.143-11.428c6.474-12.332,7.722-32.918,12.569-41.139
			C722.811,507.841,729.216,506.628,727.92,502.802z"/>
		<path fill-rule="evenodd" clip-rule="evenodd" d="M713.064,625.074c10.005,3.062,7.074,24.816,1.143,28.568
			c-5.721,0.77-8.845-1.059-13.712-1.143C699.762,638.436,706.877,632.219,713.064,625.074z"/>
		<path fill-rule="evenodd" clip-rule="evenodd" d="M501.659,669.641c0.801,3.028,3.761,7.332,2.286,9.143c-1.524,0-3.048,0-4.57,0
			C498.124,673.723,501.309,673.1,501.659,669.641z"/>
		<path fill-rule="evenodd" clip-rule="evenodd" d="M333.678,770.201c0.208,2.493-0.935,3.636-3.428,3.429
			c1.426,4.813,4.684-0.109,7.999,0c1.203,3.367,5.17,3.973,8,5.714c0.167,5.881-2.26,9.167-4.571,12.569
			c-1.772-11.965-25.889-10.192-23.997-23.997C318.85,759.371,330.27,760.036,333.678,770.201z"/>
		<path fill-rule="evenodd" clip-rule="evenodd" d="M374.816,761.06c3.798,3.058,4.327,9.385,6.856,13.713
			c-1.646,0.64-2.789,1.782-3.428,3.428c-5.397-0.696-7.178-5.011-12.57-5.713C366.785,766.741,373.361,766.461,374.816,761.06z"/>
		<path fill-rule="evenodd" clip-rule="evenodd" d="M282.255,766.773c6.114,4.979,5.284,16.585-2.286,19.426
			c-7.855-2.047-16.618-3.189-21.712-7.999C263.831,771.965,267.679,764.007,282.255,766.773z"/>
		<path fill-rule="evenodd" clip-rule="evenodd" d="M569.08,225.118c2.217,8.068,6.112,14.456,14.855,15.998
			c4.212,14.454,11.927,25.402,18.284,37.71c7.178,2.687,11.266-1.927,14.855-1.143c3.558,6.532,10.023,14.177,12.57,23.998
			c1.362,5.256-0.406,12.019,1.143,17.141c2.667,8.812,13.572,12.006,10.284,20.569c12.055,4.794,14.194,20.741,11.428,34.282
			c4.178,1.536,8.902,2.525,11.428,5.714c4.299,22.365,13.366,39.96,21.712,58.279c8.51,29.412,7.211,59.104,9.142,99.418
			c0.276,5.764,2.372,11.281,1.143,15.998c-1.249,4.79-6.35,6.168-9.142,10.285c-4.719,6.959-5.426,18.633-9.143,28.568
			c-3.195,8.545-11.762,24.875-10.284,38.853c-13.797,18.201-24.817,39.176-41.139,54.852c-19.353,3.771-30.21,16.581-49.137,26.282
			c-2.158,2.793-4.367,5.537-5.714,9.142c-30.743,24.577-79.598,40.731-134.842,42.281c5.7-8.687,16.374-13.756,25.14-18.283
			c28.68-14.812,55.988-29.175,83.419-43.424c20.768-15.116,36.009-28.731,54.852-45.71c13.561-48.001,63.982-84.588,55.993-150.84
			c-2.305-19.112-10.779-38.209-21.712-51.423c-0.317-23.68-7.297-40.698-20.568-51.424c-9.269,10.971-2.155,41.584,1.143,54.852
			c-3.119,10.341-10.688,10.435-19.427,13.713c-9.318-2.87-10.167-14.211-22.854-13.713c-8.235,11.486-5.652,24.801-12.57,38.853
			c-4.072,8.272-13.324,9.867-20.569,17.142c-5.715,5.737-10.839,20.394-17.141,29.711c-1.354,2.001-4.745,2.967-5.714,4.571
			c-5.101,8.452-6.073,20.907-11.427,30.854c-2.563,4.761-5.879,8.501-7.999,12.569c-5.957,11.432-15.011,23.818-10.285,36.566
			c5.605-0.109,5.618-5.81,7.999-9.142c10.145,0.092,15.52-10.18,20.569-11.427c7.739,3.201,1.194,17.609-6.856,15.998
			c-0.863,4.85-2.668,8.759-2.285,14.855c-4.368,6.297-10.537,10.795-14.855,17.141c-4.995-6.552-8.164-12.464-7.999-21.712
			c-17.679-5.136-10.311,10.659-11.428,19.427c-1.361,10.687-13.072,17.226-13.713,26.283
			c-33.293,15.844-41.321,56.953-78.848,68.563c-3.736-11.652,3.876-19.063,10.285-28.568c9.581-14.21,19.577-28.655,30.853-39.995
			c15.409-35.253,36.345-64.979,51.424-100.56c2.121-16.544,2.716-34.614,11.428-44.567c-3.003-13.083,6.94-24.403,7.999-35.425
			c1.684-17.549-1.275-25.689,5.714-39.996c9.431-19.303,13.992-43.869,21.712-65.136c-5.979-33.21,0.065-65.019-20.569-81.134
			c-7.301-5.701-23.726-12.592-35.425-15.998c-7.257-2.113-12.024-1.526-19.428-2.286c-12.293-1.262-27.52-8.526-38.852-7.999
			c-11.509,0.536-23.205,6.942-34.282,7.999c-24.221,2.31-48.897,14.965-71.992,18.284c-5.458,11.09-17.331,21.29-17.141,34.282
			c-8.726,1.29-13.085,0.401-22.855,1.143c-5.968,3.174-4.091,14.192-7.999,19.426c-10.843,3.854-21.947,6.071-30.854,13.713
			c-9.686,8.311-25.561,23.563-28.568,31.997c-2.246,6.298,1.777,11.041,2.285,18.283c0.923,13.163-3.5,22.198-10.285,31.997
			c13.2,16.512,13.638,45.784,31.997,57.137c15.119-1.213,22.466,9.723,34.282,7.999c17.534-2.56,6.196-26.227,13.712-39.996
			c6.248-1.411,14.119,4.731,18.284,9.143c12.707,2.491,23.462,0.032,36.567,2.285c11.531-9.037,23.127-18.011,29.711-31.997
			c-5.308-15.26-22.484-18.653-34.282-27.425c-5.442,5.985-4.396,18.457-6.856,27.425c-5.522-0.191-8.908-2.519-13.712-3.428
			c-1.466-29.08,15.737-53.243,52.565-47.995c11.354,1.618,33.035,15.147,38.853,21.712c9.206,10.384,13.326,23.32,18.283,31.997
			c1.723,23.434-3.577,39.847-9.142,55.993c-8.765,5.271-10.615,15.985-17.141,23.998c-2.56,3.145-7.975,4.144-12.57,7.999
			c-10.379,8.709-15.704,17.739-30.854,26.282c-2.748,1.551-7.207,1.989-10.285,3.429c-6.681,3.128-18.404,9.383-28.568,11.428
			c-32.044,6.444-62.431,4.11-94.847-4.571c-17.281-11.556-35.903-21.071-47.995-38.853c-11.974-17.61-24.182-36.455-35.425-53.709
			c-7.189-5.762-12.041-13.861-17.141-21.712c3.188-23.319-0.872-59.224,2.286-78.849c4.355-5.929,11.15-9.419,15.998-14.855
			c-10.136-53.624,18.132-85.377,38.853-115.416c11.704-1.32,15.229-12.769,22.854-20.569
			c12.281-12.562,32.773-24.974,47.995-38.853c4.798-4.375,10.495-13.538,13.713-14.855c6.854-2.808,19.874,3.197,25.14-5.713
			c12.157,5.444,26.915,17.031,43.424,13.712c4.19-0.842,4.499-4.176,9.142-6.856c7.384-4.262,16.798-3.623,20.569-11.427
			c12.76,3.888,31.215,2.037,44.567,3.428c4.582,0.478,8.403,3.313,12.57,2.286c11.741-2.896,8.689-18.576,18.285-23.998
			c8.047-1.446,12.726,5.854,20.567,5.714c6.526-0.116,13.174-6.027,19.427-7.999c2.293-0.723,3.56,1.42,5.714,1.143
			c6.328-0.817,12.507-7.783,12.57-10.285c0.385-15.236-29.823-4.638-38.854-2.286c-0.534-13.977,8.191-22.515,3.43-42.281
			c-3.731-15.479-7.439-28.661-16-37.71c0-3.428,0-6.856,0-10.284c-1.881-6.118-6.678-9.32-9.142-14.855
			c6.393-17.954-11.889-19.732-10.284-36.567c1.328,0.185,2.033-0.252,2.286-1.143c1.018-0.703,2.042-1.38,2.286,0
			c63.671,34.604,103.718,92.832,133.698,161.125c12.382,4.759,26.241,8.042,34.282,17.141
			C578.826,204.75,581.283,216.194,569.08,225.118z"/>
	</g>
</g>
</svg>
