<?xml version="1.0" encoding="UTF-8" standalone="no"?>
<!-- Created with Inkscape (http://www.inkscape.org/) -->

<svg
   xmlns:dc="http://purl.org/dc/elements/1.1/"
   xmlns:cc="http://creativecommons.org/ns#"
   xmlns:rdf="http://www.w3.org/1999/02/22-rdf-syntax-ns#"
   xmlns:svg="http://www.w3.org/2000/svg"
   xmlns="http://www.w3.org/2000/svg"
   version="1.1"
   width="311.72769"
   height="353.08664"
   id="svg11160">
  <defs
     id="defs11162" />
  <metadata
     id="metadata11165">
    <rdf:RDF>
      <cc:Work
         rdf:about="">
        <dc:format>image/svg+xml</dc:format>
        <dc:type
           rdf:resource="http://purl.org/dc/dcmitype/StillImage" />
        <dc:title></dc:title>
      </cc:Work>
    </rdf:RDF>
  </metadata>
  <g
     transform="translate(-160.06204,-287.9572)"
     id="layer1">
    <path
       d="m 385.92589,308.9362 c 0,-0.2251 -5.7375,-1.7826 -12.75,-3.4612 -20.73326,-4.9631 -34.26689,-6.4995 -57.25,-6.4995 -22.98311,0 -36.51674,1.5364 -57.25,6.4995 -7.0125,1.6786 -12.75,3.2361 -12.75,3.4612 0,0.225 31.5,0.4091 70,0.4091 38.5,0 70,-0.1841 70,-0.4091 z m 65.48746,16.429 c 1.38189,-2.1891 2.51254,-4.2141 2.51254,-4.5 0,-0.286 -3.86454,-0.5199 -8.58786,-0.5199 l -8.58786,0 5.83786,4.4664 c 3.21082,2.4565 5.94471,4.4815 6.07532,4.5 0.1306,0.018 1.3681,-1.7575 2.75,-3.9465 z m -261.16086,-1.3837 4.82659,-3.6362 -8.57659,0 c -4.71713,0 -8.5766,0.2339 -8.5766,0.5199 0,0.2859 1.15153,2.344 2.55895,4.5735 1.791,2.8371 2.9164,3.7724 3.75,3.1164 0.65508,-0.5155 3.36302,-2.5736 6.01765,-4.5736 z m 252.06641,17.782 c 0.98724,-2.5727 0.79113,-2.9355 -3.41322,-6.3142 l -4.02021,-3.2307 2.72853,5.5633 c 2.87235,5.8566 3.71254,6.5677 4.7049,3.9816 z m -245.39301,-9.0451 c 0,-0.1898 -1.96018,1.1111 -4.35595,2.8909 -4.28581,3.1839 -4.33265,3.2823 -2.90903,6.1123 l 1.44693,2.8762 2.90902,-5.7672 c 1.59997,-3.1719 2.90903,-5.9224 2.90903,-6.1122 z m 46.21553,89.6969 c 23.5941,-5.8042 35.67817,-7.2222 66.28447,-7.7784 29.92166,-0.5437 46.08456,0.6204 66.40349,4.7827 11.98779,2.4557 30.88433,7.4569 36.17784,9.5749 2.2009,0.8806 4.22617,1.3766 4.50059,1.1022 0.27442,-0.2744 1.3832,-6.2593 2.46395,-13.2997 2.53379,-16.5062 7.09624,-34.9673 12.08366,-48.8945 l 3.95965,-11.0572 -5.52769,-11 c -3.04023,-6.05 -7.67279,-14.15 -10.29459,-18 l -4.7669,-7 -98.43645,0 -98.43646,0 -4.35845,6.5 c -2.39715,3.575 -7.02953,11.7363 -10.29417,18.1363 l -5.93572,11.6364 3.89569,10.9208 c 4.9385,13.8442 9.49402,32.3248 12.04953,48.8819 1.09717,7.1086 1.99961,13.1976 2.00544,13.5312 0.006,0.3337 3.56113,-0.6498 7.90068,-2.1854 4.33954,-1.5357 13.486,-4.1687 20.32544,-5.8512 z m 211.37928,18.68 c -0.94237,-11.7187 -3.41698,-28.7438 -5.705,-39.25 -2.73609,-12.5637 -7.02136,-27.5 -7.88981,-27.5 -0.7714,0 -4.84083,13.8255 -7.5057,25.5 -1.62129,7.1027 -5.46432,30.6597 -5.48371,33.6141 -0.007,1.044 3.2559,3.2278 9.23941,6.1838 5.0875,2.5134 11.05,5.6822 13.25,7.0417 2.2,1.3595 4.17061,2.5143 4.37913,2.5661 0.20851,0.052 0.0806,-3.6182 -0.28432,-8.1557 z m -260.84481,-0.6357 c 7.13327,-3.5719 10.24678,-5.6619 10.23941,-6.8734 -0.0274,-4.5029 -4.3114,-28.8547 -6.99591,-39.7673 -3.68739,-14.9894 -5.58014,-20.5119 -6.33148,-18.4736 -5.38648,14.6127 -12.66202,54.4254 -12.66202,69.2882 l 0,4.848 2.75,-1.9447 c 1.5125,-1.0696 7.3625,-4.2544 13,-7.0772 z m 239.53984,38.7717 c 11.208,-5.6279 22.71016,-13.1673 22.71016,-14.886 0,-1.2152 -3.0238,-3.5979 -9.25,-7.2887 -10.58208,-6.2729 -17.20666,-9.7113 -18.71016,-9.7113 -0.67901,0 -1.03984,5.8991 -1.03984,17 0,11.1009 0.36083,17 1.03984,17 0.57191,0 2.93441,-0.9513 5.25,-2.114 z m -228.28984,-14.886 c 0,-9.35 -0.23783,-17 -0.52852,-17 -1.15249,0 -13.37492,6.478 -20.22148,10.7176 -4.67781,2.8966 -7.25,5.1318 -7.25,6.3001 0,1.0994 2.06262,3.1052 5.25,5.1054 6.12592,3.8443 20.90845,11.8052 22,11.8477 0.4125,0.016 0.75,-7.6208 0.75,-16.9708 z m 107.45455,3.5455 c -2.97758,-2.9776 -3.09376,-4.9063 -0.45455,-7.5455 2.63921,-2.6392 4.56788,-2.523 7.54545,0.4545 2.97758,2.9776 3.09376,4.9063 0.45455,7.5455 -2.63921,2.6392 -4.56788,2.523 -7.54545,-0.4545 z m 38.54545,33.8139 c 19.75869,-2.175 49.566,-8.8952 61.25,-13.8091 l 3.75,-1.5771 0,-21.9732 0,-21.9732 -3.75,-1.5771 c -11.76447,-4.9478 -41.24665,-11.5783 -62.25,-13.9999 -19.8664,-2.2906 -60.78786,-1.5632 -79,1.4043 -19.12993,3.117 -36.79933,7.4962 -49.75,12.33 l -5.25,1.9596 0,21.8563 0,21.8563 5.25,1.9596 c 36.35136,13.5681 84.17613,18.5601 129.75,13.5435 z m 93.3284,43.3906 c 5.15922,-18.345 8.72312,-38.3139 10.27048,-57.5467 l 0.66751,-8.2966 -6.14566,3.6018 c -3.38012,1.9811 -9.51506,5.202 -13.6332,7.1577 -4.84482,2.3008 -7.48379,4.1343 -7.47694,5.1948 0.0192,2.9734 3.85523,26.5048 5.48371,33.639 2.66487,11.6745 6.7343,25.5 7.5057,25.5 0.39985,0 1.89763,-4.1625 3.3284,-9.25 z m -247.3349,-10.2236 c 2.68451,-10.9126 6.96851,-35.2644 6.99591,-39.7673 0.007,-1.2115 -3.10614,-3.3015 -10.23941,-6.8734 -5.6375,-2.8228 -11.4875,-6.0076 -13,-7.0772 l -2.75,-1.9447 0,4.848 c 0,14.8628 7.27554,54.6755 12.66202,69.2882 0.75134,2.0383 2.64409,-3.4842 6.33148,-18.4736 z m 245.68123,52.7236 c -0.54767,-1.2375 -1.27979,-2.25 -1.62693,-2.25 -0.34714,0 -1.8372,2.4591 -3.31123,5.4646 l -2.68007,5.4645 4.30699,-3.2145 c 3.78804,-2.8273 4.18701,-3.4857 3.31124,-5.4646 z m -248.57163,2.2887 -2.91417,-5.7774 -1.45801,2.7827 c -1.42305,2.716 -1.35937,2.8592 2.65554,5.9714 2.26245,1.7537 4.22992,3.1013 4.37217,2.9946 0.14225,-0.1066 -1.05274,-2.7937 -2.65553,-5.9713 z m 259.8969,17.9414 c 0,-0.2859 -1.15153,-2.344 -2.55895,-4.5735 -1.791,-2.8371 -2.9164,-3.7724 -3.75,-3.1164 -0.65508,0.5155 -3.36302,2.5736 -6.01765,4.5736 l -4.82659,3.6362 8.57659,0 c 4.71713,0 8.5766,-0.2339 8.5766,-0.5199 z m -34.7331,-6.9801 c 2.6218,-3.85 7.25436,-11.95 10.29459,-18 l 5.52769,-11 -3.95965,-11.0572 c -4.98742,-13.9272 -9.54987,-32.3883 -12.08366,-48.8945 -1.08075,-7.0404 -2.14967,-12.9854 -2.37537,-13.2111 -0.2257,-0.2257 -3.73139,0.6995 -7.79043,2.056 -49.44133,16.5228 -112.44187,18.6296 -165.65339,5.5396 -6.84558,-1.6841 -15.99705,-4.3183 -20.33659,-5.854 -4.33955,-1.5356 -7.89486,-2.5191 -7.90068,-2.1854 -0.006,0.3336 -0.90827,6.4226 -2.00544,13.5312 -2.55365,16.545 -7.11029,35.0356 -12.03804,48.8497 l -3.88419,10.8886 4.57791,9.1685 c 5.11064,10.2356 10.49814,19.5229 14.16784,24.4235 l 2.43734,3.2549 98.12758,-0.2549 98.12759,-0.2549 4.7669,-7 z m -228.9403,3.8638 c -2.65463,-2 -5.36257,-4.0581 -6.01765,-4.5736 -0.8336,-0.656 -1.959,0.2793 -3.75,3.1164 -1.40742,2.2295 -2.55895,4.2876 -2.55895,4.5735 0,0.286 3.85947,0.5199 8.5766,0.5199 l 8.57659,0 -4.82659,-3.6362 z m 158.6734,23.1373 c 6.325,-0.8709 17.35,-3.0275 24.5,-4.7923 l 13,-3.2088 -35.25,-0.2628 c -19.3875,-0.1445 -51.1125,-0.1445 -70.5,0 l -35.25,0.2628 13,3.2112 c 11.8901,2.937 28.32266,5.6062 41,6.6597 9.48202,0.788 38.02974,-0.2904 49.5,-1.8698 z m -51,12.8967 c -28.86958,-2.5717 -51.56391,-7.9276 -75.26171,-17.7618 l -8.76171,-3.636 -24.98829,0 c -23.65496,0 -25.09501,-0.1067 -26.98829,-2 -2.77598,-2.776 -2.52023,-4.4142 1.36563,-8.7471 4.85001,-5.4081 12.25729,-17.316 17.46586,-28.0781 l 4.51316,-9.3253 -2.28972,-6.1747 c -11.3981,-30.7377 -16.41762,-61.5179 -16.41762,-100.6748 0,-39.1569 5.01952,-69.9371 16.41762,-100.6748 l 2.28972,-6.1747 -4.51316,-9.3253 c -4.70766,-9.7271 -11.16364,-20.3128 -17.25597,-28.2942 -3.93124,-5.1502 -4.2138,-6.2758 -2.24966,-8.962 1.22723,-1.6783 3.25453,-1.8003 27.25,-1.6396 l 25.92414,0.1737 6.51824,-2.9564 c 27.77343,-12.5969 58.20249,-18.5348 94.98176,-18.5348 36.72129,0 67.20394,5.9388 94.87008,18.4832 l 6.40655,2.9049 25.36169,0 c 24.02835,0 25.46683,0.1051 27.36168,2 2.77598,2.776 2.52023,4.4142 -1.36563,8.7471 -4.80377,5.3565 -12.24249,17.2855 -17.31678,27.7698 l -4.36407,9.0168 3.9383,11.0404 c 11.78281,33.0309 17.54069,76.2719 15.13685,113.6759 -1.93129,30.0512 -6.91834,56.1368 -15.13685,79.1759 l -3.9383,11.0404 4.36407,9.0168 c 4.57292,9.4484 11.0697,20.0768 17.10689,27.9859 3.93124,5.1502 4.2138,6.2758 2.24966,8.962 -1.22723,1.6783 -3.25453,1.8003 -27.25,1.6396 l -25.92414,-0.1737 -6.5,2.9414 c -16.38409,7.4141 -36.65453,13.1504 -57.5,16.2719 -12.49308,1.8708 -45.09426,3.2146 -55.5,2.2876 z"
       id="path6169"
       style="fill:#000000;fill-opacity:1;stroke:none;display:inline" />
  </g>
</svg>
