<?xml version="1.0" encoding="UTF-8" standalone="no"?>
<!-- Created with Inkscape (http://www.inkscape.org/) -->

<svg
   xmlns:dc="http://purl.org/dc/elements/1.1/"
   xmlns:cc="http://creativecommons.org/ns#"
   xmlns:rdf="http://www.w3.org/1999/02/22-rdf-syntax-ns#"
   xmlns:svg="http://www.w3.org/2000/svg"
   xmlns="http://www.w3.org/2000/svg"
   version="1.1"
   width="330.64301"
   height="660.00201"
   id="svg3071">
  <defs
     id="defs3073" />
  <metadata
     id="metadata3076">
    <rdf:RDF>
      <cc:Work
         rdf:about="">
        <dc:format>image/svg+xml</dc:format>
        <dc:type
           rdf:resource="http://purl.org/dc/dcmitype/StillImage" />
        <dc:title></dc:title>
      </cc:Work>
    </rdf:RDF>
  </metadata>
  <g
     transform="translate(697.12858,703.14982)"
     id="layer1">
    <path
       d="m -397.70458,-224.84182 c 7.805,4.431 12.596,7.105 13.158,7.42 -0.607,-0.178 -5.758,-1.823 -14.352,-4.813 -6.275,13.721 -13.473,28.612 -21.568,44.198 -28.7911,55.33 -94.629,132.504005 -96.676,134.889005 1.619,-2.432 53.848,-80.793005 84.305,-143.885005 4.697,-9.762 10.7049,-24.924 16.822,-41.388 -17.342,-6.452 -40.484,-15.653 -66.016,-27.284 -3.352,3.757 -6.816,7.535 -10.4141,11.315 -45.686,47.976 -96.246,76.699 -97.799,77.575 1.439,-1.281 48.156,-42.311 91.051,-91.072 1.189,-1.35 2.361,-2.743 3.5101,-4.186 -21.955,-10.455 -45.1661,-22.604 -67.613,-36.302 -82.098,-50.047 -133.832,-103.466 -133.832,-103.466 v -32.613 c 0,0 20.268,17.883 52.434,43.84 l 111.787,-193.979 105.939,150.679 c -1.035,-31.445 -2.969,-78.746 -5.871,-101.756 -5.018,-39.969 -35.133,-163.634 -36.078,-167.48 1.416,3.263 42.4879,99.127 55.197,166.356 15.744,83.222 15.744,175.44 15.744,175.44 l -134.934,-180.502 -94.447,165.071 c 21.57,17.026 46.896,36.37 74.1819,55.917 19.6371,14.057 43.996,29.713 68.063,44.512 18.9381,-27.754 34.279,-61.383 34.279,-61.383 l 17.363,17.995 c 0,0 -14.439,23.484 -37.99,51.733 21.461,13.001 41.861,24.898 57.5161,33.92 13.697,-37.34 27.217,-78.906 27.217,-78.906 l 20.242,10.122 c 0,0.01 -10.414,32.189 -31.219,78.033 z"
       id="Duralumin" />
  </g>
</svg>
