<svg xmlns="http://www.w3.org/2000/svg" viewBox="0 0 1000 1000"><title>UnknownH</title><circle cx="599.39" cy="293.74" r="34.08" transform="translate(65 693.71) rotate(-62.92)"/><path d="M259.59,539.22C274.7,616,323,672.88,387.31,706.44v0l.87.43.86.45v0c64.88,32.51,139.24,38.33,210.34,5.61C723.73,655.7,779.88,511.41,722.65,387L699.9,375.41l-4.65,9.1c7.65,11.05,13.26,25.09,17.3,38.87C740.88,520,669.73,617.61,562.62,645.15c-45.95,7.64-95.75,5.55-135.51-14.45-39.49-20.52-70.35-59.66-91.06-101.39-40.39-103-3-217.76,92-251.38,13.54-4.8,28.2-8.47,41.64-8.74l4.65-9.1-22.75-11.63C317.25,274.89,233.16,404.9,259.59,539.22Z"/><path d="M495,585.67H420.72v18.45h11.89c26.16,0,36.39,24,36.39,54h0v74.4l26,66.86,28.32-66.86V658.1c0-30,7.91-54,34.07-54h11.89V585.67Z"/><path d="M385.07,414.17v11.89c0,26.16-24,36.39-54,36.39h-74.4l-66.86,26,66.86,28.32h74.4c30,0,54,7.91,54,34.07v11.89h18.45V414.17Z"/></svg>