<svg xmlns="http://www.w3.org/2000/svg" viewBox="0 0 201.86 184.93"><title>Aon Eno</title><g id="Layer_2" data-name="Layer 2"><g id="Background"><g id="Aon_Eno" data-name="Aon Eno"><path d="M82.24,184.7c.14-1.93,1.87-2.13,3.13-2.74,3.12-1.5,6.29-2.9,10.49-4.81C63.58,166.13,32.1,155.76,0,145c1.17-.76,1.84-1.26,2.57-1.67a39.11,39.11,0,0,0,10.77-9.53c9.35-11.49,15.67-24.59,20.45-38.5a8.21,8.21,0,0,0,.15-4.83C28.78,74.74,21.65,60,10.2,47.76c-2.66-2.84-6.07-5-9.58-7.82C32,29.07,63.54,18.85,95.84,8c-5.19-2.53-9.66-4.71-14.12-6.9l.4-1,18.74,6.16,18.72-6c-3.64,3.92-8.79,5-13.53,7.9L201.86,40c-1.43.92-2.42,1.58-3.44,2.2-7.18,4.36-11.82,11-16.3,17.87-6.41,9.79-11,20.46-15,32.23,1.15,3.31,2.35,7.26,3.88,11.09,4.67,11.62,10.43,22.66,18.93,32,3.31,3.62,7.35,6.56,11.14,9.89L106.18,177c4.73,2.91,9.95,3.79,13.45,7.9l-18.89-6.17c-4.93,1.68-10.08,3.47-15.26,5.19a25,25,0,0,1-3.36.66Zm81.7-32c-1.71-2.11-3.23-3.8-4.53-5.64-5.35-7.62-8.08-16.31-10-25.29a148.65,148.65,0,0,1-2-47.56c1.16-10.42,3.23-20.69,8-30.11,2.16-4.28,5.27-8.08,7.93-12.07l-17.64,1.37c-2.55,6.79-7.59,11-13.52,14.25a23.29,23.29,0,0,0-2.64,2.16c-1.52,1.17-2.9,2.75-4.63,3.36-5.84,2-8.95,6.11-9.57,12.1a12.21,12.21,0,0,1-4.22,8.19c-1,.88-1.93,1.81-2.84,2.66-.23,1.62-.45,3.08-.66,4.51l-4.41,3.73c-.17,3.62-.35,7.25-.53,11.1l-3.42,1.8-2.18-2.06c.9-2.9,1.87-4.91,2.07-7,.4-4.14,2-7.33,5.61-9.35.91-2.25,1.78-4.75,3.52-6.2a14.22,14.22,0,0,0,5-9.33c1-6.12,4.64-10.13,10.61-12,1-.29,1.86-.7,2.78-1.06a26.46,26.46,0,0,1,6.72-5.6c4.46-2.63,8.23-5.79,10.57-11-35.77-.23-71.06,1.32-106.46-1.69,1.63,2,3.21,3.69,4.53,5.56C47.19,45,50,53.27,52,61.89a142.52,142.52,0,0,1,1.85,51.91c-2,14-4.93,27.77-15.7,38.82A1071.45,1071.45,0,0,1,163.94,152.71ZM101,175.13c9.15-3.21,18.51-6.52,27.9-9.77s18.56-6.35,27.84-9.52l-.24-.66H44.82l-.06.48ZM100.9,9.91,45.07,29.22c5.89,1.23,107.91,1,111.41-.13Zm64.25,92.19-1,.23c-.9,5.88-1.94,11.74-2.65,17.65-1,8.45-.92,16.9,1.59,25.14.9,3,1.89,6.06,5,7.16l28.11-7.71C179.41,134.62,172.47,118.22,165.15,102.1Zm1.15-69.53c-8.75,16.85-4.71,33.62-1.83,51.35,1.16-2.24,1.92-3.66,2.64-5.1,3-5.91,5.61-12,9-17.68,4.51-7.57,9.82-14.58,17.7-19.14a22.74,22.74,0,0,0,2.45-2C185.61,38.48,176.36,34.17,166.3,32.57ZM6.1,144.67l28.52,7.85a19.66,19.66,0,0,0,4.7-9.34c2.18-11.54,1.53-23.05-.61-34.52-.42-2.22-1-4.41-1.64-7-3.57,7.16-6.56,14-10.26,20.37C21.73,130.84,15.89,139.09,6.1,144.67ZM5.68,40.42c16.64,10,23.67,26.21,31,42.38.57-.64.91-.85,1-1.13A110.19,110.19,0,0,0,40.25,47.1c-.36-5.23-1.5-10.51-6.14-14.49Zm150.84,86.67c.14-.25.4-.49.39-.73-.22-10.87,1.72-21.41,4.74-31.81.42-1.47,0-3.25-.3-4.85-1.36-7.8-3-15.56-4.14-23.39-.48-3.26-.08-6.66-.08-10C149.82,69.21,149.7,114.45,156.52,127.09ZM45,57.47c-.05,1.14-.18,2.28-.15,3.41.22,8.9-1.56,17.51-3.79,26a18.75,18.75,0,0,0-.21,10.24c2.67,9.46,4.42,19.08,4,29a17.86,17.86,0,0,0,.37,2.89C51.74,105.2,51.94,81.36,45,57.47Z"/><path d="M82.12,184.58l-.17.35.29-.23Z"/></g></g></g></svg>