<?xml version="1.0" encoding="UTF-8" standalone="no"?>
<!-- Created with Inkscape (http://www.inkscape.org/) -->

<svg
   xmlns:dc="http://purl.org/dc/elements/1.1/"
   xmlns:cc="http://creativecommons.org/ns#"
   xmlns:rdf="http://www.w3.org/1999/02/22-rdf-syntax-ns#"
   xmlns:svg="http://www.w3.org/2000/svg"
   xmlns="http://www.w3.org/2000/svg"
   version="1.1"
   width="499.9613"
   height="498.00003"
   id="svg8906">
  <defs
     id="defs8908" />
  <metadata
     id="metadata8911">
    <rdf:RDF>
      <cc:Work
         rdf:about="">
        <dc:format>image/svg+xml</dc:format>
        <dc:type
           rdf:resource="http://purl.org/dc/dcmitype/StillImage" />
        <dc:title></dc:title>
      </cc:Work>
    </rdf:RDF>
  </metadata>
  <g
     transform="translate(-616.61041,209.88539)"
     id="layer1">
    <path
       d="m 891.59101,156.26962 c 0,-0.4648 -0.9171,-1.675 -2.0379,-2.6893 -1.9922,-1.8029 -2.0984,-1.7839 -4.7273,0.845 l -2.6893,2.6893 4.7272,0 c 2.6,0 4.7273,-0.3803 4.7273,-0.845 z m -28,-114.155003 c -2.5283,-2.5283 -2.5272,-4.2129 0,-6.5037 4.1304,-3.7379 10.1731,2.4404 6.431,6.5754 -2.2231,2.4565 -3.9259,2.4375 -6.4351,-0.072 z m 12.2779,109.224503 5.7152,-5.7755 -8.5653,-8.4745 c -10.0131,-9.9069 -10.9007,-11.2224 -9.4278,-13.9745 2.0583,-3.846 5.1107,-2.3503 14.7079,7.2071 l 9.2455,9.207 9.3886,-9.207 c 9.6865,-9.4993 12.6512,-10.9569 14.658,-7.2071 1.4729,2.7521 0.5853,4.0676 -9.4278,13.9745 l -8.5653,8.4745 5.7152,5.7755 5.7153,5.7755 37.2813,0 c 31.6438,0 37.2813,-0.216 37.2813,-1.4286 0,-0.7857 -0.5802,-2.0232 -1.2893,-2.75 -1.2903,-1.3224 -10.7974,-20.4364 -11.1025,-22.3214 -0.089,-0.55 -1.11,-3.475 -2.2689,-6.5 -18.4685,-48.207603 -18.4685,-121.7924028 0,-170.000003 1.1589,-3.025 2.1799,-5.95 2.2689,-6.5 0.3051,-1.885 9.8122,-20.999 11.1025,-22.3214 0.7091,-0.7268 1.2893,-1.9643 1.2893,-2.75 0,-1.2297 -15.7333,-1.4286 -113,-1.4286 -97.2667,0 -113,0.1989 -113,1.4286 0,0.7857 0.5802,2.0232 1.2893,2.75 1.2903,1.3224 10.7974,20.4364 11.1025,22.3214 0.089,0.55 1.11,3.475 2.2689,6.5 8.9574,23.3811 13.8393,53.3654002 13.8393,85 0,31.6346 -4.8819,61.618903 -13.8393,85.000003 -1.1589,3.025 -2.1799,5.95 -2.2689,6.5 -0.3051,1.885 -9.8122,20.999 -11.1025,22.3214 -0.7091,0.7268 -1.2893,1.9643 -1.2893,2.75 0,1.2218 8.4375,1.4286 58.2813,1.4286 l 58.2813,0 5.7153,-5.7755 z m -12.2779,16.7755 c -1.052,-1.9656 -2.0938,-2 -60.6009,-2 -39.1236,0 -60.1936,-0.3549 -61.4648,-1.0352 -2.3355,-1.2499 -2.6738,-6.7438 -0.4674,-7.5905 3.5814,-1.3743 14.6558,-23.7946 20.5026,-41.5082 15.306,-46.370603 15.306,-107.3616028 0,-153.732203 -5.8468,-17.7136 -16.9212,-40.1339 -20.5026,-41.5082 -2.0482,-0.786 -1.9559,-7.2241 0.1149,-8.0187 2.8991,-1.1125 248.3893,-0.6929 250.4839,0.4282 2.3355,1.2499 2.6738,6.7438 0.4674,7.5905 -0.8067,0.3095 -3.4368,4.0079 -5.8445,8.2186 -17.132,29.9606 -26.1619,67.9814002 -26.1619,110.1557 0,42.1743 9.0299,80.195103 26.1619,110.155703 2.4077,4.2107 5.0378,7.9091 5.8445,8.2186 0.9039,0.3469 1.4669,1.911 1.4669,4.0753 0,2.8117 -0.4488,3.6227 -2.25,4.0658 -1.2375,0.3044 -19.4417,0.4254 -40.4539,0.269 l -38.2038,-0.2844 -1.0247,2.25 c -1.2937,2.8405 -4.7196,2.9255 -7.6321,0.1894 -2.003,-1.8817 -3.4301,-2.0606 -16.4355,-2.0606 -13.0054,0 -14.4325,0.1789 -16.4355,2.0606 -2.7834,2.6149 -6.1829,2.6422 -7.5645,0.061 z m 238.30599,109.25 c -0.3472,-0.9625 -1.3753,-2.875 -2.2846,-4.25 -2.9052,-4.393 -12.0213,-24.2071 -12.0213,-26.1285 0,-0.5881 -0.6388,-2.4872 -1.4194,-4.2204 -1.946,-4.32 -7.0698,-24.2163 -9.0523,-35.1511 -4.1421,-22.847 -4.1404,-69.0979 0,-92 1.7553,-9.701 7.0207,-30.738703 8.5097,-34.000003 0.5022,-1.1 1.6531,-4.25 2.5574,-7 1.8781,-5.7109 10.2097,-23.045 13.9388,-29 3.4341,-5.484 3.7645,-6.3123 3.0907,-7.75 -0.3222,-0.6875 -1.713,-3.05 -3.0907,-5.25 -3.7291,-5.955 -12.0607,-23.2890998 -13.9388,-28.9999998 -0.9043,-2.75000001 -2.0552,-5.9 -2.5574,-7 -1.489,-3.2613 -6.7544,-24.2990002 -8.5097,-34.0000002 -4.1437,-22.9021 -4.1454,-69.152997 0,-91.999997 1.9825,-10.9348 7.1063,-30.83111 9.0523,-35.15111 0.7806,-1.7332 1.4194,-3.6506 1.4194,-4.2609 0,-1.6936 8.7284,-20.5084 13.0303,-28.088 l 1.9865,-3.5 -118.00849,-0.2541 c -64.9046,-0.1398 -171.1122,-0.1398 -236.0168,0 l -118.0084,0.2541 1.9865,3.5 c 4.3019,7.5796 13.0303,26.3944 13.0303,28.088 0,0.6103 0.6388,2.5277 1.4194,4.2609 1.946,4.32 7.0698,24.21631 9.0523,35.15111 4.1421,22.847 4.1404,69.097897 0,91.999997 -1.7553,9.701 -7.0207,30.7387002 -8.5097,34.0000002 -0.5022,1.1 -1.6531,4.24999999 -2.5574,7 -1.8781,5.7109 -10.2097,23.0449998 -13.9388,28.9999998 -1.3777,2.2 -2.7685,4.5625 -3.0907,5.25 -0.6738,1.4377 -0.3434,2.266 3.0907,7.75 3.7291,5.955 12.0607,23.2891 13.9388,29 0.9043,2.75 2.0552,5.9 2.5574,7 1.4858,3.2543 6.7519,24.286703 8.513,34.000003 4.1421,22.847 4.1404,69.0979 0,92 -1.9757,10.9195 -7.0997,30.8239 -9.049,35.1511 -0.7806,1.7332 -1.4194,3.6323 -1.4194,4.2204 0,1.9214 -9.1161,21.7355 -12.0213,26.1285 -0.9093,1.375 -1.9374,3.2875 -2.2846,4.25 -0.6001,1.6635 11.0299,1.75 235.3059,1.75 224.27609,0 235.90609,-0.086 235.30599,-1.75 z m -483.73459,9.17861 c -2.2032,-2.2032 -1.9831,-3.4727 1.2914,-7.45081 1.5745,-1.9128 5.0605,-7.5278 7.7467,-12.4778 4.716,-8.6903 5.7509,-10.9656 8.4144,-18.5 0.6805,-1.925 1.8655,-5.0028 2.6332,-6.8395 1.9375,-4.6351 6.4549,-21.6253 7.3546,-27.6605 0.4099,-2.75 1.6952,-10.85 2.8562,-18 1.6682,-10.2734 2.1109,-17.4045 2.1109,-34 0,-16.5955 -0.4427,-23.7266 -2.1109,-34 -1.161,-7.15 -2.4463,-15.25 -2.8562,-18 -1.021,-6.849 -5.7224,-24.039903 -7.5311,-27.537503 -0.8143,-1.5748 -1.4806,-3.5485 -1.4806,-4.3861 0,-1.507 -1.8688,-5.9122 -7.032,-16.5764 -3.8447,-7.9407 -6.0468,-11.6481 -9.7083,-16.3441 -1.7822,-2.2858 -3.2403,-4.8309 -3.2403,-5.6559 0,-0.825 1.4581,-3.3701 3.2403,-5.6559 3.6615,-4.696 5.8636,-8.4034 9.7083,-16.3441 5.1632,-10.6641998 7.032,-15.0693998 7.032,-16.57639981 0,-0.8376 0.6663,-2.81129999 1.4806,-4.38609999 1.8087,-3.4976 6.5101,-20.6885002 7.5311,-27.5375002 0.4099,-2.75 1.6952,-10.85 2.8562,-18 1.6682,-10.2734 2.1109,-17.4045 2.1109,-34 0,-16.5955 -0.4427,-23.726597 -2.1109,-33.999997 -1.161,-7.15 -2.4463,-15.25 -2.8562,-18 -0.8997,-6.0352 -5.4171,-23.02541 -7.3546,-27.66051 -0.7677,-1.8367 -1.9527,-4.9145 -2.6332,-6.8395 -2.6635,-7.5344 -3.6984,-9.8097 -8.4144,-18.5 -2.6862,-4.95 -6.1722,-10.565 -7.7467,-12.4778 -3.2745,-3.9781 -3.4946,-5.2476 -1.2914,-7.4508 1.4201,-1.4201 25.3463,-1.5714 248.4286,-1.5714 223.08239,0 247.00859,0.1513 248.42869,1.5714 2.2032,2.2032 1.9831,3.4727 -1.2914,7.4508 -1.5745,1.9128 -5.0605,7.5278 -7.7467,12.4778 -4.716,8.6903 -5.7509,10.9656 -8.4144,18.5 -0.6805,1.925 -1.8655,5.0028 -2.6332,6.8395 -1.9375,4.6351 -6.4549,21.62531 -7.3546,27.66051 -0.4099,2.75 -1.6952,10.85 -2.8562,18 -1.6682,10.2734 -2.1109,17.404497 -2.1109,33.999997 0,16.5955 0.4427,23.7266 2.1109,34 1.161,7.15 2.4463,15.25 2.8562,18 1.021,6.849 5.7224,24.0399002 7.5311,27.5375002 0.8143,1.5748 1.4806,3.54849999 1.4806,4.38609999 0,1.50700001 1.8688,5.91220001 7.032,16.57639981 3.8447,7.9407 6.0468,11.6481 9.7083,16.3441 1.7822,2.2858 3.2403,4.8309 3.2403,5.6559 0,0.825 -1.4581,3.3701 -3.2403,5.6559 -3.6615,4.696 -5.8636,8.4034 -9.7083,16.3441 -5.1632,10.6642 -7.032,15.0694 -7.032,16.5764 0,0.8376 -0.6663,2.8113 -1.4806,4.3861 -1.8087,3.4976 -6.5101,20.688503 -7.5311,27.537503 -0.4099,2.75 -1.6952,10.85 -2.8562,18 -1.6682,10.2734 -2.1109,17.4045 -2.1109,34 0,16.5955 0.4427,23.7266 2.1109,34 1.161,7.15 2.4463,15.25 2.8562,18 0.8997,6.0352 5.4171,23.0254 7.3546,27.6605 0.7677,1.8367 1.9527,4.9145 2.6332,6.8395 2.6635,7.5344 3.6984,9.8097 8.4144,18.5 2.6862,4.95 6.1722,10.565 7.7467,12.4778 3.2745,3.97811 3.4946,5.24761 1.2914,7.45081 -1.4201,1.4201 -25.3463,1.5714 -248.42869,1.5714 -223.0823,0 -247.0085,-0.1513 -248.4286,-1.5714 z"
       id="path5959"
       style="fill:#000000;fill-opacity:1;stroke:none;display:inline" />
  </g>
</svg>
