<?xml version="1.0" encoding="utf-8"?>
<!-- Generator: Adobe Illustrator 14.0.0, SVG Export Plug-In . SVG Version: 6.00 Build 43363)  -->
<!DOCTYPE svg PUBLIC "-//W3C//DTD SVG 1.1//EN" "http://www.w3.org/Graphics/SVG/1.1/DTD/svg11.dtd">
<svg version="1.1" id="Layer_1" xmlns="http://www.w3.org/2000/svg" xmlns:xlink="http://www.w3.org/1999/xlink" x="0px" y="0px"
	 width="631px" height="800px" viewBox="0 0 631 800" enable-background="new 0 0 631 800" xml:space="preserve">
<g>
	<path fill-rule="evenodd" clip-rule="evenodd" d="M315.204,4.99c5.537,4.375,12.524,7.676,14.67,15.403
		c3.221,11.607,0.733,32.245,0.733,49.143c0,181.377,0.731,358.229,0.733,540.575c0,48.316-0.733,94.938-0.733,146.695
		c0,11.017,0.789,38.5-9.535,39.608c-5.962,0.64-9.303-10.182-10.27-14.67c-4.265-19.812-1.491-56.497-2.2-72.614
		c-4.32-98.268-0.25-196.744-3.667-295.593c-2.167-62.665-2.2-130.23-2.2-195.839c0-30.308-1.467-64.809-1.467-98.286
		c0-15.121,0.808-32.779,0-49.877c-0.755-15.982-3.559-36.595-0.733-49.143C302.204,12.981,311.292,9.379,315.204,4.99z"/>
	<path fill-rule="evenodd" clip-rule="evenodd" d="M54.085,233.836c-4.269,3.622-14.263,5.205-21.271,3.667
		c-2.175-8.433-2.42-21.485-2.934-35.207c-0.384-10.265-3.777-29.024,0.734-35.94c2.703-4.146,21.363-7.442,29.339-9.535
		c51.265-13.454,98.114-31.275,143.028-51.343c17.779-7.944,35.349-18.933,52.811-24.939c20.881-7.182,14.67,39.251,14.67,57.945
		c0,143.92,2.538,296.534,2.934,437.887c0.207,1.311-0.693,1.504-0.733,0.732c-6.695-103.506-15.719-217.33-22.005-327.865
		c-0.984-17.313-2.2-37.782-2.2-56.478c0-26.74,6.562-66.289-14.67-70.414c-14.39-2.796-36.889,11.099-47.676,14.669
		c-32.048,10.607-61.024,18.933-95.352,29.339c-13.414,4.066-37.253,8.407-41.075,20.537
		C44.704,202.7,56.443,216.086,54.085,233.836z"/>
	<path fill-rule="evenodd" clip-rule="evenodd" d="M600.526,237.503c-7.007,1.538-17-0.045-21.271-3.667
		c-1.971-17.699,8.72-30.538,4.401-46.209c-3.568-12.948-27.403-17.127-41.075-21.271c-33.413-10.128-62.851-18.582-95.353-29.339
		c-12.457-4.123-31.386-17.215-46.942-14.669c-21.787,3.565-15.402,42.257-15.402,70.414c0,54.925-5.061,113.527-8.802,165.766
		c-5.397,75.347-11.194,149.441-15.404,217.844c0.208,1.311-0.692,1.504-0.733,0.732c0.474-80.69,1.468-161.39,1.468-251.583
		c0-61.686,1.467-123.59,1.467-187.771c0-16.302-4.449-59.075,9.535-57.945c10.197,0.824,18.15,7.129,27.872,11.736
		c46.203,21.896,88.917,38.078,142.295,55.745c8.604,2.847,17.892,6.415,30.072,9.535c8.668,2.219,27.491,5.576,30.073,9.535
		c4.48,6.871,1.124,25.531,0.734,35.94C602.947,216.017,602.758,228.357,600.526,237.503z"/>
	<path fill-rule="evenodd" clip-rule="evenodd" d="M103.962,321.12c12.189-5.897,28.035-1.492,40.341,1.467
		c12.969,3.119,25.328,8.036,33.741,13.936c26.08-12.05,26.291-56.34,19.804-92.418c-2.639-14.67-5.311-29.495-13.937-35.94
		c-6.51,13.739-14.663,27.126-23.471,41.809c-8.68,14.466-19.092,36.179-37.407,38.141c-11.46,1.228-20.88-2.932-30.073-7.335
		c-7.218-3.457-19.463-8.196-22.738-14.669c-6.384-12.622,5.579-35.755,11.736-46.208c15.267-25.923,33.642-43.574,76.282-41.809
		c0.731-8.311-0.853-14.307-2.934-19.804c12.131,5.717,22.638,13.058,30.073,23.471c12.552,2.562,28.578,7.944,35.208,18.337
		c10.421,16.337,8.353,59.384,8.068,86.551c-0.358,34.24-8.294,58.21-21.271,72.615c-8.404,9.328-20.54,14.956-33.006,6.601
		c13.419,20.13,25.229,42.139,34.474,66.748c9.255,24.638,18.258,51.841,18.336,82.882c0.072,28.612-9.279,57.919-19.07,81.417
		c-20.174,48.419-50.292,82.234-87.284,113.689c-16.153,13.735-31.399,26.542-48.409,39.607c-1.706,1.311-5.304,5.443-5.134,2.935
		c50.691-52.898,101.745-96.066,118.823-182.637c4.551-23.068,5.724-48.468,1.467-69.681c-3.95-19.685-12.728-37.872-20.538-54.277
		c-12.233-25.696-25.458-49.042-40.341-72.614C116.768,358.2,105.284,344.594,103.962,321.12z M138.435,200.83
		c-20.468,1.72-54.925,16.179-52.076,35.94c0.983,6.825,13.119,12.409,21.27,14.669c28.787,7.982,44.481-31.615,49.877-50.61
		C151.124,201.214,144.614,200.31,138.435,200.83z"/>
	<path fill-rule="evenodd" clip-rule="evenodd" d="M458.965,366.596c-19.192,11.44-34.456-6.647-43.274-23.472
		c-12.944-24.694-10.878-58.666-10.269-96.819c0.302-18.903,1.519-39.536,9.535-49.143c7.173-8.597,21.333-12.617,32.272-15.403
		c8.205-9.644,18.245-17.451,30.073-23.471c0.199,4.366-3.641,11.021-2.201,19.07c41.725-0.815,60.465,16.262,76.282,43.275
		c6.049,10.328,18.239,32.619,11.736,45.476c-3.323,6.57-15.756,11.325-22.738,14.669c-10.973,5.256-25.863,10.984-38.874,5.134
		c-11.556-5.195-21.227-23.641-28.606-35.94c-8.7-14.502-17.154-27.308-22.737-41.809c-9.373,5.518-12.004,21.011-14.67,35.207
		c-6.582,35.059-6.348,79.891,19.071,93.151c9.021-5.508,21.304-10.769,34.473-13.936c12.312-2.96,28.062-7.36,40.342-1.467
		c-3.651,32.373-23.092,51.336-37.407,76.282c-9.112,15.876-17.487,32.605-25.672,49.876c-8.072,17.034-16.574,34.726-20.537,55.011
		c-4.137,21.172-3.143,45.925,1.466,68.947c17.116,85.506,68.029,128.953,118.824,181.903c0.82,1.523,0.79,1.554-0.733,0.733
		c-34.169-29.058-74.271-55.565-104.154-94.619c-14.039-18.349-25.858-39.153-35.94-63.079c-9.72-23.067-18.998-51.368-19.07-79.949
		c-0.078-30.966,8.929-58.254,18.337-82.884C433.903,408.704,444.64,385.989,458.965,366.596z M476.569,203.03
		c4.669,17.354,16,41.148,33.006,47.676c11.184,4.293,33.455-1.738,36.675-12.469c4.357-14.527-15.779-27.378-26.405-31.54
		c-13.73-5.377-26.116-6.008-43.275-5.868c-0.447,0.042-0.868,0.109-0.733,0.733C476,202.132,475.855,203.01,476.569,203.03z"/>
	<path fill-rule="evenodd" clip-rule="evenodd" d="M40.883,437.743c-8.263,1.822-22.911,3.412-26.405-3.668
		c3.956-16.087,11.038-26.974,19.804-40.341c10.158-15.49,23.145-39.413,51.344-28.605c23.145,8.871,36.288,35.683,46.209,55.745
		c11.305,22.861,21.938,49.604,22.004,79.948c0.053,24.178-7.523,48.842-15.403,69.681
		c-22.78,60.238-66.108,107.785-104.887,148.896c-0.325,0.653-0.644,1.312-1.467,1.467c0.139-0.594,0.736-0.731,0.733-1.467
		c28.503-40.052,66.544-83.083,74.814-148.896c3.453-27.474,8.381-75.462,1.468-105.621c-3.524-15.37-10.014-25.652-17.604-38.141
		c-5.625-9.257-15.203-30.006-24.938-30.806C48.585,394.457,43.97,423.23,40.883,437.743z"/>
	<path fill-rule="evenodd" clip-rule="evenodd" d="M618.864,434.075c-3.494,7.08-18.143,5.49-26.405,3.668
		c-4.098-15.915-6.721-42.462-24.938-41.808c-10.439,0.374-19.876,21.27-25.671,30.806c-7.815,12.859-14.115,23.139-17.604,38.874
		c-7.263,32.753-1.88,77.968,2.199,106.354c8.666,60.29,40.109,102.144,69.681,142.295c1.442,1.958,6.082,5.389,3.668,5.867
		c-38.012-41.9-81.705-88.328-104.888-149.629c-7.768-20.54-15.352-44.987-15.402-68.947c-0.067-30.732,10.616-57.654,22.004-80.682
		c10.116-20.458,23.062-47.016,46.942-55.745c27.313-9.985,40.032,12.477,50.61,28.605
		C607.827,407.102,614.908,417.988,618.864,434.075z"/>
</g>
</svg>
