<svg xmlns="http://www.w3.org/2000/svg" viewBox="0 0 1000 1000"><title>Brass</title><path d="M656.22,224.82l-64.3-37.18-9.23,16,10.3,6c22.64,13.09,19.51,39,4.48,64.95L377.88,657.18l-11,70.89,58-43.7L644.48,301.7c15-26,33.87-42.77,56.51-29.68l10.3,6,9.23-16Z" fill="#00ff06"/><path d="M748.07,447.14c-11.13-77.47-56.39-136.76-118.91-173.59v0l-.84-.47-.83-.5v0c-63.11-35.81-137.07-45.46-209.77-16.46C290.57,306.86,227,448.06,277.78,575.21L299.9,588l5.12-8.85c-7.07-11.43-11.94-25.74-15.27-39.72-23.32-98,52.78-191.75,161.16-213.73,46.28-5.26,95.91-.6,134.58,21.42,38.38,22.54,67.18,63.22,85.71,106,35,104.9-8.28,217.63-104.83,246.3-13.77,4.09-28.6,7-42,6.58l-5.12,8.85,22.12,12.79C676.84,708.14,767.53,582.65,748.07,447.14Z" fill="#00ff06"/><path d="M398.55,223l3,11.5c6.66,25.29-6.55,28.8-16.08,37.11l-19.1,42.43,28.23,30.71c23.74-10,35.88.64,42.54,25.93,1.7,6.44,1.29,4.78,2.88,10.82l17.84-4.7-21.45-81.22-20.06-77.28Z" fill="#00ff06"/><path d="M787.85,447.79l-11.47,3.16c-25.22,6.94-23.29,22.47-25.68,34.88l-25.42,35.49-43-15.74c-5.08-21.58-16.33-23.94-41.54-17-6.42,1.77-4.78,1.29-10.8,2.95L625,473.75l81-22.26L782.95,430Z" fill="#00ff06"/><path d="M656.22,224.82l-64.3-37.18-9.23,16,10.3,6c22.64,13.09,19.51,39,4.48,64.95L377.88,657.18l-11,70.89,58-43.7L644.48,301.7c15-26,33.87-42.77,56.51-29.68l10.3,6,9.23-16Z"/><path d="M748.07,447.14c-11.13-77.47-56.39-136.76-118.91-173.59v0l-.84-.47-.83-.5v0c-63.11-35.81-137.07-45.46-209.77-16.46C290.57,306.86,227,448.06,277.78,575.21L299.9,588l5.12-8.85c-7.07-11.43-11.94-25.74-15.27-39.72-23.32-98,52.78-191.75,161.16-213.73,46.28-5.26,95.91-.6,134.58,21.42,38.38,22.54,67.18,63.22,85.71,106,35,104.9-8.28,217.63-104.83,246.3-13.77,4.09-28.6,7-42,6.58l-5.12,8.85,22.12,12.79C676.84,708.14,767.53,582.65,748.07,447.14Z"/><path d="M398.55,223l3,11.5c6.66,25.29-6.55,28.8-16.08,37.11l-19.1,42.43,28.23,30.71c23.74-10,35.88.64,42.54,25.93,1.7,6.44,1.29,4.78,2.88,10.82l17.84-4.7-21.45-81.22-20.06-77.28Z"/><path d="M787.85,447.79l-11.47,3.16c-25.22,6.94-23.29,22.47-25.68,34.88l-25.42,35.49-43-15.74c-5.08-21.58-16.33-23.94-41.54-17-6.42,1.77-4.78,1.29-10.8,2.95L625,473.75l81-22.26L782.95,430Z"/></svg>