<?xml version="1.0" encoding="UTF-8" standalone="no"?>
<!-- Created with Inkscape (http://www.inkscape.org/) -->

<svg
   xmlns:dc="http://purl.org/dc/elements/1.1/"
   xmlns:cc="http://creativecommons.org/ns#"
   xmlns:rdf="http://www.w3.org/1999/02/22-rdf-syntax-ns#"
   xmlns:svg="http://www.w3.org/2000/svg"
   xmlns="http://www.w3.org/2000/svg"
   xmlns:sodipodi="http://sodipodi.sourceforge.net/DTD/sodipodi-0.dtd"
   xmlns:inkscape="http://www.inkscape.org/namespaces/inkscape"
   width="160"
   height="300"
   viewBox="0 0 160 300.00001"
   id="svg3381"
   version="1.1"
   inkscape:version="0.91 r13725"
   sodipodi:docname="Thaylen script K.svg">
  <defs
     id="defs3383" />
  <sodipodi:namedview
     id="base"
     pagecolor="#ffffff"
     bordercolor="#666666"
     borderopacity="1.0"
     inkscape:pageopacity="0.0"
     inkscape:pageshadow="2"
     inkscape:zoom="0.7"
     inkscape:cx="36.981375"
     inkscape:cy="185.09623"
     inkscape:document-units="px"
     inkscape:current-layer="layer1"
     showgrid="false"
     inkscape:window-width="719"
     inkscape:window-height="678"
     inkscape:window-x="193"
     inkscape:window-y="86"
     inkscape:window-maximized="0"
     units="px" />
  <metadata
     id="metadata3386">
    <rdf:RDF>
      <cc:Work
         rdf:about="">
        <dc:format>image/svg+xml</dc:format>
        <dc:type
           rdf:resource="http://purl.org/dc/dcmitype/StillImage" />
        <dc:title></dc:title>
      </cc:Work>
    </rdf:RDF>
  </metadata>
  <g
     inkscape:label="Layer 1"
     inkscape:groupmode="layer"
     id="layer1"
     transform="translate(0,-752.36214)">
    <path
       style="fill:#000000"
       d="m 152.32598,1049.545 c -5.76409,-3.9635 -13.58633,-11.3394 -16.38558,-15.4503 -2.29986,-3.3775 -2.49365,-13.3525 -2.49365,-128.35 l 0,-124.68787 -52.718104,0 -52.718106,0 0,33.89178 c 0,36.38864 -0.01376,36.44725 -7.362221,31.4097 C 14.607941,842.2175 4.4752562,831.77211 2.2229777,827.36437 0.53997861,824.07071 0.1297849,816.25932 0.24161612,789.63298 c 0.0775688,-18.46778 0.64201419,-34.4116 1.25432768,-35.4307 0.861178,-1.43329 16.5609862,-1.75769 69.3262462,-1.43247 68.21295,0.42044 68.21295,0.42044 73.83902,5.08059 3.09432,2.56308 7.76772,7.53009 10.38532,11.03779 4.75927,6.37764 4.75927,6.37764 4.75927,144.84028 0,109.77133 -0.37931,138.46063 -1.83049,138.45273 -1.00677,0 -3.54896,-1.1916 -5.64933,-2.6362 z"
       id="path3545"
       inkscape:connector-curvature="0" />
  </g>
</svg>
