<?xml version="1.0" encoding="utf-8"?>
<!-- Generator: Adobe Illustrator 14.0.0, SVG Export Plug-In . SVG Version: 6.00 Build 43363)  -->
<!DOCTYPE svg PUBLIC "-//W3C//DTD SVG 1.1//EN" "http://www.w3.org/Graphics/SVG/1.1/DTD/svg11.dtd">
<svg version="1.1" id="Layer_1" xmlns="http://www.w3.org/2000/svg" xmlns:xlink="http://www.w3.org/1999/xlink" x="0px" y="0px"
	 width="800px" height="800px" viewBox="0 0 800 800" enable-background="new 0 0 800 800" xml:space="preserve">
<g>
	<path fill-rule="evenodd" clip-rule="evenodd" d="M712.356,53.254c9.717,26.218,22.632,54.767,37.359,81.728
		c8.021,14.681,18.97,29.48,22.183,44.366c1.657,7.676-1.346,11.445,2.336,17.514c2.972,4.894,9.805,7.63,14.011,11.675
		c7.857,28.636-7.491,70.608,7.006,96.905c-13.244,50.582-40.492,87.16-65.383,126.093c-26.068,4.21-37.104,13.458-63.046,15.178
		c-3.161,5.497-8.348,7.026-11.676,12.844c-4.234,7.396-3.195,18.762-7.005,25.686c-7.251,13.178-25.442,12.545-43.2,11.676
		c-2.246-4.823,1.495-11.521-2.334-16.345c-9.25-4.134-18.035-1.472-25.686-3.503c-14.48-3.848-21.25-19.187-37.361-19.85
		c-12.504-19.976-40.836-29.455-58.376-42.03c-10.033-23.438-13.3-53.639-35.026-65.382c2.173-16.119,8.444-28.139,8.173-46.702
		c20.8-10.723,33.367-29.679,49.037-45.534c0-3.892,0-7.784,0-11.675c15.537-6.626,43.912,2.42,58.375,9.34
		c17.879,0.413,26.248,10.335,42.031,12.843c7.424,6.196,12.975,14.268,17.515,23.351c-8.091-0.863-12.753-5.15-17.515-9.34
		c-48.665-16.343-88.502,2.121-89.9,52.539c20.101,37.237,104.72,51.628,151.78,30.356c18.669-8.438,49.334-31.154,42.03-59.544
		c-1.45-5.64-6.57-8.949-9.34-15.178c-7.984-17.954-5.91-44.089-17.514-60.712c-0.764-6.603,5.247-6.428,5.838-11.675
		c-13.32-7.948-23.597-12.729-39.694-18.68c-11.437-14.25-30.156-21.217-43.2-33.859c-11.71-0.242-18.95-7.1-30.355-8.172
		c-9.549-0.898-19.559,2.954-29.188,1.167c-19.445-3.608-21.693-26.481-35.025-37.361c-29.438,9.271-54.61,4.132-85.231-1.168
		c-4.939,1.675-5.004,8.227-4.669,15.178c-10.818,12.192-30.063,8.806-37.361,24.518c-30.247,7.812-54.709,51.222-93.403,31.523
		c-6.959,0.824-8.32,7.247-14.01,9.34c1.963-14.538,22.129-29.566,10.508-51.371c-5.971-2.275-18.988-6.374-23.351,0
		c-2.858,4.624,3.958,8.062,2.335,15.178c-5.436,5.558-18.335,11.04-25.686,4.67c-8.597,11.64-27.049,13.425-24.518,36.193
		c-11.675,10.281-21.592,15.558-44.367,15.178c2.082,22.871-23.356,26.837-24.517,50.204c-4.924,0.915-5.096,6.58-9.34,8.173
		c-5.318,3.945-6.148-6.81-10.508-3.503c-4.693,9.773,2.153,18.069,4.67,24.519c-0.647,5.58-5.871,6.582-9.34,9.34
		c-10.576,21.724-8.282,78.703-5.838,110.916c1.666,21.958,7.071,33.108,14.011,49.036c10.771,24.722,21.313,37.754,39.697,50.204
		c-1.621,14.745,9.232,30.813,21.015,38.528c4.777,3.129,12.623,3.318,17.513,7.005c5.685,4.287,8.485,13.863,21.016,11.676
		c22.798,15.463,47.521,22.308,73.554,35.025c16.153,19.163,44.6,35.179,82.896,33.859c49.123-1.692,103.574,22.174,135.434-2.336
		c13.564-0.48,22.929,4.452,35.025,8.174c9.419-4.591,17.705-10.316,24.519-17.514c18.174,0.348,34.724,1.922,50.204-2.335
		c0.565-6.693-2.151-10.251,5.837-12.842c-2.644-5.635-3.569-15.727,3.503-17.515c6.661,19.624-0.992,43.784-10.507,54.875
		c-36.635,32.117-66.735,63.836-121.425,77.057c-15.913,13.663-28.386,30.769-58.376,30.356c-6.941,4.2-14.573,12.886-23.351,16.345
		c-6.203,2.445-13.947,0.764-21.017,2.336c-4.512,1.003-10.613,5.705-16.345,7.005c-5.487,1.244-13.601,4.681-17.514,4.669
		c-10.332-0.028-18.489-12.202-29.188-15.177c-5.307-1.476-16.229-3.254-22.183-2.335c-8.586,1.324-12.755,10.436-25.687,12.843
		c-2.354,0.438-4.588,3.229-5.837,3.502c-13.808,3.027-23.64,1.125-39.696,1.167c-2.899-6.44-7.166-11.515-9.34-18.681
		c4.001-5.728,9.701-9.757,11.676-17.512c-4.896-8.102-12.258-5.344-18.681-8.174c-14.782-6.511-22.537-20.398-33.859-29.188
		c-7.215-5.602-17.328-6.948-21.015-16.346c-15.706-5.745-33.506-17.188-52.54-25.685c-11.124,4.351-3.107,12.061-3.502,23.35
		c-11.925,3.897-18.291-5.426-26.854-5.838c-1.47-5.246-0.823-11.517,1.168-16.345c5.484-3.719,7.194,4.824,14.01,3.502
		c3.505-8.22-10.074-7.238-9.34-16.345c-5.795-7.826-23.195-4.048-31.523-9.341c-12.597-33.715-52.433-40.191-61.88-77.057
		c10.022-1.964,21.795,5.825,29.188,10.508c12.194,7.722,24.876,20.77,37.361,30.354c18.917,7.298,41.862,19.247,58.376,32.692
		c9.385-0.711,14.633,4.979,22.183,7.005c9.204,2.47,19.383,0.972,28.021,3.502c3.402,0.997,5.112,4.477,8.172,5.838
		c19.36,8.615,45.515,5.741,66.549,12.843c11.276,11.818,34.285,11.418,50.205,21.016c27.199-1.211,60.685,3.866,72.386-12.842
		c20.238-4.384,34.97,11.124,50.205,11.674c18.568,0.672,40.021-4.258,53.706-10.508c13.718-6.265,31.973-15.282,35.025-28.021
		c-6.008-3.533-12.155,5.331-19.848,7.006c-11.209,2.44-25.04-2.593-29.188,8.173c-38.135-1.121-76.765,14.792-105.078,0
		c-43.817-3.301-70.556-29.816-114.418-29.188c-1.605-5.79-8.157-6.632-14.01-8.173c-1.693-6.595-11.873-7.508-16.345-10.508
		c-3.843-2.578-4.364-5.356-7.005-7.006c-4.797-2.993-18.121-8.174-25.686-14.01c-13.247-10.219-24.186-22.643-36.193-35.026
		c-10.982-11.324-20.599-21.396-31.523-33.858C101.792,515,87.983,485.787,72.548,456.053c0.19-17.067-6.96-31.219-5.838-45.534
		c-4.684-10.794-14.01-20.053-14.01-32.69c0-4.924,2.979-7.148,4.67-12.843c3.888-13.098,1.984-27.704,4.67-43.199
		c1.897-10.952,9.138-20.743,10.508-31.523c1.858-14.634-3.215-23.136-8.173-37.361c10.351-8.531,21.013-13.086,26.853-23.351
		c1.264-2.221,0.185-5.175,1.168-8.172c2.382-7.26,8.323-14.071,9.34-21.016c0.901-6.157-1.391-12.798,0-19.848
		c1.825-9.252,11.856-22.75,18.681-31.523c5.288-6.799,13.402-10.635,18.68-16.346c1.215-1.314,0.124-4.363,1.168-5.838
		c11.246-15.879,31.869-21.804,42.031-37.361c9.872-2.092,17.95-10.175,24.518-14.01c6.579-3.841,15.997-8.52,24.519-12.843
		c10.085-5.117,22.061-9.103,30.355-12.843c14.101-6.358,26.679-11.786,39.696-16.346c7.775-2.724,19.261-3.865,32.691-7.005
		c11.25-2.63,24.211-8.033,39.696-9.34c11.935-1.008,25.146,0.025,38.529-1.168c21.002-1.873,40.066-7.813,64.213-5.837
		c33.448,2.737,75.426-6.776,98.073,12.843c21.233-5.097,42.851-2.959,65.383-5.838C659.772,34.255,674.215,71.599,712.356,53.254z"
		/>
	<path fill-rule="evenodd" clip-rule="evenodd" d="M148.437,446.712c4.33-0.827,5.011,1.996,9.34,1.168
		c11.971,17.806,20.573,37.028,32.691,54.874c10.181,14.993,29.034,22.477,35.025,40.864c-28.142,4.013-27.855-20.402-51.372-21.016
		c1.397-17.912-9.193-33.491-14.01-49.037c-1.888-2.393-5.618-2.943-8.173-4.67C151.235,461.039,146.852,456.86,148.437,446.712z"/>
	<path fill-rule="evenodd" clip-rule="evenodd" d="M268.693,543.618c-8.274-0.678-13.471-4.431-21.016-5.838
		C241.583,511.152,280.235,530.543,268.693,543.618z"/>
	<path fill-rule="evenodd" clip-rule="evenodd" d="M689.005,577.477c-0.969,5.646-6.169,7.062-7.005,12.843
		c-6.228,0-12.453,0-18.681,0c-1.522-6.102-1.575-6.783-3.503-12.843C667.625,575.006,681.936,565.84,689.005,577.477z"/>
</g>
</svg>
