<svg xmlns="http://www.w3.org/2000/svg" viewBox="0 0 214.26 214.1"><title>Aon Toa</title><g id="Layer_2" data-name="Layer 2"><g id="Background"><g id="Aon_Toa" data-name="Aon Toa"><path d="M171.05,62c11.5,13.07,24.72,23.41,43.21,26.71l-18.14,18.22c3.06,3.12,6,6.14,9,9.19s5.73,5.94,8.93,9.26c-1.1.14-1.94.26-2.78.34a36,36,0,0,0-14.07,4.66,101.12,101.12,0,0,0-26.53,21.06c12.47-3.66,12.83-3.68,17.38-.85-10.33.95-19.4,4.7-25.86,11.73a41.21,41.21,0,0,0-10.89,25.6c-3.35-3.26-3.35-3.26,1.1-18.2a100.74,100.74,0,0,0-16.94,19.69c-4.81,7.25-8.44,14.92-9.53,24.06-4.18-2.41-6.61-5.85-9.6-8.65s-5.88-5.82-9.07-9L88.85,214.1A50.25,50.25,0,0,0,83.27,196a106.11,106.11,0,0,0-18.42-24.08A17.28,17.28,0,0,0,62,170l-.16-.21L62,170c2,4.59,3.93,9.22,3.35,14.4a38.58,38.58,0,0,1-1,4.11c-.75-1-1.22-1.38-1.23-1.75-.44-9.24-5.16-16.69-10.09-24a13.39,13.39,0,0,0-4.11-3.48c-6.48-4.08-13-8-21-8.47-.23,0-.44-.4-.66-.62,3.88-2.38,7.41-2.12,15.74,1.18-1.68-3.83-8.93-10.51-18.66-16.88C17.26,129.83,10,125.58,0,125.64l18.32-18.75L.2,88.67c1.76-.36,2.61-.61,3.48-.7,7-.68,13-4.06,18.76-7.66A89.54,89.54,0,0,0,44,62l.17-.14-.12.19c-3.2.85-6.38,1.75-9.6,2.53a10.44,10.44,0,0,1-8.9-1.29,76.07,76.07,0,0,0,16.18-5.09c13-5.47,18-16.39,21-28.92.25-1,.49-2.09.81-3.49,2.59,4.14,2.47,5.48-1.61,18.62,12.83-12.79,24-25.36,26.93-43.6C91.66,1.58,93,4.26,95,6s3.83,3.72,5.68,5.64,3.84,4.14,6.16,6.66L125.63,0c3.21,18.71,14,32.17,27.36,44l.15.2L153,44c-1.14-4-2.35-7.91-3.41-11.9A6.76,6.76,0,0,1,151,25.69a7,7,0,0,1,.87,1.9c.53,9,5.2,16.35,10.15,23.43,1.34,1.92,3.75,3.22,5.87,4.47,6.31,3.72,12.86,6.89,20.62,8.19-1,.43-2.1,1.31-3.07,1.22-3.44-.33-6.86-.94-10.26-1.57A36.07,36.07,0,0,1,171,62l-.14-.17ZM95,177.93l1.06,1,11.12,11.61,39.23-38.47H116.17c1.38,1.47,2.18,2.29,3,3.14,7.78,8.65,4,22.77-7.07,26.43-5.85,1.94-11.08.5-16.06-2.64l-1-1-1-1-1-1c-1.36-3.69-3-7.25-2.61-11.43.51-5.08,3.08-8.88,7.08-12.22H68.22L93,175.93c.34.33.67.67,1,1Zm-4,31L104.08,194,62.29,152.19l-4.12-.55,1.11-2.16-39.21-39.2L6.34,122.88c3.8,1.09,7.22,1.8,10.43,3,10.1,3.91,18.47,10.49,26,18,7.94,8,15.33,16.42,23.74,24C78.7,179,88.88,191.72,91,209l-.19.15ZM104.78,32.78l.44.44a18,18,0,0,1-2.17,1,14.08,14.08,0,0,0-8.12,20.1c3.59,6.82,12.63,9.56,19.29,5.66,7.23-4.23,9-14.28,4.9-19.82-2.53-3.45-5.93-5-9.34-6.94l.41-.49c1.44.26,3,.22,4.31.83,9.56,4.55,11.92,18.22,4.54,25.87-.83.86-1.69,1.7-2.75,2.76h30.52L107.33,23.55,68,62.17H98.07a27.55,27.55,0,0,1-2.35-1.73,16.63,16.63,0,0,1,3-26.47C100.55,32.9,102.46,31.59,104.78,32.78Zm46.34,32.1c-10.51.27-20.14.61-29.78.75-9.41.13-18.82.1-28.23.07-9.59,0-19.19-.9-29.26-.7,14.73,21.33,13.64,65.89,0,84.07,2.13.14,3.85.4,5.56.34,4.14-.15,8.28-.68,12.41-.65,21.76.2,43.52.55,65.28.78a17.38,17.38,0,0,0,3.68-.81C136.42,127.93,136.8,84.43,151.12,64.88ZM209,90.71c-3.55-.9-6.86-1.4-9.91-2.57-12.55-4.79-22.59-13.22-31.37-23.06C162.29,59,156.92,53,150.7,47.71,137.49,36.44,127,23.32,123.53,5.48L110.47,20.15l42,42,3.86.3c-.49,1.41-.84,2.42-.93,2.66L194.28,104Zm-57.8,61.53.39,1.1-40.91,40.9,13,14.37A45.68,45.68,0,0,1,129.16,192c6.45-12.1,15.67-21.77,26.1-30.45a56.94,56.94,0,0,0,7.35-7.38c8.54-10.36,18.24-19.3,30.06-25.83A41.93,41.93,0,0,1,209,123.17l-14.75-13.1-38.84,38.8,1.25,3ZM61.79,62.36l42.48-42.27L90.48,4.7c-.54,8-1.9,12-6,18.92C78.34,34.26,69.84,42.84,60.64,50.83,58,53.11,55.49,55.51,53.08,58c-5.43,5.59-10.36,11.74-16.23,16.82C27.94,82.52,18.3,89.31,5.34,90.37l15.37,13.86L59.36,65.17,57.8,62.36Zm91.14,6.08c-12.57,19-10.27,64.13.35,76.74L190.82,107C178.28,94.25,165.75,81.48,152.93,68.44ZM23.86,107,62,145.79c11.25-17.48,10.94-60.89-.44-77.09Zm83,45.18c-8.09-1.42-13.76,6.35-13.82,13.46a14,14,0,0,0,27.9.28C121.11,157.53,115.62,152.17,106.89,152.14Z"/><path d="M107.51,110.7c-2.76-2.31-2.76-2.31-1.4-6.84l2.88.31C109.21,106.68,110.52,109.12,107.51,110.7Z"/><path d="M109.78,33.26l-2.4-.52.24-.84,2.57.87Z"/><path d="M104.78,32.78l1-.26-.6.7Z"/><path d="M175,96c4.19,1.63,5.26,5.58,5.59,9.18.86,9.23-4.05,15.24-11,17.52-6.65,2.19-14.48.59-19-6.06A16.45,16.45,0,0,1,152,96a16.72,16.72,0,0,1,20.1-3.07c1.16.67,1.92,2,2.86,3a29.8,29.8,0,0,1-3.48-1.48A13.2,13.2,0,0,0,160.57,93a14.15,14.15,0,0,0-9.07,18.68c3.27,7.75,11.12,11.21,18.68,7.92,5.93-2.58,11.21-11.19,6.56-19.71C176.05,98.68,175.58,97.32,175,96Z"/><path d="M60,96c5.07,2.06,5.73,6.9,5.67,11.12-.11,6.93-2.81,12.48-10.57,15.37-6.52,2.43-12.76,1-17.95-3.9-4.29-4.06-5.84-11.59-3.3-17.6,4-9.5,16.08-13.56,24.92-7,.57.43.8,1.31,1.19,2-1.63-.67-3.31-1.25-4.88-2-4.89-2.38-9.4-1.82-13.78,1.34s-6,7.53-5.79,12.52c.23,5.91,4.63,10.86,10.42,12.58a13.74,13.74,0,0,0,14.3-4.65,14,14,0,0,0,1.5-15.81C61.11,98.66,60.59,97.33,60,96Z"/></g></g></g></svg>