<?xml version="1.0" encoding="UTF-8" standalone="no"?>
<!-- Created with Inkscape (http://www.inkscape.org/) -->

<svg
   xmlns:dc="http://purl.org/dc/elements/1.1/"
   xmlns:cc="http://creativecommons.org/ns#"
   xmlns:rdf="http://www.w3.org/1999/02/22-rdf-syntax-ns#"
   xmlns:svg="http://www.w3.org/2000/svg"
   xmlns="http://www.w3.org/2000/svg"
   xmlns:sodipodi="http://sodipodi.sourceforge.net/DTD/sodipodi-0.dtd"
   xmlns:inkscape="http://www.inkscape.org/namespaces/inkscape"
   width="413"
   height="607.5"
   id="svg3219"
   version="1.1"
   inkscape:version="0.48.4 r9939"
   sodipodi:docname="New document 6">
  <defs
     id="defs3221" />
  <sodipodi:namedview
     id="base"
     pagecolor="#ffffff"
     bordercolor="#666666"
     borderopacity="1.0"
     inkscape:pageopacity="0.0"
     inkscape:pageshadow="2"
     inkscape:zoom="0.35"
     inkscape:cx="1055.1749"
     inkscape:cy="391.57438"
     inkscape:document-units="px"
     inkscape:current-layer="layer1"
     showgrid="false"
     fit-margin-top="0"
     fit-margin-left="0"
     fit-margin-right="0"
     fit-margin-bottom="0"
     inkscape:window-width="1366"
     inkscape:window-height="705"
     inkscape:window-x="-8"
     inkscape:window-y="-8"
     inkscape:window-maximized="1" />
  <metadata
     id="metadata3224">
    <rdf:RDF>
      <cc:Work
         rdf:about="">
        <dc:format>image/svg+xml</dc:format>
        <dc:type
           rdf:resource="http://purl.org/dc/dcmitype/StillImage" />
        <dc:title></dc:title>
      </cc:Work>
    </rdf:RDF>
  </metadata>
  <g
     inkscape:label="Layer 1"
     inkscape:groupmode="layer"
     id="layer1"
     transform="translate(1486.625,308.5625)">
    <path
       sodipodi:nodetypes="ccscscsc"
       inkscape:connector-curvature="0"
       id="path3044"
       d="m -1280.125,-308.5625 206.5,206.50756 c 0,0 -48.0705,-5.67084 -121.2764,67.537728 -69.6725,69.675184 -67.5438,121.289387 -67.5438,121.289387 0,0 -21.9484,-45.943724 60.4692,-128.364317 77.0887,-77.091608 122.6962,-63.288888 122.6962,-63.288888 0,0 -9.4479,-0.96109 -103.1893,-94.71183 -103.3073,-103.3181 -97.6559,-108.96964 -97.6559,-108.96964 z"
       style="fill:#000000;stroke:#000000;stroke-width:0;stroke-linecap:butt;stroke-linejoin:miter;stroke-miterlimit:4;stroke-opacity:1;stroke-dasharray:none;display:inline"
       inkscape:transform-center-x="-103.22251"
       inkscape:transform-center-y="197.66734" />
    <path
       transform="matrix(0.70691604,0.70694198,-0.70742162,0.70744758,-1280.0515,-315.62929)"
       d="m 155.00467,142.00241 a 6.0023398,5.9980502 0 1 1 -12.00468,0 6.0023398,5.9980502 0 1 1 12.00468,0 z"
       sodipodi:ry="5.9980502"
       sodipodi:rx="6.0023398"
       sodipodi:cy="142.00241"
       sodipodi:cx="149.00233"
       id="path3052"
       style="fill:#000000;fill-opacity:1;fill-rule:evenodd;stroke:none;display:inline"
       sodipodi:type="arc"
       inkscape:transform-center-x="-4.9500201"
       inkscape:transform-center-y="198.72849" />
    <path
       style="fill:#000000;stroke:#000000;stroke-width:0;stroke-linecap:butt;stroke-linejoin:miter;stroke-miterlimit:4;stroke-opacity:1;stroke-dasharray:none;display:inline"
       d="m -1280.125,-308.5625 -206.5,206.50756 c 0,0 48.0705,-5.67085 121.2764,67.537718 69.6725,69.675184 67.5438,121.289397 67.5438,121.289397 0,0 21.9484,-45.943734 -60.4692,-128.364327 -77.0887,-77.091608 -122.6962,-63.288878 -122.6962,-63.288878 0,0 9.4479,-0.96109 103.1893,-94.71184 103.3072,-103.31809 97.6559,-108.96963 97.6559,-108.96963 z"
       id="path3119"
       inkscape:connector-curvature="0"
       sodipodi:nodetypes="ccscscsc"
       inkscape:transform-center-x="103.22252"
       inkscape:transform-center-y="197.66734" />
    <path
       sodipodi:type="arc"
       style="fill:#000000;fill-opacity:1;fill-rule:evenodd;stroke:none;display:inline"
       id="path3121"
       sodipodi:cx="149.00233"
       sodipodi:cy="142.00241"
       sodipodi:rx="6.0023398"
       sodipodi:ry="5.9980502"
       d="m 155.00467,142.00241 a 6.0023398,5.9980502 0 1 1 -12.00468,0 6.0023398,5.9980502 0 1 1 12.00468,0 z"
       transform="matrix(-0.70691604,0.70694198,0.70742162,0.70744758,-1280.1985,-315.62929)"
       inkscape:transform-center-x="4.950013"
       inkscape:transform-center-y="198.72849" />
    <path
       inkscape:transform-center-y="197.66733"
       inkscape:transform-center-x="-103.22251"
       style="fill:#000000;stroke:#000000;stroke-width:0;stroke-linecap:butt;stroke-linejoin:miter;stroke-miterlimit:4;stroke-opacity:1;stroke-dasharray:none;display:inline"
       d="m -1280.125,-202.47986 206.5,206.5075616 c 0,0 -48.0705,-5.6708392 -121.2764,67.5377284 -69.6725,69.67518 -67.5438,121.28939 -67.5438,121.28939 0,0 -21.9483,-45.94373 60.4692,-128.364319 77.0887,-77.091607 122.6962,-63.2888925 122.6962,-63.2888925 0,0 -9.4479,-0.96108077 -103.1893,-94.7118305 -103.3072,-103.318098 -97.6559,-108.969638 -97.6559,-108.969638 z"
       id="path3181"
       inkscape:connector-curvature="0"
       sodipodi:nodetypes="ccscscsc" />
    <path
       inkscape:transform-center-y="198.72848"
       inkscape:transform-center-x="-4.950013"
       sodipodi:type="arc"
       style="fill:#000000;fill-opacity:1;fill-rule:evenodd;stroke:none;display:inline"
       id="path3183"
       sodipodi:cx="149.00233"
       sodipodi:cy="142.00241"
       sodipodi:rx="6.0023398"
       sodipodi:ry="5.9980502"
       d="m 155.00467,142.00241 a 6.0023398,5.9980502 0 1 1 -12.00468,0 6.0023398,5.9980502 0 1 1 12.00468,0 z"
       transform="matrix(0.70691604,0.70694198,-0.70742162,0.70744758,-1280.0515,-209.54665)" />
    <path
       inkscape:transform-center-y="197.66734"
       inkscape:transform-center-x="103.22252"
       sodipodi:nodetypes="ccscscsc"
       inkscape:connector-curvature="0"
       id="path3185"
       d="m -1280.125,-202.47986 -206.5,206.5075616 c 0,0 48.0705,-5.6708492 121.2764,67.5377184 69.6725,69.67518 67.5438,121.2894 67.5438,121.2894 0,0 21.9484,-45.94374 -60.4692,-128.364329 -77.0887,-77.091607 -122.6962,-63.2888825 -122.6962,-63.2888825 0,0 9.4479,-0.96108077 103.1893,-94.7118405 103.3073,-103.318088 97.6559,-108.969628 97.6559,-108.969628 z"
       style="fill:#000000;stroke:#000000;stroke-width:0;stroke-linecap:butt;stroke-linejoin:miter;stroke-miterlimit:4;stroke-opacity:1;stroke-dasharray:none;display:inline" />
    <path
       inkscape:transform-center-y="198.72848"
       inkscape:transform-center-x="4.9500201"
       transform="matrix(-0.70691604,0.70694198,0.70742162,0.70744758,-1280.1985,-209.54665)"
       d="m 155.00467,142.00241 a 6.0023398,5.9980502 0 1 1 -12.00468,0 6.0023398,5.9980502 0 1 1 12.00468,0 z"
       sodipodi:ry="5.9980502"
       sodipodi:rx="6.0023398"
       sodipodi:cy="142.00241"
       sodipodi:cx="149.00233"
       id="path3187"
       style="fill:#000000;fill-opacity:1;fill-rule:evenodd;stroke:none;display:inline"
       sodipodi:type="arc" />
    <path
       sodipodi:nodetypes="ccscscsc"
       inkscape:connector-curvature="0"
       id="path3189"
       d="m -1280.125,-96.397215 206.5,206.507565 c 0,0 -48.0705,-5.67085 -121.2764,67.53773 -69.6725,69.67518 -67.5438,121.28942 -67.5438,121.28942 0,0 -21.9483,-45.94376 60.4692,-128.36435 77.0887,-77.091603 122.6962,-63.28889 122.6962,-63.28889 0,0 -9.4479,-0.96108 -103.1893,-94.711829 -103.3072,-103.318099 -97.6559,-108.969646 -97.6559,-108.969646 z"
       style="fill:#000000;stroke:#000000;stroke-width:0;stroke-linecap:butt;stroke-linejoin:miter;stroke-miterlimit:4;stroke-opacity:1;stroke-dasharray:none;display:inline"
       inkscape:transform-center-x="-103.22251"
       inkscape:transform-center-y="197.66735" />
    <path
       transform="matrix(0.70691604,0.70694198,-0.70742162,0.70744758,-1280.0515,-103.464)"
       d="m 155.00467,142.00241 a 6.0023398,5.9980502 0 1 1 -12.00468,0 6.0023398,5.9980502 0 1 1 12.00468,0 z"
       sodipodi:ry="5.9980502"
       sodipodi:rx="6.0023398"
       sodipodi:cy="142.00241"
       sodipodi:cx="149.00233"
       id="path3191"
       style="fill:#000000;fill-opacity:1;fill-rule:evenodd;stroke:none;display:inline"
       sodipodi:type="arc"
       inkscape:transform-center-x="-4.950013"
       inkscape:transform-center-y="198.72848" />
    <path
       style="fill:#000000;stroke:#000000;stroke-width:0;stroke-linecap:butt;stroke-linejoin:miter;stroke-miterlimit:4;stroke-opacity:1;stroke-dasharray:none;display:inline"
       d="m -1280.125,-96.397215 -206.5,206.507565 c 0,0 48.0705,-5.67085 121.2764,67.53772 69.6725,69.67519 67.5438,121.28943 67.5438,121.28943 0,0 21.9484,-45.94376 -60.4692,-128.36436 -77.0887,-77.091603 -122.6962,-63.28888 -122.6962,-63.28888 0,0 9.4479,-0.96108 103.1893,-94.711839 103.3073,-103.318089 97.6559,-108.969636 97.6559,-108.969636 z"
       id="path3193"
       inkscape:connector-curvature="0"
       sodipodi:nodetypes="ccscscsc"
       inkscape:transform-center-x="103.22252"
       inkscape:transform-center-y="197.66735" />
    <path
       sodipodi:type="arc"
       style="fill:#000000;fill-opacity:1;fill-rule:evenodd;stroke:none;display:inline"
       id="path3195"
       sodipodi:cx="149.00233"
       sodipodi:cy="142.00241"
       sodipodi:rx="6.0023398"
       sodipodi:ry="5.9980502"
       d="m 155.00467,142.00241 a 6.0023398,5.9980502 0 1 1 -12.00468,0 6.0023398,5.9980502 0 1 1 12.00468,0 z"
       transform="matrix(-0.70691604,0.70694198,0.70742162,0.70744758,-1280.1985,-103.464)"
       inkscape:transform-center-x="4.9500201"
       inkscape:transform-center-y="198.72848" />
  </g>
</svg>
