<?xml version="1.0" encoding="utf-8"?>
<!-- Generator: Adobe Illustrator 14.0.0, SVG Export Plug-In . SVG Version: 6.00 Build 43363)  -->
<!DOCTYPE svg PUBLIC "-//W3C//DTD SVG 1.1//EN" "http://www.w3.org/Graphics/SVG/1.1/DTD/svg11.dtd">
<svg version="1.1" id="Layer_1" xmlns="http://www.w3.org/2000/svg" xmlns:xlink="http://www.w3.org/1999/xlink" x="0px" y="0px"
	 width="800px" height="800px" viewBox="0 0 800 800" enable-background="new 0 0 800 800" xml:space="preserve">
<g>
	<path fill-rule="evenodd" clip-rule="evenodd" d="M172.702,182.399c1.104-12.128,19.493,6.26,7.361,7.363
		c0.569,9.158-5.783,11.396-7.361,18.406C158.697,202.069,182.172,183.963,172.702,182.399z"/>
	<path fill-rule="evenodd" clip-rule="evenodd" d="M345.717,9.385c-0.24,0.027,1.328-3.458,3.681-3.68
		c103.886-9.763,177.767,11.931,242.957,47.854c26.38,14.538,50.367,31.845,73.621,51.537c4.502,3.812,7.141,7.942,11.045,11.043
		c7.913,6.282,13.328,11.604,22.087,22.088c3.411,4.08,8.193,7.424,11.045,11.043c2.266,2.875,1.248,7.8,3.682,11.043
		c1.342,1.791,6.176,1.984,7.359,3.681c3.373,4.829,4.493,10.554,7.363,14.725c1.765,2.562,5.637,5.006,7.363,7.362
		c2.765,3.777,3.479,8.726,7.362,14.724c1.32,2.042,3.456-0.573,3.682,3.682c0.277,5.307,7.005,7.959,7.36,14.726
		c0.281,5.306,7.008,7.958,7.362,14.724c0.051,0.931-0.373,2.84,0,3.682c1.116,2.501,6.203,5.271,7.365,7.361
		c0.747,1.348-1.133,6.438,0,7.363c2.437,1.995,4.288,9.787,7.358,18.404c1.855,5.201,1.54,12.956,3.683,18.407
		c0.621,1.573,6.913,2.486,7.363,3.682c1.628,4.338-3.754,7.097-3.684,7.361c0.961,3.419,6.89,5.62,7.365,7.363
		c1.088,3.997-3.639,7.505-3.682,7.362c2.312,7.699,6.262,8.52,7.363,14.725c-0.105-0.58-4.085,4.805-3.682,7.363
		c0.038,0.263,3.53,0.838,3.682,3.68c0.244,4.652-0.989,10.188,0,14.724c15.125,69.577-4.624,162.413-29.449,209.828
		c-1.256,2.397-2.097,4.871-3.684,7.363c-0.793,1.244-2.465,10.049-3.681,11.041c-0.431,0.352-3.462-0.457-3.682,0
		c-0.632,1.337,1.075,6.486,0,7.363c-0.481,0.396-3.397-0.511-3.682,0c-0.747,1.349,1.133,6.436,0,7.363
		c-3.614,2.955-4.828,3.105-7.36,7.359c-5.129,8.615-8.826,17.283-14.726,25.771c-3.196,4.599-7.816,6.641-11.045,11.041
		c-2.043,2.787-7.161,7.273-7.359,11.045c-0.335,6.304-15.396,15.141-22.086,22.087c-12.175,12.637-18.898,22.233-33.132,33.131
		c-2.082,1.592,0.614,3.455-3.682,3.682c-4.084,0.215-13.694,11.267-18.407,14.723c-2.787,2.046-7.274,7.166-11.042,7.362
		c-0.755,0.04-3.066-0.395-3.682,0c-3.603,2.305-7.568,9.079-11.044,11.045c-4.819,2.723-9.758,0.924-14.724,3.682
		c-2.1,1.165-1.898,6.022-3.681,7.359c-1.307,0.982-6.364-1.222-7.365,0c-0.357,0.443,0.473,3.453,0,3.682
		c-5.755,2.833-19.188,4.247-25.767,7.365c-1.78,0.841,0.356,3.469-3.682,3.682c-1.324,0.067-8.306,2.583-11.042,3.681
		c-2.285,0.913-2.951,3.411-3.682,3.677c-6.888,2.519-17.722,6.911-25.767,7.365c-0.105,0.006-20.692,1.974-22.091,3.682
		c-3.325,4.068-5.047,1.869-11.042,3.681c-15.523,4.695-56.48,3.682-80.986,3.682c-25.578,0-62.363,3.505-88.345-3.682
		c-19.473-5.386-51.708-15.96-73.624-25.767c-2.828-1.267-7.479-1.764-11.044-3.684c-2.376-1.278-5.294-6.248-7.361-7.363
		c-4.206-2.269-7.334-1.53-11.043-3.681c-5.555-3.215-10.359-6.381-18.407-11.042c-5.594-3.238-10.226-6.499-18.406-11.044
		c-1.941-1.079,0.487-3.462-3.682-3.682c-5.521-0.292-8.459-9.449-14.724-14.723c-3-2.527-8.268-1.097-11.043-3.682
		c-14.675-13.663-35.73-36.457-51.536-55.218c-3.727-4.426-6.919-9.257-11.044-14.727c-5.741-7.611-9.245-12.221-14.724-22.086
		c-1.079-1.941-3.462,0.489-3.682-3.682c-0.166-3.143-5.584-8.15-7.363-11.041c-1.577-2.567-2.097-4.498-3.68-7.364
		c-1.305-2.357-1.707-8.408-3.682-11.044c-0.967-1.291-6.797-2.496-7.364-3.682c-2.268-4.757-1.087-12.76-3.68-18.404
		c-1.145-2.492-6.198-5.268-7.363-7.364c-0.749-1.348,1.131-6.435,0-7.358c-7.384-6.045-15.61-39.798-18.406-55.222
		c-1.384-7.64-3.396-15.064-3.68-22.086c-2.034-50.05-6.036-101.119,3.68-154.608c7.167-39.45,24.524-76.487,44.174-110.435
		c4.375-7.557,9.349-17.902,14.724-25.768c1.411-2.063,3.457,0.593,3.682-3.682c0.054-1.014,2.858-6.216,3.682-7.363
		c0.915-1.273,6.849-2.544,7.361-3.68c0.794-1.763-1.159-5.866,0-7.363c2.58-3.324,7.388-6.724,11.045-11.043
		c0.902-1.068,6.912-2.686,7.361-3.682c0.748-1.659-1.162-6.029,0-7.361c5.246-6.024,13.283-13.405,18.406-18.407
		c1.92-1.875,5.444-5.894,7.362-7.361c2.602-1.99,8.291-1.375,11.045-3.682c4.246-3.556,6.229-10.879,11.043-14.724
		c2.885-2.307,7.78-1.235,11.043-3.683c1.845-1.382,1.941-6.096,3.682-7.361c2.797-2.038,7.922-1.34,11.043-3.682
		c1.683-1.262,2.078-6.331,3.682-7.363c3.713-2.387,7.613-1.549,11.043-3.68c2.269-1.411,5.315-6.247,7.361-7.363
		c6.269-3.417,10.955-3.527,18.407-7.362c5.425-2.793,12.881-4.527,18.406-7.363c2.442-1.255,5.258-6.193,7.361-7.361
		c1.348-0.75,6.438,1.13,7.363,0c2.463-3.01,2.81-2.544,7.362-3.682c3.245-0.812,6.312-2.5,11.043-3.682
		c3.246-0.811,6.313-2.497,11.044-3.682c3.245-0.811,6.312-2.497,11.043-3.68c8.826-2.208,34.311-9.939,51.536-11.045
		C340.786,9.23,343.298,9.658,345.717,9.385z M463.513,627.822c2.895,1.779,7.902,7.193,11.045,7.359
		c4.167,0.22,1.739,2.603,3.681,3.682c3.445,1.917,7.379,1.349,11.042,3.682c1.594,1.015,2.014,6.111,3.682,7.363
		c2.865,2.147,8.46,2.057,11.046,3.682c2.693,1.69,4.957,1.92,7.363,3.681c2.354,1.727,4.745,5.668,7.359,7.36
		c2.57,1.665,4.943,2.193,7.363,3.682c2.895,1.78,7.897,7.198,11.044,7.364c4.168,0.219,1.74,2.603,3.682,3.682
		c14.68,8.153,18.833,15.204,29.449,25.768c2.736,2.721,7.947,1.146,11.041,3.682c1.249,1.018-1.131,6.176,0,7.362
		c3.475,3.628,10.316,4.512,11.046,11.042c0.374,4.13-5.351,5.73,0,7.362c0.208-2.247,0.549-4.357,3.682-3.681
		c6.252-2.172,13.029-7.355,18.404-11.045c3.402-2.33,4.53-5.195,7.363-7.359c3.077-2.355,7.766-1.194,11.042-3.682
		c4.745-3.604,9.943-10.599,14.726-14.727c17.341-14.964,30.877-28.867,44.172-44.173c4.15-4.774,10.561-9.235,14.728-14.727
		c2.557-3.364,1.283-7.122,3.682-11.041c0.669-1.093,6.248-2.772,7.359-3.682c1.193-0.975-0.888-6.025,0-7.363
		c1.435-2.146,5.436-4.844,7.363-7.363c1.837-2.402,6.162-5.34,7.363-7.359c4.353-7.331,3.136-13.985,7.362-22.087
		c1.058-2.027,6.106-5.029,7.363-7.362c1.981-3.686,2.263-8.098,3.679-11.046c3.778-7.841,6.968-10.861,7.363-18.404
		c0.198-3.782,3.136-2.218,3.681-3.682c5.16-13.799,12.092-41.008,14.724-51.535c14.846-59.377,7.037-143.482-7.358-191.421
		c-2.833-9.436-7.529-20.574-11.046-29.45c-1.682-4.246-3.387-5.461-3.682-11.043c-0.355-6.768-7.083-9.418-7.36-14.725
		c-0.218-4.104-2.731-1.822-3.682-3.682c-2.624-5.142-0.924-9.848-3.682-14.724c-2.009-3.557-8.66-7.09-11.044-11.044
		c-0.396-0.654,0.043-2.9,0-3.682c-0.223-4.255-2.358-1.639-3.682-3.682c-5.115-7.909-5.462-10.158-11.041-14.724
		c-1.216-0.992,0.952-6.045,0-7.362c-2.884-3.98-7.398-6.597-11.045-11.045c-3.437-4.19-7.881-7.203-11.046-11.043
		c-6.812-8.276-11.645-19.01-18.403-25.768c-3.021-3.021-7.694-4.703-11.046-7.364c-4.256-3.379-6.783-7.579-11.041-11.043
		c-7.995-6.506-17.362-12.263-25.768-18.404c-4.897-3.576-11.857-10.894-14.726-11.045c-4.254-0.223-1.641-2.36-3.682-3.68
		c-7.95-5.145-15.266-7.072-22.088-11.044c-0.524-0.306,0.411-3.182,0-3.68c-0.876-1.074-6.025,0.633-7.362,0
		c-0.457-0.217,0.354-3.25,0-3.682c-0.888-1.087-6.019,0.658-7.36,0c-0.471-0.232,0.359-3.239,0-3.681
		c-0.578-0.707-14.308-3.491-14.726-3.682c-33.915-15.464-80.446-30.018-121.479-33.129c-58.975-4.474-103.205,2.944-143.564,14.725
		c-45.783,13.362-84.88,35.049-117.797,58.898c-34.828,25.232-64.912,55.099-88.349,88.346c-2.748,3.901-3.782,4.433-7.361,7.363
		c-1.2,0.982,0.912,6.031,0,7.362c-3.906,5.701-10.678,7.783-11.044,14.724c-0.356,6.767-7.083,9.418-7.361,14.726
		c-0.225,4.255-2.36,1.641-3.682,3.682c-3.119,4.821-7.2,15.323-7.361,18.406c-0.207,3.917-2.994,2.047-3.682,3.682
		c-3.88,9.195-4.296,15.897-7.364,18.404c-1.014,0.831,0.525,6.053,0,7.364c-3.323,8.311-7.613,22.961-11.043,25.768
		c-0.755,0.619,0.133,6.261,0,7.363c-0.724,6.038-0.097,8.109-3.681,11.043c-0.755,0.617,0.133,6.261,0,7.362
		c-0.725,6.04-0.096,8.111-3.68,11.043c-0.755,0.618,0.131,6.263,0,7.363c-6.356,52.974-2.238,98.468,7.361,139.886
		c2.434,10.502,3.233,10.48,3.682,18.405c0.471,8.329,5.455,16.498,7.361,22.086c1.546,4.525,1.354,8.779,3.682,14.726
		c0.658,1.676,6.443,5.26,7.364,7.36c2.333,5.328,1.954,10.876,3.68,14.727c0.931,2.07,3.589,5.605,3.681,7.363
		c0.214,4.059,2.801,1.869,3.682,3.681c2.547,5.235,0.931,9.798,3.682,14.724c1.141,2.046,5.617,4.67,7.361,7.363
		c0.87,1.341,3.621,6.188,3.682,7.359c0.225,4.268,2.31,1.629,3.681,3.682c4.759,7.133,9.778,15.438,14.726,22.09
		c14.392,19.354,32.683,41.526,47.854,55.218c6.047,5.453,14.667,8.92,22.087,14.723c2.572,2.014,4.375,5.126,7.361,7.363
		c5.729,4.285,12.164,9.408,14.725,11.041c20.387,12.997,43.445,26.455,66.262,33.131c2.991,0.877,5.429-4.646,7.361-3.679
		c2.834,1.417-1.033,6.304,3.682,7.359c1.397,0.314,8.906-4.274,14.725,0c9.107-43.578,2.312-93.751-3.682-128.838
		c-2.784-16.305-8.459-42.989-11.043-51.536c-1.019-3.375,0.816-7.611,0-11.044c-0.407-6.953-12.169-2.557-11.043-11.046
		c16.297-16.797,34.958-31.469,55.218-44.171c0.546-0.346-0.43-3.158,0-3.682c0.925-1.133,6.012,0.747,7.362,0
		c2.103-1.169,4.917-6.109,7.363-7.364c5.609-2.88,12.595-4.285,18.404-7.363c10.946-5.796,21.654-13.032,33.13-18.404
		c6.776-3.171,19.514-7.227,22.087-7.363c4.049-0.212,1.885-2.814,3.68-3.678c5.27-2.535,9.764-0.957,14.726-3.682
		c3.113-1.712,3.534-9.732,11.045-7.364c0-18.407,0-36.812,0-55.217c-5.177-0.961-4.196-8.074-7.363-11.044
		c-6.331,0.198-9.438-2.833-11.044-7.361c-15.862-23.691-36.144-44.104-51.537-69.942c-4.235-7.112-7.955-15.88-11.043-18.406
		c-1.131-0.926,0.75-6.014,0-7.361c-1.168-2.104-6.132-4.906-7.361-7.364c-2.661-5.317-3.946-11.422-7.363-18.406
		c-1.958-4-1.783-16.56-11.043-14.724c0.185,21.625-4.894,52.704-7.361,62.58c-2.738,10.947-2.229,14.333-3.682,22.086
		c-1.958,10.437-1.377,22.677-3.681,29.449c-0.469,1.374-6.364,5.648-7.365,7.363c-2.132,3.661-0.807,10.603-3.68,14.725
		c-2.83,4.061-16.171,13.35-18.406,14.725c-2.891,1.78-7.901,7.196-11.043,7.361c-6.765,0.356-8.561,8.008-11.043,11.042
		c-0.925,1.134-6.015-0.747-7.363,0c-2.102,1.17-4.951,6.06-7.362,7.364c-0.724,0.392-2.844-0.043-3.681,0
		c-4.037,0.212-1.903,2.836-3.682,3.682c-7.712,3.652-15.196,5.641-22.086,7.363c-11.793,2.948-26.027,15.29-40.495,14.723
		c1.669,22.04,4.913,43.776,7.363,66.263c2.069,18.989,2.556,59.315,11.043,66.261c1.222,1-0.979,6.056,0,7.36
		c1.272,1.697,5.895,1.98,7.363,3.682c12.717,14.729,21.74,29.107,33.13,40.494c3.01,2.668,9.875,25.477-3.68,22.086
		c-5.32-2.404,1.32-8.319,0-14.727c-1.314-6.363-10.767-8.2-7.363-14.723c-6.84-4.103-11.021-8.1-14.726-11.045
		c-0.747-0.593-2.942,0.604-3.682,0c-1.242-1.014,1.157-6.217,0-7.359c-3.142-3.113-7.962-4.171-11.043-7.364
		c-14.668-15.211-17.16-57.334-18.406-80.984c-0.134-2.592-3.687-3.75-3.68-3.681c-2.28-20.325-0.773-43.217-3.682-66.263
		c-0.333-2.629-4.755,0.122,0-3.682c2.427-1.941-3.762-4.47-3.682-3.682c-2.053-20.012-2.876-32.563-3.681-47.854
		c-0.141-2.689-3.673-3.619-3.68-3.682c-1.565-12.042-2.216-24.153-3.682-36.811c-1.584-13.688-5.686-36.156-3.681-44.174
		c0.228-0.908,3.721-5.305,3.681-3.682c0.117-4.788-4.229-4.969-3.681-11.043c-0.04,0.447,3.205-1.78,3.681-3.682
		c0.561-2.242-0.194-5.052,0-7.361c0.998-11.918,2.7-18.168,3.682-22.088c1.288-5.148,2.217-7.383,3.68-11.043
		c0.361-0.901-0.051-2.704,0-3.681c0.207-3.925,2.983-2.037,3.681-3.68c3.633-8.548,3.381-17.063,11.043-22.088
		c-1.05,16.382-12.059,29.196-14.724,47.856c-7.784,54.489,8.596,122.202,14.724,169.332c19.408-3.905,31.217-15.41,55.22-14.723
		c9.761-13.336,25.918-14.356,36.81-22.087c8.774-6.229,16.855-15.691,22.087-22.087c9.152-11.187,11.555-22.696,14.723-40.493
		c3.351-18.812,6.075-38.484,7.365-51.535c1.247-12.625-0.688-18.515,3.681-22.088c0.755-0.618-0.134-6.261,0-7.361
		c1.596-13.303-3.076-21.13,3.682-29.449c28.518,1.474,68.768,9.02,95.708,0c2.422-13.464-7.964-14.123-7.363-25.77
		c2.533-14.804-3.526-21.013-3.68-33.13c-11.864,2.646-16.816,1.736-25.769,3.68c-3.026,0.659-4.888,3.631-7.361,3.682
		c-13.518,0.276-25.909-0.568-33.13-11.043c8.393-24.793,28.256-41.866,44.173-55.217c16.935-14.204,36.682-29.7,58.898-33.131
		c-2.194-7.52,5.475-7.866,7.362-11.043c2.632-4.429-2.218-13.79,7.363-11.043c8.345,24.684-18.552,30.668-33.131,36.811
		c-10.934,4.606-17.327,8.908-22.085,14.725c-1.015,1.238-6.095-1.046-7.365,0c-4.27,3.523-5.755,9.438-11.043,14.725
		c-3.863,3.865-11.536,7.184-14.725,11.043c-8.319,10.079-14.112,22.403-18.406,33.131c24.603,3.951,48.606-8.893,62.583-3.682
		c3.537,22.23,7.503,44.032,11.041,66.262c9.434,1.994,17.962-2.256,25.768-3.681c9.067-1.656,17.927-1.407,25.768-3.683
		c12.387-3.593,23.058-14.372,36.813-14.725c-1.191,16.064,15.609,31.511,22.086,36.813c1.203,0.983-0.924,6.035,0,7.361
		c1.585,2.272,5.35,4.721,7.363,7.363c15.786,20.716,37.441,40.295,55.216,55.217c5.735,4.814,10.561,11.969,14.728,14.725
		c4.418,2.921,9.963,1.488,14.723,3.68c0.449,0.208-0.346,3.259,0,3.682c1.502,1.835,9.165-1.539,11.045,0
		c0.921,0.753-1.018,6.902,0,7.363c4.455,2.01,11.79,2.772,14.723,3.68c15.249,4.72,23.438,10.34,36.812,11.044
		c3.323,0.174,2.802,3.457,3.683,3.68c8.354,2.123,22.107,0.747,33.131,3.682c6.224,1.659,22.884,2.053,22.086,14.725
		c-10.336,1.046-23.298-1.602-33.131-3.682c-0.298-0.062,0.266-3.413,0-3.679c-1.82-1.819-12.013,0.537-14.723,0
		c-7.17-1.426-17.035-5.343-22.091-7.364c-6.863-2.745-19.857-4.628-25.768-7.361c-0.204-0.095-2.509-2.936-3.682-3.682
		c-7.953-5.069-10.163-5.468-14.723-11.043c-0.964-1.177-6.018,0.85-7.363,0c-1.146-0.728-2.729-6.202-3.681-7.363
		c-0.985-1.207-6.037,0.933-7.363,0c-4.726-3.33-6.713-7.858-11.042-11.043c-3.828-2.818-7.324-4.552-11.046-7.362
		c-8.926-6.745-15.171-13.184-22.086-18.406c-11.903-8.994-24.933-19.731-33.13-29.45c-1.162-1.379,0.763-5.673,0-7.363
		c-0.489-1.083-6.447-2.484-7.363-3.68c-2.816-3.682-3.834-4.477-7.359-7.363c-1.205-0.985,0.92-6.035,0-7.361
		c-0.896-1.285-6.069-2.621-7.363-3.682c-1.181-0.967,0.862-6.022,0-7.363c-0.356-0.554-3.146,0.438-3.682,0
		c-2.985-2.442-0.424-12.381-7.364-11.044c-9.045,24.73-17.279,50.896-25.768,73.624c-0.554,1.486-2.83,0.276-3.682,3.682
		c-1.286,5.148-2.215,7.383-3.679,11.043c-2.245,5.616-2.258,9.03-3.682,14.725c-1.555,6.227-6.053,13.745-7.362,18.406
		c-2.686,9.566-3.207,13.096-3.682,22.086c-0.177,3.359-3.44,2.758-3.682,3.682c-2.816,10.772-1.802,13.708-3.682,18.407
		c-0.359,0.898,0.054,2.702,0,3.68c-0.169,3.256-3.491,2.889-3.682,3.682c-6.076,25.422-0.115,43.762,0,66.261
		c0.028,5.552-3.028,7.457-3.681,11.042c-1.058,5.821,0.279,12.487,0,18.408c-1.019,21.583-2.838,42.21-3.679,55.217
		c-1.475,22.752,1.023,46.61-3.682,69.94C438.122,611.345,454.662,622.375,463.513,627.822z M411.978,237.619
		c5.973,0.593,2.688,9.014,3.682,14.725c3.907,22.488,5.414,55.127,7.363,73.622c0.747,7.1,3.383,8.337,0,11.044
		c-2.449,1.958,3.775,4.429,3.682,3.68c1.837,14.712-5.48,29.336,7.359,33.131c2.854-16.165,6.616-40.908,11.045-47.855
		c7.011-11,11.729-32.998,14.726-40.493c0.36-0.901-0.054-2.702,0-3.68c0.195-3.743,3.168-2.269,3.679-3.682
		c4.394-12.16,7.28-27.224,11.045-33.131c4.797-7.523,5.954-18.015,11.046-22.086c-0.418-4.493-1.105-8.717-7.365-7.364
		C462.121,229.472,423.476,221.073,411.978,237.619z M330.993,241.299c0.816,3.436-1.019,7.67,0,11.044
		c0.404,1.335,6.568,5.555,7.361,7.361c3.035,6.902,3.855,15.479,7.363,22.088c1.066,2.008,5.975,5.13,7.361,7.361
		c2.192,3.523,1.317,7.144,3.681,11.043c1.325,2.184,5.86,4.947,7.363,7.363c2.109,3.393,1.288,7.398,3.68,11.044
		c3.625,5.517,9.809,8.738,14.725,14.724c2.329,2.833,1.659,8.397,3.682,11.043c1.663,2.175,5.32,5.039,7.363,7.363
		c3.482,3.959,23.259,28.276,25.769,25.768c1.226-1.228-0.942-5.848,0-7.364c3.875-20.295-5.313-39.882-7.363-58.896
		c-2.862-26.557,0.632-53.114-7.362-77.305c-27.288,0.293-54.825,0.834-77.304-3.681
		C327.888,234.587,326.678,240.705,330.993,241.299z M411.978,462.171c-0.881,0.467-2.887-0.59-3.683,0
		c-2.355,1.74-4.688,5.742-7.358,7.359c-7.653,4.634-18.75,10.211-22.089,11.045c-10.242,2.561-8.11,4.099-14.725,7.363
		c-3.918,1.931-7.978,2.258-11.044,3.678c-1.897,0.881,0.077,2.743-3.68,3.682c-10.047,2.514-8.488,3.754-14.724,7.363
		c-4.283,2.478-8.041,3.693-11.044,7.364c-0.985,1.204-6.035-0.925-7.362,0c-2.27,1.581-4.721,5.349-7.361,7.362
		c-5.432,4.138-9.715,10.57-14.728,14.723c-2.794,2.319-8.416,1.672-11.043,3.682c-1.857,1.421-5.532,5.533-7.361,7.363
		c-5.665,5.663-10.453,10.628-11.044,18.405c7.829,30.916,18.701,72.043,22.087,110.434c1.146,13.004-0.498,25.348,0,36.813
		c0.487,11.242,1.694,20.058,3.681,29.448c-3.847,8.421-2.336,22.206-7.363,29.451c36.523,7.567,75.773,18.74,117.8,18.404
		c26.411-0.212,52.729-6.264,73.621-7.365c3.085-0.161,3.106-3.562,3.681-3.677c12.186-2.488,25.362-3.869,36.813-7.362
		c11.369-3.472,21.313-11.211,33.128-11.047c1.693-19.166,28.208-13.511,29.449-33.13c-15.003-24.183-38.974-39.542-62.577-55.218
		c-23.57-15.65-49.684-29.165-73.625-44.172c-6.36-5.91-22.759-1.783-25.768-11.045c-4.231-12.303,2.229-29.514,3.682-47.854
		c2.062-26.056,3.47-49.828,3.682-69.944c0.137-13.237,5.281-33.335-7.363-33.127C414.433,462.171,413.203,462.171,411.978,462.171z
		"/>
</g>
</svg>
