<?xml version="1.0" encoding="UTF-8" standalone="no"?>
<!-- Generator: Adobe Illustrator 14.0.0, SVG Export Plug-In . SVG Version: 6.00 Build 43363)  -->

<svg
   xmlns:dc="http://purl.org/dc/elements/1.1/"
   xmlns:cc="http://creativecommons.org/ns#"
   xmlns:rdf="http://www.w3.org/1999/02/22-rdf-syntax-ns#"
   xmlns:svg="http://www.w3.org/2000/svg"
   xmlns="http://www.w3.org/2000/svg"
   xmlns:sodipodi="http://sodipodi.sourceforge.net/DTD/sodipodi-0.dtd"
   xmlns:inkscape="http://www.inkscape.org/namespaces/inkscape"
   version="1.1"
   id="Layer_1"
   x="0px"
   y="0px"
   width="332.983px"
   height="800px"
   viewBox="0 0 332.983 800"
   enable-background="new 0 0 332.983 800"
   xml:space="preserve"
   sodipodi:docname="Herald_Glyph_Nalan.svg"
   inkscape:version="0.92.4 (5da689c313, 2019-01-14)"><metadata
   id="metadata25"><rdf:RDF><cc:Work
       rdf:about=""><dc:format>image/svg+xml</dc:format><dc:type
         rdf:resource="http://purl.org/dc/dcmitype/StillImage" /></cc:Work></rdf:RDF></metadata><defs
   id="defs23" /><sodipodi:namedview
   pagecolor="#ffffff"
   bordercolor="#666666"
   borderopacity="1"
   objecttolerance="10"
   gridtolerance="10"
   guidetolerance="10"
   inkscape:pageopacity="0"
   inkscape:pageshadow="2"
   inkscape:window-width="674"
   inkscape:window-height="480"
   id="namedview21"
   showgrid="false"
   inkscape:zoom="1.18"
   inkscape:cx="126.22073"
   inkscape:cy="422.24411"
   inkscape:window-x="0"
   inkscape:window-y="0"
   inkscape:window-maximized="0"
   inkscape:current-layer="g18" />
<g
   id="g18">
	<path
   d="m 159.254,8.304 c 0.604,0.301 1.214,0.596 1.358,1.358 1.125,17.326 2.747,48.529 1.357,69.25 -0.367,5.479 -0.525,12.299 -5.431,14.258 0.242,-13.541 2.531,-26.398 1.357,-39.378 0.661,-2.697 -3.794,-0.279 -3.395,-2.715 1.329,-14.515 0.939,-30.746 4.754,-42.773 z"
   id="path2"
   inkscape:connector-curvature="0"
   style="clip-rule:evenodd;fill:#5f5d68;fill-rule:evenodd;fill-opacity:1" />
	<path
   d="m 176.228,8.304 c 5.202,10.64 3.647,28.036 5.432,42.093 0.809,2.846 -2.861,1.212 -3.396,2.716 -1.148,13.322 1.058,26.256 1.358,40.057 -4.726,-1.787 -5.053,-8.388 -5.432,-13.579 -0.936,-12.864 0.642,-30.424 0.68,-44.809 0.026,-9.819 -2.596,-20.303 1.358,-26.478 z"
   id="path4"
   inkscape:connector-curvature="0"
   style="clip-rule:evenodd;fill:#5f5d68;fill-rule:evenodd;fill-opacity:1" />
	<path
   d="m 166.043,14.415 c 1.003,2.023 3.072,4.121 3.396,0 1.036,12.155 2.705,25.329 2.037,40.056 -0.877,19.274 -5.113,41.012 3.395,50.919 -7.293,8.788 2.589,17.452 -2.037,26.478 3.369,2.706 7.625,-2.509 10.862,0 1.841,4.93 -2.651,9.009 -8.146,8.827 1.798,9.323 25.492,-0.663 19.009,12.899 -5.864,0.434 -6.6,-4.262 -11.541,-4.752 -3.946,0.821 -6.907,3.45 -10.862,0.679 -2.969,0.652 -1.419,5.822 -4.074,6.79 -2.398,-0.995 -1.478,-5.312 -3.395,-6.79 -4.107,1.92 -7.359,1.167 -10.862,-0.679 -5.61,0.048 -6.093,5.223 -12.221,4.752 -6.273,-13.145 16.158,-4.236 19.01,-12.22 -4.324,-1.208 -10.474,-3.874 -8.147,-9.506 3.538,-2.123 6.231,1.709 10.861,0.68 -4.925,-9.294 5.511,-17.994 -2.036,-26.479 0.77,-3.53 3.575,-5.024 4.752,-8.147 0.503,-29.293 -2.753,-55.573 -0.001,-83.507 z m 2.717,93.691 c -0.411,-1.399 1.095,-4.716 -1.358,-4.074 0.41,1.4 -1.096,4.717 1.358,4.074 z m 0,18.331 c 0.056,-2.165 1.32,-4.139 -1.358,-4.753 -0.057,2.165 -1.32,4.139 1.358,4.753 z"
   id="path6"
   inkscape:connector-curvature="0"
   style="clip-rule:evenodd;fill:#5f5d68;fill-rule:evenodd;fill-opacity:1" />
	<path
   d="m 165.364,156.989 c 0.348,3.968 -1.598,5.643 -2.037,8.826 0.57,5.017 8.227,5.16 9.506,0.679 -0.087,-3.761 -2.459,-5.235 -2.037,-9.504 10.224,0.582 6.275,13.995 2.037,17.651 1.994,2.08 5.802,2.346 7.468,4.752 1.778,10.354 -8.021,16.332 -9.505,24.441 -1.307,7.149 3.777,14.265 0,22.404 -2.557,0.464 -2.874,0.464 -5.432,0 -3.623,-7.874 1.024,-14.999 0,-21.725 -1.32,-8.678 -11.138,-14.511 -9.504,-25.121 1.859,-1.988 4.526,-3.168 7.467,-4.073 -3.586,-4.418 -8.669,-17.348 2.037,-18.33 z m -4.751,26.477 c 1.051,5.512 3.082,10.044 7.467,12.221 3.594,-2.744 6.31,-6.364 7.469,-11.541 -2.376,-5.456 -12.052,-6.008 -14.936,-0.68 z"
   id="path8"
   inkscape:connector-curvature="0"
   style="clip-rule:evenodd;fill:#5f5d68;fill-rule:evenodd;fill-opacity:1" />
	<path
   d="m 15.323,192.292 c 21.737,9.041 26.16,35.395 36.662,55.672 7.323,-2.728 17.05,-17.892 24.441,-6.111 1.535,-1.407 2.12,-3.763 2.716,-6.11 2.493,2.26 1.672,7.833 2.715,11.542 6.582,-1.352 1.943,-11.701 2.716,-19.01 0.665,-6.289 3.638,-11.055 2.716,-15.615 -0.814,-4.031 -4.683,-4.663 -4.752,-7.469 2.885,-1.126 4.272,-1.942 6.79,-0.679 10.402,5.218 -6.292,33.486 6.789,35.983 3.386,-4.083 -0.218,-15.155 2.037,-20.368 6.12,3.385 5.466,13.543 6.79,21.725 3.26,1.241 6.355,-1.775 10.862,-1.357 3.132,-7.736 11.041,-17.734 9.505,-27.835 -0.873,-5.741 -7.075,-8.002 -6.79,-14.258 8.828,2.72 13.262,17.575 8.827,27.157 3.142,3.195 8.4,4.273 7.468,11.542 -1.771,1.784 -4.834,3.795 -8.147,2.036 -10.855,4.215 -10.724,23.413 -7.468,35.983 0.765,-9.859 4.281,-16.915 7.468,-24.441 5.708,4.454 0.502,12.221 -0.68,17.652 3.224,2.044 7.261,-2.301 10.863,0 0.833,8.527 -3.843,11.546 -5.432,17.651 15.233,4.957 5.119,-18.532 10.863,-25.798 5.273,-6.67 11.237,-1.665 12.221,-10.863 0.291,-1.875 -2.531,-0.637 -2.715,-2.037 -6.734,0.889 -8.17,10.635 -15.615,6.789 -1.974,-2.174 1.089,-3.425 0.679,-6.11 -3.389,-0.78 -9.92,0.176 -13.578,-2.037 4.248,-6.389 20.174,-1.099 27.157,-4.753 5.995,-6.224 1.723,-22.718 9.504,-27.156 4.118,20.324 2.502,46.38 7.468,65.855 7.833,-17.061 3.906,-45.883 8.826,-65.855 7.404,4.589 4.133,19.855 8.826,27.156 7.349,3.289 22.273,-1 27.835,4.074 -2.374,2.758 -9.09,2.717 -12.898,2.037 -2.287,2.233 2.287,4.556 0,6.789 -7.113,3.672 -9.037,-5.249 -14.937,-6.789 -0.892,0.692 -2.503,0.666 -3.395,1.358 0.405,9.088 8.325,6.616 12.221,11.542 5.006,6.331 -1.928,20.202 4.752,26.478 2.036,0 4.073,0 6.109,0 -1.094,-6.825 -6.403,-9.437 -5.431,-18.331 3.507,-1.808 6.348,0.788 10.185,0.679 1.174,-5.282 -6.028,-12.568 -0.68,-18.331 3.734,6.903 7.821,13.452 7.469,24.441 4.732,-11.24 3.569,-31.278 -6.11,-35.983 -3.737,1.446 -6.898,0.147 -8.826,-2.036 -0.655,-6.766 3.482,-8.739 7.468,-10.863 -4.319,-9.98 -0.271,-24.965 8.826,-27.835 0.418,6.201 -5.842,8.479 -6.79,13.579 -1.926,10.378 6.683,19.859 8.827,28.515 4.489,-0.681 8.102,2.503 10.863,1.357 2.64,-6.863 1.171,-17.838 6.789,-21.725 3.332,4.136 -0.223,15.158 2.037,20.368 14.437,-1.14 -3.131,-30.667 7.468,-35.983 2.517,-1.263 3.904,-0.447 6.789,0.679 0.257,2.904 -3.812,3.069 -4.752,6.79 -1.106,4.373 1.985,9.521 2.716,15.615 0.938,7.837 -3.554,16.777 2.036,19.689 2.115,-2.636 1.077,-8.427 2.716,-11.542 1.475,1.467 1.92,3.963 2.716,6.11 7.62,-11.126 17.741,2.18 24.441,6.111 5.585,-3.492 5.799,-10.718 7.468,-16.294 4.648,-15.538 15.357,-32.427 29.872,-39.377 -0.661,12.83 -12.531,20.81 -19.01,31.23 -6.729,10.826 -9.274,23.9 -18.33,33.268 -7.89,-0.55 -10.33,-13.869 -18.332,-12.899 -5.979,0.724 -8.13,13.768 -2.037,18.331 6.128,0.243 8.961,-2.807 15.616,-2.037 -1.067,8.82 -17.877,10.775 -23.762,4.752 -0.941,-3.811 -0.961,-8.543 -2.037,-12.221 -5.407,12.698 -19.423,16.787 -24.441,29.873 2.335,0.913 6.33,0.217 6.79,-2.715 3.787,5.031 -0.527,12.196 -6.79,11.541 -0.217,-1.574 0.109,-2.607 0.68,-3.395 -4.984,-2.938 -10.196,-5.646 -12.222,-11.542 -1.472,-0.114 -0.308,2.408 -0.679,3.395 -3.488,-0.812 -4.453,-4.147 -8.146,-4.753 -4.153,3.933 2.833,7.246 4.751,9.505 -0.341,5.767 -4.337,7.883 -7.468,10.863 -4.262,-1.623 -4.799,-6.969 -10.863,-6.789 -2.146,3.367 1.82,5.646 2.037,8.826 -0.949,4.708 -7.251,4.063 -9.504,7.468 0.57,3.276 6.53,1.163 8.146,3.395 0.395,2.657 -0.584,3.942 -1.357,5.431 -5.413,-2.535 -16.776,-6.376 -16.294,-11.542 0.61,-6.558 10.17,-1.551 14.258,-6.11 -0.729,-3.118 -5.001,-2.695 -6.111,-5.431 0.644,-3.204 4.263,-3.431 5.432,-6.11 -4.018,-9.979 2.021,-23.498 -10.863,-25.12 -3.3,2.64 -0.447,6.396 -0.679,9.505 -0.67,9.026 -6.86,17.669 -8.146,27.835 -1.345,10.627 1.253,20.313 -0.68,32.588 -2.557,-1.296 -2.874,-1.296 -5.432,0 -1.787,-12.103 0.483,-21.453 -0.679,-31.909 -1.537,-13.848 -10.008,-23.119 -8.146,-38.02 -4.45,1.208 -7.481,3.834 -10.185,6.79 -0.521,6.198 2.68,13.981 -1.357,17.652 0.494,3.353 4.285,3.409 5.432,6.11 -0.548,3.299 -4.634,3.061 -6.111,5.431 1.011,5.779 13.689,-0.11 14.258,6.11 -2.412,7.093 -9.567,9.443 -16.294,12.221 -0.773,-1.489 -1.752,-2.774 -1.357,-5.431 1.629,-1.993 6.677,-0.564 8.147,-2.716 -1.425,-4.233 -7.967,-3.348 -9.505,-7.468 -0.07,-3.917 3.124,-4.571 2.716,-8.826 -5.169,-2.08 -7.786,3.875 -10.863,6.11 -3.959,-2.151 -7.11,-5.111 -8.146,-10.184 1.178,-3.698 8.281,-4.674 5.431,-10.184 -4.14,0.16 -5.136,3.464 -8.147,4.753 -1.472,0.114 -0.307,-2.409 -0.679,-3.395 -3.278,4.643 -6.587,9.254 -12.899,10.863 -0.016,1.599 1.169,1.999 0.678,4.073 -6.314,0.2 -9.809,-5.261 -7.468,-11.541 1.134,1.861 4.564,4.099 6.79,2.715 -2.411,-12.528 -19.201,-16.556 -23.084,-29.873 -2.482,2.496 -1.357,8.601 -2.715,12.221 -5.886,6.023 -22.694,4.068 -23.762,-4.752 8.593,-1.709 8.734,3.812 14.936,2.037 7.343,-2.103 4.51,-17.211 -0.679,-18.331 -8.363,-1.806 -10.741,11.778 -18.331,12.899 -9.784,-6.681 -10.278,-19.239 -16.974,-31.23 -5.699,-10.208 -17.62,-17.821 -21.046,-27.157 -0.736,-1.997 -0.575,-4.028 -0.004,-6.113 z m 109.307,42.772 c 0.987,0.999 4.443,0.999 5.431,0 -0.704,-2.463 -2.122,-4.215 -4.074,-5.431 -0.038,2.225 -1.93,2.596 -1.357,5.431 z m 81.471,0 c 0.987,0.999 4.443,0.999 5.431,0 0.201,-2.69 -0.83,-4.149 -2.036,-5.431 -1.022,1.921 -2.992,2.892 -3.395,5.431 z M 93.399,254.753 c 0.748,-3.099 4.264,-3.43 4.073,-7.468 -3.459,1.52 -7.745,2.212 -8.826,6.11 8.47,8.051 19.348,13.692 23.762,25.799 5.475,-9.984 -3.121,-24.362 2.037,-34.625 -8.37,1.623 -7.608,15.879 -21.046,10.184 z m 131.033,24.441 c 3.122,-13.398 15.896,-17.144 23.083,-26.478 -1.773,-2.979 -5.35,-4.155 -8.826,-5.431 -0.633,4.233 5.12,5.006 3.394,8.147 -3.167,0 -6.335,0 -9.504,0 -4.808,-1.981 -3.731,-9.846 -9.505,-10.862 -0.453,0 -0.905,0 -1.357,0 5.51,10.082 -4.261,25.81 2.715,34.624 z"
   id="path10"
   inkscape:connector-curvature="0"
   style="clip-rule:evenodd;fill:#5f5d68;fill-rule:evenodd;fill-opacity:1" />
	<path
   d="m 121.914,288.7 c -5.146,4.272 -4.882,15.261 2.037,17.652 6.359,-1.562 7.25,-8.592 13.579,-10.185 0.778,8.02 -5.521,8.963 -8.147,13.579 11.859,6.246 19.704,16.505 25.12,29.193 3.896,-3.263 -1.374,-10.577 0.679,-14.257 5.839,0.033 6.014,5.432 5.432,10.184 4.195,1.208 9.198,-0.626 14.257,0.68 1.166,-4.117 -0.716,-10.997 6.11,-10.863 1.755,3.908 -2.413,9.772 0,14.257 6.801,-11.302 12.651,-23.558 25.798,-28.515 -1.91,-5.557 -9.105,-5.83 -8.146,-14.257 6.009,1.686 7.414,7.975 12.899,10.185 7.32,-1.312 8.411,-13.366 2.716,-16.974 0.887,-2.055 3.184,-2.7 6.11,-2.716 2.073,4.038 2.534,9.688 4.074,14.257 2.898,-0.269 3.332,-3.005 6.11,-3.395 0.048,-2.568 -5.644,-2.917 -4.074,-4.752 3.198,0.423 6.68,0.562 8.147,2.716 2.01,-2.009 4.513,-6.567 8.146,-4.752 0.437,4.509 -3.615,4.531 -4.753,7.468 5.081,4.807 15.003,0.587 14.938,-6.11 3.192,1.56 4.446,5.058 5.431,8.826 -7.952,3.815 -24.875,-1.34 -31.909,3.395 -0.08,1.956 0.371,4.444 -0.679,5.431 -2.515,1.974 -8.448,-0.516 -10.185,0.679 2.263,4.527 8.723,4.857 8.827,11.542 -4.018,0.396 -6.477,-0.766 -8.827,-2.037 -0.987,-1.502 -0.456,-4.521 -2.036,-5.432 -8.07,0.529 -11.116,6.084 -15.614,10.184 0.21,1.645 4.177,3.002 2.714,4.073 -1.625,0.411 -3.097,0.976 -5.431,0.679 -8.054,7.65 -2.444,23.99 -8.146,33.267 -3.026,4.923 -7.868,4.51 -10.184,9.505 -0.776,17.44 2.213,37.1 0,51.599 -5.833,-0.052 -5.699,-6.07 -8.827,-8.827 -3.126,2.757 -2.993,8.775 -8.826,8.827 -4.93,-15.876 4.503,-34.566 0,-50.919 -1.1,-3.995 -7.594,-5.971 -10.184,-10.185 -6.03,-9.808 -0.095,-24.302 -7.468,-33.267 -1.956,-0.081 -4.444,0.372 -5.431,-0.679 -3.301,-1.091 2.002,-1.979 2.037,-3.395 0.098,-4.104 -9.92,-9.92 -14.936,-10.863 -2.503,0.214 -1.597,3.835 -2.716,5.432 -2.35,1.271 -4.809,2.433 -8.826,2.037 0.295,-6.268 5.774,-7.352 8.826,-10.863 -0.807,-2.795 -7.642,1.05 -10.184,-1.358 -0.935,-0.875 -0.671,-2.949 -0.678,-4.752 -5.881,-6.114 -24.047,0.058 -31.909,-4.074 0.983,-3.768 2.239,-7.266 5.431,-8.826 0.304,6.748 8.65,10.243 14.936,6.789 -0.458,-3.842 -5.32,-3.279 -4.752,-8.147 3.154,-1.54 6.475,1.937 7.468,4.752 1.989,-1.632 4.975,-2.268 8.147,-2.716 3.29,0.825 -2.847,2.693 -3.395,4.073 1.645,1.524 3.485,2.852 5.431,4.074 3.204,-4.33 2.27,-19.534 10.863,-12.219 z m 40.735,57.708 c 1.297,-0.965 2.429,-2.097 3.394,-3.394 2.149,0.932 2.27,0.147 4.753,0 -0.049,2.312 1.997,2.528 3.395,3.394 5.389,-11.337 -18.685,-9.626 -11.542,0 z m -7.468,7.468 c 1.068,-1.647 2.532,-2.9 2.037,-6.111 -5.845,-6.067 -8.012,4.426 -2.037,6.111 z m 23.762,-6.11 c -0.308,3.25 0.737,5.147 2.716,6.111 1.102,-2.292 3.756,-3.033 3.395,-6.79 -1.711,-2.358 -4.521,-0.766 -6.111,0.679 z m -15.616,5.431 c 2.336,3.138 7.909,3.31 9.506,-0.678 -1.275,-5.957 -8.841,-5.624 -9.506,0.678 z m -10.861,8.826 c 2.706,0.462 4.619,1.718 8.147,1.358 3.185,-7.695 -7.06,-6.65 -8.147,-1.358 z m 23.083,1.358 c 3.416,0.021 6.453,-0.336 8.146,-2.036 -1.92,-4.504 -11.149,-5.474 -8.146,2.036 z m -6.789,11.541 c 1.699,-2.58 4.067,-6.641 2.036,-10.862 -8.024,-4.121 -7.472,10.187 -2.036,10.862 z"
   id="path12"
   inkscape:connector-curvature="0"
   style="clip-rule:evenodd;fill:#5f5d68;fill-rule:evenodd;fill-opacity:1" />
	<path
   d="m 167.401,700.806 c 0.957,0.716 1.548,8.472 2.037,3.395 0.758,30.759 2.251,64.363 -1.358,92.334 -2.962,-15.44 -2.037,-42.788 -2.037,-63.14 0,-10.497 -1.437,-21.739 0,-29.194 -0.498,2.583 3.484,-2.693 1.358,-3.395 z"
   id="path14"
   inkscape:connector-curvature="0"
   style="clip-rule:evenodd;fill:#5f5d68;fill-rule:evenodd;fill-opacity:1" />
	<path
   d="m 157.218,433.31 c 0.679,0 1.358,0 2.037,0 9.763,23.957 6.688,60.752 8.147,93.013 2.344,-18.62 1.952,-41.172 3.395,-61.103 0.869,-12.001 -0.364,-26.134 8.147,-31.91 -5.147,74.064 -5.903,156.129 -8.147,230.835 3.72,-9.86 5.502,-21.655 5.432,-35.305 6.64,42.083 -0.413,87.996 2.036,134.427 -15.903,-22.458 -0.871,-72.159 -9.504,-101.159 -11.396,26.543 5.186,77.925 -10.184,101.159 0.458,-45.297 -3.965,-91.308 0.679,-134.427 1.08,12.499 2.538,24.619 5.431,35.305 0.658,-32.71 -0.553,-67.982 -2.036,-103.197 -1.791,-42.498 -1.533,-85.728 -5.432,-125.601 -0.001,-0.679 -0.001,-1.358 -0.001,-2.037 z"
   id="path16"
   inkscape:connector-curvature="0"
   style="clip-rule:evenodd;fill:#5f5d68;fill-rule:evenodd;fill-opacity:1" />
</g>
</svg>