<?xml version="1.0" encoding="UTF-8" standalone="no"?>
<!-- Created with Inkscape (http://www.inkscape.org/) -->

<svg
   xmlns:dc="http://purl.org/dc/elements/1.1/"
   xmlns:cc="http://creativecommons.org/ns#"
   xmlns:rdf="http://www.w3.org/1999/02/22-rdf-syntax-ns#"
   xmlns:svg="http://www.w3.org/2000/svg"
   xmlns="http://www.w3.org/2000/svg"
   xmlns:sodipodi="http://sodipodi.sourceforge.net/DTD/sodipodi-0.dtd"
   xmlns:inkscape="http://www.inkscape.org/namespaces/inkscape"
   width="395"
   height="395"
   id="svg5416"
   version="1.1"
   inkscape:version="0.48.4 r9939"
   sodipodi:docname="Final Aon Omi.svg">
  <defs
     id="defs5418" />
  <sodipodi:namedview
     id="base"
     pagecolor="#ffffff"
     bordercolor="#666666"
     borderopacity="1.0"
     inkscape:pageopacity="0.0"
     inkscape:pageshadow="2"
     inkscape:zoom="0.5"
     inkscape:cx="106.77238"
     inkscape:cy="-56.432326"
     inkscape:document-units="px"
     inkscape:current-layer="layer1"
     showgrid="false"
     fit-margin-top="0"
     fit-margin-left="0"
     fit-margin-right="0"
     fit-margin-bottom="0"
     inkscape:window-width="1366"
     inkscape:window-height="705"
     inkscape:window-x="-8"
     inkscape:window-y="-8"
     inkscape:window-maximized="1"
     showguides="true"
     inkscape:guide-bbox="true" />
  <metadata
     id="metadata5421">
    <rdf:RDF>
      <cc:Work
         rdf:about="">
        <dc:format>image/svg+xml</dc:format>
        <dc:type
           rdf:resource="http://purl.org/dc/dcmitype/StillImage" />
        <dc:title></dc:title>
      </cc:Work>
    </rdf:RDF>
  </metadata>
  <g
     inkscape:label="Layer 1"
     inkscape:groupmode="layer"
     id="layer1"
     transform="translate(1380.7675,207.58467)">
    <g
       style="display:inline"
       transform="matrix(0.99931003,0,0,-0.99929399,-1499.5527,549.3113)"
       id="g4872">
      <path
         style="fill:#000000;stroke:#000000;stroke-width:0;stroke-linecap:butt;stroke-linejoin:miter;stroke-miterlimit:4;stroke-opacity:1;stroke-dasharray:none"
         d="m 170.64061,426.42817 292.00001,0 c 0,0 -37.99611,29.97758 -37.99611,133.4939 0,98.52014 37.99611,133.5061 37.99611,133.5061 0,0 -48,-16.96406 -48,-133.5061 0,-109.0069 42.00389,-131.49387 42.00389,-131.49387 0,0 -7.35937,6.00041 -139.91795,5.9962 -146.08595,-0.005 -146.08595,-7.99623 -146.08595,-7.99623 z"
         id="path4874"
         inkscape:connector-curvature="0"
         sodipodi:nodetypes="ccscscsc" />
      <path
         sodipodi:type="arc"
         style="fill:#000000;fill-opacity:1;fill-rule:evenodd;stroke:none"
         id="path4876"
         sodipodi:cx="149.00233"
         sodipodi:cy="142.00241"
         sodipodi:rx="6.0023398"
         sodipodi:ry="5.9980502"
         d="m 155.00467,142.00241 c 0,3.31263 -2.68733,5.99805 -6.00234,5.99805 -3.315,0 -6.00234,-2.68542 -6.00234,-5.99805 0,-3.31263 2.68734,-5.99805 6.00234,-5.99805 3.31501,0 6.00234,2.68542 6.00234,5.99805 z"
         transform="matrix(0.99961018,0,0,1.0003251,165.69636,421.38004)" />
    </g>
    <g
       style="display:inline"
       id="g4902"
       transform="matrix(-0.99931001,0,0,0.99928,-866.70836,-569.74481)">
      <path
         sodipodi:nodetypes="ccscscsc"
         inkscape:connector-curvature="0"
         id="path4904"
         d="m 170.64061,426.42817 292.00001,0 c 0,0 -37.99611,29.97758 -37.99611,133.4939 0,98.52014 37.99611,133.5061 37.99611,133.5061 0,0 -48,-16.96406 -48,-133.5061 0,-109.0069 42.00389,-131.49387 42.00389,-131.49387 0,0 -7.35937,6.00041 -139.91795,5.9962 -146.08595,-0.005 -146.08595,-7.99623 -146.08595,-7.99623 z"
         style="fill:#000000;stroke:#000000;stroke-width:0;stroke-linecap:butt;stroke-linejoin:miter;stroke-miterlimit:4;stroke-opacity:1;stroke-dasharray:none" />
      <path
         transform="matrix(0.99961018,0,0,1.0003251,165.69636,421.38004)"
         d="m 155.00467,142.00241 c 0,3.31263 -2.68733,5.99805 -6.00234,5.99805 -3.315,0 -6.00234,-2.68542 -6.00234,-5.99805 0,-3.31263 2.68734,-5.99805 6.00234,-5.99805 3.31501,0 6.00234,2.68542 6.00234,5.99805 z"
         sodipodi:ry="5.9980502"
         sodipodi:rx="6.0023398"
         sodipodi:cy="142.00241"
         sodipodi:cx="149.00233"
         id="path4906"
         style="fill:#000000;fill-opacity:1;fill-rule:evenodd;stroke:none"
         sodipodi:type="arc" />
    </g>
    <g
       style="display:inline"
       transform="matrix(-0.99931003,0,0,0.99929399,-866.70836,-569.7566)"
       id="g4908">
      <path
         style="fill:#000000;stroke:#000000;stroke-width:0;stroke-linecap:butt;stroke-linejoin:miter;stroke-miterlimit:4;stroke-opacity:1;stroke-dasharray:none"
         d="m 170.64061,426.42817 292.00001,0 c 0,0 -37.99611,29.97758 -37.99611,133.4939 0,98.52014 37.99611,133.5061 37.99611,133.5061 0,0 -48,-16.96406 -48,-133.5061 0,-109.0069 42.00389,-131.49387 42.00389,-131.49387 0,0 -7.35937,6.00041 -139.91795,5.9962 -146.08595,-0.005 -146.08595,-7.99623 -146.08595,-7.99623 z"
         id="path4910"
         inkscape:connector-curvature="0"
         sodipodi:nodetypes="ccscscsc" />
      <path
         sodipodi:type="arc"
         style="fill:#000000;fill-opacity:1;fill-rule:evenodd;stroke:none"
         id="path4912"
         sodipodi:cx="149.00233"
         sodipodi:cy="142.00241"
         sodipodi:rx="6.0023398"
         sodipodi:ry="5.9980502"
         d="m 155.00467,142.00241 c 0,3.31263 -2.68733,5.99805 -6.00234,5.99805 -3.315,0 -6.00234,-2.68542 -6.00234,-5.99805 0,-3.31263 2.68734,-5.99805 6.00234,-5.99805 3.31501,0 6.00234,2.68542 6.00234,5.99805 z"
         transform="matrix(0.99961018,0,0,1.0003251,165.69636,421.38004)" />
    </g>
    <g
       style="display:inline"
       id="g3822"
       transform="matrix(0.99931001,0,0,0.99928,-1499.5527,-569.74269)">
      <path
         sodipodi:nodetypes="ccscscsc"
         inkscape:connector-curvature="0"
         id="path3044"
         d="m 170.64061,426.42817 292.00001,0 c 0,0 -37.99611,29.97758 -37.99611,133.4939 0,98.52014 37.99611,133.5061 37.99611,133.5061 0,0 -48,-16.96406 -48,-133.5061 0,-109.0069 42.00389,-131.49387 42.00389,-131.49387 0,0 -7.35937,6.00041 -139.91795,5.9962 -146.08595,-0.005 -146.08595,-7.99623 -146.08595,-7.99623 z"
         style="fill:#000000;stroke:#000000;stroke-width:0;stroke-linecap:butt;stroke-linejoin:miter;stroke-miterlimit:4;stroke-opacity:1;stroke-dasharray:none" />
      <path
         transform="matrix(0.99961018,0,0,1.0003251,165.69636,421.38004)"
         d="m 155.00467,142.00241 c 0,3.31263 -2.68733,5.99805 -6.00234,5.99805 -3.315,0 -6.00234,-2.68542 -6.00234,-5.99805 0,-3.31263 2.68734,-5.99805 6.00234,-5.99805 3.31501,0 6.00234,2.68542 6.00234,5.99805 z"
         sodipodi:ry="5.9980502"
         sodipodi:rx="6.0023398"
         sodipodi:cy="142.00241"
         sodipodi:cx="149.00233"
         id="path3052"
         style="fill:#000000;fill-opacity:1;fill-rule:evenodd;stroke:none"
         sodipodi:type="arc" />
    </g>
    <g
       style="display:inline"
       transform="matrix(0.99931003,0,0,0.99929399,-1499.5527,-569.75448)"
       id="g4800">
      <path
         style="fill:#000000;stroke:#000000;stroke-width:0;stroke-linecap:butt;stroke-linejoin:miter;stroke-miterlimit:4;stroke-opacity:1;stroke-dasharray:none"
         d="m 170.64061,426.42817 292.00001,0 c 0,0 -37.99611,29.97758 -37.99611,133.4939 0,98.52014 37.99611,133.5061 37.99611,133.5061 0,0 -48,-16.96406 -48,-133.5061 0,-109.0069 42.00389,-131.49387 42.00389,-131.49387 0,0 -7.35937,6.00041 -139.91795,5.9962 -146.08595,-0.005 -146.08595,-7.99623 -146.08595,-7.99623 z"
         id="path4802"
         inkscape:connector-curvature="0"
         sodipodi:nodetypes="ccscscsc" />
      <path
         sodipodi:type="arc"
         style="fill:#000000;fill-opacity:1;fill-rule:evenodd;stroke:none"
         id="path4804"
         sodipodi:cx="149.00233"
         sodipodi:cy="142.00241"
         sodipodi:rx="6.0023398"
         sodipodi:ry="5.9980502"
         d="m 155.00467,142.00241 c 0,3.31263 -2.68733,5.99805 -6.00234,5.99805 -3.315,0 -6.00234,-2.68542 -6.00234,-5.99805 0,-3.31263 2.68734,-5.99805 6.00234,-5.99805 3.31501,0 6.00234,2.68542 6.00234,5.99805 z"
         transform="matrix(0.99961018,0,0,1.0003251,165.69636,421.38004)" />
    </g>
    <g
       style="display:inline"
       transform="matrix(0.99931001,0,0,-0.99928,-1499.5527,549.3016)"
       id="g4842">
      <path
         style="fill:#000000;stroke:#000000;stroke-width:0;stroke-linecap:butt;stroke-linejoin:miter;stroke-miterlimit:4;stroke-opacity:1;stroke-dasharray:none"
         d="m 170.64061,426.42817 292.00001,0 c 0,0 -37.99611,29.97758 -37.99611,133.4939 0,98.52014 37.99611,133.5061 37.99611,133.5061 0,0 -48,-16.96406 -48,-133.5061 0,-109.0069 42.00389,-131.49387 42.00389,-131.49387 0,0 -7.35937,6.00041 -139.91795,5.9962 -146.08595,-0.005 -146.08595,-7.99623 -146.08595,-7.99623 z"
         id="path4844"
         inkscape:connector-curvature="0"
         sodipodi:nodetypes="ccscscsc" />
      <path
         sodipodi:type="arc"
         style="fill:#000000;fill-opacity:1;fill-rule:evenodd;stroke:none"
         id="path4846"
         sodipodi:cx="149.00233"
         sodipodi:cy="142.00241"
         sodipodi:rx="6.0023398"
         sodipodi:ry="5.9980502"
         d="m 155.00467,142.00241 c 0,3.31263 -2.68733,5.99805 -6.00234,5.99805 -3.315,0 -6.00234,-2.68542 -6.00234,-5.99805 0,-3.31263 2.68734,-5.99805 6.00234,-5.99805 3.31501,0 6.00234,2.68542 6.00234,5.99805 z"
         transform="matrix(0.99961018,0,0,1.0003251,165.69636,421.38004)" />
    </g>
    <g
       style="display:inline"
       id="g4848"
       transform="matrix(0.99931003,0,0,-0.99929399,-1499.5527,549.31339)">
      <path
         sodipodi:nodetypes="ccscscsc"
         inkscape:connector-curvature="0"
         id="path4850"
         d="m 170.64061,426.42817 292.00001,0 c 0,0 -37.99611,29.97758 -37.99611,133.4939 0,98.52014 37.99611,133.5061 37.99611,133.5061 0,0 -48,-16.96406 -48,-133.5061 0,-109.0069 42.00389,-131.49387 42.00389,-131.49387 0,0 -7.35937,6.00041 -139.91795,5.9962 -146.08595,-0.005 -146.08595,-7.99623 -146.08595,-7.99623 z"
         style="fill:#000000;stroke:#000000;stroke-width:0;stroke-linecap:butt;stroke-linejoin:miter;stroke-miterlimit:4;stroke-opacity:1;stroke-dasharray:none" />
      <path
         transform="matrix(0.99961018,0,0,1.0003251,165.69636,421.38004)"
         d="m 155.00467,142.00241 c 0,3.31263 -2.68733,5.99805 -6.00234,5.99805 -3.315,0 -6.00234,-2.68542 -6.00234,-5.99805 0,-3.31263 2.68734,-5.99805 6.00234,-5.99805 3.31501,0 6.00234,2.68542 6.00234,5.99805 z"
         sodipodi:ry="5.9980502"
         sodipodi:rx="6.0023398"
         sodipodi:cy="142.00241"
         sodipodi:cx="149.00233"
         id="path4852"
         style="fill:#000000;fill-opacity:1;fill-rule:evenodd;stroke:none"
         sodipodi:type="arc" />
    </g>
    <g
       style="display:inline"
       transform="matrix(0.99931001,0,0,0.99928,-1499.5527,-569.74481)"
       id="g4854">
      <path
         style="fill:#000000;stroke:#000000;stroke-width:0;stroke-linecap:butt;stroke-linejoin:miter;stroke-miterlimit:4;stroke-opacity:1;stroke-dasharray:none"
         d="m 170.64061,426.42817 292.00001,0 c 0,0 -37.99611,29.97758 -37.99611,133.4939 0,98.52014 37.99611,133.5061 37.99611,133.5061 0,0 -48,-16.96406 -48,-133.5061 0,-109.0069 42.00389,-131.49387 42.00389,-131.49387 0,0 -7.35937,6.00041 -139.91795,5.9962 -146.08595,-0.005 -146.08595,-7.99623 -146.08595,-7.99623 z"
         id="path4856"
         inkscape:connector-curvature="0"
         sodipodi:nodetypes="ccscscsc" />
      <path
         sodipodi:type="arc"
         style="fill:#000000;fill-opacity:1;fill-rule:evenodd;stroke:none"
         id="path4858"
         sodipodi:cx="149.00233"
         sodipodi:cy="142.00241"
         sodipodi:rx="6.0023398"
         sodipodi:ry="5.9980502"
         d="m 155.00467,142.00241 c 0,3.31263 -2.68733,5.99805 -6.00234,5.99805 -3.315,0 -6.00234,-2.68542 -6.00234,-5.99805 0,-3.31263 2.68734,-5.99805 6.00234,-5.99805 3.31501,0 6.00234,2.68542 6.00234,5.99805 z"
         transform="matrix(0.99961018,0,0,1.0003251,165.69636,421.38004)" />
    </g>
    <g
       style="display:inline"
       id="g4860"
       transform="matrix(0.99931003,0,0,0.99929399,-1499.5527,-569.7566)">
      <path
         sodipodi:nodetypes="ccscscsc"
         inkscape:connector-curvature="0"
         id="path4862"
         d="m 170.64061,426.42817 292.00001,0 c 0,0 -37.99611,29.97758 -37.99611,133.4939 0,98.52014 37.99611,133.5061 37.99611,133.5061 0,0 -48,-16.96406 -48,-133.5061 0,-109.0069 42.00389,-131.49387 42.00389,-131.49387 0,0 -7.35937,6.00041 -139.91795,5.9962 -146.08595,-0.005 -146.08595,-7.99623 -146.08595,-7.99623 z"
         style="fill:#000000;stroke:#000000;stroke-width:0;stroke-linecap:butt;stroke-linejoin:miter;stroke-miterlimit:4;stroke-opacity:1;stroke-dasharray:none" />
      <path
         transform="matrix(0.99961018,0,0,1.0003251,165.69636,421.38004)"
         d="m 155.00467,142.00241 c 0,3.31263 -2.68733,5.99805 -6.00234,5.99805 -3.315,0 -6.00234,-2.68542 -6.00234,-5.99805 0,-3.31263 2.68734,-5.99805 6.00234,-5.99805 3.31501,0 6.00234,2.68542 6.00234,5.99805 z"
         sodipodi:ry="5.9980502"
         sodipodi:rx="6.0023398"
         sodipodi:cy="142.00241"
         sodipodi:cx="149.00233"
         id="path4864"
         style="fill:#000000;fill-opacity:1;fill-rule:evenodd;stroke:none"
         sodipodi:type="arc" />
    </g>
    <g
       style="display:inline"
       id="g4866"
       transform="matrix(0.99931001,0,0,-0.99928,-1499.5527,549.2995)">
      <path
         sodipodi:nodetypes="ccscscsc"
         inkscape:connector-curvature="0"
         id="path4868"
         d="m 170.64061,426.42817 292.00001,0 c 0,0 -37.99611,29.97758 -37.99611,133.4939 0,98.52014 37.99611,133.5061 37.99611,133.5061 0,0 -48,-16.96406 -48,-133.5061 0,-109.0069 42.00389,-131.49387 42.00389,-131.49387 0,0 -7.35937,6.00041 -139.91795,5.9962 -146.08595,-0.005 -146.08595,-7.99623 -146.08595,-7.99623 z"
         style="fill:#000000;stroke:#000000;stroke-width:0;stroke-linecap:butt;stroke-linejoin:miter;stroke-miterlimit:4;stroke-opacity:1;stroke-dasharray:none" />
      <path
         transform="matrix(0.99961018,0,0,1.0003251,165.69636,421.38004)"
         d="m 155.00467,142.00241 c 0,3.31263 -2.68733,5.99805 -6.00234,5.99805 -3.315,0 -6.00234,-2.68542 -6.00234,-5.99805 0,-3.31263 2.68734,-5.99805 6.00234,-5.99805 3.31501,0 6.00234,2.68542 6.00234,5.99805 z"
         sodipodi:ry="5.9980502"
         sodipodi:rx="6.0023398"
         sodipodi:cy="142.00241"
         sodipodi:cx="149.00233"
         id="path4870"
         style="fill:#000000;fill-opacity:1;fill-rule:evenodd;stroke:none"
         sodipodi:type="arc" />
    </g>
    <g
       style="display:inline"
       transform="matrix(-0.99931001,0,0,0.99928,-866.70836,-569.74269)"
       id="g4878">
      <path
         style="fill:#000000;stroke:#000000;stroke-width:0;stroke-linecap:butt;stroke-linejoin:miter;stroke-miterlimit:4;stroke-opacity:1;stroke-dasharray:none"
         d="m 170.64061,426.42817 292.00001,0 c 0,0 -37.99611,29.97758 -37.99611,133.4939 0,98.52014 37.99611,133.5061 37.99611,133.5061 0,0 -48,-16.96406 -48,-133.5061 0,-109.0069 42.00389,-131.49387 42.00389,-131.49387 0,0 -7.35937,6.00041 -139.91795,5.9962 -146.08595,-0.005 -146.08595,-7.99623 -146.08595,-7.99623 z"
         id="path4880"
         inkscape:connector-curvature="0"
         sodipodi:nodetypes="ccscscsc" />
      <path
         sodipodi:type="arc"
         style="fill:#000000;fill-opacity:1;fill-rule:evenodd;stroke:none"
         id="path4882"
         sodipodi:cx="149.00233"
         sodipodi:cy="142.00241"
         sodipodi:rx="6.0023398"
         sodipodi:ry="5.9980502"
         d="m 155.00467,142.00241 c 0,3.31263 -2.68733,5.99805 -6.00234,5.99805 -3.315,0 -6.00234,-2.68542 -6.00234,-5.99805 0,-3.31263 2.68734,-5.99805 6.00234,-5.99805 3.31501,0 6.00234,2.68542 6.00234,5.99805 z"
         transform="matrix(0.99961018,0,0,1.0003251,165.69636,421.38004)" />
    </g>
    <g
       style="display:inline"
       id="g4884"
       transform="matrix(-0.99931003,0,0,0.99929399,-866.70836,-569.75448)">
      <path
         sodipodi:nodetypes="ccscscsc"
         inkscape:connector-curvature="0"
         id="path4886"
         d="m 170.64061,426.42817 292.00001,0 c 0,0 -37.99611,29.97758 -37.99611,133.4939 0,98.52014 37.99611,133.5061 37.99611,133.5061 0,0 -48,-16.96406 -48,-133.5061 0,-109.0069 42.00389,-131.49387 42.00389,-131.49387 0,0 -7.35937,6.00041 -139.91795,5.9962 -146.08595,-0.005 -146.08595,-7.99623 -146.08595,-7.99623 z"
         style="fill:#000000;stroke:#000000;stroke-width:0;stroke-linecap:butt;stroke-linejoin:miter;stroke-miterlimit:4;stroke-opacity:1;stroke-dasharray:none" />
      <path
         transform="matrix(0.99961018,0,0,1.0003251,165.69636,421.38004)"
         d="m 155.00467,142.00241 c 0,3.31263 -2.68733,5.99805 -6.00234,5.99805 -3.315,0 -6.00234,-2.68542 -6.00234,-5.99805 0,-3.31263 2.68734,-5.99805 6.00234,-5.99805 3.31501,0 6.00234,2.68542 6.00234,5.99805 z"
         sodipodi:ry="5.9980502"
         sodipodi:rx="6.0023398"
         sodipodi:cy="142.00241"
         sodipodi:cx="149.00233"
         id="path4888"
         style="fill:#000000;fill-opacity:1;fill-rule:evenodd;stroke:none"
         sodipodi:type="arc" />
    </g>
    <g
       style="display:inline"
       id="g4890"
       transform="matrix(-0.99931001,0,0,-0.99928,-866.70836,549.3016)">
      <path
         sodipodi:nodetypes="ccscscsc"
         inkscape:connector-curvature="0"
         id="path4892"
         d="m 170.64061,426.42817 292.00001,0 c 0,0 -37.99611,29.97758 -37.99611,133.4939 0,98.52014 37.99611,133.5061 37.99611,133.5061 0,0 -48,-16.96406 -48,-133.5061 0,-109.0069 42.00389,-131.49387 42.00389,-131.49387 0,0 -7.35937,6.00041 -139.91795,5.9962 -146.08595,-0.005 -146.08595,-7.99623 -146.08595,-7.99623 z"
         style="fill:#000000;stroke:#000000;stroke-width:0;stroke-linecap:butt;stroke-linejoin:miter;stroke-miterlimit:4;stroke-opacity:1;stroke-dasharray:none" />
      <path
         transform="matrix(0.99961018,0,0,1.0003251,165.69636,421.38004)"
         d="m 155.00467,142.00241 c 0,3.31263 -2.68733,5.99805 -6.00234,5.99805 -3.315,0 -6.00234,-2.68542 -6.00234,-5.99805 0,-3.31263 2.68734,-5.99805 6.00234,-5.99805 3.31501,0 6.00234,2.68542 6.00234,5.99805 z"
         sodipodi:ry="5.9980502"
         sodipodi:rx="6.0023398"
         sodipodi:cy="142.00241"
         sodipodi:cx="149.00233"
         id="path4894"
         style="fill:#000000;fill-opacity:1;fill-rule:evenodd;stroke:none"
         sodipodi:type="arc" />
    </g>
    <g
       style="display:inline"
       transform="matrix(-0.99931003,0,0,-0.99929399,-866.70836,549.31339)"
       id="g4896">
      <path
         style="fill:#000000;stroke:#000000;stroke-width:0;stroke-linecap:butt;stroke-linejoin:miter;stroke-miterlimit:4;stroke-opacity:1;stroke-dasharray:none"
         d="m 170.64061,426.42817 292.00001,0 c 0,0 -37.99611,29.97758 -37.99611,133.4939 0,98.52014 37.99611,133.5061 37.99611,133.5061 0,0 -48,-16.96406 -48,-133.5061 0,-109.0069 42.00389,-131.49387 42.00389,-131.49387 0,0 -7.35937,6.00041 -139.91795,5.9962 -146.08595,-0.005 -146.08595,-7.99623 -146.08595,-7.99623 z"
         id="path4898"
         inkscape:connector-curvature="0"
         sodipodi:nodetypes="ccscscsc" />
      <path
         sodipodi:type="arc"
         style="fill:#000000;fill-opacity:1;fill-rule:evenodd;stroke:none"
         id="path4900"
         sodipodi:cx="149.00233"
         sodipodi:cy="142.00241"
         sodipodi:rx="6.0023398"
         sodipodi:ry="5.9980502"
         d="m 155.00467,142.00241 c 0,3.31263 -2.68733,5.99805 -6.00234,5.99805 -3.315,0 -6.00234,-2.68542 -6.00234,-5.99805 0,-3.31263 2.68734,-5.99805 6.00234,-5.99805 3.31501,0 6.00234,2.68542 6.00234,5.99805 z"
         transform="matrix(0.99961018,0,0,1.0003251,165.69636,421.38004)" />
    </g>
    <g
       style="display:inline"
       transform="matrix(-0.99931001,0,0,-0.99928,-866.70836,549.2995)"
       id="g4914">
      <path
         style="fill:#000000;stroke:#000000;stroke-width:0;stroke-linecap:butt;stroke-linejoin:miter;stroke-miterlimit:4;stroke-opacity:1;stroke-dasharray:none"
         d="m 170.64061,426.42817 292.00001,0 c 0,0 -37.99611,29.97758 -37.99611,133.4939 0,98.52014 37.99611,133.5061 37.99611,133.5061 0,0 -48,-16.96406 -48,-133.5061 0,-109.0069 42.00389,-131.49387 42.00389,-131.49387 0,0 -7.35937,6.00041 -139.91795,5.9962 -146.08595,-0.005 -146.08595,-7.99623 -146.08595,-7.99623 z"
         id="path4916"
         inkscape:connector-curvature="0"
         sodipodi:nodetypes="ccscscsc" />
      <path
         sodipodi:type="arc"
         style="fill:#000000;fill-opacity:1;fill-rule:evenodd;stroke:none"
         id="path4918"
         sodipodi:cx="149.00233"
         sodipodi:cy="142.00241"
         sodipodi:rx="6.0023398"
         sodipodi:ry="5.9980502"
         d="m 155.00467,142.00241 c 0,3.31263 -2.68733,5.99805 -6.00234,5.99805 -3.315,0 -6.00234,-2.68542 -6.00234,-5.99805 0,-3.31263 2.68734,-5.99805 6.00234,-5.99805 3.31501,0 6.00234,2.68542 6.00234,5.99805 z"
         transform="matrix(0.99961018,0,0,1.0003251,165.69636,421.38004)" />
    </g>
    <g
       style="display:inline"
       id="g4920"
       transform="matrix(-0.99931003,0,0,-0.99929399,-866.70836,549.3113)">
      <path
         sodipodi:nodetypes="ccscscsc"
         inkscape:connector-curvature="0"
         id="path4922"
         d="m 170.64061,426.42817 292.00001,0 c 0,0 -37.99611,29.97758 -37.99611,133.4939 0,98.52014 37.99611,133.5061 37.99611,133.5061 0,0 -48,-16.96406 -48,-133.5061 0,-109.0069 42.00389,-131.49387 42.00389,-131.49387 0,0 -7.35937,6.00041 -139.91795,5.9962 -146.08595,-0.005 -146.08595,-7.99623 -146.08595,-7.99623 z"
         style="fill:#000000;stroke:#000000;stroke-width:0;stroke-linecap:butt;stroke-linejoin:miter;stroke-miterlimit:4;stroke-opacity:1;stroke-dasharray:none" />
      <path
         transform="matrix(0.99961018,0,0,1.0003251,165.69636,421.38004)"
         d="m 155.00467,142.00241 c 0,3.31263 -2.68733,5.99805 -6.00234,5.99805 -3.315,0 -6.00234,-2.68542 -6.00234,-5.99805 0,-3.31263 2.68734,-5.99805 6.00234,-5.99805 3.31501,0 6.00234,2.68542 6.00234,5.99805 z"
         sodipodi:ry="5.9980502"
         sodipodi:rx="6.0023398"
         sodipodi:cy="142.00241"
         sodipodi:cx="149.00233"
         id="path4924"
         style="fill:#000000;fill-opacity:1;fill-rule:evenodd;stroke:none"
         sodipodi:type="arc" />
    </g>
    <g
       style="display:inline"
       transform="matrix(0,0.99931001,-0.99928,0,-623.60941,-326.64374)"
       id="g4926">
      <path
         style="fill:#000000;stroke:#000000;stroke-width:0;stroke-linecap:butt;stroke-linejoin:miter;stroke-miterlimit:4;stroke-opacity:1;stroke-dasharray:none"
         d="m 170.64061,426.42817 292.00001,0 c 0,0 -37.99611,29.97758 -37.99611,133.4939 0,98.52014 37.99611,133.5061 37.99611,133.5061 0,0 -48,-16.96406 -48,-133.5061 0,-109.0069 42.00389,-131.49387 42.00389,-131.49387 0,0 -7.35937,6.00041 -139.91795,5.9962 -146.08595,-0.005 -146.08595,-7.99623 -146.08595,-7.99623 z"
         id="path4928"
         inkscape:connector-curvature="0"
         sodipodi:nodetypes="ccscscsc" />
      <path
         sodipodi:type="arc"
         style="fill:#000000;fill-opacity:1;fill-rule:evenodd;stroke:none"
         id="path4930"
         sodipodi:cx="149.00233"
         sodipodi:cy="142.00241"
         sodipodi:rx="6.0023398"
         sodipodi:ry="5.9980502"
         d="m 155.00467,142.00241 c 0,3.31263 -2.68733,5.99805 -6.00234,5.99805 -3.315,0 -6.00234,-2.68542 -6.00234,-5.99805 0,-3.31263 2.68734,-5.99805 6.00234,-5.99805 3.31501,0 6.00234,2.68542 6.00234,5.99805 z"
         transform="matrix(0.99961018,0,0,1.0003251,165.69636,421.38004)" />
    </g>
    <g
       style="display:inline"
       id="g4932"
       transform="matrix(0,0.99931003,-0.99929399,0,-623.59762,-326.64374)">
      <path
         sodipodi:nodetypes="ccscscsc"
         inkscape:connector-curvature="0"
         id="path4934"
         d="m 170.64061,426.42817 292.00001,0 c 0,0 -37.99611,29.97758 -37.99611,133.4939 0,98.52014 37.99611,133.5061 37.99611,133.5061 0,0 -48,-16.96406 -48,-133.5061 0,-109.0069 42.00389,-131.49387 42.00389,-131.49387 0,0 -7.35937,6.00041 -139.91795,5.9962 -146.08595,-0.005 -146.08595,-7.99623 -146.08595,-7.99623 z"
         style="fill:#000000;stroke:#000000;stroke-width:0;stroke-linecap:butt;stroke-linejoin:miter;stroke-miterlimit:4;stroke-opacity:1;stroke-dasharray:none" />
      <path
         transform="matrix(0.99961018,0,0,1.0003251,165.69636,421.38004)"
         d="m 155.00467,142.00241 c 0,3.31263 -2.68733,5.99805 -6.00234,5.99805 -3.315,0 -6.00234,-2.68542 -6.00234,-5.99805 0,-3.31263 2.68734,-5.99805 6.00234,-5.99805 3.31501,0 6.00234,2.68542 6.00234,5.99805 z"
         sodipodi:ry="5.9980502"
         sodipodi:rx="6.0023398"
         sodipodi:cy="142.00241"
         sodipodi:cx="149.00233"
         id="path4936"
         style="fill:#000000;fill-opacity:1;fill-rule:evenodd;stroke:none"
         sodipodi:type="arc" />
    </g>
    <g
       style="display:inline"
       id="g4938"
       transform="matrix(0,0.99931001,0.99928,0,-1742.6537,-326.64374)">
      <path
         sodipodi:nodetypes="ccscscsc"
         inkscape:connector-curvature="0"
         id="path4940"
         d="m 170.64061,426.42817 292.00001,0 c 0,0 -37.99611,29.97758 -37.99611,133.4939 0,98.52014 37.99611,133.5061 37.99611,133.5061 0,0 -48,-16.96406 -48,-133.5061 0,-109.0069 42.00389,-131.49387 42.00389,-131.49387 0,0 -7.35937,6.00041 -139.91795,5.9962 -146.08595,-0.005 -146.08595,-7.99623 -146.08595,-7.99623 z"
         style="fill:#000000;stroke:#000000;stroke-width:0;stroke-linecap:butt;stroke-linejoin:miter;stroke-miterlimit:4;stroke-opacity:1;stroke-dasharray:none" />
      <path
         transform="matrix(0.99961018,0,0,1.0003251,165.69636,421.38004)"
         d="m 155.00467,142.00241 c 0,3.31263 -2.68733,5.99805 -6.00234,5.99805 -3.315,0 -6.00234,-2.68542 -6.00234,-5.99805 0,-3.31263 2.68734,-5.99805 6.00234,-5.99805 3.31501,0 6.00234,2.68542 6.00234,5.99805 z"
         sodipodi:ry="5.9980502"
         sodipodi:rx="6.0023398"
         sodipodi:cy="142.00241"
         sodipodi:cx="149.00233"
         id="path4942"
         style="fill:#000000;fill-opacity:1;fill-rule:evenodd;stroke:none"
         sodipodi:type="arc" />
    </g>
    <g
       style="display:inline"
       transform="matrix(0,0.99931003,0.99929399,0,-1742.6655,-326.64374)"
       id="g4944">
      <path
         style="fill:#000000;stroke:#000000;stroke-width:0;stroke-linecap:butt;stroke-linejoin:miter;stroke-miterlimit:4;stroke-opacity:1;stroke-dasharray:none"
         d="m 170.64061,426.42817 292.00001,0 c 0,0 -37.99611,29.97758 -37.99611,133.4939 0,98.52014 37.99611,133.5061 37.99611,133.5061 0,0 -48,-16.96406 -48,-133.5061 0,-109.0069 42.00389,-131.49387 42.00389,-131.49387 0,0 -7.35937,6.00041 -139.91795,5.9962 -146.08595,-0.005 -146.08595,-7.99623 -146.08595,-7.99623 z"
         id="path4946"
         inkscape:connector-curvature="0"
         sodipodi:nodetypes="ccscscsc" />
      <path
         sodipodi:type="arc"
         style="fill:#000000;fill-opacity:1;fill-rule:evenodd;stroke:none"
         id="path4948"
         sodipodi:cx="149.00233"
         sodipodi:cy="142.00241"
         sodipodi:rx="6.0023398"
         sodipodi:ry="5.9980502"
         d="m 155.00467,142.00241 c 0,3.31263 -2.68733,5.99805 -6.00234,5.99805 -3.315,0 -6.00234,-2.68542 -6.00234,-5.99805 0,-3.31263 2.68734,-5.99805 6.00234,-5.99805 3.31501,0 6.00234,2.68542 6.00234,5.99805 z"
         transform="matrix(0.99961018,0,0,1.0003251,165.69636,421.38004)" />
    </g>
    <g
       style="display:inline"
       id="g4950"
       transform="matrix(0,0.99931001,-0.99928,0,-623.60729,-326.64374)">
      <path
         sodipodi:nodetypes="ccscscsc"
         inkscape:connector-curvature="0"
         id="path4952"
         d="m 170.64061,426.42817 292.00001,0 c 0,0 -37.99611,29.97758 -37.99611,133.4939 0,98.52014 37.99611,133.5061 37.99611,133.5061 0,0 -48,-16.96406 -48,-133.5061 0,-109.0069 42.00389,-131.49387 42.00389,-131.49387 0,0 -7.35937,6.00041 -139.91795,5.9962 -146.08595,-0.005 -146.08595,-7.99623 -146.08595,-7.99623 z"
         style="fill:#000000;stroke:#000000;stroke-width:0;stroke-linecap:butt;stroke-linejoin:miter;stroke-miterlimit:4;stroke-opacity:1;stroke-dasharray:none" />
      <path
         transform="matrix(0.99961018,0,0,1.0003251,165.69636,421.38004)"
         d="m 155.00467,142.00241 c 0,3.31263 -2.68733,5.99805 -6.00234,5.99805 -3.315,0 -6.00234,-2.68542 -6.00234,-5.99805 0,-3.31263 2.68734,-5.99805 6.00234,-5.99805 3.31501,0 6.00234,2.68542 6.00234,5.99805 z"
         sodipodi:ry="5.9980502"
         sodipodi:rx="6.0023398"
         sodipodi:cy="142.00241"
         sodipodi:cx="149.00233"
         id="path4954"
         style="fill:#000000;fill-opacity:1;fill-rule:evenodd;stroke:none"
         sodipodi:type="arc" />
    </g>
    <g
       style="display:inline"
       transform="matrix(0,0.99931003,-0.99929399,0,-623.5955,-326.64374)"
       id="g4956">
      <path
         style="fill:#000000;stroke:#000000;stroke-width:0;stroke-linecap:butt;stroke-linejoin:miter;stroke-miterlimit:4;stroke-opacity:1;stroke-dasharray:none"
         d="m 170.64061,426.42817 292.00001,0 c 0,0 -37.99611,29.97758 -37.99611,133.4939 0,98.52014 37.99611,133.5061 37.99611,133.5061 0,0 -48,-16.96406 -48,-133.5061 0,-109.0069 42.00389,-131.49387 42.00389,-131.49387 0,0 -7.35937,6.00041 -139.91795,5.9962 -146.08595,-0.005 -146.08595,-7.99623 -146.08595,-7.99623 z"
         id="path4958"
         inkscape:connector-curvature="0"
         sodipodi:nodetypes="ccscscsc" />
      <path
         sodipodi:type="arc"
         style="fill:#000000;fill-opacity:1;fill-rule:evenodd;stroke:none"
         id="path4960"
         sodipodi:cx="149.00233"
         sodipodi:cy="142.00241"
         sodipodi:rx="6.0023398"
         sodipodi:ry="5.9980502"
         d="m 155.00467,142.00241 c 0,3.31263 -2.68733,5.99805 -6.00234,5.99805 -3.315,0 -6.00234,-2.68542 -6.00234,-5.99805 0,-3.31263 2.68734,-5.99805 6.00234,-5.99805 3.31501,0 6.00234,2.68542 6.00234,5.99805 z"
         transform="matrix(0.99961018,0,0,1.0003251,165.69636,421.38004)" />
    </g>
    <g
       style="display:inline"
       transform="matrix(0,0.99931001,0.99928,0,-1742.6516,-326.64374)"
       id="g4962">
      <path
         style="fill:#000000;stroke:#000000;stroke-width:0;stroke-linecap:butt;stroke-linejoin:miter;stroke-miterlimit:4;stroke-opacity:1;stroke-dasharray:none"
         d="m 170.64061,426.42817 292.00001,0 c 0,0 -37.99611,29.97758 -37.99611,133.4939 0,98.52014 37.99611,133.5061 37.99611,133.5061 0,0 -48,-16.96406 -48,-133.5061 0,-109.0069 42.00389,-131.49387 42.00389,-131.49387 0,0 -7.35937,6.00041 -139.91795,5.9962 -146.08595,-0.005 -146.08595,-7.99623 -146.08595,-7.99623 z"
         id="path4964"
         inkscape:connector-curvature="0"
         sodipodi:nodetypes="ccscscsc" />
      <path
         sodipodi:type="arc"
         style="fill:#000000;fill-opacity:1;fill-rule:evenodd;stroke:none"
         id="path4966"
         sodipodi:cx="149.00233"
         sodipodi:cy="142.00241"
         sodipodi:rx="6.0023398"
         sodipodi:ry="5.9980502"
         d="m 155.00467,142.00241 c 0,3.31263 -2.68733,5.99805 -6.00234,5.99805 -3.315,0 -6.00234,-2.68542 -6.00234,-5.99805 0,-3.31263 2.68734,-5.99805 6.00234,-5.99805 3.31501,0 6.00234,2.68542 6.00234,5.99805 z"
         transform="matrix(0.99961018,0,0,1.0003251,165.69636,421.38004)" />
    </g>
    <g
       style="display:inline"
       id="g4968"
       transform="matrix(0,0.99931003,0.99929399,0,-1742.6634,-326.64374)">
      <path
         sodipodi:nodetypes="ccscscsc"
         inkscape:connector-curvature="0"
         id="path4970"
         d="m 170.64061,426.42817 292.00001,0 c 0,0 -37.99611,29.97758 -37.99611,133.4939 0,98.52014 37.99611,133.5061 37.99611,133.5061 0,0 -48,-16.96406 -48,-133.5061 0,-109.0069 42.00389,-131.49387 42.00389,-131.49387 0,0 -7.35937,6.00041 -139.91795,5.9962 -146.08595,-0.005 -146.08595,-7.99623 -146.08595,-7.99623 z"
         style="fill:#000000;stroke:#000000;stroke-width:0;stroke-linecap:butt;stroke-linejoin:miter;stroke-miterlimit:4;stroke-opacity:1;stroke-dasharray:none" />
      <path
         transform="matrix(0.99961018,0,0,1.0003251,165.69636,421.38004)"
         d="m 155.00467,142.00241 c 0,3.31263 -2.68733,5.99805 -6.00234,5.99805 -3.315,0 -6.00234,-2.68542 -6.00234,-5.99805 0,-3.31263 2.68734,-5.99805 6.00234,-5.99805 3.31501,0 6.00234,2.68542 6.00234,5.99805 z"
         sodipodi:ry="5.9980502"
         sodipodi:rx="6.0023398"
         sodipodi:cy="142.00241"
         sodipodi:cx="149.00233"
         id="path4972"
         style="fill:#000000;fill-opacity:1;fill-rule:evenodd;stroke:none"
         sodipodi:type="arc" />
    </g>
    <g
       style="display:inline"
       id="g4974"
       transform="matrix(0,-0.99931001,-0.99928,0,-623.60941,306.20054)">
      <path
         sodipodi:nodetypes="ccscscsc"
         inkscape:connector-curvature="0"
         id="path4976"
         d="m 170.64061,426.42817 292.00001,0 c 0,0 -37.99611,29.97758 -37.99611,133.4939 0,98.52014 37.99611,133.5061 37.99611,133.5061 0,0 -48,-16.96406 -48,-133.5061 0,-109.0069 42.00389,-131.49387 42.00389,-131.49387 0,0 -7.35937,6.00041 -139.91795,5.9962 -146.08595,-0.005 -146.08595,-7.99623 -146.08595,-7.99623 z"
         style="fill:#000000;stroke:#000000;stroke-width:0;stroke-linecap:butt;stroke-linejoin:miter;stroke-miterlimit:4;stroke-opacity:1;stroke-dasharray:none" />
      <path
         transform="matrix(0.99961018,0,0,1.0003251,165.69636,421.38004)"
         d="m 155.00467,142.00241 c 0,3.31263 -2.68733,5.99805 -6.00234,5.99805 -3.315,0 -6.00234,-2.68542 -6.00234,-5.99805 0,-3.31263 2.68734,-5.99805 6.00234,-5.99805 3.31501,0 6.00234,2.68542 6.00234,5.99805 z"
         sodipodi:ry="5.9980502"
         sodipodi:rx="6.0023398"
         sodipodi:cy="142.00241"
         sodipodi:cx="149.00233"
         id="path4978"
         style="fill:#000000;fill-opacity:1;fill-rule:evenodd;stroke:none"
         sodipodi:type="arc" />
    </g>
    <g
       style="display:inline"
       transform="matrix(0,-0.99931003,-0.99929399,0,-623.59762,306.20054)"
       id="g4980">
      <path
         style="fill:#000000;stroke:#000000;stroke-width:0;stroke-linecap:butt;stroke-linejoin:miter;stroke-miterlimit:4;stroke-opacity:1;stroke-dasharray:none"
         d="m 170.64061,426.42817 292.00001,0 c 0,0 -37.99611,29.97758 -37.99611,133.4939 0,98.52014 37.99611,133.5061 37.99611,133.5061 0,0 -48,-16.96406 -48,-133.5061 0,-109.0069 42.00389,-131.49387 42.00389,-131.49387 0,0 -7.35937,6.00041 -139.91795,5.9962 -146.08595,-0.005 -146.08595,-7.99623 -146.08595,-7.99623 z"
         id="path4982"
         inkscape:connector-curvature="0"
         sodipodi:nodetypes="ccscscsc" />
      <path
         sodipodi:type="arc"
         style="fill:#000000;fill-opacity:1;fill-rule:evenodd;stroke:none"
         id="path4984"
         sodipodi:cx="149.00233"
         sodipodi:cy="142.00241"
         sodipodi:rx="6.0023398"
         sodipodi:ry="5.9980502"
         d="m 155.00467,142.00241 c 0,3.31263 -2.68733,5.99805 -6.00234,5.99805 -3.315,0 -6.00234,-2.68542 -6.00234,-5.99805 0,-3.31263 2.68734,-5.99805 6.00234,-5.99805 3.31501,0 6.00234,2.68542 6.00234,5.99805 z"
         transform="matrix(0.99961018,0,0,1.0003251,165.69636,421.38004)" />
    </g>
    <g
       style="display:inline"
       transform="matrix(0,-0.99931001,0.99928,0,-1742.6537,306.20054)"
       id="g4986">
      <path
         style="fill:#000000;stroke:#000000;stroke-width:0;stroke-linecap:butt;stroke-linejoin:miter;stroke-miterlimit:4;stroke-opacity:1;stroke-dasharray:none"
         d="m 170.64061,426.42817 292.00001,0 c 0,0 -37.99611,29.97758 -37.99611,133.4939 0,98.52014 37.99611,133.5061 37.99611,133.5061 0,0 -48,-16.96406 -48,-133.5061 0,-109.0069 42.00389,-131.49387 42.00389,-131.49387 0,0 -7.35937,6.00041 -139.91795,5.9962 -146.08595,-0.005 -146.08595,-7.99623 -146.08595,-7.99623 z"
         id="path4988"
         inkscape:connector-curvature="0"
         sodipodi:nodetypes="ccscscsc" />
      <path
         sodipodi:type="arc"
         style="fill:#000000;fill-opacity:1;fill-rule:evenodd;stroke:none"
         id="path4990"
         sodipodi:cx="149.00233"
         sodipodi:cy="142.00241"
         sodipodi:rx="6.0023398"
         sodipodi:ry="5.9980502"
         d="m 155.00467,142.00241 c 0,3.31263 -2.68733,5.99805 -6.00234,5.99805 -3.315,0 -6.00234,-2.68542 -6.00234,-5.99805 0,-3.31263 2.68734,-5.99805 6.00234,-5.99805 3.31501,0 6.00234,2.68542 6.00234,5.99805 z"
         transform="matrix(0.99961018,0,0,1.0003251,165.69636,421.38004)" />
    </g>
    <g
       style="display:inline"
       id="g4992"
       transform="matrix(0,-0.99931003,0.99929399,0,-1742.6655,306.20054)">
      <path
         sodipodi:nodetypes="ccscscsc"
         inkscape:connector-curvature="0"
         id="path4994"
         d="m 170.64061,426.42817 292.00001,0 c 0,0 -37.99611,29.97758 -37.99611,133.4939 0,98.52014 37.99611,133.5061 37.99611,133.5061 0,0 -48,-16.96406 -48,-133.5061 0,-109.0069 42.00389,-131.49387 42.00389,-131.49387 0,0 -7.35937,6.00041 -139.91795,5.9962 -146.08595,-0.005 -146.08595,-7.99623 -146.08595,-7.99623 z"
         style="fill:#000000;stroke:#000000;stroke-width:0;stroke-linecap:butt;stroke-linejoin:miter;stroke-miterlimit:4;stroke-opacity:1;stroke-dasharray:none" />
      <path
         transform="matrix(0.99961018,0,0,1.0003251,165.69636,421.38004)"
         d="m 155.00467,142.00241 c 0,3.31263 -2.68733,5.99805 -6.00234,5.99805 -3.315,0 -6.00234,-2.68542 -6.00234,-5.99805 0,-3.31263 2.68734,-5.99805 6.00234,-5.99805 3.31501,0 6.00234,2.68542 6.00234,5.99805 z"
         sodipodi:ry="5.9980502"
         sodipodi:rx="6.0023398"
         sodipodi:cy="142.00241"
         sodipodi:cx="149.00233"
         id="path4996"
         style="fill:#000000;fill-opacity:1;fill-rule:evenodd;stroke:none"
         sodipodi:type="arc" />
    </g>
    <g
       style="display:inline"
       transform="matrix(0,-0.99931001,-0.99928,0,-623.60729,306.20054)"
       id="g4998">
      <path
         style="fill:#000000;stroke:#000000;stroke-width:0;stroke-linecap:butt;stroke-linejoin:miter;stroke-miterlimit:4;stroke-opacity:1;stroke-dasharray:none"
         d="m 170.64061,426.42817 292.00001,0 c 0,0 -37.99611,29.97758 -37.99611,133.4939 0,98.52014 37.99611,133.5061 37.99611,133.5061 0,0 -48,-16.96406 -48,-133.5061 0,-109.0069 42.00389,-131.49387 42.00389,-131.49387 0,0 -7.35937,6.00041 -139.91795,5.9962 -146.08595,-0.005 -146.08595,-7.99623 -146.08595,-7.99623 z"
         id="path5000"
         inkscape:connector-curvature="0"
         sodipodi:nodetypes="ccscscsc" />
      <path
         sodipodi:type="arc"
         style="fill:#000000;fill-opacity:1;fill-rule:evenodd;stroke:none"
         id="path5002"
         sodipodi:cx="149.00233"
         sodipodi:cy="142.00241"
         sodipodi:rx="6.0023398"
         sodipodi:ry="5.9980502"
         d="m 155.00467,142.00241 c 0,3.31263 -2.68733,5.99805 -6.00234,5.99805 -3.315,0 -6.00234,-2.68542 -6.00234,-5.99805 0,-3.31263 2.68734,-5.99805 6.00234,-5.99805 3.31501,0 6.00234,2.68542 6.00234,5.99805 z"
         transform="matrix(0.99961018,0,0,1.0003251,165.69636,421.38004)" />
    </g>
    <g
       style="display:inline"
       id="g5004"
       transform="matrix(0,-0.99931003,-0.99929399,0,-623.5955,306.20054)">
      <path
         sodipodi:nodetypes="ccscscsc"
         inkscape:connector-curvature="0"
         id="path5006"
         d="m 170.64061,426.42817 292.00001,0 c 0,0 -37.99611,29.97758 -37.99611,133.4939 0,98.52014 37.99611,133.5061 37.99611,133.5061 0,0 -48,-16.96406 -48,-133.5061 0,-109.0069 42.00389,-131.49387 42.00389,-131.49387 0,0 -7.35937,6.00041 -139.91795,5.9962 -146.08595,-0.005 -146.08595,-7.99623 -146.08595,-7.99623 z"
         style="fill:#000000;stroke:#000000;stroke-width:0;stroke-linecap:butt;stroke-linejoin:miter;stroke-miterlimit:4;stroke-opacity:1;stroke-dasharray:none" />
      <path
         transform="matrix(0.99961018,0,0,1.0003251,165.69636,421.38004)"
         d="m 155.00467,142.00241 c 0,3.31263 -2.68733,5.99805 -6.00234,5.99805 -3.315,0 -6.00234,-2.68542 -6.00234,-5.99805 0,-3.31263 2.68734,-5.99805 6.00234,-5.99805 3.31501,0 6.00234,2.68542 6.00234,5.99805 z"
         sodipodi:ry="5.9980502"
         sodipodi:rx="6.0023398"
         sodipodi:cy="142.00241"
         sodipodi:cx="149.00233"
         id="path5008"
         style="fill:#000000;fill-opacity:1;fill-rule:evenodd;stroke:none"
         sodipodi:type="arc" />
    </g>
    <g
       style="display:inline"
       id="g5010"
       transform="matrix(0,-0.99931001,0.99928,0,-1742.6516,306.20054)">
      <path
         sodipodi:nodetypes="ccscscsc"
         inkscape:connector-curvature="0"
         id="path5012"
         d="m 170.64061,426.42817 292.00001,0 c 0,0 -37.99611,29.97758 -37.99611,133.4939 0,98.52014 37.99611,133.5061 37.99611,133.5061 0,0 -48,-16.96406 -48,-133.5061 0,-109.0069 42.00389,-131.49387 42.00389,-131.49387 0,0 -7.35937,6.00041 -139.91795,5.9962 -146.08595,-0.005 -146.08595,-7.99623 -146.08595,-7.99623 z"
         style="fill:#000000;stroke:#000000;stroke-width:0;stroke-linecap:butt;stroke-linejoin:miter;stroke-miterlimit:4;stroke-opacity:1;stroke-dasharray:none" />
      <path
         transform="matrix(0.99961018,0,0,1.0003251,165.69636,421.38004)"
         d="m 155.00467,142.00241 c 0,3.31263 -2.68733,5.99805 -6.00234,5.99805 -3.315,0 -6.00234,-2.68542 -6.00234,-5.99805 0,-3.31263 2.68734,-5.99805 6.00234,-5.99805 3.31501,0 6.00234,2.68542 6.00234,5.99805 z"
         sodipodi:ry="5.9980502"
         sodipodi:rx="6.0023398"
         sodipodi:cy="142.00241"
         sodipodi:cx="149.00233"
         id="path5014"
         style="fill:#000000;fill-opacity:1;fill-rule:evenodd;stroke:none"
         sodipodi:type="arc" />
    </g>
    <g
       style="display:inline"
       transform="matrix(0,-0.99931003,0.99929399,0,-1742.6634,306.20054)"
       id="g5016">
      <path
         style="fill:#000000;stroke:#000000;stroke-width:0;stroke-linecap:butt;stroke-linejoin:miter;stroke-miterlimit:4;stroke-opacity:1;stroke-dasharray:none"
         d="m 170.64061,426.42817 292.00001,0 c 0,0 -37.99611,29.97758 -37.99611,133.4939 0,98.52014 37.99611,133.5061 37.99611,133.5061 0,0 -48,-16.96406 -48,-133.5061 0,-109.0069 42.00389,-131.49387 42.00389,-131.49387 0,0 -7.35937,6.00041 -139.91795,5.9962 -146.08595,-0.005 -146.08595,-7.99623 -146.08595,-7.99623 z"
         id="path5018"
         inkscape:connector-curvature="0"
         sodipodi:nodetypes="ccscscsc" />
      <path
         sodipodi:type="arc"
         style="fill:#000000;fill-opacity:1;fill-rule:evenodd;stroke:none"
         id="path5020"
         sodipodi:cx="149.00233"
         sodipodi:cy="142.00241"
         sodipodi:rx="6.0023398"
         sodipodi:ry="5.9980502"
         d="m 155.00467,142.00241 c 0,3.31263 -2.68733,5.99805 -6.00234,5.99805 -3.315,0 -6.00234,-2.68542 -6.00234,-5.99805 0,-3.31263 2.68734,-5.99805 6.00234,-5.99805 3.31501,0 6.00234,2.68542 6.00234,5.99805 z"
         transform="matrix(0.99961018,0,0,1.0003251,165.69636,421.38004)" />
    </g>
    <g
       style="display:inline"
       transform="matrix(0.70661889,0.70661889,-0.70659766,0.70659766,-1011.2335,-629.60699)"
       id="g5022">
      <path
         style="fill:#000000;stroke:#000000;stroke-width:0;stroke-linecap:butt;stroke-linejoin:miter;stroke-miterlimit:4;stroke-opacity:1;stroke-dasharray:none"
         d="m 170.64061,426.42817 292.00001,0 c 0,0 -37.99611,29.97758 -37.99611,133.4939 0,98.52014 37.99611,133.5061 37.99611,133.5061 0,0 -48,-16.96406 -48,-133.5061 0,-109.0069 42.00389,-131.49387 42.00389,-131.49387 0,0 -7.35937,6.00041 -139.91795,5.9962 -146.08595,-0.005 -146.08595,-7.99623 -146.08595,-7.99623 z"
         id="path5024"
         inkscape:connector-curvature="0"
         sodipodi:nodetypes="ccscscsc" />
      <path
         sodipodi:type="arc"
         style="fill:#000000;fill-opacity:1;fill-rule:evenodd;stroke:none"
         id="path5026"
         sodipodi:cx="149.00233"
         sodipodi:cy="142.00241"
         sodipodi:rx="6.0023398"
         sodipodi:ry="5.9980502"
         d="m 155.00467,142.00241 c 0,3.31263 -2.68733,5.99805 -6.00234,5.99805 -3.315,0 -6.00234,-2.68542 -6.00234,-5.99805 0,-3.31263 2.68734,-5.99805 6.00234,-5.99805 3.31501,0 6.00234,2.68542 6.00234,5.99805 z"
         transform="matrix(0.99961018,0,0,1.0003251,165.69636,421.38004)" />
    </g>
    <g
       style="display:inline"
       id="g5028"
       transform="matrix(0.7066189,0.7066189,-0.70660756,0.70660756,-1011.2253,-629.61534)">
      <path
         sodipodi:nodetypes="ccscscsc"
         inkscape:connector-curvature="0"
         id="path5030"
         d="m 170.64061,426.42817 292.00001,0 c 0,0 -37.99611,29.97758 -37.99611,133.4939 0,98.52014 37.99611,133.5061 37.99611,133.5061 0,0 -48,-16.96406 -48,-133.5061 0,-109.0069 42.00389,-131.49387 42.00389,-131.49387 0,0 -7.35937,6.00041 -139.91795,5.9962 -146.08595,-0.005 -146.08595,-7.99623 -146.08595,-7.99623 z"
         style="fill:#000000;stroke:#000000;stroke-width:0;stroke-linecap:butt;stroke-linejoin:miter;stroke-miterlimit:4;stroke-opacity:1;stroke-dasharray:none" />
      <path
         transform="matrix(0.99961018,0,0,1.0003251,165.69636,421.38004)"
         d="m 155.00467,142.00241 c 0,3.31263 -2.68733,5.99805 -6.00234,5.99805 -3.315,0 -6.00234,-2.68542 -6.00234,-5.99805 0,-3.31263 2.68734,-5.99805 6.00234,-5.99805 3.31501,0 6.00234,2.68542 6.00234,5.99805 z"
         sodipodi:ry="5.9980502"
         sodipodi:rx="6.0023398"
         sodipodi:cy="142.00241"
         sodipodi:cx="149.00233"
         id="path5032"
         style="fill:#000000;fill-opacity:1;fill-rule:evenodd;stroke:none"
         sodipodi:type="arc" />
    </g>
    <g
       style="display:inline"
       id="g5034"
       transform="matrix(0.70661889,0.70661889,0.70659766,-0.70659766,-1802.5174,161.67681)">
      <path
         sodipodi:nodetypes="ccscscsc"
         inkscape:connector-curvature="0"
         id="path5036"
         d="m 170.64061,426.42817 292.00001,0 c 0,0 -37.99611,29.97758 -37.99611,133.4939 0,98.52014 37.99611,133.5061 37.99611,133.5061 0,0 -48,-16.96406 -48,-133.5061 0,-109.0069 42.00389,-131.49387 42.00389,-131.49387 0,0 -7.35937,6.00041 -139.91795,5.9962 -146.08595,-0.005 -146.08595,-7.99623 -146.08595,-7.99623 z"
         style="fill:#000000;stroke:#000000;stroke-width:0;stroke-linecap:butt;stroke-linejoin:miter;stroke-miterlimit:4;stroke-opacity:1;stroke-dasharray:none" />
      <path
         transform="matrix(0.99961018,0,0,1.0003251,165.69636,421.38004)"
         d="m 155.00467,142.00241 c 0,3.31263 -2.68733,5.99805 -6.00234,5.99805 -3.315,0 -6.00234,-2.68542 -6.00234,-5.99805 0,-3.31263 2.68734,-5.99805 6.00234,-5.99805 3.31501,0 6.00234,2.68542 6.00234,5.99805 z"
         sodipodi:ry="5.9980502"
         sodipodi:rx="6.0023398"
         sodipodi:cy="142.00241"
         sodipodi:cx="149.00233"
         id="path5038"
         style="fill:#000000;fill-opacity:1;fill-rule:evenodd;stroke:none"
         sodipodi:type="arc" />
    </g>
    <g
       style="display:inline"
       transform="matrix(0.7066189,0.7066189,0.70660756,-0.70660756,-1802.5257,161.68515)"
       id="g5040">
      <path
         style="fill:#000000;stroke:#000000;stroke-width:0;stroke-linecap:butt;stroke-linejoin:miter;stroke-miterlimit:4;stroke-opacity:1;stroke-dasharray:none"
         d="m 170.64061,426.42817 292.00001,0 c 0,0 -37.99611,29.97758 -37.99611,133.4939 0,98.52014 37.99611,133.5061 37.99611,133.5061 0,0 -48,-16.96406 -48,-133.5061 0,-109.0069 42.00389,-131.49387 42.00389,-131.49387 0,0 -7.35937,6.00041 -139.91795,5.9962 -146.08595,-0.005 -146.08595,-7.99623 -146.08595,-7.99623 z"
         id="path5042"
         inkscape:connector-curvature="0"
         sodipodi:nodetypes="ccscscsc" />
      <path
         sodipodi:type="arc"
         style="fill:#000000;fill-opacity:1;fill-rule:evenodd;stroke:none"
         id="path5044"
         sodipodi:cx="149.00233"
         sodipodi:cy="142.00241"
         sodipodi:rx="6.0023398"
         sodipodi:ry="5.9980502"
         d="m 155.00467,142.00241 c 0,3.31263 -2.68733,5.99805 -6.00234,5.99805 -3.315,0 -6.00234,-2.68542 -6.00234,-5.99805 0,-3.31263 2.68734,-5.99805 6.00234,-5.99805 3.31501,0 6.00234,2.68542 6.00234,5.99805 z"
         transform="matrix(0.99961018,0,0,1.0003251,165.69636,421.38004)" />
    </g>
    <g
       style="display:inline"
       id="g5046"
       transform="matrix(0.70661889,0.70661889,-0.70659766,0.70659766,-1011.232,-629.60849)">
      <path
         sodipodi:nodetypes="ccscscsc"
         inkscape:connector-curvature="0"
         id="path5048"
         d="m 170.64061,426.42817 292.00001,0 c 0,0 -37.99611,29.97758 -37.99611,133.4939 0,98.52014 37.99611,133.5061 37.99611,133.5061 0,0 -48,-16.96406 -48,-133.5061 0,-109.0069 42.00389,-131.49387 42.00389,-131.49387 0,0 -7.35937,6.00041 -139.91795,5.9962 -146.08595,-0.005 -146.08595,-7.99623 -146.08595,-7.99623 z"
         style="fill:#000000;stroke:#000000;stroke-width:0;stroke-linecap:butt;stroke-linejoin:miter;stroke-miterlimit:4;stroke-opacity:1;stroke-dasharray:none" />
      <path
         transform="matrix(0.99961018,0,0,1.0003251,165.69636,421.38004)"
         d="m 155.00467,142.00241 c 0,3.31263 -2.68733,5.99805 -6.00234,5.99805 -3.315,0 -6.00234,-2.68542 -6.00234,-5.99805 0,-3.31263 2.68734,-5.99805 6.00234,-5.99805 3.31501,0 6.00234,2.68542 6.00234,5.99805 z"
         sodipodi:ry="5.9980502"
         sodipodi:rx="6.0023398"
         sodipodi:cy="142.00241"
         sodipodi:cx="149.00233"
         id="path5050"
         style="fill:#000000;fill-opacity:1;fill-rule:evenodd;stroke:none"
         sodipodi:type="arc" />
    </g>
    <g
       style="display:inline"
       transform="matrix(0.7066189,0.7066189,-0.70660756,0.70660756,-1011.2238,-629.61684)"
       id="g5052">
      <path
         style="fill:#000000;stroke:#000000;stroke-width:0;stroke-linecap:butt;stroke-linejoin:miter;stroke-miterlimit:4;stroke-opacity:1;stroke-dasharray:none"
         d="m 170.64061,426.42817 292.00001,0 c 0,0 -37.99611,29.97758 -37.99611,133.4939 0,98.52014 37.99611,133.5061 37.99611,133.5061 0,0 -48,-16.96406 -48,-133.5061 0,-109.0069 42.00389,-131.49387 42.00389,-131.49387 0,0 -7.35937,6.00041 -139.91795,5.9962 -146.08595,-0.005 -146.08595,-7.99623 -146.08595,-7.99623 z"
         id="path5054"
         inkscape:connector-curvature="0"
         sodipodi:nodetypes="ccscscsc" />
      <path
         sodipodi:type="arc"
         style="fill:#000000;fill-opacity:1;fill-rule:evenodd;stroke:none"
         id="path5056"
         sodipodi:cx="149.00233"
         sodipodi:cy="142.00241"
         sodipodi:rx="6.0023398"
         sodipodi:ry="5.9980502"
         d="m 155.00467,142.00241 c 0,3.31263 -2.68733,5.99805 -6.00234,5.99805 -3.315,0 -6.00234,-2.68542 -6.00234,-5.99805 0,-3.31263 2.68734,-5.99805 6.00234,-5.99805 3.31501,0 6.00234,2.68542 6.00234,5.99805 z"
         transform="matrix(0.99961018,0,0,1.0003251,165.69636,421.38004)" />
    </g>
    <g
       style="display:inline"
       transform="matrix(0.70661889,0.70661889,0.70659766,-0.70659766,-1802.5159,161.67533)"
       id="g5058">
      <path
         style="fill:#000000;stroke:#000000;stroke-width:0;stroke-linecap:butt;stroke-linejoin:miter;stroke-miterlimit:4;stroke-opacity:1;stroke-dasharray:none"
         d="m 170.64061,426.42817 292.00001,0 c 0,0 -37.99611,29.97758 -37.99611,133.4939 0,98.52014 37.99611,133.5061 37.99611,133.5061 0,0 -48,-16.96406 -48,-133.5061 0,-109.0069 42.00389,-131.49387 42.00389,-131.49387 0,0 -7.35937,6.00041 -139.91795,5.9962 -146.08595,-0.005 -146.08595,-7.99623 -146.08595,-7.99623 z"
         id="path5060"
         inkscape:connector-curvature="0"
         sodipodi:nodetypes="ccscscsc" />
      <path
         sodipodi:type="arc"
         style="fill:#000000;fill-opacity:1;fill-rule:evenodd;stroke:none"
         id="path5062"
         sodipodi:cx="149.00233"
         sodipodi:cy="142.00241"
         sodipodi:rx="6.0023398"
         sodipodi:ry="5.9980502"
         d="m 155.00467,142.00241 c 0,3.31263 -2.68733,5.99805 -6.00234,5.99805 -3.315,0 -6.00234,-2.68542 -6.00234,-5.99805 0,-3.31263 2.68734,-5.99805 6.00234,-5.99805 3.31501,0 6.00234,2.68542 6.00234,5.99805 z"
         transform="matrix(0.99961018,0,0,1.0003251,165.69636,421.38004)" />
    </g>
    <g
       style="display:inline"
       id="g5064"
       transform="matrix(0.7066189,0.7066189,0.70660756,-0.70660756,-1802.5242,161.68366)">
      <path
         sodipodi:nodetypes="ccscscsc"
         inkscape:connector-curvature="0"
         id="path5066"
         d="m 170.64061,426.42817 292.00001,0 c 0,0 -37.99611,29.97758 -37.99611,133.4939 0,98.52014 37.99611,133.5061 37.99611,133.5061 0,0 -48,-16.96406 -48,-133.5061 0,-109.0069 42.00389,-131.49387 42.00389,-131.49387 0,0 -7.35937,6.00041 -139.91795,5.9962 -146.08595,-0.005 -146.08595,-7.99623 -146.08595,-7.99623 z"
         style="fill:#000000;stroke:#000000;stroke-width:0;stroke-linecap:butt;stroke-linejoin:miter;stroke-miterlimit:4;stroke-opacity:1;stroke-dasharray:none" />
      <path
         transform="matrix(0.99961018,0,0,1.0003251,165.69636,421.38004)"
         d="m 155.00467,142.00241 c 0,3.31263 -2.68733,5.99805 -6.00234,5.99805 -3.315,0 -6.00234,-2.68542 -6.00234,-5.99805 0,-3.31263 2.68734,-5.99805 6.00234,-5.99805 3.31501,0 6.00234,2.68542 6.00234,5.99805 z"
         sodipodi:ry="5.9980502"
         sodipodi:rx="6.0023398"
         sodipodi:cy="142.00241"
         sodipodi:cx="149.00233"
         id="path5068"
         style="fill:#000000;fill-opacity:1;fill-rule:evenodd;stroke:none"
         sodipodi:type="arc" />
    </g>
    <g
       style="display:inline"
       id="g5070"
       transform="matrix(-0.70661889,-0.70661889,-0.70659766,0.70659766,-563.74511,-182.11851)">
      <path
         sodipodi:nodetypes="ccscscsc"
         inkscape:connector-curvature="0"
         id="path5072"
         d="m 170.64061,426.42817 292.00001,0 c 0,0 -37.99611,29.97758 -37.99611,133.4939 0,98.52014 37.99611,133.5061 37.99611,133.5061 0,0 -48,-16.96406 -48,-133.5061 0,-109.0069 42.00389,-131.49387 42.00389,-131.49387 0,0 -7.35937,6.00041 -139.91795,5.9962 -146.08595,-0.005 -146.08595,-7.99623 -146.08595,-7.99623 z"
         style="fill:#000000;stroke:#000000;stroke-width:0;stroke-linecap:butt;stroke-linejoin:miter;stroke-miterlimit:4;stroke-opacity:1;stroke-dasharray:none" />
      <path
         transform="matrix(0.99961018,0,0,1.0003251,165.69636,421.38004)"
         d="m 155.00467,142.00241 c 0,3.31263 -2.68733,5.99805 -6.00234,5.99805 -3.315,0 -6.00234,-2.68542 -6.00234,-5.99805 0,-3.31263 2.68734,-5.99805 6.00234,-5.99805 3.31501,0 6.00234,2.68542 6.00234,5.99805 z"
         sodipodi:ry="5.9980502"
         sodipodi:rx="6.0023398"
         sodipodi:cy="142.00241"
         sodipodi:cx="149.00233"
         id="path5074"
         style="fill:#000000;fill-opacity:1;fill-rule:evenodd;stroke:none"
         sodipodi:type="arc" />
    </g>
    <g
       style="display:inline"
       transform="matrix(-0.7066189,-0.7066189,-0.70660756,0.70660756,-563.73676,-182.12686)"
       id="g5076">
      <path
         style="fill:#000000;stroke:#000000;stroke-width:0;stroke-linecap:butt;stroke-linejoin:miter;stroke-miterlimit:4;stroke-opacity:1;stroke-dasharray:none"
         d="m 170.64061,426.42817 292.00001,0 c 0,0 -37.99611,29.97758 -37.99611,133.4939 0,98.52014 37.99611,133.5061 37.99611,133.5061 0,0 -48,-16.96406 -48,-133.5061 0,-109.0069 42.00389,-131.49387 42.00389,-131.49387 0,0 -7.35937,6.00041 -139.91795,5.9962 -146.08595,-0.005 -146.08595,-7.99623 -146.08595,-7.99623 z"
         id="path5078"
         inkscape:connector-curvature="0"
         sodipodi:nodetypes="ccscscsc" />
      <path
         sodipodi:type="arc"
         style="fill:#000000;fill-opacity:1;fill-rule:evenodd;stroke:none"
         id="path5080"
         sodipodi:cx="149.00233"
         sodipodi:cy="142.00241"
         sodipodi:rx="6.0023398"
         sodipodi:ry="5.9980502"
         d="m 155.00467,142.00241 c 0,3.31263 -2.68733,5.99805 -6.00234,5.99805 -3.315,0 -6.00234,-2.68542 -6.00234,-5.99805 0,-3.31263 2.68734,-5.99805 6.00234,-5.99805 3.31501,0 6.00234,2.68542 6.00234,5.99805 z"
         transform="matrix(0.99961018,0,0,1.0003251,165.69636,421.38004)" />
    </g>
    <g
       style="display:inline"
       transform="matrix(-0.70661889,-0.70661889,0.70659766,-0.70659766,-1355.0289,609.16527)"
       id="g5082">
      <path
         style="fill:#000000;stroke:#000000;stroke-width:0;stroke-linecap:butt;stroke-linejoin:miter;stroke-miterlimit:4;stroke-opacity:1;stroke-dasharray:none"
         d="m 170.64061,426.42817 292.00001,0 c 0,0 -37.99611,29.97758 -37.99611,133.4939 0,98.52014 37.99611,133.5061 37.99611,133.5061 0,0 -48,-16.96406 -48,-133.5061 0,-109.0069 42.00389,-131.49387 42.00389,-131.49387 0,0 -7.35937,6.00041 -139.91795,5.9962 -146.08595,-0.005 -146.08595,-7.99623 -146.08595,-7.99623 z"
         id="path5084"
         inkscape:connector-curvature="0"
         sodipodi:nodetypes="ccscscsc" />
      <path
         sodipodi:type="arc"
         style="fill:#000000;fill-opacity:1;fill-rule:evenodd;stroke:none"
         id="path5086"
         sodipodi:cx="149.00233"
         sodipodi:cy="142.00241"
         sodipodi:rx="6.0023398"
         sodipodi:ry="5.9980502"
         d="m 155.00467,142.00241 c 0,3.31263 -2.68733,5.99805 -6.00234,5.99805 -3.315,0 -6.00234,-2.68542 -6.00234,-5.99805 0,-3.31263 2.68734,-5.99805 6.00234,-5.99805 3.31501,0 6.00234,2.68542 6.00234,5.99805 z"
         transform="matrix(0.99961018,0,0,1.0003251,165.69636,421.38004)" />
    </g>
    <g
       style="display:inline"
       id="g5088"
       transform="matrix(-0.7066189,-0.7066189,0.70660756,-0.70660756,-1355.0373,609.17366)">
      <path
         sodipodi:nodetypes="ccscscsc"
         inkscape:connector-curvature="0"
         id="path5090"
         d="m 170.64061,426.42817 292.00001,0 c 0,0 -37.99611,29.97758 -37.99611,133.4939 0,98.52014 37.99611,133.5061 37.99611,133.5061 0,0 -48,-16.96406 -48,-133.5061 0,-109.0069 42.00389,-131.49387 42.00389,-131.49387 0,0 -7.35937,6.00041 -139.91795,5.9962 -146.08595,-0.005 -146.08595,-7.99623 -146.08595,-7.99623 z"
         style="fill:#000000;stroke:#000000;stroke-width:0;stroke-linecap:butt;stroke-linejoin:miter;stroke-miterlimit:4;stroke-opacity:1;stroke-dasharray:none" />
      <path
         transform="matrix(0.99961018,0,0,1.0003251,165.69636,421.38004)"
         d="m 155.00467,142.00241 c 0,3.31263 -2.68733,5.99805 -6.00234,5.99805 -3.315,0 -6.00234,-2.68542 -6.00234,-5.99805 0,-3.31263 2.68734,-5.99805 6.00234,-5.99805 3.31501,0 6.00234,2.68542 6.00234,5.99805 z"
         sodipodi:ry="5.9980502"
         sodipodi:rx="6.0023398"
         sodipodi:cy="142.00241"
         sodipodi:cx="149.00233"
         id="path5092"
         style="fill:#000000;fill-opacity:1;fill-rule:evenodd;stroke:none"
         sodipodi:type="arc" />
    </g>
    <g
       style="display:inline"
       transform="matrix(-0.70661889,-0.70661889,-0.70659766,0.70659766,-563.7436,-182.12001)"
       id="g5094">
      <path
         style="fill:#000000;stroke:#000000;stroke-width:0;stroke-linecap:butt;stroke-linejoin:miter;stroke-miterlimit:4;stroke-opacity:1;stroke-dasharray:none"
         d="m 170.64061,426.42817 292.00001,0 c 0,0 -37.99611,29.97758 -37.99611,133.4939 0,98.52014 37.99611,133.5061 37.99611,133.5061 0,0 -48,-16.96406 -48,-133.5061 0,-109.0069 42.00389,-131.49387 42.00389,-131.49387 0,0 -7.35937,6.00041 -139.91795,5.9962 -146.08595,-0.005 -146.08595,-7.99623 -146.08595,-7.99623 z"
         id="path5096"
         inkscape:connector-curvature="0"
         sodipodi:nodetypes="ccscscsc" />
      <path
         sodipodi:type="arc"
         style="fill:#000000;fill-opacity:1;fill-rule:evenodd;stroke:none"
         id="path5098"
         sodipodi:cx="149.00233"
         sodipodi:cy="142.00241"
         sodipodi:rx="6.0023398"
         sodipodi:ry="5.9980502"
         d="m 155.00467,142.00241 c 0,3.31263 -2.68733,5.99805 -6.00234,5.99805 -3.315,0 -6.00234,-2.68542 -6.00234,-5.99805 0,-3.31263 2.68734,-5.99805 6.00234,-5.99805 3.31501,0 6.00234,2.68542 6.00234,5.99805 z"
         transform="matrix(0.99961018,0,0,1.0003251,165.69636,421.38004)" />
    </g>
    <g
       style="display:inline"
       id="g5100"
       transform="matrix(-0.7066189,-0.7066189,-0.70660756,0.70660756,-563.73526,-182.12835)">
      <path
         sodipodi:nodetypes="ccscscsc"
         inkscape:connector-curvature="0"
         id="path5102"
         d="m 170.64061,426.42817 292.00001,0 c 0,0 -37.99611,29.97758 -37.99611,133.4939 0,98.52014 37.99611,133.5061 37.99611,133.5061 0,0 -48,-16.96406 -48,-133.5061 0,-109.0069 42.00389,-131.49387 42.00389,-131.49387 0,0 -7.35937,6.00041 -139.91795,5.9962 -146.08595,-0.005 -146.08595,-7.99623 -146.08595,-7.99623 z"
         style="fill:#000000;stroke:#000000;stroke-width:0;stroke-linecap:butt;stroke-linejoin:miter;stroke-miterlimit:4;stroke-opacity:1;stroke-dasharray:none" />
      <path
         transform="matrix(0.99961018,0,0,1.0003251,165.69636,421.38004)"
         d="m 155.00467,142.00241 c 0,3.31263 -2.68733,5.99805 -6.00234,5.99805 -3.315,0 -6.00234,-2.68542 -6.00234,-5.99805 0,-3.31263 2.68734,-5.99805 6.00234,-5.99805 3.31501,0 6.00234,2.68542 6.00234,5.99805 z"
         sodipodi:ry="5.9980502"
         sodipodi:rx="6.0023398"
         sodipodi:cy="142.00241"
         sodipodi:cx="149.00233"
         id="path5104"
         style="fill:#000000;fill-opacity:1;fill-rule:evenodd;stroke:none"
         sodipodi:type="arc" />
    </g>
    <g
       style="display:inline"
       id="g5106"
       transform="matrix(-0.70661889,-0.70661889,0.70659766,-0.70659766,-1355.0275,609.16377)">
      <path
         sodipodi:nodetypes="ccscscsc"
         inkscape:connector-curvature="0"
         id="path5108"
         d="m 170.64061,426.42817 292.00001,0 c 0,0 -37.99611,29.97758 -37.99611,133.4939 0,98.52014 37.99611,133.5061 37.99611,133.5061 0,0 -48,-16.96406 -48,-133.5061 0,-109.0069 42.00389,-131.49387 42.00389,-131.49387 0,0 -7.35937,6.00041 -139.91795,5.9962 -146.08595,-0.005 -146.08595,-7.99623 -146.08595,-7.99623 z"
         style="fill:#000000;stroke:#000000;stroke-width:0;stroke-linecap:butt;stroke-linejoin:miter;stroke-miterlimit:4;stroke-opacity:1;stroke-dasharray:none" />
      <path
         transform="matrix(0.99961018,0,0,1.0003251,165.69636,421.38004)"
         d="m 155.00467,142.00241 c 0,3.31263 -2.68733,5.99805 -6.00234,5.99805 -3.315,0 -6.00234,-2.68542 -6.00234,-5.99805 0,-3.31263 2.68734,-5.99805 6.00234,-5.99805 3.31501,0 6.00234,2.68542 6.00234,5.99805 z"
         sodipodi:ry="5.9980502"
         sodipodi:rx="6.0023398"
         sodipodi:cy="142.00241"
         sodipodi:cx="149.00233"
         id="path5110"
         style="fill:#000000;fill-opacity:1;fill-rule:evenodd;stroke:none"
         sodipodi:type="arc" />
    </g>
    <g
       style="display:inline"
       transform="matrix(-0.7066189,-0.7066189,0.70660756,-0.70660756,-1355.0358,609.17216)"
       id="g5112">
      <path
         style="fill:#000000;stroke:#000000;stroke-width:0;stroke-linecap:butt;stroke-linejoin:miter;stroke-miterlimit:4;stroke-opacity:1;stroke-dasharray:none"
         d="m 170.64061,426.42817 292.00001,0 c 0,0 -37.99611,29.97758 -37.99611,133.4939 0,98.52014 37.99611,133.5061 37.99611,133.5061 0,0 -48,-16.96406 -48,-133.5061 0,-109.0069 42.00389,-131.49387 42.00389,-131.49387 0,0 -7.35937,6.00041 -139.91795,5.9962 -146.08595,-0.005 -146.08595,-7.99623 -146.08595,-7.99623 z"
         id="path5114"
         inkscape:connector-curvature="0"
         sodipodi:nodetypes="ccscscsc" />
      <path
         sodipodi:type="arc"
         style="fill:#000000;fill-opacity:1;fill-rule:evenodd;stroke:none"
         id="path5116"
         sodipodi:cx="149.00233"
         sodipodi:cy="142.00241"
         sodipodi:rx="6.0023398"
         sodipodi:ry="5.9980502"
         d="m 155.00467,142.00241 c 0,3.31263 -2.68733,5.99805 -6.00234,5.99805 -3.315,0 -6.00234,-2.68542 -6.00234,-5.99805 0,-3.31263 2.68734,-5.99805 6.00234,-5.99805 3.31501,0 6.00234,2.68542 6.00234,5.99805 z"
         transform="matrix(0.99961018,0,0,1.0003251,165.69636,421.38004)" />
    </g>
    <g
       style="display:inline"
       id="g5118"
       transform="matrix(-0.70661889,0.70661889,-0.70659766,-0.70659766,-563.74511,161.67531)">
      <path
         sodipodi:nodetypes="ccscscsc"
         inkscape:connector-curvature="0"
         id="path5120"
         d="m 170.64061,426.42817 292.00001,0 c 0,0 -37.99611,29.97758 -37.99611,133.4939 0,98.52014 37.99611,133.5061 37.99611,133.5061 0,0 -48,-16.96406 -48,-133.5061 0,-109.0069 42.00389,-131.49387 42.00389,-131.49387 0,0 -7.35937,6.00041 -139.91795,5.9962 -146.08595,-0.005 -146.08595,-7.99623 -146.08595,-7.99623 z"
         style="fill:#000000;stroke:#000000;stroke-width:0;stroke-linecap:butt;stroke-linejoin:miter;stroke-miterlimit:4;stroke-opacity:1;stroke-dasharray:none" />
      <path
         transform="matrix(0.99961018,0,0,1.0003251,165.69636,421.38004)"
         d="m 155.00467,142.00241 c 0,3.31263 -2.68733,5.99805 -6.00234,5.99805 -3.315,0 -6.00234,-2.68542 -6.00234,-5.99805 0,-3.31263 2.68734,-5.99805 6.00234,-5.99805 3.31501,0 6.00234,2.68542 6.00234,5.99805 z"
         sodipodi:ry="5.9980502"
         sodipodi:rx="6.0023398"
         sodipodi:cy="142.00241"
         sodipodi:cx="149.00233"
         id="path5122"
         style="fill:#000000;fill-opacity:1;fill-rule:evenodd;stroke:none"
         sodipodi:type="arc" />
    </g>
    <g
       style="display:inline"
       transform="matrix(-0.7066189,0.7066189,-0.70660756,-0.70660756,-563.73676,161.68364)"
       id="g5124">
      <path
         style="fill:#000000;stroke:#000000;stroke-width:0;stroke-linecap:butt;stroke-linejoin:miter;stroke-miterlimit:4;stroke-opacity:1;stroke-dasharray:none"
         d="m 170.64061,426.42817 292.00001,0 c 0,0 -37.99611,29.97758 -37.99611,133.4939 0,98.52014 37.99611,133.5061 37.99611,133.5061 0,0 -48,-16.96406 -48,-133.5061 0,-109.0069 42.00389,-131.49387 42.00389,-131.49387 0,0 -7.35937,6.00041 -139.91795,5.9962 -146.08595,-0.005 -146.08595,-7.99623 -146.08595,-7.99623 z"
         id="path5126"
         inkscape:connector-curvature="0"
         sodipodi:nodetypes="ccscscsc" />
      <path
         sodipodi:type="arc"
         style="fill:#000000;fill-opacity:1;fill-rule:evenodd;stroke:none"
         id="path5128"
         sodipodi:cx="149.00233"
         sodipodi:cy="142.00241"
         sodipodi:rx="6.0023398"
         sodipodi:ry="5.9980502"
         d="m 155.00467,142.00241 c 0,3.31263 -2.68733,5.99805 -6.00234,5.99805 -3.315,0 -6.00234,-2.68542 -6.00234,-5.99805 0,-3.31263 2.68734,-5.99805 6.00234,-5.99805 3.31501,0 6.00234,2.68542 6.00234,5.99805 z"
         transform="matrix(0.99961018,0,0,1.0003251,165.69636,421.38004)" />
    </g>
    <g
       style="display:inline"
       transform="matrix(-0.70661889,0.70661889,0.70659766,0.70659766,-1355.0289,-629.60849)"
       id="g5130">
      <path
         style="fill:#000000;stroke:#000000;stroke-width:0;stroke-linecap:butt;stroke-linejoin:miter;stroke-miterlimit:4;stroke-opacity:1;stroke-dasharray:none"
         d="m 170.64061,426.42817 292.00001,0 c 0,0 -37.99611,29.97758 -37.99611,133.4939 0,98.52014 37.99611,133.5061 37.99611,133.5061 0,0 -48,-16.96406 -48,-133.5061 0,-109.0069 42.00389,-131.49387 42.00389,-131.49387 0,0 -7.35937,6.00041 -139.91795,5.9962 -146.08595,-0.005 -146.08595,-7.99623 -146.08595,-7.99623 z"
         id="path5132"
         inkscape:connector-curvature="0"
         sodipodi:nodetypes="ccscscsc" />
      <path
         sodipodi:type="arc"
         style="fill:#000000;fill-opacity:1;fill-rule:evenodd;stroke:none"
         id="path5134"
         sodipodi:cx="149.00233"
         sodipodi:cy="142.00241"
         sodipodi:rx="6.0023398"
         sodipodi:ry="5.9980502"
         d="m 155.00467,142.00241 c 0,3.31263 -2.68733,5.99805 -6.00234,5.99805 -3.315,0 -6.00234,-2.68542 -6.00234,-5.99805 0,-3.31263 2.68734,-5.99805 6.00234,-5.99805 3.31501,0 6.00234,2.68542 6.00234,5.99805 z"
         transform="matrix(0.99961018,0,0,1.0003251,165.69636,421.38004)" />
    </g>
    <g
       style="display:inline"
       id="g5136"
       transform="matrix(-0.7066189,0.7066189,0.70660756,0.70660756,-1355.0373,-629.61684)">
      <path
         sodipodi:nodetypes="ccscscsc"
         inkscape:connector-curvature="0"
         id="path5138"
         d="m 170.64061,426.42817 292.00001,0 c 0,0 -37.99611,29.97758 -37.99611,133.4939 0,98.52014 37.99611,133.5061 37.99611,133.5061 0,0 -48,-16.96406 -48,-133.5061 0,-109.0069 42.00389,-131.49387 42.00389,-131.49387 0,0 -7.35937,6.00041 -139.91795,5.9962 -146.08595,-0.005 -146.08595,-7.99623 -146.08595,-7.99623 z"
         style="fill:#000000;stroke:#000000;stroke-width:0;stroke-linecap:butt;stroke-linejoin:miter;stroke-miterlimit:4;stroke-opacity:1;stroke-dasharray:none" />
      <path
         transform="matrix(0.99961018,0,0,1.0003251,165.69636,421.38004)"
         d="m 155.00467,142.00241 c 0,3.31263 -2.68733,5.99805 -6.00234,5.99805 -3.315,0 -6.00234,-2.68542 -6.00234,-5.99805 0,-3.31263 2.68734,-5.99805 6.00234,-5.99805 3.31501,0 6.00234,2.68542 6.00234,5.99805 z"
         sodipodi:ry="5.9980502"
         sodipodi:rx="6.0023398"
         sodipodi:cy="142.00241"
         sodipodi:cx="149.00233"
         id="path5140"
         style="fill:#000000;fill-opacity:1;fill-rule:evenodd;stroke:none"
         sodipodi:type="arc" />
    </g>
    <g
       style="display:inline"
       transform="matrix(-0.70661889,0.70661889,-0.70659766,-0.70659766,-563.74361,161.67681)"
       id="g5142">
      <path
         style="fill:#000000;stroke:#000000;stroke-width:0;stroke-linecap:butt;stroke-linejoin:miter;stroke-miterlimit:4;stroke-opacity:1;stroke-dasharray:none"
         d="m 170.64061,426.42817 292.00001,0 c 0,0 -37.99611,29.97758 -37.99611,133.4939 0,98.52014 37.99611,133.5061 37.99611,133.5061 0,0 -48,-16.96406 -48,-133.5061 0,-109.0069 42.00389,-131.49387 42.00389,-131.49387 0,0 -7.35937,6.00041 -139.91795,5.9962 -146.08595,-0.005 -146.08595,-7.99623 -146.08595,-7.99623 z"
         id="path5144"
         inkscape:connector-curvature="0"
         sodipodi:nodetypes="ccscscsc" />
      <path
         sodipodi:type="arc"
         style="fill:#000000;fill-opacity:1;fill-rule:evenodd;stroke:none"
         id="path5146"
         sodipodi:cx="149.00233"
         sodipodi:cy="142.00241"
         sodipodi:rx="6.0023398"
         sodipodi:ry="5.9980502"
         d="m 155.00467,142.00241 c 0,3.31263 -2.68733,5.99805 -6.00234,5.99805 -3.315,0 -6.00234,-2.68542 -6.00234,-5.99805 0,-3.31263 2.68734,-5.99805 6.00234,-5.99805 3.31501,0 6.00234,2.68542 6.00234,5.99805 z"
         transform="matrix(0.99961018,0,0,1.0003251,165.69636,421.38004)" />
    </g>
    <g
       style="display:inline"
       id="g5148"
       transform="matrix(-0.7066189,0.7066189,-0.70660756,-0.70660756,-563.73526,161.68514)">
      <path
         sodipodi:nodetypes="ccscscsc"
         inkscape:connector-curvature="0"
         id="path5150"
         d="m 170.64061,426.42817 292.00001,0 c 0,0 -37.99611,29.97758 -37.99611,133.4939 0,98.52014 37.99611,133.5061 37.99611,133.5061 0,0 -48,-16.96406 -48,-133.5061 0,-109.0069 42.00389,-131.49387 42.00389,-131.49387 0,0 -7.35937,6.00041 -139.91795,5.9962 -146.08595,-0.005 -146.08595,-7.99623 -146.08595,-7.99623 z"
         style="fill:#000000;stroke:#000000;stroke-width:0;stroke-linecap:butt;stroke-linejoin:miter;stroke-miterlimit:4;stroke-opacity:1;stroke-dasharray:none" />
      <path
         transform="matrix(0.99961018,0,0,1.0003251,165.69636,421.38004)"
         d="m 155.00467,142.00241 c 0,3.31263 -2.68733,5.99805 -6.00234,5.99805 -3.315,0 -6.00234,-2.68542 -6.00234,-5.99805 0,-3.31263 2.68734,-5.99805 6.00234,-5.99805 3.31501,0 6.00234,2.68542 6.00234,5.99805 z"
         sodipodi:ry="5.9980502"
         sodipodi:rx="6.0023398"
         sodipodi:cy="142.00241"
         sodipodi:cx="149.00233"
         id="path5152"
         style="fill:#000000;fill-opacity:1;fill-rule:evenodd;stroke:none"
         sodipodi:type="arc" />
    </g>
    <g
       style="display:inline"
       id="g5154"
       transform="matrix(-0.70661889,0.70661889,0.70659766,0.70659766,-1355.0275,-629.60701)">
      <path
         sodipodi:nodetypes="ccscscsc"
         inkscape:connector-curvature="0"
         id="path5156"
         d="m 170.64061,426.42817 292.00001,0 c 0,0 -37.99611,29.97758 -37.99611,133.4939 0,98.52014 37.99611,133.5061 37.99611,133.5061 0,0 -48,-16.96406 -48,-133.5061 0,-109.0069 42.00389,-131.49387 42.00389,-131.49387 0,0 -7.35937,6.00041 -139.91795,5.9962 -146.08595,-0.005 -146.08595,-7.99623 -146.08595,-7.99623 z"
         style="fill:#000000;stroke:#000000;stroke-width:0;stroke-linecap:butt;stroke-linejoin:miter;stroke-miterlimit:4;stroke-opacity:1;stroke-dasharray:none" />
      <path
         transform="matrix(0.99961018,0,0,1.0003251,165.69636,421.38004)"
         d="m 155.00467,142.00241 c 0,3.31263 -2.68733,5.99805 -6.00234,5.99805 -3.315,0 -6.00234,-2.68542 -6.00234,-5.99805 0,-3.31263 2.68734,-5.99805 6.00234,-5.99805 3.31501,0 6.00234,2.68542 6.00234,5.99805 z"
         sodipodi:ry="5.9980502"
         sodipodi:rx="6.0023398"
         sodipodi:cy="142.00241"
         sodipodi:cx="149.00233"
         id="path5158"
         style="fill:#000000;fill-opacity:1;fill-rule:evenodd;stroke:none"
         sodipodi:type="arc" />
    </g>
    <g
       style="display:inline"
       transform="matrix(-0.7066189,0.7066189,0.70660756,0.70660756,-1355.0358,-629.61535)"
       id="g5160">
      <path
         style="fill:#000000;stroke:#000000;stroke-width:0;stroke-linecap:butt;stroke-linejoin:miter;stroke-miterlimit:4;stroke-opacity:1;stroke-dasharray:none"
         d="m 170.64061,426.42817 292.00001,0 c 0,0 -37.99611,29.97758 -37.99611,133.4939 0,98.52014 37.99611,133.5061 37.99611,133.5061 0,0 -48,-16.96406 -48,-133.5061 0,-109.0069 42.00389,-131.49387 42.00389,-131.49387 0,0 -7.35937,6.00041 -139.91795,5.9962 -146.08595,-0.005 -146.08595,-7.99623 -146.08595,-7.99623 z"
         id="path5162"
         inkscape:connector-curvature="0"
         sodipodi:nodetypes="ccscscsc" />
      <path
         sodipodi:type="arc"
         style="fill:#000000;fill-opacity:1;fill-rule:evenodd;stroke:none"
         id="path5164"
         sodipodi:cx="149.00233"
         sodipodi:cy="142.00241"
         sodipodi:rx="6.0023398"
         sodipodi:ry="5.9980502"
         d="m 155.00467,142.00241 c 0,3.31263 -2.68733,5.99805 -6.00234,5.99805 -3.315,0 -6.00234,-2.68542 -6.00234,-5.99805 0,-3.31263 2.68734,-5.99805 6.00234,-5.99805 3.31501,0 6.00234,2.68542 6.00234,5.99805 z"
         transform="matrix(0.99961018,0,0,1.0003251,165.69636,421.38004)" />
    </g>
    <g
       style="display:inline"
       transform="matrix(0.70661889,-0.70661889,-0.70659766,-0.70659766,-1011.2335,609.16377)"
       id="g5166">
      <path
         style="fill:#000000;stroke:#000000;stroke-width:0;stroke-linecap:butt;stroke-linejoin:miter;stroke-miterlimit:4;stroke-opacity:1;stroke-dasharray:none"
         d="m 170.64061,426.42817 292.00001,0 c 0,0 -37.99611,29.97758 -37.99611,133.4939 0,98.52014 37.99611,133.5061 37.99611,133.5061 0,0 -48,-16.96406 -48,-133.5061 0,-109.0069 42.00389,-131.49387 42.00389,-131.49387 0,0 -7.35937,6.00041 -139.91795,5.9962 -146.08595,-0.005 -146.08595,-7.99623 -146.08595,-7.99623 z"
         id="path5168"
         inkscape:connector-curvature="0"
         sodipodi:nodetypes="ccscscsc" />
      <path
         sodipodi:type="arc"
         style="fill:#000000;fill-opacity:1;fill-rule:evenodd;stroke:none"
         id="path5170"
         sodipodi:cx="149.00233"
         sodipodi:cy="142.00241"
         sodipodi:rx="6.0023398"
         sodipodi:ry="5.9980502"
         d="m 155.00467,142.00241 c 0,3.31263 -2.68733,5.99805 -6.00234,5.99805 -3.315,0 -6.00234,-2.68542 -6.00234,-5.99805 0,-3.31263 2.68734,-5.99805 6.00234,-5.99805 3.31501,0 6.00234,2.68542 6.00234,5.99805 z"
         transform="matrix(0.99961018,0,0,1.0003251,165.69636,421.38004)" />
    </g>
    <g
       style="display:inline"
       id="g5172"
       transform="matrix(0.7066189,-0.7066189,-0.70660756,-0.70660756,-1011.2253,609.17216)">
      <path
         sodipodi:nodetypes="ccscscsc"
         inkscape:connector-curvature="0"
         id="path5174"
         d="m 170.64061,426.42817 292.00001,0 c 0,0 -37.99611,29.97758 -37.99611,133.4939 0,98.52014 37.99611,133.5061 37.99611,133.5061 0,0 -48,-16.96406 -48,-133.5061 0,-109.0069 42.00389,-131.49387 42.00389,-131.49387 0,0 -7.35937,6.00041 -139.91795,5.9962 -146.08595,-0.005 -146.08595,-7.99623 -146.08595,-7.99623 z"
         style="fill:#000000;stroke:#000000;stroke-width:0;stroke-linecap:butt;stroke-linejoin:miter;stroke-miterlimit:4;stroke-opacity:1;stroke-dasharray:none" />
      <path
         transform="matrix(0.99961018,0,0,1.0003251,165.69636,421.38004)"
         d="m 155.00467,142.00241 c 0,3.31263 -2.68733,5.99805 -6.00234,5.99805 -3.315,0 -6.00234,-2.68542 -6.00234,-5.99805 0,-3.31263 2.68734,-5.99805 6.00234,-5.99805 3.31501,0 6.00234,2.68542 6.00234,5.99805 z"
         sodipodi:ry="5.9980502"
         sodipodi:rx="6.0023398"
         sodipodi:cy="142.00241"
         sodipodi:cx="149.00233"
         id="path5176"
         style="fill:#000000;fill-opacity:1;fill-rule:evenodd;stroke:none"
         sodipodi:type="arc" />
    </g>
    <g
       style="display:inline"
       id="g5178"
       transform="matrix(0.70661889,-0.70661889,0.70659766,0.70659766,-1802.5174,-182.12001)">
      <path
         sodipodi:nodetypes="ccscscsc"
         inkscape:connector-curvature="0"
         id="path5180"
         d="m 170.64061,426.42817 292.00001,0 c 0,0 -37.99611,29.97758 -37.99611,133.4939 0,98.52014 37.99611,133.5061 37.99611,133.5061 0,0 -48,-16.96406 -48,-133.5061 0,-109.0069 42.00389,-131.49387 42.00389,-131.49387 0,0 -7.35937,6.00041 -139.91795,5.9962 -146.08595,-0.005 -146.08595,-7.99623 -146.08595,-7.99623 z"
         style="fill:#000000;stroke:#000000;stroke-width:0;stroke-linecap:butt;stroke-linejoin:miter;stroke-miterlimit:4;stroke-opacity:1;stroke-dasharray:none" />
      <path
         transform="matrix(0.99961018,0,0,1.0003251,165.69636,421.38004)"
         d="m 155.00467,142.00241 c 0,3.31263 -2.68733,5.99805 -6.00234,5.99805 -3.315,0 -6.00234,-2.68542 -6.00234,-5.99805 0,-3.31263 2.68734,-5.99805 6.00234,-5.99805 3.31501,0 6.00234,2.68542 6.00234,5.99805 z"
         sodipodi:ry="5.9980502"
         sodipodi:rx="6.0023398"
         sodipodi:cy="142.00241"
         sodipodi:cx="149.00233"
         id="path5182"
         style="fill:#000000;fill-opacity:1;fill-rule:evenodd;stroke:none"
         sodipodi:type="arc" />
    </g>
    <g
       style="display:inline"
       transform="matrix(0.7066189,-0.7066189,0.70660756,0.70660756,-1802.5257,-182.12835)"
       id="g5184">
      <path
         style="fill:#000000;stroke:#000000;stroke-width:0;stroke-linecap:butt;stroke-linejoin:miter;stroke-miterlimit:4;stroke-opacity:1;stroke-dasharray:none"
         d="m 170.64061,426.42817 292.00001,0 c 0,0 -37.99611,29.97758 -37.99611,133.4939 0,98.52014 37.99611,133.5061 37.99611,133.5061 0,0 -48,-16.96406 -48,-133.5061 0,-109.0069 42.00389,-131.49387 42.00389,-131.49387 0,0 -7.35937,6.00041 -139.91795,5.9962 -146.08595,-0.005 -146.08595,-7.99623 -146.08595,-7.99623 z"
         id="path5186"
         inkscape:connector-curvature="0"
         sodipodi:nodetypes="ccscscsc" />
      <path
         sodipodi:type="arc"
         style="fill:#000000;fill-opacity:1;fill-rule:evenodd;stroke:none"
         id="path5188"
         sodipodi:cx="149.00233"
         sodipodi:cy="142.00241"
         sodipodi:rx="6.0023398"
         sodipodi:ry="5.9980502"
         d="m 155.00467,142.00241 c 0,3.31263 -2.68733,5.99805 -6.00234,5.99805 -3.315,0 -6.00234,-2.68542 -6.00234,-5.99805 0,-3.31263 2.68734,-5.99805 6.00234,-5.99805 3.31501,0 6.00234,2.68542 6.00234,5.99805 z"
         transform="matrix(0.99961018,0,0,1.0003251,165.69636,421.38004)" />
    </g>
    <g
       style="display:inline"
       id="g5190"
       transform="matrix(0.70661889,-0.70661889,-0.70659766,-0.70659766,-1011.232,609.16527)">
      <path
         sodipodi:nodetypes="ccscscsc"
         inkscape:connector-curvature="0"
         id="path5192"
         d="m 170.64061,426.42817 292.00001,0 c 0,0 -37.99611,29.97758 -37.99611,133.4939 0,98.52014 37.99611,133.5061 37.99611,133.5061 0,0 -48,-16.96406 -48,-133.5061 0,-109.0069 42.00389,-131.49387 42.00389,-131.49387 0,0 -7.35937,6.00041 -139.91795,5.9962 -146.08595,-0.005 -146.08595,-7.99623 -146.08595,-7.99623 z"
         style="fill:#000000;stroke:#000000;stroke-width:0;stroke-linecap:butt;stroke-linejoin:miter;stroke-miterlimit:4;stroke-opacity:1;stroke-dasharray:none" />
      <path
         transform="matrix(0.99961018,0,0,1.0003251,165.69636,421.38004)"
         d="m 155.00467,142.00241 c 0,3.31263 -2.68733,5.99805 -6.00234,5.99805 -3.315,0 -6.00234,-2.68542 -6.00234,-5.99805 0,-3.31263 2.68734,-5.99805 6.00234,-5.99805 3.31501,0 6.00234,2.68542 6.00234,5.99805 z"
         sodipodi:ry="5.9980502"
         sodipodi:rx="6.0023398"
         sodipodi:cy="142.00241"
         sodipodi:cx="149.00233"
         id="path5194"
         style="fill:#000000;fill-opacity:1;fill-rule:evenodd;stroke:none"
         sodipodi:type="arc" />
    </g>
    <g
       style="display:inline"
       transform="matrix(0.7066189,-0.7066189,-0.70660756,-0.70660756,-1011.2238,609.17366)"
       id="g5196">
      <path
         style="fill:#000000;stroke:#000000;stroke-width:0;stroke-linecap:butt;stroke-linejoin:miter;stroke-miterlimit:4;stroke-opacity:1;stroke-dasharray:none"
         d="m 170.64061,426.42817 292.00001,0 c 0,0 -37.99611,29.97758 -37.99611,133.4939 0,98.52014 37.99611,133.5061 37.99611,133.5061 0,0 -48,-16.96406 -48,-133.5061 0,-109.0069 42.00389,-131.49387 42.00389,-131.49387 0,0 -7.35937,6.00041 -139.91795,5.9962 -146.08595,-0.005 -146.08595,-7.99623 -146.08595,-7.99623 z"
         id="path5198"
         inkscape:connector-curvature="0"
         sodipodi:nodetypes="ccscscsc" />
      <path
         sodipodi:type="arc"
         style="fill:#000000;fill-opacity:1;fill-rule:evenodd;stroke:none"
         id="path5200"
         sodipodi:cx="149.00233"
         sodipodi:cy="142.00241"
         sodipodi:rx="6.0023398"
         sodipodi:ry="5.9980502"
         d="m 155.00467,142.00241 c 0,3.31263 -2.68733,5.99805 -6.00234,5.99805 -3.315,0 -6.00234,-2.68542 -6.00234,-5.99805 0,-3.31263 2.68734,-5.99805 6.00234,-5.99805 3.31501,0 6.00234,2.68542 6.00234,5.99805 z"
         transform="matrix(0.99961018,0,0,1.0003251,165.69636,421.38004)" />
    </g>
    <g
       style="display:inline"
       transform="matrix(0.70661889,-0.70661889,0.70659766,0.70659766,-1802.5159,-182.11853)"
       id="g5202">
      <path
         style="fill:#000000;stroke:#000000;stroke-width:0;stroke-linecap:butt;stroke-linejoin:miter;stroke-miterlimit:4;stroke-opacity:1;stroke-dasharray:none"
         d="m 170.64061,426.42817 292.00001,0 c 0,0 -37.99611,29.97758 -37.99611,133.4939 0,98.52014 37.99611,133.5061 37.99611,133.5061 0,0 -48,-16.96406 -48,-133.5061 0,-109.0069 42.00389,-131.49387 42.00389,-131.49387 0,0 -7.35937,6.00041 -139.91795,5.9962 -146.08595,-0.005 -146.08595,-7.99623 -146.08595,-7.99623 z"
         id="path5204"
         inkscape:connector-curvature="0"
         sodipodi:nodetypes="ccscscsc" />
      <path
         sodipodi:type="arc"
         style="fill:#000000;fill-opacity:1;fill-rule:evenodd;stroke:none"
         id="path5206"
         sodipodi:cx="149.00233"
         sodipodi:cy="142.00241"
         sodipodi:rx="6.0023398"
         sodipodi:ry="5.9980502"
         d="m 155.00467,142.00241 c 0,3.31263 -2.68733,5.99805 -6.00234,5.99805 -3.315,0 -6.00234,-2.68542 -6.00234,-5.99805 0,-3.31263 2.68734,-5.99805 6.00234,-5.99805 3.31501,0 6.00234,2.68542 6.00234,5.99805 z"
         transform="matrix(0.99961018,0,0,1.0003251,165.69636,421.38004)" />
    </g>
    <g
       style="display:inline"
       id="g5208"
       transform="matrix(0.7066189,-0.7066189,0.70660756,0.70660756,-1802.5242,-182.12687)">
      <path
         sodipodi:nodetypes="ccscscsc"
         inkscape:connector-curvature="0"
         id="path5210"
         d="m 170.64061,426.42817 292.00001,0 c 0,0 -37.99611,29.97758 -37.99611,133.4939 0,98.52014 37.99611,133.5061 37.99611,133.5061 0,0 -48,-16.96406 -48,-133.5061 0,-109.0069 42.00389,-131.49387 42.00389,-131.49387 0,0 -7.35937,6.00041 -139.91795,5.9962 -146.08595,-0.005 -146.08595,-7.99623 -146.08595,-7.99623 z"
         style="fill:#000000;stroke:#000000;stroke-width:0;stroke-linecap:butt;stroke-linejoin:miter;stroke-miterlimit:4;stroke-opacity:1;stroke-dasharray:none" />
      <path
         transform="matrix(0.99961018,0,0,1.0003251,165.69636,421.38004)"
         d="m 155.00467,142.00241 c 0,3.31263 -2.68733,5.99805 -6.00234,5.99805 -3.315,0 -6.00234,-2.68542 -6.00234,-5.99805 0,-3.31263 2.68734,-5.99805 6.00234,-5.99805 3.31501,0 6.00234,2.68542 6.00234,5.99805 z"
         sodipodi:ry="5.9980502"
         sodipodi:rx="6.0023398"
         sodipodi:cy="142.00241"
         sodipodi:cx="149.00233"
         id="path5212"
         style="fill:#000000;fill-opacity:1;fill-rule:evenodd;stroke:none"
         sodipodi:type="arc" />
    </g>
  </g>
</svg>
