<?xml version="1.0" encoding="UTF-8" standalone="no"?>
<!-- Created with Inkscape (http://www.inkscape.org/) -->

<svg
   xmlns:dc="http://purl.org/dc/elements/1.1/"
   xmlns:cc="http://creativecommons.org/ns#"
   xmlns:rdf="http://www.w3.org/1999/02/22-rdf-syntax-ns#"
   xmlns:svg="http://www.w3.org/2000/svg"
   xmlns="http://www.w3.org/2000/svg"
   version="1.1"
   width="311.79059"
   height="310.47357"
   id="svg8906">
  <defs
     id="defs8908" />
  <metadata
     id="metadata8911">
    <rdf:RDF>
      <cc:Work
         rdf:about="">
        <dc:format>image/svg+xml</dc:format>
        <dc:type
           rdf:resource="http://purl.org/dc/dcmitype/StillImage" />
        <dc:title></dc:title>
      </cc:Work>
    </rdf:RDF>
  </metadata>
  <g
     transform="translate(-489.8108,50.279934)"
     id="layer1">
    <path
       d="m 652.68514,20.120791 c 0.01,-5.7772 11.4336,-37.3217 18.4692,-51 l 4.2435,-8.25 -29.7158,0 -29.7158,0 4.2435,8.25 c 7.0356,13.6783 18.4591,45.2228 18.4692,51 0,1.4997 1.0043,1.75 7.0031,1.75 5.9988,0 7.0004,-0.2503 7.0031,-1.75 z m 55.3867,3.0144 c -2.8901,-15.4055996 -19.2565,-57.2644 -22.3898,-57.2644 -1.1165,0 -7.2593,12.2131 -11.4066,22.6789 -3.8091,9.6124004 -11.0086,32.2532 -10.4296,32.7989 0.1849,0.1742 7.5362,1.0555 16.3362,1.9583 8.8,0.9028 18.25,2.0211 21,2.4851 8.0157,1.3524 7.6672,1.4868 6.8898,-2.6568 z m -113.8159,2.284 c 5.4593,-0.7983 15.0563,-1.9161 21.3266,-2.4838 6.2703,-0.5678 11.5966,-1.2284 11.8362,-1.468 0.6556,-0.6556 -6.1909,-22.4721996 -10.3301,-32.9177 -4.1473,-10.4658 -10.2901,-22.6789 -11.4066,-22.6789 -0.4138,0 -2.3311,3.0375 -4.2607,6.75 -8.3712,16.1054 -20.9998,54.25 -17.9608,54.25 0.4781,0 5.336,-0.6532 10.7954,-1.4516 z m 159.3663,6.7016 c 3.8655,-17.6617 16.6187,-48.9184 26.0567,-63.8625 2.2017,-3.4862 4.0031,-6.5745 4.0031,-6.863 0,-0.2885 -19.7414,-0.5245 -43.8698,-0.5245 l -43.8697,0 3.8413,7.3308 c 7.2159,13.7707 14.3709,33.6873004 20.1533,56.0982 l 1.2717,4.929 10.9866,2.7608 c 6.0426,1.5185 12.7866,3.4312 14.9866,4.2505 2.2,0.8194 4.2659,1.5215 4.5909,1.5602 0.3249,0.039 1.1571,-2.517 1.8493,-5.6795 z m -198.5197,1.3502 c 7.1062,-1.9801 13.4572,-3.6002 14.1133,-3.6002 0.6567,0 1.7826,-2.8093 2.5047,-6.25 3.324,-15.8372996 11.8598,-39.7749 19.4338,-54.5 l 4.2435,-8.25 -43.8579,0 c -24.1219,0 -43.8579,0.236 -43.8579,0.5245 0,0.2885 1.8014,3.3768 4.0031,6.863 9.455,14.971 22.19,46.1989 26.0725,63.9334 0.986,4.5035 1.6308,5.7143 2.8494,5.3502 0.8662,-0.2588 7.3892,-2.0907 14.4955,-4.0709 z m 92.5,10.6498 c 0.7369,-4.8125 1.5544,-9.3125 1.8166,-10 0.3348,-0.8777 -0.7783,-1.25 -3.7371,-1.25 -2.9588,0 -4.072,0.3723 -3.7371,1.25 0.2622,0.6875 1.0797,5.1875 1.8166,10 0.7369,4.8125 1.6012,8.75 1.9205,8.75 0.3193,0 1.1836,-3.9375 1.9205,-8.75 z m 121.7577,29.6745 c 12.3242,-5.1138 16.3218,-7.0547 16.3218,-7.9245 0,-0.3768 -1.575,-1.5333 -3.5,-2.5699 -1.925,-1.0367 -3.5,-2.1792 -3.5,-2.5388 0,-0.8602 -17.0491,-8.1755 -17.651,-7.5736 -0.6079,0.6079 -3.3079,18.3851 -3.3311,21.9323 -0.01,1.5125 0.3998,2.75 0.9103,2.75 0.5106,0 5.3481,-1.834 10.75,-4.0755 z m -236.6511,-7.1701 c -1.9206,-15.1795 -0.7213,-14.4617 -13.7771,-8.2456 -6.1875,2.946 -11.25,5.8291 -11.25,6.4069 0,1.599 24.8165,13.6012 25.8942,12.5234 0.2367,-0.2367 -0.1535,-5.0448 -0.8671,-10.6847 z m 205.5193,18.1031 7.3738,-2.1426 0.48,-4.1074 c 0.264,-2.2591 1.208,-9.6839 2.0979,-16.4995 0.8898,-6.8156 1.2542,-12.7387 0.8099,-13.1623 -0.9977,-0.951 -16.3971,-5.5845 -21.695,-6.5277 l -3.887,-0.692 0.6153,3.387 c 0.6755,3.7191 3.1374,24.4819 4.1662,35.137 0.3584,3.7125 1.1047,6.75 1.6584,6.75 0.5537,0 4.3249,-0.9641 8.3805,-2.1425 z m -175.0645,-4.6075 c 0.3526,-3.7125 1.4929,-13.708 2.534,-22.2122 1.0411,-8.5043 1.7221,-15.6332 1.5132,-15.842 -0.4709,-0.4709 -22.5991,5.6114 -24.3484,6.6925 -1.0223,0.6318 -0.9564,3.3151 0.3367,13.6987 2.6565,21.333 1.7889,19.507 10.4826,22.0614 4.125,1.212 7.8017,2.2369 8.1704,2.2776 0.3687,0.041 0.9589,-2.9635 1.3115,-6.676 z m 116.759,15.1726 c 15.0393,-1.5547 36.5591,-4.8893 37.477,-5.8072 1.0797,-1.0796 -4.7754,-49.0062 -6.1556,-50.3864 -1.309,-1.309 -49.0226,-7.102 -50.0482,-6.0765 -1.6098,1.6099 -7.5141,47.8273 -7.5141,58.8191 l 0,5.0284 5.4909,0 c 3.0199,0 12.3574,-0.7098 20.75,-1.5774 z m -42.5992,-9.2719 c -0.785,-12.926 -3.0976,-32.2741 -5.3125,-44.4479 l -1.6006,-8.7972 -7.1143,0.6244 c -11.2539,0.9876 -29.5082,3.211 -36.7505,4.4763 l -6.6362,1.1594 -1.0934,5.6671 c -1.1187,5.7987 -3.4912,25.0423 -4.6595,37.7946 l -0.6531,7.1275 6.3392,1.1207 c 18.4462,3.261 39.8451,5.7381 51.7395,5.9893 l 6.4004,0.1351 -0.659,-10.8493 z m 80.3583,19.038999 0,-3.8102 -9.5,1.5504 c -5.225,0.8527 -9.5,1.7922 -9.5,2.0877 0,0.2956 4.1625,1.2538 9.25,2.1294 5.0875,0.8756 9.3625,1.6507 9.5,1.7225 0.1375,0.072 0.25,-1.5841 0.25,-3.6798 z m -132.25,1.6896 c 4.5375,-0.6739 8.25,-1.5196 8.25,-1.8793 0,-0.3597 -3.7125,-1.2054 -8.25,-1.8793 -4.5375,-0.674 -9.0375,-1.4572 -10,-1.7404 -1.4676,-0.4319 -1.75,0.1523 -1.75,3.6197 0,3.4674 0.2824,4.0516 1.75,3.6197 0.9625,-0.2832 5.4625,-1.0664 10,-1.7404 z m 160.25,-1.7643 0,-10.885099 -7.25,1.9978 c -3.9875,1.0988 -7.8125,2.158 -8.5,2.3537 -0.8234,0.2344 -1.25,2.424799 -1.25,6.418599 0,3.9898 0.4274,6.187 1.25,6.426 0.6875,0.1997 4.4,1.2645 8.25,2.3661 3.85,1.1016 7.1125,2.049 7.25,2.1054 0.1375,0.056 0.25,-4.7958 0.25,-10.7825 z m -190.25,8.3006 7.25,-1.8586 0,-6.557 0,-6.556999 -7.25,-1.8586 c -3.9875,-1.0222 -7.8125,-2.07 -8.5,-2.3285 -0.9536,-0.3585 -1.25,2.189 -1.25,10.744099 0,8.5551 0.2964,11.1026 1.25,10.7441 0.6875,-0.2585 4.5125,-1.3063 8.5,-2.3285 z m 215.0766,40.011 c 11.0785,-4.5644 15.1734,-6.5686 15.1734,-7.4266 0,-0.3768 -1.575,-1.5333 -3.5,-2.5699 -1.925,-1.0367 -3.5,-2.1829 -3.5,-2.5471 0,-1.0487 -19.9349,-9.2814 -20.6771,-8.5392 -1.0491,1.049 2.17,24.6562 3.3621,24.6562 0.2575,0 4.3712,-1.608 9.1416,-3.5734 z m -238.2871,-6.5674 c 1.9537,-12.8353 1.9105,-14.9542 -0.2895,-14.1829 -5.9863,2.0988 -24.25,11.3787 -24.25,12.3216 0,1.0498 22.107,12.2284 22.8043,11.5312 0.1708,-0.1709 0.9516,-4.5223 1.7352,-9.6699 z m 207.4605,17.498 c 4.675,-1.393 8.8636,-2.8793 9.308,-3.3029 0.4443,-0.4236 0.08,-6.3467 -0.8099,-13.1623 -0.8899,-6.8156 -1.8339,-14.2404 -2.0979,-16.4995 l -0.48,-4.1074 -7.3738,-2.1426 c -4.0556,-1.1784 -7.8268,-2.1425 -8.3805,-2.1425 -0.5537,0 -1.2887,3.0375 -1.6334,6.75 -1.0604,11.4212 -3.4455,31.5672 -4.1603,35.14 l -0.6782,3.39 3.903,-0.695 c 2.1467,-0.3823 7.728,-1.8348 12.403,-3.2278 z m -172.4002,0.3928 c -0.6915,-3.4565 -3.089,-23.7625 -4.1322,-34.9991 -0.7105,-7.6523 0.3975,-7.2805 -11.3446,-3.807 -5.1497,1.5234 -5.6809,1.9535 -6.3103,5.1098 -1.3639,6.8391 -3.8807,29.2116 -3.3463,29.746 0.684,0.684 22.536,7.0872 24.4086,7.1524 1.0222,0.036 1.2081,-0.7861 0.7248,-3.2021 z m 121.4002,9.6834 c 18.9778,-2.2117 22.7099,-3.1285 23.3431,-5.7345 1.9246,-7.9201 6.2872,-47.4019 5.3422,-48.3469 -1.6802,-1.6802 -46.6885,-7.352 -58.3412,-7.352 l -5.6376,0 0.7001,11.7113 c 0.787,13.1623 2.8338,30.5898 5.0843,43.2887 0.8285,4.675 1.507,8.6654 1.5077,8.8675 0,0.4714 12.076,-0.5781 28.0014,-2.4341 z m -40.8776,-6.9289 c -0.8261,-5.225 -1.7812,-9.5 -2.1224,-9.5 -0.3412,0 -1.2963,4.275 -2.1224,9.5 l -1.5019,9.5 3.6243,0 3.6243,0 -1.5019,-9.5 z m -17.121,9.25 c 7e-4,-0.1375 0.6792,-4.075 1.5077,-8.75 2.2588,-12.7457 4.2982,-30.1409 5.0937,-43.4461 l 0.7095,-11.8687 -10.9061,0.6864 c -16.8665,1.0614 -51.8299,5.7187 -53.1974,7.0862 -0.8562,0.8562 3.6583,40.8727 5.4378,48.2004 0.4257,1.7529 1.6818,2.3651 6.6888,3.2598 11.6771,2.0868 44.6615,5.6551 44.666,4.832 z m 61.4755,56 c 2.9358,-6.1875 6.8911,-15.75 8.7896,-21.25 3.8273,-11.0878 8.2667,-27.31 7.6381,-27.911 -0.2225,-0.2128 -6.9296,0.4266 -14.9046,1.4208 -7.975,0.9943 -18.0143,2.1147 -22.3095,2.4899 l -7.8095,0.6821 0.6695,3.1591 c 2.976,14.0395 18.705,52.6546 21.4495,52.6546 0.6265,0 3.5411,-5.0625 6.4769,-11.25 z m -79.8069,-0.3859 c 4.9886,-10.495 13.0557,-32.889 14.782,-41.0344 l 0.6719,-3.1703 -5.312,-0.5451 c -12.1799,-1.2498 -32.5733,-3.6473 -36.0619,-4.2394 -4.7241,-0.8019 -4.7226,-0.9138 -0.2028,14.7892 5.5012,19.1127 16.8896,45.8359 19.5335,45.8359 0.5821,0 3.5473,-5.2362 6.5893,-11.6359 z m 171.33,16.1114 c 0,-0.2885 -1.8014,-3.3768 -4.0031,-6.863 -9.4482,-14.9601 -22.1905,-46.1997 -26.0662,-63.9048 -0.9107,-4.1605 -1.6521,-5.6448 -2.6318,-5.2689 -3.5265,1.3532 -15.7965,4.8555 -22.333,6.3745 l -7.2607,1.6874 -3.2883,12.4996 c -4.4865,17.054 -8.5365,28.2532 -15.5119,42.8932 -3.2478,6.8164 -5.905,12.5539 -5.905,12.75 0,0.1961 19.575,0.3565 43.5,0.3565 23.925,0 43.5,-0.236 43.5,-0.5245 z m -109,0 c 0,-0.286 -1.9649,-4.4485 -4.3664,-9.25 -6.1318,-12.2599 -10.9841,-24.8 -14.994,-38.7499 l -3.4436,-11.9801 -6.196,0 -6.196,0 -3.4436,11.9801 c -4.0099,13.9499 -8.8622,26.49 -14.9941,38.7499 -2.4014,4.8015 -4.3663,8.964 -4.3663,9.25 0,0.286 13.05,0.52 29,0.52 15.95,0 29,-0.234 29,-0.52 z m -80,0.1635 c 0,-0.1961 -2.6573,-5.9336 -5.905,-12.75 -6.974,-14.6371 -11.0254,-25.8392 -15.5085,-42.8802 l -3.2849,-12.4867 -13.4008,-3.7353 c -7.3704,-2.0544 -14.3352,-4.0021 -15.4772,-4.3282 -1.8436,-0.5263 -2.219,0.059 -3.3493,5.2221 -3.8811,17.7282 -16.6176,48.9586 -26.0712,63.9273 -2.2017,3.4862 -4.0031,6.5745 -4.0031,6.863 0,0.2885 19.575,0.5245 43.5,0.5245 23.925,0 43.5,-0.1604 43.5,-0.3565 z m -45.831,11.3565 c -54.3009,-0.482 -56.3822,-0.57 -57.75,-2.4411 -2.0862,-2.8539 -1.7832,-4.1471 1.9466,-8.306 12.2249,-13.6315 28.1537,-48.6124 33.9355,-74.5248 l 1.5109,-6.7719 -10.6283,-5.0134 c -14.5467,-6.8617 -25.9713,-13.6981 -26.6934,-15.9733 -0.9249,-2.9142 1.143,-5.7601 6.8233,-9.39 6.0571,-3.8708 20.3069,-11.0397 29.9364,-15.0609 l 6.75,-2.8186 0,-14.7 0,-14.699999 -6.75,-2.8182 c -17.2807,-7.2149 -35.8408,-17.6171 -36.7945,-20.6219 -1.4418,-4.5427 5.3545,-9.6306 25.926,-19.4089 l 11.4252,-5.4308 -1.5083,-6.7601 c -2.5446,-11.4046 -10.1666,-33.1348996 -15.6917,-44.7366996 -4.6306,-9.7236004 -10.6556,-19.6847004 -19.1761,-31.7042004 -2.8057,-3.9578 -2.6586,-7.2143 0.3871,-8.570303 0.9253,-0.4119 70.2311,-0.5239 154.013,-0.2489 149.3359,0.4902 152.3587,0.5382 153.75,2.441103 2.0866,2.8538 1.7836,4.147 -1.9463,8.306 -12.1965,13.5998 -28.1574,48.6205004 -33.9056,74.3938 l -1.4811,6.6408 7.0227,2.8272 c 3.8625,1.5549 7.5193,3.3131 8.1262,3.9071 0.6068,0.5939 4.9431,3.1661 9.636,5.7158 14.2572,7.7462 16.717,11.4316 11.0909,16.617 -3.8335,3.5332 -17.0542,10.125 -30.8414,15.3775 l -11.218,4.2737 -0.01,14.499999 -0.01,14.5 10.0731,3.9186 c 5.5403,2.1552 10.592,4.4268 11.2261,5.048 0.634,0.6211 4.9925,3.2155 9.6854,5.7652 14.2572,7.7462 16.717,11.4316 11.0909,16.617 -3.4069,3.14 -16.3786,9.7961 -27.7451,14.2367 l -8.1215,3.1728 1.4765,6.6209 c 5.6663,25.4083 19.4595,55.9454 33.6911,74.5898 3.9017,5.1115 4.2084,6.2832 2.3208,8.8646 -1.1685,1.598 -7.9164,1.7314 -98.25,1.9411 -53.3474,0.1239 -122.3443,3e-4 -153.3263,-0.2747 z"
       id="path5655"
       style="fill:#000000;fill-opacity:1;stroke:none;display:inline" />
  </g>
</svg>
