<?xml version="1.0" encoding="UTF-8" standalone="no"?>
<!-- Created with Inkscape (http://www.inkscape.org/) -->

<svg
   xmlns:dc="http://purl.org/dc/elements/1.1/"
   xmlns:cc="http://creativecommons.org/ns#"
   xmlns:rdf="http://www.w3.org/1999/02/22-rdf-syntax-ns#"
   xmlns:svg="http://www.w3.org/2000/svg"
   xmlns="http://www.w3.org/2000/svg"
   version="1.1"
   width="499.83377"
   height="463.81696"
   id="svg8906">
  <defs
     id="defs8908" />
  <metadata
     id="metadata8911">
    <rdf:RDF>
      <cc:Work
         rdf:about="">
        <dc:format>image/svg+xml</dc:format>
        <dc:type
           rdf:resource="http://purl.org/dc/dcmitype/StillImage" />
        <dc:title></dc:title>
      </cc:Work>
    </rdf:RDF>
  </metadata>
  <g
     transform="translate(-532.05067,237.78939)"
     id="layer1">
    <path
       d="m 911.5389,-117.54384 c -0.8643,-0.8643 -1.5714,-1.9572 -1.5714,-2.4286 0,-1.1057 2.8868,-4 3.9896,-4 4.0788,0 5.5938,5.0822 2.0761,6.9648 -2.5015,1.3388 -2.6352,1.3229 -4.4943,-0.5362 z m -263.82139,0.4913 c -3.3354,-1.9427 -1.7096,-6.9199 2.2604,-6.9199 1.1028,0 3.9896,2.8943 3.9896,4 0,1.0335 -2.8676,4.0123 -3.8214,3.9696 -0.3732,-0.017 -1.4661,-0.4891 -2.4286,-1.0497 z m 263.82139,227.5087 c -0.8643,-0.8643 -1.5714,-1.9572 -1.5714,-2.4286 0,-0.9127 2.8073,-4 3.6372,-4 1.9353,0 4.3628,2.4639 4.3628,4.4282 0,3.5255 -3.7398,4.6892 -6.4286,2.0004 z m -264.32139,0.9091 c -1.9497,-0.7867 -1.4764,-5.1462 0.6843,-6.3025 1.0638,-0.5694 2.1567,-1.0352 2.4285,-1.0352 0.8299,0 3.6372,3.0873 3.6372,4 0,1.3009 -2.9863,4.0105 -4.3214,3.9211 -0.6482,-0.044 -1.7411,-0.306 -2.4286,-0.5834 z m 150.27319,112.6878 c -1.71342,-1.8932 -1.71372,-2.0884 -0.01,-4.75 0.9784,-1.5266 2.4143,-3.4506 3.1909,-4.2756 3.3132,-3.5194 10.8635,-17.0192 15.3806,-27.5 4.5657,-10.5937 9.2067,-28.1115 12.5841,-47.5 2.5534,-14.6579 2.586,-50.223899 0.059,-64.499999 -4.3841,-24.7688 -9.7442,-42.3219 -17.7409,-58.0976 -3.094,-6.1036 -6.1541,-11.7286004 -6.8002,-12.5000004 -4.9761,-5.9432 -8.1867,-10.2177 -8.1867,-10.9023 0,-0.6846 3.2106,-4.9590996 8.1889,-10.9023996 0.6461,-0.7714 3.7062,-6.3964 6.8002,-12.5 7.9967,-15.7757 13.3568,-33.3288 17.7409,-58.0976 2.5269,-14.276101 2.4943,-49.842101 -0.059,-64.500001 -3.3774,-19.3885 -8.0184,-36.9063 -12.5841,-47.5 -4.5171,-10.4808 -12.0674,-23.9806 -15.3806,-27.5 -0.7766,-0.825 -2.2241,-2.7666 -3.2166,-4.3148 -1.76122,-2.7472 -1.75362,-2.8657 0.3183,-4.9375 1.8442,-1.8442 2.4312,-1.9577 4.4735,-0.8647 1.2929,0.6919 4.6699,4.7138 7.5044,8.9375 10.7224,15.9773 18.7778,35.7383 24.6989,60.5897 5.5567,23.3217 5.9847,68.351201 0.861,90.589801 -0.8236,3.575 -1.6918,8.0111 -1.9293,9.8579 -0.2375,1.8469 -0.6439,3.7011 -0.9031,4.1205 -0.2592,0.4194 -1.1303,3.1834 -1.9358,6.1421 -3.479,12.7785 -11.0299,30.1049 -18.5782,42.6295 l -1.9587,3.25 109.3247,0 c 104.642,0 109.3956,0.078 110.9797,1.8286996 2.1511,2.3769 2.0954,4.4627 -0.1737,6.5163 -1.6782,1.5187 -10.8169,1.65499997 -110.9797,1.65499997 l -109.151,0 1.9587,3.25000003 c 7.5483,12.5246004 15.0992,29.8510004 18.5782,42.6295004 0.8055,2.9587 1.6766,5.7227 1.9358,6.1421 0.2592,0.4194 0.6656,2.2736 0.9031,4.1205 0.2375,1.8468 1.1057,6.2829 1.9293,9.8579 3.7733,16.3773 4.7614,48.302399 2.2003,71.089799 -1.8428,16.3975 -4.673,28.4265 -10.8016,45.9102 -6.8941,19.6673 -21.4262,44 -26.278,44 -0.636,0 -1.9605,-0.8885 -2.9432,-1.9744 z m -37.30519,-0.037 c -3.5863,-3.3412 -10.0719,-13.5104 -15.1683,-23.7837 -6.5092,-13.1209 -11.3281,-26.9607 -15.5344,-44.615 -5.5567,-23.3217 -5.9847,-68.351199 -0.861,-90.589799 0.8236,-3.575 1.6918,-8.0111 1.9293,-9.8579 0.2375,-1.8469 0.6439,-3.7011 0.9031,-4.1205 0.2592,-0.4194 1.1303,-3.1834 1.9358,-6.1421 3.479,-12.7785 11.0299,-30.1049 18.5782,-42.6295004 l 1.9587,-3.25000003 -109.3247,0 c -104.64203,0 -109.39561,-0.078 -110.97971,-1.82869997 -2.15105,-2.3769 -2.09544,-4.4627 0.17375,-6.5163 1.67815,-1.5186996 10.8169,-1.6549996 110.97966,-1.6549996 l 109.151,0 -1.9587,-3.25 c -7.5483,-12.5246 -15.0992,-29.851 -18.5782,-42.6295 -0.8055,-2.9587 -1.6766,-5.7227 -1.9358,-6.1421 -0.2592,-0.4194 -0.6656,-2.2736 -0.9031,-4.1205 -0.2375,-1.8468 -1.1057,-6.2829 -1.9293,-9.8579 -5.1237,-22.2386 -4.6957,-67.268101 0.861,-90.589801 5.9211,-24.8514 13.9765,-44.6124 24.6989,-60.5897 2.8345,-4.2237 6.2115,-8.2456 7.5044,-8.9375 2.0423,-1.093 2.6293,-0.9795 4.4735,0.8647 2.0719,2.0718 2.0795,2.1903 0.3183,4.9375 -0.9925,1.5482 -2.44,3.4898 -3.2166,4.3148 -3.3132,3.5194 -10.8635,17.0192 -15.3806,27.5 -4.5657,10.5937 -9.2067,28.1115 -12.5841,47.5 -2.5534,14.6579 -2.586,50.2239 -0.059,64.500001 4.3841,24.7688 9.7442,42.3219 17.7409,58.0976 3.094,6.1036 6.1541,11.7286 6.8002,12.5 4.9783,5.9433 8.1889,10.2177996 8.1889,10.9023996 0,0.6846 -3.2106,4.9591 -8.1889,10.9024 -0.6461,0.7714 -3.7062,6.3964004 -6.8002,12.5000004 -7.9967,15.7757 -13.3568,33.3288 -17.7409,58.0976 -2.5269,14.2761 -2.4943,49.842099 0.059,64.499999 3.3774,19.3885 8.0184,36.9063 12.5841,47.5 4.5171,10.4808 12.0674,23.9806 15.3806,27.5 0.7766,0.825 2.2125,2.749 3.1909,4.2756 1.7058,2.6616 1.7055,2.8568 -0.01,4.75 -2.2558,2.4927 -3.5516,2.485 -6.2588,-0.037 z"
       id="path6151"
       style="fill:#000000;fill-opacity:1;stroke:none;display:inline" />
  </g>
</svg>
