<?xml version="1.0" encoding="utf-8"?>
<!-- Generator: Adobe Illustrator 14.0.0, SVG Export Plug-In . SVG Version: 6.00 Build 43363)  -->
<!DOCTYPE svg PUBLIC "-//W3C//DTD SVG 1.1//EN" "http://www.w3.org/Graphics/SVG/1.1/DTD/svg11.dtd">
<svg version="1.1" id="Layer_1" xmlns="http://www.w3.org/2000/svg" xmlns:xlink="http://www.w3.org/1999/xlink" x="0px" y="0px"
	 width="562px" height="800px" viewBox="0 0 562 800" enable-background="new 0 0 562 800" xml:space="preserve">
<g>
	<path fill-rule="evenodd" clip-rule="evenodd" d="M242.126,88.243c2.068,1.8,4.546,3.191,6.963,4.643
		c-1.949,3.467-4.048,6.785-8.124,8.124C241.228,94.502,239.228,92.531,242.126,88.243z"/>
	<path fill-rule="evenodd" clip-rule="evenodd" d="M88.921,160.203c1.033,0.902,2.621,1.248,4.642,1.161
		c-0.809,3.904,2.386,3.805,3.482,5.803c-1.384,1.676-5.718,1.761-1.161,3.482C91.662,173.658,87.975,166.218,88.921,160.203z"/>
	<path fill-rule="evenodd" clip-rule="evenodd" d="M543.894,413.223c4.354,6.451-0.042,12.5-4.644,16.249
		c-5.82-1.916-9.821-5.653-12.768-10.445C531.805,416.611,534.851,411.919,543.894,413.223z"/>
	<path fill-rule="evenodd" clip-rule="evenodd" d="M339.62,691.776c5.207-23.446,35.908-31.389,48.747-51.067
		c1.349-0.188,2.064,0.256,2.32,1.161c5.395,31.729-30.016,32.637-42.943,49.906C345.166,689.09,343.219,692.171,339.62,691.776z"/>
	<path fill-rule="evenodd" clip-rule="evenodd" d="M95.885,172.97c7.445,5.301,9.905,16.472,13.928,27.855
		c6.703-3.361,5.902-15.527,5.803-22.052c-0.284-18.646-2.626-39.855-1.16-58.032c0.153-3.618,2.631-1.187,6.963-2.321
		c8.309-39.224,8.656-86.021,27.855-111.422c6.218,37.613-8.832,74.566-10.446,112.582c-0.81,19.084,2.333,37.921,0,56.872
		c-1.464,11.892-8.811,22.398-4.643,34.819c4.622-0.408,7.535-2.525,11.606-3.482c0.571-12.661,11.215-28.874,24.373-29.016
		c2.895-5.617,5.35-11.673,6.965-18.57c22.539-2.607,24.014-26.28,40.623-34.819c8.827,8.239-2.375,18.614-4.643,26.695
		c-3.648,12.991-6.585,30.286-11.606,46.426c-4.802,15.432-14.037,30.535-15.088,42.943c-0.633,7.475,3.916,13.853,4.643,20.892
		c0.538,5.201-1.206,9.974-1.161,15.087c0.33,37.226,20.068,64.516,46.426,81.246c20.954-1.147,33.581,18.908,54.549,13.928
		c19.043-4.523,26.686-22.551,38.302-37.141c-1.089-28.559,17.503-37.435,29.017-53.389c2.003-28.086-3.023-57.467-26.695-59.193
		c-29.601-2.159-34.659,29.73-38.302,59.193c-26.206-2.824-25.456-36.106-23.212-63.835c5.557-11.467,10.69-23.354,17.409-33.659
		c10.396-6.664,22.642-15.349,41.783-13.928c16.637,1.236,29.594,12.612,40.623,18.57c11.503,18.286,25.425,34.155,40.622,48.747
		c-1.453,11.513,1.701,18.417,5.804,24.374c-10.963,18.732,6.161,32.822,2.32,54.55c-2.047,11.58-9.293,22.097-12.767,32.498
		c-3.63,10.868-5.643,21.572-10.445,33.658c-27.621,4.877-37.768,27.229-60.353,37.14c-6.416,32.114-42.001,40.268-75.443,38.302
		c-1.557-4.244-3.265-8.342-4.643-12.767c4.291-6.928,10.51-11.929,12.767-20.892c-14.038,4.844-22.941-8.502-39.462-8.124
		c-14.97-21.396-28.894-43.84-44.104-64.996c-6.122-15.931-6.223-37.881-20.892-45.265c-3.69,6.062-5.958,16.82-3.481,25.534
		c-2.939,5.959-9.446,8.351-12.768,13.928c1.688,32.46,2.386,70.179,8.125,100.976c7.81,41.906,24.755,70.82,47.586,98.654
		c13.841,3.183,25.087,8.959,30.177,20.892c2.834,2.942,2.473-2.447,6.964-1.161c10.269,12.944,20.268,26.158,34.819,34.82
		c12.657-2.664,23.441,5.75,34.819,6.964c29.594,3.155,54.902-10.744,77.764-17.41c4.531-5.525,2.498-17.618,4.642-25.534
		c20.133,2.642,32.938,0.727,47.587-8.124c3.234-1.955,5.786-6.22,9.284-8.126c9.087-4.946,17.763-7.966,22.054-17.409
		c10.994-1.385,15.992-8.768,19.729-17.409c20.098-6.212,24.262-28.354,37.141-41.782c6.526,8.885-1.232,16.72-8.124,20.891
		c0.538,68.243-29.771,105.638-59.193,143.92c0,3.095,0,6.189,0,9.285c-33.762,49.804-84.476,82.656-125.348,125.35
		c-14.232-2.148-30.818,9.803-47.588,10.445c-4.422,0.169-8.683-2.085-12.767-1.16c-8.718,1.972-11.604,11.862-18.571,13.927
		c-4.673-3.062-6.714-8.76-11.606-11.605c-15.881-1.434-25.945-1.435-37.141,4.642c-61.427-10.146-95.207-47.939-126.51-88.208
		c-19.086-31.982-29.491-72.646-42.943-110.262c-3.447-13.858,2.883-27.855,1.16-39.462c-1.984-13.373-18.946-20.478-18.57-34.818
		c4.523-7.472,11.742-12.245,15.089-20.893c-1.613-6.898-8.649-8.374-10.446-15.088c16.391-14.946,25.964-36.712,39.462-54.55
		c0-7.351,0-14.702,0-22.052c13.625-9.9,10.684-26.942,16.248-42.944c3.333-9.583,9.498-18.479,11.607-30.177
		c1.252-6.95,0.52-13.811,2.321-20.892c4.33-8.905,12.386-13.81,10.445-22.052c-1.987-8.439-26.43-13.407-25.534-25.534
		c0.939-12.701,24.783-2.488,23.213-18.57c3.086-0.833,11.124-0.418,12.767-5.803c-1.891-8.168,0.59-20.708-4.643-25.534
		c-8.967,2.657-14.106,17.474-9.285,26.695C88.613,226.914,100.147,191.848,95.885,172.97z M388.367,634.905
		c-2.021,0.413-4.912-1.214-6.965-1.161c-10.821,0.282-23.653,5.604-34.818,8.126c-8.447,1.905-17.648,1.589-25.534,4.643
		c-5.161,1.997-6.261,6.333-11.606,6.964c-11.741,1.384-24.583-7.815-37.141-4.644c-8.907-10.35-20.931-5.438-33.659-6.963
		c-38.078-4.562-64.407-38.754-92.851-54.552c-4.291-13.479-0.097-28.418-9.285-37.141c-1.161,0-2.322,0-3.482,0
		c-11.531,8.073-9.206,26.805-1.161,38.302c-3.267,4.858-7.723,8.527-6.964,17.41c4.581,2.77,10.734,3.967,18.57,3.482
		c14.502,14.513,35.907,22.125,47.586,39.461c-3.284,7.022-1.993,12.582,1.161,18.57c-12.157-3.513-28.266,6.671-30.177,20.893
		c22.611-3.762,22.568,26.57,45.265,15.087c11.914,19.81,34.576,28.872,55.711,39.463c8.095-6.361,13.29-2.098,22.052-2.322
		c13.846-0.354,29.011-10.106,39.462-15.087c3.265-1.558,7.441-3.033,10.447-4.645c29.287-15.695,40.773-38.994,63.834-51.067
		c12.428-20.457,26.519-39.252,38.301-60.353C420.299,609.628,408.136,630.872,388.367,634.905z"/>
</g>
</svg>
