<?xml version="1.0" encoding="UTF-8" standalone="no"?>
<!-- Created with Inkscape (http://www.inkscape.org/) -->

<svg
   xmlns:dc="http://purl.org/dc/elements/1.1/"
   xmlns:cc="http://creativecommons.org/ns#"
   xmlns:rdf="http://www.w3.org/1999/02/22-rdf-syntax-ns#"
   xmlns:svg="http://www.w3.org/2000/svg"
   xmlns="http://www.w3.org/2000/svg"
   xmlns:sodipodi="http://sodipodi.sourceforge.net/DTD/sodipodi-0.dtd"
   xmlns:inkscape="http://www.inkscape.org/namespaces/inkscape"
   width="395"
   height="395"
   id="svg2"
   version="1.1"
   inkscape:version="0.48.4 r9939"
   sodipodi:docname="Final Aon Sao.svg">
  <defs
     id="defs4">
    <clipPath
       clipPathUnits="userSpaceOnUse"
       id="clipPath3032">
      <rect
         style="fill:#ffaaaa;fill-opacity:1;fill-rule:evenodd;stroke:none"
         id="rect3034"
         width="292"
         height="266.99567"
         x="170.64062"
         y="426.4325" />
    </clipPath>
  </defs>
  <sodipodi:namedview
     id="base"
     pagecolor="#ffffff"
     bordercolor="#666666"
     borderopacity="1.0"
     inkscape:pageopacity="0.0"
     inkscape:pageshadow="2"
     inkscape:zoom="0.7071068"
     inkscape:cx="-42.923979"
     inkscape:cy="159.79664"
     inkscape:document-units="px"
     inkscape:current-layer="layer1"
     showgrid="false"
     showguides="true"
     inkscape:guide-bbox="true"
     inkscape:window-width="1366"
     inkscape:window-height="705"
     inkscape:window-x="-8"
     inkscape:window-y="-8"
     inkscape:window-maximized="1"
     fit-margin-top="0"
     fit-margin-left="0"
     fit-margin-right="0"
     fit-margin-bottom="0">
    <sodipodi:guide
       orientation="1,0"
       position="51.773282,331.26895"
       id="guide2996" />
    <sodipodi:guide
       orientation="1,0"
       position="343.77329,331.26895"
       id="guide2998" />
    <sodipodi:guide
       orientation="0,1"
       position="51.773282,331.26895"
       id="guide3000" />
    <sodipodi:guide
       orientation="0,1"
       position="343.77329,64.273284"
       id="guide3002" />
    <sodipodi:guide
       orientation="1,0"
       position="295.77329,197.77722"
       id="guide3004" />
    <sodipodi:guide
       orientation="1,0"
       position="305.77718,198.02285"
       id="guide3006" />
    <sodipodi:guide
       orientation="0,1"
       position="197.85923,323.27285"
       id="guide3008" />
    <sodipodi:guide
       orientation="1,0"
       position="197.77329,329.26895"
       id="guide3038" />
    <sodipodi:guide
       orientation="0,1"
       position="343.77329,197.77722"
       id="guide3040" />
    <sodipodi:guide
       orientation="1,0"
       position="550.24595,-142.44153"
       id="guide4368" />
    <sodipodi:guide
       orientation="0,1"
       position="550.24595,-142.20325"
       id="guide4370" />
    <sodipodi:guide
       orientation="0,1"
       position="197.77329,72.2694"
       id="guide5920" />
    <sodipodi:guide
       orientation="0,1"
       position="197.77329,69.269399"
       id="guide5922" />
    <sodipodi:guide
       orientation="0,1"
       position="197.77329,326.27331"
       id="guide5924" />
    <sodipodi:guide
       orientation="1,0"
       position="234.0272,197.77722"
       id="guide5926" />
    <sodipodi:guide
       orientation="1,0"
       position="242.02329,197.77722"
       id="guide5928" />
    <sodipodi:guide
       orientation="0,1"
       position="235.77329,254.2694"
       id="guide5938" />
    <sodipodi:guide
       orientation="0,1"
       position="245.77329,277.27331"
       id="guide5940" />
    <sodipodi:guide
       orientation="0,1"
       position="245.77329,118.27722"
       id="guide5942" />
    <sodipodi:guide
       orientation="0,1"
       position="235.77329,141.27331"
       id="guide5944" />
    <sodipodi:guide
       orientation="1,0"
       position="196.02329,69.269399"
       id="guide5996" />
  </sodipodi:namedview>
  <metadata
     id="metadata7">
    <rdf:RDF>
      <cc:Work
         rdf:about="">
        <dc:format>image/svg+xml</dc:format>
        <dc:type
           rdf:resource="http://purl.org/dc/dcmitype/StillImage" />
        <dc:title />
      </cc:Work>
    </rdf:RDF>
  </metadata>
  <g
     inkscape:label="New Aon"
     inkscape:groupmode="layer"
     id="layer1"
     transform="translate(-118.86733,-362.70149)"
     style="display:inline">
    <g
       id="g3822"
       transform="matrix(0.99931006,0,0,0.99928005,-0.05481998,0.68037071)">
      <path
         sodipodi:nodetypes="ccscscsc"
         inkscape:connector-curvature="0"
         id="path3044"
         d="m 170.64061,426.42817 292.00001,0 c 0,0 -37.99611,29.97758 -37.99611,133.4939 0,98.52014 37.99611,133.5061 37.99611,133.5061 0,0 -48,-16.96406 -48,-133.5061 0,-109.0069 42.00389,-131.49387 42.00389,-131.49387 0,0 -7.35937,6.00041 -139.91795,5.9962 -146.08595,-0.005 -146.08595,-7.99623 -146.08595,-7.99623 z"
         style="fill:#000000;stroke:#000000;stroke-width:0;stroke-linecap:butt;stroke-linejoin:miter;stroke-miterlimit:4;stroke-opacity:1;stroke-dasharray:none" />
      <path
         transform="matrix(0.99961018,0,0,1.0003251,165.69636,421.38004)"
         d="m 155.00467,142.00241 c 0,3.31263 -2.68733,5.99805 -6.00234,5.99805 -3.315,0 -6.00234,-2.68542 -6.00234,-5.99805 0,-3.31263 2.68734,-5.99805 6.00234,-5.99805 3.31501,0 6.00234,2.68542 6.00234,5.99805 z"
         sodipodi:ry="5.9980502"
         sodipodi:rx="6.0023398"
         sodipodi:cy="142.00241"
         sodipodi:cx="149.00233"
         id="path3052"
         style="fill:#000000;fill-opacity:1;fill-rule:evenodd;stroke:none"
         sodipodi:type="arc" />
    </g>
    <g
       transform="matrix(0.99931008,0,0,0.99929404,-0.05481998,0.66857904)"
       id="g4800">
      <path
         style="fill:#000000;stroke:#000000;stroke-width:0;stroke-linecap:butt;stroke-linejoin:miter;stroke-miterlimit:4;stroke-opacity:1;stroke-dasharray:none"
         d="m 170.64061,426.42817 292.00001,0 c 0,0 -37.99611,29.97758 -37.99611,133.4939 0,98.52014 37.99611,133.5061 37.99611,133.5061 0,0 -48,-16.96406 -48,-133.5061 0,-109.0069 42.00389,-131.49387 42.00389,-131.49387 0,0 -7.35937,6.00041 -139.91795,5.9962 -146.08595,-0.005 -146.08595,-7.99623 -146.08595,-7.99623 z"
         id="path4802"
         inkscape:connector-curvature="0"
         sodipodi:nodetypes="ccscscsc" />
      <path
         sodipodi:type="arc"
         style="fill:#000000;fill-opacity:1;fill-rule:evenodd;stroke:none"
         id="path4804"
         sodipodi:cx="149.00233"
         sodipodi:cy="142.00241"
         sodipodi:rx="6.0023398"
         sodipodi:ry="5.9980502"
         d="m 155.00467,142.00241 c 0,3.31263 -2.68733,5.99805 -6.00234,5.99805 -3.315,0 -6.00234,-2.68542 -6.00234,-5.99805 0,-3.31263 2.68734,-5.99805 6.00234,-5.99805 3.31501,0 6.00234,2.68542 6.00234,5.99805 z"
         transform="matrix(0.99961018,0,0,1.0003251,165.69636,421.38004)" />
    </g>
    <g
       transform="matrix(0.99931006,0,0,-0.99928005,-0.05481998,1119.7248)"
       id="g4842">
      <path
         style="fill:#000000;stroke:#000000;stroke-width:0;stroke-linecap:butt;stroke-linejoin:miter;stroke-miterlimit:4;stroke-opacity:1;stroke-dasharray:none"
         d="m 170.64061,426.42817 292.00001,0 c 0,0 -37.99611,29.97758 -37.99611,133.4939 0,98.52014 37.99611,133.5061 37.99611,133.5061 0,0 -48,-16.96406 -48,-133.5061 0,-109.0069 42.00389,-131.49387 42.00389,-131.49387 0,0 -7.35937,6.00041 -139.91795,5.9962 -146.08595,-0.005 -146.08595,-7.99623 -146.08595,-7.99623 z"
         id="path4844"
         inkscape:connector-curvature="0"
         sodipodi:nodetypes="ccscscsc" />
      <path
         sodipodi:type="arc"
         style="fill:#000000;fill-opacity:1;fill-rule:evenodd;stroke:none"
         id="path4846"
         sodipodi:cx="149.00233"
         sodipodi:cy="142.00241"
         sodipodi:rx="6.0023398"
         sodipodi:ry="5.9980502"
         d="m 155.00467,142.00241 c 0,3.31263 -2.68733,5.99805 -6.00234,5.99805 -3.315,0 -6.00234,-2.68542 -6.00234,-5.99805 0,-3.31263 2.68734,-5.99805 6.00234,-5.99805 3.31501,0 6.00234,2.68542 6.00234,5.99805 z"
         transform="matrix(0.99961018,0,0,1.0003251,165.69636,421.38004)" />
    </g>
    <g
       id="g4848"
       transform="matrix(0.99931008,0,0,-0.99929404,-0.05481998,1119.7366)">
      <path
         sodipodi:nodetypes="ccscscsc"
         inkscape:connector-curvature="0"
         id="path4850"
         d="m 170.64061,426.42817 292.00001,0 c 0,0 -37.99611,29.97758 -37.99611,133.4939 0,98.52014 37.99611,133.5061 37.99611,133.5061 0,0 -48,-16.96406 -48,-133.5061 0,-109.0069 42.00389,-131.49387 42.00389,-131.49387 0,0 -7.35937,6.00041 -139.91795,5.9962 -146.08595,-0.005 -146.08595,-7.99623 -146.08595,-7.99623 z"
         style="fill:#000000;stroke:#000000;stroke-width:0;stroke-linecap:butt;stroke-linejoin:miter;stroke-miterlimit:4;stroke-opacity:1;stroke-dasharray:none" />
      <path
         transform="matrix(0.99961018,0,0,1.0003251,165.69636,421.38004)"
         d="m 155.00467,142.00241 c 0,3.31263 -2.68733,5.99805 -6.00234,5.99805 -3.315,0 -6.00234,-2.68542 -6.00234,-5.99805 0,-3.31263 2.68734,-5.99805 6.00234,-5.99805 3.31501,0 6.00234,2.68542 6.00234,5.99805 z"
         sodipodi:ry="5.9980502"
         sodipodi:rx="6.0023398"
         sodipodi:cy="142.00241"
         sodipodi:cx="149.00233"
         id="path4852"
         style="fill:#000000;fill-opacity:1;fill-rule:evenodd;stroke:none"
         sodipodi:type="arc" />
    </g>
    <g
       transform="matrix(0.99931006,0,0,0.99928005,-0.05481998,0.67824899)"
       id="g4854">
      <path
         style="fill:#000000;stroke:#000000;stroke-width:0;stroke-linecap:butt;stroke-linejoin:miter;stroke-miterlimit:4;stroke-opacity:1;stroke-dasharray:none"
         d="m 170.64061,426.42817 292.00001,0 c 0,0 -37.99611,29.97758 -37.99611,133.4939 0,98.52014 37.99611,133.5061 37.99611,133.5061 0,0 -48,-16.96406 -48,-133.5061 0,-109.0069 42.00389,-131.49387 42.00389,-131.49387 0,0 -7.35937,6.00041 -139.91795,5.9962 -146.08595,-0.005 -146.08595,-7.99623 -146.08595,-7.99623 z"
         id="path4856"
         inkscape:connector-curvature="0"
         sodipodi:nodetypes="ccscscsc" />
      <path
         sodipodi:type="arc"
         style="fill:#000000;fill-opacity:1;fill-rule:evenodd;stroke:none"
         id="path4858"
         sodipodi:cx="149.00233"
         sodipodi:cy="142.00241"
         sodipodi:rx="6.0023398"
         sodipodi:ry="5.9980502"
         d="m 155.00467,142.00241 c 0,3.31263 -2.68733,5.99805 -6.00234,5.99805 -3.315,0 -6.00234,-2.68542 -6.00234,-5.99805 0,-3.31263 2.68734,-5.99805 6.00234,-5.99805 3.31501,0 6.00234,2.68542 6.00234,5.99805 z"
         transform="matrix(0.99961018,0,0,1.0003251,165.69636,421.38004)" />
    </g>
    <g
       id="g4860"
       transform="matrix(0.99931008,0,0,0.99929404,-0.05481998,0.66645732)">
      <path
         sodipodi:nodetypes="ccscscsc"
         inkscape:connector-curvature="0"
         id="path4862"
         d="m 170.64061,426.42817 292.00001,0 c 0,0 -37.99611,29.97758 -37.99611,133.4939 0,98.52014 37.99611,133.5061 37.99611,133.5061 0,0 -48,-16.96406 -48,-133.5061 0,-109.0069 42.00389,-131.49387 42.00389,-131.49387 0,0 -7.35937,6.00041 -139.91795,5.9962 -146.08595,-0.005 -146.08595,-7.99623 -146.08595,-7.99623 z"
         style="fill:#000000;stroke:#000000;stroke-width:0;stroke-linecap:butt;stroke-linejoin:miter;stroke-miterlimit:4;stroke-opacity:1;stroke-dasharray:none" />
      <path
         transform="matrix(0.99961018,0,0,1.0003251,165.69636,421.38004)"
         d="m 155.00467,142.00241 c 0,3.31263 -2.68733,5.99805 -6.00234,5.99805 -3.315,0 -6.00234,-2.68542 -6.00234,-5.99805 0,-3.31263 2.68734,-5.99805 6.00234,-5.99805 3.31501,0 6.00234,2.68542 6.00234,5.99805 z"
         sodipodi:ry="5.9980502"
         sodipodi:rx="6.0023398"
         sodipodi:cy="142.00241"
         sodipodi:cx="149.00233"
         id="path4864"
         style="fill:#000000;fill-opacity:1;fill-rule:evenodd;stroke:none"
         sodipodi:type="arc" />
    </g>
    <g
       id="g4866"
       transform="matrix(0.99931006,0,0,-0.99928005,-0.05481998,1119.7227)">
      <path
         sodipodi:nodetypes="ccscscsc"
         inkscape:connector-curvature="0"
         id="path4868"
         d="m 170.64061,426.42817 292.00001,0 c 0,0 -37.99611,29.97758 -37.99611,133.4939 0,98.52014 37.99611,133.5061 37.99611,133.5061 0,0 -48,-16.96406 -48,-133.5061 0,-109.0069 42.00389,-131.49387 42.00389,-131.49387 0,0 -7.35937,6.00041 -139.91795,5.9962 -146.08595,-0.005 -146.08595,-7.99623 -146.08595,-7.99623 z"
         style="fill:#000000;stroke:#000000;stroke-width:0;stroke-linecap:butt;stroke-linejoin:miter;stroke-miterlimit:4;stroke-opacity:1;stroke-dasharray:none" />
      <path
         transform="matrix(0.99961018,0,0,1.0003251,165.69636,421.38004)"
         d="m 155.00467,142.00241 c 0,3.31263 -2.68733,5.99805 -6.00234,5.99805 -3.315,0 -6.00234,-2.68542 -6.00234,-5.99805 0,-3.31263 2.68734,-5.99805 6.00234,-5.99805 3.31501,0 6.00234,2.68542 6.00234,5.99805 z"
         sodipodi:ry="5.9980502"
         sodipodi:rx="6.0023398"
         sodipodi:cy="142.00241"
         sodipodi:cx="149.00233"
         id="path4870"
         style="fill:#000000;fill-opacity:1;fill-rule:evenodd;stroke:none"
         sodipodi:type="arc" />
    </g>
    <g
       transform="matrix(0.99931008,0,0,-0.99929404,-0.05481998,1119.7345)"
       id="g4872">
      <path
         style="fill:#000000;stroke:#000000;stroke-width:0;stroke-linecap:butt;stroke-linejoin:miter;stroke-miterlimit:4;stroke-opacity:1;stroke-dasharray:none"
         d="m 170.64061,426.42817 292.00001,0 c 0,0 -37.99611,29.97758 -37.99611,133.4939 0,98.52014 37.99611,133.5061 37.99611,133.5061 0,0 -48,-16.96406 -48,-133.5061 0,-109.0069 42.00389,-131.49387 42.00389,-131.49387 0,0 -7.35937,6.00041 -139.91795,5.9962 -146.08595,-0.005 -146.08595,-7.99623 -146.08595,-7.99623 z"
         id="path4874"
         inkscape:connector-curvature="0"
         sodipodi:nodetypes="ccscscsc" />
      <path
         sodipodi:type="arc"
         style="fill:#000000;fill-opacity:1;fill-rule:evenodd;stroke:none"
         id="path4876"
         sodipodi:cx="149.00233"
         sodipodi:cy="142.00241"
         sodipodi:rx="6.0023398"
         sodipodi:ry="5.9980502"
         d="m 155.00467,142.00241 c 0,3.31263 -2.68733,5.99805 -6.00234,5.99805 -3.315,0 -6.00234,-2.68542 -6.00234,-5.99805 0,-3.31263 2.68734,-5.99805 6.00234,-5.99805 3.31501,0 6.00234,2.68542 6.00234,5.99805 z"
         transform="matrix(0.99961018,0,0,1.0003251,165.69636,421.38004)" />
    </g>
    <g
       transform="matrix(-0.99931006,0,0,0.99928005,632.78949,0.68037071)"
       id="g4878">
      <path
         style="fill:#000000;stroke:#000000;stroke-width:0;stroke-linecap:butt;stroke-linejoin:miter;stroke-miterlimit:4;stroke-opacity:1;stroke-dasharray:none"
         d="m 170.64061,426.42817 292.00001,0 c 0,0 -37.99611,29.97758 -37.99611,133.4939 0,98.52014 37.99611,133.5061 37.99611,133.5061 0,0 -48,-16.96406 -48,-133.5061 0,-109.0069 42.00389,-131.49387 42.00389,-131.49387 0,0 -7.35937,6.00041 -139.91795,5.9962 -146.08595,-0.005 -146.08595,-7.99623 -146.08595,-7.99623 z"
         id="path4880"
         inkscape:connector-curvature="0"
         sodipodi:nodetypes="ccscscsc" />
      <path
         sodipodi:type="arc"
         style="fill:#000000;fill-opacity:1;fill-rule:evenodd;stroke:none"
         id="path4882"
         sodipodi:cx="149.00233"
         sodipodi:cy="142.00241"
         sodipodi:rx="6.0023398"
         sodipodi:ry="5.9980502"
         d="m 155.00467,142.00241 c 0,3.31263 -2.68733,5.99805 -6.00234,5.99805 -3.315,0 -6.00234,-2.68542 -6.00234,-5.99805 0,-3.31263 2.68734,-5.99805 6.00234,-5.99805 3.31501,0 6.00234,2.68542 6.00234,5.99805 z"
         transform="matrix(0.99961018,0,0,1.0003251,165.69636,421.38004)" />
    </g>
    <g
       id="g4884"
       transform="matrix(-0.99931008,0,0,0.99929404,632.78949,0.66857904)">
      <path
         sodipodi:nodetypes="ccscscsc"
         inkscape:connector-curvature="0"
         id="path4886"
         d="m 170.64061,426.42817 292.00001,0 c 0,0 -37.99611,29.97758 -37.99611,133.4939 0,98.52014 37.99611,133.5061 37.99611,133.5061 0,0 -48,-16.96406 -48,-133.5061 0,-109.0069 42.00389,-131.49387 42.00389,-131.49387 0,0 -7.35937,6.00041 -139.91795,5.9962 -146.08595,-0.005 -146.08595,-7.99623 -146.08595,-7.99623 z"
         style="fill:#000000;stroke:#000000;stroke-width:0;stroke-linecap:butt;stroke-linejoin:miter;stroke-miterlimit:4;stroke-opacity:1;stroke-dasharray:none" />
      <path
         transform="matrix(0.99961018,0,0,1.0003251,165.69636,421.38004)"
         d="m 155.00467,142.00241 c 0,3.31263 -2.68733,5.99805 -6.00234,5.99805 -3.315,0 -6.00234,-2.68542 -6.00234,-5.99805 0,-3.31263 2.68734,-5.99805 6.00234,-5.99805 3.31501,0 6.00234,2.68542 6.00234,5.99805 z"
         sodipodi:ry="5.9980502"
         sodipodi:rx="6.0023398"
         sodipodi:cy="142.00241"
         sodipodi:cx="149.00233"
         id="path4888"
         style="fill:#000000;fill-opacity:1;fill-rule:evenodd;stroke:none"
         sodipodi:type="arc" />
    </g>
    <g
       id="g4890"
       transform="matrix(-0.99931006,0,0,-0.99928005,632.78949,1119.7248)">
      <path
         sodipodi:nodetypes="ccscscsc"
         inkscape:connector-curvature="0"
         id="path4892"
         d="m 170.64061,426.42817 292.00001,0 c 0,0 -37.99611,29.97758 -37.99611,133.4939 0,98.52014 37.99611,133.5061 37.99611,133.5061 0,0 -48,-16.96406 -48,-133.5061 0,-109.0069 42.00389,-131.49387 42.00389,-131.49387 0,0 -7.35937,6.00041 -139.91795,5.9962 -146.08595,-0.005 -146.08595,-7.99623 -146.08595,-7.99623 z"
         style="fill:#000000;stroke:#000000;stroke-width:0;stroke-linecap:butt;stroke-linejoin:miter;stroke-miterlimit:4;stroke-opacity:1;stroke-dasharray:none" />
      <path
         transform="matrix(0.99961018,0,0,1.0003251,165.69636,421.38004)"
         d="m 155.00467,142.00241 c 0,3.31263 -2.68733,5.99805 -6.00234,5.99805 -3.315,0 -6.00234,-2.68542 -6.00234,-5.99805 0,-3.31263 2.68734,-5.99805 6.00234,-5.99805 3.31501,0 6.00234,2.68542 6.00234,5.99805 z"
         sodipodi:ry="5.9980502"
         sodipodi:rx="6.0023398"
         sodipodi:cy="142.00241"
         sodipodi:cx="149.00233"
         id="path4894"
         style="fill:#000000;fill-opacity:1;fill-rule:evenodd;stroke:none"
         sodipodi:type="arc" />
    </g>
    <g
       transform="matrix(-0.99931008,0,0,-0.99929404,632.78949,1119.7366)"
       id="g4896">
      <path
         style="fill:#000000;stroke:#000000;stroke-width:0;stroke-linecap:butt;stroke-linejoin:miter;stroke-miterlimit:4;stroke-opacity:1;stroke-dasharray:none"
         d="m 170.64061,426.42817 292.00001,0 c 0,0 -37.99611,29.97758 -37.99611,133.4939 0,98.52014 37.99611,133.5061 37.99611,133.5061 0,0 -48,-16.96406 -48,-133.5061 0,-109.0069 42.00389,-131.49387 42.00389,-131.49387 0,0 -7.35937,6.00041 -139.91795,5.9962 -146.08595,-0.005 -146.08595,-7.99623 -146.08595,-7.99623 z"
         id="path4898"
         inkscape:connector-curvature="0"
         sodipodi:nodetypes="ccscscsc" />
      <path
         sodipodi:type="arc"
         style="fill:#000000;fill-opacity:1;fill-rule:evenodd;stroke:none"
         id="path4900"
         sodipodi:cx="149.00233"
         sodipodi:cy="142.00241"
         sodipodi:rx="6.0023398"
         sodipodi:ry="5.9980502"
         d="m 155.00467,142.00241 c 0,3.31263 -2.68733,5.99805 -6.00234,5.99805 -3.315,0 -6.00234,-2.68542 -6.00234,-5.99805 0,-3.31263 2.68734,-5.99805 6.00234,-5.99805 3.31501,0 6.00234,2.68542 6.00234,5.99805 z"
         transform="matrix(0.99961018,0,0,1.0003251,165.69636,421.38004)" />
    </g>
    <g
       id="g4902"
       transform="matrix(-0.99931006,0,0,0.99928005,632.78949,0.67824899)">
      <path
         sodipodi:nodetypes="ccscscsc"
         inkscape:connector-curvature="0"
         id="path4904"
         d="m 170.64061,426.42817 292.00001,0 c 0,0 -37.99611,29.97758 -37.99611,133.4939 0,98.52014 37.99611,133.5061 37.99611,133.5061 0,0 -48,-16.96406 -48,-133.5061 0,-109.0069 42.00389,-131.49387 42.00389,-131.49387 0,0 -7.35937,6.00041 -139.91795,5.9962 -146.08595,-0.005 -146.08595,-7.99623 -146.08595,-7.99623 z"
         style="fill:#000000;stroke:#000000;stroke-width:0;stroke-linecap:butt;stroke-linejoin:miter;stroke-miterlimit:4;stroke-opacity:1;stroke-dasharray:none" />
      <path
         transform="matrix(0.99961018,0,0,1.0003251,165.69636,421.38004)"
         d="m 155.00467,142.00241 c 0,3.31263 -2.68733,5.99805 -6.00234,5.99805 -3.315,0 -6.00234,-2.68542 -6.00234,-5.99805 0,-3.31263 2.68734,-5.99805 6.00234,-5.99805 3.31501,0 6.00234,2.68542 6.00234,5.99805 z"
         sodipodi:ry="5.9980502"
         sodipodi:rx="6.0023398"
         sodipodi:cy="142.00241"
         sodipodi:cx="149.00233"
         id="path4906"
         style="fill:#000000;fill-opacity:1;fill-rule:evenodd;stroke:none"
         sodipodi:type="arc" />
    </g>
    <g
       transform="matrix(-0.99931008,0,0,0.99929404,632.78949,0.66645732)"
       id="g4908">
      <path
         style="fill:#000000;stroke:#000000;stroke-width:0;stroke-linecap:butt;stroke-linejoin:miter;stroke-miterlimit:4;stroke-opacity:1;stroke-dasharray:none"
         d="m 170.64061,426.42817 292.00001,0 c 0,0 -37.99611,29.97758 -37.99611,133.4939 0,98.52014 37.99611,133.5061 37.99611,133.5061 0,0 -48,-16.96406 -48,-133.5061 0,-109.0069 42.00389,-131.49387 42.00389,-131.49387 0,0 -7.35937,6.00041 -139.91795,5.9962 -146.08595,-0.005 -146.08595,-7.99623 -146.08595,-7.99623 z"
         id="path4910"
         inkscape:connector-curvature="0"
         sodipodi:nodetypes="ccscscsc" />
      <path
         sodipodi:type="arc"
         style="fill:#000000;fill-opacity:1;fill-rule:evenodd;stroke:none"
         id="path4912"
         sodipodi:cx="149.00233"
         sodipodi:cy="142.00241"
         sodipodi:rx="6.0023398"
         sodipodi:ry="5.9980502"
         d="m 155.00467,142.00241 c 0,3.31263 -2.68733,5.99805 -6.00234,5.99805 -3.315,0 -6.00234,-2.68542 -6.00234,-5.99805 0,-3.31263 2.68734,-5.99805 6.00234,-5.99805 3.31501,0 6.00234,2.68542 6.00234,5.99805 z"
         transform="matrix(0.99961018,0,0,1.0003251,165.69636,421.38004)" />
    </g>
    <g
       transform="matrix(-0.99931006,0,0,-0.99928005,632.78949,1119.7227)"
       id="g4914">
      <path
         style="fill:#000000;stroke:#000000;stroke-width:0;stroke-linecap:butt;stroke-linejoin:miter;stroke-miterlimit:4;stroke-opacity:1;stroke-dasharray:none"
         d="m 170.64061,426.42817 292.00001,0 c 0,0 -37.99611,29.97758 -37.99611,133.4939 0,98.52014 37.99611,133.5061 37.99611,133.5061 0,0 -48,-16.96406 -48,-133.5061 0,-109.0069 42.00389,-131.49387 42.00389,-131.49387 0,0 -7.35937,6.00041 -139.91795,5.9962 -146.08595,-0.005 -146.08595,-7.99623 -146.08595,-7.99623 z"
         id="path4916"
         inkscape:connector-curvature="0"
         sodipodi:nodetypes="ccscscsc" />
      <path
         sodipodi:type="arc"
         style="fill:#000000;fill-opacity:1;fill-rule:evenodd;stroke:none"
         id="path4918"
         sodipodi:cx="149.00233"
         sodipodi:cy="142.00241"
         sodipodi:rx="6.0023398"
         sodipodi:ry="5.9980502"
         d="m 155.00467,142.00241 c 0,3.31263 -2.68733,5.99805 -6.00234,5.99805 -3.315,0 -6.00234,-2.68542 -6.00234,-5.99805 0,-3.31263 2.68734,-5.99805 6.00234,-5.99805 3.31501,0 6.00234,2.68542 6.00234,5.99805 z"
         transform="matrix(0.99961018,0,0,1.0003251,165.69636,421.38004)" />
    </g>
    <g
       id="g4920"
       transform="matrix(-0.99931008,0,0,-0.99929404,632.78949,1119.7345)">
      <path
         sodipodi:nodetypes="ccscscsc"
         inkscape:connector-curvature="0"
         id="path4922"
         d="m 170.64061,426.42817 292.00001,0 c 0,0 -37.99611,29.97758 -37.99611,133.4939 0,98.52014 37.99611,133.5061 37.99611,133.5061 0,0 -48,-16.96406 -48,-133.5061 0,-109.0069 42.00389,-131.49387 42.00389,-131.49387 0,0 -7.35937,6.00041 -139.91795,5.9962 -146.08595,-0.005 -146.08595,-7.99623 -146.08595,-7.99623 z"
         style="fill:#000000;stroke:#000000;stroke-width:0;stroke-linecap:butt;stroke-linejoin:miter;stroke-miterlimit:4;stroke-opacity:1;stroke-dasharray:none" />
      <path
         transform="matrix(0.99961018,0,0,1.0003251,165.69636,421.38004)"
         d="m 155.00467,142.00241 c 0,3.31263 -2.68733,5.99805 -6.00234,5.99805 -3.315,0 -6.00234,-2.68542 -6.00234,-5.99805 0,-3.31263 2.68734,-5.99805 6.00234,-5.99805 3.31501,0 6.00234,2.68542 6.00234,5.99805 z"
         sodipodi:ry="5.9980502"
         sodipodi:rx="6.0023398"
         sodipodi:cy="142.00241"
         sodipodi:cx="149.00233"
         id="path4924"
         style="fill:#000000;fill-opacity:1;fill-rule:evenodd;stroke:none"
         sodipodi:type="arc" />
    </g>
    <g
       transform="matrix(0,0.99931006,-0.99928005,0,875.88845,243.77933)"
       id="g4926">
      <path
         style="fill:#000000;stroke:#000000;stroke-width:0;stroke-linecap:butt;stroke-linejoin:miter;stroke-miterlimit:4;stroke-opacity:1;stroke-dasharray:none"
         d="m 170.64061,426.42817 292.00001,0 c 0,0 -37.99611,29.97758 -37.99611,133.4939 0,98.52014 37.99611,133.5061 37.99611,133.5061 0,0 -48,-16.96406 -48,-133.5061 0,-109.0069 42.00389,-131.49387 42.00389,-131.49387 0,0 -7.35937,6.00041 -139.91795,5.9962 -146.08595,-0.005 -146.08595,-7.99623 -146.08595,-7.99623 z"
         id="path4928"
         inkscape:connector-curvature="0"
         sodipodi:nodetypes="ccscscsc" />
      <path
         sodipodi:type="arc"
         style="fill:#000000;fill-opacity:1;fill-rule:evenodd;stroke:none"
         id="path4930"
         sodipodi:cx="149.00233"
         sodipodi:cy="142.00241"
         sodipodi:rx="6.0023398"
         sodipodi:ry="5.9980502"
         d="m 155.00467,142.00241 c 0,3.31263 -2.68733,5.99805 -6.00234,5.99805 -3.315,0 -6.00234,-2.68542 -6.00234,-5.99805 0,-3.31263 2.68734,-5.99805 6.00234,-5.99805 3.31501,0 6.00234,2.68542 6.00234,5.99805 z"
         transform="matrix(0.99961018,0,0,1.0003251,165.69636,421.38004)" />
    </g>
    <g
       id="g4932"
       transform="matrix(0,0.99931008,-0.99929404,0,875.90024,243.77933)">
      <path
         sodipodi:nodetypes="ccscscsc"
         inkscape:connector-curvature="0"
         id="path4934"
         d="m 170.64061,426.42817 292.00001,0 c 0,0 -37.99611,29.97758 -37.99611,133.4939 0,98.52014 37.99611,133.5061 37.99611,133.5061 0,0 -48,-16.96406 -48,-133.5061 0,-109.0069 42.00389,-131.49387 42.00389,-131.49387 0,0 -7.35937,6.00041 -139.91795,5.9962 -146.08595,-0.005 -146.08595,-7.99623 -146.08595,-7.99623 z"
         style="fill:#000000;stroke:#000000;stroke-width:0;stroke-linecap:butt;stroke-linejoin:miter;stroke-miterlimit:4;stroke-opacity:1;stroke-dasharray:none" />
      <path
         transform="matrix(0.99961018,0,0,1.0003251,165.69636,421.38004)"
         d="m 155.00467,142.00241 c 0,3.31263 -2.68733,5.99805 -6.00234,5.99805 -3.315,0 -6.00234,-2.68542 -6.00234,-5.99805 0,-3.31263 2.68734,-5.99805 6.00234,-5.99805 3.31501,0 6.00234,2.68542 6.00234,5.99805 z"
         sodipodi:ry="5.9980502"
         sodipodi:rx="6.0023398"
         sodipodi:cy="142.00241"
         sodipodi:cx="149.00233"
         id="path4936"
         style="fill:#000000;fill-opacity:1;fill-rule:evenodd;stroke:none"
         sodipodi:type="arc" />
    </g>
    <g
       id="g4938"
       transform="matrix(0,0.99931006,0.99928005,0,-243.1559,243.77933)">
      <path
         sodipodi:nodetypes="ccscscsc"
         inkscape:connector-curvature="0"
         id="path4940"
         d="m 170.64061,426.42817 292.00001,0 c 0,0 -37.99611,29.97758 -37.99611,133.4939 0,98.52014 37.99611,133.5061 37.99611,133.5061 0,0 -48,-16.96406 -48,-133.5061 0,-109.0069 42.00389,-131.49387 42.00389,-131.49387 0,0 -7.35937,6.00041 -139.91795,5.9962 -146.08595,-0.005 -146.08595,-7.99623 -146.08595,-7.99623 z"
         style="fill:#000000;stroke:#000000;stroke-width:0;stroke-linecap:butt;stroke-linejoin:miter;stroke-miterlimit:4;stroke-opacity:1;stroke-dasharray:none" />
      <path
         transform="matrix(0.99961018,0,0,1.0003251,165.69636,421.38004)"
         d="m 155.00467,142.00241 c 0,3.31263 -2.68733,5.99805 -6.00234,5.99805 -3.315,0 -6.00234,-2.68542 -6.00234,-5.99805 0,-3.31263 2.68734,-5.99805 6.00234,-5.99805 3.31501,0 6.00234,2.68542 6.00234,5.99805 z"
         sodipodi:ry="5.9980502"
         sodipodi:rx="6.0023398"
         sodipodi:cy="142.00241"
         sodipodi:cx="149.00233"
         id="path4942"
         style="fill:#000000;fill-opacity:1;fill-rule:evenodd;stroke:none"
         sodipodi:type="arc" />
    </g>
    <g
       transform="matrix(0,0.99931008,0.99929404,0,-243.16769,243.77933)"
       id="g4944">
      <path
         style="fill:#000000;stroke:#000000;stroke-width:0;stroke-linecap:butt;stroke-linejoin:miter;stroke-miterlimit:4;stroke-opacity:1;stroke-dasharray:none"
         d="m 170.64061,426.42817 292.00001,0 c 0,0 -37.99611,29.97758 -37.99611,133.4939 0,98.52014 37.99611,133.5061 37.99611,133.5061 0,0 -48,-16.96406 -48,-133.5061 0,-109.0069 42.00389,-131.49387 42.00389,-131.49387 0,0 -7.35937,6.00041 -139.91795,5.9962 -146.08595,-0.005 -146.08595,-7.99623 -146.08595,-7.99623 z"
         id="path4946"
         inkscape:connector-curvature="0"
         sodipodi:nodetypes="ccscscsc" />
      <path
         sodipodi:type="arc"
         style="fill:#000000;fill-opacity:1;fill-rule:evenodd;stroke:none"
         id="path4948"
         sodipodi:cx="149.00233"
         sodipodi:cy="142.00241"
         sodipodi:rx="6.0023398"
         sodipodi:ry="5.9980502"
         d="m 155.00467,142.00241 c 0,3.31263 -2.68733,5.99805 -6.00234,5.99805 -3.315,0 -6.00234,-2.68542 -6.00234,-5.99805 0,-3.31263 2.68734,-5.99805 6.00234,-5.99805 3.31501,0 6.00234,2.68542 6.00234,5.99805 z"
         transform="matrix(0.99961018,0,0,1.0003251,165.69636,421.38004)" />
    </g>
    <g
       id="g4950"
       transform="matrix(0,0.99931006,-0.99928005,0,875.89056,243.77933)">
      <path
         sodipodi:nodetypes="ccscscsc"
         inkscape:connector-curvature="0"
         id="path4952"
         d="m 170.64061,426.42817 292.00001,0 c 0,0 -37.99611,29.97758 -37.99611,133.4939 0,98.52014 37.99611,133.5061 37.99611,133.5061 0,0 -48,-16.96406 -48,-133.5061 0,-109.0069 42.00389,-131.49387 42.00389,-131.49387 0,0 -7.35937,6.00041 -139.91795,5.9962 -146.08595,-0.005 -146.08595,-7.99623 -146.08595,-7.99623 z"
         style="fill:#000000;stroke:#000000;stroke-width:0;stroke-linecap:butt;stroke-linejoin:miter;stroke-miterlimit:4;stroke-opacity:1;stroke-dasharray:none" />
      <path
         transform="matrix(0.99961018,0,0,1.0003251,165.69636,421.38004)"
         d="m 155.00467,142.00241 c 0,3.31263 -2.68733,5.99805 -6.00234,5.99805 -3.315,0 -6.00234,-2.68542 -6.00234,-5.99805 0,-3.31263 2.68734,-5.99805 6.00234,-5.99805 3.31501,0 6.00234,2.68542 6.00234,5.99805 z"
         sodipodi:ry="5.9980502"
         sodipodi:rx="6.0023398"
         sodipodi:cy="142.00241"
         sodipodi:cx="149.00233"
         id="path4954"
         style="fill:#000000;fill-opacity:1;fill-rule:evenodd;stroke:none"
         sodipodi:type="arc" />
    </g>
    <g
       transform="matrix(0,0.99931008,-0.99929404,0,875.90236,243.77933)"
       id="g4956">
      <path
         style="fill:#000000;stroke:#000000;stroke-width:0;stroke-linecap:butt;stroke-linejoin:miter;stroke-miterlimit:4;stroke-opacity:1;stroke-dasharray:none"
         d="m 170.64061,426.42817 292.00001,0 c 0,0 -37.99611,29.97758 -37.99611,133.4939 0,98.52014 37.99611,133.5061 37.99611,133.5061 0,0 -48,-16.96406 -48,-133.5061 0,-109.0069 42.00389,-131.49387 42.00389,-131.49387 0,0 -7.35937,6.00041 -139.91795,5.9962 -146.08595,-0.005 -146.08595,-7.99623 -146.08595,-7.99623 z"
         id="path4958"
         inkscape:connector-curvature="0"
         sodipodi:nodetypes="ccscscsc" />
      <path
         sodipodi:type="arc"
         style="fill:#000000;fill-opacity:1;fill-rule:evenodd;stroke:none"
         id="path4960"
         sodipodi:cx="149.00233"
         sodipodi:cy="142.00241"
         sodipodi:rx="6.0023398"
         sodipodi:ry="5.9980502"
         d="m 155.00467,142.00241 c 0,3.31263 -2.68733,5.99805 -6.00234,5.99805 -3.315,0 -6.00234,-2.68542 -6.00234,-5.99805 0,-3.31263 2.68734,-5.99805 6.00234,-5.99805 3.31501,0 6.00234,2.68542 6.00234,5.99805 z"
         transform="matrix(0.99961018,0,0,1.0003251,165.69636,421.38004)" />
    </g>
    <g
       transform="matrix(0,0.99931006,0.99928005,0,-243.1538,243.77933)"
       id="g4962">
      <path
         style="fill:#000000;stroke:#000000;stroke-width:0;stroke-linecap:butt;stroke-linejoin:miter;stroke-miterlimit:4;stroke-opacity:1;stroke-dasharray:none"
         d="m 170.64061,426.42817 292.00001,0 c 0,0 -37.99611,29.97758 -37.99611,133.4939 0,98.52014 37.99611,133.5061 37.99611,133.5061 0,0 -48,-16.96406 -48,-133.5061 0,-109.0069 42.00389,-131.49387 42.00389,-131.49387 0,0 -7.35937,6.00041 -139.91795,5.9962 -146.08595,-0.005 -146.08595,-7.99623 -146.08595,-7.99623 z"
         id="path4964"
         inkscape:connector-curvature="0"
         sodipodi:nodetypes="ccscscsc" />
      <path
         sodipodi:type="arc"
         style="fill:#000000;fill-opacity:1;fill-rule:evenodd;stroke:none"
         id="path4966"
         sodipodi:cx="149.00233"
         sodipodi:cy="142.00241"
         sodipodi:rx="6.0023398"
         sodipodi:ry="5.9980502"
         d="m 155.00467,142.00241 c 0,3.31263 -2.68733,5.99805 -6.00234,5.99805 -3.315,0 -6.00234,-2.68542 -6.00234,-5.99805 0,-3.31263 2.68734,-5.99805 6.00234,-5.99805 3.31501,0 6.00234,2.68542 6.00234,5.99805 z"
         transform="matrix(0.99961018,0,0,1.0003251,165.69636,421.38004)" />
    </g>
    <g
       id="g4968"
       transform="matrix(0,0.99931008,0.99929404,0,-243.16559,243.77933)">
      <path
         sodipodi:nodetypes="ccscscsc"
         inkscape:connector-curvature="0"
         id="path4970"
         d="m 170.64061,426.42817 292.00001,0 c 0,0 -37.99611,29.97758 -37.99611,133.4939 0,98.52014 37.99611,133.5061 37.99611,133.5061 0,0 -48,-16.96406 -48,-133.5061 0,-109.0069 42.00389,-131.49387 42.00389,-131.49387 0,0 -7.35937,6.00041 -139.91795,5.9962 -146.08595,-0.005 -146.08595,-7.99623 -146.08595,-7.99623 z"
         style="fill:#000000;stroke:#000000;stroke-width:0;stroke-linecap:butt;stroke-linejoin:miter;stroke-miterlimit:4;stroke-opacity:1;stroke-dasharray:none" />
      <path
         transform="matrix(0.99961018,0,0,1.0003251,165.69636,421.38004)"
         d="m 155.00467,142.00241 c 0,3.31263 -2.68733,5.99805 -6.00234,5.99805 -3.315,0 -6.00234,-2.68542 -6.00234,-5.99805 0,-3.31263 2.68734,-5.99805 6.00234,-5.99805 3.31501,0 6.00234,2.68542 6.00234,5.99805 z"
         sodipodi:ry="5.9980502"
         sodipodi:rx="6.0023398"
         sodipodi:cy="142.00241"
         sodipodi:cx="149.00233"
         id="path4972"
         style="fill:#000000;fill-opacity:1;fill-rule:evenodd;stroke:none"
         sodipodi:type="arc" />
    </g>
    <g
       id="g4974"
       transform="matrix(0,-0.99931006,-0.99928005,0,875.88845,876.62365)">
      <path
         sodipodi:nodetypes="ccscscsc"
         inkscape:connector-curvature="0"
         id="path4976"
         d="m 170.64061,426.42817 292.00001,0 c 0,0 -37.99611,29.97758 -37.99611,133.4939 0,98.52014 37.99611,133.5061 37.99611,133.5061 0,0 -48,-16.96406 -48,-133.5061 0,-109.0069 42.00389,-131.49387 42.00389,-131.49387 0,0 -7.35937,6.00041 -139.91795,5.9962 -146.08595,-0.005 -146.08595,-7.99623 -146.08595,-7.99623 z"
         style="fill:#000000;stroke:#000000;stroke-width:0;stroke-linecap:butt;stroke-linejoin:miter;stroke-miterlimit:4;stroke-opacity:1;stroke-dasharray:none" />
      <path
         transform="matrix(0.99961018,0,0,1.0003251,165.69636,421.38004)"
         d="m 155.00467,142.00241 c 0,3.31263 -2.68733,5.99805 -6.00234,5.99805 -3.315,0 -6.00234,-2.68542 -6.00234,-5.99805 0,-3.31263 2.68734,-5.99805 6.00234,-5.99805 3.31501,0 6.00234,2.68542 6.00234,5.99805 z"
         sodipodi:ry="5.9980502"
         sodipodi:rx="6.0023398"
         sodipodi:cy="142.00241"
         sodipodi:cx="149.00233"
         id="path4978"
         style="fill:#000000;fill-opacity:1;fill-rule:evenodd;stroke:none"
         sodipodi:type="arc" />
    </g>
    <g
       transform="matrix(0,-0.99931008,-0.99929404,0,875.90024,876.62365)"
       id="g4980">
      <path
         style="fill:#000000;stroke:#000000;stroke-width:0;stroke-linecap:butt;stroke-linejoin:miter;stroke-miterlimit:4;stroke-opacity:1;stroke-dasharray:none"
         d="m 170.64061,426.42817 292.00001,0 c 0,0 -37.99611,29.97758 -37.99611,133.4939 0,98.52014 37.99611,133.5061 37.99611,133.5061 0,0 -48,-16.96406 -48,-133.5061 0,-109.0069 42.00389,-131.49387 42.00389,-131.49387 0,0 -7.35937,6.00041 -139.91795,5.9962 -146.08595,-0.005 -146.08595,-7.99623 -146.08595,-7.99623 z"
         id="path4982"
         inkscape:connector-curvature="0"
         sodipodi:nodetypes="ccscscsc" />
      <path
         sodipodi:type="arc"
         style="fill:#000000;fill-opacity:1;fill-rule:evenodd;stroke:none"
         id="path4984"
         sodipodi:cx="149.00233"
         sodipodi:cy="142.00241"
         sodipodi:rx="6.0023398"
         sodipodi:ry="5.9980502"
         d="m 155.00467,142.00241 c 0,3.31263 -2.68733,5.99805 -6.00234,5.99805 -3.315,0 -6.00234,-2.68542 -6.00234,-5.99805 0,-3.31263 2.68734,-5.99805 6.00234,-5.99805 3.31501,0 6.00234,2.68542 6.00234,5.99805 z"
         transform="matrix(0.99961018,0,0,1.0003251,165.69636,421.38004)" />
    </g>
    <g
       transform="matrix(0,-0.99931006,0.99928005,0,-243.1559,876.62365)"
       id="g4986">
      <path
         style="fill:#000000;stroke:#000000;stroke-width:0;stroke-linecap:butt;stroke-linejoin:miter;stroke-miterlimit:4;stroke-opacity:1;stroke-dasharray:none"
         d="m 170.64061,426.42817 292.00001,0 c 0,0 -37.99611,29.97758 -37.99611,133.4939 0,98.52014 37.99611,133.5061 37.99611,133.5061 0,0 -48,-16.96406 -48,-133.5061 0,-109.0069 42.00389,-131.49387 42.00389,-131.49387 0,0 -7.35937,6.00041 -139.91795,5.9962 -146.08595,-0.005 -146.08595,-7.99623 -146.08595,-7.99623 z"
         id="path4988"
         inkscape:connector-curvature="0"
         sodipodi:nodetypes="ccscscsc" />
      <path
         sodipodi:type="arc"
         style="fill:#000000;fill-opacity:1;fill-rule:evenodd;stroke:none"
         id="path4990"
         sodipodi:cx="149.00233"
         sodipodi:cy="142.00241"
         sodipodi:rx="6.0023398"
         sodipodi:ry="5.9980502"
         d="m 155.00467,142.00241 c 0,3.31263 -2.68733,5.99805 -6.00234,5.99805 -3.315,0 -6.00234,-2.68542 -6.00234,-5.99805 0,-3.31263 2.68734,-5.99805 6.00234,-5.99805 3.31501,0 6.00234,2.68542 6.00234,5.99805 z"
         transform="matrix(0.99961018,0,0,1.0003251,165.69636,421.38004)" />
    </g>
    <g
       id="g4992"
       transform="matrix(0,-0.99931008,0.99929404,0,-243.16769,876.62365)">
      <path
         sodipodi:nodetypes="ccscscsc"
         inkscape:connector-curvature="0"
         id="path4994"
         d="m 170.64061,426.42817 292.00001,0 c 0,0 -37.99611,29.97758 -37.99611,133.4939 0,98.52014 37.99611,133.5061 37.99611,133.5061 0,0 -48,-16.96406 -48,-133.5061 0,-109.0069 42.00389,-131.49387 42.00389,-131.49387 0,0 -7.35937,6.00041 -139.91795,5.9962 -146.08595,-0.005 -146.08595,-7.99623 -146.08595,-7.99623 z"
         style="fill:#000000;stroke:#000000;stroke-width:0;stroke-linecap:butt;stroke-linejoin:miter;stroke-miterlimit:4;stroke-opacity:1;stroke-dasharray:none" />
      <path
         transform="matrix(0.99961018,0,0,1.0003251,165.69636,421.38004)"
         d="m 155.00467,142.00241 c 0,3.31263 -2.68733,5.99805 -6.00234,5.99805 -3.315,0 -6.00234,-2.68542 -6.00234,-5.99805 0,-3.31263 2.68734,-5.99805 6.00234,-5.99805 3.31501,0 6.00234,2.68542 6.00234,5.99805 z"
         sodipodi:ry="5.9980502"
         sodipodi:rx="6.0023398"
         sodipodi:cy="142.00241"
         sodipodi:cx="149.00233"
         id="path4996"
         style="fill:#000000;fill-opacity:1;fill-rule:evenodd;stroke:none"
         sodipodi:type="arc" />
    </g>
    <g
       transform="matrix(0,-0.99931006,-0.99928005,0,875.89056,876.62365)"
       id="g4998">
      <path
         style="fill:#000000;stroke:#000000;stroke-width:0;stroke-linecap:butt;stroke-linejoin:miter;stroke-miterlimit:4;stroke-opacity:1;stroke-dasharray:none"
         d="m 170.64061,426.42817 292.00001,0 c 0,0 -37.99611,29.97758 -37.99611,133.4939 0,98.52014 37.99611,133.5061 37.99611,133.5061 0,0 -48,-16.96406 -48,-133.5061 0,-109.0069 42.00389,-131.49387 42.00389,-131.49387 0,0 -7.35937,6.00041 -139.91795,5.9962 -146.08595,-0.005 -146.08595,-7.99623 -146.08595,-7.99623 z"
         id="path5000"
         inkscape:connector-curvature="0"
         sodipodi:nodetypes="ccscscsc" />
      <path
         sodipodi:type="arc"
         style="fill:#000000;fill-opacity:1;fill-rule:evenodd;stroke:none"
         id="path5002"
         sodipodi:cx="149.00233"
         sodipodi:cy="142.00241"
         sodipodi:rx="6.0023398"
         sodipodi:ry="5.9980502"
         d="m 155.00467,142.00241 c 0,3.31263 -2.68733,5.99805 -6.00234,5.99805 -3.315,0 -6.00234,-2.68542 -6.00234,-5.99805 0,-3.31263 2.68734,-5.99805 6.00234,-5.99805 3.31501,0 6.00234,2.68542 6.00234,5.99805 z"
         transform="matrix(0.99961018,0,0,1.0003251,165.69636,421.38004)" />
    </g>
    <g
       id="g5004"
       transform="matrix(0,-0.99931008,-0.99929404,0,875.90236,876.62365)">
      <path
         sodipodi:nodetypes="ccscscsc"
         inkscape:connector-curvature="0"
         id="path5006"
         d="m 170.64061,426.42817 292.00001,0 c 0,0 -37.99611,29.97758 -37.99611,133.4939 0,98.52014 37.99611,133.5061 37.99611,133.5061 0,0 -48,-16.96406 -48,-133.5061 0,-109.0069 42.00389,-131.49387 42.00389,-131.49387 0,0 -7.35937,6.00041 -139.91795,5.9962 -146.08595,-0.005 -146.08595,-7.99623 -146.08595,-7.99623 z"
         style="fill:#000000;stroke:#000000;stroke-width:0;stroke-linecap:butt;stroke-linejoin:miter;stroke-miterlimit:4;stroke-opacity:1;stroke-dasharray:none" />
      <path
         transform="matrix(0.99961018,0,0,1.0003251,165.69636,421.38004)"
         d="m 155.00467,142.00241 c 0,3.31263 -2.68733,5.99805 -6.00234,5.99805 -3.315,0 -6.00234,-2.68542 -6.00234,-5.99805 0,-3.31263 2.68734,-5.99805 6.00234,-5.99805 3.31501,0 6.00234,2.68542 6.00234,5.99805 z"
         sodipodi:ry="5.9980502"
         sodipodi:rx="6.0023398"
         sodipodi:cy="142.00241"
         sodipodi:cx="149.00233"
         id="path5008"
         style="fill:#000000;fill-opacity:1;fill-rule:evenodd;stroke:none"
         sodipodi:type="arc" />
    </g>
    <g
       id="g5010"
       transform="matrix(0,-0.99931006,0.99928005,0,-243.1538,876.62365)">
      <path
         sodipodi:nodetypes="ccscscsc"
         inkscape:connector-curvature="0"
         id="path5012"
         d="m 170.64061,426.42817 292.00001,0 c 0,0 -37.99611,29.97758 -37.99611,133.4939 0,98.52014 37.99611,133.5061 37.99611,133.5061 0,0 -48,-16.96406 -48,-133.5061 0,-109.0069 42.00389,-131.49387 42.00389,-131.49387 0,0 -7.35937,6.00041 -139.91795,5.9962 -146.08595,-0.005 -146.08595,-7.99623 -146.08595,-7.99623 z"
         style="fill:#000000;stroke:#000000;stroke-width:0;stroke-linecap:butt;stroke-linejoin:miter;stroke-miterlimit:4;stroke-opacity:1;stroke-dasharray:none" />
      <path
         transform="matrix(0.99961018,0,0,1.0003251,165.69636,421.38004)"
         d="m 155.00467,142.00241 c 0,3.31263 -2.68733,5.99805 -6.00234,5.99805 -3.315,0 -6.00234,-2.68542 -6.00234,-5.99805 0,-3.31263 2.68734,-5.99805 6.00234,-5.99805 3.31501,0 6.00234,2.68542 6.00234,5.99805 z"
         sodipodi:ry="5.9980502"
         sodipodi:rx="6.0023398"
         sodipodi:cy="142.00241"
         sodipodi:cx="149.00233"
         id="path5014"
         style="fill:#000000;fill-opacity:1;fill-rule:evenodd;stroke:none"
         sodipodi:type="arc" />
    </g>
    <g
       transform="matrix(0,-0.99931008,0.99929404,0,-243.16559,876.62365)"
       id="g5016">
      <path
         style="fill:#000000;stroke:#000000;stroke-width:0;stroke-linecap:butt;stroke-linejoin:miter;stroke-miterlimit:4;stroke-opacity:1;stroke-dasharray:none"
         d="m 170.64061,426.42817 292.00001,0 c 0,0 -37.99611,29.97758 -37.99611,133.4939 0,98.52014 37.99611,133.5061 37.99611,133.5061 0,0 -48,-16.96406 -48,-133.5061 0,-109.0069 42.00389,-131.49387 42.00389,-131.49387 0,0 -7.35937,6.00041 -139.91795,5.9962 -146.08595,-0.005 -146.08595,-7.99623 -146.08595,-7.99623 z"
         id="path5018"
         inkscape:connector-curvature="0"
         sodipodi:nodetypes="ccscscsc" />
      <path
         sodipodi:type="arc"
         style="fill:#000000;fill-opacity:1;fill-rule:evenodd;stroke:none"
         id="path5020"
         sodipodi:cx="149.00233"
         sodipodi:cy="142.00241"
         sodipodi:rx="6.0023398"
         sodipodi:ry="5.9980502"
         d="m 155.00467,142.00241 c 0,3.31263 -2.68733,5.99805 -6.00234,5.99805 -3.315,0 -6.00234,-2.68542 -6.00234,-5.99805 0,-3.31263 2.68734,-5.99805 6.00234,-5.99805 3.31501,0 6.00234,2.68542 6.00234,5.99805 z"
         transform="matrix(0.99961018,0,0,1.0003251,165.69636,421.38004)" />
    </g>
    <g
       transform="matrix(0.70661892,0.70661892,-0.7065977,0.7065977,488.26425,-59.183942)"
       id="g5022">
      <path
         style="fill:#000000;stroke:#000000;stroke-width:0;stroke-linecap:butt;stroke-linejoin:miter;stroke-miterlimit:4;stroke-opacity:1;stroke-dasharray:none"
         d="m 170.64061,426.42817 292.00001,0 c 0,0 -37.99611,29.97758 -37.99611,133.4939 0,98.52014 37.99611,133.5061 37.99611,133.5061 0,0 -48,-16.96406 -48,-133.5061 0,-109.0069 42.00389,-131.49387 42.00389,-131.49387 0,0 -7.35937,6.00041 -139.91795,5.9962 -146.08595,-0.005 -146.08595,-7.99623 -146.08595,-7.99623 z"
         id="path5024"
         inkscape:connector-curvature="0"
         sodipodi:nodetypes="ccscscsc" />
      <path
         sodipodi:type="arc"
         style="fill:#000000;fill-opacity:1;fill-rule:evenodd;stroke:none"
         id="path5026"
         sodipodi:cx="149.00233"
         sodipodi:cy="142.00241"
         sodipodi:rx="6.0023398"
         sodipodi:ry="5.9980502"
         d="m 155.00467,142.00241 c 0,3.31263 -2.68733,5.99805 -6.00234,5.99805 -3.315,0 -6.00234,-2.68542 -6.00234,-5.99805 0,-3.31263 2.68734,-5.99805 6.00234,-5.99805 3.31501,0 6.00234,2.68542 6.00234,5.99805 z"
         transform="matrix(0.99961018,0,0,1.0003251,165.69636,421.38004)" />
    </g>
    <g
       id="g5028"
       transform="matrix(0.70661893,0.70661893,-0.70660759,0.70660759,488.27259,-59.19228)">
      <path
         sodipodi:nodetypes="ccscscsc"
         inkscape:connector-curvature="0"
         id="path5030"
         d="m 170.64061,426.42817 292.00001,0 c 0,0 -37.99611,29.97758 -37.99611,133.4939 0,98.52014 37.99611,133.5061 37.99611,133.5061 0,0 -48,-16.96406 -48,-133.5061 0,-109.0069 42.00389,-131.49387 42.00389,-131.49387 0,0 -7.35937,6.00041 -139.91795,5.9962 -146.08595,-0.005 -146.08595,-7.99623 -146.08595,-7.99623 z"
         style="fill:#000000;stroke:#000000;stroke-width:0;stroke-linecap:butt;stroke-linejoin:miter;stroke-miterlimit:4;stroke-opacity:1;stroke-dasharray:none" />
      <path
         transform="matrix(0.99961018,0,0,1.0003251,165.69636,421.38004)"
         d="m 155.00467,142.00241 c 0,3.31263 -2.68733,5.99805 -6.00234,5.99805 -3.315,0 -6.00234,-2.68542 -6.00234,-5.99805 0,-3.31263 2.68734,-5.99805 6.00234,-5.99805 3.31501,0 6.00234,2.68542 6.00234,5.99805 z"
         sodipodi:ry="5.9980502"
         sodipodi:rx="6.0023398"
         sodipodi:cy="142.00241"
         sodipodi:cx="149.00233"
         id="path5032"
         style="fill:#000000;fill-opacity:1;fill-rule:evenodd;stroke:none"
         sodipodi:type="arc" />
    </g>
    <g
       id="g5034"
       transform="matrix(0.70661892,0.70661892,0.7065977,-0.7065977,-303.01959,732.09991)">
      <path
         sodipodi:nodetypes="ccscscsc"
         inkscape:connector-curvature="0"
         id="path5036"
         d="m 170.64061,426.42817 292.00001,0 c 0,0 -37.99611,29.97758 -37.99611,133.4939 0,98.52014 37.99611,133.5061 37.99611,133.5061 0,0 -48,-16.96406 -48,-133.5061 0,-109.0069 42.00389,-131.49387 42.00389,-131.49387 0,0 -7.35937,6.00041 -139.91795,5.9962 -146.08595,-0.005 -146.08595,-7.99623 -146.08595,-7.99623 z"
         style="fill:#000000;stroke:#000000;stroke-width:0;stroke-linecap:butt;stroke-linejoin:miter;stroke-miterlimit:4;stroke-opacity:1;stroke-dasharray:none" />
      <path
         transform="matrix(0.99961018,0,0,1.0003251,165.69636,421.38004)"
         d="m 155.00467,142.00241 c 0,3.31263 -2.68733,5.99805 -6.00234,5.99805 -3.315,0 -6.00234,-2.68542 -6.00234,-5.99805 0,-3.31263 2.68734,-5.99805 6.00234,-5.99805 3.31501,0 6.00234,2.68542 6.00234,5.99805 z"
         sodipodi:ry="5.9980502"
         sodipodi:rx="6.0023398"
         sodipodi:cy="142.00241"
         sodipodi:cx="149.00233"
         id="path5038"
         style="fill:#000000;fill-opacity:1;fill-rule:evenodd;stroke:none"
         sodipodi:type="arc" />
    </g>
    <g
       transform="matrix(0.70661893,0.70661893,0.70660759,-0.70660759,-303.02793,732.10825)"
       id="g5040">
      <path
         style="fill:#000000;stroke:#000000;stroke-width:0;stroke-linecap:butt;stroke-linejoin:miter;stroke-miterlimit:4;stroke-opacity:1;stroke-dasharray:none"
         d="m 170.64061,426.42817 292.00001,0 c 0,0 -37.99611,29.97758 -37.99611,133.4939 0,98.52014 37.99611,133.5061 37.99611,133.5061 0,0 -48,-16.96406 -48,-133.5061 0,-109.0069 42.00389,-131.49387 42.00389,-131.49387 0,0 -7.35937,6.00041 -139.91795,5.9962 -146.08595,-0.005 -146.08595,-7.99623 -146.08595,-7.99623 z"
         id="path5042"
         inkscape:connector-curvature="0"
         sodipodi:nodetypes="ccscscsc" />
      <path
         sodipodi:type="arc"
         style="fill:#000000;fill-opacity:1;fill-rule:evenodd;stroke:none"
         id="path5044"
         sodipodi:cx="149.00233"
         sodipodi:cy="142.00241"
         sodipodi:rx="6.0023398"
         sodipodi:ry="5.9980502"
         d="m 155.00467,142.00241 c 0,3.31263 -2.68733,5.99805 -6.00234,5.99805 -3.315,0 -6.00234,-2.68542 -6.00234,-5.99805 0,-3.31263 2.68734,-5.99805 6.00234,-5.99805 3.31501,0 6.00234,2.68542 6.00234,5.99805 z"
         transform="matrix(0.99961018,0,0,1.0003251,165.69636,421.38004)" />
    </g>
    <g
       id="g5046"
       transform="matrix(0.70661892,0.70661892,-0.7065977,0.7065977,488.26576,-59.185442)">
      <path
         sodipodi:nodetypes="ccscscsc"
         inkscape:connector-curvature="0"
         id="path5048"
         d="m 170.64061,426.42817 292.00001,0 c 0,0 -37.99611,29.97758 -37.99611,133.4939 0,98.52014 37.99611,133.5061 37.99611,133.5061 0,0 -48,-16.96406 -48,-133.5061 0,-109.0069 42.00389,-131.49387 42.00389,-131.49387 0,0 -7.35937,6.00041 -139.91795,5.9962 -146.08595,-0.005 -146.08595,-7.99623 -146.08595,-7.99623 z"
         style="fill:#000000;stroke:#000000;stroke-width:0;stroke-linecap:butt;stroke-linejoin:miter;stroke-miterlimit:4;stroke-opacity:1;stroke-dasharray:none" />
      <path
         transform="matrix(0.99961018,0,0,1.0003251,165.69636,421.38004)"
         d="m 155.00467,142.00241 c 0,3.31263 -2.68733,5.99805 -6.00234,5.99805 -3.315,0 -6.00234,-2.68542 -6.00234,-5.99805 0,-3.31263 2.68734,-5.99805 6.00234,-5.99805 3.31501,0 6.00234,2.68542 6.00234,5.99805 z"
         sodipodi:ry="5.9980502"
         sodipodi:rx="6.0023398"
         sodipodi:cy="142.00241"
         sodipodi:cx="149.00233"
         id="path5050"
         style="fill:#000000;fill-opacity:1;fill-rule:evenodd;stroke:none"
         sodipodi:type="arc" />
    </g>
    <g
       transform="matrix(0.70661893,0.70661893,-0.70660759,0.70660759,488.27409,-59.19378)"
       id="g5052">
      <path
         style="fill:#000000;stroke:#000000;stroke-width:0;stroke-linecap:butt;stroke-linejoin:miter;stroke-miterlimit:4;stroke-opacity:1;stroke-dasharray:none"
         d="m 170.64061,426.42817 292.00001,0 c 0,0 -37.99611,29.97758 -37.99611,133.4939 0,98.52014 37.99611,133.5061 37.99611,133.5061 0,0 -48,-16.96406 -48,-133.5061 0,-109.0069 42.00389,-131.49387 42.00389,-131.49387 0,0 -7.35937,6.00041 -139.91795,5.9962 -146.08595,-0.005 -146.08595,-7.99623 -146.08595,-7.99623 z"
         id="path5054"
         inkscape:connector-curvature="0"
         sodipodi:nodetypes="ccscscsc" />
      <path
         sodipodi:type="arc"
         style="fill:#000000;fill-opacity:1;fill-rule:evenodd;stroke:none"
         id="path5056"
         sodipodi:cx="149.00233"
         sodipodi:cy="142.00241"
         sodipodi:rx="6.0023398"
         sodipodi:ry="5.9980502"
         d="m 155.00467,142.00241 c 0,3.31263 -2.68733,5.99805 -6.00234,5.99805 -3.315,0 -6.00234,-2.68542 -6.00234,-5.99805 0,-3.31263 2.68734,-5.99805 6.00234,-5.99805 3.31501,0 6.00234,2.68542 6.00234,5.99805 z"
         transform="matrix(0.99961018,0,0,1.0003251,165.69636,421.38004)" />
    </g>
    <g
       transform="matrix(0.70661892,0.70661892,0.7065977,-0.7065977,-303.01811,732.09843)"
       id="g5058">
      <path
         style="fill:#000000;stroke:#000000;stroke-width:0;stroke-linecap:butt;stroke-linejoin:miter;stroke-miterlimit:4;stroke-opacity:1;stroke-dasharray:none"
         d="m 170.64061,426.42817 292.00001,0 c 0,0 -37.99611,29.97758 -37.99611,133.4939 0,98.52014 37.99611,133.5061 37.99611,133.5061 0,0 -48,-16.96406 -48,-133.5061 0,-109.0069 42.00389,-131.49387 42.00389,-131.49387 0,0 -7.35937,6.00041 -139.91795,5.9962 -146.08595,-0.005 -146.08595,-7.99623 -146.08595,-7.99623 z"
         id="path5060"
         inkscape:connector-curvature="0"
         sodipodi:nodetypes="ccscscsc" />
      <path
         sodipodi:type="arc"
         style="fill:#000000;fill-opacity:1;fill-rule:evenodd;stroke:none"
         id="path5062"
         sodipodi:cx="149.00233"
         sodipodi:cy="142.00241"
         sodipodi:rx="6.0023398"
         sodipodi:ry="5.9980502"
         d="m 155.00467,142.00241 c 0,3.31263 -2.68733,5.99805 -6.00234,5.99805 -3.315,0 -6.00234,-2.68542 -6.00234,-5.99805 0,-3.31263 2.68734,-5.99805 6.00234,-5.99805 3.31501,0 6.00234,2.68542 6.00234,5.99805 z"
         transform="matrix(0.99961018,0,0,1.0003251,165.69636,421.38004)" />
    </g>
    <g
       id="g5064"
       transform="matrix(0.70661893,0.70661893,0.70660759,-0.70660759,-303.02645,732.10676)">
      <path
         sodipodi:nodetypes="ccscscsc"
         inkscape:connector-curvature="0"
         id="path5066"
         d="m 170.64061,426.42817 292.00001,0 c 0,0 -37.99611,29.97758 -37.99611,133.4939 0,98.52014 37.99611,133.5061 37.99611,133.5061 0,0 -48,-16.96406 -48,-133.5061 0,-109.0069 42.00389,-131.49387 42.00389,-131.49387 0,0 -7.35937,6.00041 -139.91795,5.9962 -146.08595,-0.005 -146.08595,-7.99623 -146.08595,-7.99623 z"
         style="fill:#000000;stroke:#000000;stroke-width:0;stroke-linecap:butt;stroke-linejoin:miter;stroke-miterlimit:4;stroke-opacity:1;stroke-dasharray:none" />
      <path
         transform="matrix(0.99961018,0,0,1.0003251,165.69636,421.38004)"
         d="m 155.00467,142.00241 c 0,3.31263 -2.68733,5.99805 -6.00234,5.99805 -3.315,0 -6.00234,-2.68542 -6.00234,-5.99805 0,-3.31263 2.68734,-5.99805 6.00234,-5.99805 3.31501,0 6.00234,2.68542 6.00234,5.99805 z"
         sodipodi:ry="5.9980502"
         sodipodi:rx="6.0023398"
         sodipodi:cy="142.00241"
         sodipodi:cx="149.00233"
         id="path5068"
         style="fill:#000000;fill-opacity:1;fill-rule:evenodd;stroke:none"
         sodipodi:type="arc" />
    </g>
    <g
       id="g5070"
       transform="matrix(-0.70661892,-0.70661892,-0.7065977,0.7065977,935.75276,388.30457)">
      <path
         sodipodi:nodetypes="ccscscsc"
         inkscape:connector-curvature="0"
         id="path5072"
         d="m 170.64061,426.42817 292.00001,0 c 0,0 -37.99611,29.97758 -37.99611,133.4939 0,98.52014 37.99611,133.5061 37.99611,133.5061 0,0 -48,-16.96406 -48,-133.5061 0,-109.0069 42.00389,-131.49387 42.00389,-131.49387 0,0 -7.35937,6.00041 -139.91795,5.9962 -146.08595,-0.005 -146.08595,-7.99623 -146.08595,-7.99623 z"
         style="fill:#000000;stroke:#000000;stroke-width:0;stroke-linecap:butt;stroke-linejoin:miter;stroke-miterlimit:4;stroke-opacity:1;stroke-dasharray:none" />
      <path
         transform="matrix(0.99961018,0,0,1.0003251,165.69636,421.38004)"
         d="m 155.00467,142.00241 c 0,3.31263 -2.68733,5.99805 -6.00234,5.99805 -3.315,0 -6.00234,-2.68542 -6.00234,-5.99805 0,-3.31263 2.68734,-5.99805 6.00234,-5.99805 3.31501,0 6.00234,2.68542 6.00234,5.99805 z"
         sodipodi:ry="5.9980502"
         sodipodi:rx="6.0023398"
         sodipodi:cy="142.00241"
         sodipodi:cx="149.00233"
         id="path5074"
         style="fill:#000000;fill-opacity:1;fill-rule:evenodd;stroke:none"
         sodipodi:type="arc" />
    </g>
    <g
       transform="matrix(-0.70661893,-0.70661893,-0.70660759,0.70660759,935.7611,388.29623)"
       id="g5076">
      <path
         style="fill:#000000;stroke:#000000;stroke-width:0;stroke-linecap:butt;stroke-linejoin:miter;stroke-miterlimit:4;stroke-opacity:1;stroke-dasharray:none"
         d="m 170.64061,426.42817 292.00001,0 c 0,0 -37.99611,29.97758 -37.99611,133.4939 0,98.52014 37.99611,133.5061 37.99611,133.5061 0,0 -48,-16.96406 -48,-133.5061 0,-109.0069 42.00389,-131.49387 42.00389,-131.49387 0,0 -7.35937,6.00041 -139.91795,5.9962 -146.08595,-0.005 -146.08595,-7.99623 -146.08595,-7.99623 z"
         id="path5078"
         inkscape:connector-curvature="0"
         sodipodi:nodetypes="ccscscsc" />
      <path
         sodipodi:type="arc"
         style="fill:#000000;fill-opacity:1;fill-rule:evenodd;stroke:none"
         id="path5080"
         sodipodi:cx="149.00233"
         sodipodi:cy="142.00241"
         sodipodi:rx="6.0023398"
         sodipodi:ry="5.9980502"
         d="m 155.00467,142.00241 c 0,3.31263 -2.68733,5.99805 -6.00234,5.99805 -3.315,0 -6.00234,-2.68542 -6.00234,-5.99805 0,-3.31263 2.68734,-5.99805 6.00234,-5.99805 3.31501,0 6.00234,2.68542 6.00234,5.99805 z"
         transform="matrix(0.99961018,0,0,1.0003251,165.69636,421.38004)" />
    </g>
    <g
       transform="matrix(-0.70661892,-0.70661892,0.7065977,-0.7065977,144.46891,1179.5884)"
       id="g5082">
      <path
         style="fill:#000000;stroke:#000000;stroke-width:0;stroke-linecap:butt;stroke-linejoin:miter;stroke-miterlimit:4;stroke-opacity:1;stroke-dasharray:none"
         d="m 170.64061,426.42817 292.00001,0 c 0,0 -37.99611,29.97758 -37.99611,133.4939 0,98.52014 37.99611,133.5061 37.99611,133.5061 0,0 -48,-16.96406 -48,-133.5061 0,-109.0069 42.00389,-131.49387 42.00389,-131.49387 0,0 -7.35937,6.00041 -139.91795,5.9962 -146.08595,-0.005 -146.08595,-7.99623 -146.08595,-7.99623 z"
         id="path5084"
         inkscape:connector-curvature="0"
         sodipodi:nodetypes="ccscscsc" />
      <path
         sodipodi:type="arc"
         style="fill:#000000;fill-opacity:1;fill-rule:evenodd;stroke:none"
         id="path5086"
         sodipodi:cx="149.00233"
         sodipodi:cy="142.00241"
         sodipodi:rx="6.0023398"
         sodipodi:ry="5.9980502"
         d="m 155.00467,142.00241 c 0,3.31263 -2.68733,5.99805 -6.00234,5.99805 -3.315,0 -6.00234,-2.68542 -6.00234,-5.99805 0,-3.31263 2.68734,-5.99805 6.00234,-5.99805 3.31501,0 6.00234,2.68542 6.00234,5.99805 z"
         transform="matrix(0.99961018,0,0,1.0003251,165.69636,421.38004)" />
    </g>
    <g
       id="g5088"
       transform="matrix(-0.70661893,-0.70661893,0.70660759,-0.70660759,144.46058,1179.5968)">
      <path
         sodipodi:nodetypes="ccscscsc"
         inkscape:connector-curvature="0"
         id="path5090"
         d="m 170.64061,426.42817 292.00001,0 c 0,0 -37.99611,29.97758 -37.99611,133.4939 0,98.52014 37.99611,133.5061 37.99611,133.5061 0,0 -48,-16.96406 -48,-133.5061 0,-109.0069 42.00389,-131.49387 42.00389,-131.49387 0,0 -7.35937,6.00041 -139.91795,5.9962 -146.08595,-0.005 -146.08595,-7.99623 -146.08595,-7.99623 z"
         style="fill:#000000;stroke:#000000;stroke-width:0;stroke-linecap:butt;stroke-linejoin:miter;stroke-miterlimit:4;stroke-opacity:1;stroke-dasharray:none" />
      <path
         transform="matrix(0.99961018,0,0,1.0003251,165.69636,421.38004)"
         d="m 155.00467,142.00241 c 0,3.31263 -2.68733,5.99805 -6.00234,5.99805 -3.315,0 -6.00234,-2.68542 -6.00234,-5.99805 0,-3.31263 2.68734,-5.99805 6.00234,-5.99805 3.31501,0 6.00234,2.68542 6.00234,5.99805 z"
         sodipodi:ry="5.9980502"
         sodipodi:rx="6.0023398"
         sodipodi:cy="142.00241"
         sodipodi:cx="149.00233"
         id="path5092"
         style="fill:#000000;fill-opacity:1;fill-rule:evenodd;stroke:none"
         sodipodi:type="arc" />
    </g>
    <g
       transform="matrix(-0.70661892,-0.70661892,-0.7065977,0.7065977,935.75426,388.30307)"
       id="g5094">
      <path
         style="fill:#000000;stroke:#000000;stroke-width:0;stroke-linecap:butt;stroke-linejoin:miter;stroke-miterlimit:4;stroke-opacity:1;stroke-dasharray:none"
         d="m 170.64061,426.42817 292.00001,0 c 0,0 -37.99611,29.97758 -37.99611,133.4939 0,98.52014 37.99611,133.5061 37.99611,133.5061 0,0 -48,-16.96406 -48,-133.5061 0,-109.0069 42.00389,-131.49387 42.00389,-131.49387 0,0 -7.35937,6.00041 -139.91795,5.9962 -146.08595,-0.005 -146.08595,-7.99623 -146.08595,-7.99623 z"
         id="path5096"
         inkscape:connector-curvature="0"
         sodipodi:nodetypes="ccscscsc" />
      <path
         sodipodi:type="arc"
         style="fill:#000000;fill-opacity:1;fill-rule:evenodd;stroke:none"
         id="path5098"
         sodipodi:cx="149.00233"
         sodipodi:cy="142.00241"
         sodipodi:rx="6.0023398"
         sodipodi:ry="5.9980502"
         d="m 155.00467,142.00241 c 0,3.31263 -2.68733,5.99805 -6.00234,5.99805 -3.315,0 -6.00234,-2.68542 -6.00234,-5.99805 0,-3.31263 2.68734,-5.99805 6.00234,-5.99805 3.31501,0 6.00234,2.68542 6.00234,5.99805 z"
         transform="matrix(0.99961018,0,0,1.0003251,165.69636,421.38004)" />
    </g>
    <g
       id="g5100"
       transform="matrix(-0.70661893,-0.70661893,-0.70660759,0.70660759,935.7626,388.29473)">
      <path
         sodipodi:nodetypes="ccscscsc"
         inkscape:connector-curvature="0"
         id="path5102"
         d="m 170.64061,426.42817 292.00001,0 c 0,0 -37.99611,29.97758 -37.99611,133.4939 0,98.52014 37.99611,133.5061 37.99611,133.5061 0,0 -48,-16.96406 -48,-133.5061 0,-109.0069 42.00389,-131.49387 42.00389,-131.49387 0,0 -7.35937,6.00041 -139.91795,5.9962 -146.08595,-0.005 -146.08595,-7.99623 -146.08595,-7.99623 z"
         style="fill:#000000;stroke:#000000;stroke-width:0;stroke-linecap:butt;stroke-linejoin:miter;stroke-miterlimit:4;stroke-opacity:1;stroke-dasharray:none" />
      <path
         transform="matrix(0.99961018,0,0,1.0003251,165.69636,421.38004)"
         d="m 155.00467,142.00241 c 0,3.31263 -2.68733,5.99805 -6.00234,5.99805 -3.315,0 -6.00234,-2.68542 -6.00234,-5.99805 0,-3.31263 2.68734,-5.99805 6.00234,-5.99805 3.31501,0 6.00234,2.68542 6.00234,5.99805 z"
         sodipodi:ry="5.9980502"
         sodipodi:rx="6.0023398"
         sodipodi:cy="142.00241"
         sodipodi:cx="149.00233"
         id="path5104"
         style="fill:#000000;fill-opacity:1;fill-rule:evenodd;stroke:none"
         sodipodi:type="arc" />
    </g>
    <g
       id="g5106"
       transform="matrix(-0.70661892,-0.70661892,0.7065977,-0.7065977,144.47039,1179.5869)">
      <path
         sodipodi:nodetypes="ccscscsc"
         inkscape:connector-curvature="0"
         id="path5108"
         d="m 170.64061,426.42817 292.00001,0 c 0,0 -37.99611,29.97758 -37.99611,133.4939 0,98.52014 37.99611,133.5061 37.99611,133.5061 0,0 -48,-16.96406 -48,-133.5061 0,-109.0069 42.00389,-131.49387 42.00389,-131.49387 0,0 -7.35937,6.00041 -139.91795,5.9962 -146.08595,-0.005 -146.08595,-7.99623 -146.08595,-7.99623 z"
         style="fill:#000000;stroke:#000000;stroke-width:0;stroke-linecap:butt;stroke-linejoin:miter;stroke-miterlimit:4;stroke-opacity:1;stroke-dasharray:none" />
      <path
         transform="matrix(0.99961018,0,0,1.0003251,165.69636,421.38004)"
         d="m 155.00467,142.00241 c 0,3.31263 -2.68733,5.99805 -6.00234,5.99805 -3.315,0 -6.00234,-2.68542 -6.00234,-5.99805 0,-3.31263 2.68734,-5.99805 6.00234,-5.99805 3.31501,0 6.00234,2.68542 6.00234,5.99805 z"
         sodipodi:ry="5.9980502"
         sodipodi:rx="6.0023398"
         sodipodi:cy="142.00241"
         sodipodi:cx="149.00233"
         id="path5110"
         style="fill:#000000;fill-opacity:1;fill-rule:evenodd;stroke:none"
         sodipodi:type="arc" />
    </g>
    <g
       transform="matrix(-0.70661893,-0.70661893,0.70660759,-0.70660759,144.46206,1179.5953)"
       id="g5112">
      <path
         style="fill:#000000;stroke:#000000;stroke-width:0;stroke-linecap:butt;stroke-linejoin:miter;stroke-miterlimit:4;stroke-opacity:1;stroke-dasharray:none"
         d="m 170.64061,426.42817 292.00001,0 c 0,0 -37.99611,29.97758 -37.99611,133.4939 0,98.52014 37.99611,133.5061 37.99611,133.5061 0,0 -48,-16.96406 -48,-133.5061 0,-109.0069 42.00389,-131.49387 42.00389,-131.49387 0,0 -7.35937,6.00041 -139.91795,5.9962 -146.08595,-0.005 -146.08595,-7.99623 -146.08595,-7.99623 z"
         id="path5114"
         inkscape:connector-curvature="0"
         sodipodi:nodetypes="ccscscsc" />
      <path
         sodipodi:type="arc"
         style="fill:#000000;fill-opacity:1;fill-rule:evenodd;stroke:none"
         id="path5116"
         sodipodi:cx="149.00233"
         sodipodi:cy="142.00241"
         sodipodi:rx="6.0023398"
         sodipodi:ry="5.9980502"
         d="m 155.00467,142.00241 c 0,3.31263 -2.68733,5.99805 -6.00234,5.99805 -3.315,0 -6.00234,-2.68542 -6.00234,-5.99805 0,-3.31263 2.68734,-5.99805 6.00234,-5.99805 3.31501,0 6.00234,2.68542 6.00234,5.99805 z"
         transform="matrix(0.99961018,0,0,1.0003251,165.69636,421.38004)" />
    </g>
    <g
       id="g5118"
       transform="matrix(-0.70661892,0.70661892,-0.7065977,-0.7065977,935.75276,732.09841)">
      <path
         sodipodi:nodetypes="ccscscsc"
         inkscape:connector-curvature="0"
         id="path5120"
         d="m 170.64061,426.42817 292.00001,0 c 0,0 -37.99611,29.97758 -37.99611,133.4939 0,98.52014 37.99611,133.5061 37.99611,133.5061 0,0 -48,-16.96406 -48,-133.5061 0,-109.0069 42.00389,-131.49387 42.00389,-131.49387 0,0 -7.35937,6.00041 -139.91795,5.9962 -146.08595,-0.005 -146.08595,-7.99623 -146.08595,-7.99623 z"
         style="fill:#000000;stroke:#000000;stroke-width:0;stroke-linecap:butt;stroke-linejoin:miter;stroke-miterlimit:4;stroke-opacity:1;stroke-dasharray:none" />
      <path
         transform="matrix(0.99961018,0,0,1.0003251,165.69636,421.38004)"
         d="m 155.00467,142.00241 c 0,3.31263 -2.68733,5.99805 -6.00234,5.99805 -3.315,0 -6.00234,-2.68542 -6.00234,-5.99805 0,-3.31263 2.68734,-5.99805 6.00234,-5.99805 3.31501,0 6.00234,2.68542 6.00234,5.99805 z"
         sodipodi:ry="5.9980502"
         sodipodi:rx="6.0023398"
         sodipodi:cy="142.00241"
         sodipodi:cx="149.00233"
         id="path5122"
         style="fill:#000000;fill-opacity:1;fill-rule:evenodd;stroke:none"
         sodipodi:type="arc" />
    </g>
    <g
       transform="matrix(-0.70661893,0.70661893,-0.70660759,-0.70660759,935.7611,732.10674)"
       id="g5124">
      <path
         style="fill:#000000;stroke:#000000;stroke-width:0;stroke-linecap:butt;stroke-linejoin:miter;stroke-miterlimit:4;stroke-opacity:1;stroke-dasharray:none"
         d="m 170.64061,426.42817 292.00001,0 c 0,0 -37.99611,29.97758 -37.99611,133.4939 0,98.52014 37.99611,133.5061 37.99611,133.5061 0,0 -48,-16.96406 -48,-133.5061 0,-109.0069 42.00389,-131.49387 42.00389,-131.49387 0,0 -7.35937,6.00041 -139.91795,5.9962 -146.08595,-0.005 -146.08595,-7.99623 -146.08595,-7.99623 z"
         id="path5126"
         inkscape:connector-curvature="0"
         sodipodi:nodetypes="ccscscsc" />
      <path
         sodipodi:type="arc"
         style="fill:#000000;fill-opacity:1;fill-rule:evenodd;stroke:none"
         id="path5128"
         sodipodi:cx="149.00233"
         sodipodi:cy="142.00241"
         sodipodi:rx="6.0023398"
         sodipodi:ry="5.9980502"
         d="m 155.00467,142.00241 c 0,3.31263 -2.68733,5.99805 -6.00234,5.99805 -3.315,0 -6.00234,-2.68542 -6.00234,-5.99805 0,-3.31263 2.68734,-5.99805 6.00234,-5.99805 3.31501,0 6.00234,2.68542 6.00234,5.99805 z"
         transform="matrix(0.99961018,0,0,1.0003251,165.69636,421.38004)" />
    </g>
    <g
       transform="matrix(-0.70661892,0.70661892,0.7065977,0.7065977,144.46891,-59.185442)"
       id="g5130">
      <path
         style="fill:#000000;stroke:#000000;stroke-width:0;stroke-linecap:butt;stroke-linejoin:miter;stroke-miterlimit:4;stroke-opacity:1;stroke-dasharray:none"
         d="m 170.64061,426.42817 292.00001,0 c 0,0 -37.99611,29.97758 -37.99611,133.4939 0,98.52014 37.99611,133.5061 37.99611,133.5061 0,0 -48,-16.96406 -48,-133.5061 0,-109.0069 42.00389,-131.49387 42.00389,-131.49387 0,0 -7.35937,6.00041 -139.91795,5.9962 -146.08595,-0.005 -146.08595,-7.99623 -146.08595,-7.99623 z"
         id="path5132"
         inkscape:connector-curvature="0"
         sodipodi:nodetypes="ccscscsc" />
      <path
         sodipodi:type="arc"
         style="fill:#000000;fill-opacity:1;fill-rule:evenodd;stroke:none"
         id="path5134"
         sodipodi:cx="149.00233"
         sodipodi:cy="142.00241"
         sodipodi:rx="6.0023398"
         sodipodi:ry="5.9980502"
         d="m 155.00467,142.00241 c 0,3.31263 -2.68733,5.99805 -6.00234,5.99805 -3.315,0 -6.00234,-2.68542 -6.00234,-5.99805 0,-3.31263 2.68734,-5.99805 6.00234,-5.99805 3.31501,0 6.00234,2.68542 6.00234,5.99805 z"
         transform="matrix(0.99961018,0,0,1.0003251,165.69636,421.38004)" />
    </g>
    <g
       id="g5136"
       transform="matrix(-0.70661893,0.70661893,0.70660759,0.70660759,144.46058,-59.19378)">
      <path
         sodipodi:nodetypes="ccscscsc"
         inkscape:connector-curvature="0"
         id="path5138"
         d="m 170.64061,426.42817 292.00001,0 c 0,0 -37.99611,29.97758 -37.99611,133.4939 0,98.52014 37.99611,133.5061 37.99611,133.5061 0,0 -48,-16.96406 -48,-133.5061 0,-109.0069 42.00389,-131.49387 42.00389,-131.49387 0,0 -7.35937,6.00041 -139.91795,5.9962 -146.08595,-0.005 -146.08595,-7.99623 -146.08595,-7.99623 z"
         style="fill:#000000;stroke:#000000;stroke-width:0;stroke-linecap:butt;stroke-linejoin:miter;stroke-miterlimit:4;stroke-opacity:1;stroke-dasharray:none" />
      <path
         transform="matrix(0.99961018,0,0,1.0003251,165.69636,421.38004)"
         d="m 155.00467,142.00241 c 0,3.31263 -2.68733,5.99805 -6.00234,5.99805 -3.315,0 -6.00234,-2.68542 -6.00234,-5.99805 0,-3.31263 2.68734,-5.99805 6.00234,-5.99805 3.31501,0 6.00234,2.68542 6.00234,5.99805 z"
         sodipodi:ry="5.9980502"
         sodipodi:rx="6.0023398"
         sodipodi:cy="142.00241"
         sodipodi:cx="149.00233"
         id="path5140"
         style="fill:#000000;fill-opacity:1;fill-rule:evenodd;stroke:none"
         sodipodi:type="arc" />
    </g>
    <g
       transform="matrix(-0.70661892,0.70661892,-0.7065977,-0.7065977,935.75425,732.09991)"
       id="g5142">
      <path
         style="fill:#000000;stroke:#000000;stroke-width:0;stroke-linecap:butt;stroke-linejoin:miter;stroke-miterlimit:4;stroke-opacity:1;stroke-dasharray:none"
         d="m 170.64061,426.42817 292.00001,0 c 0,0 -37.99611,29.97758 -37.99611,133.4939 0,98.52014 37.99611,133.5061 37.99611,133.5061 0,0 -48,-16.96406 -48,-133.5061 0,-109.0069 42.00389,-131.49387 42.00389,-131.49387 0,0 -7.35937,6.00041 -139.91795,5.9962 -146.08595,-0.005 -146.08595,-7.99623 -146.08595,-7.99623 z"
         id="path5144"
         inkscape:connector-curvature="0"
         sodipodi:nodetypes="ccscscsc" />
      <path
         sodipodi:type="arc"
         style="fill:#000000;fill-opacity:1;fill-rule:evenodd;stroke:none"
         id="path5146"
         sodipodi:cx="149.00233"
         sodipodi:cy="142.00241"
         sodipodi:rx="6.0023398"
         sodipodi:ry="5.9980502"
         d="m 155.00467,142.00241 c 0,3.31263 -2.68733,5.99805 -6.00234,5.99805 -3.315,0 -6.00234,-2.68542 -6.00234,-5.99805 0,-3.31263 2.68734,-5.99805 6.00234,-5.99805 3.31501,0 6.00234,2.68542 6.00234,5.99805 z"
         transform="matrix(0.99961018,0,0,1.0003251,165.69636,421.38004)" />
    </g>
    <g
       id="g5148"
       transform="matrix(-0.70661893,0.70661893,-0.70660759,-0.70660759,935.7626,732.10824)">
      <path
         sodipodi:nodetypes="ccscscsc"
         inkscape:connector-curvature="0"
         id="path5150"
         d="m 170.64061,426.42817 292.00001,0 c 0,0 -37.99611,29.97758 -37.99611,133.4939 0,98.52014 37.99611,133.5061 37.99611,133.5061 0,0 -48,-16.96406 -48,-133.5061 0,-109.0069 42.00389,-131.49387 42.00389,-131.49387 0,0 -7.35937,6.00041 -139.91795,5.9962 -146.08595,-0.005 -146.08595,-7.99623 -146.08595,-7.99623 z"
         style="fill:#000000;stroke:#000000;stroke-width:0;stroke-linecap:butt;stroke-linejoin:miter;stroke-miterlimit:4;stroke-opacity:1;stroke-dasharray:none" />
      <path
         transform="matrix(0.99961018,0,0,1.0003251,165.69636,421.38004)"
         d="m 155.00467,142.00241 c 0,3.31263 -2.68733,5.99805 -6.00234,5.99805 -3.315,0 -6.00234,-2.68542 -6.00234,-5.99805 0,-3.31263 2.68734,-5.99805 6.00234,-5.99805 3.31501,0 6.00234,2.68542 6.00234,5.99805 z"
         sodipodi:ry="5.9980502"
         sodipodi:rx="6.0023398"
         sodipodi:cy="142.00241"
         sodipodi:cx="149.00233"
         id="path5152"
         style="fill:#000000;fill-opacity:1;fill-rule:evenodd;stroke:none"
         sodipodi:type="arc" />
    </g>
    <g
       id="g5154"
       transform="matrix(-0.70661892,0.70661892,0.7065977,0.7065977,144.47039,-59.183958)">
      <path
         sodipodi:nodetypes="ccscscsc"
         inkscape:connector-curvature="0"
         id="path5156"
         d="m 170.64061,426.42817 292.00001,0 c 0,0 -37.99611,29.97758 -37.99611,133.4939 0,98.52014 37.99611,133.5061 37.99611,133.5061 0,0 -48,-16.96406 -48,-133.5061 0,-109.0069 42.00389,-131.49387 42.00389,-131.49387 0,0 -7.35937,6.00041 -139.91795,5.9962 -146.08595,-0.005 -146.08595,-7.99623 -146.08595,-7.99623 z"
         style="fill:#000000;stroke:#000000;stroke-width:0;stroke-linecap:butt;stroke-linejoin:miter;stroke-miterlimit:4;stroke-opacity:1;stroke-dasharray:none" />
      <path
         transform="matrix(0.99961018,0,0,1.0003251,165.69636,421.38004)"
         d="m 155.00467,142.00241 c 0,3.31263 -2.68733,5.99805 -6.00234,5.99805 -3.315,0 -6.00234,-2.68542 -6.00234,-5.99805 0,-3.31263 2.68734,-5.99805 6.00234,-5.99805 3.31501,0 6.00234,2.68542 6.00234,5.99805 z"
         sodipodi:ry="5.9980502"
         sodipodi:rx="6.0023398"
         sodipodi:cy="142.00241"
         sodipodi:cx="149.00233"
         id="path5158"
         style="fill:#000000;fill-opacity:1;fill-rule:evenodd;stroke:none"
         sodipodi:type="arc" />
    </g>
    <g
       transform="matrix(-0.70661893,0.70661893,0.70660759,0.70660759,144.46206,-59.192296)"
       id="g5160">
      <path
         style="fill:#000000;stroke:#000000;stroke-width:0;stroke-linecap:butt;stroke-linejoin:miter;stroke-miterlimit:4;stroke-opacity:1;stroke-dasharray:none"
         d="m 170.64061,426.42817 292.00001,0 c 0,0 -37.99611,29.97758 -37.99611,133.4939 0,98.52014 37.99611,133.5061 37.99611,133.5061 0,0 -48,-16.96406 -48,-133.5061 0,-109.0069 42.00389,-131.49387 42.00389,-131.49387 0,0 -7.35937,6.00041 -139.91795,5.9962 -146.08595,-0.005 -146.08595,-7.99623 -146.08595,-7.99623 z"
         id="path5162"
         inkscape:connector-curvature="0"
         sodipodi:nodetypes="ccscscsc" />
      <path
         sodipodi:type="arc"
         style="fill:#000000;fill-opacity:1;fill-rule:evenodd;stroke:none"
         id="path5164"
         sodipodi:cx="149.00233"
         sodipodi:cy="142.00241"
         sodipodi:rx="6.0023398"
         sodipodi:ry="5.9980502"
         d="m 155.00467,142.00241 c 0,3.31263 -2.68733,5.99805 -6.00234,5.99805 -3.315,0 -6.00234,-2.68542 -6.00234,-5.99805 0,-3.31263 2.68734,-5.99805 6.00234,-5.99805 3.31501,0 6.00234,2.68542 6.00234,5.99805 z"
         transform="matrix(0.99961018,0,0,1.0003251,165.69636,421.38004)" />
    </g>
    <g
       transform="matrix(0.70661892,-0.70661892,-0.7065977,-0.7065977,488.26425,1179.5869)"
       id="g5166">
      <path
         style="fill:#000000;stroke:#000000;stroke-width:0;stroke-linecap:butt;stroke-linejoin:miter;stroke-miterlimit:4;stroke-opacity:1;stroke-dasharray:none"
         d="m 170.64061,426.42817 292.00001,0 c 0,0 -37.99611,29.97758 -37.99611,133.4939 0,98.52014 37.99611,133.5061 37.99611,133.5061 0,0 -48,-16.96406 -48,-133.5061 0,-109.0069 42.00389,-131.49387 42.00389,-131.49387 0,0 -7.35937,6.00041 -139.91795,5.9962 -146.08595,-0.005 -146.08595,-7.99623 -146.08595,-7.99623 z"
         id="path5168"
         inkscape:connector-curvature="0"
         sodipodi:nodetypes="ccscscsc" />
      <path
         sodipodi:type="arc"
         style="fill:#000000;fill-opacity:1;fill-rule:evenodd;stroke:none"
         id="path5170"
         sodipodi:cx="149.00233"
         sodipodi:cy="142.00241"
         sodipodi:rx="6.0023398"
         sodipodi:ry="5.9980502"
         d="m 155.00467,142.00241 c 0,3.31263 -2.68733,5.99805 -6.00234,5.99805 -3.315,0 -6.00234,-2.68542 -6.00234,-5.99805 0,-3.31263 2.68734,-5.99805 6.00234,-5.99805 3.31501,0 6.00234,2.68542 6.00234,5.99805 z"
         transform="matrix(0.99961018,0,0,1.0003251,165.69636,421.38004)" />
    </g>
    <g
       id="g5172"
       transform="matrix(0.70661893,-0.70661893,-0.70660759,-0.70660759,488.27259,1179.5953)">
      <path
         sodipodi:nodetypes="ccscscsc"
         inkscape:connector-curvature="0"
         id="path5174"
         d="m 170.64061,426.42817 292.00001,0 c 0,0 -37.99611,29.97758 -37.99611,133.4939 0,98.52014 37.99611,133.5061 37.99611,133.5061 0,0 -48,-16.96406 -48,-133.5061 0,-109.0069 42.00389,-131.49387 42.00389,-131.49387 0,0 -7.35937,6.00041 -139.91795,5.9962 -146.08595,-0.005 -146.08595,-7.99623 -146.08595,-7.99623 z"
         style="fill:#000000;stroke:#000000;stroke-width:0;stroke-linecap:butt;stroke-linejoin:miter;stroke-miterlimit:4;stroke-opacity:1;stroke-dasharray:none" />
      <path
         transform="matrix(0.99961018,0,0,1.0003251,165.69636,421.38004)"
         d="m 155.00467,142.00241 c 0,3.31263 -2.68733,5.99805 -6.00234,5.99805 -3.315,0 -6.00234,-2.68542 -6.00234,-5.99805 0,-3.31263 2.68734,-5.99805 6.00234,-5.99805 3.31501,0 6.00234,2.68542 6.00234,5.99805 z"
         sodipodi:ry="5.9980502"
         sodipodi:rx="6.0023398"
         sodipodi:cy="142.00241"
         sodipodi:cx="149.00233"
         id="path5176"
         style="fill:#000000;fill-opacity:1;fill-rule:evenodd;stroke:none"
         sodipodi:type="arc" />
    </g>
    <g
       id="g5178"
       transform="matrix(0.70661892,-0.70661892,0.7065977,0.7065977,-303.01959,388.30307)">
      <path
         sodipodi:nodetypes="ccscscsc"
         inkscape:connector-curvature="0"
         id="path5180"
         d="m 170.64061,426.42817 292.00001,0 c 0,0 -37.99611,29.97758 -37.99611,133.4939 0,98.52014 37.99611,133.5061 37.99611,133.5061 0,0 -48,-16.96406 -48,-133.5061 0,-109.0069 42.00389,-131.49387 42.00389,-131.49387 0,0 -7.35937,6.00041 -139.91795,5.9962 -146.08595,-0.005 -146.08595,-7.99623 -146.08595,-7.99623 z"
         style="fill:#000000;stroke:#000000;stroke-width:0;stroke-linecap:butt;stroke-linejoin:miter;stroke-miterlimit:4;stroke-opacity:1;stroke-dasharray:none" />
      <path
         transform="matrix(0.99961018,0,0,1.0003251,165.69636,421.38004)"
         d="m 155.00467,142.00241 c 0,3.31263 -2.68733,5.99805 -6.00234,5.99805 -3.315,0 -6.00234,-2.68542 -6.00234,-5.99805 0,-3.31263 2.68734,-5.99805 6.00234,-5.99805 3.31501,0 6.00234,2.68542 6.00234,5.99805 z"
         sodipodi:ry="5.9980502"
         sodipodi:rx="6.0023398"
         sodipodi:cy="142.00241"
         sodipodi:cx="149.00233"
         id="path5182"
         style="fill:#000000;fill-opacity:1;fill-rule:evenodd;stroke:none"
         sodipodi:type="arc" />
    </g>
    <g
       transform="matrix(0.70661893,-0.70661893,0.70660759,0.70660759,-303.02794,388.29473)"
       id="g5184">
      <path
         style="fill:#000000;stroke:#000000;stroke-width:0;stroke-linecap:butt;stroke-linejoin:miter;stroke-miterlimit:4;stroke-opacity:1;stroke-dasharray:none"
         d="m 170.64061,426.42817 292.00001,0 c 0,0 -37.99611,29.97758 -37.99611,133.4939 0,98.52014 37.99611,133.5061 37.99611,133.5061 0,0 -48,-16.96406 -48,-133.5061 0,-109.0069 42.00389,-131.49387 42.00389,-131.49387 0,0 -7.35937,6.00041 -139.91795,5.9962 -146.08595,-0.005 -146.08595,-7.99623 -146.08595,-7.99623 z"
         id="path5186"
         inkscape:connector-curvature="0"
         sodipodi:nodetypes="ccscscsc" />
      <path
         sodipodi:type="arc"
         style="fill:#000000;fill-opacity:1;fill-rule:evenodd;stroke:none"
         id="path5188"
         sodipodi:cx="149.00233"
         sodipodi:cy="142.00241"
         sodipodi:rx="6.0023398"
         sodipodi:ry="5.9980502"
         d="m 155.00467,142.00241 c 0,3.31263 -2.68733,5.99805 -6.00234,5.99805 -3.315,0 -6.00234,-2.68542 -6.00234,-5.99805 0,-3.31263 2.68734,-5.99805 6.00234,-5.99805 3.31501,0 6.00234,2.68542 6.00234,5.99805 z"
         transform="matrix(0.99961018,0,0,1.0003251,165.69636,421.38004)" />
    </g>
    <g
       id="g5190"
       transform="matrix(0.70661892,-0.70661892,-0.7065977,-0.7065977,488.26575,1179.5884)">
      <path
         sodipodi:nodetypes="ccscscsc"
         inkscape:connector-curvature="0"
         id="path5192"
         d="m 170.64061,426.42817 292.00001,0 c 0,0 -37.99611,29.97758 -37.99611,133.4939 0,98.52014 37.99611,133.5061 37.99611,133.5061 0,0 -48,-16.96406 -48,-133.5061 0,-109.0069 42.00389,-131.49387 42.00389,-131.49387 0,0 -7.35937,6.00041 -139.91795,5.9962 -146.08595,-0.005 -146.08595,-7.99623 -146.08595,-7.99623 z"
         style="fill:#000000;stroke:#000000;stroke-width:0;stroke-linecap:butt;stroke-linejoin:miter;stroke-miterlimit:4;stroke-opacity:1;stroke-dasharray:none" />
      <path
         transform="matrix(0.99961018,0,0,1.0003251,165.69636,421.38004)"
         d="m 155.00467,142.00241 c 0,3.31263 -2.68733,5.99805 -6.00234,5.99805 -3.315,0 -6.00234,-2.68542 -6.00234,-5.99805 0,-3.31263 2.68734,-5.99805 6.00234,-5.99805 3.31501,0 6.00234,2.68542 6.00234,5.99805 z"
         sodipodi:ry="5.9980502"
         sodipodi:rx="6.0023398"
         sodipodi:cy="142.00241"
         sodipodi:cx="149.00233"
         id="path5194"
         style="fill:#000000;fill-opacity:1;fill-rule:evenodd;stroke:none"
         sodipodi:type="arc" />
    </g>
    <g
       transform="matrix(0.70661893,-0.70661893,-0.70660759,-0.70660759,488.27409,1179.5968)"
       id="g5196">
      <path
         style="fill:#000000;stroke:#000000;stroke-width:0;stroke-linecap:butt;stroke-linejoin:miter;stroke-miterlimit:4;stroke-opacity:1;stroke-dasharray:none"
         d="m 170.64061,426.42817 292.00001,0 c 0,0 -37.99611,29.97758 -37.99611,133.4939 0,98.52014 37.99611,133.5061 37.99611,133.5061 0,0 -48,-16.96406 -48,-133.5061 0,-109.0069 42.00389,-131.49387 42.00389,-131.49387 0,0 -7.35937,6.00041 -139.91795,5.9962 -146.08595,-0.005 -146.08595,-7.99623 -146.08595,-7.99623 z"
         id="path5198"
         inkscape:connector-curvature="0"
         sodipodi:nodetypes="ccscscsc" />
      <path
         sodipodi:type="arc"
         style="fill:#000000;fill-opacity:1;fill-rule:evenodd;stroke:none"
         id="path5200"
         sodipodi:cx="149.00233"
         sodipodi:cy="142.00241"
         sodipodi:rx="6.0023398"
         sodipodi:ry="5.9980502"
         d="m 155.00467,142.00241 c 0,3.31263 -2.68733,5.99805 -6.00234,5.99805 -3.315,0 -6.00234,-2.68542 -6.00234,-5.99805 0,-3.31263 2.68734,-5.99805 6.00234,-5.99805 3.31501,0 6.00234,2.68542 6.00234,5.99805 z"
         transform="matrix(0.99961018,0,0,1.0003251,165.69636,421.38004)" />
    </g>
    <g
       transform="matrix(0.70661892,-0.70661892,0.7065977,0.7065977,-303.01811,388.30455)"
       id="g5202">
      <path
         style="fill:#000000;stroke:#000000;stroke-width:0;stroke-linecap:butt;stroke-linejoin:miter;stroke-miterlimit:4;stroke-opacity:1;stroke-dasharray:none"
         d="m 170.64061,426.42817 292.00001,0 c 0,0 -37.99611,29.97758 -37.99611,133.4939 0,98.52014 37.99611,133.5061 37.99611,133.5061 0,0 -48,-16.96406 -48,-133.5061 0,-109.0069 42.00389,-131.49387 42.00389,-131.49387 0,0 -7.35937,6.00041 -139.91795,5.9962 -146.08595,-0.005 -146.08595,-7.99623 -146.08595,-7.99623 z"
         id="path5204"
         inkscape:connector-curvature="0"
         sodipodi:nodetypes="ccscscsc" />
      <path
         sodipodi:type="arc"
         style="fill:#000000;fill-opacity:1;fill-rule:evenodd;stroke:none"
         id="path5206"
         sodipodi:cx="149.00233"
         sodipodi:cy="142.00241"
         sodipodi:rx="6.0023398"
         sodipodi:ry="5.9980502"
         d="m 155.00467,142.00241 c 0,3.31263 -2.68733,5.99805 -6.00234,5.99805 -3.315,0 -6.00234,-2.68542 -6.00234,-5.99805 0,-3.31263 2.68734,-5.99805 6.00234,-5.99805 3.31501,0 6.00234,2.68542 6.00234,5.99805 z"
         transform="matrix(0.99961018,0,0,1.0003251,165.69636,421.38004)" />
    </g>
    <g
       id="g5208"
       transform="matrix(0.70661893,-0.70661893,0.70660759,0.70660759,-303.02645,388.29622)">
      <path
         sodipodi:nodetypes="ccscscsc"
         inkscape:connector-curvature="0"
         id="path5210"
         d="m 170.64061,426.42817 292.00001,0 c 0,0 -37.99611,29.97758 -37.99611,133.4939 0,98.52014 37.99611,133.5061 37.99611,133.5061 0,0 -48,-16.96406 -48,-133.5061 0,-109.0069 42.00389,-131.49387 42.00389,-131.49387 0,0 -7.35937,6.00041 -139.91795,5.9962 -146.08595,-0.005 -146.08595,-7.99623 -146.08595,-7.99623 z"
         style="fill:#000000;stroke:#000000;stroke-width:0;stroke-linecap:butt;stroke-linejoin:miter;stroke-miterlimit:4;stroke-opacity:1;stroke-dasharray:none" />
      <path
         transform="matrix(0.99961018,0,0,1.0003251,165.69636,421.38004)"
         d="m 155.00467,142.00241 c 0,3.31263 -2.68733,5.99805 -6.00234,5.99805 -3.315,0 -6.00234,-2.68542 -6.00234,-5.99805 0,-3.31263 2.68734,-5.99805 6.00234,-5.99805 3.31501,0 6.00234,2.68542 6.00234,5.99805 z"
         sodipodi:ry="5.9980502"
         sodipodi:rx="6.0023398"
         sodipodi:cy="142.00241"
         sodipodi:cx="149.00233"
         id="path5212"
         style="fill:#000000;fill-opacity:1;fill-rule:evenodd;stroke:none"
         sodipodi:type="arc" />
    </g>
  </g>
  <g
     inkscape:groupmode="layer"
     id="layer4"
     inkscape:label="Middle bits"
     transform="translate(46.773292,58.726667)">
    <path
       style="fill:none;stroke:#000000;stroke-width:0;stroke-linecap:butt;stroke-linejoin:miter;stroke-miterlimit:4;stroke-opacity:1;stroke-dasharray:none"
       d="m 150.72672,10.361965 c 0,0 47.9662,82.714834 47.96688,128.405495 6.8e-4,45.6943 -47.96688,128.4172 -47.96688,128.4172 0,0 37.97433,-83.77922 37.97378,-128.4172 C 188.69995,94.133217 150.72672,10.361965 150.72672,10.361965 z"
       id="path5930"
       inkscape:connector-curvature="0"
       sodipodi:nodetypes="cscsc"
       inkscape:transform-center-x="-23.983443" />
    <path
       style="fill:#000000;fill-opacity:1;fill-rule:evenodd;stroke:none"
       d="m 186.95171,138.76746 c 0,-56.452353 -37.97379,-128.405491 -37.97379,-128.405491 0,0 45.96827,48.967397 45.96827,128.407441 0,79.44394 -45.96827,128.41525 -45.96827,128.41525 0,0 37.97379,-71.95314 37.97379,-128.4172 z"
       id="path5936"
       inkscape:connector-curvature="0"
       sodipodi:nodetypes="scscs"
       inkscape:transform-center-x="-21.235338" />
    <path
       sodipodi:nodetypes="cscsc"
       inkscape:connector-curvature="0"
       id="path5998"
       d="m 150.72672,10.361965 c 0,0 -47.96621,82.714834 -47.96689,128.405495 -6.8e-4,45.6943 47.96689,128.4172 47.96689,128.4172 0,0 -37.97434,-83.77922 -37.97379,-128.4172 5.5e-4,-44.634243 37.97379,-128.405495 37.97379,-128.405495 z"
       style="fill:none;stroke:#000000;stroke-width:0;stroke-linecap:butt;stroke-linejoin:miter;stroke-miterlimit:4;stroke-opacity:1;stroke-dasharray:none"
       inkscape:transform-center-x="23.983442" />
    <path
       inkscape:transform-center-x="21.235337"
       sodipodi:nodetypes="scscs"
       inkscape:connector-curvature="0"
       id="path6000"
       d="m 114.50173,138.76746 c 0,-56.452353 37.97378,-128.405491 37.97378,-128.405491 0,0 -45.96826,48.967397 -45.96826,128.407441 0,79.44394 45.96826,128.41525 45.96826,128.41525 0,0 -37.97378,-71.95314 -37.97378,-128.4172 z"
       style="fill:#000000;fill-opacity:1;fill-rule:evenodd;stroke:none" />
    <path
       sodipodi:nodetypes="cscsc"
       inkscape:connector-curvature="0"
       id="path6002"
       d="m 279.13806,138.77331 c 0,0 -82.71483,47.96621 -128.40549,47.96689 -45.6943,6.8e-4 -128.417194,-47.96689 -128.417194,-47.96689 0,0 83.779214,37.97434 128.417194,37.97379 44.63424,-5.5e-4 128.40549,-37.97379 128.40549,-37.97379 z"
       style="fill:none;stroke:#000000;stroke-width:0;stroke-linecap:butt;stroke-linejoin:miter;stroke-miterlimit:4;stroke-opacity:1;stroke-dasharray:none"
       inkscape:transform-center-y="23.98344" />
    <path
       sodipodi:nodetypes="scscs"
       inkscape:connector-curvature="0"
       id="path6004"
       d="m 150.73257,174.9983 c 56.45235,0 128.40549,-37.97378 128.40549,-37.97378 0,0 -48.9674,45.96826 -128.40744,45.96826 -79.443933,0 -128.415244,-45.96826 -128.415244,-45.96826 0,0 71.953134,37.97378 128.417194,37.97378 z"
       style="fill:#000000;fill-opacity:1;fill-rule:evenodd;stroke:none"
       inkscape:transform-center-y="21.235335" />
    <path
       style="fill:#000000;fill-opacity:1;fill-rule:evenodd;stroke:none"
       d="m 150.73257,102.54832 c 56.45235,0 128.40549,37.97379 128.40549,37.97379 0,0 -48.9674,-45.968269 -128.40744,-45.968269 -79.443933,0 -128.415244,45.968269 -128.415244,45.968269 0,0 71.953134,-37.97379 128.417194,-37.97379 z"
       id="path6006"
       inkscape:connector-curvature="0"
       sodipodi:nodetypes="scscs"
       inkscape:transform-center-y="-21.235338" />
    <path
       sodipodi:nodetypes="cscsc"
       inkscape:connector-curvature="0"
       id="path6008"
       d="m 241.52725,47.972777 c 0,0 -24.57099,92.405453 -56.87868,124.714103 -32.31028,32.31123 -124.722382,56.88696 -124.722382,56.88696 0,0 86.092762,-32.38894 117.656192,-63.95315 31.56079,-31.56156 63.94487,-117.647913 63.94487,-117.647913 z"
       style="fill:none;stroke:#000000;stroke-width:0;stroke-linecap:butt;stroke-linejoin:miter;stroke-miterlimit:4;stroke-opacity:1;stroke-dasharray:none" />
    <path
       inkscape:transform-center-x="1.2365861"
       sodipodi:nodetypes="scscs"
       inkscape:connector-curvature="0"
       id="path6010"
       d="m 176.3458,164.38411 c 39.91783,-39.91784 63.94486,-117.647914 63.94486,-117.647914 0,0 -2.1207,67.129654 -58.29329,123.302244 -56.17535,56.17534 -123.307765,58.29882 -123.307765,58.29882 0,0 77.730065,-24.02702 117.656195,-63.95315 z"
       style="fill:#000000;fill-opacity:1;fill-rule:evenodd;stroke:none"
       inkscape:transform-center-y="-1.236585" />
    <path
       style="fill:none;stroke:#000000;stroke-width:0;stroke-linecap:butt;stroke-linejoin:miter;stroke-miterlimit:4;stroke-opacity:1;stroke-dasharray:none"
       d="m 241.52725,47.972777 c 0,0 -92.40545,24.570992 -124.7141,56.878683 -32.311229,32.31028 -56.886962,124.72238 -56.886962,124.72238 0,0 32.388946,-86.09276 63.953152,-117.65619 C 155.4409,80.356867 241.52725,47.972777 241.52725,47.972777 z"
       id="path6012"
       inkscape:connector-curvature="0"
       sodipodi:nodetypes="cscsc" />
    <path
       style="fill:#000000;fill-opacity:1;fill-rule:evenodd;stroke:none"
       d="m 125.11592,113.15424 c 39.91784,-39.917844 117.64791,-63.944877 117.64791,-63.944877 0,0 -67.12965,2.120708 -123.30224,58.293297 -56.175344,56.17535 -58.298819,123.30777 -58.298819,123.30777 0,0 24.02703,-77.73006 63.953149,-117.65619 z"
       id="path6014"
       inkscape:connector-curvature="0"
       sodipodi:nodetypes="scscs"
       inkscape:transform-center-x="-1.2365819"
       inkscape:transform-center-y="1.2365835" />
    <path
       style="fill:none;stroke:#000000;stroke-width:0;stroke-linecap:butt;stroke-linejoin:miter;stroke-miterlimit:4;stroke-opacity:1;stroke-dasharray:none"
       d="m 241.52725,229.57384 c 0,0 -92.40545,-24.57098 -124.7141,-56.87868 C 84.501921,140.38489 59.92619,47.972779 59.92619,47.972779 c 0,0 32.388944,86.092761 63.95315,117.656191 31.56156,31.56078 117.64791,63.94487 117.64791,63.94487 z"
       id="path6016"
       inkscape:connector-curvature="0"
       sodipodi:nodetypes="cscsc" />
    <path
       inkscape:transform-center-y="-1.2365862"
       style="fill:#000000;fill-opacity:1;fill-rule:evenodd;stroke:none"
       d="m 125.11592,164.39239 c 39.91784,39.91784 117.64791,63.94487 117.64791,63.94487 0,0 -67.12965,-2.12071 -123.30224,-58.2933 C 63.286247,113.86862 61.162773,46.736195 61.162773,46.736195 c 0,0 24.027029,77.730075 63.953147,117.656195 z"
       id="path6018"
       inkscape:connector-curvature="0"
       sodipodi:nodetypes="scscs"
       inkscape:transform-center-x="-1.2365822" />
    <path
       inkscape:transform-center-y="1.2365823"
       sodipodi:nodetypes="scscs"
       inkscape:connector-curvature="0"
       id="path6020"
       d="m 176.3458,113.16251 c 39.91783,39.91785 63.94487,117.64792 63.94487,117.64792 0,0 -2.12071,-67.12965 -58.2933,-123.30224 C 125.82202,51.332838 58.689607,49.209362 58.689607,49.209362 c 0,0 77.730063,24.027029 117.656193,63.953148 z"
       style="fill:#000000;fill-opacity:1;fill-rule:evenodd;stroke:none"
       inkscape:transform-center-x="1.2365808" />
  </g>
</svg>
