<?xml version="1.0" encoding="UTF-8" standalone="no"?>
<!-- Created with Inkscape (http://www.inkscape.org/) -->

<svg
   xmlns:dc="http://purl.org/dc/elements/1.1/"
   xmlns:cc="http://creativecommons.org/ns#"
   xmlns:rdf="http://www.w3.org/1999/02/22-rdf-syntax-ns#"
   xmlns:svg="http://www.w3.org/2000/svg"
   xmlns="http://www.w3.org/2000/svg"
   version="1.1"
   width="343.65701"
   height="500"
   id="svg3071">
  <defs
     id="defs3073" />
  <metadata
     id="metadata3076">
    <rdf:RDF>
      <cc:Work
         rdf:about="">
        <dc:format>image/svg+xml</dc:format>
        <dc:type
           rdf:resource="http://purl.org/dc/dcmitype/StillImage" />
        <dc:title></dc:title>
      </cc:Work>
    </rdf:RDF>
  </metadata>
  <g
     transform="translate(695.11436,710.48925)"
     id="layer1">
    <path
       d="m -351.45736,-667.10025 -124.338,178.324 c 14.547,14.361 25.516,26.674 25.516,26.674 l -22.727,24.857 c 0,0 -8.844,-11.715 -20.434,-26.24 l -156.221,224.07 h 83.326 l 214.878,-308.533 v 337.459 h -24.793 v -251.613 l -180.434,251.613 h -138.43 l 186.59,-271.467 c -11.197,-13.369 -22.582,-26.117 -30.082,-32.252 -20.701,-16.925 -92.75,-51.593 -94.98,-52.666 2.189,0.475 72.873,16.362 112.027,39.752 8.801,5.248 18.943,13.45 28.76,22.272 l 141.342,-205.639 v 43.389 z"
       id="Chromium" />
  </g>
</svg>
