<?xml version="1.0" encoding="UTF-8" standalone="no"?>
<!-- Generator: Adobe Illustrator 22.0.1, SVG Export Plug-In . SVG Version: 6.00 Build 0)  -->

<svg
   xmlns:dc="http://purl.org/dc/elements/1.1/"
   xmlns:cc="http://creativecommons.org/ns#"
   xmlns:rdf="http://www.w3.org/1999/02/22-rdf-syntax-ns#"
   xmlns:svg="http://www.w3.org/2000/svg"
   xmlns="http://www.w3.org/2000/svg"
   xmlns:sodipodi="http://sodipodi.sourceforge.net/DTD/sodipodi-0.dtd"
   xmlns:inkscape="http://www.inkscape.org/namespaces/inkscape"
   version="1.1"
   id="Trace"
   x="0px"
   y="0px"
   viewBox="0 0 223.9 478.5"
   style="enable-background:new 0 0 223.9 478.5;"
   xml:space="preserve"
   sodipodi:docname="Herald_Glyph_Ishi.svg"
   inkscape:version="0.92.4 (5da689c313, 2019-01-14)"><metadata
   id="metadata47"><rdf:RDF><cc:Work
       rdf:about=""><dc:format>image/svg+xml</dc:format><dc:type
         rdf:resource="http://purl.org/dc/dcmitype/StillImage" /></cc:Work></rdf:RDF></metadata><defs
   id="defs45" /><sodipodi:namedview
   pagecolor="#ffffff"
   bordercolor="#666666"
   borderopacity="1"
   objecttolerance="10"
   gridtolerance="10"
   guidetolerance="10"
   inkscape:pageopacity="0"
   inkscape:pageshadow="2"
   inkscape:window-width="674"
   inkscape:window-height="480"
   id="namedview43"
   showgrid="false"
   inkscape:zoom="1.9728318"
   inkscape:cx="142.87259"
   inkscape:cy="251.66103"
   inkscape:window-x="648"
   inkscape:window-y="222"
   inkscape:window-maximized="0"
   inkscape:current-layer="g40" />
<style
   type="text/css"
   id="style2">
	.st0{fill:#ebc965;}
</style>
<g
   id="g40">
	<path
   class="st0"
   d="m 141.9,152.5 c 1.5,0.3 11,-3.4 12.6,-5.1 -11.9,-7.2 -19.3,-28.8 -14.5,-49.8 3.2,0 22,-7.4 25.2,-9.7 0.5,-5.6 3.1,-6.1 3.4,-11.7 -12.5,10.8 -22,10.8 -36.7,19.8 0.1,16.9 3.7,48.4 10,56.5 z"
   id="path4"
   inkscape:connector-curvature="0"
   style="fill:#ebc965;fill-opacity:1" />
	<path
   class="st0"
   d="m 121,187 c 2,0.2 2.8,2.4 4.8,2.9 v 17.7 c -8.4,-4.5 1.8,-11.7 -4.8,-20.6 z"
   id="path6"
   inkscape:connector-curvature="0"
   style="fill:#ebc965;fill-opacity:1" />
	<path
   class="st0"
   d="m 82,152.5 c -1.5,0.3 -11,-3.4 -12.6,-5.1 11.9,-7.2 19.3,-28.8 14.5,-49.8 -3.2,0 -22,-7.4 -25.2,-9.7 C 58.2,82.3 55.6,81.8 55.3,76.2 67.8,87 77.3,87 92,96 c -0.1,16.9 -3.7,48.4 -10,56.5 z"
   id="path8"
   inkscape:connector-curvature="0"
   style="fill:#ebc965;fill-opacity:1" />
	<path
   class="st0"
   d="m 222.2,130.2 c -1.2,-0.3 -2.6,0.1 -13.1,6.8 -9.7,6.2 -48.6,21.5 -83.2,18.2 1.8,-11.6 3.6,-30.2 0.9,-68.1 23.3,-10 54,-32.6 55.6,-35.2 1.6,-2.7 0.6,-4.9 4.9,-16.4 -7.8,0.9 -35.2,42.2 -65.6,46.4 5.1,55.5 2,75.8 -8,85.9 V 75.6 c 31.4,-12.4 66.8,-56.4 53,-74.7 -11.7,30.7 -24,57.7 -53,69.9 0,-70 -1,-70.9 -1.8,-70.9 -0.8,0 -1.8,0.9 -1.8,70.9 -29,-12.2 -41.2,-39.2 -53,-69.9 -13.9,18.3 21.6,62.3 53,74.7 v 92.1 c -10,-10.1 -13.2,-30.5 -8,-85.9 C 71.7,77.6 44.3,36.4 36.5,35.4 40.7,47 39.7,49.2 41.4,51.8 43,54.5 73.7,77.1 97,87.1 94.4,125 96.1,143.6 97.9,155.2 63.3,158.5 24.4,143.2 14.7,137 4.2,130.3 2.8,130 1.6,130.2 c -1.1,0.3 -3.3,2.4 0.2,6.3 6,6.6 64.6,32 97.4,23 0.6,4.1 9.8,13.6 7.5,15.6 -1.3,1.2 -2.8,-2.3 -4.8,-2.2 -1.2,0.1 -3.9,3.6 0.3,5.8 0,0 -0.8,2 -3.5,3.5 -0.9,0.5 -2.2,4.1 -0.9,4.6 1.8,0.8 4.5,-4.4 6.7,-4.3 l -0.5,31.9 c -7.2,-3.2 -16.1,-14.1 -14.4,-39.7 0.2,-2.8 1.3,-3.7 4,-3.5 2.7,0.2 6.8,-0.4 6.6,-2.3 -0.2,-1.9 -5.7,-0.8 -7.2,-0.8 -1.6,0 -2.7,-0.6 -3.8,0.1 -3.3,2.4 -15.8,38 17.7,55 -1.3,10.9 -1.3,22.5 0,29.5 7.2,-4.2 -1.5,-24 4.7,-27.8 6.2,3.8 -2.5,23.6 4.7,27.8 1.3,-7.1 1.3,-18.6 0,-29.5 33.5,-16.9 21,-52.6 17.7,-55 -1,-0.8 -2.2,-0.1 -3.8,-0.1 -1.5,0 -7,-1.1 -7.2,0.8 -0.2,1.9 3.9,2.5 6.6,2.3 2.8,-0.3 3.9,0.7 4,3.5 1.7,25.5 -7.3,36.4 -14.4,39.7 l -0.5,-31.9 c 2.3,0 5,5.1 6.7,4.3 1.3,-0.5 0,-4.1 -0.9,-4.6 -2.7,-1.5 -3.5,-3.5 -3.5,-3.5 4.1,-2.3 1.5,-5.8 0.3,-5.8 -2,-0.1 -3.5,3.3 -4.8,2.2 -2.3,-2 6.9,-11.5 7.5,-15.6 32.7,9 91.4,-16.4 97.4,-23 4.1,-4 1.9,-6.1 0.8,-6.3 z m -105.4,65.6 c 0,13.6 -1,20.9 -4.8,20.9 -3.8,0 -4.8,-7.3 -4.8,-20.9 0,-16.2 1.8,-17.8 4.8,-17.8 3,0 4.8,1.6 4.8,17.8 z"
   id="path10"
   inkscape:connector-curvature="0"
   style="fill:#ebc965;fill-opacity:1" />
	<path
   class="st0"
   d="m 102.9,187 c -2,0.2 -2.8,2.4 -4.8,2.9 v 17.7 c 8.4,-4.5 -1.8,-11.7 4.8,-20.6 z"
   id="path12"
   inkscape:connector-curvature="0"
   style="fill:#ebc965;fill-opacity:1" />
	<path
   class="st0"
   d="m 212.3,152.6 c -9.6,9.7 -30.3,20.3 -41,21.2 3,-4.7 9.8,-7.2 12.5,-9.2 2,-1.5 13.2,-14.6 28.5,-12 z"
   id="path14"
   inkscape:connector-curvature="0"
   style="fill:#ebc965;fill-opacity:1" />
	<path
   class="st0"
   d="m 173.6,299.6 c -0.6,-27.3 7,-35.5 7,-44.6 0,-16 -26.5,-28.6 -24.5,-61.4 0.5,-7.9 0,-20.8 -1,-22.1 -0.8,-1.1 -3.5,-1.7 -3.9,-1.3 -2,2.2 5,48.8 -2.2,61.6 -6.3,11.3 -11.7,29.7 -11.3,38.6 -5.2,-24 5.6,-40.4 -7,-56.7 -1,9.9 0.9,13.5 0.8,58.4 0,3.7 7.5,8.1 12,16 4.2,7.4 -12.6,33.3 -4,69.1 -0.3,-37.3 12.5,-65.7 4.9,-74.8 -1.1,-1.3 -3.7,-3.4 -3.9,-5.4 -1.1,-8.7 3.4,-24.8 6.2,-28 -1.6,13.6 9.5,22 10,22.2 0.2,-7.3 -5.7,-6.4 -6.1,-16.6 -0.3,-7.7 2.4,-15.2 4.5,-18.7 10.1,13.6 9.8,22.4 0.5,44 -3.5,8.1 2,32.6 7.8,34.9 -5.5,-7.6 -6.6,-32.8 -2.3,-39.9 18.9,-30.8 -7.6,-37.5 -5.8,-49.6 2.7,4.4 11.7,7.7 17.2,23.5 6,16.3 -7.8,33 1.1,50.8 z"
   id="path16"
   inkscape:connector-curvature="0"
   style="fill:#ebc965;fill-opacity:1" />
	<path
   class="st0"
   d="m 50.3,299.6 c 0.6,-27.3 -7,-35.5 -7,-44.6 0,-16 26.5,-28.6 24.5,-61.4 -0.5,-7.9 0,-20.8 1,-22.1 0.8,-1.1 3.5,-1.7 3.9,-1.3 2,2.2 -5,48.8 2.2,61.6 6.3,11.3 11.7,29.7 11.3,38.6 5.2,-24 -5.6,-40.4 7,-56.7 1,9.9 -0.9,13.5 -0.8,58.4 0,3.7 -7.5,8.1 -12,16 -4.2,7.4 12.6,33.3 4,69.1 0.3,-37.3 -12.5,-65.7 -4.9,-74.8 1.1,-1.3 3.7,-3.4 3.9,-5.4 1.1,-8.7 -3.4,-24.8 -6.2,-28 1.6,13.6 -9.5,22 -10,22.2 -0.2,-7.3 5.7,-6.4 6.1,-16.6 0.3,-7.7 -2.4,-15.2 -4.5,-18.7 -10.1,13.6 -9.8,22.4 -0.5,44 3.5,8.1 -2,32.6 -7.8,34.9 5.5,-7.6 6.6,-32.8 2.3,-39.9 -18.9,-30.8 7.6,-37.5 5.8,-49.6 -2.7,4.4 -11.7,7.7 -17.2,23.5 -6,16.3 7.8,33 -1.1,50.8 z"
   id="path18"
   inkscape:connector-curvature="0"
   style="fill:#ebc965;fill-opacity:1" />
	<path
   class="st0"
   d="m 148.5,225.2 c -10.5,-3.1 -4.3,-46.9 -6.9,-57.1 -0.2,-0.8 1.5,-0.5 1.9,0 3.1,4.5 0.8,47.8 5,57.1 z"
   id="path20"
   inkscape:connector-curvature="0"
   style="fill:#ebc965;fill-opacity:1" />
	<path
   class="st0"
   d="m 11.6,152.6 c 9.6,9.7 30.2,20.3 41,21.2 -3,-4.7 -9.8,-7.2 -12.5,-9.2 -2,-1.5 -13.2,-14.6 -28.5,-12 z"
   id="path22"
   inkscape:connector-curvature="0"
   style="fill:#ebc965;fill-opacity:1" />
	<path
   class="st0"
   d="m 75.4,225.2 c 10.5,-3.1 4.3,-46.9 6.9,-57.1 0.2,-0.8 -1.5,-0.5 -1.9,0 -3.1,4.5 -0.8,47.8 -5,57.1 z"
   id="path24"
   inkscape:connector-curvature="0"
   style="fill:#ebc965;fill-opacity:1" />
	<path
   class="st0"
   d="m 111.9,257.3 c -0.4,0 -0.7,-0.3 -1.4,-0.3 -0.3,0 -1.3,13.7 -1.3,30 0,12.1 1.7,12.9 2.7,12.9 1,0 2.7,-0.8 2.7,-12.9 0,-16.3 -0.9,-30 -1.3,-30 -0.6,0 -1,0.3 -1.4,0.3 z"
   id="path26"
   inkscape:connector-curvature="0"
   style="fill:#ebc965;fill-opacity:1" />
	<path
   class="st0"
   d="m 125,289.3 c -3.3,8.5 -2.4,78 4.5,87.5 0.9,-28.4 -1.6,-63 1.5,-76.1 0.7,0.9 7.4,3.9 8.3,3.6 -2,-10.8 -4.6,-21.8 -4.9,-22.1 -0.2,-0.2 -1.6,-0.3 -1.7,0.1 -0.2,1.7 0.2,8.5 1,13.2 -2.4,0.2 -5.8,-5.3 -8.7,-6.2 z"
   id="path28"
   inkscape:connector-curvature="0"
   style="fill:#ebc965;fill-opacity:1" />
	<path
   class="st0"
   d="m 98.9,289.3 c 3.3,8.5 2.4,78 -4.5,87.5 -0.9,-28.4 1.6,-63 -1.5,-76.1 -0.7,0.9 -7.4,3.9 -8.3,3.6 2,-10.8 4.6,-21.8 4.9,-22.1 0.2,-0.2 1.6,-0.3 1.7,0.1 0.2,1.7 -0.2,8.5 -1,13.2 2.4,0.2 5.7,-5.3 8.7,-6.2 z"
   id="path30"
   inkscape:connector-curvature="0"
   style="fill:#ebc965;fill-opacity:1" />
	<path
   class="st0"
   d="m 119.3,302 c 4.5,-9.8 1.3,-25.1 1.8,-37 0.8,-23.2 3.4,-31.4 2.8,-42.1 -1.5,1.2 -2.8,1.1 -2.8,1.1 0.4,12.4 -2.5,22.7 -2.5,35.7 -0.2,17.7 -1.2,31.7 0.7,42.3 z"
   id="path32"
   inkscape:connector-curvature="0"
   style="fill:#ebc965;fill-opacity:1" />
	<path
   class="st0"
   d="m 104.6,302 c -4.5,-9.8 -1.3,-25.1 -1.8,-37 -0.8,-23.2 -3.4,-31.4 -2.8,-42.1 1.5,1.2 2.8,1.1 2.8,1.1 -0.4,12.4 2.5,22.7 2.5,35.7 0.1,17.7 1.2,31.7 -0.7,42.3 z"
   id="path34"
   inkscape:connector-curvature="0"
   style="fill:#ebc965;fill-opacity:1" />
	<path
   class="st0"
   d="m 115.1,302.6 c 1,0 3,1 3,38.1 0,36 9.3,20.8 5.7,76.6 10.8,-8.1 13,-5.1 13.3,-4.3 0.9,2.7 -6.9,4.1 -8.9,6.3 -14,15 0.5,47.4 -5.9,59.1 -4.7,-14.3 -5.1,-48.1 -2.8,-78.7 2.9,-36.9 -7,-25.9 -5.6,-60.8 1.5,-35.1 0.8,-36.3 1.2,-36.3 z"
   id="path36"
   inkscape:connector-curvature="0"
   style="fill:#ebc965;fill-opacity:1" />
	<path
   class="st0"
   d="m 108.8,302.6 c -1,0 -3,1 -3,38.1 0,36 -9.3,20.8 -5.7,76.6 -10.8,-8.1 -13,-5.1 -13.3,-4.3 -0.9,2.7 6.9,4.1 8.9,6.3 14,15 -0.5,47.4 5.9,59.1 4.7,-14.3 5.1,-48.1 2.8,-78.7 -2.9,-36.9 7,-25.9 5.6,-60.8 -1.5,-35.1 -0.8,-36.3 -1.2,-36.3 z"
   id="path38"
   inkscape:connector-curvature="0"
   style="fill:#ebc965;fill-opacity:1" />
</g>
</svg>