<?xml version="1.0" encoding="utf-8"?>
<!-- Generator: Adobe Illustrator 14.0.0, SVG Export Plug-In . SVG Version: 6.00 Build 43363)  -->
<!DOCTYPE svg PUBLIC "-//W3C//DTD SVG 1.1//EN" "http://www.w3.org/Graphics/SVG/1.1/DTD/svg11.dtd">
<svg version="1.1" id="Layer_1" xmlns="http://www.w3.org/2000/svg" xmlns:xlink="http://www.w3.org/1999/xlink" x="0px" y="0px"
	 width="800px" height="408px" viewBox="0 0 800 408" enable-background="new 0 0 800 408" xml:space="preserve">
<g>
	<path fill-rule="evenodd" clip-rule="evenodd" d="M410.291,10.103c0.25,14.13-1.084,26.676-1.515,40.125
		c14.042-8.595,34.144-19.773,57.537-26.498c22.515-6.472,48.259-13.529,70.407-15.141c13.697-0.997,30.708-0.574,32.555,9.084
		c-20.898-2.108-37.905,3.228-57.538,8.328c-36.942,9.598-74.814,29.475-96.147,52.996c-7.076,7.801-12.347,17.217-15.142,28.769
		c-17.793-42.667-62.197-67.886-112.803-81.006c-19.157-4.967-34.663-11.774-57.538-9.085c1.621-9.198,17.197-10.063,31.797-9.084
		c22.352,1.499,47.784,8.726,70.407,15.141c23.357,6.624,44.127,16.915,58.294,27.255c-0.344-13.788-1.789-26.475-1.514-40.882
		C395.604,6.901,404.093,6.779,410.291,10.103z"/>
	<path fill-rule="evenodd" clip-rule="evenodd" d="M193.768,25.244c1.936-0.033,0.923,0.563,0.757,1.515
		c-16.922,10.687-47.742,29.748-38.61,57.537c2.815,8.567,11.914,16.32,18.169,22.712c1.521,1.554,4.773,3.814,3.785,6.056
		c-17.364-8.15-50.815-25.293-39.367-55.266c3.425-8.968,16.158-25.84,22.712-28.769C170.049,25.082,182.469,28.301,193.768,25.244z
		"/>
	<path fill-rule="evenodd" clip-rule="evenodd" d="M385.307,141.833c-1.508,1.147-9.438-6.428-11.356-9.842
		c-3.197-5.694-2.71-11.819-5.299-18.927c-5.573-15.296-26.337-39.386-40.125-48.452c-8.227-5.41-20.753-10.707-31.04-14.384
		c-28.42-10.161-63.637-10.547-80.25,12.113c-9.509,31.323,10.096,55.368,22.712,74.193c-30.657-7.646-62.386-22.389-73.436-49.209
		c-6.724-16.322,1.299-30.637,10.599-40.125C223.504-0.131,332.552,43,367.895,75.968
		C383.624,90.641,398.705,117.376,385.307,141.833z"/>
	<path fill-rule="evenodd" clip-rule="evenodd" d="M559.434,136.534c9.592-16.887,36.477-46.503,22.712-73.436
		c-5.979-11.697-25.247-20.764-42.396-20.441c-23.681,0.446-49.433,10.129-68.136,21.956c-13.77,8.706-34.808,31.634-40.882,47.695
		c-2.354,6.225-2.722,14.623-5.3,20.441c-4.102,2.468-7.887,9.262-11.355,9.841c-13.111-24.152,0.958-51.273,17.412-66.622
		c27.373-25.534,85.999-48.428,128.702-50.724c27.311-1.468,49.294,8.91,62.079,21.955c8.965,9.146,17.605,23.121,10.6,40.125
		C621.818,114.145,590.091,128.888,559.434,136.534z"/>
	<path fill-rule="evenodd" clip-rule="evenodd" d="M389.85,280.377c-18.998-5.604-27.852-26.855-43.153-39.368
		c-30.203-24.697-74.905-46.517-114.317-62.079c-42.215-16.67-85.581-30.348-113.561-62.08
		c-14.358-16.283-22.848-36.14-30.283-56.78c-11.391,2.514-20.93,14.871-26.498,18.17c3.173-22.569,18.836-36.682,38.611-40.125
		c6.189,13.247,8.502,26.157,15.142,37.097c3.877,6.389,12.348,13.547,18.927,19.684c26.829,25.025,66.279,44.583,105.233,58.294
		c41.453,14.592,80.765,28.232,114.318,49.209c20.671,12.924,39.761,23.909,40.125,56.781
		C394.472,266.354,391.907,273.209,389.85,280.377z"/>
	<path fill-rule="evenodd" clip-rule="evenodd" d="M737.345,77.482c-0.322,3.418-3.567-2.131-4.543-3.028
		c-5.657-5.209-13.196-11.532-21.196-14.385c-8.675,20.241-16.613,40.418-31.041,56.78c-27.952,31.702-71.658,45.534-113.561,62.08
		c-39.461,15.583-83.139,37.271-113.561,62.079c-6.115,4.988-13.07,11.384-18.17,17.413c-7.253,8.575-13.302,19.649-25.74,21.955
		c-8.287-21.19-3.902-49.504,12.87-63.594c6.26-5.259,15.442-9.38,23.47-14.385c7.549-4.706,15.104-10.571,22.711-14.383
		c54.63-27.384,124.337-40.422,174.885-75.708c11.863-8.281,31.203-23.77,39.368-36.339c6.312-9.721,11.009-28.762,16.655-37.854
		C720.593,42.753,733.155,55.932,737.345,77.482z"/>
	<path fill-rule="evenodd" clip-rule="evenodd" d="M303.543,121.393c-6.656-2.43-13.468-4.702-20.441-6.814
		c0.222-9.558-3-15.673-8.328-19.684c-21.496,20.778,0.817,54.341,24.984,52.238c5.61-0.489,8.25-3.296,12.113-6.814
		c9.445-27.167-2.079-58.128-16.655-74.95c-1.699-1.961-5.42-4.008-4.542-6.814c41.209,15.952,75.765,42.329,74.95,99.176
		c-0.18,12.53-3.151,22.102-7.571,31.797c-15.57-7.455-29.363-19.413-47.695-26.498c-17.5-6.763-35.333-8.021-49.967-19.684
		c-10.836-8.637-21.663-25.405-27.254-38.611c-8.315-19.637-10.224-55.077,21.198-51.48
		C285.688,56.844,300.503,88.42,303.543,121.393z"/>
	<path fill-rule="evenodd" clip-rule="evenodd" d="M557.162,53.256c18.203,6.854,16.421,34.152,9.086,51.48
		c-5.663,13.373-16.31,29.887-27.255,38.611c-14.25,11.357-32.17,13.229-49.21,19.684c-18.751,7.104-32.909,18.405-47.696,26.498
		c-10.408-17.951-10.641-49.62-3.785-70.408c10.262-31.115,42.765-48.345,70.408-60.565c0.816,2.904-2.837,4.845-4.543,6.814
		c-9.316,10.751-20.646,32.141-20.441,52.238c0.121,11.936,3.104,28.133,15.142,29.526c23.525,2.722,47.124-29.156,26.498-52.238
		c-6.362,3.227-9.078,10.102-9.085,19.684c-6.656,2.177-13.662,4.003-19.684,6.814C499.19,84.114,514.422,52.912,557.162,53.256z"/>
	<path fill-rule="evenodd" clip-rule="evenodd" d="M398.934,136.534c13.816,18.233,24.423,39.676,36.339,59.809
		c-19.104-4.365-26.174-20.764-35.582-34.825c-9.235,13.981-16.485,29.948-34.825,34.825
		C373.637,176.848,388.121,156.509,398.934,136.534z"/>
	<path fill-rule="evenodd" clip-rule="evenodd" d="M398.934,178.172c8.137,9.023,13.533,20.789,19.684,31.797
		c-8.239-2.36-13.861-7.337-18.927-12.87c-5.066,5.533-10.687,10.509-18.927,12.87C386.102,198.652,393.191,189.084,398.934,178.172
		z"/>
	<path fill-rule="evenodd" clip-rule="evenodd" d="M374.708,284.162c8.329,5.552,16.655,11.104,24.983,16.655
		c7.973-5.655,16.76-10.494,24.227-16.655c0.896,8.441,1.213,17.462,4.542,23.47c-5.278,1.03-9.177,3.441-13.627,5.299
		c17.01,18.32,34.972,35.688,56.023,49.967c-29.606-3.958-52.093-21.595-70.408-39.367c-20.547,16.802-40.259,34.438-71.921,40.124
		c20.285-15.045,38.449-32.21,56.023-49.967c-3.495-3.065-8.444-4.678-13.627-6.056
		C373.589,301.214,375.618,294.157,374.708,284.162z"/>
	<path fill-rule="evenodd" clip-rule="evenodd" d="M464.8,369.711c-8.413,6.477-18.586,11.193-27.255,17.413
		c-7.264-4.598-14.692-9.029-21.198-14.385c-5.575,6.202,2.713,23.37,9.085,13.627c3.277,1.014,4.75,3.83,7.57,5.3
		c-3.85,4.479-10.032,6.623-14.384,10.6c-7.77-5.101-12.644-13.098-18.927-19.684c-5.969,6.648-11.354,13.881-18.169,19.684
		c-5.349-2.979-10.044-6.611-15.142-9.842c1.593-2.697,4.641-3.939,6.814-6.058c2.371,0.656,4.181,1.876,5.299,3.786
		c4.917-2.875,8.261-11.147,5.3-17.413c-7.016,4.845-14.434,9.287-21.198,14.385c-9.655-5.232-18.307-11.471-28.011-16.655
		c25.093-8.471,46.842-20.284,64.35-36.34C418.521,348.359,437.751,362.943,464.8,369.711z M368.652,361.384
		c13.615-1.274,20.887-8.892,31.796-12.87c8.95,4.175,17.461,12.818,29.526,11.355c-10.107-6.043-20.362-11.938-29.526-18.927
		C389.876,347.28,376.58,354.926,368.652,361.384z M386.822,359.869c5.784-0.271,11.241-0.871,13.626-4.542
		c0.581,4.227,7.978,5.63,12.113,3.786C404.018,352.013,394.544,351.669,386.822,359.869z"/>
	<path fill-rule="evenodd" clip-rule="evenodd" d="M161.214,11.617c0.5,3.292-5.501,6.599-6.813,10.599
		c-10.44,1.092-19.41,3.552-21.198,12.113c-1.06,5.075,2.851,10.714,2.271,15.899c-0.808,7.212-5.583,9.739-12.87,12.113
		c-3.817-3.204-6.863-7.393-7.571-12.113C110.939,22.927,140.563,16.366,161.214,11.617z"/>
	<path fill-rule="evenodd" clip-rule="evenodd" d="M637.411,12.375c20.395,2.581,50.299,10.48,46.938,37.096
		c-0.747,5.915-4.444,8.733-6.812,14.384c-6.418-1.659-11.038-5.114-16.656-7.571c7.625,31.23-17.469,47.681-39.368,56.78
		c-1.254-2.734,2.782-4.296,4.543-6.056c7.258-7.259,18.547-17.944,18.927-31.797c0.645-23.447-24.861-38.585-40.882-49.21
		c22.846-0.132,48.244,3.741,61.323,15.899c3.083-13.647-7.949-19.148-20.441-19.684C642.988,18.406,639.967,15.624,637.411,12.375z
		"/>
	<path fill-rule="evenodd" clip-rule="evenodd" d="M71.123,236.467c34.596-1.458,66.056,5.878,96.148,11.355
		c0.17-2.711-5.856-5.739-7.571-9.084c-38.208-23.003-105.928-33.793-129.459-72.679c-7.073-11.688-13.219-30.236-7.571-46.182
		c37.418,81.077,143.303,96.788,224.85,137.787c19.79,9.949,40.395,20.965,56.023,32.554c7.896,5.855,16.036,13.04,18.17,24.983
		c9.392-16.555-4.454-33.274-15.898-42.396c-14.751-11.757-35.142-20.706-54.509-30.282
		c-37.826-18.706-76.711-34.824-115.832-52.996c-45.875-21.31-87.82-43.163-109.775-87.82
		c-14.141,9.494-19.323,31.706-13.627,52.995c-14.221-12.782-10.659-50.398-0.757-71.165c4.875-10.225,14.692-15.27,19.684-21.198
		c19.355,25.107,41.333,42.847,68.136,62.08c8.876,6.37,18.019,13.088,27.255,18.169c19.624,10.799,39.65,23.237,59.809,31.041
		c21.422,8.292,43.025,17.725,64.351,27.254c31.536,14.09,61.318,28.269,85.549,49.209c9.721,8.4,22.158,20.271,26.497,32.555
		c5.114,14.476,1.789,31.687-4.542,40.882c-9.38,13.624-30.571,22.288-45.425,31.039C265.53,269.685,151.181,252.056,23.427,247.822
		c-1.214-2.564,2.538-4.216,4.543-6.057c11.47-10.528,26.024-19.836,48.452-21.196c22.476-1.365,47.67,5.712,61.323,15.141
		C121.729,233.235,89.368,227.255,71.123,236.467z"/>
	<path fill-rule="evenodd" clip-rule="evenodd" d="M776.713,247.822c-127.528,4.457-242.971,20.993-289.201,106.747
		c-25.022-12.534-64.518-29.635-50.724-71.164c4.081-12.287,16.159-24.377,26.498-33.312c23.908-20.661,53.985-34.882,86.305-49.209
		c21.04-9.327,42.392-19.047,63.595-27.254c20.319-7.866,40.292-20.301,59.808-31.041c9.265-5.097,18.491-11.881,27.255-18.169
		c25.696-18.439,48.966-36.311,67.38-62.08c24.63,12.429,39.17,64.312,20.44,92.362c3.934-19.899,0.215-42.991-13.628-52.995
		c-14.183,23.106-31.551,44.177-54.508,59.809c-8.034,5.47-18.535,9.29-28.012,14.384c-44.906,24.137-96.946,43.431-143.844,66.623
		c-19.324,9.556-38.594,18.461-53.752,30.282c-9.04,7.05-16.773,16.039-20.441,28.011c0.95,4.855,1.646,9.964,3.028,14.385
		c4.808-16.256,17.742-24.251,33.312-34.068c28.877-18.207,63.665-32.582,96.147-46.181c45.246-18.943,94.303-35.843,127.944-62.08
		c17.494-13.643,31.771-31.396,41.639-52.995c9.176,22.986-6.423,49.23-20.439,62.08c-21.704,19.896-57.135,29.538-86.307,43.152
		c-14.641,6.832-28.986,11.276-37.854,22.712c30.891-4.642,60.543-13.875,96.905-10.598c-16.776-9.78-49.266-5.306-65.865-0.758
		c11.062-10.339,37.077-17.045,59.808-15.897C747.398,221.839,766.251,233.993,776.713,247.822z"/>
	<path fill-rule="evenodd" clip-rule="evenodd" d="M142.288,284.162c-0.411,2.2,2.848,7.23,4.542,9.843
		c-2.667,3.641-8.344,4.273-11.356,7.57c-7.151-8.141-9.767-19.531-20.441-24.227c-6.961-3.062-15.262-1.525-22.712-6.056
		c44.256-8.556,81.013,6.474,118.104,18.926c34.867,11.705,63.535,27.403,82.52,52.995
		C249.534,319.751,201.444,294.403,142.288,284.162z"/>
	<path fill-rule="evenodd" clip-rule="evenodd" d="M707.062,271.293c-21.244,3.734-35.519,11.862-42.396,30.282
		c-3.97-2.338-8.14-4.476-12.112-6.813c1.765-3.536,3.536-7.063,5.3-10.6c-59.462,10.694-106.799,33.512-150.656,59.809
		c15.678-25.38,46.337-41.859,81.763-53.752C626.088,277.755,661.646,262.896,707.062,271.293z"/>
</g>
</svg>
