<?xml version="1.0" encoding="UTF-8" standalone="no"?>
<!-- Created with Inkscape (http://www.inkscape.org/) -->

<svg
   xmlns:dc="http://purl.org/dc/elements/1.1/"
   xmlns:cc="http://creativecommons.org/ns#"
   xmlns:rdf="http://www.w3.org/1999/02/22-rdf-syntax-ns#"
   xmlns:svg="http://www.w3.org/2000/svg"
   xmlns="http://www.w3.org/2000/svg"
   version="1.1"
   width="499.88895"
   height="499.86658"
   id="svg11495">
  <defs
     id="defs11497" />
  <metadata
     id="metadata11500">
    <rdf:RDF>
      <cc:Work
         rdf:about="">
        <dc:format>image/svg+xml</dc:format>
        <dc:type
           rdf:resource="http://purl.org/dc/dcmitype/StillImage" />
        <dc:title></dc:title>
      </cc:Work>
    </rdf:RDF>
  </metadata>
  <g
     transform="translate(84.230192,-165.28604)"
     id="layer1">
    <path
       d="m 301.42481,234.32391 c -0.9103,-1.0058 -1.655,-2.2861 -1.655,-2.8451 0,-1.3054 3.3217,-4.3262 4.7573,-4.3262 1.5378,0 4.2427,2.869 4.2427,4.5 0,1.7133 -2.735,4.5 -4.4164,4.5 -0.7005,0 -2.0184,-0.8229 -2.9286,-1.8287 z m 52.095,21.7486 c -2.3459,-1.3664 -2.2369,-5.5889 0.1776,-6.8811 2.4099,-1.2898 4.7959,-0.424 6.2333,2.2618 0.9168,1.7131 0.7226,2.3753 -1.1386,3.8824 -2.5703,2.0813 -2.8878,2.1257 -5.2723,0.7369 z m 34.9078,127.9539 c -3.7557,-8.8736 -9.1772,-25.9123 -10.1417,-31.8738 -0.3115,-1.925 -1.4176,-7.775 -2.4581,-13 -1.0404,-5.225 -2.461,-18.136 -3.1569,-28.6912 -1.9878,-30.1528 1.2007,-63.9366 8.2126,-87.0179 1.0375,-3.415 1.8863,-7.0375 1.8863,-8.05 0,-1.0125 0.3947,-2.2684 0.8771,-2.7909 0.4824,-0.5225 1.6672,-3.425 2.633,-6.45 0.9657,-3.025 3.5108,-9.0477 5.6557,-13.3839 2.1449,-4.3361 3.7321,-8.0515 3.5271,-8.2565 -0.205,-0.205 -4.8013,1.6968 -10.214,4.2262 -5.4127,2.5293 -10.7372,4.7714 -11.8322,4.9822 -1.095,0.2109 -4.276,1.2605 -7.0688,2.3324 -6.2188,2.3869 -20.5274,6.4346 -22.5779,6.387 -0.825,-0.019 -5.55,0.8126 -10.5,1.8484 -19.2503,4.028 -64.8095,4.725 -85,1.3004 -26.3749,-4.4737 -43.9709,-9.2484 -56,-15.1959 -0.55,-0.2719 43.5308,44.0944 97.9574,98.5919 54.4266,54.4975 99.1083,98.9354 99.2928,98.7509 0.1846,-0.1845 -0.3071,-1.8537 -1.0924,-3.7093 z M 79.519808,235.07251 c -4.363,-2.5412 -0.2084,-9.3059 4.25,-6.9199 2.5791,1.3803 2.6189,5.5984 0.066,6.9648 -2.302,1.232 -2.1201,1.2339 -4.3157,-0.045 z m -93,0 c -4.363,-2.5412 -0.2084,-9.3059 4.2499997,-6.9199 2.5791,1.3803 2.6189,5.5984 0.066,6.9648 -2.3019997,1.232 -2.1200997,1.2339 -4.3156997,-0.045 z m -21.9191,23.8301 c -4.7197,-3.8028 -1.1585,-9.3479 4.5873,-7.143 2.2937,0.8801 2.0448,6.0748 -0.3525,7.3578 -2.4131,1.2915 -2.3622,1.294 -4.2348,-0.2148 z m 173.752202,-67.5002 c -0.1845,-0.1846 -1.8537,0.3071 -3.7093,1.0924 -8.8736,3.7557 -25.9123,9.1772 -31.8738,10.1417 -1.925,0.3115 -7.775002,1.4176 -13.000002,2.4581 -5.225,1.0404 -18.136,2.461 -28.6912,3.1569 -30.1528,1.9878 -63.9366003,-1.2007 -87.0179,-8.2126 -3.415,-1.0375 -7.0375,-1.8863 -8.05,-1.8863 -1.0125,0 -2.2684,-0.3947 -2.7909,-0.8771 -0.5225,-0.4824 -3.425,-1.6672 -6.45,-2.633 -3.025,-0.9657 -8.9875,-3.4807 -13.25,-5.5889 -4.2625,-2.1082 -7.75,-3.5752 -7.75,-3.26 0,0.3152 1.377,3.4584 3.0601,6.9849 10.5468,22.0988 17.4354,51.2717 19.1332,81.0282 1.2414,21.7573 -0.1352,51.2472 -3.0269,64.8459 -1.0526,4.95 -1.8982,9.675 -1.879,10.5 0.042,1.8126 -3.7454,15.3933 -6.4144,23 -1.0614,3.025 -1.8505,5.725 -1.7536,6 0.097,0.275 -0.7902,2.3946 -1.9715,4.7102 -1.1814,2.3156 -2.1479,4.7897 -2.1479,5.4981 0,0.7083 44.5317,-43.2421 98.9593,-97.6676 54.4276,-54.4255 98.808302,-99.1064 98.623802,-99.2909 z m 79.9736,57.5277 c -0.8562,-1.2224 -1.5567,-2.5402 -1.5567,-2.9286 0,-1.2156 3.0787,-3.8489 4.5,-3.8489 1.5441,0 4.5,2.6744 4.5,4.0714 0,1.2127 -3.727,4.9286 -4.9433,4.9286 -0.5188,0 -1.6438,-1.0001 -2.5,-2.2225 z m -14.5567,39.2225 c -1.1,-1.1 -2,-2.4179 -2,-2.9286 0,-1.397 2.9559,-4.0714 4.5,-4.0714 0.7464,0 2.0643,0.7071 2.9286,1.5714 0.8643,0.8643 1.5714,2.1822 1.5714,2.9286 0,1.5441 -2.6744,4.5 -4.0714,4.5 -0.5107,0 -1.8286,-0.9 -2.9286,-2 z m 14.9641,62.9329 c -1.3979,-2.612 1.3276,-7.4187 3.6921,-6.5113 0.8291,0.3181 1.6797,0.5784 1.8904,0.5784 1.3882,0 2.4091,4.2143 1.4534,6 -1.4192,2.6518 -5.6021,2.612 -7.0359,-0.067 z m 54.7859,26.987 c -2.3495,-1.3685 -2.2366,-5.5891 0.1843,-6.8847 2.6278,-1.4064 3.6515,-1.3065 5.4943,0.5362 2.0584,2.0585 1.9827,3.0173 -0.4286,5.4286 -2.2601,2.2601 -2.7897,2.3529 -5.25,0.9199 z m 72.75,-20.9199 c -43.9997,-44.0056 -53.4542,-53 -55.7113,-53 -2.864,0 -5.1819,-2.8059 -4.2769,-5.1776 0.302,-0.7914 -22.987,-24.8094 -58.0036,-59.8192 l -58.5082,-58.4968 0,95.9872 0,95.9872 18.7401,18.7596 18.7402,18.7596 96.0063,0 96.0063,0 -52.9929,-53 z m -163.515,40.4816 -12.485,-12.5184 -0.2845,11.2072 c -0.1565,6.164 -0.058,11.7973 0.2186,12.5185 0.3772,0.9829 3.5738,1.3111 12.7695,1.3111 l 12.2664,0 -12.485,-12.5184 z m -21.985,0.284 0,-12.2343 -12,11.9687 c -6.6,6.5828 -12,12.0883 -12,12.2344 0,0.1461 5.4,0.2656 12,0.2656 l 12,0 0,-12.2344 z m -73.428602,-112.337 c -2.143,-2.143 -1.9758,-5.1418 0.3562,-6.3898 3.8663,-2.0692 8.13,2.1165 6.0724,5.9612 -1.2826,2.3965 -4.262,2.5951 -6.4286,0.4286 z m -15.071,91.2123 c -0.8502,-1.2975 -1.269,-3.0804 -0.9307,-3.9619 1.2291,-3.2031 6.6418,-3.1762 7.8757,0.039 0.7453,1.9424 -1.9801,6.2818 -3.9454,6.2818 -0.7996,0 -2.1495,-1.0616 -2.9996,-2.3591 z m 70.239702,15.1192 18.2599,-18.2398 0,-96.0069 0,-96.0069 -57.9123,57.9058 c -49.879802,49.8743 -57.716502,58.1018 -56.500002,59.3182 1.8418,1.8419 1.7885,3.7504 -0.1591,5.6981 -1.9566,1.9565 -3.3157,1.9836 -5.3891,0.1071 -1.4564,-1.318 -6.9569,3.8754 -55.0752,52 l -53.4573,53.4643 95.9866,0 95.986702,0 18.2598,-18.2399 z m 42.0895,27.4554 c -6.164,-0.1565 -11.7973,-0.058 -12.5185,0.2186 -0.9829,0.3772 -1.3111,3.5738 -1.3111,12.7695 l 0,12.2664 12.5184,-12.485 12.5184,-12.485 -11.2072,-0.2845 z m -24.2637,1.0956 c -0.3772,-0.9829 -3.5738,-1.3111 -12.7695,-1.3111 l -12.2664,0 12.485,12.5184 12.485,12.5184 0.2845,-11.2072 c 0.1565,-6.164 0.058,-11.7973 -0.2186,-12.5185 z m 163.0055,193.1175 c -2.0584,-2.0585 -1.9827,-3.0173 0.4286,-5.4286 1.1,-1.1 2.4179,-2 2.9286,-2 1.397,0 4.0714,2.9559 4.0714,4.5 0,0.7464 -0.7071,2.0643 -1.5714,2.9286 -0.8643,0.8643 -2.1822,1.5714 -2.9286,1.5714 -0.7464,0 -2.0643,-0.7071 -2.9286,-1.5714 z m 71.2198,28.3526 c -4.6885,-7.2278 -15.0093,-36.0122 -16.3086,-45.4842 -0.211,-1.5383 -1.2607,-7.072 -2.3326,-12.297 -1.0719,-5.225 -2.5215,-17.933 -3.2213,-28.24 -1.4825,-21.8361 -0.1278,-49.6236 3.2061,-65.76 1.0795,-5.225 2.1507,-10.8663 2.3804,-12.5362 0.2298,-1.6699 1.2832,-5.9449 2.3409,-9.5 1.0577,-3.5551 2.1625,-7.3638 2.4552,-8.4638 0.2927,-1.1 1.9113,-5.5931 3.5969,-9.9846 l 3.0648,-7.9846 -98.4458,98.442 c -54.1452,54.1431 -98.2948,98.5929 -98.1103,98.7774 0.1845,0.1846 1.8537,-0.3071 3.7093,-1.0924 8.8736,-3.7557 25.9123,-9.1772 31.8738,-10.1417 1.925,-0.3115 7.775,-1.4176 13,-2.4581 5.225,-1.0404 18.136,-2.461 28.6912,-3.1569 30.1528,-1.9878 63.9366,1.2007 87.0179,8.2126 3.415,1.0375 7.0375,1.8863 8.05,1.8863 1.0125,0 2.2684,0.3943 2.7909,0.8762 0.5225,0.482 3.875,1.8483 7.45,3.0364 3.575,1.1881 9.425,3.6616 13,5.4967 3.575,1.8351 6.6735,3.1828 6.8855,2.9949 0.212,-0.188 -0.2805,-1.3683 -1.0943,-2.623 z M -9.9916923,609.43031 c -2.2398997,-0.8026 -3.4109997,-4.0868 -2.2384997,-6.2777 2.2391997,-4.184 9.0807997,-0.9802 7.3787997,3.4553 -0.7523,1.9604 -3.4351,3.4335 -5.1403,2.8224 z m -43.9288997,31.8396 c 5.9452,-2.8145 11.3365,-5.1173 11.9806,-5.1173 0.6441,0 3.4298,-0.8682 6.1905,-1.9293 13.5756,-5.2181 38.8544997,-9.9728 59.0193,-11.101 8.8,-0.4924 18.7,-1.1376 22,-1.434 7.842,-0.7042 39.0591,1.8831 47.9803,3.9767 3.8391,0.9009 8.355402,1.8142 10.036202,2.0293 1.6807,0.2152 5.9646,1.2567 9.5197,2.3144 3.5551,1.0577 7.3638,2.1625 8.4638,2.4552 1.1,0.2927 5.5931,1.9113 9.9846,3.5969 l 7.9846,3.0648 -98.482702,-98.4865 c -54.1655,-54.1676 -98.8326,-98.4865 -99.2603,-98.4865 -0.4276,0 -0.057,1.394 0.8244,3.0978 0.881,1.7038 1.7817,4.0312 2.0014,5.1721 0.2197,1.1409 1.2786,4.3594 2.353,7.1522 2.2157,5.7592 6.6631,21.7209 6.3443,22.7693 -0.1156,0.3803 0.6903,4.8803 1.791,10 3.0169,14.0325 4.4208,42.9274 3.1598,65.0325 -1.2724,22.3043 -5.8476,47.1861 -11.2708,61.2954 -1.0611,2.7607 -1.9293,5.5464 -1.9293,6.1905 0,0.9608 -8.91,20.5601 -10.7718,23.6947 -0.2955,0.4975 -0.1302,0.6628 0.3673,0.3673 0.4975,-0.2955 5.7688,-2.84 11.7141,-5.6545 z M 300.51981,459.07251 c -2.3459,-1.3664 -2.2369,-5.5889 0.1776,-6.8811 2.4099,-1.2898 4.7959,-0.424 6.2333,2.2618 0.9168,1.7131 0.7226,2.3753 -1.1386,3.8824 -2.5703,2.0813 -2.8878,2.1257 -5.2723,0.7369 z m -69.1786,-0.4913 c -0.8643,-0.8643 -1.5714,-1.8892 -1.5714,-2.2775 0,-1.5064 3.184,-5.1511 4.5,-5.1511 1.316,0 4.5,3.6447 4.5,5.1511 0,1.2156 -3.0787,3.8489 -4.5,3.8489 -0.7464,0 -2.0643,-0.7071 -2.9286,-1.5714 z m 42.1786,21.4913 c -2.3495,-1.3685 -2.2366,-5.5891 0.1843,-6.8847 2.6278,-1.4064 3.6515,-1.3065 5.4943,0.5362 2.0584,2.0585 1.9827,3.0173 -0.4286,5.4286 -2.2601,2.2601 -2.7897,2.3529 -5.25,0.9199 z m -69.5275,37.5234 c -1.2224,-0.8562 -2.2225,-2.1807 -2.2225,-2.9433 0,-1.316 3.6447,-4.5 5.1511,-4.5 1.2156,0 3.8489,3.0787 3.8489,4.5 0,1.4213 -2.6333,4.5 -3.8489,4.5 -0.3884,0 -1.7062,-0.7005 -2.9286,-1.5567 z m 74.852,19.6959 c -2.1752,-4.0643 2.5679,-8.6778 5.8592,-5.6992 1.4919,1.3501 6.9334,-3.8012 58.6021,-55.4758 l 56.9576,-56.9642 -95.9871,0 -95.9871,0 -18.7596,18.7401 -18.7596,18.7402 0,96.0087 0,96.0087 54.6097,-54.6097 c 50.4393,-50.4393 54.5222,-54.773 53.4648,-56.7488 z M 21.519808,437.07251 c -2.3459,-1.3664 -2.2369,-5.5889 0.1776,-6.8811 2.4099,-1.2898 4.7959,-0.424 6.2333,2.2618 0.9168,1.7131 0.7226,2.3753 -1.1386,3.8824 -2.5703,2.0813 -2.8878,2.1257 -5.2723,0.7369 z m 42.2141,60.013 c -1.3979,-2.612 1.3276,-7.4187 3.6921,-6.5113 0.8291,0.3181 1.6797,0.5784 1.8904,0.5784 1.3882,0 2.4091,4.2143 1.4534,6 -1.4192,2.6518 -5.6021,2.612 -7.0359,-0.067 z m 40.607302,65.4957 c -0.8643,-0.8643 -1.5714,-2.1822 -1.5714,-2.9286 0,-1.7133 2.735,-4.5 4.4164,-4.5 0.7005,0 2.0542,0.8626 3.0083,1.9168 1.9391,2.1426 0.9613,5.3373 -1.9787,6.4656 -2.1485,0.8244 -2.0793,0.8415 -3.8746,-0.9538 z m 56.902,-9.6786 -0.6843,-96.25 -18.6347,-18.75 -18.6347,-18.75 -96.007002,0 -96.007,0 65.4971997,65.508 c 56.6838003,56.6931 65.6151003,65.2456 66.3739003,63.5583 1.2509,-2.7815 3.5368,-3.3529 6.2641,-1.5659 3.0197,1.9786 2.9916,3.9421 -0.089,6.2029 l -2.4481,1.7967 47.194202,47.25 c 25.9567,25.9875 47.3438,47.25 47.5269,47.25 0.183,0 0.025,-43.3125 -0.3515,-96.25 z m -243.473402,110.25 c -1.1,-1.1 -2,-2.4348 -2,-2.9663 0,-0.8353 6.5175,-11.6779 8.7363,-14.5337 0.8539,-1.0992 6.1739,-11.9713 8.563,-17.5 4.4127,-10.2115 10.2609,-29.99 11.6795,-39.5 0.4923,-3.3 1.5497,-9.6 2.3499,-14 3.3698,-18.5299 2.9572,-60.1894 -0.8071,-81.5 -1.9718,-11.1622 -7.0752,-31.1514 -9.1022,-35.6511 -0.7806,-1.7332 -1.4194,-3.6506 -1.4194,-4.2609 0,-3.0457 -9.4771,-22.1402 -15.226,-30.6775 -2.6257,-3.8992 -4.774,-7.5304 -4.774,-8.0694 0,-0.5389 1.7994,-3.3916 3.9986,-6.3392 2.1992,-2.9476 6.2818,-10.1163 9.0725,-15.9306 2.7907,-5.8142 5.4913,-11.3527 6.0014,-12.3077 0.5101,-0.9551 0.9303,-2.5301 0.9337,-3.5 0,-0.97 0.6089,-2.9186 1.3455,-4.3303 1.2502,-2.3956 2.5733,-6.4368 3.2524,-9.9333 0.1602,-0.825 1.1882,-4.875 2.2846,-9 3.3112,-12.459 5.1677,-24.6906 6.2228,-41 1.17,-18.0852 0.3,-46.0596 -1.7882,-57.5 -0.8031,-4.4 -1.8145,-10.475 -2.2476,-13.5 -1.4119,-9.8622 -5.4664,-23.3496 -12.6258,-42 -2.5496,-6.6415 -12.4459,-23.9219 -14.836,-25.9055 -2.048,-1.6996 -2.0662,-4.4994 -0.043,-6.5231 2.2701,-2.2701 3.5923,-1.9768 7.9986,1.7739 4.3126,3.671 18.0687,11.3168 25.93,14.4122 12.4627,4.9072 16.2865,6.3162 18.0779,6.6616 1.0571,0.2038 5.0721,1.2651 8.9221,2.3583 21.93179966,6.2278 55.6013,9.2346 82.1957,7.3404 17.9543,-1.2787 36.7268,-4.192 47.304302,-7.3409 3.575,-1.0643 7.625,-2.1418 9,-2.3945 1.375,-0.2527 4.4076,-1.3421 6.7391,-2.4209 2.3315,-1.0788 4.7187,-1.9615 5.3049,-1.9615 4.2568,0 32.956,-15.571 32.956,-17.8806 0,-3.2883 7.3466,-0.3351 16.5,6.6326 1.0865,0.827 11.7773,6.0005 17.6579,8.545 10.4819,4.5355 29.711,10.2451 39.3421,11.6818 3.3,0.4923 9.6,1.5497 14,2.3499 11.2956,2.0542 39.3195,2.952 57,1.8261 15.9126,-1.0133 29.2202,-3.0254 41.5,-6.2748 4.125,-1.0916 8.175,-2.1157 9,-2.2759 3.4965,-0.6791 7.5377,-2.0022 9.9333,-3.2524 1.4117,-0.7366 3.1341,-1.3422 3.8276,-1.3455 2.9128,-0.014 21.9319,-9.3476 31.9075,-15.6581 5.034,-3.1845 7.7729,-4.3428 9.1988,-3.8902 3.9735,1.2611 3.6067,5.9299 -0.8676,11.0421 -2.2622,2.5848 -10.2188,17.5534 -12.7571,24 -4.9072,12.4627 -6.3162,16.2865 -6.6616,18.0779 -0.2038,1.0571 -1.2651,5.0721 -2.3583,8.9221 -6.2278,21.9318 -9.2346,55.6013 -7.3404,82.1957 1.2787,17.9543 4.192,36.7268 7.3409,47.3043 1.0643,3.575 2.1418,7.625 2.3945,9 0.2527,1.375 1.3421,4.4076 2.4209,6.7391 1.0788,2.3315 1.9615,4.7187 1.9615,5.3049 0,2.92 8.5401,19.991 14.4426,28.8697 2.5066,3.7704 4.5574,7.1842 4.5574,7.5863 0,0.4021 -2.065,3.8373 -4.589,7.6338 -5.5525,8.3522 -14.411,26.0116 -14.411,28.7284 0,0.5346 -0.8965,3.0634 -1.9922,5.6195 -1.0956,2.5561 -2.1964,5.631 -2.446,6.8329 -0.2497,1.202 -1.3181,5.3354 -2.3744,9.1854 -3.3351,12.1561 -6.0234,29.4315 -7.2834,46.8043 -1.9244,26.5338 1.0734,60.2027 7.3186,82.1957 1.0932,3.85 2.1601,7.9 2.3707,9 0.2107,1.1 1.3393,4.475 2.508,7.5 1.1687,3.025 3.0826,7.975 4.2531,11 2.8003,7.2374 12.1223,23.8211 15.2078,27.0547 2.8475,2.984 3.016,4.2242 0.8664,6.3739 -2.3165,2.3164 -4.9513,1.9256 -8.6438,-1.2822 -3.7019,-3.216 -17.7252,-10.9273 -25.2848,-13.9039 -12.4627,-4.9072 -16.2865,-6.3162 -18.0779,-6.6616 -1.0571,-0.2038 -5.0721,-1.2651 -8.9221,-2.3583 -21.9318,-6.2278 -55.6013,-9.2346 -82.1957,-7.3404 -17.9543,1.2787 -36.7268,4.192 -47.3043,7.3409 -3.575,1.0643 -7.625,2.1418 -9,2.3945 -1.375,0.2527 -4.4076,1.3421 -6.7391,2.4209 -2.3315,1.0788 -4.7187,1.9615 -5.3049,1.9615 -2.92,0 -19.991,8.5401 -28.8697,14.4426 -3.7704,2.5066 -7.1842,4.5574 -7.5863,4.5574 -0.4021,0 -3.8373,-2.065 -7.6338,-4.589 -8.3522,-5.5525 -26.0116,-14.411 -28.7284,-14.411 -0.5346,0 -3.0634,-0.8965 -5.6195,-1.9922 -2.5561,-1.0956 -5.631,-2.1964 -6.8329,-2.446 -1.202,-0.2497 -5.3354,-1.312 -9.1854,-2.3608 -22.057302,-6.0085 -47.870702,-8.4951 -73.500002,-7.0802 -9.625,0.5313 -22,1.6807 -27.5000003,2.5542 -5.5,0.8735 -12.475,1.9576 -15.5,2.4092 -8.9950997,1.3428 -29.0467997,7.3154 -38.9999997,11.6165 -5.5287,2.3891 -16.4008,7.7091 -17.5,8.563 -2.8558,2.2188 -13.6984,8.7363 -14.5337,8.7363 -0.5315,0 -1.8663,-0.9 -2.9663,-2 z"
       id="path6211"
       style="fill:#000000;fill-opacity:1;stroke:none;display:inline" />
  </g>
</svg>
