<?xml version="1.0" encoding="UTF-8" standalone="no"?>
<!-- Created with Inkscape (http://www.inkscape.org/) -->

<svg
   xmlns:dc="http://purl.org/dc/elements/1.1/"
   xmlns:cc="http://creativecommons.org/ns#"
   xmlns:rdf="http://www.w3.org/1999/02/22-rdf-syntax-ns#"
   xmlns:svg="http://www.w3.org/2000/svg"
   xmlns="http://www.w3.org/2000/svg"
   version="1.1"
   width="64.03125"
   height="58.576202"
   id="svg4635">
  <defs
     id="defs4637" />
  <metadata
     id="metadata4640">
    <rdf:RDF>
      <cc:Work
         rdf:about="">
        <dc:format>image/svg+xml</dc:format>
        <dc:type
           rdf:resource="http://purl.org/dc/dcmitype/StillImage" />
        <dc:title></dc:title>
      </cc:Work>
    </rdf:RDF>
  </metadata>
  <g
     transform="translate(-464.03125,-479.08005)"
     id="layer1">
    <path
       d="m 185.17857,137.18361 a 3.0357144,2.6785715 0 1 1 -6.07143,0 3.0357144,2.6785715 0 1 1 6.07143,0 z"
       transform="matrix(0.98094032,0,0,1.1117324,308.36146,329.54644)"
       id="path3926-3-61"
       style="fill:#000000;fill-opacity:1;fill-rule:nonzero;stroke:none;display:inline" />
    <path
       d="m 479.18724,482.64383 7.27715,7.52574 c -8.4599,10.77239 -6.04021,22.12759 1.66691,28.32357 9.13119,7.34083 27.86482,2.27698 26.52599,-21.45449 6.37431,40.43901 -44.52371,50.66477 -35.47005,-14.39482 z"
       id="path3152-3-5-6"
       style="fill:#000000;fill-opacity:1;stroke:none;display:inline" />
    <path
       d="m 464.08072,490.12136 c 19.85619,2.00489 40.68285,2.26294 63.89215,-1.76777"
       id="path4217"
       style="fill:none;stroke:#000000;stroke-width:1px;stroke-linecap:butt;stroke-linejoin:miter;stroke-opacity:1" />
    <path
       d="m 525.19495,504.01096 c -18.82582,2.34738 -37.83037,3.26495 -57.32616,0.25254"
       id="path4219"
       style="fill:none;stroke:#000000;stroke-width:1px;stroke-linecap:butt;stroke-linejoin:miter;stroke-opacity:1" />
    <path
       d="m 497.92083,518.91071 -2.0203,18.68782"
       id="path4221"
       style="fill:none;stroke:#000000;stroke-width:1px;stroke-linecap:butt;stroke-linejoin:miter;stroke-opacity:1" />
  </g>
</svg>
