<?xml version="1.0" encoding="UTF-8" standalone="no"?>
<!-- Generator: Adobe Illustrator 14.0.0, SVG Export Plug-In . SVG Version: 6.00 Build 43363)  -->

<svg
   xmlns:dc="http://purl.org/dc/elements/1.1/"
   xmlns:cc="http://creativecommons.org/ns#"
   xmlns:rdf="http://www.w3.org/1999/02/22-rdf-syntax-ns#"
   xmlns:svg="http://www.w3.org/2000/svg"
   xmlns="http://www.w3.org/2000/svg"
   xmlns:sodipodi="http://sodipodi.sourceforge.net/DTD/sodipodi-0.dtd"
   xmlns:inkscape="http://www.inkscape.org/namespaces/inkscape"
   version="1.1"
   id="Layer_1"
   x="0px"
   y="0px"
   width="359.981px"
   height="800px"
   viewBox="0 0 359.981 800"
   enable-background="new 0 0 359.981 800"
   xml:space="preserve"
   sodipodi:docname="Herald_Glyph_Shalash.svg"
   inkscape:version="0.92.4 (5da689c313, 2019-01-14)"><metadata
   id="metadata45"><rdf:RDF><cc:Work
       rdf:about=""><dc:format>image/svg+xml</dc:format><dc:type
         rdf:resource="http://purl.org/dc/dcmitype/StillImage" /></cc:Work></rdf:RDF></metadata><defs
   id="defs43" /><sodipodi:namedview
   pagecolor="#ffffff"
   bordercolor="#666666"
   borderopacity="1"
   objecttolerance="10"
   gridtolerance="10"
   guidetolerance="10"
   inkscape:pageopacity="0"
   inkscape:pageshadow="2"
   inkscape:window-width="674"
   inkscape:window-height="480"
   id="namedview41"
   showgrid="false"
   inkscape:zoom="0.295"
   inkscape:cx="179.99049"
   inkscape:cy="400"
   inkscape:window-x="510"
   inkscape:window-y="82"
   inkscape:window-maximized="0"
   inkscape:current-layer="g38" />
<g
   id="g38">
	<path
   d="m 169.603,156.583 c 7.712,18.493 -1.555,46.333 2.052,69.06 4.603,-15.91 1.412,-39.613 4.103,-57.436 8.348,39.834 -4.207,79.907 -7.521,116.922 6.87,-3.192 20.292,-5.271 28.034,0.684 -3.477,-37.705 -15.059,-76.158 -8.205,-117.606 3.824,16.689 0.545,40.482 4.104,57.436 4.848,-21.56 -4.588,-49.586 2.051,-69.06 5.797,43.072 -0.908,95.076 8.205,134.016 2.129,0.835 4.334,1.592 7.521,1.368 1.287,-3.792 -2.715,-6.131 -3.42,-9.572 -2.578,-12.608 3.234,-25.853 8.891,-32.137 -0.602,-11.024 -2.809,-20.44 -2.053,-32.82 5.158,9.201 3.902,24.815 5.471,37.606 -1.123,2.751 -5.012,2.737 -7.521,4.103 -2.379,15.73 -0.312,30.091 5.471,41.025 -4.748,-1.179 -6.131,-5.722 -12.309,-5.47 1.123,11.254 2.609,29.516 -2.051,40.342 -8.191,-11.182 -0.857,-37.889 -9.572,-48.546 -1.1,23.435 -3.045,53.642 9.572,65.64 -0.479,4.535 -1.645,8.383 -5.471,9.573 3.16,-8.741 -4.428,-15.815 -6.836,-23.248 -3.994,60.739 5.004,124.415 7.52,179.829 0.41,9.004 0.094,17.666 2.053,25.299 0.896,3.496 3.016,6.828 3.418,10.256 0.863,7.375 -2.498,15.404 2.051,21.881 2.482,2.314 4.965,-0.135 6.838,0.682 0.975,7.51 3.758,16.689 2.051,24.615 -10.891,-2.883 -14.777,-16.869 -15.727,-32.137 -0.301,-4.846 1.357,-9.936 0.684,-14.357 -0.732,-4.822 -5.43,-10.02 -6.152,-17.777 -1.113,-11.949 0.484,-23.854 0,-34.871 -1.051,-23.918 -2.846,-51.441 -7.521,-74.529 -3.537,-17.457 -6.675,-2.248 -8.206,9.572 -2.737,21.141 -4.5,42.906 -5.47,64.271 -0.88,19.371 3.104,41.701 -6.154,52.65 2.059,19.781 -1.048,43.49 -15.043,47.178 -1.706,-7.926 1.078,-17.105 2.051,-24.615 1.935,-1.051 3.161,1.465 6.154,0 5.325,-5.877 2.013,-14.525 2.734,-21.879 0.355,-3.609 2.485,-6.725 3.419,-10.256 1.977,-7.473 1.667,-16.57 2.051,-25.299 2.425,-55.158 10.868,-117.561 8.205,-180.512 -3.529,6.516 -10.36,14.638 -7.521,23.248 -3.018,-1.218 -5.855,-4.75 -5.47,-8.889 0.286,-3.076 4.434,-5.825 6.154,-9.573 6.682,-14.563 2.903,-36.647 4.103,-56.751 -9.707,9.666 -2.425,36.32 -9.573,48.546 -5.358,-9.878 -4.693,-27.988 -2.051,-40.342 -6.69,-0.536 -8.097,4.211 -12.991,5.47 5.603,-10.756 7.964,-24.946 5.47,-40.342 -1.726,-2.149 -5.601,-2.148 -7.521,-4.103 1.158,-13.201 0.941,-27.776 4.786,-38.29 3.967,12.125 -3.286,21.781 -1.367,32.136 0.839,4.529 6.069,7.182 7.521,11.624 3.329,10.186 1.047,22.119 -2.051,30.085 1.675,2.07 4.45,-0.518 6.837,0 10.013,-38.332 3.644,-90.147 8.202,-134.7 z"
   id="path2"
   inkscape:connector-curvature="0"
   style="clip-rule:evenodd;fill:#6c011d;fill-rule:evenodd;fill-opacity:1" />
	<path
   d="M 120.373,284.445 C 94.058,279.991 69.865,267.49 36.955,267.351 c 6.429,-10.491 17.05,-2.135 28.034,0.684 17.977,4.613 43.73,6.542 55.384,16.41 z"
   id="path4"
   inkscape:connector-curvature="0"
   style="clip-rule:evenodd;fill:#6c011d;fill-rule:evenodd;fill-opacity:1" />
	<path
   d="m 327.551,267.351 c -33.059,0.674 -56.049,11.414 -83.418,17.777 16.629,-15.051 51.922,-11.439 71.793,-23.248 5.314,0.386 10.367,1.03 11.625,5.471 z"
   id="path6"
   inkscape:connector-curvature="0"
   style="clip-rule:evenodd;fill:#6c011d;fill-rule:evenodd;fill-opacity:1" />
	<path
   d="m 156.612,403.417 c 6.288,2.094 2.751,18.055 5.47,28.719 0.891,3.494 3.819,6.594 4.103,8.205 1.106,6.295 -2.271,17.543 -2.735,23.932 -1.494,20.527 0.417,44.902 -0.684,67.008 -0.596,11.979 -1.154,26.895 -12.308,28.719 2.374,-29.922 16.927,-84.27 -6.837,-100.512 5.321,-12.873 -7.369,-34.289 4.787,-41.711 0.526,7.871 5.09,15.088 4.786,23.932 -0.221,6.41 -4.375,10.178 -3.419,15.727 0.723,4.191 3.973,6.314 6.837,8.889 2.27,-22.988 -4.913,-43.627 0,-62.908 z"
   id="path8"
   inkscape:connector-curvature="0"
   style="clip-rule:evenodd;fill:#6c011d;fill-rule:evenodd;fill-opacity:1" />
	<path
   d="m 206.525,403.417 c 8.014,16.668 -1.637,39.801 1.369,62.223 2.26,-0.742 6.123,-4.213 6.836,-7.521 1.223,-5.664 -3.031,-9.486 -3.418,-15.727 -0.582,-9.379 4.939,-16.336 4.104,-24.615 13.385,6.191 0.016,28.551 5.469,41.025 -3.754,6.217 -11.414,11.672 -12.99,19.83 -5,25.836 5.514,58.598 6.152,81.367 -10.977,-1.738 -11.633,-16.172 -12.307,-28.035 -1.178,-20.721 0.691,-46.49 -0.684,-67.008 -0.432,-6.428 -3.734,-17.475 -2.736,-23.932 0.354,-2.273 3.061,-4.482 4.104,-8.205 2.672,-9.531 -0.604,-22.978 4.101,-29.402 z"
   id="path10"
   inkscape:connector-curvature="0"
   style="clip-rule:evenodd;fill:#6c011d;fill-rule:evenodd;fill-opacity:1" />
	<path
   d="m 133.364,424.614 c 3.09,13.143 -6.494,25.396 -8.889,37.607 -1.408,-14.173 1.905,-29.546 8.889,-37.607 z"
   id="path12"
   inkscape:connector-curvature="0"
   style="clip-rule:evenodd;fill:#6c011d;fill-rule:evenodd;fill-opacity:1" />
	<path
   d="m 229.773,424.614 c 0.457,0 0.912,0 1.367,0 7.354,8.373 9.299,22.154 9.574,37.607 -4.484,-11.699 -10.023,-22.341 -10.941,-37.607 z"
   id="path14"
   inkscape:connector-curvature="0"
   style="clip-rule:evenodd;fill:#6c011d;fill-rule:evenodd;fill-opacity:1" />
	<path
   d="m 165.501,589.399 c 0.795,-0.111 1.216,0.15 1.367,0.684 0.583,10.428 3.512,22.479 2.735,34.871 -0.692,11.062 -7.744,21.746 -8.888,34.873 -2.039,23.377 9.737,52.711 -6.154,64.271 -0.595,-8.383 3.316,-15.602 4.103,-24.613 1.837,-21.07 -4.445,-44.543 0,-64.957 0.772,-3.551 3.529,-6.803 4.102,-10.258 2.122,-12.783 -0.994,-24.361 2.735,-34.871 z"
   id="path16"
   inkscape:connector-curvature="0"
   style="clip-rule:evenodd;fill:#6c011d;fill-rule:evenodd;fill-opacity:1" />
	<path
   d="m 197.637,589.399 c 5.979,9.549 2.125,21.258 4.104,34.188 0.572,3.746 3.227,6.924 4.102,10.941 4.363,20.029 -1.584,43.379 0,64.271 0.686,9.035 4.391,16.354 4.104,24.615 -2.137,1.135 -3.961,-2.695 -4.787,-4.102 -7.982,-13.578 0.195,-38.211 -1.367,-58.803 -1.004,-13.23 -8.035,-24.035 -8.889,-34.873 -1.011,-12.801 2.379,-25.473 2.733,-36.237 z"
   id="path18"
   inkscape:connector-curvature="0"
   style="clip-rule:evenodd;fill:#6c011d;fill-rule:evenodd;fill-opacity:1" />
	<path
   d="m 147.724,38.293 c 2.816,-0.16 5.642,-6.201 10.256,-6.838 0.606,2.103 -2.271,3.475 -3.418,4.787 -17.034,19.469 -34.364,63.835 -9.573,89.571 -14.509,-3.931 -18.389,-26.582 -17.094,-46.495 -9.731,10.404 -18.513,25.753 -25.982,42.393 -2.223,4.952 -6.89,11.336 -6.838,15.726 0.054,4.575 5.927,13.843 8.205,19.145 7.909,18.413 10.514,44.337 24.615,56.751 2.379,-7.649 0.619,-19.438 2.052,-28.034 2.741,12.986 3.562,27.892 3.418,43.76 -12.152,-8.269 -18.412,-22.962 -23.248,-38.974 -4.731,-15.667 -6.725,-33.893 -18.461,-43.076 -5.767,7.68 -4.146,22.749 -15.726,24.615 -1.953,-11.809 9.859,-19.552 11.624,-28.718 1.494,-7.758 -4.123,-14.751 -0.684,-20.513 1.519,0.989 0.945,4.07 2.052,5.47 8.538,-7.904 13.945,-18.375 20.513,-28.034 6.405,-9.42 12.894,-19.246 19.145,-29.401 12.868,-20.904 18.702,-44.535 33.504,-64.273 -2.265,7.791 -9.767,22.128 -14.36,32.138 z"
   id="path20"
   inkscape:connector-curvature="0"
   style="clip-rule:evenodd;fill:#6c011d;fill-rule:evenodd;fill-opacity:1" />
	<path
   d="m 274.902,127.865 c 1.863,-0.644 1.564,-3.45 2.051,-5.47 4.686,4.705 -1.191,12.441 0,19.829 1.562,9.688 13.473,17.418 11.623,29.401 -11.123,-2.097 -10.535,-15.903 -15.043,-24.615 -7.584,2.523 -9.918,11.86 -12.307,19.145 -7.529,22.956 -11.383,50.848 -30.086,62.905 -0.543,-16.043 1.445,-29.552 2.736,-43.76 2.527,7.5 0.758,19.298 2.051,28.034 14.92,-11.308 17.09,-37.638 25.299,-56.751 2.197,-5.118 7.99,-13.979 8.205,-18.461 0.381,-7.925 -10.715,-25.564 -14.359,-32.136 -5.779,-10.429 -11.916,-19.146 -18.461,-27.351 1.016,20.64 -1.742,41.518 -17.094,47.863 6.564,-10.307 12.242,-21.477 12.992,-35.556 1.355,-25.486 -16.566,-46.913 -26.668,-59.486 5.42,0.734 7.203,5.104 10.941,7.521 -4.883,-10.844 -9.559,-21.896 -15.043,-32.136 0.904,-1.372 3.369,2.67 4.785,4.786 10.98,16.395 17.953,40.07 28.719,57.435 12.857,20.737 26.097,41.016 39.659,58.803 z"
   id="path22"
   inkscape:connector-curvature="0"
   style="clip-rule:evenodd;fill:#6c011d;fill-rule:evenodd;fill-opacity:1" />
	<path
   d="m 49.263,194.189 c 19.381,0.016 32.88,13.416 44.444,23.932 12.178,11.075 22.982,24.517 29.401,40.341 -19.621,-23.684 -41.189,-51.346 -73.845,-64.273 z"
   id="path24"
   inkscape:connector-curvature="0"
   style="clip-rule:evenodd;fill:#6c011d;fill-rule:evenodd;fill-opacity:1" />
	<path
   d="m 315.244,193.506 c -31.408,14.859 -54.172,38.364 -73.162,65.64 4.34,-16.643 16.561,-29.212 28.717,-40.342 11.705,-10.715 24.273,-24.222 44.445,-25.298 z"
   id="path26"
   inkscape:connector-curvature="0"
   style="clip-rule:evenodd;fill:#6c011d;fill-rule:evenodd;fill-opacity:1" />
	<path
   d="m 130.629,395.897 c -14.958,23.332 -32.57,49.936 -42.393,80.682 8.751,12.674 28.622,14.229 30.769,33.504 -12.653,-7.176 -23.879,-15.777 -34.188,-25.297 -7.714,3.908 -13.734,9.514 -19.829,15.041 0.026,-9.094 7.231,-16.926 10.94,-24.613 -7.792,-13.633 -18.026,-24.824 -24.615,-39.66 -1.612,0.213 -1.272,2.375 -3.418,2.053 0.797,-1.254 1.787,-2.316 2.734,-3.42 -5.964,-17.973 -14.599,-36.9 -14.358,-58.802 8.721,14.982 11.188,36.218 19.145,51.966 22.233,-24.49 45.863,-47.584 66.324,-73.847 -1.358,-14.833 -1.058,-31.4 2.735,-43.076 1.526,36.536 2.945,73.179 39.658,74.529 0.325,-4.2 -3.744,-4.004 -3.418,-8.205 2.253,-2.761 6.481,-3.547 6.153,-8.889 2.829,3.325 0.712,11.596 1.368,17.094 1.214,1.749 4.392,1.534 6.154,2.736 -1.417,1.545 -3.791,2.134 -6.154,2.734 -0.384,14.965 4.168,28.799 0,41.709 -3.773,-11.041 -4.26,-25.369 -4.103,-40.341 -19.09,-3.701 -39.299,-6.284 -40.341,-28.034 -24.852,16.629 -41.709,47.178 -66.325,66.325 6.169,13.887 13.833,26.279 21.88,38.289 18.27,-22.983 28.893,-53.614 51.282,-72.478 z"
   id="path28"
   inkscape:connector-curvature="0"
   style="clip-rule:evenodd;fill:#6c011d;fill-rule:evenodd;fill-opacity:1" />
	<path
   d="m 233.193,396.581 c 22.395,15.895 33.912,48.592 51.281,71.793 9.158,-10.896 15.584,-24.529 22.564,-37.605 -24.066,-20.607 -40.92,-48.426 -66.324,-67.692 -1.006,21.787 -19.877,25.708 -40.342,28.034 0.535,15.351 -0.982,28.648 -3.42,41.025 -5.543,-11.521 -0.117,-26.523 -0.684,-41.025 -1.477,-1.486 -3.99,-1.935 -6.152,-2.735 0.971,-1.991 4.047,-1.876 6.152,-2.735 0.316,-5.838 -0.717,-13.024 0.684,-17.778 1.428,3.586 2.928,7.1 6.838,8.205 0.639,4.514 -3.217,4.532 -3.418,8.205 35.125,0.254 39.451,-36.217 38.975,-73.845 4.133,9.738 4.744,22.459 4.102,34.188 -0.154,2.821 -1.281,5.536 -0.684,8.206 1.139,5.092 11.547,14.954 15.727,19.828 16.256,18.965 34.91,36.307 49.914,54.702 8.791,-14.912 11.295,-36.112 19.145,-51.966 1.924,20.411 -7.773,40.979 -13.676,58.118 0.691,1.361 1.182,2.922 2.736,3.42 -0.619,1.854 -2.518,-0.576 -2.736,-1.369 -7.807,13.619 -16.531,26.318 -25.299,38.975 3.633,8.676 9.777,14.838 11.623,25.299 -6.65,-4.973 -12.555,-10.689 -19.828,-15.041 -10.893,8.934 -21.924,17.732 -34.188,25.297 0.215,-18.02 20.932,-21.459 30.086,-32.82 -10.167,-31.088 -25.414,-57.094 -43.076,-80.684 z"
   id="path30"
   inkscape:connector-curvature="0"
   style="clip-rule:evenodd;fill:#6c011d;fill-rule:evenodd;fill-opacity:1" />
	<path
   d="m 15.075,343.248 c 2.477,-8.957 15.334,-15.802 27.351,-21.196 17.596,-7.899 47.535,-16.957 66.324,-5.47 -38.997,-4.175 -69.711,11.298 -93.675,26.666 z"
   id="path32"
   inkscape:connector-curvature="0"
   style="clip-rule:evenodd;fill:#6c011d;fill-rule:evenodd;fill-opacity:1" />
	<path
   d="m 350.115,343.248 c -24.91,-14.146 -53.357,-31.772 -93.676,-25.982 14.727,-12.847 47.408,-3.043 64.957,4.786 12.215,5.448 24.879,11.715 28.719,21.196 z"
   id="path34"
   inkscape:connector-curvature="0"
   style="clip-rule:evenodd;fill:#6c011d;fill-rule:evenodd;fill-opacity:1" />
	<path
   d="m 172.338,551.108 c 1.104,-0.191 1.177,0.646 2.051,0.684 6.687,33.885 3.251,77.889 4.787,116.924 1.526,-0.18 3.558,-2.447 2.736,3.418 1.203,-2.91 0.365,-6.371 3.418,-2.736 1.262,-31.654 -0.645,-69.146 1.367,-99.143 0.455,-6.803 1.068,-14.857 5.471,-19.146 -0.979,40.5 0.906,78.701 -0.684,114.188 -0.119,2.643 -1.1,6.137 -0.684,8.889 0.863,5.725 6.107,7.887 6.836,15.043 0.791,7.764 -0.471,17.262 1.367,25.299 0.793,3.459 3.053,6.795 3.42,9.572 1.748,13.227 -8.688,24.264 -10.256,38.291 -1.297,11.592 4.045,22.414 -2.734,31.453 -3.686,-35.572 2.135,-78.207 -4.787,-111.453 -0.885,1.311 -3.74,2.234 -4.103,0 -5.304,15.135 -3.337,33.812 -4.103,51.965 -0.844,20.037 0.903,40.424 -0.684,59.488 -7.989,-6.713 -2.119,-18.084 -3.419,-30.77 -1.437,-14.031 -11.671,-25.256 -10.256,-38.291 0.314,-2.891 2.563,-6.037 3.419,-9.572 2.34,-9.672 -0.555,-21.662 2.051,-30.086 1.152,-3.725 5.477,-6.508 6.154,-10.256 0.49,-2.717 -0.546,-5.982 -0.684,-8.889 -1.594,-33.596 0.31,-76.709 -0.683,-114.872 z"
   id="path36"
   inkscape:connector-curvature="0"
   style="clip-rule:evenodd;fill:#6c011d;fill-rule:evenodd;fill-opacity:1" />
</g>
</svg>