<?xml version="1.0" encoding="UTF-8" standalone="no"?>
<!-- Created with Inkscape (http://www.inkscape.org/) -->

<svg
   xmlns:dc="http://purl.org/dc/elements/1.1/"
   xmlns:cc="http://creativecommons.org/ns#"
   xmlns:rdf="http://www.w3.org/1999/02/22-rdf-syntax-ns#"
   xmlns:svg="http://www.w3.org/2000/svg"
   xmlns="http://www.w3.org/2000/svg"
   xmlns:sodipodi="http://sodipodi.sourceforge.net/DTD/sodipodi-0.dtd"
   xmlns:inkscape="http://www.inkscape.org/namespaces/inkscape"
   version="1.1"
   id="svg19604"
   width="168.1814"
   height="221.40273"
   viewBox="0 0 168.18139 221.40273"
   sodipodi:docname="Kecheh.svg"
   inkscape:version="0.92.3 (2405546, 2018-03-11)">
  <metadata
     id="metadata19610">
    <rdf:RDF>
      <cc:Work
         rdf:about="">
        <dc:format>image/svg+xml</dc:format>
        <dc:type
           rdf:resource="http://purl.org/dc/dcmitype/StillImage" />
        <dc:title></dc:title>
      </cc:Work>
    </rdf:RDF>
  </metadata>
  <defs
     id="defs19608" />
  <sodipodi:namedview
     pagecolor="#ffffff"
     bordercolor="#666666"
     borderopacity="1"
     objecttolerance="10"
     gridtolerance="10"
     guidetolerance="10"
     inkscape:pageopacity="0"
     inkscape:pageshadow="2"
     inkscape:window-width="640"
     inkscape:window-height="480"
     id="namedview19606"
     showgrid="false"
     inkscape:zoom="1.01548"
     inkscape:cx="140.7016"
     inkscape:cy="126.76427"
     inkscape:window-x="3197"
     inkscape:window-y="502"
     inkscape:window-maximized="0"
     inkscape:current-layer="svg19604" />
  <path
     style="fill:#000000"
     d="M 45.297861,218.8334 C 40.154661,216.43912 24.340451,205.5633 7.82701,193.06373 L 0,187.13921 1.90995,184.99278 c 1.05048,-1.18054 3.05,-3.42697 4.44338,-4.99207 l 2.53341,-2.84567 15.505682,12.49632 c 23.138057,18.64738 35.347078,25.19008 39.683264,21.26589 2.562678,-2.31919 4.820058,-11.18948 5.998509,-23.5709 0.824607,-8.66375 1.540416,-27.14813 1.173752,-30.30985 -0.124706,-1.07533 -13.655134,8.32369 -18.093918,12.56908 -1.925,1.84113 -5.211261,5.26359 -7.302803,7.60547 -2.979833,3.33648 -4.386506,4.19058 -6.5,3.94663 -2.472974,-0.28545 -2.67849,-0.64386 -2.472171,-4.31133 0.551769,-9.80812 4.620686,-22.02755 12.387666,-37.20161 4.279596,-8.36088 8.454823,-17.47032 9.278283,-20.24322 2.811758,-9.46821 0.356743,-19.768728 -5.445717,-22.848593 -1.527713,-0.81089 -4.295771,-1.10276 -7.376873,-0.77785 -3.93951,0.41545 -5.678958,1.24983 -8.646548,4.147595 -7.535856,7.358568 -11.669826,18.993208 -10.551229,29.695358 0.346277,3.313 1.134649,6.63219 1.751938,7.37598 1.764611,2.12623 5.018284,1.5916 8.062304,-1.32476 5.0118,-4.80161 3.857388,-1.89851 -1.746833,4.39291 -6.200382,6.96069 -11.427816,10.60907 -13.862257,9.67489 -6.126757,-2.35106 -6.002395,-17.31648 0.262743,-31.61791 5.229517,-11.93742 18.693631,-27.922443 26.681574,-31.677216 8.263777,-3.884434 16.810437,-2.148498 19.898483,4.041633 3.586258,7.18883 0.709991,19.220443 -9.779145,40.906813 -8.376146,17.31775 -11.639415,27.50895 -11.639415,36.34994 v 5.93416 l 6.75,-6.50012 c 3.7125,-3.57507 9.3375,-8.21261 12.5,-10.30564 l 5.75,-3.80552 -0.03168,-6.60842 -0.03168,-6.60842 -2.169666,3 c -2.709019,3.74576 -13.066397,13.53391 -13.675963,12.92434 -0.248112,-0.24811 0.963546,-2.35759 2.692572,-4.68772 1.729026,-2.33014 6.609686,-9.41162 10.84591,-15.73662 9.929359,-14.82527 13.948149,-20.08901 14.736089,-19.30108 1.22511,1.22512 0.61403,39.95931 -0.86169,54.61887 -2.79471,27.76221 -7.85639,41.77253 -17.445852,48.28874 -4.869915,3.3092 -12.649247,3.26252 -19.914208,-0.11948 z m 58.856169,-0.15293 c -4.845089,-3.85662 -5.709669,-4.99091 -9.020249,-11.83412 -3.89193,-8.04493 -5.74119,-15.55915 -7.50457,-30.49387 -1.66527,-14.10382 -2.09373,-61.50645 -0.5473,-60.5507 0.51034,0.3154 5.3151,7.14486 10.67726,15.17656 5.362149,8.03171 11.244599,16.39278 13.072109,18.58017 1.82751,2.18739 3.305,4.72199 3.28332,5.63245 -0.0241,1.00975 -3.14426,-1.58547 -8,-6.65397 l -7.960569,-8.30936 v 6.02 6.01999 l 7.249999,5.42198 c 3.9875,2.98209 9.48308,7.7248 12.21241,10.53936 2.72932,2.81457 5.31682,5.11739 5.75,5.11739 1.22138,0 0.93666,-5.03487 -0.77152,-13.64304 -1.83044,-9.22426 -3.33938,-13.05566 -12.64395,-32.10468 -8.3996,-17.19627 -10.940899,-27.25244 -8.68041,-34.349113 2.82011,-8.853523 13.09596,-11.69928 21.93769,-6.075346 15.75982,10.024296 31.84419,37.375639 30.25557,51.449349 -1.5704,13.91239 -6.91264,14.16655 -18.84354,0.89653 -4.67361,-5.1982 -5.98156,-8.48002 -1.46255,-3.66975 2.67162,2.84379 6.13649,3.237 8.06353,0.91506 1.96184,-2.36388 2.85602,-11.252 1.70211,-16.919 -1.99144,-9.78025 -9.52455,-21.521813 -15.04185,-23.445153 -10.68085,-3.72337 -17.72749,2.16309 -17.72749,14.808773 0,7.51813 2.41877,14.27555 10.07123,28.13637 6.27123,11.35904 10.26202,22.15898 11.88576,32.16543 1.51505,9.33671 1.43485,9.83457 -1.58437,9.83457 -1.95132,0 -4.46012,-1.88947 -9.75,-7.3431 -3.91744,-4.0387 -10.49762,-9.69519 -14.62262,-12.56998 l -7.499999,-5.22689 -0.32908,7.31999 c -0.69656,15.49408 2.860099,41.16599 6.465609,46.6687 1.35019,2.06065 2.08141,2.29209 5.50968,1.74389 6.96444,-1.11366 20.49365,-10.11333 41.20122,-27.40718 l 8.84743,-7.3889 3.48465,3.35173 c 6.21728,5.98014 6.21431,5.99336 -2.93603,13.08222 -11.80751,9.1474 -31.64256,23.18252 -35.74348,25.29181 -2.02239,1.0402 -6.45523,1.96857 -10.5,2.199 -6.45546,0.36776 -7.27227,0.18206 -10.5,-2.38717 z M 6.67997,122.84636 C 8.21983,110.87191 14.988101,98.823007 30.884927,79.756634 42.271857,66.099352 48.662631,60.119856 58.36322,54.04671 c 3.690055,-2.310194 6.727555,-4.481603 6.75,-4.825353 0.02244,-0.34375 -1.390814,-0.911325 -3.140576,-1.261277 C 55.903275,46.746206 50.508733,42.699159 47.851061,37.365906 l -2.496315,-5.009452 -4.735529,7.597845 c -2.60454,4.178814 -5.606163,9.889168 -6.670271,12.689674 -1.886783,4.965608 -9.089124,14.702384 -10.875425,14.702384 -1.13784,0 3.187365,-9.87144 7.373875,-16.829436 5.572963,-9.262287 22.435204,-29.170564 24.707365,-29.170564 0.462196,0 1.119156,1.26936 1.459909,2.8208 1.061066,4.831001 6.084638,9.865369 12.084077,12.110047 18.458384,6.906167 41.606133,0.564924 44.137373,-12.091279 0.31693,-1.584653 0.87516,-3.065933 1.24051,-3.291734 0.99144,-0.61274 13.55308,13.417597 19.97532,22.310817 5.45032,7.547334 11.24535,18.10787 12.65715,23.065653 0.52447,1.841772 -0.53365,1.120907 -4.40353,-3 -2.80163,-2.983367 -5.10685,-5.886999 -5.12271,-6.452516 -0.0515,-1.837864 -6.90749,-15.435079 -10.18344,-20.196509 l -3.19145,-4.638606 -1.33821,3.86535 c -0.73602,2.125942 -2.12066,4.731329 -3.07698,5.789749 -2.23628,2.475051 -10.56952,6.708228 -13.20551,6.708228 -3.4299,0 -2.28187,1.331851 4.73423,5.492238 6.52848,3.871241 23.23253,18.792735 23.23253,20.753294 0,0.533442 -2.67312,-1.504942 -5.94027,-4.529743 -6.4525,-5.973877 -25.39917,-16.079103 -32.461559,-17.313409 -2.32388,-0.406148 -5.39337,-2.029439 -7.58996,-4.013926 l -3.68812,-3.331995 -2.79231,2.914543 c -1.82271,1.902498 -5.25163,3.66154 -9.874803,5.065784 -7.806802,2.371244 -16.738498,6.614791 -23.652979,11.237791 -4.826023,3.226663 -13,10.680978 -13,11.855439 0,0.392481 1.9125,-1.103414 4.25,-3.324209 5.339667,-5.073073 13.184437,-10.196758 21.671721,-14.154533 6.521531,-3.04111 6.726132,-3.067933 23.717351,-3.109423 l 17.139059,-0.04185 9.81001,4.967166 c 5.39551,2.731941 12.5896,7.325264 15.98688,10.207384 3.39729,2.88212 6.41159,5.00551 6.69845,4.718646 0.28687,-0.286865 3.2487,2.718257 6.58186,6.67805 12.8341,15.246904 20.32958,29.036156 21.70425,39.928756 l 0.69411,5.49999 -3.71216,-3.49999 c -4.28956,-4.04439 -6.54153,-7.91212 -6.54153,-11.235 0,-2.77274 -3.22019,-12.2202 -6.61604,-19.410252 -3.33606,-7.063454 -10.63921,-14.284548 -19.97239,-19.747977 -9.14925,-5.355759 -16.28824,-7.656867 -24.04214,-7.749483 -7.186769,-0.08584 -8.287759,1.004768 -5.938699,5.882697 0.99589,2.068007 2.03561,6.480472 2.31048,9.805477 0.42961,5.19668 0.1137,6.811286 -2.25004,11.499996 -2.83071,5.61502 -11.15583,18.954542 -11.82942,18.954542 -0.73647,0 -7.52143,-10.77765 -10.762231,-17.095382 -4.005167,-7.80782 -4.535506,-15.932017 -1.48269,-22.713153 2.464421,-5.474149 1.342948,-6.735564 -5.837506,-6.56594 -15.359103,0.362828 -36.527776,13.493147 -43.32697,26.874473 -3.385126,6.662185 -7.252355,18.183002 -7.252355,21.605402 0,1.9426 -1.491784,4.32391 -5.058519,8.07485 L 6.037,127.84635 Z M 87.560031,99.668222 c 0.8767,-2.572985 1.594,-6.388875 1.594,-8.479765 0,-4.614181 -2.82006,-12.065114 -4.37522,-11.559851 -2.20263,0.715622 -4.12393,6.27808 -4.04738,11.717751 0.0784,5.56966 2.52329,13.000003 4.27757,13.000003 0.52636,0 1.67433,-2.10516 2.55103,-4.678138 z M 77.389621,33.423903 C 69.444018,31.401629 62.32594,23.265226 60.666473,14.308307 60.06759,11.075854 60.436386,10.305122 64.936225,5.385129 L 69.861479,0 70.55364,7.423178 c 0.918332,9.848778 3.007733,15.981196 6.626161,19.447873 2.48266,2.378533 3.80338,2.840903 8.01701,2.806667 8.9291,-0.07255 12.63861,-5.923754 13.71542,-21.634007 l 0.53679,-7.831617 4.852499,4.779539 c 5.29029,5.210733 5.64834,6.662803 3.32461,13.482591 -1.91749,5.627504 -6.39967,11.13535 -10.736469,13.193297 -4.03173,1.913179 -15.00177,2.901258 -19.50004,1.756382 z"
     id="path19652"
     inkscape:connector-curvature="0" />
</svg>
