<?xml version="1.0" encoding="utf-8"?>
<!-- Generator: Adobe Illustrator 14.0.0, SVG Export Plug-In . SVG Version: 6.00 Build 43363)  -->
<!DOCTYPE svg PUBLIC "-//W3C//DTD SVG 1.1//EN" "http://www.w3.org/Graphics/SVG/1.1/DTD/svg11.dtd">
<svg version="1.1" id="Layer_1" xmlns="http://www.w3.org/2000/svg" xmlns:xlink="http://www.w3.org/1999/xlink" x="0px" y="0px"
	 width="800px" height="765px" viewBox="0 0 800 765" enable-background="new 0 0 800 765" xml:space="preserve">
<g>
	<path fill-rule="evenodd" clip-rule="evenodd" d="M277.947,302.884c-4.624-0.18-6.908-2.697-8.405-6.003
		C274.777,293.936,279.542,293.698,277.947,302.884z"/>
	<path fill-rule="evenodd" clip-rule="evenodd" d="M407.618,577.837c-2.375,5.351-13.495,8.756-15.607,1.2
		C392.769,572.857,404.668,575.613,407.618,577.837z"/>
	<path fill-rule="evenodd" clip-rule="evenodd" d="M795.434,134.791c-8.486,6.807-16.716,17.736-14.408,32.418
		c0.702,4.464,5.975,7.085,7.205,12.006c3.883,15.546-5.581,47.275-24.014,45.625c-6.126-3.881-5.397-14.615-12.008-18.01
		c-9.435,2.572-12.047,11.966-19.21,16.81c-13.118-1.42-23.728-6.209-36.021-3.603c-12.111,2.57-21.093,17.203-36.02,4.803
		c-2.818,0.383-2.688,3.716-4.803,4.803c-0.133,5.736,6.766,4.44,8.405,8.405c-5.281,19.535,4.293,31.782,19.211,34.819
		c4.755,16.916-6.821,45.048,8.405,52.83c-2.052,9.156-11.541,10.872-9.605,24.014c9.412-3.394,8.604-17.01,18.009-20.412
		c13.378,10.007,17.731,50.298,19.211,74.441c0.795,12.979-3.764,26.551-4.804,40.823c-1.928,26.498,4.938,47.032-7.203,62.434
		c5.501,25.454-9.454,37.764-8.404,62.436c-14.977,5.035-22.184,17.839-32.417,27.615c2.786,22.259-4.212,40.125-14.409,52.829
		c-7.523-2.444-8.682,1.629-15.608,2.401c3.791-8.98-4.355-14.291-8.404-19.21c-8.681,5.327-12.964,15.052-20.412,21.611
		c-34.892,5.131-52.785,27.26-75.642,44.426c1.716,6.288,13.007,3,16.809,7.203c-8.059,5.267-14.576,23.986-25.214,15.608
		c-1.512-6.315,2.304-7.302,6.003-8.405c-3.114-1.287-3.583-5.221-7.203-6.003c-13.232,7.58-16.52,25.105-40.823,21.613
		c-13.641,7.863-27.816,16.325-51.628,16.809c-1.788-11.147,8.169-11.42,18.01-16.809c10.644-5.83,22.477-12.007,33.618-19.211
		c13.119-8.484,30.012-18.768,42.023-30.017c18.64-17.458,36.8-37.938,51.628-62.437c20.073-15.146,40.16-30.279,51.63-54.028
		c-27.231-6.737-49.789,22.625-76.843,30.017c-16.993,4.642-60.984,4.679-73.24-2.402c42.941-19.876,96.103-27.427,130.872-57.632
		c12.304-26.517,35.394-42.248,48.026-68.438c8.219-19.748,8.447-48.062-1.2-67.237c6.112-17.604-2.857-35.832-12.007-45.625
		c1.088-6.426,0.472-8.334,0-14.408c-26.957-18.55-36.97-54.632-64.836-73.241c-21.656-14.461-42.371-25.815-79.244-25.214
		c-7.273,0.119-17.786,2.72-26.415,3.602c-4.229,0.433-8.962-1.062-12.005,0c-8.555,2.985-12.562,13.033-19.211,20.411
		c-12.491-7.104-19.032,3.456-22.813,12.007c-24.683-2.671-30.867,13.157-46.826,19.21c-2.018,13.991-4.655,27.363-13.207,34.819
		c1.04,14.995,4.302,29.955,6.003,40.823c6.339,8.068,15.72,13.095,25.214,18.01c11.29-4.038,2.98-21.667,12.007-26.415
		c11.838,3.282,22.662,17.094,36.02,15.609c9.928-1.104,16.754-11.603,24.013-18.01c-3.096-7.71-8.451-13.161-10.805-21.612
		c-4.986,1.018-5.884,6.124-12.008,6.003c-2.051,4.354-2.904,9.903-10.806,8.405c1.348-18.512,14.576-37.667,37.22-32.418
		c8.366,6.042,17.324,11.493,25.215,18.01c13.58,17.967,15.648,52.518-1.201,68.438c-15.663,27.885-28.635,61.546-49.227,85.246
		c-9.533,10.972-13.956,17.084-19.211,31.219c-2.661,7.155-12.04,13.174-19.21,15.608c-12.38,24.041-33.758,39.082-52.83,56.431
		c-16.2-9.298-27.184,4.697-42.023,7.203c-8.561,18.375-33.169,42.737-56.431,27.616c0.183-7.421,6.266-8.942,4.803-18.011
		c-16.681-2.332-37.708,9.308-48.026-4.802c-22.365-1.205-44.903-0.562-67.238,1.201c-2.371,0.83-3.201,3.203-3.602,6.003
		c-2.802,0-5.603,0-8.405,0c-2.771,3.24,5.163,5.991,3.602,12.007c-4.129,2.64-12.288,0.777-16.81,0
		c-1.183-8.827-4.872-11.455-6.003-18.01c-4.183-0.581-1.345,5.859-4.803,6.003c-19.576,7.404-32.286-6.107-46.826-8.404
		c-19.072-3.014-39.416,0.036-48.027-14.409c17.382-8.96,35.733,0.235,55.231,2.402c15.973,1.773,32.476-3.781,48.026-3.603
		c15.428,0.178,31.947,2.135,45.625-7.205c27.948,4.303,42.085-13.53,64.836-16.809c15.909-2.292,32.559-1.343,48.027-4.803
		c24.915-5.574,42.593-21.096,54.03-38.42c7.298-1.107,11.457-5.354,16.809-8.406c3.602,0,7.204,0,10.806,0
		c32.557-11.867,54.413-34.435,67.237-66.035c-17.07-5.354-33.833-0.562-49.227-4.804c-3.688-1.016-6.314-5.105-10.806-7.204
		c-4.026-1.881-9.935-1.655-13.208-3.602c-8.184-4.868-13.636-14.936-21.612-19.211c-4.153-9.283-9.05-23.471-14.408-37.221
		c-0.899-2.306-4.061-3.815-4.803-6.003c-2.847-8.398-3.801-17.229-8.405-26.415c-2.625-5.24-7.004-10.194-7.203-15.608
		c-0.304-8.232,6.206-20,8.404-28.816c4.332-17.382,5.765-30.722,21.612-38.421c-1.406-13.412,4.362-19.651,3.602-32.417
		c-16.561,8.686-35.423,21.364-50.428,27.615c1.078-5.479-1.999-6.806-2.401-10.806c-33.598,3.061-62.623,20.45-81.646,42.023
		c-0.446,7.25,4.692,8.916,3.602,16.809c-19.679-0.205-42.302,2.035-51.629,15.609c-19.326,1.085-27.126,13.697-45.625,15.609
		c2.386-12.306,10.395-24.294,18.01-33.619c23.54-28.825,55.267-52.539,88.85-70.839c2.377-7.276,6.736-13.748,13.207-18.01
		c5.921-3.898,15.073-4.306,20.412-7.204c6.248-3.392,9.566-11.478,15.608-15.609c14.477-9.899,33.591-12.068,46.826-24.013
		c4.756,2.047,8.929,4.677,13.207,7.205c9.809-3.904,18.242-0.333,26.415-3.603c7.035-2.814,9.107-12.503,15.608-16.809
		c1.793-1.188,7.414-2.068,10.806-3.602c7.893-3.571,19.388-10.488,32.418-4.803c5.02,6.048,3.163,13.901,0,20.411
		c15.232-4.427,28.28-21.31,52.828-20.411c5.973,4.816,18.879,18.614,32.418,18.01c5.785-0.258,13.436-7.027,20.412-7.204
		c19.862-0.503,42.188,23.622,51.629,1.2c13.476-1.153,26.287,5.97,37.22,0c18.917,7.08,39.854,10.223,57.632,20.412
		c14.177,8.124,22.405,32.132,40.823,21.612c14.384-8.216,25.537-23.471,40.822-31.217c3.929-20.373-8.363-30.458-12.006-49.227
		c18.079-17.708-6.11-55.621-27.616-52.829c-7.477,0.97-8.694,10.149-15.608,9.605c-5.316-16.719-17.167-27.674-34.82-28.816
		c-5.385-8.621-20.822-7.191-22.812-19.211c17.415-7.345,43.343-8.952,66.037-6.003c30.005,3.898,47.118,28.632,72.039,34.82
		c2.529,13.866,14.264,20.568,21.612,30.016C787.755,98.847,787.095,117.588,795.434,134.791z M641.748,228.443
		c4.701,0.697,6.972-1.034,9.605-2.402c0.491-2.893-2.192-2.61-1.201-6.003C642.995,218.482,643.871,224.961,641.748,228.443z"/>
</g>
</svg>
