<?xml version="1.0" encoding="UTF-8" standalone="no"?>
<!-- Created with Inkscape (http://www.inkscape.org/) -->

<svg
   xmlns:dc="http://purl.org/dc/elements/1.1/"
   xmlns:cc="http://creativecommons.org/ns#"
   xmlns:rdf="http://www.w3.org/1999/02/22-rdf-syntax-ns#"
   xmlns:svg="http://www.w3.org/2000/svg"
   xmlns="http://www.w3.org/2000/svg"
   version="1.1"
   width="350.96094"
   height="500"
   id="svg3071">
  <defs
     id="defs3073" />
  <metadata
     id="metadata3076">
    <rdf:RDF>
      <cc:Work
         rdf:about="">
        <dc:format>image/svg+xml</dc:format>
        <dc:type
           rdf:resource="http://purl.org/dc/dcmitype/StillImage" />
        <dc:title></dc:title>
      </cc:Work>
    </rdf:RDF>
  </metadata>
  <g
     transform="translate(574.3179,670.54995)"
     id="layer1">
    <path
       d="m -223.35696,-342.49695 v -328.053 H -574.3179 l 138.50794,197.342 -136.16394,133.613 h 37.879 l 113.88504,-111.4 51.592,73.486 c -4.16,4.967 -8.428,9.725 -12.73,14.025 -17.207,17.141 -79.854,55.369 -79.854,55.369 l 25.639,27.387 c 0,0 57.922,-49.596 72.299,-69.359 2.414,-3.324 4.6859,-6.646 6.8889,-9.967 l 133.018,189.504 v -44.875 l -118.189,-170.549 c 18.504,-36.9 22.563,-66.703 22.563,-66.703 0,0 -13.537,25.779 -32.354,52.572 l -48.863,-70.48 140.68,-137.635 v 229.557 l 36.163,36.166 z m -192.3419,-150.471 -103.81104,-149.773 h 256.45294 l -152.6419,149.773 z"
       id="Bendalloy" />
  </g>
</svg>
