<?xml version="1.0" encoding="UTF-8" standalone="no"?>
<!-- Created with Inkscape (http://www.inkscape.org/) -->

<svg
   xmlns:dc="http://purl.org/dc/elements/1.1/"
   xmlns:cc="http://creativecommons.org/ns#"
   xmlns:rdf="http://www.w3.org/1999/02/22-rdf-syntax-ns#"
   xmlns:svg="http://www.w3.org/2000/svg"
   xmlns="http://www.w3.org/2000/svg"
   version="1.1"
   width="468.94177"
   height="311.04355"
   id="svg8906">
  <defs
     id="defs8908" />
  <metadata
     id="metadata8911">
    <rdf:RDF>
      <cc:Work
         rdf:about="">
        <dc:format>image/svg+xml</dc:format>
        <dc:type
           rdf:resource="http://purl.org/dc/dcmitype/StillImage" />
        <dc:title></dc:title>
      </cc:Work>
    </rdf:RDF>
  </metadata>
  <g
     transform="translate(-133.80915,-216.08317)"
     id="layer1">
    <path
       d="m 378.64795,332.77119 c 10.5148,-3.1793 23.9839,-6.1357 36.5597,-8.0245 13.5246,-2.0314 43.2536,-3.8367 50.3043,-3.0547 5.3964,0.5985 5.746,0.5046 6.1919,-1.6619 4.0813,-19.8286 6.5228,-29.5367 10.2597,-40.7962 4.8235,-14.5331 13.8722,-34.3938 20.3259,-44.6125 2.2017,-3.4862 4.0031,-6.5745 4.0031,-6.863 0,-0.2885 -62.1,-0.5245 -138,-0.5245 -75.9,0 -138,0.236 -138,0.5245 0,0.2885 1.8014,3.3768 4.0031,6.863 11.0948,17.5674 22.5218,47.0835 27.5307,71.1125 1.4905,7.15 2.844,13.5052 3.0078,14.1226 0.2042,0.7696 7.6354,1.2937 23.6281,1.6665 28.9146,0.674 50.4119,3.9783 71.8303,11.0407 4.125,1.3601 8.1099,2.5174 8.8554,2.5716 0.7454,0.054 5.0204,-1.0096 9.5,-2.3641 z m -213.8554,12.4527 c 15.7034,-7.6982 26.8443,-11.8308 43,-15.9505 l 11,-2.8051 -0.2254,-3.8672 c -0.7691,-13.1995 -10.8316,-47.1631 -19.2787,-65.0709 -4.604,-9.7604 -14.8795,-27.293 -15.9959,-27.293 -1.1263,0 -11.4003,17.5555 -15.9052,27.1778 -11.9818,25.5926 -20.1356,58.067 -22.6609,90.2516 l -0.7009,8.9328 3.3835,-2.2562 c 1.8609,-1.2409 9.6835,-5.3446 17.3835,-9.1193 z m 427.0509,3.26 c -2.506,-31.98 -10.6909,-64.5339 -22.6457,-90.0689 -4.5049,-9.6223 -14.7789,-27.1778 -15.9052,-27.1778 -1.1164,0 -11.3919,17.5326 -15.9959,27.293 -8.4471,17.9078 -18.5096,51.8714 -19.2787,65.0709 l -0.2254,3.8672 11,2.8051 c 6.05,1.5427 15.05,4.2202 20,5.9498 10.0998,3.5292 33.2946,14.44 39.1371,18.4101 2.105,1.4303 4.0009,2.6006 4.2133,2.6006 0.2124,0 0.078,-3.9375 -0.2995,-8.75 z m -227.0964,26.29545 c -2.9775,-2.97757 -3.0937,-4.90624 -0.4545,-7.54545 2.6392,-2.63921 4.5679,-2.52303 7.5455,0.45455 2.9775,2.97757 3.0937,4.90624 0.4545,7.54545 -2.6392,2.63921 -4.5679,2.52303 -7.5455,-0.45455 z m 10.0272,18.4618 c 4.1436,-1.646 11.2241,-4.84816 15.7344,-7.1159 8.4716,-4.25945 23.7839,-13.84663 23.7839,-14.89135 0,-2.0986 -26.1956,-16.7628 -39.0925,-21.8838 l -5.5925,-2.2206 -7.6653,3.0449 c -4.2159,1.6748 -11.3555,4.9004 -15.8658,7.1682 -8.4716,4.2594 -23.7839,13.84658 -23.7839,14.8913 0,0.92311 14.8104,10.36724 22.017,14.03957 6.8172,3.47389 20.9726,9.78058 22.207,9.89394 0.3982,0.0366 4.1141,-1.28025 8.2577,-2.92626 z m -152.268,-18.00725 c 0.1144,-9.075 -0.1506,-21.2712 -0.589,-27.1026 l -0.7971,-10.6026 -8.1638,1.8954 c -20.5063,4.7612 -45.8658,15.1405 -61.4138,25.13586 -5.0556,3.2501 -7.25,5.27015 -7.25,6.67394 0,2.58375 10.5441,9.44428 25.5,16.59159 13.1589,6.28853 25.1354,10.5851 40,14.35002 l 11,2.78609 0.7528,-6.61385 c 0.414,-3.63762 0.8464,-14.03885 0.9609,-23.11385 z m 321.2863,22.91646 c 21.4829,-7.15714 48.5,-21.59397 48.5,-25.91646 0,-1.40379 -2.1944,-3.42384 -7.25,-6.67394 -15.548,-9.99536 -40.9075,-20.37466 -61.4138,-25.13586 l -8.1638,-1.8954 -0.7666,10.6026 c -0.4217,5.8314 -0.7666,16.2276 -0.7666,23.1026 0,6.875 0.3449,17.27118 0.7666,23.10262 l 0.7666,10.60263 8.1638,-1.89547 c 4.4901,-1.04251 13.5638,-3.69451 20.1638,-5.89332 z m -287.1026,-24.91646 c 0.056,-17.325 -0.2504,-33.5573 -0.6819,-36.0717 -0.8892,-5.1815 0.6753,-4.884 -14.9966,-2.8517 l -8.781,1.1388 0.781,13.1423 c 0.4296,7.2283 0.7811,17.4173 0.7811,22.6423 0,5.225 -0.3515,15.41404 -0.7811,22.6423 l -0.781,13.1423 8.281,1.09591 c 14.3334,1.89685 14.1783,1.90584 15.1785,-0.88051 0.4935,-1.375 0.9435,-16.675 1,-34 z m 238.8837,35.92336 8.781,-1.13876 -0.781,-13.1423 c -0.4296,-7.22826 -0.7811,-17.4173 -0.7811,-22.6423 0,-5.225 0.3515,-15.414 0.7811,-22.6423 l 0.781,-13.1423 -8.781,-1.1388 c -15.4951,-2.0094 -14.1608,-2.1736 -15.0186,1.8484 -1.0127,4.7479 -0.9821,61.0447 0.037,68.14456 0.9103,6.34209 -0.8045,5.90099 14.9817,3.8538 z m -25.751,-0.17336 c -1.122,-3.59069 -1.7841,-57.381 -0.8235,-66.911 l 0.873,-8.6611 -5.0398,-0.6211 c -5.5514,-0.6842 -33.8438,0.8928 -44.9741,2.5068 -10.9429,1.5869 -32.5657,6.1748 -32.5657,6.9099 0,0.3623 2.7911,1.979 6.2024,3.5926 14.1208,6.6796 33.0068,19.60408 34.9824,23.94015 1.3973,3.06677 0.4101,4.50082 -6.6848,9.71082 -9.4315,6.92582 -16.7484,11.3875 -27.6289,16.8476 -5.5445,2.78237 -9.8743,5.26544 -9.6218,5.51794 0.9081,0.90812 27.4429,6.28115 36.2507,7.34041 4.95,0.5953 10.125,1.24487 11.5,1.44349 1.375,0.19862 10.54,0.42241 20.3666,0.49731 l 17.8667,0.13618 -0.7032,-2.25 z m -176.0301,1.24859 c 8.25,-0.52812 18.375,-1.43657 22.5,-2.01878 10.9905,-1.55122 33,-6.18873 33,-6.95326 0,-0.36235 -2.7911,-1.97905 -6.2024,-3.59268 -14.1208,-6.67952 -33.0068,-19.60405 -34.9824,-23.94012 -1.3973,-3.06677 -0.4101,-4.50082 6.6848,-9.71082 9.4315,-6.92583 16.7484,-11.38753 27.6289,-16.84763 5.5445,-2.7823 9.8879,-5.2518 9.6521,-5.4876 -0.731,-0.731 -21.8776,-5.304 -32.3388,-6.9934 -5.6254,-0.9084 -19.3863,-1.8465 -31.6933,-2.1605 l -21.7511,-0.5549 0.7511,3.3805 c 0.9561,4.3034 0.9898,67.31273 0.038,71.57001 -0.6757,3.02315 -0.5454,3.21029 2.5,3.58996 5.8289,0.7267 9.0599,0.68923 24.2129,-0.28078 z m -104.7129,93.56862 c 7.3887,-11.78012 14.3622,-26.98448 19.5765,-42.68242 4.5491,-13.69539 9.508,-34.33532 9.911,-41.25201 l 0.2254,-3.86722 -11,-2.80502 c -6.05,-1.54276 -15.05,-4.21855 -20,-5.94621 -9.2825,-3.23979 -34.4026,-15.13542 -40.3835,-19.1236 l -3.3835,-2.25618 0.7009,8.93272 c 2.5253,32.18466 10.6791,64.65899 22.6609,90.2516 4.5049,9.62235 14.7789,27.17783 15.9052,27.17783 0.275,0 2.8792,-3.79327 5.7871,-8.42949 z m 369.8453,1.18114 c 2.8228,-4.53659 5.923,-9.82335 6.8895,-11.74835 0.9664,-1.925 2.1261,-3.74029 2.5771,-4.03398 1.6826,-1.09574 10.681,-23.25281 11.3566,-27.96353 0.1973,-1.37637 1.9618,-8.74052 3.921,-16.36478 3.7551,-14.61311 7.0148,-34.14796 8.1881,-49.07044 l 0.7023,-8.93272 -3.3835,2.25618 c -5.9809,3.98818 -31.101,15.88381 -40.3835,19.1236 -4.95,1.72766 -13.95,4.40345 -20,5.94621 l -11,2.80502 0.2254,3.86722 c 0.7691,13.19948 10.8316,47.16316 19.2787,65.07087 4.604,9.76044 14.8795,27.29305 15.9959,27.29305 0.275,0 2.8096,-3.71176 5.6324,-8.24835 z m -52.6324,9.72714 c 0,-0.28848 -1.8014,-3.37681 -4.0031,-6.86295 -6.091,-9.64443 -15.3432,-29.71459 -19.9111,-43.19186 -4.0114,-11.83551 -10.0505,-35.84212 -10.0739,-40.0463 -0.012,-2.09229 -0.3843,-2.13407 -23.7619,-2.66403 -29.5661,-0.67025 -47.4658,-3.37447 -71.7056,-10.83299 l -9.9555,-3.06331 -8.5445,2.54932 c -11.0834,3.30688 -24.451,6.24513 -36.9595,8.12387 -13.5599,2.03667 -43.2607,3.83588 -50.3467,3.04989 -4.3084,-0.4779 -5.8542,-0.31094 -6.1281,0.66188 -0.2015,0.71554 -1.5858,7.15099 -3.0763,14.30099 -5.0089,24.02901 -16.4359,53.54511 -27.5307,71.11254 -2.2017,3.48614 -4.0031,6.57447 -4.0031,6.86295 0,0.28848 62.1,0.52451 138,0.52451 75.9,0 138,-0.23603 138,-0.52451 z m -327.8092,8.77451 c -14.0159,-14.825 -31.5917,-53.72352 -38.5191,-85.25 -5.5013,-25.03676 -6.1551,-32.15332 -6.1551,-67 0,-34.8467 0.6538,-41.9632 6.1551,-67 5.4943,-25.0043 17.2855,-54.1949 29.4876,-73 12.5043,-19.2708 14.8306,-19.4667 26.1963,-2.2056 15.3743,23.3491 26.592,51.9968 32.7181,83.5561 l 2.3004,11.8505 3.563,-0.6066 c 1.9596,-0.3336 6.8662,-0.8983 10.9035,-1.2549 4.7247,-0.4173 7.5242,-1.1265 7.8556,-1.9903 0.8411,-2.1919 -4.5509,-24.8385 -9.3633,-39.3258 -7.0526,-21.2315 -14.8253,-36.3465 -28.9023,-56.2042 -2.8057,-3.9578 -2.6586,-7.2143 0.3871,-8.5703 0.9253,-0.4119 70.2311,-0.5239 154.013,-0.2489 149.3359,0.4902 152.3586,0.5382 153.75,2.4411 2.0866,2.8538 1.7836,4.147 -1.9463,8.306 -9.263,10.3288 -20.8004,32.7137 -27.9745,54.2763 -4.9025,14.7349 -10.3114,37.8363 -9.4094,40.187 0.3955,1.0308 2.799,1.6778 7.9089,2.1291 4.0373,0.3566 8.9439,0.9213 10.9035,1.2549 l 3.563,0.6066 2.3004,-11.8505 c 6.2913,-32.4099 17.4313,-60.4845 33.7483,-85.0512 4.0917,-6.1604 8.2968,-11.4728 9.3446,-11.8054 2.7907,-0.8857 5.167,0.7579 9.6942,6.7052 15.0464,19.7657 29.0524,51.9352 35.6149,81.8009 5.5484,25.2507 6.1679,32.0742 6.1284,67.5 -0.033,29.29396 -0.2867,34.51575 -2.2622,46.4968 -2.803,16.99932 -8.4739,40.79079 -12.5143,52.5016 -3.5809,10.37899 -15.4632,34.73626 -18.8682,38.67777 -1.2716,1.47189 -4.4754,5.63231 -7.1195,9.24537 -7.9694,10.88989 -10.9199,10.16552 -21.0099,-5.15809 -15.414,-23.40911 -26.6243,-52.02448 -32.7563,-83.61394 l -2.3004,-11.85048 -3.563,0.60654 c -1.9596,0.3336 -6.8662,0.8983 -10.9035,1.25489 -4.1733,0.36859 -7.5366,1.15885 -7.7947,1.83151 -0.779,2.02998 4.6265,24.38287 9.3065,38.48464 7.0421,21.21943 14.8166,36.34002 28.8982,56.20417 2.8057,3.95786 2.6586,7.21433 -0.3871,8.57028 -0.9253,0.41192 -70.2311,0.52394 -154.013,0.24894 -149.3359,-0.49017 -152.3586,-0.53816 -153.75,-2.44113 -2.0866,-2.85377 -1.7836,-4.14694 1.9463,-8.30599 9.27,-10.33656 20.8126,-32.7373 27.9673,-54.27627 4.8124,-14.48734 10.2044,-37.13393 9.3633,-39.32584 -0.3314,-0.86374 -3.1309,-1.57302 -7.8556,-1.99031 -4.0373,-0.35659 -8.9439,-0.92129 -10.9035,-1.25489 l -3.563,-0.60654 -2.3004,11.85048 c -6.1445,31.65387 -17.339,60.20012 -32.8381,83.73801 -10.1326,15.38814 -11.2238,16.0195 -17.0448,9.86248 z"
       id="path5543"
       style="fill:#000000;fill-opacity:1;stroke:none;display:inline" />
  </g>
</svg>
