<svg xmlns="http://www.w3.org/2000/svg" viewBox="0 0 1000 1000"><title>UnknownX</title><circle cx="551.96" cy="488.71" r="42.38"/><path d="M498.61,250.58c-122.76,0-224.42,89.64-242.23,206.59,21-76.94,102.74-134.34,200.48-134.34,113.63,0,205.75,77.57,205.75,173.25S570.5,669.33,456.86,669.33c-94.85,0-174.66-54.06-198.47-127.57,22.42,111.38,121.44,195.32,240.22,195.32,135.31,0,245-108.91,245-243.25S633.92,250.58,498.61,250.58Z"/><path d="M375.11,848.83c35-11,70.4-15.52,106-15l-19.33-21.6a25.12,25.12,0,0,1-6.39-16.15L443.11,279.83c-16.64-81.77-34.36-166.81-36-203.5l-.49,713.12a49.08,49.08,0,0,1-9.33,28.75Z"/></svg>