<?xml version="1.0" encoding="UTF-8" standalone="no"?>
<!-- Created with Inkscape (http://www.inkscape.org/) -->

<svg
   xmlns:dc="http://purl.org/dc/elements/1.1/"
   xmlns:cc="http://creativecommons.org/ns#"
   xmlns:rdf="http://www.w3.org/1999/02/22-rdf-syntax-ns#"
   xmlns:svg="http://www.w3.org/2000/svg"
   xmlns="http://www.w3.org/2000/svg"
   xmlns:sodipodi="http://sodipodi.sourceforge.net/DTD/sodipodi-0.dtd"
   xmlns:inkscape="http://www.inkscape.org/namespaces/inkscape"
   width="367.80542mm"
   height="322.86224mm"
   viewBox="0 0 1303.2476 1144.0001"
   id="svg4142"
   version="1.1"
   inkscape:version="0.91 r13725"
   sodipodi:docname="Ire.svg">
  <defs
     id="defs4144" />
  <sodipodi:namedview
     id="base"
     pagecolor="#ffffff"
     bordercolor="#666666"
     borderopacity="1.0"
     inkscape:pageopacity="0.0"
     inkscape:pageshadow="2"
     inkscape:zoom="0.49497475"
     inkscape:cx="431.39315"
     inkscape:cy="552.02124"
     inkscape:document-units="px"
     inkscape:current-layer="layer1"
     showgrid="false"
     fit-margin-top="0"
     fit-margin-left="0"
     fit-margin-right="0"
     fit-margin-bottom="0"
     inkscape:window-width="1366"
     inkscape:window-height="705"
     inkscape:window-x="-8"
     inkscape:window-y="-8"
     inkscape:window-maximized="1" />
  <metadata
     id="metadata4147">
    <rdf:RDF>
      <cc:Work
         rdf:about="">
        <dc:format>image/svg+xml</dc:format>
        <dc:type
           rdf:resource="http://purl.org/dc/dcmitype/StillImage" />
        <dc:title></dc:title>
      </cc:Work>
    </rdf:RDF>
  </metadata>
  <g
     inkscape:label="Layer 1"
     inkscape:groupmode="layer"
     id="layer1"
     transform="translate(333.30494,102.72472)">
    <path
       style="fill:#000000"
       d="M 729.61951,1036.6599 C 683.63204,1029.4643 636.54873,1010.7424 595.30468,983.252 511.66111,927.50102 433.59543,793.9031 399.62058,648.36741 392.00687,615.75309 382.78124,544.9516 382.78124,519.13494 l 0,-17.9535 -43.35477,-0.0535 c -23.84514,-0.0306 -110.68221,-1.47177 -192.9713,-3.20536 -82.289063,-1.73357 -226.124947,-4.26618 -319.63525,-5.62798 -93.51032,-1.36182 -165.42825,-3.62048 -159.81763,-5.01924 5.61062,-1.39877 36.21399,-5.09254 68.0075,-8.20844 31.79351,-3.11586 76.93349,-7.83008 100.31106,-10.476 43.38831,-4.91076 141.323298,-9.96147 397.84389,-20.51755 91.94017,-3.78344 145.42482,-7.2662 147.01416,-9.57316 1.37406,-1.99438 2.52165,-11.33515 2.55028,-20.75728 0.0676,-22.23543 8.3784,-88.0727 15.22162,-120.58406 24.51292,-116.45756 89.7934,-245.302819 157.01052,-309.894281 48.91286,-47.002262 117.19678,-79.071027 187.21703,-87.924439 57.70544,-7.2963 132.19304,5.283025 173.04421,29.22343 14.85434,8.705191 57.65625,51.661207 54.56053,54.756921 -0.92985,0.929867 -6.76423,-2.118138 -12.96518,-6.773321 C 914.80679,-54.991142 849.35276,-69.455714 797.94684,-58.561453 671.00849,-31.659844 566.22275,111.63483 525.5787,313.90247 c -5.47766,27.26005 -10.87014,62.57017 -11.98322,78.46692 -1.11315,15.89675 -2.72268,32.34606 -3.57686,36.55403 -1.50483,7.41337 -0.73302,7.64969 24.86464,7.6134 32.15139,-0.0456 52.1707,-3.0776 53.52199,-8.10632 0.55537,-2.06664 2.81587,-19.82433 5.02339,-39.46148 20.68489,-184.00509 138.95106,-353.198066 247.1379,-353.558302 14.62471,-0.0487 29.45945,2.074822 37.40412,5.354206 13.52754,5.583847 36.68193,21.488694 34.48369,23.686969 -0.67767,0.677634 -8.67219,-1.007045 -17.76561,-3.743764 C 871.67969,53.783434 859.9191,54.501862 839.32439,64.090167 761.4953,100.32525 703.51711,230.34236 696.72645,383.86846 l -2.10565,47.60524 53.9748,-1.02403 53.9748,-1.02406 17.9213,-13.53073 c 31.07232,-23.45979 29.57643,-25.3573 26.99667,34.24439 -1.24089,28.66786 -2.25611,66.60492 -2.25611,84.30459 l 0,32.18118 -24.03979,-29.32147 -24.03986,-29.32146 -51.29734,0 -51.29734,0 2.15458,46.75516 c 7.08172,153.67589 64.77049,282.68739 142.61188,318.92818 20.59471,9.58831 32.35534,10.30673 55.36435,3.38204 9.09346,-2.73672 17.08798,-4.4214 17.76563,-3.74377 2.19825,2.19828 -20.95613,18.10313 -34.48368,23.68697 -20.01755,8.26282 -57.35742,7.03562 -80.92963,-2.65981 C 703.9058,856.02382 618.42723,716.28514 595.03066,564.0883 c -2.58749,-16.83187 -4.73196,-37.10661 -4.7655,-45.05498 l -0.0609,-14.45159 -40.07047,0 -40.0705,0 2.62322,33.15366 c 5.29399,66.90738 23.76432,146.5446 49.09357,211.67334 53.0481,136.4017 139.3163,226.70796 235.84706,246.88668 52.2035,10.91259 116.69942,-3.20362 158.74069,-34.7436 15.23909,-11.43259 17.00654,-10.11462 5.92298,4.41672 -32.18777,42.20037 -79.24118,65.30457 -147.17197,72.26457 -42.35228,4.3393 -48.42657,4.2275 -85.4992,-1.5733 z M 28.3832,780.03833 c -48.417862,-14.58644 -58.866344,-82.95551 -17.49959,-114.50748 10.080339,-7.6886 16.623695,-9.68441 34.885296,-10.64033 20.005371,-1.04725 24.07929,-0.12376 37.039244,8.39761 16.910096,11.1184 31.3838,36.73174 31.26882,55.33484 -0.26319,42.59847 -44.03162,73.96657 -85.693732,61.41536 z m 186.07947,-3.07239 c -7.48083,-3.46353 -17.7121,-10.69824 -22.73615,-16.07712 -25.44006,-27.23659 -20.96666,-72.06031 9.51149,-95.30713 15.50748,-11.82814 48.55484,-15.26815 64.99677,-6.76567 51.48069,26.62171 49.55436,97.269 -3.25393,119.33368 -16.55618,6.91763 -31.82455,6.54511 -48.51814,-1.18376 z M 18.973237,297.65106 C 12.503544,294.18136 2.6264888,285.67917 -2.9758072,278.75736 -11.580482,268.12599 -13.347284,262.6387 -14.356659,243.41135 c -1.076048,-20.49703 -0.194155,-24.31862 8.8650449,-38.42261 27.9791081,-43.55918 91.3105471,-38.60249 113.2163941,8.861 3.45258,7.48082 6.27752,18.95709 6.27752,25.50281 0,23.67589 -19.882186,52.73703 -41.726608,60.99042 -14.844919,5.60881 -40.213797,4.32763 -53.302417,-2.69191 z m 192.089063,0.64631 c -24.08789,-12.72743 -35.70394,-32.19231 -35.70394,-59.82889 0,-55.14966 65.05407,-83.19221 107.18276,-46.20276 33.21891,29.16658 25.97481,85.70029 -13.42541,104.77362 -17.19094,8.32201 -43.60099,8.89432 -58.05341,1.25803 z"
       id="path4701"
       inkscape:connector-curvature="0" />
  </g>
</svg>
