<?xml version="1.0" encoding="utf-8"?>
<!-- Generator: Adobe Illustrator 21.0.0, SVG Export Plug-In . SVG Version: 6.00 Build 0)  -->
<svg version="1.1" id="Layer_1" xmlns="http://www.w3.org/2000/svg" xmlns:xlink="http://www.w3.org/1999/xlink" x="0px" y="0px"
	 viewBox="0 0 1000 1000" enable-background="new 0 0 1000 1000" xml:space="preserve">
<g id="symbol">
	<g id="rings">
		<path id="violet" fill="#6F2E97" d="M500,989.189c-130.664,0-253.507-50.884-345.9-143.277S10.823,630.676,10.823,500.012
			s50.884-253.507,143.277-345.9S369.336,10.835,500,10.835s253.508,50.884,345.901,143.277s143.277,215.236,143.277,345.9
			S938.294,753.52,845.901,845.913S630.664,989.189,500,989.189z M500,51.639c-247.162,0-448.243,201.081-448.243,448.242
			c0,247.163,201.081,448.244,448.243,448.244c247.161,0,448.242-201.081,448.242-448.244C948.242,252.72,747.161,51.639,500,51.639
			z"/>
		<path id="gold" fill="#CAA344" d="M500,16.989c266.766,0,483.023,216.256,483.023,483.023S766.766,983.034,500,983.034
			S16.977,766.778,16.977,500.012S233.234,16.989,500,16.989 M500,954.279c250.956,0,454.397-203.441,454.397-454.397
			S750.956,45.485,500,45.485S45.603,248.925,45.603,499.881S249.044,954.279,500,954.279 M500,0.023
			c-67.493,0-132.973,13.221-194.622,39.297c-59.54,25.183-113.009,61.233-158.923,107.147
			C100.541,192.38,64.491,245.85,39.308,305.39C13.233,367.039,0.011,432.519,0.011,500.012s13.221,132.973,39.297,194.622
			c25.183,59.54,61.233,113.009,107.147,158.923c45.914,45.914,99.384,81.963,158.923,107.147
			C367.027,986.779,432.507,1000,500,1000s132.973-13.221,194.622-39.297c59.54-25.183,113.009-61.232,158.923-107.147
			c45.914-45.914,81.963-99.384,107.147-158.923c26.075-61.649,39.297-127.129,39.297-194.622s-13.221-132.973-39.297-194.622
			c-25.183-59.54-61.232-113.009-107.147-158.923c-45.914-45.914-99.384-81.963-158.923-107.147
			C632.973,13.244,567.493,0.023,500,0.023L500,0.023z M500,941.97c-243.768,0-442.088-198.32-442.088-442.088
			S256.232,57.793,500,57.793s442.088,198.32,442.088,442.088S743.768,941.97,500,941.97L500,941.97z"/>
	</g>
	<g id="petals">
		<g id="inner">
			<path fill="#6F2E97" d="M465.394,541.385c0.28-1.652,0.431-3.327,0.64-4.991c-2.575,1.721-5.616,3.604-8.302,5.132
				c-7.819,4.449-15.255,8.575-23.123,12.937c0,0-0.966,1.125-3.19,3.884c-3.272,4.061-6.557,8.126-9.58,12.37
				c-9.226,12.953-15.073,27.667-21.527,42.049c-4.999,11.138-10.562,20.508-19.108,29.39c-2.627,2.731-5.951,5.712-10.019,8.336
				c2.43,0.2,8.159-2.656,10.924-4.102c4.234-2.216,12.496-8.915,12.496-8.915s-5.158,11.882-7.295,15.627
				c-7.297,12.781-19.413,21.578-31.119,30.273c-6.481,4.814-11.496,10.823-15.449,17.709c-2.668,4.648-4.616,14.281-3.59,19.049
				c1.549-3.014,3.972-8.315,5.849-11.03c1.874-2.711,4.126-5.299,6.675-7.371c3.245-2.636,6.805-4.979,10.493-6.955
				c11.035-5.91,21.671-12.117,29.677-22.227c8.857-11.186,17.269-22.633,23.466-35.494c6.686-13.877,13.6-27.614,21.641-40.757
				c0.787-1.286,1.768-2.267,4.045-3.823c2.386,9.777-1.655,16.805-6.71,26.037c1.553-0.906,3.614-2.095,4.264-2.607
				c0.818-0.644,1.555-1.398,2.285-2.145c7.358-7.523,10.838-17.115,14.003-26.799c3.378-10.334,6.031-20.92,11.482-30.472
				c1.706-2.99,3.278-6.057,4.909-9.091c-1.485,0.408-2.987,0.821-5.301,1.458C464.56,545.677,465.028,543.54,465.394,541.385z"/>
			<path fill="#6F2E97" d="M469.282,547.305c-0.017,0.031-0.033,0.062-0.049,0.093c0.036-0.01,0.073-0.02,0.109-0.03
				C469.342,547.368,469.282,547.305,469.282,547.305z"/>
			<path fill="#6F2E97" d="M456.065,511.904c5.433-4.123,10.112-7.674,14.884-11.296c-14.186-2.528-61.617,7.019-67.013,16.721
				c6.154-1.978,12.949-4.813,17.082-1.984c-1.522,0.843-2.729,1.444-3.866,2.155c-3.553,2.221-7.2,4.316-10.586,6.771
				c-4.648,3.37-8.923,7.149-13.88,10.222c-6.018,3.731-11.186,6.478-18.057,7.235c-0.737,0.081-1.624,0.182-5.568,0.513
				c5.829,4.249,13.217,4.654,19.235,3.529c8.21-1.535,15.559-5.215,22.634-9.521c3.442-2.095,6.838-4.33,10.474-6.032
				c6.154-2.882,13.336-5.544,20.631-4.501c-0.275,1.519-3.517,1.897-12.968,7.221c6.147-0.716,22.767-4.418,28.061-6.063
				c6.687-2.006,3.575-1.177,7.569-2.551c0,0,1.54-0.582,2.379-1.219c3.339-2.746,6.135-5.293,9.474-8.038
				c1.915-1.285,2.451-1.645,3.968-2.664C473.613,514.58,463.212,514.245,456.065,511.904z"/>
			<path fill="#6F2E97" d="M443.053,482.353c-0.034-0.006-0.069-0.012-0.103-0.018c0.02,0.031,0.042,0.063,0.062,0.095
				C443.012,482.429,443.053,482.353,443.053,482.353z"/>
			<path fill="#6F2E97" d="M385.852,464.845c1.466,0.351,2.702,0.981,4.886,2.666c-8.561,5.29-16.494,3.619-26.836,1.664
				c1.342,1.197,3.109,2.789,3.797,3.25c0.865,0.579,1.81,1.047,2.746,1.511c9.429,4.673,19.626,5.019,29.814,5.036
				c10.872,0.019,21.76-0.729,32.528,1.504c3.371,0.699,6.774,1.245,10.163,1.859c-0.847-1.286-1.704-2.587-3.025-4.591
				c3.218-0.385,5.395-0.6,7.557-0.918c1.658-0.244,3.297-0.618,4.945-0.934c-2.433-1.918-5.163-4.228-7.446-6.31
				c-6.647-6.061-12.869-11.858-19.449-17.993c0,0-1.368-0.571-4.68-1.833c-4.873-1.857-9.754-3.725-14.725-5.289
				c-15.17-4.772-30.97-5.786-46.643-7.48c-12.137-1.312-22.768-3.708-33.856-9.091c-3.409-1.655-7.272-3.895-11.024-6.953
				c0.561,2.373,5.047,6.939,7.277,9.122c3.415,3.342,12.34,9.13,12.34,9.13s-12.895-1.233-17.116-2.109
				c-14.41-2.99-26.521-11.795-38.407-20.241c-6.581-4.677-13.845-7.589-21.616-9.22c-5.246-1.101-15.009,0.023-19.226,2.472
				c3.345,0.542,9.136,1.209,12.298,2.155c3.158,0.944,6.315,2.286,9.073,4.071c3.51,2.271,6.838,4.933,9.857,7.831
				c9.03,8.669,18.22,16.866,30.31,21.355c13.376,4.967,26.862,9.43,41.009,11.349C355.667,458.928,370.868,461.259,385.852,464.845
				z"/>
			<path fill="#6F2E97" d="M435.538,423.439c3.057,2.626,6.231,5.165,8.974,8.097c4.642,4.962,9.394,10.97,10.656,18.23
				c-1.53,0.208-2.891-2.759-10.875-10.102c2.58,5.625,11.237,20.288,14.437,24.814c3.974,5.74,2.223,3.036,4.765,6.41
				c0,0,1.03,1.285,1.895,1.886c3.643,2.327,6.929,4.199,10.572,6.526c1.814,1.424,2.322,1.822,3.76,2.951
				c-4.207-5.893-7.102-15.888-7.084-23.409c5.6,3.893,10.423,7.246,15.342,10.665c-1.98-14.273-25.716-56.432-36.611-58.566
				c3.783,5.242,8.579,10.828,7.166,15.633c-1.272-1.187-2.216-2.149-3.244-3.011c-3.21-2.692-6.33-5.514-9.71-7.975
				c-4.641-3.379-9.556-6.277-14.011-10.042c-5.408-4.57-9.617-8.637-12.461-14.937c-0.305-0.676-0.675-1.488-2.208-5.137
				c-2.24,6.857-0.342,14.009,2.588,19.384C423.485,412.189,429.256,418.041,435.538,423.439z"/>
			<path fill="#6F2E97" d="M496.722,437.336c-0.005-0.035-0.01-0.069-0.015-0.104c-0.023,0.029-0.047,0.059-0.071,0.088
				L496.722,437.336z"/>
			<path fill="#6F2E97" d="M495.335,426.992c0.377,3.422,0.909,6.827,1.372,10.24c0.961-1.203,1.934-2.42,3.432-4.295
				c1.36,2.941,2.238,4.945,3.208,6.903c0.744,1.502,1.606,2.945,2.416,4.414c1.072-2.906,2.425-6.217,3.7-9.031
				c3.711-8.195,7.301-15.904,11.102-24.057c0,0,0.12-1.478,0.297-5.017c0.261-5.209,0.529-10.428,0.48-15.638
				c-0.15-15.902-4.068-31.242-7.3-46.671c-2.503-11.949-3.509-22.8-1.817-35.008c0.52-3.753,1.457-8.119,3.206-12.633
				c-2.084,1.267-5.04,6.944-6.426,9.74c-2.123,4.281-4.87,14.557-4.87,14.557s-2.812-12.645-3.283-16.93
				c-1.609-14.629,3.022-28.868,7.382-42.782c2.414-7.704,2.939-15.513,2.089-23.407c-0.574-5.329-4.66-14.267-8.292-17.521
				c0.518,3.349,1.674,9.062,1.751,12.362c0.077,3.295-0.223,6.712-1.068,9.887c-1.075,4.04-2.578,8.028-4.401,11.794
				c-5.454,11.267-10.41,22.54-10.944,35.426c-0.591,14.256-0.668,28.461,1.879,42.508c2.748,15.157,5.229,30.334,6.448,45.693
				c0.119,1.503-0.098,2.873-1.025,5.47c-7.677-6.507-8.539-14.568-9.875-25.008c-0.724,1.646-1.692,3.819-1.917,4.616
				c-0.283,1.002-0.436,2.045-0.588,3.078c-1.531,10.411,1.292,20.216,4.423,29.911C490.055,405.937,494.131,416.06,495.335,426.992
				z"/>
			<path fill="#6F2E97" d="M567.208,423.177c-3.816,5.218-7.647,11.505-12.653,11.646c0.736-1.577,1.359-2.772,1.861-4.016
				c1.569-3.885,3.289-7.724,4.584-11.7c1.779-5.458,3.017-11.028,5.221-16.428c2.675-6.556,5.242-11.816,10.356-16.467
				c0.549-0.499,1.207-1.102,4.203-3.688c-7.214-0.011-13.429,4.004-17.635,8.451c-5.74,6.067-9.522,13.364-12.715,21.007
				c-1.553,3.719-2.987,7.522-4.927,11.037c-3.285,5.949-7.53,12.324-14.045,15.768c-0.671-1.391,1.731-3.602,6.247-13.464
				c-4.552,4.192-15.822,16.956-19.138,21.399c-4.231,5.553-2.201,3.053-4.624,6.512c0,0-0.904,1.377-1.208,2.385
				c-1.087,4.184-1.852,7.888-2.939,12.072c-0.793,2.165-1.016,2.772-1.645,4.488c4.305-5.822,12.916-11.664,20.074-13.971
				c-1.972,6.529-3.67,12.152-5.402,17.887C535.784,469.801,568.545,434.198,567.208,423.177z"/>
			<path fill="#6F2E97" d="M556.12,474.467c0.031-0.015,0.063-0.031,0.094-0.046c-0.035-0.013-0.071-0.027-0.106-0.04
				C556.109,474.381,556.12,474.467,556.12,474.467z"/>
			<path fill="#6F2E97" d="M753.383,417.796c-3.11,1.092-6.453,1.862-9.733,2.039c-4.174,0.226-8.432,0.029-12.577-0.541
				c-12.401-1.705-24.654-2.935-37.074,0.539c-13.741,3.843-27.274,8.16-39.847,14.923c-13.566,7.297-27.233,14.346-41.464,20.252
				c-1.392,0.578-2.763,0.794-5.519,0.715c3.816-9.312,11.216-12.623,20.733-17.12c-1.789-0.18-4.155-0.429-4.982-0.397
				c-1.04,0.04-2.08,0.217-3.109,0.392c-10.375,1.761-18.828,7.476-27.08,13.45c-8.807,6.375-17.176,13.379-27.2,17.903
				c-3.138,1.416-6.212,2.974-9.315,4.469c1.441,0.543,2.899,1.091,5.146,1.937c-2.377,2.203-4.012,3.656-5.574,5.184
				c-1.198,1.172-2.304,2.438-3.451,3.662c3.095,0.121,6.662,0.386,9.732,0.728c8.94,0.997,17.382,2.029,26.311,3.125
				c0,0,1.443-0.342,4.864-1.268c5.034-1.362,10.081-2.719,15.021-4.376c15.077-5.056,28.456-13.523,42.131-21.365
				c10.591-6.073,20.6-10.383,32.734-12.546c3.731-0.665,8.172-1.123,13.006-0.855c-1.849-1.59-8.162-2.647-11.249-3.102
				c-4.728-0.696-15.35-0.133-15.35-0.133s11.157-6.582,15.087-8.354c13.416-6.051,28.388-6.047,42.969-6.2
				c8.073-0.085,15.662-1.999,22.907-5.246c4.891-2.192,12.129-8.841,14.101-13.301
				C761.575,413.838,756.498,416.703,753.383,417.796z"/>
			<path fill="#6F2E97" d="M591.367,537.127c-6.142-2.017-13.305-3.718-14.986-8.435c1.727,0.212,3.056,0.436,4.394,0.529
				c4.179,0.291,8.362,0.741,12.544,0.745c5.741,0.005,11.421-0.538,17.237-0.111c7.062,0.519,12.857,1.334,18.861,4.76
				c0.644,0.367,1.421,0.807,4.806,2.858c-2.219-6.864-7.958-11.534-13.487-14.161c-7.544-3.584-15.653-4.927-23.908-5.601
				c-4.017-0.328-8.077-0.516-12.019-1.276c-6.672-1.286-14.048-3.353-19.337-8.485c1.116-1.068,3.96,0.533,14.736,1.78
				c-5.394-3.034-21.016-9.808-26.266-11.589c-6.589-2.307-3.583-1.149-7.623-2.385c0,0-1.589-0.434-2.641-0.412
				c-4.315,0.259-8.074,0.676-12.389,0.935c-2.305-0.086-2.95-0.109-4.776-0.177c6.868,2.295,15.084,8.68,19.491,14.774
				c-6.819,0.142-12.692,0.265-18.681,0.39C537.315,521.649,581.298,541.805,591.367,537.127z"/>
			<path fill="#6F2E97" d="M539.162,542.432c0.024,0.025,0.049,0.05,0.073,0.076c0.002-0.037,0.003-0.076,0.005-0.113
				C539.24,542.394,539.162,542.432,539.162,542.432z"/>
			<path fill="#6F2E97" d="M654.016,712.528c-1.999-2.62-3.765-5.561-4.947-8.626c-1.504-3.9-2.633-8.01-3.372-12.129
				c-2.21-12.321-4.827-24.354-11.969-35.093c-7.901-11.881-16.189-23.418-26.506-33.286c-11.132-10.647-22.06-21.467-32.074-33.176
				c-0.98-1.146-1.609-2.382-2.386-5.028c10.035,0.752,15.471,6.767,22.689,14.427c-0.382-1.757-0.876-4.084-1.162-4.861
				c-0.359-0.977-0.849-1.911-1.333-2.836c-4.881-9.323-12.928-15.596-21.16-21.599c-8.785-6.406-18.032-12.201-25.432-20.336
				c-2.317-2.547-4.748-4.989-7.129-7.478c-0.071,1.538-0.142,3.095-0.252,5.492c-2.829-1.58-4.717-2.686-6.653-3.699
				c-1.485-0.777-3.031-1.438-4.549-2.151c0.841,2.981,1.692,6.455,2.315,9.481c1.815,8.811,3.441,17.158,5.159,25.989
				c0,0,0.771,1.266,2.708,4.234c2.851,4.367,5.701,8.747,8.804,12.934c9.468,12.777,21.655,22.885,33.338,33.467
				c9.048,8.196,16.24,16.383,22.047,27.255c1.785,3.342,3.594,7.425,4.832,12.105c0.941-2.25-0.004-8.58-0.526-11.657
				c-0.799-4.711-4.617-14.639-4.617-14.639s9.707,8.577,12.607,11.767c9.901,10.889,14.523,25.131,19.175,38.95
				c2.575,7.652,6.741,14.278,12.068,20.165c3.596,3.974,12.156,8.803,17.008,9.301
				C660.311,719.095,656.018,715.152,654.016,712.528z"/>
			<path fill="#6F2E97" d="M515.461,537.051c-1.58-4.024-3.138-7.47-4.718-11.494c-0.631-2.218-0.807-2.839-1.307-4.597
				c-0.06,7.24-3.594,17.028-8.028,23.102c-2.242-6.441-4.174-11.989-6.143-17.646c-6.788,12.711-12.366,60.77-4.805,68.9
				c0.02-6.464-0.576-13.802,3.392-16.859c0.332,1.708,0.53,3.041,0.855,4.343c1.014,4.065,1.879,8.182,3.168,12.16
				c1.769,5.462,4.041,10.695,5.432,16.359c1.689,6.877,2.704,12.64,1.301,19.409c-0.15,0.726-0.329,1.601-1.233,5.454
				c5.842-4.231,8.51-11.132,9.3-17.203c1.077-8.282-0.152-16.409-2.061-24.468c-0.929-3.922-2.005-7.841-2.501-11.825
				c-0.839-6.743-1.152-14.396,2.095-21.012c1.36,0.731,0.717,3.931,2.86,14.565c1.219-6.068,2.834-23.018,2.905-28.561
				c0.158-6.979-0.014-3.763-0.087-7.987C515.886,539.691,515.808,538.046,515.461,537.051z"/>
		</g>
		<path id="outer" fill="#CAA344" d="M855.824,355.649c-6.752,2.922-13.506,6.055-19.726,9.944
			c-14.443,9.031-29.825,11.624-46.458,8.72c-9.159-1.599-18.381-3.014-27.635-3.848c-15.242-1.374-30.121,1.314-44.797,5.223
			c-5.125,1.365-10.198,2.931-15.294,4.404c14.283-18.401,35.04-23.906,57.063-29.06c-1.76-0.433-2.547-0.697-3.355-0.816
			c-27.831-4.106-54.234,0.383-79.072,13.539c-14.775,7.826-28.156,17.799-41.131,28.254
			c-13.925,11.221-27.541,22.826-41.301,34.252c-0.367,0.305-1.525,1.069-2.756,1.868c25.12-45.302,21.344-87.047,21.344-87.047
			c-18.337,5.14-33.749,15.309-49.555,25.626c0.166-1.571,0.129-2.258,0.32-2.875c6.05-19.53,8.532-41.176,7.488-61.701
			c0,0-4.98,14.175-16.891,24.799c-4.015,3.581,4.398-1.104,5.115-34.731c0.404-18.972-3.19-37.388-8.393-55.497
			c-5.288-18.404-12.391-36.17-20.127-53.664c-7.326-16.566-15.523-32.689-25.955-47.572c-3.931-5.608-8.416-10.862-11.866-16.772
			c-14.949-25.615,5.217-45.474,5.217-45.474c-15.733,10.098-23.444,24.191-21.726,42.363c0.692,7.324,1.585,14.716,3.361,21.834
			c4.125,16.527,1.838,31.957-6.063,46.879c-4.351,8.217-8.546,16.55-12.199,25.093c-6.016,14.072-8.058,29.053-8.875,44.219
			c-0.285,5.296-0.364,10.604-0.537,15.907c-13.087-19.27-11.908-40.713-10.004-63.25c-0.956,1.54-1.449,2.207-1.813,2.939
			c-12.506,25.2-16.396,51.698-11.559,79.386c2.877,16.47,8.227,32.278,14.161,47.849c6.368,16.711,13.199,33.246,19.812,49.864
			c0.19,0.477,0.593,1.862,0.994,3.271c-35.338-37.952-76.26-47.271-76.26-47.271c-0.778,19.028,4.13,36.828,9.058,55.048
			c-1.443-0.644-2.108-0.821-2.635-1.193c-16.705-11.789-36.524-20.839-56.367-26.188c0,0,11.943,9.117,18.366,23.727
			c2.165,4.925,0.309-4.524-31.451-15.598c-17.919-6.247-36.544-8.519-55.375-9.167c-19.138-0.658-38.229,0.607-57.257,2.559
			c-18.019,1.848-35.886,4.661-53.264,9.984c-6.548,2.006-12.931,4.648-19.618,6.102c-28.981,6.302-41.636-19.014-41.636-19.014
			c4.742,18.084,15.762,29.772,33.576,33.754c7.18,1.605,14.486,3.04,21.804,3.55c16.993,1.183,30.961,8.127,42.711,20.253
			c6.47,6.677,13.099,13.242,20.095,19.356c11.524,10.07,25.141,16.642,39.312,22.105c4.949,1.908,9.973,3.623,14.962,5.426
			c-22.371,6.492-42.4-1.255-63.246-10.031c1.169,1.385,1.651,2.061,2.235,2.632c20.103,19.681,44.101,31.569,71.928,35.524
			c16.553,2.353,33.24,2.15,49.883,1.318c17.861-0.893,35.698-2.279,53.546-3.434c0.586-0.038,2.365-0.137,4.01-0.216
			c-47.431,21.852-69.115,58.201-69.115,58.201c17.856,6.62,36.302,7.452,55.153,8.396c-1.058,1.173-1.432,1.751-1.949,2.137
			c-16.374,12.244-31.105,28.297-42.324,45.516c0,0,12.361-8.541,28.241-10.135c5.353-0.537-4.207-1.692-24.553,25.091
			c-11.479,15.111-19.395,32.123-25.83,49.832c-6.54,17.997-11.236,36.545-15.26,55.245c-3.811,17.708-6.656,35.57-6.964,53.742
			c-0.116,6.848,0.425,13.734-0.259,20.543c-2.962,29.51-30.95,33.723-30.95,33.723c18.664,1.078,33.186-5.791,42.477-21.502
			c3.745-6.332,7.368-12.837,10.114-19.64c6.377-15.795,17.297-26.935,32.46-34.362c8.349-4.09,16.642-8.366,24.619-13.13
			c13.138-7.848,23.596-18.768,33.172-30.557c3.344-4.117,6.527-8.365,9.784-12.553c-0.739,23.282-14.296,39.937-29.084,57.051
			c1.678-0.684,2.47-0.933,3.194-1.312c24.93-13.037,43.652-32.188,56.013-57.43c7.353-15.016,12.317-30.949,16.668-47.034
			c4.671-17.263,8.864-34.655,13.281-51.986c0.18-0.706,0.705-2.076,1.124-3.189c6.291,51.45,33.905,83.026,33.905,83.026
			c11.814-14.936,18.305-32.222,25.028-49.859c0.789,1.369,1.223,1.903,1.431,2.514c6.585,19.357,17.3,38.327,30.209,54.318
			c0,0-4.303-14.395-0.912-29.991c1.143-5.257-2.909,3.479,16.276,31.105c10.824,15.587,24.557,28.372,39.411,39.965
			c15.096,11.781,31.284,21.979,47.826,31.585c15.664,9.096,31.772,17.322,48.96,23.231c6.477,2.227,13.193,3.84,19.458,6.594
			c27.15,11.936,22.508,39.856,22.508,39.856c6.793-17.417,4.747-33.351-7.323-47.043c-4.865-5.518-9.932-10.974-15.553-15.688
			c-13.052-10.945-20.271-24.774-22.65-41.49c-1.31-9.205-2.814-18.413-4.88-27.471c-3.404-14.92-10.558-28.241-18.811-40.99
			c-2.882-4.453-5.938-8.793-8.915-13.185c21.914,7.897,33.564,25.938,45.271,45.29c-0.132-1.808-0.125-2.637-0.261-3.443
			c-4.695-27.738-17.123-51.462-37.311-71.018c-12.009-11.634-25.628-21.278-39.581-30.387
			c-14.975-9.776-30.22-19.139-45.338-28.696c-0.433-0.274-1.714-1.183-3.01-2.115c51.037,10.05,89.764-6.528,89.764-6.528
			c-10.555-15.851-24.988-27.367-39.685-39.211c1.546-0.327,2.188-0.575,2.833-0.584c20.444-0.281,41.797-4.609,60.995-11.945
			c0,0-15.021-0.356-28.805-8.401c-4.646-2.712,2.409,3.842,34.612-5.868c18.169-5.478,34.572-14.588,50.187-25.132
			c15.87-10.716,30.571-22.961,44.818-35.725c13.491-12.087,26.292-24.864,37.223-39.385c4.119-5.472,7.729-11.361,12.284-16.468
			c19.742-22.133,44.861-9.09,44.861-9.09C888.361,351.378,872.575,348.399,855.824,355.649z M775.121,418.698
			c-23.854,22.104-50.51,40.079-79.94,53.944c-24.472,11.53-54.553,19.95-81.313,23.909c-1.246,0.184-2.126,0.317-2.126,0.317
			s-9.703-4.145-13.062-5.143c-8.229-2.447-8.958-2.543-15.382-3.395c-25.972-3.444-31.159-3.043-31.159-3.043
			s-3.054,2.6-5.66,4.179c-10.554,6.392-19.965,6.636-19.965,6.636c2.292,0.085,4.584,0.17,6.876,0.255
			c4.315-0.259,8.63-0.518,12.946-0.777c10.116-0.352,61.811,12.407,84.328,28.187c8.71,6.104,16.493,13.535,24.653,20.416
			c0.9,0.759,1.499,1.874,2.514,3.179c-6.925,2.172-13.726,2.516-20.454,2.913c-19.948,1.176-39.549-0.873-58.73-6.742
			c-17.991-5.504-36.492-17.456-50.885-29.577c-1.473-1.241-2.999-2.418-4.501-3.625c0,0,2.31,2.49,8.223,11.677
			c2.304,3.58,4.477,11.318,4.477,11.318c11.217,8.284,25.654,18.096,38.801,22.789c0.211,0.075,0.424,0.162,0.636,0.242
			c0.347,0.086,0.726,0.208,1.164,0.398c2.255,0.975,4.652,1.776,6.963,2.439c3.068,1.838,5.785,4.111,8.431,6.624
			c22.377,21.254,40.285,45.854,54.445,73.196c15.547,30.021,25.838,61.798,31.126,95.19c0.301,1.903,0.43,3.836,0.587,5.759
			c0.053,0.66-0.055,1.332-0.129,2.762c-6.329-3.216-12.336-6.021-18.109-9.245c-28.393-15.856-53.726-35.653-76.007-59.357
			c-18.528-19.711-35.831-45.719-47.866-69.945c-0.56-1.128-0.958-1.924-0.958-1.924s0.943-10.509,0.855-14.013
			c-0.216-8.583-0.35-9.305-1.525-15.678c-4.75-25.765-6.735-30.574-6.735-30.574s-3.417-2.101-5.723-4.091
			c-9.341-8.062-12.48-16.937-12.48-16.937c0.627,2.206,1.255,4.412,1.882,6.618c1.58,4.024,3.16,8.048,4.739,12.072
			c3.461,9.512,7.301,62.62-0.749,88.911c-3.114,10.17-7.776,19.868-11.799,29.755c-0.443,1.09-1.319,2.005-2.247,3.374
			c-4.206-5.915-6.635-12.277-9.091-18.552c-7.283-18.609-11.391-37.883-11.737-57.939c-0.325-18.811,5.325-40.1,12.405-57.534
			c0.725-1.784,1.373-3.6,2.057-5.401c0,0-1.654,2.966-8.564,11.429c-2.693,3.298-9.381,7.755-9.381,7.755
			c-4.412,13.227-9.283,29.991-9.684,43.945c-0.006,0.224-0.023,0.453-0.033,0.68c0.025,0.357,0.026,0.755-0.018,1.23
			c-0.23,2.446-0.252,4.973-0.168,7.376c-0.8,3.486-2.122,6.772-3.695,10.065c-13.299,27.85-31.161,52.483-52.789,74.399
			c-23.747,24.063-50.789,43.67-80.913,59.018c-1.717,0.875-3.515,1.595-5.296,2.338c-0.611,0.255-1.284,0.359-2.667,0.731
			c1.103-7.013,1.914-13.593,3.197-20.08c6.306-31.903,17.306-62.113,32.965-90.629c13.021-23.712,32.409-48.205,51.73-67.138
			c0.9-0.882,1.534-1.506,1.534-1.506s10.286-2.351,13.591-3.517c8.096-2.857,8.741-3.208,14.44-6.295
			c23.036-12.48,26.997-15.853,26.997-15.853s0.942-3.899,2.123-6.708c4.781-11.375,12.251-17.103,12.251-17.103
			c-1.904,1.278-3.809,2.557-5.713,3.835c-3.339,2.746-6.678,5.492-10.017,8.238c-7.977,6.231-57.299,26.294-84.791,26.763
			c-10.635,0.181-21.299-1.256-31.944-2.026c-1.174-0.085-2.314-0.635-3.903-1.094c4.325-5.828,9.626-10.104,14.835-14.379
			c15.447-12.677,32.509-22.54,51.476-29.066c17.79-6.122,39.783-7.327,58.552-5.981c1.921,0.138,3.848,0.193,5.772,0.287
			c0,0-3.332-0.657-13.516-4.613c-3.968-1.542-10.274-6.526-10.274-6.526c-13.943-0.109-31.391,0.439-44.786,4.37
			c-0.215,0.063-0.438,0.118-0.657,0.178c-0.331,0.134-0.71,0.258-1.176,0.363c-2.411,0.54-4.834,1.306-7.104,2.134
			c-3.55,0.311-7.071,0.059-10.676-0.418c-30.596-4.042-59.544-13.418-87.071-27.215c-30.224-15.149-57.228-34.808-81.133-58.715
			c-1.363-1.363-2.603-2.85-3.86-4.314c-0.431-0.502-0.738-1.11-1.519-2.311c7.011-1.118,13.519-2.38,20.085-3.165
			c32.291-3.861,64.421-2.736,96.38,3.345c26.575,5.056,55.861,15.926,79.837,28.452c1.117,0.583,1.906,0.993,1.906,0.993
			s5.414,9.057,7.545,11.839c5.219,6.817,5.752,7.322,10.449,11.788c18.987,18.052,23.419,20.776,23.419,20.776
			s3.999-0.309,7.035-0.054c12.295,1.032,20.052,6.366,20.052,6.366c-1.804-1.416-3.609-2.832-5.413-4.248
			c-3.643-2.327-7.287-4.654-10.93-6.981c-8.391-5.661-42.713-46.369-51.655-72.37c-3.459-10.058-5.387-20.645-7.944-31.007
			c-0.282-1.143-0.111-2.397-0.165-4.05c6.879,2.313,12.584,6.033,18.259,9.666c16.83,10.774,31.482,23.952,43.551,39.974
			c11.319,15.028,19.262,35.572,23.782,53.838c0.463,1.87,1.005,3.719,1.51,5.578c0,0-0.405-3.372,0.211-14.28
			c0.24-4.25,3.031-11.788,3.031-11.788c-4.205-13.294-10.118-29.719-17.996-41.244c-0.127-0.185-0.248-0.38-0.373-0.57
			c-0.23-0.273-0.465-0.595-0.708-1.006c-1.259-2.126-2.736-4.194-4.224-6.097c-1.393-3.28-2.241-6.707-2.902-10.283
			c-5.611-30.348-5.639-60.776-1.024-91.219c5.068-33.426,15.42-65.183,30.77-95.306c0.875-1.717,1.906-3.356,2.91-5.004
			c0.345-0.565,0.828-1.045,1.728-2.159c3.229,6.322,6.441,12.122,9.216,18.124c13.65,29.517,22.509,60.423,26.602,92.697
			c3.403,26.837,2.115,58.048-2.388,84.722c-0.21,1.242-0.356,2.12-0.356,2.12s-6.94,7.948-8.928,10.834
			c-4.87,7.07-5.187,7.733-7.982,13.58c-11.301,23.637-12.523,28.694-12.523,28.694s1.53,3.708,2.225,6.674
			c2.818,12.012,0.142,21.038,0.142,21.038c0.789-2.154,1.578-4.307,2.368-6.461c1.087-4.184,2.174-8.368,3.261-12.552
			c2.791-9.73,30.901-54.952,52.866-71.49c8.497-6.398,17.969-11.503,27.035-17.137c1-0.621,2.246-0.847,3.801-1.409
			c-0.074,7.257-1.849,13.832-3.55,20.353c-5.046,19.335-13.052,37.343-24.56,53.772c-10.794,15.409-27.879,29.312-43.854,39.254
			c-1.635,1.018-3.227,2.105-4.839,3.16c0,0,3.082-1.427,13.646-4.212c4.117-1.085,12.148-0.76,12.148-0.76
			c11.344-8.108,25.138-18.806,33.664-29.86c0.137-0.178,0.285-0.353,0.427-0.53c0.189-0.303,0.422-0.626,0.738-0.984
			c1.624-1.844,3.127-3.876,4.471-5.869c2.696-2.35,5.697-4.231,8.905-5.971c27.129-14.714,56.059-24.144,86.438-29.162
			c33.356-5.509,66.758-5.477,100.15-0.187c1.903,0.302,3.781,0.776,5.659,1.221c0.644,0.153,1.25,0.464,2.587,0.976
			C784.495,409.357,779.971,414.203,775.121,418.698z"/>
	</g>
</g>
</svg>
