<?xml version="1.0" encoding="UTF-8" standalone="no"?>
<!-- Created with Inkscape (http://www.inkscape.org/) -->

<svg
   xmlns:dc="http://purl.org/dc/elements/1.1/"
   xmlns:cc="http://creativecommons.org/ns#"
   xmlns:rdf="http://www.w3.org/1999/02/22-rdf-syntax-ns#"
   xmlns:svg="http://www.w3.org/2000/svg"
   xmlns="http://www.w3.org/2000/svg"
   xmlns:sodipodi="http://sodipodi.sourceforge.net/DTD/sodipodi-0.dtd"
   xmlns:inkscape="http://www.inkscape.org/namespaces/inkscape"
   width="534.16901"
   height="500"
   id="svg3071"
   version="1.1"
   inkscape:version="0.48.4 r9939"
   sodipodi:docname="Steel (Feruchemy).svg">
  <defs
     id="defs3073" />
  <sodipodi:namedview
     id="base"
     pagecolor="#ffffff"
     bordercolor="#666666"
     borderopacity="1.0"
     inkscape:pageopacity="0.0"
     inkscape:pageshadow="2"
     inkscape:zoom="0.35"
     inkscape:cx="543.13065"
     inkscape:cy="132.85714"
     inkscape:document-units="px"
     inkscape:current-layer="layer1"
     showgrid="false"
     fit-margin-top="0"
     fit-margin-left="0"
     fit-margin-right="0"
     fit-margin-bottom="0"
     inkscape:window-width="476"
     inkscape:window-height="406"
     inkscape:window-x="1104"
     inkscape:window-y="344"
     inkscape:window-maximized="0" />
  <metadata
     id="metadata3076">
    <rdf:RDF>
      <cc:Work
         rdf:about="">
        <dc:format>image/svg+xml</dc:format>
        <dc:type
           rdf:resource="http://purl.org/dc/dcmitype/StillImage" />
        <dc:title></dc:title>
      </cc:Work>
    </rdf:RDF>
  </metadata>
  <g
     inkscape:label="Layer 1"
     inkscape:groupmode="layer"
     id="layer1"
     transform="translate(168.13065,-50.933611)">
    <path
       id="Pewter"
       d="m 52.799453,161.37761 v 190.361 c 25.242,15.442 58.091997,30.615 58.091997,30.615 l -15.943097,20.503 c 0,0 -20.9589,-13.669 -42.146,-29.25 v 177.327 h -25.059 c 0,0 -4.285,-3.871 -11.393,-10.572 -22.4160001,-21.049 -72.811,-70.212 -104.793,-114.724 -59.092003,-82.238 -78.822003,-147.347 -79.688003,-150.267 2.006,3.373 66.201,111.583 110.441003,154.825 13.531,13.213 47.338,39.728 74.039,60.186 v -146.755 c -23.5120001,-24.33 -53.533,-80.875 -53.533,-80.875 0,0 27.5199999,34.261 53.533,59.916 V 50.933611 L 366.03835,550.93361 h -36.449 L 52.799453,161.37761 z"
       inkscape:connector-curvature="0" />
  </g>
</svg>
