<svg xmlns="http://www.w3.org/2000/svg" viewBox="0 0 1000 1000"><title>Cadmium</title><path d="M743.5,416.75H276c-30,0-54-7.91-54-34.07V370.8H203.62V519.35h18.45V507.46c0-26.16,24-36.39,54-36.39H743.5l66.86-26Z"/><path d="M500,541.69H425.72v18.45h11.89c26.16,0,36.39,24,36.39,54h0V734.5l26,66.86,28.32-66.86V614.12c0-30,7.91-54,34.07-54h11.89V541.69Z"/><circle cx="500" cy="250.42" r="34.08"/><path d="M309.2,647.1C357.61,708.6,426.47,737.27,499,737.85v0H501v0c72.56-.59,141.42-29.26,189.83-90.75,84.68-107.56,69-261.6-38.58-346.28H626.67V311c11.84,6.36,23.22,16.3,33.1,26.74,69.23,73.15,50.29,192.42-32.53,265.7C589.8,631.2,544.5,652,500,652.3c-44.5-.3-89.8-21.1-127.23-48.82C289.94,530.2,271,410.94,340.23,337.78c9.87-10.43,21.25-20.38,33.1-26.74V300.82H347.78C240.21,385.5,224.52,539.54,309.2,647.1Z"/></svg>