<?xml version="1.0" encoding="UTF-8" standalone="no"?>
<!-- Created with Inkscape (http://www.inkscape.org/) -->

<svg
   xmlns:dc="http://purl.org/dc/elements/1.1/"
   xmlns:cc="http://creativecommons.org/ns#"
   xmlns:rdf="http://www.w3.org/1999/02/22-rdf-syntax-ns#"
   xmlns:svg="http://www.w3.org/2000/svg"
   xmlns="http://www.w3.org/2000/svg"
   xmlns:sodipodi="http://sodipodi.sourceforge.net/DTD/sodipodi-0.dtd"
   xmlns:inkscape="http://www.inkscape.org/namespaces/inkscape"
   width="160"
   height="620"
   viewBox="0 0 160 620.00001"
   id="svg2"
   version="1.1"
   inkscape:version="0.91 r13725"
   sodipodi:docname="Thaylen script Winds.svg">
  <defs
     id="defs4" />
  <sodipodi:namedview
     id="base"
     pagecolor="#ffffff"
     bordercolor="#666666"
     borderopacity="1.0"
     inkscape:pageopacity="0.0"
     inkscape:pageshadow="2"
     inkscape:zoom="1.4"
     inkscape:cx="154.7106"
     inkscape:cy="532.97811"
     inkscape:document-units="px"
     inkscape:current-layer="layer1"
     showgrid="false"
     units="px"
     inkscape:window-width="785"
     inkscape:window-height="754"
     inkscape:window-x="125"
     inkscape:window-y="125"
     inkscape:window-maximized="0" />
  <metadata
     id="metadata7">
    <rdf:RDF>
      <cc:Work
         rdf:about="">
        <dc:format>image/svg+xml</dc:format>
        <dc:type
           rdf:resource="http://purl.org/dc/dcmitype/StillImage" />
        <dc:title></dc:title>
      </cc:Work>
    </rdf:RDF>
  </metadata>
  <g
     inkscape:label="Layer 1"
     inkscape:groupmode="layer"
     id="layer1"
     transform="translate(0,-432.36216)">
    <path
       style="fill:#000000"
       d="m 75.963929,1049.6771 c -6.476395,-0.6773 -11.775263,-2.3051 -11.775263,-3.617 0,-1.312 5.055701,-8.2918 11.23492,-15.5108 11.147563,-13.0234 11.401249,-13.1254 32.627184,-13.1254 l 21.39229,0 1.17174,-10.2053 c 0.64448,-5.6129 0.67625,-17.42296 0.0707,-26.24436 l -1.10118,-16.03917 -18.29227,0.33882 c -10.06072,0.18526 -19.18903,-0.55171 -20.285071,-1.64038 -1.096042,-1.08865 1.573175,-8.36671 5.931623,-16.17356 4.358448,-7.80653 14.426328,-29.52451 22.373068,-48.26162 15.45681,-36.44513 26.88481,-52.22838 33.22536,-45.88779 2.77601,2.77598 0.58374,9.90429 -9.13911,29.71646 -7.03514,14.33533 -13.76218,31.36331 -14.94893,37.8397 l -2.15773,11.77527 12.90974,0.39251 c 7.10035,0.21666 14.67602,0.57745 16.83482,0.80323 2.9929,0.314 3.7056,11.58622 3.00094,47.46687 -0.90432,46.04532 -1.10289,47.24292 -9.24173,55.73782 -13.00272,13.572 -32.67953,16.9394 -73.830997,12.6347 z M 61.083137,906.73638 c 0.04302,-59.77057 1.604073,-69.45204 13.041842,-80.8898 6.956542,-6.95652 12.481245,-9.26962 23.891883,-10.0031 l 14.842898,-0.95412 0.6097,-25.12055 c 0.33533,-13.81631 0.68859,-33.43193 0.78502,-43.59022 0.16234,-17.11815 1.02202,-19.26822 11.74634,-29.38254 17.41298,-16.42257 19.15208,-11.59059 18.66379,51.85659 l -0.40415,52.51686 -10.73079,13.3453 c -7.93272,9.86554 -12.98305,13.3453 -19.36861,13.3453 -18.309433,0 -18.571692,0.58706 -18.571692,41.57123 0,32.817 -0.858715,39.14863 -6.5608,48.3748 -6.846609,11.07816 -14.716567,16.81633 -23.063438,16.81633 -4.248579,0 -4.911855,-6.5056 -4.881993,-47.88608 z M 57.007169,789.39077 c -1.071455,-1.07143 3.185664,-9.90288 9.460246,-19.62544 6.274582,-9.72254 15.571451,-25.44904 20.659683,-34.94775 5.088264,-9.49872 12.657499,-23.41745 16.820542,-30.93052 l 7.56917,-13.66012 -30.729231,1.09984 -30.729229,1.09985 -0.862797,-51.02614 c -0.474558,-28.06438 -2.117632,-51.02615 -3.651305,-51.02615 -1.533673,0 -11.316594,9.53796 -21.739836,21.19548 -12.815066,14.33254 -19.9839095,20.16484 -22.1402585,18.01245 -2.8839032,-2.87861 6.4365473,-17.77776 22.5629425,-36.06785 2.284088,-2.59056 6.619551,-8.64063 9.634364,-13.44456 9.889808,-15.75892 35.517993,-40.98052 39.279138,-38.656 2.505681,1.5486 3.608349,19.84336 3.608349,59.86814 l 0,57.63807 24.335543,2.02327 c 13.38455,1.11278 26.45509,2.30469 29.04565,2.64868 6.39447,0.84904 7.81334,18.86881 2.33652,29.67373 -35.567066,70.16835 -64.526238,107.0583 -75.459491,96.12502 z M 91.241062,619.22041 c -0.990442,-1.60256 -1.933248,-39.84067 -2.095149,-84.97353 -0.291713,-81.33017 -0.229539,-82.14186 6.999624,-91.29416 4.052733,-5.1309 10.433573,-9.31162 14.359163,-9.40814 l 7.06516,-0.17365 -0.003,77.71673 c -0.002,68.61694 -0.69835,79.55509 -5.9451,93.41709 -4.07383,10.76316 -7.92959,16.00369 -12.261437,16.66495 -3.475365,0.53052 -7.129246,-0.34663 -8.119686,-1.9492 z"
       id="path3362"
       inkscape:connector-curvature="0" />
  </g>
</svg>
