<svg xmlns="http://www.w3.org/2000/svg" viewBox="0 0 1000 1000"><title>Bendalloy</title><path d="M657.88,648.19c-81.57,68.19-202.75,55.14-268-30.8-78.67-92.9-60.37-216,34.62-280.47,31.41-19.83,49.5-10,49.5,3.51l54.08-27.58-1.58-63.77c-15.74-3.26-31.9-7.1-47.8-4.87C443.37,249.14,360.95,271,310,335.75c-84.68,107.57-68.14,262.94,39.43,347.62s259.15,65.5,343.83-42.06V615.75H683C674.34,627.49,668.74,638.78,657.88,648.19Z"/><circle cx="592.19" cy="552.27" r="34.08"/><path d="M500,194.49H425.72v18.45h11.89c26.16,0,36.39,24,36.39,54h0V730.39l26,66.86,28.32-66.86V266.92c0-30,7.91-54,34.07-54h11.89V194.49Z"/><path d="M739.52,410.55H276c-30,0-54-7.91-54-34.07V364.59H203.62V513.15h18.45V501.25c0-26.16,24-36.39,54-36.39H739.52l66.86-26Z"/></svg>