<?xml version="1.0" encoding="UTF-8" standalone="no"?>
<!-- Created with Inkscape (http://www.inkscape.org/) -->

<svg
   xmlns:dc="http://purl.org/dc/elements/1.1/"
   xmlns:cc="http://creativecommons.org/ns#"
   xmlns:rdf="http://www.w3.org/1999/02/22-rdf-syntax-ns#"
   xmlns:svg="http://www.w3.org/2000/svg"
   xmlns="http://www.w3.org/2000/svg"
   version="1.1"
   width="446.17401"
   height="500"
   id="svg3071">
  <defs
     id="defs3073" />
  <metadata
     id="metadata3076">
    <rdf:RDF>
      <cc:Work
         rdf:about="">
        <dc:format>image/svg+xml</dc:format>
        <dc:type
           rdf:resource="http://purl.org/dc/dcmitype/StillImage" />
        <dc:title></dc:title>
      </cc:Work>
    </rdf:RDF>
  </metadata>
  <g
     transform="translate(344.75766,491.2091)"
     id="layer1">
    <path
       d="m -216.31066,-387.6241 v 112.989 c 24.701,12.189 58.764,27.449 58.764,27.449 l -13.943,18.924 c 0,0 -20.361,-8.446 -44.82,-22.11 v 84.898 c 39.801,15.22 96.613,30.838 96.613,30.838 l -13.945,27.888 c 0,0 -26.453,-5.299 -82.667,-34.623 V -29.058102 H -92.803663 V 8.7908981 H -246.19166 V -157.9001 c -66.057,-39.405 -97.488,-84.743 -98.566,-86.334 1.832,1.354 58.885,43.703 98.566,65.336 v -89.918 c -33.627,-23.388 -74.383,-78.206 -75.658,-79.923 1.514,1.275 44.545,37.095 75.658,57.492 v -199.962 L 101.41634,8.7898981 H 63.045337 L -216.31066,-387.6241 z"
       id="Zinc" />
  </g>
</svg>
