<?xml version="1.0" encoding="utf-8"?>
<!-- Generator: Adobe Illustrator 14.0.0, SVG Export Plug-In . SVG Version: 6.00 Build 43363)  -->
<!DOCTYPE svg PUBLIC "-//W3C//DTD SVG 1.1//EN" "http://www.w3.org/Graphics/SVG/1.1/DTD/svg11.dtd">
<svg version="1.1" id="Layer_1" xmlns="http://www.w3.org/2000/svg" xmlns:xlink="http://www.w3.org/1999/xlink" x="0px" y="0px"
	 width="750px" height="800px" viewBox="0 0 750 800" enable-background="new 0 0 750 800" xml:space="preserve">
<g>
	<path fill-rule="evenodd" clip-rule="evenodd" d="M615.635,22.879c22.963,11.528,24.537,55.552,64.451,42.584
		c10.609,33.126,21.184,66.286,35.679,95.527c1.587,22.086,7.29,40.19,20.717,52.942c-0.094,10.065-3.033,10.997,0,19.566
		c-10.232,20.844-0.682,41.833,0,66.753c-11.565,31.786-23.725,62.978-41.435,88.621c-0.137,3.315,0.629,7.535-1.15,9.208
		c-6.12,5.08-15.579,5.125-23.019,9.206c-3.207,1.763-5.623,6.399-9.206,8.059c-4.39,2.031-9.549,0.16-13.811,1.149
		c-11.421,2.652-18.607,9.615-27.623,14.963c1.359,25.507-20.789,35.9-41.433,32.226c-5.729-6.166-8.698-15.088-17.265-18.415
		c-20.819,8.709-24.206-14.18-42.583-14.962c-13.411-24.82-39.213-30.315-57.547-49.489c1.521-28.375-10.54-43.169-24.169-56.396
		c5.307-11.573,7.901-25.858,11.51-39.131c5.301-3.335,11.478-11.273,17.263-10.359c3.088-13.026,14.273-17.952,20.717-27.622
		c1.063-6.812-3.238-10.464-1.15-14.961c40.954,2.554,89.008,13.357,107.035,43.734c-4.941,1.424-8.474-4.481-11.509-1.151
		c-6.202-6.438-25.496-12.995-37.98-14.962c-30.122-4.747-35.008,28.333-44.887,47.188c11.276,47.829,90.042,60.139,134.657,40.283
		c14.835-15.509,36.968-30.632,28.774-55.244c-4.348-13.059-11.95-18.212-13.811-37.98c-1.827-19.403-15.647-31.107-2.303-44.886
		c-30.37-12.466-51.607-36.214-75.961-57.546c-14.797-5.273-46.498-3.286-58.696-14.962c0.411-9.827-13.501-27.741-19.566-28.773
		c-8.792-1.495-14.024,7.81-24.169,8.057c-13.268-4.667-31.219-9.821-46.036-9.207c-3.788,6.186-2.733,17.216-8.057,21.867
		c-5.79,0.802-8.022-1.953-13.812-1.151c-4.384,0.988-3.078,7.664-5.755,10.359c-13.953,7.979-33.966,21.865-50.641,33.376
		c-10.541,7.277-18.894,13.134-31.075,2.302c-10.104,3.707-19.196,8.426-21.867,19.565c-3.157-5.417,1.368-13.105,6.905-19.565
		c3.453-4.028,8.113-4.555,9.208-9.207c1.123-4.777-1.764-15.583-3.453-19.566c-2.686-6.334-8.888-10.849-13.811-13.811
		c-5.362,2.694-4.615,11.498-4.604,19.565c-8.559,8.321-21.55,12.21-33.376,17.264c-8.739,4.689-5.016,21.84-10.359,29.924
		c-12.519,3.647-21.624,7.591-34.527,12.66c-5.083,17.936-16.279,29.758-24.169,44.886c-2.535,1.685-4.943,3.497-9.208,3.452
		c2.019,7.436-2.159,14.944,2.302,20.717c-24.673,35.086-11.063,122.309,3.453,161.129c8.911,15.523,26.572,27.541,26.471,48.339
		c15.991,18.152,32.364,35.925,57.546,44.886c8.176,11.389,27.07,12.061,33.376,25.321c10.696-1.489,11.902,6.512,20.717,6.904
		c9.174,23.053,39.962,24.488,59.848,36.829c28.224-3.571,44.312,8.227,66.753,11.509c5.388,0.79,12.273-0.553,18.415,0
		c9.709,0.876,18.521,4.559,26.471,3.454c9.729-1.353,21.462-9.792,32.227-14.963c12.94-6.216,35.321-20.249,42.583-4.604
		c-19.19,24.543-36.712,50.757-56.395,74.811c-22.582,15.381-43.771,25.18-56.395,50.641c-25.18,6.993-38.317,31.864-58.697,36.829
		c-11.959,20.653-34.909-0.453-51.792,2.302c-16.855,2.75-36.648,45.066-67.904,25.32c-0.46-10.585,6.629-19.256,3.453-28.772
		c-14.825-2.029-34.905-0.682-39.131-16.113c-29.856-10.385-61.269-20.176-94.376-24.17c-4.941,0.045-4.872,5.103-10.358,4.604
		c-12.267-5.285-25.865-21.483-39.131-27.623c-12.905-5.971-30.366-11.04-32.226-28.771c21.383-1.051,28.191,12.474,47.188,13.811
		c8.554,9.663,21.513,9.014,39.131,12.659c11.59,2.398,23.642,7.922,33.376,8.058c23.788,0.331,48.721-4.604,72.508-4.604
		c17.482,0,35.172,8.366,51.791,8.057c27.651-0.517,45.657-16.943,63.301-28.773c12.619-2.57,22.37,6.011,33.376,4.604
		c5.108-0.653,22.402-7.247,28.773-10.359c14.877-7.268,29.67-20.706,36.829-32.226c-35.268-1.839-69.368,0.553-103.583-6.905
		c-11.756-2.562-16.58-1.511-29.924,0c-12.054,1.364-29.383,1.569-41.433,0c-10.691-1.394-21.738-5.574-31.075-4.603
		c-5.513,0.572-11.344,5.029-17.265,4.603c-3.57-0.258-6.24-4.015-11.509-5.755c-12.8-4.227-33.1-0.338-43.735-3.453
		c-5.791-1.695-13.299-7.355-23.019-6.904c-5.99-14.345-16.417-24.25-26.471-34.527c-12.759,9.464-46.227-0.288-50.641-11.51
		c-5.536-14.075,11.683-18.914,19.566-27.623c-0.709-10.365-14.286-11.033-17.264-21.867c-1.097-3.989,1.292-8.721,0-13.812
		c-0.837-3.293-3.905-4.948-5.754-9.206c-2.885-6.641-2.872-15.793-5.755-20.717c-1.354-2.313-17.495-24.291-20.716-24.17
		c-8.801,0.331-4.355,10.596-10.359,14.963c-9.479-4.716-18.729-9.66-20.717-21.868c1.712-4.427,8.67-3.607,10.359-8.056
		c-0.758-5.848-4.905-6.961-6.905-11.51c-2.983-6.782-1.338-14.479-3.454-21.867c-4.09-14.287-19.1-28.563-12.66-47.188
		c18.547,3.704,19.653,24.849,31.075,35.679c0.765,5.757,3.482,9.562,5.755,13.811c12.441,10.193,20.071,25.198,29.923,37.979
		c23.367,6.558,31.253,28.595,54.093,35.679c18.049,19.933,24.719,51.242,58.697,55.245c-4.624-11.873-12.042-20.95-20.717-28.774
		c-16.452-26.131-30.539-54.628-44.885-82.865c-4.502-13.757-4.765-22.66-5.755-40.283c-0.96-17.09-16.366-29.576-14.961-41.433
		c0.583-4.924,6.191-7.899,8.056-12.66c6.746-17.226-1.066-43.007,10.358-58.697c-2.348-9.161-5.531-17.487-10.358-24.169
		c13.319-15.101,26.198-26.44,29.924-48.339c1.284-7.55-1.586-15.866,0-24.169c1.396-7.307,17.443-32.308,23.019-40.282
		c2.871-4.108,9.037-6.974,12.66-11.51c7.611-9.526,16.587-23.423,26.471-31.075c4.234-3.277,10.246-5.554,14.962-9.208
		c9.915-7.681,20.147-13.664,32.226-20.716c6.095-3.56,10.227-9.118,14.962-11.51c3.452-1.743,9.111-1.469,12.661-3.452
		c8.442-4.72,24.291-13.487,36.829-17.264c1.697-0.512,5.107,0.628,6.906,0c8.522-2.977,23.661-10.223,33.376-11.509
		c19.499-2.583,37.871-2.524,57.545-5.755c37.3-6.125,76.677-0.664,117.395,1.151C552.34,26.309,591.897,29.71,615.635,22.879z
		 M40.174,445.267c2.035,1.034,3.36,2.779,5.755,3.452c5.654-1.99,5.612-11.599,0-13.811
		C43.065,437.416,39.435,439.156,40.174,445.267z"/>
	<path fill-rule="evenodd" clip-rule="evenodd" d="M195.548,404.984c5.972,4.004,7.757,12.192,13.812,16.113
		c5.559,32.422,26.55,49.409,39.131,74.811c-20.826,5.381-29.01-20.512-42.583-29.925
		C211.469,442.17,185.288,426.146,195.548,404.984z"/>
	<path fill-rule="evenodd" clip-rule="evenodd" d="M288.773,495.908c-7.099,3.605-12.977,2.08-19.565-1.152
		C267.046,478.701,291.641,478.867,288.773,495.908z"/>
	<path fill-rule="evenodd" clip-rule="evenodd" d="M650.162,548.85c-1.334,9.791-13.348,8.903-20.716,12.66
		c-0.931-4.057-2.669-7.307-4.604-10.358C627.413,544.194,646,540.483,650.162,548.85z"/>
	<path fill-rule="evenodd" clip-rule="evenodd" d="M613.333,585.68c-6.865,0.68-20.661,1.56-19.565-9.208
		C600.469,572.002,617.258,572.404,613.333,585.68z"/>
	<path fill-rule="evenodd" clip-rule="evenodd" d="M162.172,726.092c5.863,5.439,2.932,16.859-1.15,21.867
		c-7.024-4.487-13.894-9.125-23.019-11.509C140.042,726.98,150.7,726.128,162.172,726.092z"/>
</g>
</svg>
