<svg xmlns="http://www.w3.org/2000/svg" viewBox="0 0 1000 1000"><title>Bronze</title><path d="M412.62,719.4c72.68,29,146.65,19.42,209.77-16.36v0l.83-.5.85-.47v0c62.54-36.8,107.83-96.07,119-173.53C762.59,393,672,267.5,536.46,248l-22.13,12.78,5.11,8.85c13.44-.42,28.26,2.5,42,6.6C658,304.92,701.27,417.67,666.2,522.56c-18.55,42.73-47.37,83.4-85.76,105.91-38.69,22-88.31,26.64-134.59,21.36C337.47,627.8,261.42,534,284.78,436c3.33-14,8.21-28.28,15.29-39.71L295,387.47l-22.13,12.78C222,527.37,285.5,668.61,412.62,719.4Z"/><path d="M610.16,749.61l-10.3,5.95c-22.65,13.08-43.5-2.55-58.51-28.55l-.23.13L366.56,424.93l-56-44.89,8.92,72.06,176.8,306.08.17-.1c13.28,24.54,16.84,47.46-4.67,59.89l-10.3,5.95,9.23,16,64.32-37.15,64.32-37.15Z"/><path d="M711.8,690.78l-10.3,5.95c-22.65,13.08-43.5-2.55-58.51-28.55l-.23.13L468.2,366.1l-56-44.89,8.92,72.06L598,699.35l.17-.1c13.28,24.54,16.84,47.46-4.67,59.89l-10.3,5.95,9.23,16,64.32-37.15L721,706.75Z"/><circle cx="585.74" cy="459.47" r="34.08" transform="translate(-151.28 354.57) rotate(-30.01)"/></svg>