<?xml version="1.0" encoding="utf-8"?>
<!-- Generator: Adobe Illustrator 14.0.0, SVG Export Plug-In . SVG Version: 6.00 Build 43363)  -->
<!DOCTYPE svg PUBLIC "-//W3C//DTD SVG 1.1//EN" "http://www.w3.org/Graphics/SVG/1.1/DTD/svg11.dtd">
<svg version="1.1" id="Layer_1" xmlns="http://www.w3.org/2000/svg" xmlns:xlink="http://www.w3.org/1999/xlink" x="0px" y="0px"
	 width="684px" height="800px" viewBox="0 0 684 800" enable-background="new 0 0 684 800" xml:space="preserve">
<g>
	<path fill-rule="evenodd" clip-rule="evenodd" d="M326.118,7.032c2.568,4.341,1.883,5.709,0,10.476
		c2.837,10.375,11.975,6.237,19.789,8.148c21.415,5.238,27.384,33.86,55.872,31.429c1.805,2.075,3.2,4.56,4.657,6.984
		c13.339-12.33,33.741,8.628,46.56-4.656c-0.09-8.447-6.87-10.202-12.804-12.804c-0.802-4.681,1.115-6.645,1.164-10.476
		c10.443-3.553,14.505,6.465,26.771,4.657c22.607,22.17,0.782,54.543-17.46,66.348c-17.796,4.958-38.297,13.623-61.691,13.969
		c-21.61,0.319-47.896-8.303-68.677-11.64c-17.302-2.779-28.88,2.618-50.053,5.82c-15.215,2.3-31.006,5.276-44.232,11.64
		c-19.338,9.304-26.009,24.631-36.085,45.396c-16.576,7.092-17.778,29.559-39.576,31.429c5.412,23.017-0.245,50.545-5.82,69.841
		c2.662,8.978,16.242,7.038,16.296,18.624c5.793,1.895,6.933-4.365,10.477-1.164c5.738,4.661-2.054,16.54,2.328,23.28
		c1.354-0.189,2.071,0.257,2.328,1.164c10.504-2.688,18.967-7.417,27.937-11.641c14.176,5.967,5.189,21.647,6.983,34.921
		c8.764,0.638,18.438,4.954,25.609,3.493c16.737,23.038,45.573,0.33,60.529-9.312c-2.49-2.942-1.617-9.248-3.492-12.805
		c-0.501-2.603-5.737-0.471-8.148-1.164c0.175-9.138,1.985-16.639,8.148-19.789c3.342,5.375,5.732,11.211,2.328,17.46
		c3.303-0.199,2.271,3.936,6.984,2.328c4.363-4.548-6.415-5.652-2.329-10.477c3.026,0.466,3.511,3.474,6.985,3.492
		c0-3.88,0-7.759,0-11.64c8.562-3.475,11.602-7.618,12.804-19.787c16.838-3.338,5.94-34.412,20.953-39.577
		c18.905,18.188-3.213,44.925-3.492,71.004c-14.546,23.091-31.497,43.777-50.053,62.857c-18.118,0.292-36.227,19.397-53.545,22.117
		c-12.069,1.895-27.018-6.038-40.74-8.148c-17.468-2.687-31.377-11.029-47.725-13.968c4.834,13.014,3.67,32.026,10.476,43.069
		c18.433-5.478,29.19,7.512,39.577,12.803c9.823,5.007,22,7.196,31.428,12.806c8.928,5.311,15.529,12.58,25.609,13.968
		c-1.744,7.54,4.142,9.822,3.492,15.133c-1.714,14-26.518,17.443-29.101,32.593c1.797,4.023,2.042,9.597,6.984,10.476
		c5.923,0.879,3.603-6.485,8.148-6.984c21.583,0.27,27.828,31.617,50.053,13.968c17.091,12.011,38.344,19.857,55.873,31.43
		c6.467-1.317,12.638-0.785,18.624,1.163c4.482,0.174,2.833,6.479,5.82,8.148c9.199-6.751,23.655-4.94,37.249-6.985
		c21.364-3.212,45.509-12.735,66.348-20.95c13.486-5.318,27.006-14.035,39.577-23.281c13.319-9.797,22.145-14.638,26.772-29.102
		c4.325-0.718,7.314-2.772,11.641-3.49c9.923-7.149,13.26-20.886,23.28-27.938c9.162-29.249,23.334-53.49,36.084-79.153
		c10.736-6.687,23.02-22.763,24.444-39.576c0.359-4.254-1.862-8.096-2.328-12.805c-3.546-35.847,12.148-82.636,1.163-117.565
		c41.898,35.913,32.67,151.443,4.656,195.554c1.762,12.168-5.148,24.881-8.147,36.085c-13.026,21.41-29.503,42.419-47.725,61.693
		c-14.396,15.226-30.543,30.588-47.725,45.396c-12.704,10.95-28,24.512-41.904,31.428c-7.108,3.538-15.385,3.887-22.117,8.149
		c-5.367,3.397-9.147,9.372-13.968,13.969c-18.98-6.486-28.559,4.852-52.38,2.327c4.05,11.083,8.175,22.089,16.296,29.102
		c1.518,9.829,3.568,19.023,6.984,26.771c2.035,4.615,6.014,6.718,5.82,11.64c-0.24,6.05-8.256,12.139-10.477,18.625
		c-2.96,8.645-0.564,14.805-5.821,22.116c15.337,19.65,9.896,75.308-22.114,68.676c-1.913-23.069-28.877-14.096-32.594,1.165
		c-23.593-8.917-51.956,1.578-77.989-3.492c-2.751,4.62-2.719,12.025-9.312,12.805c-1.111,5.379,7.57,0.965,6.984,5.82
		c-4.152,8.27-20.403,4.004-24.444-1.164c-1.41-7.23,5.004-6.637,4.656-12.805c-1.414-3.632-6.162-3.927-9.312-5.82
		c-4.751-0.15-2.27,5.121-3.492,5.82c-13.643-1.398-22.454-13.691-32.592-22.117c-10.578-8.79-25.074-17.734-22.117-38.411
		c18.417,2.146,22.069,19.059,34.92,26.771c11.182,3.831,24.361,3.558,36.085,5.82c13.377,2.581,16,4.824,27.936,0
		c13.94-5.635,27.996-8.044,36.085-22.116c17.996-5.23,36.377-23.553,24.444-50.053c-3.135-6.961-9.741-9.782-10.478-17.46
		c-1.3-13.591,15.605-23.133,6.985-32.592c-3.152-3.461-3.102-2.172-4.656-9.312c-4.155-19.096-24.03-8.897-34.921-2.329
		c-19.838-1.25-43.88-4.624-59.365-9.312c-21.642-6.552-41.286-15.001-59.364-26.772c-5.262-3.426-8.352-4.773-15.133-8.147
		c-9.81-4.882-16.219-15.527-24.444-20.953c-1.829-1.206-5.203-0.936-6.985-2.328c-24.061-18.791-49.297-51.577-68.676-80.317
		c-7.303-10.83-12.56-20.961-16.296-32.592c-6.25-19.45-22.423-41.861-25.608-64.02c-1.281-8.91,2.285-19.462,1.164-26.773
		c-0.862-5.619-6.033-10.031-8.148-15.132c-5.144-12.405-7.511-26.741-15.132-37.249c12.563-15.115,26.408-39.211,6.984-55.873
		c9.46-13.18,23.214-23.919,34.92-37.248c6.785-7.725,10.973-17.435,17.46-25.609c10.235-12.893,26.922-19.289,29.101-39.577
		c16.241-15.187,42.388-20.468,52.38-41.904c29.218-16.073,56.319-20.722,77.989-43.068c12.968-2.92,33.87,2.916,45.396-3.492
		c8.973-4.988,9.298-16.186,11.64-27.937C300.137,10.293,314.755,5.704,326.118,7.032z"/>
	<path fill-rule="evenodd" clip-rule="evenodd" d="M574.054,105.973c-3.983,1.099-7.211,3.646-11.64,1.164
		c-2.568-3.526-3.334-11.463-2.328-15.132C568.824,83.556,577.16,95.943,574.054,105.973z"/>
	<path fill-rule="evenodd" clip-rule="evenodd" d="M600.825,122.269c-0.415,3.465-1.853,5.906-3.491,8.148
		c-6.69-0.293-10.39-3.577-12.805-8.148C588.306,120.157,597.754,118.232,600.825,122.269z"/>
	<path fill-rule="evenodd" clip-rule="evenodd" d="M622.942,153.697c2.581-0.641,1.658,2.224,3.493,2.328
		c0.557,3.662-1.659,4.551-2.329,6.984c-3.69-1.168-10.055,1.003-10.476-5.82C615.919,155.209,620.83,155.851,622.942,153.697z"/>
	<path fill-rule="evenodd" clip-rule="evenodd" d="M549.61,402.796c3.624,5.954,2.393,16.853-3.493,19.788
		c-6.355-0.628-5.446-8.521-8.147-12.804C540.574,406.176,542.214,401.609,549.61,402.796z"/>
	<path fill-rule="evenodd" clip-rule="evenodd" d="M553.103,430.731c1.938,0,3.88,0,5.819,0
		c4.12,25.849-13.673,29.784-18.625,46.562c-23.408,4.526-31.728,24.145-54.708,29.101c1.795-9.071,8.097-13.633,11.641-20.953
		c22.631-10.737,36.637-30.099,54.708-45.396c-0.476-2.805,2.127-2.529,1.165-5.82C553.103,433.062,553.103,431.897,553.103,430.731
		z"/>
</g>
</svg>
