<svg xmlns="http://www.w3.org/2000/svg" viewBox="0 0 1000 1000"><title>Unknown4096</title><path d="M462.63,204.58l0,11.05c-.08,31.79,23.89,29.77,53.91,29.85l-.09,36.92-.08,32.17c-35.28-.09-54,1.22-54.1,46.11l0,11.05-18.45,0,.22-89.47.19-77.68Z"/><path d="M345.47,648.22c81.4,68.39,202.61,55.65,268.07-30.13,78.91-92.7,60.91-215.83-33.92-280.56-36-21.81-33.65-22.83-135.56-22l-.16.05.17-66.26a235.6,235.6,0,0,1,47.82-4.75c82.31.21,153.47,26.74,204.26,91.59,84.41,107.78,65.47,263.58-42.31,348S394.52,749,310.11,641.25l.06-25.55,10.22,0C329.06,627.49,334.63,638.79,345.47,648.22Z"/><circle cx="443.76" cy="488.57" r="34.08" transform="translate(-45.92 931.11) rotate(-89.86)"/><path d="M443.76,583.69H369.48v18.45h11.89c26.16,0,36.39,24,36.39,54h0V741.5l26,66.86,28.32-66.86V656.12h0c0-30,7.91-54,34.07-54H518V583.69Z"/></svg>