<svg xmlns="http://www.w3.org/2000/svg" viewBox="0 0 1000 1000"><title>Zinc</title><circle cx="623.86" cy="276.02" r="34.08" transform="translate(-52.4 365.81) rotate(-31.43)"/><path d="M257.47,529.66c11.24,77.45,56.59,136.68,119.16,173.42v0l.85.47.83.49v0c63.16,35.72,137.14,45.27,209.79,16.16C715.18,669.29,778.5,528,727.58,400.92l-22.14-12.76-5.1,8.86c7.09,11.42,12,25.72,15.33,39.69,23.46,98-52.5,191.83-160.86,214-46.28,5.33-95.91.73-134.62-21.23-38.41-22.48-67.27-63.12-85.86-105.83-35.18-104.85,8-217.64,104.48-246.45,13.77-4.11,28.59-7,42-6.64l5.1-8.86L463.8,248.9C328.32,268.56,237.82,394.19,257.47,529.66Z"/><path d="M653.09,358,588.74,320.9l-9.21,16,10.3,5.94c22.66,13.06,19.56,38.93,4.57,64.94L417.91,714,407,784.93,465,741.14,641.46,434.88c15-26,33.81-42.82,56.47-29.76,5.77,3.33,9.73,6.71,12.4,13.33l7.12-23.38Z"/><path d="M538.29,291.83l-64.36-37.09L461.6,271.88c6.57-.38,7.66,1.46,13.43,4.78,22.66,13.06,19.56,38.93,4.57,64.94h0L303.11,647.86l-10.86,70.91L350.17,675,526.66,368.72c15-26,33.81-42.82,56.47-29.76l10.3,5.94,9.21-16Z"/></svg>