<?xml version="1.0" encoding="UTF-8" standalone="no"?>
<!-- Created with Inkscape (http://www.inkscape.org/) -->

<svg
   xmlns:dc="http://purl.org/dc/elements/1.1/"
   xmlns:cc="http://creativecommons.org/ns#"
   xmlns:rdf="http://www.w3.org/1999/02/22-rdf-syntax-ns#"
   xmlns:svg="http://www.w3.org/2000/svg"
   xmlns="http://www.w3.org/2000/svg"
   xmlns:sodipodi="http://sodipodi.sourceforge.net/DTD/sodipodi-0.dtd"
   xmlns:inkscape="http://www.inkscape.org/namespaces/inkscape"
   width="20.360292mm"
   height="23.979731mm"
   viewBox="0 0 20.360292 23.97973"
   version="1.1"
   id="svg8"
   inkscape:version="0.92.3 (2405546, 2018-03-11)"
   sodipodi:docname="cg.svg">
  <defs
     id="defs2" />
  <sodipodi:namedview
     id="base"
     pagecolor="#ffffff"
     bordercolor="#666666"
     borderopacity="1.0"
     inkscape:pageopacity="0.0"
     inkscape:pageshadow="2"
     inkscape:zoom="0.98994949"
     inkscape:cx="82.369028"
     inkscape:cy="29.803909"
     inkscape:document-units="mm"
     inkscape:current-layer="layer1"
     showgrid="false"
     inkscape:window-width="454"
     inkscape:window-height="405"
     inkscape:window-x="3335"
     inkscape:window-y="502"
     inkscape:window-maximized="0" />
  <metadata
     id="metadata5">
    <rdf:RDF>
      <cc:Work
         rdf:about="">
        <dc:format>image/svg+xml</dc:format>
        <dc:type
           rdf:resource="http://purl.org/dc/dcmitype/StillImage" />
        <dc:title></dc:title>
      </cc:Work>
    </rdf:RDF>
  </metadata>
  <g
     inkscape:label="Layer 1"
     inkscape:groupmode="layer"
     id="layer1"
     transform="translate(-92.520918,-32.077761)">
    <path
       style="fill:#000000;stroke-width:0.26458335"
       d="m 102.49589,55.913951 c -0.11628,-0.215402 -0.30351,-4.211463 -0.31632,-6.75119 -0.005,-0.909131 -0.12277,-1.521355 -0.29369,-1.521355 -0.54039,0 -0.98645,-1.204784 -0.66703,-1.801616 0.71669,-1.339149 -0.01,-3.242135 -2.082474,-5.455012 -1.323087,-1.412575 -2.045226,-2.532955 -1.632612,-2.532955 0.134902,0 0.858105,0.550986 1.607118,1.224413 1.350878,1.214559 1.880508,1.385821 1.397488,0.451893 -0.44266,-0.855881 -0.629846,-2.5156 -0.3644,-3.231076 0.14165,-0.381804 0.40346,-1.259735 0.58181,-1.950959 0.17834,-0.691224 0.47448,-1.256771 0.65807,-1.256771 0.68786,0 0.67544,1.332933 -0.0319,3.42185 l -0.70327,2.076895 0.56317,1.667627 c 0.66812,1.978405 0.69442,2.267769 0.16629,1.829461 -0.55516,-0.460746 -0.49426,-0.08775 0.15799,0.967615 0.32439,0.524885 0.6144,1.554392 0.6982,2.478626 0.19163,2.113276 0.74183,2.113276 0.93345,0 0.0838,-0.924234 0.37381,-1.953741 0.69821,-2.478626 0.65225,-1.055364 0.71315,-1.428361 0.15799,-0.967615 -0.52813,0.438308 -0.50183,0.148944 0.16629,-1.829461 l 0.56316,-1.667627 -0.70326,-2.076895 c -0.70734,-2.088917 -0.71976,-3.42185 -0.0319,-3.42185 0.18359,0 0.47972,0.565547 0.65807,1.256771 0.17834,0.691224 0.44016,1.569155 0.58181,1.950959 0.26544,0.715476 0.0783,2.375195 -0.3644,3.231076 -0.48303,0.933928 0.0466,0.762666 1.39749,-0.451893 0.74901,-0.673427 1.47221,-1.224413 1.60711,-1.224413 0.41262,0 -0.30952,1.12038 -1.63261,2.532955 -2.07269,2.212877 -2.79916,4.115863 -2.08247,5.455012 0.31942,0.596832 -0.12664,1.801616 -0.66703,1.801616 -0.17066,0 -0.29001,0.613599 -0.29592,1.521355 -0.0329,5.056735 -0.29926,7.538834 -0.72444,6.75119 z m -3.102118,-7.693488 c 0,-0.309606 1.032548,-1.372807 1.333218,-1.372807 0.36556,0 0.31417,0.325923 -0.1576,0.999462 -0.39716,0.567029 -1.175618,0.814246 -1.175618,0.373345 z m 5.438958,-0.373345 c -0.47176,-0.673539 -0.52316,-0.999462 -0.1576,-0.999462 0.30068,0 1.33322,1.063201 1.33322,1.372807 0,0.440901 -0.77846,0.193684 -1.17562,-0.373345 z M 95.425022,47.10865 c 0,-0.698864 1.772747,-2.987089 2.138872,-2.760812 0.113197,0.06996 0.27369,0.01737 0.356651,-0.11686 0.231434,-0.374468 1.179186,-0.02837 1.611159,0.588357 0.255069,0.364161 0.475366,0.462524 0.648386,0.289504 0.44177,-0.441776 -0.559731,-2.047151 -1.636928,-2.623931 -0.980823,-0.525177 -0.983715,-0.525177 -1.36743,-4.23e-4 -0.579917,0.793083 -0.745768,0.347686 -0.319945,-0.859223 0.472943,-1.340464 0.245515,-1.724322 -1.842946,-3.110563 -2.349825,-1.559726 -2.928561,-3.001653 -2.191772,-5.460833 0.442584,-1.477215 0.670324,-1.25763 0.541583,0.522194 -0.145549,2.012198 0.355975,2.977949 2.141208,4.123173 2.058496,1.320523 2.372991,1.7559 2.14559,2.970294 -0.166521,0.88928 -0.140054,0.976749 0.208268,0.688274 0.328976,-0.272454 0.590078,-0.19208 1.487217,0.457804 0.598502,0.433553 1.265395,1.130966 1.481985,1.549807 0.37477,0.724712 0.35284,0.820775 -0.45353,1.98697 -0.925666,1.338745 -1.244202,1.516891 -1.244202,0.695852 0,-0.318858 -0.277059,-0.661076 -0.686091,-0.847443 -0.935263,-0.426135 -1.991738,0.175586 -2.320411,1.321604 -0.228269,0.795928 -0.697664,1.190366 -0.697664,0.586255 z m 13.854418,-0.586255 c -0.32867,-1.146018 -1.38515,-1.747739 -2.32041,-1.321604 -0.40903,0.186367 -0.68609,0.528585 -0.68609,0.847443 0,0.821039 -0.31854,0.642893 -1.24421,-0.695845 -0.80636,-1.166195 -0.82829,-1.262257 -0.45353,-1.986969 0.21659,-0.418842 0.88349,-1.116255 1.48199,-1.549807 0.89714,-0.649885 1.15824,-0.730259 1.48722,-0.457805 0.34832,0.288475 0.37479,0.201006 0.20827,-0.688273 -0.2274,-1.214395 0.0871,-1.649772 2.14559,-2.970294 1.78523,-1.145225 2.28675,-2.110975 2.1412,-4.123174 -0.12874,-1.779823 0.099,-1.999409 0.54159,-0.522193 0.73679,2.45918 0.15805,3.901107 -2.19178,5.460833 -2.08846,1.386241 -2.31588,1.770098 -1.84294,3.110562 0.42582,1.206909 0.25997,1.652306 -0.31995,0.859223 -0.38371,-0.524761 -0.3866,-0.524761 -1.36743,4.24e-4 -1.07719,0.576779 -2.0787,2.182155 -1.63692,2.62393 0.17302,0.17302 0.39331,0.07466 0.64838,-0.289504 0.43198,-0.616729 1.37973,-0.962825 1.61116,-0.588357 0.083,0.134233 0.24345,0.186821 0.35665,0.116861 0.36613,-0.226285 2.13887,2.06194 2.13887,2.760804 0,0.604111 -0.46939,0.209673 -0.69766,-0.586255 z"
       id="path53"
       inkscape:connector-curvature="0" />
  </g>
</svg>
