<?xml version="1.0" encoding="UTF-8" standalone="no"?>
<svg
   xmlns:dc="http://purl.org/dc/elements/1.1/"
   xmlns:cc="http://creativecommons.org/ns#"
   xmlns:rdf="http://www.w3.org/1999/02/22-rdf-syntax-ns#"
   xmlns:svg="http://www.w3.org/2000/svg"
   xmlns="http://www.w3.org/2000/svg"
   xmlns:sodipodi="http://sodipodi.sourceforge.net/DTD/sodipodi-0.dtd"
   xmlns:inkscape="http://www.inkscape.org/namespaces/inkscape"
   width="174mm"
   height="172mm"
   viewBox="0 0 174 172"
   version="1.1"
   id="svg34486"
   inkscape:version="1.0.2 (e86c8708, 2021-01-15)"
   sodipodi:docname="Aon Are.svg">
  <defs
     id="defs34480" />
  <sodipodi:namedview
     id="base"
     pagecolor="#ffffff"
     bordercolor="#666666"
     borderopacity="1.0"
     inkscape:pageopacity="0.0"
     inkscape:pageshadow="2"
     inkscape:zoom="0.7327449"
     inkscape:cx="763.45787"
     inkscape:cy="437.57043"
     inkscape:document-units="mm"
     inkscape:current-layer="layer1"
     inkscape:document-rotation="0"
     showgrid="false"
     inkscape:pagecheckerboard="true"
     showborder="false"
     inkscape:window-width="1252"
     inkscape:window-height="827"
     inkscape:window-x="4"
     inkscape:window-y="23"
     inkscape:window-maximized="0" />
  <metadata
     id="metadata34483">
    <rdf:RDF>
      <cc:Work
         rdf:about="">
        <dc:format>image/svg+xml</dc:format>
        <dc:type
           rdf:resource="http://purl.org/dc/dcmitype/StillImage" />
        <dc:title></dc:title>
      </cc:Work>
    </rdf:RDF>
  </metadata>
  <g
     inkscape:label="Layer 1"
     inkscape:groupmode="layer"
     id="layer1"
     transform="translate(55.024015,25.797973)">
    <path
       style="fill:#000000;stroke-width:1.0289"
       d="m 94.674564,144.43477 c -7.321595,-3.59235 -11.788464,-13.48662 -9.533361,-21.11682 4.183345,-14.1546 21.824697,-17.81405 30.608107,-6.34924 3.91865,5.11496 4.36149,16.8978 0.81448,21.6703 -5.34505,7.19178 -14.24259,9.5476 -21.889226,5.79576 z m 16.285676,-3.39228 c 3.98167,-2.12173 7.24503,-7.66661 7.24503,-12.31024 0,-16.2381 -22.383766,-20.72106 -29.740402,-5.95634 -6.896651,13.84153 8.039338,25.96979 22.495372,18.26658 z m -155.827211,1.22761 c 8.325302,-11.64127 9.842862,-40.43494 3.079703,-58.432989 -1.123789,-2.990541 -2.761032,-6.152068 -3.638326,-7.025587 -2.017483,-2.008747 -0.926943,-3.271321 1.262725,-1.461902 10.551099,8.718756 13.370081,44.062708 4.904908,61.496598 -1.528045,3.147 -2.976702,6.13264 -3.219262,6.63472 -0.242405,0.5021 0.116921,0.56962 0.798764,0.15025 1.939664,-1.1936 66.164264,-0.89506 69.144478,0.32129 1.830355,0.74711 -8.579833,1.07108 -35.9019142,1.11726 l -38.4797058,0.0652 z m 98.67078,-4.25116 c -0.762573,-1.22852 1.177173,-2.44576 2.550625,-1.6006 1.153172,0.70963 0.3961,2.55635 -1.047965,2.55635 -0.500204,0 -1.176354,-0.43008 -1.50266,-0.95575 z m 16.969586,-12.90432 c 0,-0.847 0.696002,-1.54 1.546673,-1.54 0.85067,0 1.546708,0.693 1.546708,1.54 0,0.84701 -0.696038,1.54001 -1.546708,1.54001 -0.850671,0 -1.546673,-0.693 -1.546673,-1.54001 z M 8.4572679,97.974711 -18.992917,70.629121 -14.06595,69.3322 c 5.0022592,-1.316754 15.7537892,-7.157432 15.7537892,-8.558131 0,-1.310805 -9.1051295,-6.154664 -14.9588822,-7.95802 L -18.851449,51.096916 8.1811891,24.195527 C 23.049111,9.3997632 35.555423,-2.7058628 35.973014,-2.7058628 c 0.417572,0 13.012712,12.1900039 27.989208,27.0888978 l 27.229981,27.0889 -3.676126,0.593978 c -3.653303,0.590283 -12.338059,4.565607 -16.1664,7.399951 -1.981338,1.46687 -1.981338,1.497073 0,2.987698 3.174198,2.388089 11.999771,6.44747 15.664006,7.20474 1.843137,0.380935 3.35114,0.865544 3.35114,1.076936 0,0.211351 -12.252935,12.579488 -27.228683,27.484674 L 35.907421,125.32028 Z M 60.768102,97.050589 C 71.091528,86.697384 81.329331,76.80057 83.518735,75.05764 L 87.4995,71.888716 81.972062,70.497004 C 78.931934,69.731554 74.127257,67.680796 71.295,65.939757 l -5.149659,-3.165543 -8.282158,8.645123 C 47.577912,82.155329 41.834841,92.363692 40.939695,101.5012 c -0.05537,0.56467 -0.484269,0.42439 -0.953173,-0.31175 -3.581033,-5.621503 6.802127,-25.292306 18.987814,-35.972185 l 4.571703,-4.006797 -7.086505,-7.182964 C 45.236368,42.651589 36.851941,26.259543 39.681404,21.225391 c 0.69155,-1.230422 1.086191,-0.664572 1.65245,2.369553 1.356804,7.269853 7.866365,17.838594 16.606334,26.961536 l 8.359163,8.72551 3.19323,-2.263954 C 74.210779,53.67293 81.202009,50.729216 84.489284,50.703559 87.058069,50.683418 85.058072,48.419536 66.44453,30.277272 54.930951,19.055216 43.422732,7.256018 40.870666,4.0568332 l -4.640054,-5.816703 -2.952956,3.3770196 C 28.799677,6.738218 0.12000588,35.581225 -8.4701517,43.602688 c -7.4134813,6.922711 -7.5110273,7.078322 -4.4377533,7.078322 1.728279,0 6.6282393,1.796082 10.888789,3.99129 L 5.7273407,58.663586 11.854094,52.71294 C 21.702135,43.147947 30.411266,28.734025 30.629213,21.63956 l 0.06979,-2.272002 1.067781,2.195969 c 2.673302,5.497755 -5.572303,21.333608 -17.068217,32.779861 l -6.3589159,6.331419 7.8023389,8.186104 c 10.899815,11.435855 17.861027,25.149418 15.895802,31.314539 -0.614314,1.92719 -0.974556,1.39152 -2.156304,-3.206191 C 27.314644,86.982748 17.330362,72.426886 8.3898061,65.637089 4.975571,63.044175 4.4990244,62.937086 2.8773301,64.398355 c -2.64949445,2.387382 -13.2375361,6.816064 -16.2957671,6.816064 -2.393842,0 -1.880427,0.725989 4.9006577,6.930034 10.1367521,9.274131 32.9789253,32.197677 39.3615553,39.501717 l 5.13668,5.87826 3.00888,-3.82493 c 1.654872,-2.1037 11.455321,-12.29571 21.778748,-22.648911 z M 33.051768,73.130081 c -0.946745,-1.525248 0.613566,-2.942324 3.239682,-2.942324 1.455638,0 2.516991,0.598905 2.516991,1.420301 0,1.600043 -4.903545,2.896491 -5.756673,1.522023 z m 0.229146,-22.135097 c -1.46178,-1.455476 -0.491035,-2.367319 2.520267,-2.367319 1.951088,0 3.025492,0.459447 2.781141,1.189305 -0.447164,1.335706 -4.286258,2.188782 -5.301408,1.178014 z m 39.211217,60.601806 c -1.186467,-1.18133 -0.750911,-2.39556 0.859289,-2.39556 0.850672,0 1.546674,0.693 1.546674,1.54 0,1.60323 -1.219513,2.03689 -2.405963,0.85556 z m -81.6733615,-2.46386 c -0.9489635,-1.52886 0.1512186,-2.36011 2.1255589,-1.6058 0.9110819,0.34812 1.3677135,1.09819 1.0147465,1.66684 -0.8358261,1.34654 -2.2840568,1.31836 -3.1403054,-0.061 z m 94.3906075,-8.74395 c 0,-1.813021 2.219777,-1.497278 2.857094,0.40638 0.224481,0.67055 -0.326591,1.21918 -1.224461,1.21918 -0.897943,0 -1.632633,-0.73151 -1.632633,-1.62556 z M 107.8942,89.266704 c 0,-0.894052 0.73466,-1.625547 1.63262,-1.625547 0.89794,0 1.44896,0.548611 1.22444,1.219166 -0.6373,1.903676 -2.85706,2.219419 -2.85706,0.406381 z M 92.427295,88.154478 c 0,-0.847006 0.695985,-1.540005 1.546673,-1.540005 0.850672,0 1.54671,0.692999 1.54671,1.540005 0,0.847006 -0.696038,1.540004 -1.54671,1.540004 -0.850688,0 -1.546673,-0.692998 -1.546673,-1.540004 z M 109.44087,64.027736 c -0.41157,-0.663085 -0.28448,-1.667597 0.28294,-2.232267 0.68744,-0.684443 1.28058,-0.624805 1.77945,0.178917 0.41159,0.663071 0.2845,1.667583 -0.28293,2.232267 -0.68739,0.684449 -1.28057,0.624804 -1.77946,-0.17902 z m 1.84708,-20.79009 c -10.60059,-11.543182 -12.244266,-49.0438814 -2.75951,-62.960001 1.35251,-1.984458 2.45907,-3.70309 2.459,-3.819178 -9e-5,-0.116109 -15.985252,-0.21109 -35.522625,-0.21109 -22.712976,0 -35.900673,-0.376664 -36.571303,-1.044586 -0.816913,-0.813576 74.480628,-1.430292 75.929708,-0.621892 0.12464,0.06958 -0.92958,1.822994 -2.34282,3.896518 -6.49639,9.531603 -8.83921,29.8933151 -5.47267,47.563481 1.191,6.251292 5.82119,17.453402 7.21405,17.453402 0.48968,0 0.89031,0.461999 0.89031,1.026668 0,1.695521 -1.57344,1.16749 -3.82414,-1.283338 z M -33.370341,27.265394 c 0,-0.455873 -4.872056,-5.739003 -10.826824,-11.740286 -5.954773,-6.0012824 -10.82685,-11.3475297 -10.82685,-11.8805515 0,-0.5330218 5.17264,-6.3624025 11.494749,-12.9541784 l 11.494759,-11.9850451 3.549081,3.391047 C -17.955568,-7.8426356 -8.5100192,3.4349919 -9.3546547,4.9377686 -11.233446,8.2804759 -30.535497,28.094257 -31.913069,28.094257 c -0.801493,0 -1.457272,-0.372978 -1.457272,-0.828863 z m 3.930809,-5.074497 c 1.027685,-0.988169 5.69584,-5.408753 10.373699,-9.82352 4.677859,-4.4147629 8.361119,-8.4227202 8.184967,-8.906566 -0.176153,-0.4838457 -4.932735,-5.0880316 -10.570235,-10.2315214 l -10.250001,-9.3517996 -6.763589,6.5615252 c -3.719972,3.6088384 -8.530218,8.1119101 -10.689412,10.00682167 l -3.925805,3.44529883 10.112575,10.0235393 c 11.088362,10.990737 10.853909,10.847293 13.527801,8.276222 z M 74.340131,11.59922 c -0.949007,-1.528865 0.151165,-2.3601023 2.12552,-1.605786 0.911117,0.348105 1.367754,1.098185 1.014777,1.666838 -0.835823,1.346518 -2.284054,1.318361 -3.140297,-0.06104 z"
       id="path34611" />
  </g>
</svg>
