<?xml version="1.0" encoding="utf-8"?>
<!-- Generator: Adobe Illustrator 14.0.0, SVG Export Plug-In . SVG Version: 6.00 Build 43363)  -->
<!DOCTYPE svg PUBLIC "-//W3C//DTD SVG 1.1//EN" "http://www.w3.org/Graphics/SVG/1.1/DTD/svg11.dtd">
<svg version="1.1" id="Layer_1" xmlns="http://www.w3.org/2000/svg" xmlns:xlink="http://www.w3.org/1999/xlink" x="0px" y="0px"
	 width="800px" height="674px" viewBox="0 0 800 674" enable-background="new 0 0 800 674" xml:space="preserve">
<g>
	<path fill-rule="evenodd" clip-rule="evenodd" d="M796.9,444.445c0,0.333,0,0.666,0,1
		C619.622,419.079,510.497,324.57,404.95,226.473C291.545,320.375,181.964,418.102,6,449.444
		c111.336-84.966,214.791-177.83,309.961-278.965c-19.594-16.402-47.287-24.704-74.991-32.996
		c15.516-34.509,26.552-80.618,20.998-129.983c47.595,29.729,92.388,62.259,139.982,91.988
		C446.521,68.831,495.699,38.14,536.934,8.5c3.513,47.814,7.916,94.737,23.997,129.983c-29.145,4.852-49.14,18.853-73.991,27.997
		C579.54,269.857,680.239,365.129,796.9,444.445z"/>
	<path fill-rule="evenodd" clip-rule="evenodd" d="M507.937,664.418c-0.999,0-1.999,0-2.999,0
		c-35.722-24.221-61.023-61.682-90.988-94.988c-2.855-3.174-10.942-13.952-11.999-13.998c-3.293-0.145-22.463,25.052-24.997,27.996
		c-24.142,28.05-48.102,57.137-74.99,80.99c-1.333,0-2.667,0-4,0c-28.013-17.648-55.574-35.748-81.99-54.993
		c10.145-14.186,25.279-23.382,39.995-32.996c11.949,4.383,21.589,11.074,27.997,20.997c25.046-15.232,45.012-58.576,28.997-95.987
		c-40.559,25.433-79.747,52.237-118.985,78.989c-53.179-29.477-102.18-63.132-154.98-92.988
		c140.46-46.52,260.266-113.686,358.955-201.974c108.472,79.508,215.702,160.25,365.955,197.975
		c-46.447,36.542-102.981,62.999-151.981,96.987c-41.22-24.771-80.498-51.485-118.985-78.989
		c-20.413,27.001-2.862,94.09,30.996,90.988c11.882-1.089,13.718-10.552,22.997-15.998c16.011,7.32,25.827,20.834,39.995,29.996
		C565.707,630.866,531.785,642.604,507.937,664.418z M405.95,324.46c-49.215,27.848-110.2,63.142-156.981,96.988
		c-6.38,4.616-13.885,9.312-17.998,15.998c73.552-8.771,114.784-49.862,174.979-71.991c52.347,23.309,84.65,66.664,162.979,63.992
		C514.567,394.485,457.045,362.688,405.95,324.46z M402.95,380.453c-28.44,17.221-59.513,31.81-87.989,48.994
		c30.909-0.778,56.882-1.345,75.991-11.999c2.954-1.646,10.031-11.046,12.999-10.998c0.183,0.003,8.11,7.221,10.998,8.999
		c18.001,11.08,43.771,16.87,69.991,11.998C456.957,412.436,431.113,395.284,402.95,380.453z"/>
</g>
</svg>
