<?xml version="1.0" encoding="utf-8"?>
<!-- Generator: Adobe Illustrator 14.0.0, SVG Export Plug-In . SVG Version: 6.00 Build 43363)  -->
<!DOCTYPE svg PUBLIC "-//W3C//DTD SVG 1.1//EN" "http://www.w3.org/Graphics/SVG/1.1/DTD/svg11.dtd">
<svg version="1.1" id="Layer_1" xmlns="http://www.w3.org/2000/svg" xmlns:xlink="http://www.w3.org/1999/xlink" x="0px" y="0px"
	 width="706px" height="800px" viewBox="0 0 706 800" enable-background="new 0 0 706 800" xml:space="preserve">
<g>
	<path fill-rule="evenodd" clip-rule="evenodd" d="M127.542,6.542c5.748,5.838,5.009,33.697,3.518,51.601
		c-1.496,17.975-7.626,36.062-5.863,57.465c2.347,28.499,3.357,54.913,5.863,85.61c1.364-0.19,2.087,0.259,2.346,1.173
		c11.728-1.955,16.688-10.677,23.455-17.591c33.523-23.144,68.719-39.397,104.375-58.638c13.718-1.918,25.002-6.271,34.009-12.9
		c21.488-3.14,37.886-11.371,55.12-18.764c12.779-3.238,18.307,5.583,28.146,5.864c10.918,0.312,21.891-9.55,34.01-12.9
		c6.145-1.699,14.711-2.09,22.281-4.691c7.68-2.638,14.379-7.766,19.938-7.037c4.607,0.604,21.199,18.104,30.492,22.283
		c7.732,3.478,14.574,1.621,23.453,5.863c7.754-2.802,13.014-8.097,18.766-12.9c31.023,41.688,71.455,73.967,97.338,120.794
		c14.656,0.066,15.533,7.582,19.936,21.109c1.762,5.41,6.275,10.247,7.037,14.073c0.971,4.877-1.273,9.22,0,14.073
		c2.686,10.228,13.756,19.37,18.764,30.492c8.525,18.931,6.51,54.338,3.52,79.747c-1.881,15.977-1.482,51.567-9.383,60.983
		c-8.682,10.351-22.027,8.61-23.455,23.455c-7.906,4.993-14.877,10.923-23.455,15.246c-10.234,9.604-7.355,27.354-5.863,44.564
		c-8.158,12.824-45.514,37.8-49.256,3.519c-6.039,1.387-8.986,5.868-12.9,9.382c-46.535-0.416-68.494-25.688-117.275-28.146
		c-13.803-21.381-28.205-42.159-50.428-55.12c-4.004-11.632-2.84-28.434-7.035-39.873c12.463-17.361,27.717-36.469,21.107-69.192
		c29.293-12.837,95.207-19.114,119.621-2.346c-16.275,12.5-41.545,1.525-60.982,10.555c-25.396,11.797-27.332,62.974-3.52,78.574
		c25.756,15.239,59.85,12.117,90.303,1.173c4.309-1.549,8.221-5.136,12.9-7.036c4.146-1.685,8.305-1.702,11.729-3.519
		c35.473-18.831,54.477-83.102,9.381-103.202c-6.26-23.645-32.156-33.251-30.492-60.982c-10.633-3.533-20.078-2.547-30.492-4.691
		c-11.414-2.352-21.842-8.84-32.834-12.9c-2.268-0.836-5.51,0.766-8.211,0c-4.664-1.321-13.758-8.669-17.592-9.382
		c-9.285-1.726-21.025-1.206-29.318,0c-18.021,2.622-42.691,18.987-49.256-4.69c-5.801-5.535-19.789-2.885-23.455-10.555
		c-9.834,1.641-14.989,14.556-25.799,17.591c-15.978,4.487-34.406-0.671-46.911,9.382c1.533,16.145-4.456,31.361-18.764,35.182
		c-1.151,4.793,0.128,4.74,0,10.555c-10.289,11.713-19.338,22.929-31.665,39.874c-6.628,9.111-13.538,25.285-22.282,26.973
		c-11.576,2.235-24.957-9.487-29.319-21.109c-4.35,0.831-5.033-2.004-9.382-1.173c-4.93,15.213,14.958,15.445,17.591,26.973
		c-9.009,11.187-6.995,22.669-2.346,37.528c1.687,5.391,5.933,10.54,7.036,15.246c0.904,3.857-0.794,7.728,0,10.555
		c8.157,29.024,34.417,51.733,46.91,73.883c7.464,0.746,11.097,5.322,16.418,8.209c-2.378,12.104,13.674,15.895,17.592,23.456
		c5.834,11.263,3.455,26.529,8.209,37.527c3.978,9.202,14.56,13.459,21.109,21.11c13.827,16.151,27.733,38.857,51.601,45.737
		c-2.275-7.296-6.768-15.536-12.9-22.282c-1.524-1.677-5.815-2.878-7.037-4.691c0.082,0.122-7.034-16.413-7.035-16.418
		c-1.972-10.008,5.436-19.994,3.518-31.664c-4.186-1.181-6.5-6.75-12.899-11.728c-3.565-2.774-10.535-4.017-12.9-7.037
		c-0.887-1.132,0.497-4.472,0-5.863c-1.868-5.224-7.087-8.974-7.037-12.901c0.118-9.191,9.414-13.825,21.109-12.9
		c5.268-4.564,5.921-18.473,3.519-26.973c5.789-7.347,9.55-20.331,10.555-31.665c1.857-20.943-7.893-35.699-21.109-43.391
		c7.752-27.039,24.628-44.955,28.146-76.229c7.445-0.465,11.322-8.135,21.109-9.382c2.59,19.944-10.424,30.785-11.729,49.255
		c-0.871,12.351-1.365,29.22,0,39.875c1.451,11.307,8.924,23.654,11.729,35.183c0.639,2.626-0.672,4.811,0,7.035
		c2.352,7.787,7.893,14.174,9.383,21.11c4.365,20.324-0.143,42.688,7.035,62.155c1.24,3.364,3.908,7.104,5.865,10.555
		c1.996,3.526,5.545,6.536,7.037,9.383c0.777,1.49-0.891,4.446,0,5.863c3.807,6.073,9.908,9.708,15.244,15.246
		c-4.127,24.228-3.875,36.863,7.037,56.291c8.02,14.28,13.943,25.883,28.145,31.665c6.18,0.312,11.787-4.873,17.592-1.173
		c-6.162,15.888-3.713,30.087,4.691,42.219c15.596,13.333,25.881,31.977,46.91,39.873c29.135,3.727,36.514-14.304,59.811-16.418
		c-36.35,47.854-97.1,65.903-179.43,73.884c-14.711-6.79-42.988-0.015-57.466-7.036c-5.096-0.405-6.545,2.836-10.555,3.518
		c-44.192,2.824-68.217-19.812-100.857-26.974c-3.52-6.737-11.083-6.732-17.591-10.555c-5.174-3.039-9.779-9.654-15.246-12.899
		c-3.08-1.829-7.543-1.435-10.556-3.52c-3.198-2.214-4.966-7.015-8.208-9.381c-6.335-4.622-14.662-7.26-21.11-12.899
		c-8.804-7.701-18.34-17.794-26.973-26.974c-9.351-9.945-21.05-19.008-26.974-26.975c-7.613-10.238-13.145-32.63-23.454-43.392
		c-5.662-5.908-14.429-9.923-16.419-16.418c-2.009-6.559,1.218-12.411,0-18.764c-0.781-4.069-4.404-6.15-5.864-10.555
		c-6.136-18.511-4.442-40.087-10.554-60.983c-5.084-6.645-12.838-10.617-18.764-16.419c2.122-5.702,8.499-13.079,12.9-19.937
		c-0.628-13.711,1.882-25.048,0-37.527c-2.723-18.063-9.543-23.111-5.863-44.565c3.38-19.712,6.672-36.798,12.9-51.601
		c1.201-2.854,4.392-5.159,5.864-8.209c2.645-5.482,1.354-12.639,3.518-17.591c0.914-2.092,4.89-2.986,5.864-4.691
		c5.734-10.037,7.873-19.879,15.246-29.319c3.373-4.32,6.308-8.563,9.382-12.9c10.036-14.16,23.123-27.656,31.664-44.565
		c2.403-15.646-4.065-27.25-15.246-23.455c-9.315,3.162,1.713,14.854-8.209,17.591c-5.933-21.624-8.199-36.94,3.518-53.947
		c7.809,2.746,8.506,12.603,15.246,16.418c6.024-7.526-1.062-17.175-5.864-21.109c-2.973-8.364-4.208-18.465-7.037-26.974
		c1.142-5.504,5.24-8.05,3.519-16.418c11.043-12.39,7.091-29.735,8.208-45.737c1.659-23.747,10.544-44.917,19.938-62.156
		C125.979,6.542,126.761,6.542,127.542,6.542z M104.087,442.805c-14.657-0.091-8.555,20.376-4.69,29.319
		c-16.854,8.491-16.151,26.458-3.519,38.701c-7.487,13.997-1.89,22.505,3.519,37.528c7.045,19.571,12.321,36.562,19.937,51.601
		c7.227,14.271,13.109,29.131,23.456,42.219c16.737,21.172,33.606,41.745,58.637,51.602c17.867,34.379,62.477,36.853,103.203,42.218
		c29.659,3.907,53.071,19.908,80.918,22.283c34.684,8.652,61.908-10.875,93.82-15.246c-12.088-12.539-34.213-15.041-53.947-19.937
		c-9.793-7.405-25.885-8.516-35.18-16.419c-3.139-1.163-6.186-2.415-10.557-2.345c-31.32-18.717-58.604-41.471-89.128-60.983
		c-11.8,0.464-16.246-6.428-25.801-8.209c-2.884-6.081-7.442-9.047-11.728-14.073c-3.871-4.538-6.285-11.71-10.555-15.246
		c-6.015-4.978-15.399-3.49-18.764-5.863c-13.012-9.181-25.987-25.679-34.009-37.528c-11.937-6.827-21.357-16.171-29.319-26.973
		c-4.479-11.18,1.737-20.632,0-29.319c-2.578-12.902-18.774-19.99-18.764-35.183C128.949,472.339,113.638,442.865,104.087,442.805z"
		/>
	<path fill-rule="evenodd" clip-rule="evenodd" d="M65.387,142.581c5.662,1.672,2.149,11.801,2.345,14.073
		C63.57,154.886,61.67,145.327,65.387,142.581z"/>
	<path fill-rule="evenodd" clip-rule="evenodd" d="M681.082,591.745c4.943,4.999,6.076,15.564,0,19.937
		C656.186,616.975,661.66,588.417,681.082,591.745z"/>
	<path fill-rule="evenodd" clip-rule="evenodd" d="M261.236,697.292c-13.968,18.248-38.459-5.192-55.12-5.863
		c-6.145-28.256-31.609-37.191-42.219-60.983c-0.181-2.917,1.843-3.631,2.346-5.863c1.271,0.814,5.787,1.133,5.864,1.172
		c16.97,8.476,26.149,30.843,42.219,43.393c2.641,2.062,6.342,1.511,9.382,3.519c1.943,1.282,1.585,4.284,3.519,5.863
		C235.544,685.323,250.745,691.928,261.236,697.292z"/>
	<path fill-rule="evenodd" clip-rule="evenodd" d="M645.898,637.482c6.65,0.387,11.434,2.639,15.246,5.863
		c-0.766,4.317-0.938,9.226-3.518,11.728c-4.311-0.381-10.383,0.999-12.902-1.173C644.461,647.772,644.746,642.192,645.898,637.482z
		"/>
	<path fill-rule="evenodd" clip-rule="evenodd" d="M301.109,687.909c-8.066,8.112-19.953-0.021-23.456-7.035
		C280.484,666.531,299.066,680.052,301.109,687.909z"/>
	<path fill-rule="evenodd" clip-rule="evenodd" d="M615.406,678.528c1.561,2.964,3.9,9.316,1.172,12.9
		c-5.926,0.086-6.707-1.483-11.725,0C602.189,683.907,605.354,676.714,615.406,678.528z"/>
</g>
</svg>
