<svg xmlns="http://www.w3.org/2000/svg" viewBox="0 0 1000 1000"><title>Steel</title><path d="M218.18,473.45h8.28c31.41,1.35,34.86-25.41,39.21-44.15,1.17-5.05,2.24-8.94,2.24-9.84h33.85l67.11-30.51c-20.3,24-28.72,37.91-29.72,50.64-.91,11.7,4,29.28,34.29,33.86,6.59,1,5.64.56,11.89.56v17.88H218.18Z"/><path d="M218.18,529.22h11.05c31.79,0,28.89-24,28.89-54H328c0,35.28,1.36,54,46.24,54h11.05v18.45H218.18Z"/><path d="M662.12,645.27c68.19-81.57,55.14-202.75-30.8-268-92.9-78.67-216-60.37-280.47,34.62-21.72,36-22.74,33.71-21.64,135.61l.05.16H263a235.6,235.6,0,0,1-4.87-47.8c0-82.31,26.36-153.54,91.08-204.49,107.57-84.68,263.42-66.13,348.1,41.44S762.8,596,655.23,680.65H629.68V670.43C641.42,661.73,652.72,656.13,662.12,645.27Z"/><circle cx="542.37" cy="515.08" r="34.08"/></svg>