<?xml version="1.0" encoding="UTF-8" standalone="no"?>
<!-- Created with Inkscape (http://www.inkscape.org/) -->

<svg
   xmlns:dc="http://purl.org/dc/elements/1.1/"
   xmlns:cc="http://creativecommons.org/ns#"
   xmlns:rdf="http://www.w3.org/1999/02/22-rdf-syntax-ns#"
   xmlns:svg="http://www.w3.org/2000/svg"
   xmlns="http://www.w3.org/2000/svg"
   xmlns:sodipodi="http://sodipodi.sourceforge.net/DTD/sodipodi-0.dtd"
   xmlns:inkscape="http://www.inkscape.org/namespaces/inkscape"
   width="395"
   height="401"
   id="svg2"
   version="1.1"
   inkscape:version="0.91 r13725"
   sodipodi:docname="Final Aon Soo.svg">
  <defs
     id="defs4">
    <clipPath
       clipPathUnits="userSpaceOnUse"
       id="clipPath3032">
      <rect
         style="fill:#ffaaaa;fill-opacity:1;fill-rule:evenodd;stroke:none"
         id="rect3034"
         width="292"
         height="266.99567"
         x="170.64062"
         y="426.4325" />
    </clipPath>
  </defs>
  <sodipodi:namedview
     id="base"
     pagecolor="#ffffff"
     bordercolor="#666666"
     borderopacity="1.0"
     inkscape:pageopacity="0.0"
     inkscape:pageshadow="2"
     inkscape:zoom="1.4142136"
     inkscape:cx="68.729461"
     inkscape:cy="264.19833"
     inkscape:document-units="px"
     inkscape:current-layer="g4157"
     showgrid="false"
     showguides="true"
     inkscape:guide-bbox="true"
     inkscape:window-width="1536"
     inkscape:window-height="801"
     inkscape:window-x="-8"
     inkscape:window-y="-8"
     inkscape:window-maximized="1"
     fit-margin-top="0"
     fit-margin-left="0"
     fit-margin-right="0"
     fit-margin-bottom="0">
    <sodipodi:guide
       orientation="1,0"
       position="51.503903,337.00393"
       id="guide2996" />
    <sodipodi:guide
       orientation="1,0"
       position="343.5,70.000029"
       id="guide2998" />
    <sodipodi:guide
       orientation="0,1"
       position="51.503903,337.00393"
       id="guide3000" />
    <sodipodi:guide
       orientation="0,1"
       position="343.5,70.000029"
       id="guide3002" />
    <sodipodi:guide
       orientation="1,0"
       position="197.5,200.50002"
       id="guide3010"
       inkscape:label=""
       inkscape:color="rgb(0,0,255)" />
    <sodipodi:guide
       position="197.5,200.50002"
       orientation="0,1"
       id="guide4167"
       inkscape:label=""
       inkscape:color="rgb(0,0,255)" />
  </sodipodi:namedview>
  <metadata
     id="metadata7">
    <rdf:RDF>
      <cc:Work
         rdf:about="">
        <dc:format>image/svg+xml</dc:format>
        <dc:type
           rdf:resource="http://purl.org/dc/dcmitype/StillImage" />
        <dc:title></dc:title>
      </cc:Work>
    </rdf:RDF>
  </metadata>
  <g
     inkscape:label="New Aon"
     inkscape:groupmode="layer"
     id="layer1"
     transform="translate(-119.09118,-362.46876)"
     style="display:inline"
     sodipodi:insensitive="true">
    <path
       style="fill:#000000;stroke:#000000;stroke-width:0;stroke-linecap:butt;stroke-linejoin:miter;stroke-miterlimit:4;stroke-dasharray:none;stroke-opacity:1"
       d="M 119.09119,568.80531 325.42391,362.46877 c 0,0 -5.66603,48.03238 67.48056,121.18032 69.61619,69.61748 121.18671,67.49042 121.18671,67.49042 0,0 -45.90484,21.93098 -128.25565,-60.42135 C 308.80919,413.6904 322.60021,368.1191 322.60021,368.1191 c 0,0 -0.96026,9.44045 -94.63164,103.1076 -103.23063,103.22546 -108.87738,97.57861 -108.87738,97.57861 z"
       id="path3044"
       inkscape:connector-curvature="0"
       sodipodi:nodetypes="ccscscsc"
       inkscape:transform-center-x="-0.00053036433"
       inkscape:transform-center-y="-97.304254" />
    <path
       sodipodi:nodetypes="ccscscsc"
       inkscape:connector-curvature="0"
       id="path4171"
       d="M 514.09118,568.80531 307.75844,362.46877 c 0,0 5.66605,48.03238 -67.48054,121.18032 -69.6162,69.61748 -121.18671,67.49042 -121.18671,67.49042 0,0 45.90484,21.93098 128.25565,-60.42135 77.02634,-77.02776 63.23531,-122.59906 63.23531,-122.59906 0,0 0.96027,9.44045 94.63165,103.1076 103.23062,103.22546 108.87738,97.57861 108.87738,97.57861 z"
       style="fill:#000000;stroke:#000000;stroke-width:0;stroke-linecap:butt;stroke-linejoin:miter;stroke-miterlimit:4;stroke-dasharray:none;stroke-opacity:1"
       inkscape:transform-center-x="-0.00053036433"
       inkscape:transform-center-y="-97.304254" />
    <path
       inkscape:transform-center-y="97.304257"
       inkscape:transform-center-x="-0.00053036433"
       sodipodi:nodetypes="ccscscsc"
       inkscape:connector-curvature="0"
       id="path4177"
       d="m 119.09119,557.1322 206.33272,206.33654 c 0,0 -5.66603,-48.03238 67.48056,-121.18032 69.61619,-69.61748 121.18671,-67.49042 121.18671,-67.49042 0,0 -45.90484,-21.93098 -128.25565,60.42135 -77.02634,77.02776 -63.23532,122.59906 -63.23532,122.59906 0,0 -0.96026,-9.44045 -94.63164,-103.1076 C 124.73794,551.48535 119.09119,557.1322 119.09119,557.1322 Z"
       style="fill:#000000;stroke:#000000;stroke-width:0;stroke-linecap:butt;stroke-linejoin:miter;stroke-miterlimit:4;stroke-dasharray:none;stroke-opacity:1" />
    <path
       inkscape:transform-center-y="97.304257"
       inkscape:transform-center-x="-0.00053036433"
       style="fill:#000000;stroke:#000000;stroke-width:0;stroke-linecap:butt;stroke-linejoin:miter;stroke-miterlimit:4;stroke-dasharray:none;stroke-opacity:1"
       d="M 514.09118,557.1322 307.75844,763.46874 c 0,0 5.66605,-48.03238 -67.48054,-121.18032 C 170.6617,572.67094 119.09119,574.798 119.09119,574.798 c 0,0 45.90484,-21.93098 128.25565,60.42135 77.02634,77.02776 63.23531,122.59906 63.23531,122.59906 0,0 0.96027,-9.44045 94.63165,-103.1076 C 508.44442,551.48535 514.09118,557.1322 514.09118,557.1322 Z"
       id="path4179"
       inkscape:connector-curvature="0"
       sodipodi:nodetypes="ccscscsc" />
  </g>
  <g
     inkscape:groupmode="layer"
     id="layer2"
     inkscape:label="dots"
     style="display:inline"
     sodipodi:insensitive="true"
     transform="translate(51.499997,63.999989)">
    <circle
       r="6"
       id="circle4173"
       style="display:inline;fill:#000000;fill-opacity:1;fill-rule:evenodd;stroke:none"
       cx="-621.94281"
       cy="174.21526"
       transform="matrix(-0.70710678,-0.70710678,-0.70710678,0.70710678,-170.59118,-426.46875)" />
  </g>
  <g
     style="display:inline"
     transform="translate(-119.09118,-362.46876)"
     id="g4157"
     inkscape:groupmode="layer"
     inkscape:label="New Aon copy">
    <g
       id="g4301"
       transform="translate(-40.999992,0)">
      <path
         style="fill:#000000;stroke:#000000;stroke-width:0;stroke-linecap:butt;stroke-linejoin:miter;stroke-miterlimit:4;stroke-dasharray:none;stroke-opacity:1"
         d="m 172.59118,422.96875 292.00001,0 c 0,0 -37.99611,29.97758 -37.99611,133.4939 0,98.52014 37.99611,133.5061 37.99611,133.5061 0,0 -48,-16.96406 -48,-133.5061 0,-109.0069 42.00389,-131.49387 42.00389,-131.49387 0,0 -7.35937,6.00041 -139.91794,5.9962 -146.08595,-0.005 -146.08595,-7.99623 -146.08595,-7.99623 z"
         id="path4161"
         inkscape:connector-curvature="0"
         sodipodi:nodetypes="ccscscsc" />
      <circle
         r="6"
         style="fill:#000000;fill-opacity:1;fill-rule:evenodd;stroke:none"
         id="path4163"
         cx="316.59119"
         cy="562.96875" />
      <circle
         cy="562.96875"
         cx="316.59119"
         id="circle4197"
         style="fill:#000000;fill-opacity:1;fill-rule:evenodd;stroke:none"
         r="6" />
      <path
         style="fill:#000000;stroke:#000000;stroke-width:0;stroke-linecap:butt;stroke-linejoin:miter;stroke-miterlimit:4;stroke-dasharray:none;stroke-opacity:1"
         d="m 172.59118,696.96875 292.00001,0 c 0,0 -37.99611,-29.97758 -37.99611,-133.4939 0,-98.52014 37.99611,-133.5061 37.99611,-133.5061 0,0 -48,16.96406 -48,133.5061 0,109.00689 42.00389,131.49387 42.00389,131.49387 0,0 -7.35937,-6.00041 -139.91794,-5.99621 -146.08595,0.005 -146.08595,7.99622 -146.08595,7.99622 z"
         id="path4201"
         inkscape:connector-curvature="0"
         sodipodi:nodetypes="ccscscsc" />
    </g>
    <g
       id="g4317"
       transform="matrix(-1,0,0,1,674.18239,0)">
      <path
         sodipodi:nodetypes="ccscscsc"
         inkscape:connector-curvature="0"
         id="path4319"
         d="m 172.59118,422.96875 292.00001,0 c 0,0 -37.99611,29.97758 -37.99611,133.4939 0,98.52014 37.99611,133.5061 37.99611,133.5061 0,0 -48,-16.96406 -48,-133.5061 0,-109.0069 42.00389,-131.49387 42.00389,-131.49387 0,0 -7.35937,6.00041 -139.91794,5.9962 -146.08595,-0.005 -146.08595,-7.99623 -146.08595,-7.99623 z"
         style="fill:#000000;stroke:#000000;stroke-width:0;stroke-linecap:butt;stroke-linejoin:miter;stroke-miterlimit:4;stroke-dasharray:none;stroke-opacity:1" />
      <circle
         cy="562.96875"
         cx="316.59119"
         id="circle4321"
         style="fill:#000000;fill-opacity:1;fill-rule:evenodd;stroke:none"
         r="6" />
      <circle
         r="6"
         style="fill:#000000;fill-opacity:1;fill-rule:evenodd;stroke:none"
         id="circle4323"
         cx="316.59119"
         cy="562.96875" />
      <path
         sodipodi:nodetypes="ccscscsc"
         inkscape:connector-curvature="0"
         id="path4325"
         d="m 172.59118,696.96875 292.00001,0 c 0,0 -37.99611,-29.97758 -37.99611,-133.4939 0,-98.52014 37.99611,-133.5061 37.99611,-133.5061 0,0 -48,16.96406 -48,133.5061 0,109.00689 42.00389,131.49387 42.00389,131.49387 0,0 -7.35937,-6.00041 -139.91794,-5.99621 -146.08595,0.005 -146.08595,7.99622 -146.08595,7.99622 z"
         style="fill:#000000;stroke:#000000;stroke-width:0;stroke-linecap:butt;stroke-linejoin:miter;stroke-miterlimit:4;stroke-dasharray:none;stroke-opacity:1" />
    </g>
  </g>
</svg>
