<svg xmlns="http://www.w3.org/2000/svg" viewBox="0 0 1000 1000"><title>Malatium</title><path d="M766.73,563.29l-7.91-2.46c-35.23-13.26-37.73,12.62-46.36,36-1.79,4.87-5.37,10.58-5.63,11.44L670.9,590.05l-49.52,15.36c18-26.71,20.9-32.76,23-45.35,2.43-14.36,1.65-29.46-26-42.83-6-2.9-5.22-2.21-11.19-4.07l5.31-17.08,79.81,24.8,79.81,24.8Z"/><path d="M452.21,216.7l1.79,8.08c8.21,31.7-14.62,37.73-38.68,44.38-5,1.38-11.57,4.54-12.45,4.73L417.59,310l-19.41,48.08c28.1-15.68,34.38-18.11,47.1-19.19,14.51-1.23,29.5.8,40.53,29.41,2.4,6.22,1.77,5.38,3.12,11.49l17.46-3.87L488.31,294.3,470.22,212.7Z"/><circle cx="492.41" cy="486.82" r="34.08" transform="translate(-118.58 812.63) rotate(-72.74)"/><path d="M256.12,464.09A240.41,240.41,0,0,1,477.43,256.48L492.67,330c-34.7.28-71.89,8.61-99.24,34-66.21,61.34-79.29,155.43-23.71,228.34s145.5,84,225.29,36.1c39.81-23.9,52.87-68.8,58.21-111.6l77.63,20.25A240.1,240.1,0,0,1,494.71,736.5a244,244,0,0,1-32.62-2.2,240.25,240.25,0,0,1-206-270.21Z"/><path d="M385.75,412.54v11.89c0,26.16-24,34.07-54,34.07h-74.4L190.5,486.82l66.86,26h74.4c30,0,54,10.23,54,36.39v11.89H404.2V412.54Z"/><path d="M492.41,585.8H418.13v18.45H430c26.16,0,34.07,24,34.07,54h0v74.4l28.32,66.86,26-66.86v-74.4h0c0-30,10.23-54,36.39-54h11.89V585.8Z"/><path d="M660.54,312.37l-55.86,49.16h0c-22.54,19.83-47.29,28-64.57,8.34l-7.86-8.93-13.85,12.19,49.07,55.76,49.07,55.76,13.85-12.19-7.86-8.93c-17.28-19.64-4.51-41.41,18-61.24l55.86-49.16L728,287.81Z"/></svg>