<?xml version="1.0" encoding="UTF-8" standalone="no"?>
<!-- Created with Inkscape (http://www.inkscape.org/) -->

<svg
   xmlns:dc="http://purl.org/dc/elements/1.1/"
   xmlns:cc="http://creativecommons.org/ns#"
   xmlns:rdf="http://www.w3.org/1999/02/22-rdf-syntax-ns#"
   xmlns:svg="http://www.w3.org/2000/svg"
   xmlns="http://www.w3.org/2000/svg"
   version="1.1"
   width="495.69855"
   height="497.70169"
   id="svg8906">
  <defs
     id="defs8908" />
  <metadata
     id="metadata8911">
    <rdf:RDF>
      <cc:Work
         rdf:about="">
        <dc:format>image/svg+xml</dc:format>
        <dc:type
           rdf:resource="http://purl.org/dc/dcmitype/StillImage" />
        <dc:title></dc:title>
      </cc:Work>
    </rdf:RDF>
  </metadata>
  <g
     transform="translate(84.111245,14.040878)"
     id="layer1">
    <path
       d="m 196.26923,74.7632 c 0.2951,-1.79083 6.3942,-15.98221 9.4064,-21.88662 l 2.2291,-4.36946 -7.7676,0.6566 c -4.2721,0.36113 -7.9519,0.84094 -8.1772,1.06624 -0.2253,0.22529 0.155,4.83714 0.845,10.24854 0.6901,5.4114 1.1723,11.33983 1.0717,13.17428 -0.1808,3.29401 1.8757,4.24838 2.3926,1.11042 z m -8.3436,117.9551 c -0.154,-1.87048 -0.6917,-5.42588 -1.1947,-7.90088 -0.5031,-2.475 -1.2111,-7.2 -1.5734,-10.5 l -0.6587,-6 -3.4492,9.5 c -1.8971,5.225 -4.0401,10.85 -4.7623,12.5 l -1.313,3 5.6157,1.66415 c 3.0887,0.91528 6.0658,1.54567 6.6158,1.40088 0.55,-0.1448 0.8739,-1.79366 0.7198,-3.66415 z m 159.7802,4.59912 c 0,-4.125 -0.2111,-7.5 -0.4692,-7.5 -0.2581,0 -2.1706,0.85453 -4.25,1.89895 -6.7949,3.41282 -20.0012,9.09843 -21.4067,9.21605 -2.5967,0.21731 6.6332,1.75179 14.6259,2.43156 4.4,0.37421 8.1875,0.85433 8.4167,1.06691 0.2291,0.21259 1.0166,0.38653 1.75,0.38653 0.9926,0 1.3333,-1.91667 1.3333,-7.5 z m -141.4036,22.10906 c 5.3941,-2.58398 9.8767,-4.30946 16.4036,-6.31423 l 6.5,-1.9965 -8,-0.73049 c -4.4,-0.40177 -10.8697,-1.16167 -14.3772,-1.68867 -3.5074,-0.527 -6.5795,-0.75579 -6.8269,-0.50842 -0.4065,0.40652 2.6733,12.62925 3.1822,12.62925 0.1181,0 1.5213,-0.62592 3.1183,-1.39094 z M 271.24953,114.473 c -2.2979,-1.68023 -1.4474,-6.186 1.3033,-6.90534 4.3762,-1.14439 6.8296,3.43031 3.5816,6.67832 -1.9174,1.91742 -2.534,1.94607 -4.8849,0.22702 z m 12.2063,10.26432 c -2.3078,-1.34414 -2.2355,-5.13562 0.126,-6.61038 1.4788,-0.92355 2.3256,-0.85662 4,0.31615 2.5233,1.7674 2.7028,3.65265 0.5526,5.8029 -1.8215,1.82151 -2.3073,1.87251 -4.6786,0.49133 z m 119.25,92.382 c 0,-3.68396 -0.4404,-10.32146 -0.9786,-14.75 -0.5383,-4.42855 -1.4634,-20.4269 -2.0559,-35.5519 -0.5924,-15.125 -1.702,-42.125 -2.4658,-60.00001 -0.7638,-17.874998 -1.8837,-44.425 -2.4888,-59 -0.605,-14.575 -1.3421,-30.17329 -1.638,-34.66286 l -0.5379,-8.1628604 -9.1675,-0.5533 c -5.0421,-0.3043 -26.9425,-1.24965 -48.6675,-2.10076 -21.725,-0.85112 -43.325,-1.97928997 -48,-2.50704997 -4.675,-0.52776 -21.325,-1.47112003 -37,-2.09634003 -15.675,-0.62523 -39.5615,-1.64979 -53.081,-2.2768 l -24.581,-1.14003 2.912,6.50000003 c 1.6017,3.57499997 3.8039,8.52499997 4.8938,11.00000037 1.0899,2.475 2.3727,5.2321 2.8505,6.12689 0.4779,0.89479 1.1839,3.36979 1.5689,5.5 0.385,2.13021 1.1419,4.72648 1.682,5.7695 0.54,1.04301 1.4958,3.96801 2.124,6.5 l 1.1422,4.60361 14.0763,0 c 10.454,0 14.5056,0.35318 15.7443,1.37244 2.3056,1.89705 2.1404,2.6991 -1.6462,7.99358 -6.9602,9.732 -15.0652,30.55381 -19.165,49.234872 -4.1736,19.017398 -6.5742,55.249538 -4.6553,70.261228 0.5721,4.47584 1.5617,12.46767 2.1991,17.75962 0.6373,5.29196 1.5056,10.18281 1.9294,10.86858 1.0387,1.68057 14.7811,3.63369 36.2083,5.14604 24.1059,1.70141 49.3609,-0.35423 69.1703,-5.63015 21.4418,-5.71065 33.8521,-10.73027 43.8252,-17.726 l 6.0235,-4.22518 1.9799,2.44506 c 1.8388,2.27093 1.9294,3.38726 1.2713,15.67383 l -0.7085,13.22875 2.868,0.63848 c 1.5774,0.35117 4.443,1.13602 6.368,1.74412 1.925,0.60811 3.95,1.1905 4.5,1.29422 5.1376,0.96884 25.7263,9.28704 29.9725,12.10943 3.2055,2.1306 3.5275,1.63879 3.5275,-5.38701 z m -300.9612,-49.22946 c -1.3842,-2.58642 -0.3322,-4.9607 2.5147,-5.67522 3.0317,-0.76091 4.4465,0.18148 4.4465,2.9618 0,4.43583 -4.997,6.38362 -6.9612,2.71342 z m -9.288795,12.84746 c -2.4097,-1.40354 -2.1935,-4.49588 0.4436,-6.34296 1.9827,-1.38873 2.3673,-1.37928 4,0.0983 2.2209,2.00989 2.2899,3.69845 0.235,5.75335 -1.8215,1.82151 -2.3073,1.87251 -4.6786,0.49133 z m -45.75,77.71651 c 5.225,-0.74349 11.3,-1.43089 13.5,-1.52755 12.9765,-0.57018 39.872495,-7.07025 51.999995,-12.56707 2.75,-1.24644 5.9849,-2.57483 7.1887,-2.95197 2.0793,-0.6514 2.12,-0.87091 0.8139,-4.38776 -6.2274,-16.76782 -12.997,-29.3734 -21.735495,-40.47347 -2.8438,-3.61234 -2.9006,-3.87594 -1.345,-6.25 1.8967,-2.89472 2.405,-2.98843 5.281595,-0.97359 5.1249,3.58966 19.9333,28.61072 24.1973,40.88529 1.1254,3.23966 2.2241,6.06811 2.4414,6.28546 0.5102,0.51015 12.5597,-6.60278 15.0962,-8.91135 1.0662,-0.97042 2.3148,-1.7644 2.7747,-1.7644 0.4599,0 1.2772,-1.15979 1.8161,-2.57731 0.5389,-1.41752 2.9586,-5.35502 5.377,-8.75 2.4184,-3.39498 5.4747,-8.20507 6.7919,-10.68909 l 2.3949,-4.5164 -9.0466,-3.90637 c -18.4708,-7.97578 -38.5466,-20.76362 -38.5466,-24.55336 0,-2.35449 3.5579,-5.3905 5.187,-4.42613 0.7221,0.42749 3.113,2.18135 5.313,3.89745 4.9923,3.8942 14.5767,9.66126 20.5,12.33502 9.7899,4.41914 18.8815,8.18619 19.7571,8.18619 1.026,0 3.2429,-4.37072 3.2429,-6.39342 0,-0.71461 0.6516,-2.60594 1.448,-4.20294 1.3806,-2.7684 2.0754,-5.1084 6.652,-22.40364 5.6048,-21.18096 9.2259,-52.03924 8.3775,-71.391168 -0.537,-12.249922 -2.9718,-35.436432 -3.809,-36.273642 -0.2155,-0.2155 -14.7415,0.28294 -32.2801,1.10765 C 91.995935,53.99218 50.539935,55.81 22.705835,56.84614 7.5808336,57.40918 -6.2394664,58.10022 -8.0059664,58.38178 c -4.3780996,0.69782 -3.7740996,-5.12245 -6.3236996,60.93563 -0.552,14.30001 -1.4322,32.07501 -1.9561,39.50001 -0.5239,7.425 -1.6257,27.9 -2.4484,45.5 -0.8227,17.6 -1.7625,36.16329 -2.0884,41.25176 -0.5873,9.16995 -0.5706,9.26012 1.8929,10.19671 1.3669,0.51972 4.8816,1.22035 7.8104,1.55696 2.9287996,0.33661 8.4750996,0.9696 12.3250996,1.40664 11.5462004,1.3107 35.3657014,1.16639 45.5000014,-0.27566 z m 79.999995,1.54509 c 0,-0.45017 -0.6863,-3.12936 -1.525,-5.95374 l -1.525,-5.13525 -4.725,2.10463 c -2.5988,1.15754 -7.65,3.10606 -11.225,4.33003 -7.3863,2.52886 -7.1481,2.68451 6.5,4.24737 11.2684,1.29037 12.5,1.33047 12.5,0.40696 z m 32.1146,2.5685 c 1.7288,-3.4375 3.4228,-6.475 3.7644,-6.75 2.0467,-1.64789 7.121,-10.16956 7.121,-11.95893 0,-3.29746 8.5527,-10.33566 18.797,-15.4684 2.9133,-1.45969 5.5426,-3.29395 5.8427,-4.07614 0.3002,-0.78218 -0.1336,-3.57639 -0.9638,-6.20934 -0.8303,-2.63296 -1.7917,-6.47106 -2.1365,-8.52913 -0.5064,-3.02238 -1.1474,-3.85892 -3.3332,-4.35028 -1.4884,-0.33459 -4.5062,-1.06098 -6.7062,-1.61421 -9.8118,-2.46734 -10.0824,-2.38547 -12.9713,3.92469 -1.44,3.14548 -2.9417,5.95816 -3.337,6.2504 -1.7299,1.27892 -8.1917,11.70507 -8.1917,13.21742 0,0.91782 -1.2375,2.59652 -2.75,3.73046 -1.5125,1.13393 -3.2712,2.49578 -3.9083,3.02633 -1.9207,1.59959 -12.2026,8.05713 -12.8288,8.05713 -0.3208,0 -1.6593,0.70502 -2.9744,1.56671 -2.3799,1.5594 -2.3836,1.5909 -0.7986,6.75 0.8759,2.85081 1.8552,6.92321 2.1763,9.04978 0.5802,3.84265 0.627,3.87759 7.5838,5.66475 3.85,0.98904 8.125,2.2581 9.5,2.82012 1.375,0.56203 2.606,1.05039 2.7356,1.08525 0.1296,0.0349 1.6501,-2.74911 3.379,-6.18661 z m -161.8768964,8.2288 c 3.15579998,-1.28517 5.5559,-2.51856 5.3336,-2.74087 -0.3594,-0.35939 -5.7778,-1.14869 -19.3212996,-2.81454 -4.1461,-0.50998 -4.25,-0.45164 -4.25,2.38736 0,1.60056 -0.2915,5.03708 -0.6479,7.63671 l -0.6478,4.7266 6.8978,-3.4293 c 3.7939,-1.88612 9.4798996,-4.4808 12.6355996,-5.76596 z m 148.4659964,21.5212 c 0.8624,-2.2 2.1818,-5.41801 2.9321,-7.15113 0.7503,-1.73312 1.3642,-3.84406 1.3642,-4.69098 0,-0.84692 0.45,-1.81797 1,-2.15789 2.4654,-1.52372 -0.8125,-3.37879 -8.8816,-5.02629 l -3.3816,-0.69044 0.6218,3.35837 c 0.6123,3.30623 2.515,20.45344 2.703,24.35836 0.069,1.44008 0.3732,1.16012 1.0852,-1 0.5439,-1.65 1.6945,-4.8 2.5569,-7 z m 83.8612,1.57166 c -3.2145,-3.55198 0.3154,-8.27644 4.5075,-6.03289 2.5107,1.34366 2.5066,5.58099 -0.01,6.92605 -2.515,1.34598 -2.4656,1.35578 -4.5008,-0.89316 z m -10.7022,11.52624 c -0.903,-1.98173 -0.8695,-2.88483 0.1528,-4.11654 2.8105,-3.38653 8.7034,0.55786 6.3773,4.26864 -1.7853,2.84797 -5.1995,2.76845 -6.5301,-0.1521 z m -8.8627,111.43641 c 14.575,-0.5795 35.05,-1.4917 45.5,-2.0272 10.45,-0.5354 31.6,-1.436 47,-2.0012 15.4,-0.5652 29.8207,-1.2616 32.046,-1.5475 l 4.0459,-0.51976 1.2267,-27.21933 c 0.6747,-14.97062 1.6568,-38.24432 2.1826,-51.71932 0.5257,-13.475 1.4055,-28.55 1.9549,-33.5 0.5495,-4.95 1.4752,-21.6 2.057,-37 0.5819,-15.4 1.3325,-32.35482 1.668,-37.67738 l 0.61,-9.67738 -3.5469,-0.6654 c -4.0172,-0.75364 -5.0391,-0.87986 -20.2442,-2.50043 -14.117,-1.5046 -45.0254,-0.75465 -57.5,1.39516 -23.9226,4.12273 -43.3991,8.99161 -52.515,13.12813 -1.6583,0.75247 -4.2458,1.83605 -5.75,2.40796 -1.5043,0.57191 -2.735,1.50511 -2.735,2.07377 0,1.60465 8.8958,22.04488 10.8531,24.93752 0.9594,1.41793 2.2817,3.70305 2.9384,5.07805 1.6084,3.36777 3.0294,5.51907 7.4585,11.2919 2.0625,2.68823 3.75,5.49014 3.75,6.22647 0,1.53407 -2.6838,4.48163 -4.0805,4.48163 -1.6025,0 -6.3523,-5.22785 -10.5773,-11.642 -4.2979,-6.52477 -14.3422,-25.53555 -14.3422,-27.1454 0,-0.5271 -0.9285,-3.05731 -2.0633,-5.62268 l -2.0632,-4.66432 -5.6868,3.22109 c -7.4304,4.20873 -14.2911,9.41558 -13.4778,10.22884 0.3544,0.3544 -1.6622,3.94787 -4.4812,7.98547 -2.8191,4.0376 -6.2515,9.45859 -7.6275,12.04663 l -2.502,4.70554 4.7009,2.07602 c 2.5855,1.14181 6.5009,2.80538 8.7009,3.69682 7.7185,3.12753 24.1524,13.04889 28.8305,17.40533 4.964,4.62268 5.3305,6.74936 1.515,8.79132 -1.5395,0.82394 -2.6628,0.43806 -5.6791,-1.95089 -5.2469,-4.15561 -18.6908,-12.26387 -24.6664,-14.8767 -13.4728,-5.89104 -16.998,-7.06738 -17.7241,-5.91438 -1.5323,2.43357 -6.6537,16.53424 -9.1379,25.15931 -3.2598,11.3177 -6.3649,26.89654 -7.1755,36 -0.3428,3.85 -1.2516,11.5 -2.0196,17 -1.4842,10.6289 -1.2092,33.83024 0.5096,43 0.5154,2.75 1.2302,7.80368 1.5883,11.23041 l 0.651,6.2304 19.6541,-0.4364 c 10.8098,-0.2401 31.5791,-0.9106 46.1541,-1.4901 z m -74.8607,-0.5343 c -0.1983,-1.65 -0.5338,-4.35 -0.7454,-6.00001 -0.2117,-1.65 -0.6717,-6.27293 -1.0224,-10.27318 -0.3506,-4.00025 -0.9605,-7.47283 -1.3554,-7.71685 -0.3948,-0.24403 -1.3134,1.4539 -2.0412,3.77317 -0.7279,2.31928 -1.9051,5.34186 -2.6161,6.71686 -1.6274,3.14731 -7.3588,16.13881 -7.3588,16.68041 0,0.222 3.4875,0.2723 7.75,0.1116 l 7.75,-0.292 -0.3607,-3 z M 38.683135,350.79474 c -1.0875,-1.08753 -1.9773,-2.39518 -1.9773,-2.90589 0,-1.397 2.9559,-4.07143 4.5,-4.07143 1.2926,0 4.5,2.59243 4.5,3.63717 0,0.27187 -0.4375,1.31179 -0.9722,2.31092 -1.5047,2.8115 -3.8665,3.21326 -6.0505,1.02923 z m 11.5051,10.36223 c -1.9091,-1.90907 -1.8799,-3.7992 0.089,-5.76812 1.9174,-1.91742 2.534,-1.94607 4.8849,-0.22702 1.3226,0.96708 1.66,2.05619 1.2021,3.88051 -0.7614,3.03369 -4.1103,4.18033 -6.176,2.11463 z M 152.35723,470.17053 c -3.7385,-7.3286 -8.6514,-19.0102 -8.6514,-20.5707 0,-0.7603 -0.54,-1.9224 -1.2,-2.5824 -0.66,-0.66 -0.879,-1.2 -0.4866,-1.2 0.3924,0 0.1176,-1.4625 -0.6107,-3.25 -0.7283,-1.7875 -1.9447,-5.8938 -2.7032,-9.1251 l -1.379,-5.8751 -14.0894,0.6979 c -13.4658,0.6669 -14.1728,0.6057 -15.9733,-1.3839 -1.8559,-2.0507 -1.8387,-2.1449 1.1502,-6.3228 4.858,-6.7904 10.0744,-17.95833 14.2664,-30.54363 2.143,-6.43356 4.1116,-12.82238 4.3749,-14.19738 0.2632,-1.375 1.1429,-5.875 1.9549,-10 3.636,-18.47122 4.0248,-22.80162 4.1089,-45.76433 0.068,-18.68482 -0.3145,-26.28922 -1.7996,-35.73567 -1.0376,-6.6 -2.2825,-12.50509 -2.7666,-13.12242 -0.484,-0.61733 -4.0122,-1.43106 -7.8405,-1.80829 -3.8282,-0.37722 -7.1835,-1.04678 -7.4561,-1.4879 -0.2726,-0.44112 -9.01,-1.38534 -19.416495,-2.09828 -14.3784,-0.98506 -21.047,-1.02942 -27.7773,-0.1848 -4.8711,0.61129 -12.0065,1.38509 -15.8565,1.71953 -9.4101,0.81746 -26.2931,3.39476 -30,4.57969 -1.65,0.52744 -7.050001,2.25527 -12.0000014,3.83961 -10.4463,3.34353 -25.1075996,9.93239 -29.7668996,13.3773 -5.0965,3.76827 -5.5444,3.87426 -7.6162,1.80242 -1.8072,-1.80711 -1.9137,-2.97134 -1.3992,-15.28647 l 0.5568,-13.33039 -4.8872,-1.24105 c -7.269,-1.84584 -7.4101,-1.88707 -13.8904,-4.05792 -7.1482,-2.39455 -11.9658,-4.41187 -19.8923,-8.32963 -3.2425,-1.60263 -6.1261,-2.68321 -6.4081,-2.40128 -0.502,0.50203 0.4924,27.01424 3.3393,89.02988 0.7827,17.05 1.8961,42.7 2.4742,57 0.5781,14.3 1.4787,33.87501 2.0014,43.50001 0.5226,9.625 0.9589,20.0455 0.9694,23.1567 l 0.019,5.6566 9.25,0.5595 c 5.0875,0.3077 27.025,1.2559 48.7499996,2.107 21.7250004,0.8511 43.3250014,1.9793 48.0000014,2.507 4.675,0.5278 21.325,1.4731 37,2.1008 15.675,0.6277 39.524995,1.6677 52.999995,2.3112 13.475,0.6435 24.6411,1.0884 24.8135,0.9887 0.1725,-0.1 -0.8005,-2.3652 -2.1621,-5.0344 z m -9.6514,12.9939 c -3.025,-0.1557 -22.825,-0.9864 -43.999995,-1.8459 -21.175,-0.8596 -43.675,-1.9905 -50,-2.5131 -6.325,-0.5225 -21.175,-1.3906 -33.000001,-1.9291 -23.7924004,-1.0834 -68.1461,-3.0045 -80.3569,-3.4804 -4.8559,-0.1893 -8.1484,-0.7781 -8.6202,-1.5415 -1.0139,-1.6405 -1.8169,-13.9243 -3.042,-46.537 -0.5579,-14.85001 -1.4376,-35.32501 -1.955,-45.50001 -0.5174,-10.175 -1.2079,-25.475 -1.5343,-34 -0.3265,-8.525 -1.2224,-29.225 -1.991,-46 -2.9883,-65.2191 -2.9798,-64.25637 -0.5899,-66.41919 2.1008,-1.90122 2.1536,-1.8904 6.3539,1.3035 5.889,4.47801 20.5199,11.28024 31.2354,14.52206 4.95,1.49755 10.3105,3.14578 11.9122,3.66273 1.6016,0.51695 3.0236,0.82539 3.1598,0.68541 0.2723,-0.27976 2.0501,-39.01749 2.9488,-64.25451 0.3134,-8.8 0.9827,-18.7 1.4873,-22 0.5047,-3.3 1.4504,-19.5 2.1017,-36 0.6512,-16.50001 1.6805,-41.240358 2.2871,-54.97856 l 1.1031,-24.97855 2.5,-0.71127 c 1.375,-0.39119 25.2249996,-1.65763 53.000001,-2.8143 27.775,-1.15666 64.674995,-2.74182 81.999995,-3.52257 17.325,-0.78075 38.5336,-1.70632 47.1303,-2.05683 15.3292,-0.625 15.6211,-0.67871 15.1506,-2.78761 -3.1494,-14.11538 -11.2629,-34.2646304 -17.7065,-43.9722404 -3.7954,-5.7180496 -3.883,-8.1279696 -0.3364,-9.2536296 1.1293,-0.35842 8.4003,-0.37885 16.1576,-0.0454 7.7574,0.33345 30.3044,1.28635 50.1044,2.11755 19.8,0.8312 41.85,1.9532196 49,2.4933596 13.2083,0.99782 34.2419,2.04995 81,4.05172 14.3,0.6122 29.3163,1.26705 33.3695,1.45523 4.0533,0.18818 7.7743,0.74693 8.2691,1.24168 0.4947,0.49475 1.5537,14.8184704 2.3533,31.8304804 1.9672,41.85529 4.295,94.53177 5.5427,125.43095 0.5663,14.025 1.4745,32.7 2.0182,41.5 2.4294,39.32436 2.4272,37.79678 0.059,39.91816 -2.1251,1.90378 -2.1729,1.89401 -6.3766,-1.30247 -5.889,-4.47801 -20.5199,-11.28024 -31.2354,-14.52206 -4.95,-1.49755 -10.3047,-3.14375 -11.8992,-3.65822 -1.5946,-0.51448 -3.2273,-0.93541 -3.6283,-0.93541 -0.4009,0 -1.0434,8.4375 -1.4278,18.75 -0.6772,18.17211 -2.4522,53.28882 -4.5112,89.25 -1.8401,32.1387 -4.029,88.8481 -3.4842,90.2679 0.296,0.7714 -0.269,2.3174 -1.2556,3.4356 -1.6734,1.8968 -3.6721,2.1096 -29.7937,3.1719 -15.4,0.6264 -37.9,1.5808 -50,2.1211 -77.4118,3.4561 -93.4551,4.106 -106,4.2939 l -14,0.2096 0.3249,2.5 c 1.1942,9.1905 11.948,35.9444 18.0877,45 3.555,5.2434 3.5798,5.3648 1.516,7.4286 -1.5633,1.5632 -6.8624,1.7709 -23.4286,0.9184 z"
       id="path5419"
       style="fill:#000000;fill-opacity:1;stroke:none;display:inline" />
  </g>
</svg>
