<svg xmlns="http://www.w3.org/2000/svg" viewBox="0 0 154.25 212.23"><title>Layer 2</title><g id="Layer_2" data-name="Layer 2"><g id="Background"><g id="Layer_2-2" data-name="Layer 2"><path d="M95.25,212.17c-2.65-.95-4-3.56-6-5.35a73.59,73.59,0,0,1-5.66-5.65c-1.91-2.08-3.68-4.3-5.89-6.91l-18.27,18c-.52-.49-.94-.69-1-.92-.48-9.05-4.92-16.53-9.91-23.57C39,174.39,27.14,163.67,12.1,156.87c-3.55-1.61-7.5-2.33-11.85-3.63.81-.56,1.54-1.47,2.34-1.55a23.75,23.75,0,0,1,10.71,1.59c13.77,5.24,24.43,14.55,33.71,25.64,5.24,6.26,10,12.91,12.42,20.85.68,2.2,1.15,4.46,1.8,7l13.09-14.75L30.78,148.4c8.82-11.33,11-24.26,11.33-37.7.2-8.32.29-16.66-1.93-24.79-2-7.22-3.83-14.5-9.55-20.62L74.07,20.9,61.33,6.46c-3.78,17.59-14.77,29.8-27.45,40.86a65.18,65.18,0,0,1-22.19,13A19,19,0,0,1,0,60.57c.71-.81,1.06-1.59,1.49-1.64C13.31,57.65,22.67,51.27,31.4,44c9.65-8,17.77-17.52,23.18-29C56.25,11.5,57,7.5,58.05,3.69c.26-.89.32-1.84.62-3.69l18.5,18.36L95,.73c1.26,4.37,2.16,8.34,3.56,12.14,2.56,7,7,12.89,11.74,18.41,6.39,7.42,13.41,14.28,21.91,19.44,6.42,3.9,12.8,7.77,20.62,8.05.4,0,.78.51,1.41.95-1.7,2.11-3.92,1.73-5.93,1.54a37.24,37.24,0,0,1-15.51-5.11c-11.35-6.6-20.66-15.54-28.86-25.66C98.18,23.38,95.14,16.2,93.09,6c-2.39,2.82-4.42,5.34-6.58,7.72s-4.35,4.51-6.89,7.13l44,44.1c-9.15,10.35-10.75,22.95-11.69,35.74a91.76,91.76,0,0,0,4.22,34.44A30.06,30.06,0,0,0,123.66,148l-44,44.06,13.44,15.06.74-4.12c1.31-7.06,4.93-13,9.13-18.64,8.86-11.82,19.14-22.13,32.6-28.71a56.43,56.43,0,0,1,10.81-3.75c2.64-.69,5.46-.67,7.82,1.71-18.31,3.38-31.52,14.14-43.14,27.53-5.61,6.46-10.63,13.23-13.41,21.39C96.64,205.58,96.09,208.78,95.25,212.17ZM36,149.14l-.89-.2.55.55a4,4,0,0,0,.53.84l29.66,28,11.24,10.61,41.22-39.79Zm0-3.3c27.48-1.23,54.38-1.36,81.74.12-8.32-11.92-10.42-25.37-10.52-39.05s1.76-27.41,10-39H37.19a30.75,30.75,0,0,0,1.73,3.5c3,4.67,4.56,9.84,5.87,15.22,2.26,9.36,2.33,18.87,1.68,28.28C45.72,125.81,44,136.71,36.05,145.84ZM76.91,24,35.26,64.38c1.52.08,2.67.19,3.81.19l78.4-.12a1.13,1.13,0,0,0,.45-.17c.14-.08.32-.16.38-.28s0-.33,0-.11Z"/><path d="M62.06,135.45c-.1,3.83-4,7.78-7.66,7.79-4,0-8.59-4.73-8.52-8.82a8.25,8.25,0,0,1,8.28-8.12C58.61,126.47,62.19,130.62,62.06,135.45ZM49,138.05c4.85,3.58,7.66,2.94,11.33-2.63l-2.18-4.81-5.3-1.38-3.68,3a18.53,18.53,0,0,0-.47,2.72A28.81,28.81,0,0,0,49,138.05Z"/><path d="M84.62,134.82c0,4.79-3.12,8.42-7.24,8.43s-8.28-4.59-8.24-9a8,8,0,0,1,7.81-8C81.48,126.34,84.62,129.83,84.62,134.82Zm-13.46.65c1.9,4.11,3.87,5.44,7,4.7s5-2.83,5-5.43c0-2.93-1.61-4.15-6.69-5.19C72.61,131.36,72.61,131.36,71.16,135.47Z"/><path d="M107.48,135c-1.73,6.17-4.6,8.79-8.88,8.1-3.59-.57-7.18-5.12-7.18-9.1,0-3.55,3.56-7.34,7.22-7.69C103.14,125.9,106.13,128.84,107.48,135ZM104,138.73l2.14-3.62c-1.13-4.1-3.88-5.2-7.19-5.43-3.43,1.13-5.55,3.1-5,6.86C97.48,141.14,97.71,141.2,104,138.73Z"/><path d="M76.8,110.21c-2.79-3.87-2.67-5,.49-7.17C80.58,106.26,80.54,107.57,76.8,110.21Z"/></g></g></g></svg>