<?xml version="1.0" encoding="utf-8"?>
<!-- Generator: Adobe Illustrator 14.0.0, SVG Export Plug-In . SVG Version: 6.00 Build 43363)  -->
<!DOCTYPE svg PUBLIC "-//W3C//DTD SVG 1.1//EN" "http://www.w3.org/Graphics/SVG/1.1/DTD/svg11.dtd">
<svg version="1.1" id="Layer_1" xmlns="http://www.w3.org/2000/svg" xmlns:xlink="http://www.w3.org/1999/xlink" x="0px" y="0px"
	 width="734.963px" height="800px" viewBox="0 0 734.963 800" enable-background="new 0 0 734.963 800" xml:space="preserve">
<g>
	<path fill-rule="evenodd" clip-rule="evenodd" d="M365.375,6.996c12.971,39.878,16.896,85.751,19.409,133.708
		c2.486,47.455,6.184,97.409,4.312,147.366c-2.792,74.58-4.993,148.854-6.47,223.564c-0.773,39.143,1.447,81.955-13.658,107.11
		c-17.711-23.462-14.214-66.348-15.815-106.392c-2.904-72.665-5.338-145.889-8.626-220.689
		c-2.232-50.768,0.83-100.068,2.875-147.365c1.091-25.226,1.372-49.018,4.313-71.886C354.66,49.535,359.346,28.034,365.375,6.996z"
		/>
	<path fill-rule="evenodd" clip-rule="evenodd" d="M195.725,708.601c-1.629,20.646-0.078,34.034,7.908,43.852
		c8.698,10.694,40.535,20.107,57.508,15.815c19.66-4.973,26.786-30.569,33.068-50.32c14.131-44.432,8.961-101.739-0.719-152.398
		c-10.552-55.221-40.771-91.248-70.448-130.832c-4.136-5.519-10.364-12.213-8.626-19.409c1.196-4.953,11.81-7.379,17.972-10.064
		c13.181-5.743,23.95-11.289,36.662-18.69c5.161-3.004,12.994-6.88,15.815-11.502c8.882-14.552,4.656-44.019,2.875-66.135
		c-0.879-10.924-0.035-26.002-8.626-28.754c-10.739-3.439-30.274,13.144-38.1,17.252c-13.548,7.113-26.718,14.753-41.694,11.502
		c11.191-28.648,39.454-29.194,56.79-51.758c11.919-15.514,19.648-36.013,23.004-57.509c2.394-15.334,1.96-31.22,12.22-38.099
		c14.917,17.844,15.717,48.17,17.972,81.231c1.379,20.227,2.157,41.533,2.157,62.541c0,47.711-1.089,100.269-33.787,112.142
		c-8.596,3.121-27.572,2.677-29.473,9.346c-1.366,4.788,6.917,12.522,10.783,17.971c11.454,16.139,23.816,36.496,33.068,52.478
		c14.34,24.771,26.587,50.641,31.63,82.668c5.409,34.357,5.89,75.772,2.875,108.548c-4.062,44.166-20.793,79.839-51.758,97.765
		c-33.781,19.556-80.765-7.425-91.295-33.786C177.606,737.687,169.843,705.208,195.725,708.601z"/>
	<path fill-rule="evenodd" clip-rule="evenodd" d="M536.464,308.916c-15.156,3.207-28.077-4.353-41.695-11.502
		c-9.376-4.922-25.779-20.291-37.38-17.252c-9.596,2.513-8.428,17.353-9.346,28.754c-1.718,21.339-5.975,50.172,2.876,65.417
		c5.476,9.432,22.712,16.841,33.786,22.285c5.628,2.767,13.096,5.927,19.409,8.626c5.945,2.541,16.194,5.685,17.252,10.064
		c1.628,6.745-5.05,15.312-8.626,20.127c-28.799,38.785-59.828,74.541-70.447,130.114c-9.397,49.18-15.181,108.144-0.72,153.117
		c5.969,18.562,13.686,44.941,33.786,49.602c18.438,4.272,48.174-4.909,56.79-15.097c8.628-10.199,9.095-25.38,7.908-44.57
		c24.303-3.09,19.115,24.539,12.939,41.695c-3.843,10.674-11.373,20.536-20.129,26.598c-11.552,7.997-31.517,17.961-52.476,15.814
		c-17.826-1.825-30.082-13.19-38.819-22.284c-35.796-37.262-38.776-105.104-30.91-177.559c3.63-33.442,12.375-58.132,25.16-81.95
		c12.688-23.641,25.971-45.529,40.255-66.135c3.817-5.506,12.13-11.331,11.502-16.533c-0.998-8.282-19.271-7.078-29.473-10.783
		c-32.229-11.702-33.787-64.224-33.786-112.142c0-22.042,0.839-43.216,2.156-62.541c2.199-32.241,2.809-64.479,18.69-81.231
		c9.669,8.225,9.069,22.521,11.502,38.099c3.399,21.778,13.657,49.167,28.035,63.26
		C501.116,278.994,527.292,284.455,536.464,308.916z"/>
	<path fill-rule="evenodd" clip-rule="evenodd" d="M15.291,713.634c35.114-15.478,76.766-21.567,114.298-34.505
		c17.578-6.06,34.425-15.153,49.601-24.441c15.763-9.647,31.948-19.934,43.851-30.192c14.99-12.919,33.47-35.057,25.879-62.541
		c-20.6-2.631-34.209,12.51-51.039,19.409c-11.804,4.84-24.299,6.299-38.818,9.346c-1.555-3.235,2.963-5.514,5.032-7.188
		c7.708-6.244,17.178-11.479,26.598-17.253c16.362-10.028,32.29-23.004,52.477-25.16c14.597-1.559,26.139,11.751,26.598,28.754
		c0.425,15.788-7.72,32.791-16.534,43.851c-10.382,13.027-26.462,25.642-40.975,37.381c-13.738,11.113-28.516,23.825-45.288,33.067
		c-25.169,13.87-56.11,22.607-85.544,32.349c-10.588,3.505-21.2,8.769-29.473,9.346C35.89,726.974,27.21,718.182,15.291,713.634z"/>
	<path fill-rule="evenodd" clip-rule="evenodd" d="M577.438,590.709c-26.17-1.901-44.344-12.774-63.259-22.285
		c-6.35-3.192-20.316-10.941-26.599-6.47c-2.952,2.104-3.569,9.747-2.875,16.534c1.941,18.944,14.896,34.396,27.317,45.288
		c11.992,10.519,28.467,20.406,44.569,30.192c15.117,9.188,31.043,19.011,48.882,25.16c37.594,12.959,81.259,19.804,115.018,33.786
		c-10.883,5.507-20.381,13.724-35.944,12.939c-8.404-0.424-19.211-5.711-30.19-9.346c-29.93-9.904-58.773-17.596-85.544-32.349
		c-16.399-9.036-31.362-21.801-45.289-33.067c-14.58-11.795-30.736-24.535-40.976-37.381c-8.775-11.011-16.721-27.982-16.533-43.131
		c0.305-24.592,19.913-35.267,41.694-25.879c11.391,4.909,24.775,13.84,37.38,21.565C557.849,574.089,571.89,581.11,577.438,590.709
		z"/>
</g>
</svg>
