<?xml version="1.0" encoding="utf-8"?>
<!-- Generator: Adobe Illustrator 14.0.0, SVG Export Plug-In . SVG Version: 6.00 Build 43363)  -->
<!DOCTYPE svg PUBLIC "-//W3C//DTD SVG 1.1//EN" "http://www.w3.org/Graphics/SVG/1.1/DTD/svg11.dtd">
<svg version="1.1" id="Layer_1" xmlns="http://www.w3.org/2000/svg" xmlns:xlink="http://www.w3.org/1999/xlink" x="0px" y="0px"
	 width="800px" height="800px" viewBox="0 0 800 800" enable-background="new 0 0 800 800" xml:space="preserve">
<g>
	<path fill-rule="evenodd" clip-rule="evenodd" d="M784.938,18.096c-11.691,17.361-43.282,13.603-72.558,12.22
		c-29.677-1.403-59.298-3.228-90.124-4.583c-14.531-0.639-32.789-4.392-45.826-1.527c-10.485,2.304-17.985,14.537-22.914,24.44
		c-21.358,42.935,7.629,93.831,6.875,142.06c-7.384,15.529-26.516,19.31-45.062,23.676c-4.946,9.819-12.345,17.188-20.622,23.677
		c3.366,1.237,10.74,5.498,16.804,4.583c5.454-0.823,13.625-9.182,20.621-12.221c29.425-12.779,69.021-18.096,92.416-41.243
		c11.401-11.28,35.573-46.86,29.786-71.03c-3.072-12.832-17.717-22.264-31.314-25.968c-3.585,10.417-1.384,26.62-9.929,32.078
		c-11.175-0.369-28.032-33.98-18.33-47.353c3.651-5.034,21.618-9.107,29.023-9.929c18.37-2.04,28.462,6.224,35.133,17.566
		c9.456,16.077,18.86,47.537,17.566,63.393c-1.152,14.13-8.733,28.538-15.275,40.479c-26.009,47.476-92.79,55.033-130.604,91.652
		c-7.433,7.199-14.683,16.625-22.148,25.968c-8.2,10.261-24.101,27.48-19.095,47.354c5.74,22.787,40.615,31.321,60.338,19.094
		c18.038-11.182,22.731-33.365,35.896-48.881c4.727,12.861,13.407,19.876,11.457,36.661c-1.603,13.783-24.598,37.862-38.188,43.535
		c-23.203,9.683-67.171-1.444-78.668-18.331c-14.582-21.416-11.169-65.204-2.291-91.651c1.613-4.809,6.305-12.313,6.109-15.276
		c-0.514-7.778-11.418-10.431-18.329-13.747c-21.509,17.505-20.155,57.443-16.039,96.235c1.927,18.159,7.732,36.55,1.527,50.408
		c-8.275-1.419-20.28-8.251-22.914-16.04c-3.989-11.799-1.526-34.033-1.526-52.699c0-26.586-0.24-47.523-0.765-71.793
		c-4.518-0.687-11.014,3.234-16.802,3.819c-1.364,139.581-0.765,289.967-0.765,433.818c0,20.825,2.898,43.245,0,61.864
		c-1.445,9.288-8.039,15.661-9.929,25.968c-14.347-18.387-10.693-52.046-10.693-87.069c0-142.367,1.633-293.195,2.292-433.053
		c-4.196-2.932-10.86-3.397-16.039-5.346c-0.458,22.854-0.764,45.622-0.764,71.793c0,18.895,2.189,40.62-1.527,52.699
		c-2.585,8.4-14.15,15.344-22.913,16.803c-6.207-13.886-0.381-32.426,1.527-50.409c4.026-37.949,5.424-77.43-15.275-96.234
		c-8.696,1.997-15.073,6.312-19.094,12.983c14.644,33.189,26.077,97.346-7.638,119.148c-14.547,9.407-50.332,14.567-68.738,6.11
		c-10.644-4.89-18.969-14.907-26.732-25.204c-3.835-5.087-8.982-10.338-9.929-16.039c-2.836-17.09,7.282-26.198,11.457-38.188
		c13.231,15.069,17.636,37.566,35.133,48.881c24.402,15.78,70.352-1.277,60.338-36.661c-3.108-10.98-10.869-20.449-18.331-29.787
		c-20.815-26.047-40.718-41.846-72.558-58.81c-18.004-9.592-38.468-16.998-54.228-28.26c-18.898-13.505-34.664-40.081-40.479-66.447
		c-0.644-2.915-0.964-5.431-0.764-10.692c0.673-17.702,10.162-44.692,17.566-57.282c5.71-9.708,15.812-19.445,34.37-17.567
		c9.198,0.931,26.621,5.565,29.787,9.929c9.304,12.825-6.361,46.368-18.33,47.354c-7.953-5.795-7.256-20.24-9.165-32.079
		c-13.541,2.552-31.062,14.458-32.842,29.023c-2.026,16.576,6.87,32.485,13.748,44.298c7.107,12.208,14.757,23.023,25.969,31.314
		c31.627,23.39,74.834,24.159,103.108,45.826c6.152-0.721,12.114-1.633,16.803-3.819c-4.833-6.913-15.823-14.191-19.858-24.44
		c-18.546-4.367-37.679-8.147-45.062-23.677c-0.829-35.014,14.479-68.804,15.275-103.108c0.672-28.917-10.772-51.151-30.55-63.392
		c-44.558,0.042-91.466,3.972-136.714,6.11c-27.733,1.311-60.898,5.256-72.558-12.22c16.881-17.054,38.686-7.914,66.448-6.874
		c40.038,1.499,87.397-5.347,123.729-5.347c32.394,0,62.025,5.104,70.267,28.259c7.68,21.578,2.477,53.689-0.764,76.376
		c-1.638,11.466-5.256,21.274-8.401,33.606c-2.49,9.762-7.832,27.573-3.055,35.896c3.409,5.94,12.099,4.757,20.621,6.875
		c8.328-56.176,33.396-92.932,95.471-96.234c3.657-4.746,6.857-9.946,11.457-13.748c-0.332-16.881-0.769-33.866,8.401-41.243
		c14.017,5.23,6.038,26.628,9.93,41.243c1.614,6.065,8.456,7.443,8.4,12.984c62.661,2.004,91.171,38.16,97.762,96.234
		c8.22-2.154,17.822-0.676,21.386-6.11c5.334-8.134-0.249-26.82-3.055-37.424c-3.306-12.494-6.774-22.162-8.401-34.369
		c-3.048-22.852-9.074-55.812,0-76.376c9.624-21.813,34.92-26.231,66.447-26.732c38.192-0.607,83.394,6.82,126.021,5.346
		C743.458,10.332,768.244,0.924,784.938,18.096z M416.039,112.802c-9.364,8.874-6.873,26.072-6.873,45.062
		c0,33.944,0,71.146,0,102.344c6.339-0.789,11.6-2.656,16.802-4.583c1.726-21.848-5.404-45.354,9.93-53.463
		c8.308-4.394,20.914-4.118,32.077-6.11c11.202-1.999,22.086-4.548,32.843-6.11c-5.194-49.287-35.344-73.62-84.015-79.431
		C415.913,110.639,415.974,111.718,416.039,112.802z M299.184,190.706c10.683,1.549,21.561,4.098,32.841,6.11
		c11.273,2.011,24.736,1.519,32.842,6.11c14.609,8.276,7.237,32.272,9.165,53.463c4.75,1.474,11.404,4.735,16.039,3.818
		c0-45.316,0-90.633,0-135.95c-3.126-4.002-6.34-7.917-8.402-12.984C334.171,117.749,304.231,141.781,299.184,190.706z"/>
	<path fill-rule="evenodd" clip-rule="evenodd" d="M471.03,603.902c7.903-40.465-15.027-62.484-31.314-86.306
		c-4.34-6.348-8.516-13.34-12.983-19.858c-6.268-9.14-17.979-21.247-11.457-35.133c3.899-8.302,26.244-24.564,38.952-23.677
		c15.991,1.118,30.364,23.697,48.881,25.969c25.501,3.127,17.898-22.693,6.874-30.552c-9.7-6.911-26.15-1.708-33.605-7.637
		c13.439-10.475,47.366,0.854,55.754,10.693c13.242,15.53-0.906,52.122-22.912,50.408c-10.998-0.857-19.94-9.042-29.787-16.04
		c-6.717-4.773-23.404-16.233-32.078-13.748c-4.728,1.355-8.148,11.747-7.638,19.096c0.83,11.931,11.768,23.039,19.094,34.368
		c10.738,16.604,23.22,31.557,22.913,58.81C481.548,585.972,477.832,592.219,471.03,603.902z"/>
	<path fill-rule="evenodd" clip-rule="evenodd" d="M323.624,426.709c-2.495,5.24-10.225,3.091-16.04,3.819
		c-5.082,0.636-12.029,1.536-16.039,3.817c-10.328,5.876-22.442,33.341,3.818,31.315c10.118-0.781,18.772-7.321,25.968-12.22
		c7.287-4.962,16.021-12.942,23.677-13.748c13.142-1.385,39.749,17.141,41.243,29.021c0.317,2.522-0.214,5.934-0.764,8.403
		c-2.918,13.097-15.845,26.619-25.204,40.479c-8.8,13.032-20.294,26.187-26.732,38.952c-5.807,11.516-6.745,31.753-3.819,48.116
		c-11.5-13.561-14.97-36.335-8.401-58.045c3.427-11.328,13.477-23.628,19.858-33.605c7.157-11.191,18.046-23.052,19.094-34.369
		c0.654-7.065-2.788-18.403-6.874-19.858c-8.615-3.066-25.116,8.881-32.078,13.748c-11.169,7.808-23.978,19.497-38.952,15.275
		c-13.825-3.898-27.991-33.837-14.512-49.646C276.761,427.737,306.994,418.285,323.624,426.709z"/>
</g>
</svg>
