<?xml version="1.0" encoding="UTF-8" standalone="no"?>
<!-- Created with Inkscape (http://www.inkscape.org/) -->

<svg
   xmlns:dc="http://purl.org/dc/elements/1.1/"
   xmlns:cc="http://creativecommons.org/ns#"
   xmlns:rdf="http://www.w3.org/1999/02/22-rdf-syntax-ns#"
   xmlns:svg="http://www.w3.org/2000/svg"
   xmlns="http://www.w3.org/2000/svg"
   xmlns:sodipodi="http://sodipodi.sourceforge.net/DTD/sodipodi-0.dtd"
   xmlns:inkscape="http://www.inkscape.org/namespaces/inkscape"
   width="48.220573mm"
   height="63.120014mm"
   viewBox="0 0 170.8603 223.65359"
   id="svg6561"
   version="1.1"
   inkscape:version="0.91 r13725"
   sodipodi:docname="zatalef.svg">
  <defs
     id="defs6563" />
  <sodipodi:namedview
     id="base"
     pagecolor="#ffffff"
     bordercolor="#666666"
     borderopacity="1.0"
     inkscape:pageopacity="0.0"
     inkscape:pageshadow="2"
     inkscape:zoom="1.4"
     inkscape:cx="13.786729"
     inkscape:cy="118.49477"
     inkscape:document-units="px"
     inkscape:current-layer="layer1"
     showgrid="false"
     fit-margin-top="0"
     fit-margin-left="0"
     fit-margin-right="0"
     fit-margin-bottom="0"
     inkscape:window-width="1366"
     inkscape:window-height="705"
     inkscape:window-x="-8"
     inkscape:window-y="-8"
     inkscape:window-maximized="1" />
  <metadata
     id="metadata6566">
    <rdf:RDF>
      <cc:Work
         rdf:about="">
        <dc:format>image/svg+xml</dc:format>
        <dc:type
           rdf:resource="http://purl.org/dc/dcmitype/StillImage" />
        <dc:title></dc:title>
      </cc:Work>
    </rdf:RDF>
  </metadata>
  <g
     inkscape:label="Layer 1"
     inkscape:groupmode="layer"
     id="layer1"
     transform="translate(-259.92519,-416.57229)">
    <path
       style="fill:#000000;fill-opacity:1"
       d="m 318.05661,622.99075 c 0.88544,-26.03232 3.66951,-35.55754 17.14004,-58.64178 l 7.70106,-13.19718 -2.6384,-4.50209 -2.6384,-4.50209 -2.08521,2.79657 c -1.14686,1.53811 -7.79941,8.64657 -14.78343,15.79657 -19.92868,20.40228 -24.4813,26.80887 -29.00829,40.82144 -1.7013,5.2661 -3.01129,7.36586 -6.29932,10.09709 -2.28324,1.89658 -4.3001,3.29957 -4.48191,3.11775 -1.2239,-1.2239 7.2828,-20.45468 20.58525,-46.53628 16.21902,-31.80002 24.71506,-50.89675 23.28149,-52.33031 -0.46263,-0.46263 -3.48006,0.94792 -6.70541,3.13455 -3.22536,2.18663 -11.03928,6.62599 -17.36428,9.86524 -9.23578,4.72997 -13.41967,6.24915 -21.25,7.71593 -5.3625,1.00451 -9.75,2.30579 -9.75,2.89174 0,0.58595 0.74474,1.8883 1.65499,2.89411 1.54413,1.70625 1.52739,1.96993 -0.25,3.93667 -1.04775,1.15936 -3.18091,3.01736 -4.74038,4.12889 -2.42286,1.72693 -3.03796,1.8184 -4.22768,0.62868 -0.76576,-0.76576 -1.68842,-2.87293 -2.05035,-4.6826 -0.59951,-2.99753 -0.22332,-3.69703 4.22768,-7.86121 7.13854,-6.67854 8.24159,-7.22424 18.00075,-8.90528 12.54542,-2.16098 16.6073,-3.50166 27.91638,-9.21418 13.73522,-6.93802 13.78872,-6.9855 12.39037,-10.99683 l -1.14169,-3.27503 -3.14003,2.39457 c -2.95558,2.25391 -14.91229,8.67506 -16.15368,8.67506 -0.31387,0 0.54107,-1.9125 1.89987,-4.25 2.79816,-4.81362 7.64369,-16.73074 9.91264,-24.37926 l 1.52162,-5.12925 -2.84218,1.0728 c -2.47012,0.93236 -3.32333,2.45468 -6.51782,11.62925 -7.64055,21.94369 -13.1038,27.74524 -30.25902,32.13281 -5.5998,1.43219 -8.50817,2.79782 -10.90409,5.12004 -1.79708,1.7418 -3.51125,2.92307 -3.80927,2.62505 -1.00513,-1.00513 12.33892,-12.60988 15.69032,-13.6452 1.82687,-0.56436 5.85191,-1.73084 8.94456,-2.59218 5.37322,-1.49652 5.72438,-1.79969 7.90545,-6.82507 1.25536,-2.89245 3.55928,-9.48399 5.11983,-14.64787 1.56054,-5.16388 3.38823,-10.05264 4.06152,-10.8639 0.67329,-0.81127 3.64059,-2.83878 6.594,-4.50558 2.95342,-1.6668 5.60204,-3.63564 5.88583,-4.3752 0.96637,-2.5183 -2.76896,-16.13634 -6.58648,-24.01263 -5.63208,-11.62006 -14.96297,-19.35381 -23.35067,-19.35381 l -3.00327,0 0.45274,8.25 c 0.50939,9.28235 2.53157,14.23551 8.51622,20.8598 4.05531,4.48874 8.03627,6.88278 11.48218,6.90508 2.07767,0.0134 1.91353,0.35013 -1.70034,3.48791 -4.91581,4.26819 -7.39961,5.01548 -11.82061,3.55642 -4.01929,-1.32649 -10.90542,-9.05527 -13.70316,-15.38003 -2.57816,-5.82837 -3.45737,-14.18903 -2.04364,-19.4335 0.9324,-3.45889 2.58844,-5.48656 8.85712,-10.84478 7.48829,-6.4007 7.83572,-6.57346 12.06658,-6.00024 5.77534,0.78248 13.59709,5.14281 17.58695,9.80406 4.32592,5.05387 9.02919,14.95007 10.59605,22.29528 1.92961,9.04573 2.28964,9.32081 5.35444,4.09112 3.60456,-6.15071 5.60627,-12.04443 5.60627,-16.50675 0,-3.46344 -2.55375,-14.97145 -3.54152,-15.95922 -1.13426,-1.13427 -1.31935,0.79485 -0.39683,4.13596 0.95839,3.47099 0.82316,3.81996 -2.7771,7.16671 -6.04592,5.6202 -6.10937,5.55405 -8.34638,-8.70013 l -1.21977,-7.77231 3.8908,-3.45202 c 4.05596,-3.59856 10.0832,-5.94236 12.69945,-4.93842 2.23677,0.85833 6.36507,7.33894 7.60291,11.93506 0.59251,2.2 1.0798,6.4877 1.08286,9.52821 0.008,7.53205 -5.11666,18.15163 -12.48744,25.87912 -3.19368,3.34824 -5.50698,6.68067 -5.50698,7.93308 0,1.18778 0.25458,2.15959 0.56574,2.15959 1.14237,0 4.99589,-2.30606 7.18426,-4.29928 1.2375,-1.12714 2.25,-1.52658 2.25,-0.88764 0,0.73602 1.92374,0.314 5.25,-1.15171 l 5.25,-2.31341 5,2.20122 c 3.28731,1.44722 5.22871,1.8412 5.6677,1.15017 0.40851,-0.64305 2.07182,0.18178 4.2848,2.1248 4.28107,3.75883 5.54978,3.97082 5.54103,0.92585 -0.004,-1.34691 -2.17799,-4.54107 -5.41668,-7.95805 -2.97563,-3.13943 -6.91022,-8.75631 -8.74354,-12.48196 -2.95987,-6.01499 -3.32783,-7.67219 -3.28436,-14.79194 0.0527,-8.62654 1.47329,-12.66032 6.2606,-17.77671 2.21009,-2.36201 3.09231,-2.66389 6.13584,-2.09956 1.95503,0.3625 5.51781,2.26215 7.91728,4.22144 l 4.36267,3.56236 -0.6192,5.26843 c -0.96063,8.17353 -2.67834,15.30599 -3.68612,15.30599 -0.50284,0 -2.69245,-1.60649 -4.86579,-3.56997 -3.4653,-3.13069 -3.8348,-3.87699 -3.00288,-6.0651 1.38387,-3.63984 1.26295,-6.07923 -0.22747,-4.58881 -1.71866,1.71866 -3.61981,12.01419 -3.18052,17.22388 0.41978,4.9783 6.06344,17.19115 8.24584,17.84394 0.77127,0.2307 1.10437,-0.0453 0.74886,-0.62055 -1.0217,-1.65315 4.88797,-18.42084 8.2459,-23.39635 6.22068,-9.21729 11.38207,-13.04736 20.10303,-14.91767 5.86817,-1.2585 7.10639,-0.69408 15.3816,7.01132 6.05014,5.63355 7.83401,9.64897 7.53304,16.9566 -0.31335,7.60831 -2.14753,12.46048 -7.17237,18.97385 -7.85267,10.17891 -13.79514,11.738 -20.10599,5.2751 l -3.78263,-3.87376 3.45543,-0.64825 c 3.71643,-0.6972 12.12982,-8.65956 14.9858,-14.18242 3.79759,-7.34373 4.3934,-23.02622 0.83624,-22.0111 -0.88996,0.25398 -3.57644,1.02542 -5.96995,1.71433 -9.51255,2.73793 -19.00086,15.50903 -22.56714,30.37496 -3.18718,13.2857 -3.50071,11.92009 3.6856,16.05329 3.51878,2.02382 6.95877,4.57797 7.64442,5.67587 0.68566,1.09791 2.14648,5.43165 3.24627,9.63054 2.24479,8.57034 5.48159,16.81701 7.56868,19.28334 0.76472,0.90368 4.35158,2.38687 7.97079,3.29599 8.66178,2.17577 11.84547,3.88818 17.55175,9.44053 5.67509,5.522 6.24878,7.45327 1.00147,3.37133 -2.0625,-1.60444 -6.675,-3.7097 -10.25,-4.67836 -17.7934,-4.82118 -24.35943,-11.77234 -31.49109,-33.33824 -2.51063,-7.59205 -5.77768,-12.23429 -8.61008,-12.23429 -1.1894,0 5.61536,19.08524 9.6887,27.17381 1.89069,3.75441 3.15745,6.82619 2.81502,6.82619 -1.02754,0 -12.72215,-6.27812 -15.28741,-8.20688 -3.21075,-2.41409 -3.74769,-2.28593 -4.957,1.18308 l -1.03751,2.9762 12.18969,6.45419 c 12.06309,6.38715 17.2532,8.08201 32.36136,10.56774 6.7045,1.10309 7.56764,1.55093 13.25,6.87482 6.65959,6.23946 7.5633,9.09541 4.19449,13.25572 l -1.88384,2.32643 -4.61616,-3.7826 c -2.5389,-2.08043 -4.61617,-3.99629 -4.61617,-4.25746 0,-0.26118 0.90248,-1.44357 2.00552,-2.62754 1.10303,-1.18396 1.66553,-2.46935 1.25,-2.85641 -0.41554,-0.38706 -4.80552,-1.48127 -9.75552,-2.43159 -10.63746,-2.04221 -30.72811,-11.44085 -41.27722,-19.30996 -1.80247,-1.34455 -3.56207,-2.15979 -3.91022,-1.81164 -1.78632,1.78632 4.51717,16.03393 23.07063,52.1459 7.62958,14.85 15.33074,30.825 17.1137,35.5 1.78296,4.675 3.57369,9.2875 3.97941,10.25 1.11191,2.6378 -0.54624,2.04669 -4.7997,-1.71105 -2.95809,-2.61334 -4.5966,-5.45751 -7.23985,-12.56717 -4.44799,-11.9639 -9.88826,-19.51691 -25.90971,-35.97178 -7.22943,-7.425 -14.54936,-15.16768 -16.26651,-17.20596 l -3.1221,-3.70597 -2.57863,4.40011 -2.57864,4.40011 7.78909,13.30585 c 10.80513,18.45807 13.88514,26.37116 16.152,41.49741 1.27204,8.48804 1.44649,32.96252 0.24026,33.70802 -0.46063,0.28468 -2.53601,-1.22183 -4.61196,-3.3478 l -3.77446,-3.8654 0.16059,-12.45852 c 0.31596,-24.51134 -6.27909,-48.81462 -16.75843,-61.75604 l -1.90586,-2.35365 -4.65355,7.94092 c -9.28546,15.84494 -12.70488,29.86508 -13.15375,53.93233 l -0.29824,15.9914 -3.83343,3.24372 c -2.10838,1.78404 -4.23615,3.25041 -4.72838,3.25859 -0.51489,0.009 -0.64578,-7.31081 -0.30823,-17.23512 z m 13.96293,-78.3346 3.68411,-6.0846 -3.22192,-6.66111 c -1.77206,-3.66362 -3.44693,-6.64328 -3.72193,-6.62148 -0.275,0.0218 -4.88918,8.90738 -10.25374,19.74572 -5.36456,10.83834 -11.34692,22.63107 -13.29414,26.20607 l -3.5404,6.5 13.33195,-13.5 c 7.4106,-7.50401 14.96824,-16.20246 17.01607,-19.5846 z m 43.50255,6.8346 c -7.18851,-14.1625 -13.19631,-25.90804 -13.35068,-26.10119 -0.49606,-0.62072 -6.41161,11.73561 -6.41161,13.3925 0,1.53289 4.1497,8.12765 8.45511,13.43698 2.09575,2.58443 23.75649,25.02171 24.15572,25.02171 0.12181,0 -5.66004,-11.5875 -12.84854,-25.75 z m -26.77581,-10.70904 c 0.92852,-2.81345 0.76768,-3.8433 -1.09265,-6.99634 -2.31358,-3.92121 -2.42867,-3.88533 -5.4534,1.70017 -1.35757,2.50688 -1.30602,3.09836 0.59475,6.82417 2.3741,4.65361 4.05349,4.22242 5.9513,-1.528 z m -8.04904,-13.73247 c 1.00069,-3.13306 0.86769,-4.6996 -0.87919,-10.35533 -3.02869,-9.80576 -2.68946,-15.68437 0.70897,-12.28594 1.76717,1.76717 2.66587,-1.48947 1.17815,-4.2693 -1.16611,-2.17889 -1.25687,-2.1924 -2.57917,-0.38406 -0.75379,1.03087 -2.70741,5.34096 -4.34137,9.57799 l -2.97086,7.70367 3.1185,7.65676 c 1.71517,4.21122 3.44866,7.29473 3.85221,6.85224 0.40354,-0.44249 1.26429,-2.4657 1.91276,-4.49603 z m 15.53829,-3.15946 2.83513,-6.85096 -3.2945,-8.14904 c -4.34181,-10.73957 -5.00061,-11.52671 -6.78958,-8.11232 -0.91527,1.74683 -1.06517,3.0249 -0.42937,3.6607 0.63581,0.63581 1.21143,0.5973 1.64874,-0.11028 0.36954,-0.59792 1.09533,-1.08713 1.61287,-1.08713 1.63435,0 1.02145,7.37339 -1.14656,13.79319 -2.02254,5.98909 -2.03333,6.32346 -0.34641,10.74058 0.95761,2.50749 2.04114,4.20067 2.40783,3.76265 0.36669,-0.43803 1.94252,-3.87936 3.50185,-7.64739 z m -37.57342,-18.13141 c 2.15845,-1.10794 2.41222,-1.91558 2.5,-7.95652 0.0796,-5.47751 0.4647,-6.99167 2.07823,-8.17107 2.08552,-1.5244 6.307,-1.10208 9.86729,0.98713 1.50376,0.88242 2.02503,0.8113 2.43448,-0.33214 0.28655,-0.80023 2.52557,-3.59801 4.97558,-6.21727 l 4.45458,-4.7623 3.86168,3.21727 c 2.12393,1.76951 4.38072,4.45478 5.01509,5.96728 1.22926,2.93087 2.04875,3.25827 4.7265,1.88833 7.49445,-3.83416 11.18426,-1.24721 11.18426,7.84135 0,5.95948 0.0134,5.98649 3.96016,8 2.17809,1.11117 4.21067,2.02032 4.51685,2.02032 0.30617,0 -0.50524,-2.1375 -1.80315,-4.75 -1.29791,-2.6125 -4.04197,-9.14151 -6.09792,-14.50891 -2.05596,-5.3674 -4.15161,-9.50334 -4.65702,-9.19098 -0.50541,0.31236 -0.91892,1.20053 -0.91892,1.97372 0,0.77319 -0.88972,1.88197 -1.97716,2.46395 -2.63684,1.41119 -7.54633,-0.65905 -12.7836,-5.39061 -2.1899,-1.97844 -4.22203,-3.59717 -4.51583,-3.59717 -0.2938,0 -2.48926,1.64025 -4.8788,3.64499 -7.88344,6.61396 -13.23558,7.62975 -14.46165,2.74471 -0.32988,-1.31434 -0.93941,-2.3897 -1.35452,-2.3897 -0.41511,0 -2.21604,4.08514 -4.00206,9.07808 -1.78602,4.99295 -4.48295,11.52775 -5.99318,14.52179 -2.63419,5.22232 -2.6602,5.41742 -0.63953,4.79728 1.15848,-0.35553 3.18737,-1.20132 4.50864,-1.87953 z m 29.09769,0.49784 c 0,-0.42382 -0.61529,-1.28122 -1.36732,-1.90535 -1.04292,-0.86554 -1.68011,-0.75788 -2.6857,0.45377 -1.09265,1.31657 -1.08809,1.73087 0.0266,2.41982 1.45565,0.89964 4.02638,0.28144 4.02638,-0.96824 z m -13.61972,-5.62405 c 1.58415,-1.9053 2.61069,-3.73377 2.28121,-4.06326 -1.13983,-1.13982 -5.40695,2.55997 -5.89459,5.11088 -0.64353,3.36643 0.12975,3.14224 3.61338,-1.04762 z m 25.67244,-0.26413 c -1.06564,-2.57269 -4.69956,-4.81378 -5.88437,-3.62897 -0.51956,0.51956 6.18433,7.43904 6.71625,6.93225 0.21153,-0.20154 -0.16281,-1.68801 -0.83188,-3.30328 z m -20.05272,-8.24972 c 0,-1.76626 -0.24988,-1.91507 -1.48899,-0.8867 -1.50499,1.24904 -1.18445,3.00914 0.54801,3.00914 0.51754,0 0.94098,-0.9551 0.94098,-2.12244 z m 13.98469,1.37244 c -0.0189,-0.92503 -1.91864,-3.94289 -2.04589,-3.25 -0.0505,0.275 -0.24257,1.2875 -0.42683,2.25 -0.19111,0.99836 0.27126,1.75 1.07651,1.75 0.77634,0 1.40463,-0.3375 1.39621,-0.75 z m 1.59567,-18.75282 c -0.6479,-1.10466 -3.53419,-0.26522 -3.70856,1.0035 -0.091,0.66244 1.06015,1.11335 1.72321,1.02694 0.93865,-0.12233 2.46425,-1.21393 1.98535,-2.03044 z m -16.41072,0.63675 c -0.26252,-0.88158 -1.5012,-1.68313 -2.37696,-1.40179 -0.43994,0.14133 -0.71126,0.83105 -0.56054,1.26786 0.2929,0.84887 1.52201,1.54252 2.37696,1.26786 0.40143,-0.12896 0.68088,-0.72983 0.56054,-1.13393 z m -51.58801,95.11607 c 5.67277,-10.20073 7.70291,-13.25065 12.7738,-19.19023 2.55451,-2.99213 4.679,-5.91713 4.72108,-6.5 0.0421,-0.58287 0.22552,-1.83538 0.40764,-2.78335 0.18212,-0.94797 0.6464,-3.58968 1.03174,-5.87048 l 0.70062,-4.14691 -2.92431,1.72744 c -5.09703,3.01089 -7.78637,5.3527 -7.02332,6.11575 0.40645,0.40645 1.86046,-0.31455 3.23112,-1.60222 1.37066,-1.28767 2.75998,-2.07336 3.08736,-1.74597 1.34576,1.34576 -0.98384,4.84175 -6.19043,9.28987 -4.94867,4.22779 -5.77769,4.60365 -7.96044,3.60912 -1.3417,-0.61132 -2.43649,-1.96672 -2.43649,-3.0165 0,-2.76548 7.48811,-9.68983 15,-13.87067 3.575,-1.98972 8.13976,-4.88851 10.1439,-6.44176 2.00415,-1.55325 3.84008,-2.82409 4.07985,-2.82409 0.23977,0 -0.0795,3.55552 -0.70942,7.90115 -1.05265,7.26154 -1.46906,8.21271 -5.14406,11.75 -4.32392,4.16189 -9.7465,12.1626 -13.93857,20.56557 -2.54668,5.1048 -9.9298,13.78328 -11.72597,13.78328 -0.48283,0 0.81133,-3.0375 2.8759,-6.75 z m 113.75178,2.45458 c -2.29163,-2.31252 -5.39068,-6.67958 -6.88678,-9.70458 -3.97039,-8.02785 -8.57649,-14.95291 -12.97012,-19.5 -3.30046,-3.41574 -4.10501,-5.16853 -5.50816,-12 -0.90374,-4.4 -1.50358,-8.17525 -1.33297,-8.38945 0.1706,-0.2142 1.78493,0.72314 3.5874,2.08297 1.80247,1.35984 6.54469,4.37034 10.53826,6.69001 8.62461,5.00962 15.23896,11.01641 15.23896,13.83919 0,2.63529 -2.41494,4.60679 -4.70201,3.83862 -2.26037,-0.7592 -8.68769,-6.70027 -10.89782,-10.07335 -2.20424,-3.36411 -1.0029,-4.40285 1.91822,-1.6586 2.41057,2.26461 3.68161,2.73521 3.68161,1.36311 0,-1.04286 -9.07171,-7.45412 -9.68274,-6.84309 -0.25468,0.25468 0.0172,2.19274 0.60427,4.30682 0.58702,2.11407 1.06983,5.00283 1.07289,6.41946 0.003,1.47562 1.11214,3.6111 2.59648,5 3.89637,3.64585 8.65123,10.47 13.79325,19.79601 2.53872,4.60443 4.61585,8.54193 4.61585,8.75 0,1.17199 -1.97936,-0.19628 -5.66659,-3.91712 z m -58.9497,-112.26816 -2.71808,-3.56359 3.18335,-3.18335 3.18335,-3.18335 3.05923,3.27338 3.05923,3.27337 -2.82539,3.40136 c -1.55397,1.87075 -3.14,3.43385 -3.52451,3.47356 -0.38451,0.0397 -1.92224,-1.53141 -3.41718,-3.49138 z"
       id="path7120"
       inkscape:connector-curvature="0"
       sodipodi:nodetypes="sscccsssscssssssssssssssscsssscsssssssssssssscsscsssssssssssssscssscsssssscssscsssssscssssssscsssssscssssssssssssssssssscsssscsssssssssssssscccsscscsscsscscsscsssscssscssssssssssssssscsssscssssssssssssssscsssssssssssssssssssscsscccscsssssssssscccscaaaaaaaaasscsscssscssssssssssssssscssssssssccssssscccccscs" />
  </g>
</svg>
