<?xml version="1.0" encoding="utf-8"?>
<!-- Generator: Adobe Illustrator 14.0.0, SVG Export Plug-In . SVG Version: 6.00 Build 43363)  -->
<!DOCTYPE svg PUBLIC "-//W3C//DTD SVG 1.1//EN" "http://www.w3.org/Graphics/SVG/1.1/DTD/svg11.dtd">
<svg version="1.1" id="Layer_1" xmlns="http://www.w3.org/2000/svg" xmlns:xlink="http://www.w3.org/1999/xlink" x="0px" y="0px"
	 width="714px" height="800px" viewBox="0 0 714 800" enable-background="new 0 0 714 800" xml:space="preserve">
<g>
	<path fill-rule="evenodd" clip-rule="evenodd" d="M366.326,6.017c3.112-0.798,2.237,2.392,3.473,3.472
		c32.593,6.309,47.048,33.742,71.759,50.926c19.645,27.035,40.257,53.105,55.556,84.49c0.979,11.365,5.79,18.899,10.416,26.621
		c11.731,3.096,22.622,9.991,33.565,10.417c0.126,13.761,4.65,23.127,10.416,31.25c-5.533,1.797-13.003,1.657-15.047,6.944
		c-0.256,10.208,10.122,14.758,15.047,21.991c8.486,12.463,11.266,29.225,25.463,37.036c3.731-0.897,6.84-2.419,9.259-4.629
		c10.9,11.679,9.33,28.032,13.889,43.982c4.264,14.919,18.864,26.126,24.307,38.194c-2.454,12.79-0.871,23.568,9.258,26.62
		c2.658,22.186,17.841,41.939,24.306,67.13c7.148,27.855,5.939,52.646,2.315,86.805c-0.916,8.636,0.934,17.865-1.157,25.463
		c-1.367,4.961-6.377,8.986-8.104,13.889c-9.778,27.783-14.279,58.701-28.934,82.176c-10.529,16.863-26.009,31.824-47.454,38.193
		c-10.177,7.57-19.478,16.017-31.25,21.991c-31.448,36.472-82.173,45.892-141.202,50.926c12.463-12.983,25.642-21.767,43.981-26.621
		c21.307-10.808,38.492-23.342,59.026-32.406c22.076-18.434,48.69-32.328,65.972-55.556c12.482-43.56,51.298-73.909,55.556-128.473
		c1.687-21.611-9.196-36.332-12.73-56.711c-4.66-6.143-9.613-11.993-12.732-19.676c5.156-9.536-3.419-14.479-5.786-20.834
		c-3.613-9.698-1.118-22.987-9.26-27.777c-18.187,10.047,1.562,38.936-4.63,62.5c-5.168,3.319-14.715,2.259-19.676,5.787
		c-7.752-7.137-15.026-7.632-27.777-9.259c1.938,10.438,0.355,16.034-4.629,28.934c-2.459,6.361-4.298,14.185-6.944,17.361
		c-3.347,4.015-8.6,2.642-12.732,5.787c-8.699,6.62-9.328,16.618-12.73,25.463c-7.603,2.43-10.141,9.92-15.047,15.046
		c-2.184,20.957-16.943,36.74-24.305,54.397c-1.44,3.451-0.704,7.234-2.316,10.417c-5.489,10.837-14.703,17.343-17.36,30.093
		c-2.94,14.109-2.173,22.787-10.417,32.407c-11.628,6.118-20.357,15.136-30.092,23.148c-4.945,18.589-21.587,25.48-31.25,39.351
		c-6.632-0.303-15.346,8.831-24.306,5.788c5.181-15.652,12.848-28.819,25.463-37.036c0.638-5.15,0.913-10.661,3.473-13.891
		c3.411-7.36,15.259-10.939,18.518-20.832c2.445-7.422-1.414-14.266-1.156-23.149c0.786-27.173,14.129-62.437,6.944-85.646
		c5.288-35.065,7.13-77.161-6.944-103.01c9.622-17.211-7.312-31.193-3.473-46.296c-17.992-36.737-5.581-104.846-37.037-130.786
		c-33.235,3.802-55.184,18.891-86.806,24.306c-5.269,11.32-11.761,21.417-18.518,31.25c-19.67-1.538-27.443,8.821-30.093,24.305
		c-16.137,3.178-29.631,12.228-42.823,24.306c-5.17,4.733-15.524,17.075-16.205,21.991c-0.862,6.231,5.077,15.524,3.472,24.306
		c-1.897,10.386-11.096,17.571-10.416,26.619c0.953,12.673,18.851,30.732,19.675,46.297c13.932,8.097,29.331,20.771,50.926,17.361
		c12.86-6.791-1.071-39.431,15.046-39.353c5.189,2.39,7.292,8.579,13.889,10.417c8.305,2.313,27.188,2.13,35.88,0
		c6.204-1.521,29.817-22.941,30.092-30.092c0.311-8.059-8.406-10.123-13.889-13.89c-6.18-4.244-8.084-14.143-15.046-13.888
		c-11.531,0.42-4.852,13.925-16.204,16.203c-0.159,4.634-1.941,13.075-9.259,13.888c-5.853-22.045,6.023-49.292,21.991-54.397
		c23.475-7.505,56.055,7.721,68.287,20.834c7.915,8.485,11.273,16.035,18.518,24.305c10.458,71.64-38.359,97.297-71.759,125
		c-30.008,12.27-81.249,27.375-118.055,11.573c-8.326,4.469-8.873-2.633-17.361-6.944c-6.386-3.243-13.618-2.854-16.204-4.629
		c-4.338-2.976-9.166-11.659-15.046-17.362c-13.565-13.154-25.142-30.164-37.037-48.609c-1.211-1.877-4.353-2.654-5.787-4.631
		c-2.635-3.627-3.336-9.315-5.787-12.729c-6.585-9.179-15.627-17.035-17.361-23.149c-6.574-23.179,5.594-54-1.158-75.23
		c4.677-8.441,12.112-14.124,18.519-20.833c-6.887-32.039,1.555-54.75,15.046-78.704c10.377-18.425,17.752-35.803,35.879-42.824
		c2.831-3.343,5.753-6.592,6.945-11.574c7.913-3.15,13.689-10.899,20.833-17.361c11.137-10.073,35.826-37.461,48.611-40.509
		c5.717-1.364,23.865-3.125,28.935-2.315c5.045,0.806,6.312,5.204,10.417,6.945c7.365,3.124,15.845,1.86,25.463,5.787
		c-11.513-27.138-45.884-31.983-77.546-35.879c-5.134,2.196-4.942,9.718-6.944,15.046c-21.567-10.068-33.602-29.67-55.556-39.352
		c-22.452-2.78-32.69-15.325-49.768-25.463c-4.503-2.827-14.168-0.493-15.047-6.944c14.803-9.991,34.972-4.666,54.398-4.63
		c24.022,0.044,49.891-0.384,72.917,4.63c28.024,6.102,51.361,22.875,74.074,30.092c39.326-7.254,44.825,32.124,78.703,30.093
		c3.976,3.74,7.381,8.05,12.733,10.416c8.718-6.327,20.371-9.719,26.619-18.518c7.027,8.679,20.938,12.863,27.778,1.157
		c9.401,5.31,22.044-0.343,26.619-6.944c-2.258-7.388-8.913-10.376-13.889-15.046c-8.454,2.733-15.635,6.741-25.463,8.102
		c0.599-25.391,3.889-44.656-3.472-65.972c-2.012-5.828-7.541-9.273-10.416-15.046c-3.498-7.02-8.449-26.569-8.103-34.722
		c-4.826-4.521-9.835-13.425-8.102-20.833C371.098,10.669,362.565,10.622,366.326,6.017z M470.492,451.616c0-3.087,0-6.174,0-9.259
		c4.595-4.546,4.211-11.232,5.787-18.519c2.205-10.192,6.79-26.429,9.26-33.565c4.063-11.74-2.398-25.031-3.473-39.352
		c-1.521-20.283-0.815-34.845-17.361-37.037c-0.065-0.706-0.173-1.371-1.157-1.158c-6.305,9.99,5.214,20.731,2.314,35.879
		c-11.918,3.409-24.696-1.241-35.879-2.315c4.66,12.701,4.637,30.085,9.26,42.824c-9.658,17.714-16.267,35.372-16.204,60.186
		c0.06,23.525,5.405,51.31,2.314,72.916c-0.821,5.739-4.508,9.766-4.629,15.046c-0.249,10.779,6.215,20.254,6.943,30.092
		c1.313,17.716-12.077,27.846-12.73,43.981c4.548,3.166,5.844,9.588,13.888,9.26c0.237-18.551,11.207-37.022,12.732-55.556
		c1.203-14.631-1.672-27.719,8.102-38.195c-6.324-1.715-6.665,6.819-12.732,6.945c-11.7,0.242-11.333-14.209-1.156-16.204
		c5.857-0.803,6.854,3.942,11.573,1.158c2.562-6.866,6.292-12.143,12.732-13.888C449.669,487.796,462.084,464.123,470.492,451.616z
		 M564.241,393.746c1.389-4.842,1.564-17.498-4.629-18.519C558.492,381.142,555.817,394.038,564.241,393.746z"/>
	<path fill-rule="evenodd" clip-rule="evenodd" d="M24.893,374.07c3.328,3.644,2.895,14.496,1.157,19.676c-3.086,0-6.173,0-9.259,0
		C12.993,386.011,13.226,369.131,24.893,374.07z"/>
	<path fill-rule="evenodd" clip-rule="evenodd" d="M36.467,441.199c-0.138,3.334,0.632,7.576-1.158,9.26
		c-2.691-1.167-3.732-3.984-3.472-8.102C33.913,442.504,34.278,440.939,36.467,441.199z"/>
	<path fill-rule="evenodd" clip-rule="evenodd" d="M675.353,613.652c-4.199-1.201-7.368-3.435-10.416-5.788
		c-2.19-10.424,5.104-19.307,5.786-28.935c0.248-3.495-2.113-7.92-1.158-11.574c1.524-5.823,11.121-11.647,13.89-20.833
		c4.84-16.055-1.527-40.988,5.787-52.083c1.157,0,2.314,0,3.473,0C705.622,536.967,686.506,580.551,675.353,613.652z"/>
	<path fill-rule="evenodd" clip-rule="evenodd" d="M480.908,617.124c-4.261,16.57-9.527,32.139-23.146,39.353
		c-2.511-8.292,0.36-21.967-3.474-28.936C469.151,630.058,464.831,613.393,480.908,617.124z"/>
	<path fill-rule="evenodd" clip-rule="evenodd" d="M673.037,658.791c-7.251-13.193,5.226-30.331,16.204-28.936
		C689.082,644.742,685.785,656.493,673.037,658.791z"/>
	<path fill-rule="evenodd" clip-rule="evenodd" d="M315.4,789.576c-1.154,1.547-3.128,2.274-3.472,4.631
		c-10.605-3.284-17.497-10.281-30.092-11.574C283.746,753.9,305.639,784.857,315.4,789.576z"/>
	<path fill-rule="evenodd" clip-rule="evenodd" d="M345.493,768.743c3.827,3.391,1.548,10.89,1.157,16.205
		c-0.71-3.148-6.06-1.656-8.102-3.474c0.024-3.448,5.46-1.484,6.945-3.473C342.935,775.464,346.638,773.274,345.493,768.743z"/>
	<path fill-rule="evenodd" clip-rule="evenodd" d="M251.743,780.317c-2.001,10.733-24.402,10.181-27.777,1.157
		C227.868,770.06,245.879,773.292,251.743,780.317z"/>
</g>
</svg>
