<?xml version="1.0" encoding="UTF-8" standalone="no"?>
<!-- Created with Inkscape (http://www.inkscape.org/) -->

<svg
   xmlns:dc="http://purl.org/dc/elements/1.1/"
   xmlns:cc="http://creativecommons.org/ns#"
   xmlns:rdf="http://www.w3.org/1999/02/22-rdf-syntax-ns#"
   xmlns:svg="http://www.w3.org/2000/svg"
   xmlns="http://www.w3.org/2000/svg"
   xmlns:sodipodi="http://sodipodi.sourceforge.net/DTD/sodipodi-0.dtd"
   xmlns:inkscape="http://www.inkscape.org/namespaces/inkscape"
   width="354.32596"
   height="500.00198"
   id="svg3071"
   version="1.1"
   inkscape:version="0.48.4 r9939"
   sodipodi:docname="Pewter (Feruchemy).svg">
  <defs
     id="defs3073" />
  <sodipodi:namedview
     id="base"
     pagecolor="#ffffff"
     bordercolor="#666666"
     borderopacity="1.0"
     inkscape:pageopacity="0.0"
     inkscape:pageshadow="2"
     inkscape:zoom="0.35"
     inkscape:cx="517.43649"
     inkscape:cy="105.71528"
     inkscape:document-units="px"
     inkscape:current-layer="layer1"
     showgrid="false"
     fit-margin-top="0"
     fit-margin-left="0"
     fit-margin-right="0"
     fit-margin-bottom="0"
     inkscape:window-width="476"
     inkscape:window-height="406"
     inkscape:window-x="1104"
     inkscape:window-y="344"
     inkscape:window-maximized="0" />
  <metadata
     id="metadata3076">
    <rdf:RDF>
      <cc:Work
         rdf:about="">
        <dc:format>image/svg+xml</dc:format>
        <dc:type
           rdf:resource="http://purl.org/dc/dcmitype/StillImage" />
        <dc:title></dc:title>
      </cc:Work>
    </rdf:RDF>
  </metadata>
  <g
     inkscape:label="Layer 1"
     inkscape:groupmode="layer"
     id="layer1"
     transform="translate(142.43649,-23.789754)">
    <path
       id="Tin"
       d="m 58.419513,238.52375 c -38.537,-28.428 -83.445,-58.578 -83.445,-58.578 h -48.223 c 0,0 65.3299999,43.357 115.271,81.559 l -184.459003,258.092 h 38.787 l 169.025003,-239.599 c 9.814,8.091 18.115,15.472 23.861,21.552 7.547,8.01 14.675997,16.061 21.382997,24.111 l -129.147997,193.936 h 29.143 l 117.491997,-171.627 c 24.19696,32.62 41.81096,64.45 54.42996,91.915 1.344,2.852 2.602,5.659 3.857,8.428 19.5,44.532 25.496,75.479 25.496,75.479 V 23.789754 L 58.419513,238.52375 z m 111.538957,128.483 c -8.178,-13.963 -17.021,-28.391 -26.12496,-42.018 l 26.12496,-38.115 v 80.133 z m 0,-130.452 -43.06296,64.659 c -7.424,-9.771 -14.844,-18.406 -21.932,-25.326 -5.491997,-5.325 -13.546997,-12.036 -22.981997,-19.456 l 87.976957,-124.708 v 104.831 z"
       inkscape:connector-curvature="0" />
  </g>
</svg>
