<?xml version="1.0" encoding="UTF-8" standalone="no"?>
<!-- Created with Inkscape (http://www.inkscape.org/) -->

<svg
   xmlns:dc="http://purl.org/dc/elements/1.1/"
   xmlns:cc="http://creativecommons.org/ns#"
   xmlns:rdf="http://www.w3.org/1999/02/22-rdf-syntax-ns#"
   xmlns:svg="http://www.w3.org/2000/svg"
   xmlns="http://www.w3.org/2000/svg"
   version="1.1"
   width="500"
   height="500"
   id="svg8906">
  <defs
     id="defs8908" />
  <metadata
     id="metadata8911">
    <rdf:RDF>
      <cc:Work
         rdf:about="">
        <dc:format>image/svg+xml</dc:format>
        <dc:type
           rdf:resource="http://purl.org/dc/dcmitype/StillImage" />
        <dc:title></dc:title>
      </cc:Work>
    </rdf:RDF>
  </metadata>
  <g
     transform="translate(-183.80915,-54.269581)"
     id="layer1">
    <path
       d="m 486.63875,231.16388 c 5.3187,-0.6079 10.1614,-1.6204 10.7615,-2.25 0.6001,-0.6297 1.8377,-4.2948 2.7502,-8.1448 3.1273,-13.1942 6.7467,-25.803 8.5832,-29.9006 1.0104,-2.2547 2.1706,-5.2244 2.5781,-6.5994 0.985,-3.3237 8.4457,-18.843 10.5761,-22 2.1129,-3.1309 5.9213,-9.9038 5.9213,-10.5304 0,-0.2583 -54.1125,-0.4614 -120.25,-0.4514 l -120.25,0.018 23,22.7779 c 24.01,23.7781 30.7112,29.2467 44,35.9067 23.5299,11.7927 42.8879,16.987 79.5,21.3322 9.3267,1.1069 42.6322,1.007 52.8296,-0.1584 z m 24.5575,139.3552 c -7.6302,-19.8417 -12.2455,-37.9337 -14.6047,-57.25 -1.4063,-11.5142 -1.7487,-55.4604 -0.5154,-66.1437 l 0.7669,-6.6437 -25.2669,0.5184 c -27.1732,0.5574 -51.0191,-0.7183 -61.767,-3.3045 -3.575,-0.8602 -8.075,-1.7278 -10,-1.928 -5.5182,-0.574 -16.6025,-3.3701 -22.2947,-5.6241 -2.8629,-1.1336 -8.1303,-3.1596 -11.7053,-4.5021 l -6.5,-2.441 22.9919,23.0344 c 16.8109,16.842 23.6165,23.0343 25.3157,23.0343 1.2781,0 3.1896,0.4633 4.2478,1.0296 2.3155,1.2393 5.2807,6.6521 4.6065,8.4091 -0.6302,1.6422 40.7769,43.0262 42.1815,42.1581 1.5953,-0.986 7.8379,1.9391 9.0761,4.2528 0.5943,1.1104 1.0805,3.2823 1.0805,4.8265 0,2.3255 3.8193,6.6298 22.2417,25.0657 12.2329,12.242 22.354,22.2582 22.4914,22.2582 0.1373,0 -0.9184,-3.0375 -2.346,-6.75 z m -26.806,-9.1688 c -17.3301,-17.3436 -22.5898,-22.0479 -25.1981,-22.5372 -3.5896,-0.6734 -7.079,-4.353 -8.0195,-8.4565 -0.7423,-3.2388 -41.1419,-44.1098 -42.9248,-43.4256 -1.757,0.6742 -7.1698,-2.291 -8.4091,-4.6065 -0.5663,-1.0582 -1.0296,-2.9698 -1.0296,-4.2482 0,-1.6999 -5.9452,-8.2317 -22.1321,-24.3157 -12.1727,-12.0953 -21.8313,-21.0915 -21.4637,-19.9915 0.3675,1.1 2.1782,6.05 4.0237,11 1.8455,4.95 3.854,11.025 4.4632,13.5 4.365,17.7315 6.2233,26.8532 7.3339,36 1.26,10.3763 1.7543,52.7904 0.775,66.5 -0.4991,6.9873 -0.4955,6.9995 2,6.7296 1.375,-0.1487 13.3,-0.5298 26.5,-0.847 25.4026,-0.6102 50.1899,1.0291 61.4196,4.0621 2.9807,0.8051 5.7512,1.2587 6.1566,1.0082 0.4054,-0.2506 3.5916,0.4392 7.0804,1.5329 3.4889,1.0936 7.2434,2.017 8.3434,2.052 1.1,0.035 6.275,1.818 11.5,3.9622 5.225,2.1442 9.9462,3.9214 10.4915,3.9493 0.5453,0.028 -8.8644,-9.8128 -20.9104,-21.8681 z m -196.5811,34.8702 c 5.44847,-3.5007 22.96825,-12.2545 28.5,-14.24 2.2,-0.7897 7.15,-2.57 11,-3.9562 3.85,-1.3863 12.8488,-3.9644 19.9974,-5.7292 7.1486,-1.7648 13.2892,-3.6807 13.6458,-4.2577 1.8379,-2.9738 3.0898,-25.4642 2.542,-45.6676 -0.4809,-17.7361 -1.0564,-23.9266 -3.2167,-34.6007 -1.4471,-7.15 -3.0089,-15.25 -3.4706,-18 -1.2938,-7.7049 -8.4257,-28.067 -14.0471,-40.1053 -2.7859,-5.966 -5.3883,-11.083 -5.7833,-11.371 -0.3949,-0.2881 -2.2427,-3.0756 -4.1061,-6.1946 -2.1731,-3.6372 -12.11577,-14.3931 -27.72475,-29.9923 l -24.33665,-24.3215 6.3e-4,32.9924 c 0.001,63.3924 1.33385,208.4916 1.91415,208.4137 0.32187,-0.043 2.61022,-1.3797 5.08522,-2.97 z m 298.5277,-66.7014 c -0.4052,-66.4125 -0.8888,-120.9116 -1.0747,-121.1091 -0.1858,-0.1975 -1.6032,0.4775 -3.1497,1.5 -5.6755,3.7524 -7.0097,4.4855 -17.8033,9.7824 -14.4995,7.1154 -22.8088,10.0686 -41.6544,14.8041 -13.5154,3.3961 -15.7335,4.23 -16.2335,6.1031 -3.3811,12.6689 -3.2309,57.2881 0.2566,76.1695 3.8523,20.8568 4.3643,23.0457 8.4216,36 4.746,15.1536 12.6893,32.646 19.4467,42.8252 2.9275,4.4098 13.7832,16.3274 28.1694,30.9248 12.8736,13.0625 23.6206,23.75 23.8823,23.75 0.2617,0 0.1442,-54.3375 -0.261,-120.75 z m -30.3645,103.4133 c -15.5992,-15.6089 -26.3551,-25.5516 -29.9923,-27.7247 -3.119,-1.8634 -5.9066,-3.7112 -6.1946,-4.1061 -0.288,-0.395 -5.4191,-3.0041 -11.4025,-5.798 -12.9644,-6.0538 -36.5127,-14.0264 -41.5118,-14.0545 -1.9591,-0.011 -9.412,-1.1583 -16.562,-2.5497 -10.3832,-2.0206 -17.3481,-2.6477 -34.6007,-3.1155 -21.681,-0.5879 -44.2537,0.8316 -45.5085,2.8618 -0.7131,1.154 -6.4732,22.4858 -6.9001,25.5537 -0.3447,2.4776 -3.4437,11.2086 -4.5326,12.7697 -0.3836,0.55 -1.264,2.8 -1.9565,5 -1.4748,4.6858 -8.6426,19.8877 -11.0803,23.5 -2.1046,3.1186 -5.9213,9.9028 -5.9213,10.5251 0,0.2553 40.6125,0.5816 90.25,0.725 49.6375,0.1434 103.7466,0.3707 120.2423,0.5053 l 29.9924,0.2446 -24.3215,-24.3367 z m 77.339,77.3277 -44.0502,-44.0091 -130.7245,0.011 c -129.4305,0.01 -130.7444,-0.01 -132.726,-1.9909 -2.7026,-2.7026 -2.5468,-3.6555 1.2928,-7.9055 4.0043,-4.4323 13.9081,-20.9053 16.2905,-27.096 0.9525,-2.475 2.1259,-5.0147 2.6077,-5.6437 1.5081,-1.9691 9.7933,-27.5851 10.7887,-33.3563 0.5218,-3.025 1.2516,-6.5494 1.6218,-7.832 0.6557,-2.2714 0.5463,-2.3155 -4.2149,-1.6982 -7.4075,0.9604 -27.6045,7.22 -39.3881,12.2074 -11.68202,4.9445 -26.49637,13.3892 -32.95595,18.786 -4.92406,4.1139 -5.37984,4.201 -8.04405,1.5368 -1.97968,-1.9797 -2,-3.3333 -2,-133.2351 l 0,-131.235 -44,-44.0412 c -24.2,-24.222599 -44,-44.591799 -44,-45.264899 0,-0.6731 0.9,-2.1238 2,-3.2238 1.1,-1.1 2.55072,-2 3.22382,-2 0.6731,0 21.04232,19.8 45.26494,44 l 44.04112,43.999999 131.75652,0 131.7565,0 1.1036,2.4222 c 0.9753,2.1406 0.6352,2.9837 -2.925,7.25 -4.7131,5.6478 -13.3649,20.0919 -15.8236,26.4172 -0.943,2.4259 -2.0869,4.8991 -2.5421,5.4961 -1.6441,2.1563 -9.9063,28.0596 -10.8798,34.1101 -0.5484,3.4075 -1.2654,6.895 -1.5935,7.75 -0.9365,2.4404 3.9707,1.9659 15.7384,-1.5217 5.7085,-1.6919 11.9541,-3.4726 13.8791,-3.9571 6.0845,-1.5315 33.6206,-14.0396 35,-15.8986 0.275,-0.3706 2.3,-1.7441 4.5,-3.0524 2.2,-1.3082 5.6888,-3.8719 7.7529,-5.6972 4.3817,-3.8747 5.0733,-3.9924 7.7471,-1.3186 1.9798,1.9798 2,3.3333 2,133.7351 l 0,131.735 44,44.0411 c 24.2,24.2227 44,44.59189 44,45.26499 0,1.5845 -3.6393,5.2238 -5.2238,5.2238 -0.6731,0 -21.0464,-19.80409 -45.274,-44.00899 z"
       id="path5713"
       style="fill:#000000;fill-opacity:1;stroke:none;display:inline" />
  </g>
</svg>
