<?xml version="1.0" encoding="UTF-8" standalone="no"?>
<!-- Created with Inkscape (http://www.inkscape.org/) -->

<svg
   xmlns:dc="http://purl.org/dc/elements/1.1/"
   xmlns:cc="http://creativecommons.org/ns#"
   xmlns:rdf="http://www.w3.org/1999/02/22-rdf-syntax-ns#"
   xmlns:svg="http://www.w3.org/2000/svg"
   xmlns="http://www.w3.org/2000/svg"
   version="1.1"
   width="61.28125"
   height="55.318039"
   id="svg4635">
  <defs
     id="defs4637" />
  <metadata
     id="metadata4640">
    <rdf:RDF>
      <cc:Work
         rdf:about="">
        <dc:format>image/svg+xml</dc:format>
        <dc:type
           rdf:resource="http://purl.org/dc/dcmitype/StillImage" />
        <dc:title></dc:title>
      </cc:Work>
    </rdf:RDF>
  </metadata>
  <g
     transform="translate(-485.28125,-468.9375)"
     id="layer1">
    <path
       d="m 185.17857,137.18361 a 3.0357144,2.6785715 0 1 1 -6.07143,0 3.0357144,2.6785715 0 1 1 6.07143,0 z"
       transform="matrix(0.98094032,0,0,1.1117324,333.95581,361.85323)"
       id="path3926-3-9"
       style="fill:#000000;fill-opacity:1;fill-rule:nonzero;stroke:none;display:inline" />
    <path
       d="m 528.90282,524.25554 c 0,0 3.01937,-15.89055 0.50521,-21.77908 -2.51417,-5.88852 -6.08348,-10.42997 -11.61989,-10.64204 -5.53642,-0.21208 -11.35995,5.31367 -13.38815,9.4046 -2.02821,4.09093 -0.75782,10.14706 -0.75782,10.14706 0,0 -4.72567,-6.82528 -3.03128,-12.86946 1.69439,-6.04416 3.85195,-13.75746 17.42985,-15.59182 13.57789,-1.83436 17.17724,23.01651 17.17724,23.01651 0,0 0.74722,-10.80211 -2.27345,-19.55166 -3.02067,-8.74955 -13.82938,-9.49276 -17.17725,-9.79775 -3.34787,-0.305 -11.36048,0.40713 -18.93944,-0.4577 2.68277,5.20679 3.00604,9.3774 2.52002,12.48285 -0.48602,3.10545 -0.50522,32.42113 -0.50522,32.42113 l 7.07299,-5.44477 c 0,0 -4.29365,-20.99234 11.36729,-18.80921 15.66094,2.18314 10.00014,21.74652 7.32558,21.2841 z"
       id="path4520-0"
       style="fill:#000000;fill-opacity:1;stroke:none;display:inline" />
    <path
       d="m 492.73971,469.18195 c 20.80779,39.4223 24.77419,36.09338 37.12311,54.04316"
       id="path4191"
       style="fill:none;stroke:#000000;stroke-width:1px;stroke-linecap:butt;stroke-linejoin:miter;stroke-opacity:1" />
    <path
       d="m 485.4161,473.72764 c 18.84249,5.43313 40.41795,1.75634 61.11423,1.01015"
       id="path4193"
       style="fill:none;stroke:#000000;stroke-width:1px;stroke-linecap:butt;stroke-linejoin:miter;stroke-opacity:1" />
  </g>
</svg>
