<?xml version="1.0" encoding="UTF-8" standalone="no"?>
<!-- Generator: Adobe Illustrator 14.0.0, SVG Export Plug-In . SVG Version: 6.00 Build 43363)  -->

<svg
   xmlns:dc="http://purl.org/dc/elements/1.1/"
   xmlns:cc="http://creativecommons.org/ns#"
   xmlns:rdf="http://www.w3.org/1999/02/22-rdf-syntax-ns#"
   xmlns:svg="http://www.w3.org/2000/svg"
   xmlns="http://www.w3.org/2000/svg"
   xmlns:sodipodi="http://sodipodi.sourceforge.net/DTD/sodipodi-0.dtd"
   xmlns:inkscape="http://www.inkscape.org/namespaces/inkscape"
   version="1.1"
   id="Layer_1"
   x="0px"
   y="0px"
   width="340.483px"
   height="800px"
   viewBox="0 0 340.483 800"
   enable-background="new 0 0 340.483 800"
   xml:space="preserve"
   sodipodi:docname="Herald_Glyph_Jezrien.svg"
   inkscape:version="0.92.4 (5da689c313, 2019-01-14)"><metadata
   id="metadata37"><rdf:RDF><cc:Work
       rdf:about=""><dc:format>image/svg+xml</dc:format><dc:type
         rdf:resource="http://purl.org/dc/dcmitype/StillImage" /></cc:Work></rdf:RDF></metadata><defs
   id="defs35" /><sodipodi:namedview
   pagecolor="#ffffff"
   bordercolor="#666666"
   borderopacity="1"
   objecttolerance="10"
   gridtolerance="10"
   guidetolerance="10"
   inkscape:pageopacity="0"
   inkscape:pageshadow="2"
   inkscape:window-width="674"
   inkscape:window-height="480"
   id="namedview33"
   showgrid="false"
   inkscape:zoom="0.417193"
   inkscape:cx="187.30105"
   inkscape:cy="401.24172"
   inkscape:window-x="2321"
   inkscape:window-y="117"
   inkscape:window-maximized="0"
   inkscape:current-layer="g30" />
<g
   id="g30">
	<path
   d="m 166.048,2.824 c 1.268,-0.2 1.455,0.67 0.71,0.709 -5.776,10.847 -10.319,24.155 -11.349,38.3 -2.363,32.46 12.215,72.314 9.93,106.391 -0.319,4.756 -2.473,9.848 -2.127,14.186 0.612,7.696 7.636,14.07 7.092,21.278 1.616,-6.373 7.712,-12.979 8.512,-20.569 0.455,-4.32 -1.766,-9.196 -2.129,-14.185 -3.504,-48.141 25.841,-109.694 -2.127,-145.4 19.549,9.592 22.043,39.159 20.568,71.636 -1.486,32.735 -17.468,65.485 -4.965,92.914 1.148,-16.583 3.861,-31.602 10.64,-42.556 -0.128,17.369 -3.439,37.698 -4.965,56.032 -2.367,0.002 -2.421,-2.307 -4.965,-2.128 -2.514,9.997 1.237,24.321 1.418,36.173 -5.289,1.331 -13.762,-0.523 -16.313,3.546 0.111,4.381 4.688,4.295 9.222,4.256 0.485,2.377 -1.191,2.592 -2.838,2.837 -0.049,2.447 4.716,3.749 2.838,5.674 -3.402,3.276 -4.664,-1.871 -7.094,-3.546 -3.24,1.961 -3.053,7.348 -3.546,12.058 1.333,1.285 4.236,-1.875 6.383,-2.128 2.444,9.617 -21.021,10.973 -20.568,0 2.713,0.597 4.735,1.883 7.093,2.837 -0.183,-5.019 -0.629,-9.773 -2.838,-12.767 -3.233,0.295 -4.09,7.32 -7.092,3.546 -3.561,-0.815 1.772,-3.495 2.127,-4.965 -0.478,-1.649 -3.721,-0.534 -2.836,-3.546 4.391,0.136 8.476,-0.035 9.22,-3.546 -1.613,-5.243 -10.998,-2.714 -16.313,-4.256 0.578,-11.715 2.932,-24.643 2.128,-35.463 -2.205,-1.998 -3.304,1.412 -5.674,1.418 -2.022,-18.547 -3.761,-37.377 -5.674,-56.032 7.404,10.327 10.766,24.697 10.64,42.556 13.793,-26.601 -2.541,-59.474 -4.257,-92.205 -1.684,-32.105 0.807,-59.287 19.149,-73.055 z m -10.639,209.944 c 13.281,2.091 17.928,2.091 31.207,0 -2.72,-12.173 -3.584,-26.205 -7.801,-36.882 -3.462,7.339 -1.866,19.656 -1.419,29.081 -5.046,0.081 -8.74,1.215 -12.768,-0.71 0.281,-8.997 2.615,-22.476 -2.127,-28.371 -2.792,11.865 -4.801,24.514 -7.092,36.882 z m 10.639,12.057 c 0.53,2.781 4.183,2.438 4.256,5.674 2.286,-1.497 4.178,-3.388 5.674,-5.674 -1.561,-2.823 -8.371,-2.823 -9.93,0 z"
   id="path2"
   inkscape:connector-curvature="0"
   style="clip-rule:evenodd;fill:#0f3562;fill-rule:evenodd;fill-opacity:1" />
	<path
   d="m 134.131,173.049 c 0.824,-0.116 1.262,0.156 1.418,0.709 2.703,9.403 7.522,21.877 8.512,35.463 1.254,17.223 1.478,36.376 -5.674,47.521 -7.728,-0.474 -6.861,-8.366 -6.384,-14.186 1.697,-20.67 7.583,-48.682 2.128,-69.507 z"
   id="path4"
   inkscape:connector-curvature="0"
   style="clip-rule:evenodd;fill:#0f3562;fill-rule:evenodd;fill-opacity:1" />
	<path
   d="m 206.477,173.049 c 2.07,2.061 -0.425,8.863 -0.71,12.767 -1.236,16.994 2.783,38.798 4.257,56.741 0.563,6.873 -0.196,14.889 -5.675,14.186 -8.179,-1.051 -7.16,-35.23 -6.384,-46.812 1.072,-15.985 5.666,-24.881 8.512,-36.882 z"
   id="path6"
   inkscape:connector-curvature="0"
   style="clip-rule:evenodd;fill:#0f3562;fill-rule:evenodd;fill-opacity:1" />
	<path
   d="m 115.69,175.177 c 0.824,-0.116 1.262,0.156 1.418,0.709 7.276,17.573 12.717,48.449 10.639,73.765 -0.549,6.688 -1.849,13.705 -6.384,17.731 -5.872,0.435 -5.566,-5.309 -10.638,-5.674 -1.163,5.93 0.665,18.96 -6.384,22.696 -10.079,-1.269 -9.365,-13.332 -21.987,-12.057 -0.528,5.761 6.496,9.494 1.418,13.476 -6.135,-1.925 -9.553,-13.772 -4.964,-19.86 10.857,-2.912 16.59,5.056 24.115,7.802 0.389,-12.595 -12.693,-15.002 -10.639,-26.953 1.611,-1.226 3.963,-1.711 7.093,-1.418 4.269,-10.054 -6.927,-28.698 4.965,-34.045 0.538,3.6 0.21,6.871 -1.419,9.93 3.825,9.168 10.106,24.502 2.128,33.335 1.776,2.953 8.73,0.727 12.767,1.418 5.767,-25.178 -3.759,-55.282 -2.128,-80.855 z"
   id="path8"
   inkscape:connector-curvature="0"
   style="clip-rule:evenodd;fill:#0f3562;fill-rule:evenodd;fill-opacity:1" />
	<path
   d="m 224.917,175.177 c 0.825,-0.116 1.262,0.156 1.419,0.709 1.154,25.188 -6.921,53.538 -2.837,79.438 3.05,1.148 10.427,1.148 13.476,0 -10.643,-13.769 5.016,-29.954 0.709,-43.975 11.832,5.061 0.789,23.741 4.965,33.336 1.661,1.412 5.884,0.264 7.093,2.127 2.021,11.688 -10.564,14.343 -10.639,26.243 6.688,-0.51 13.313,-10.661 24.116,-7.093 4.586,6.088 1.169,17.935 -4.966,19.86 -4.906,-3.729 1.477,-7.613 1.418,-12.767 -11.413,-4.788 -12.874,12.399 -21.276,11.348 -7.107,-0.888 -6.891,-15.243 -6.384,-22.696 -4.675,-1.042 -5.869,6.355 -10.641,5.674 -4.773,-0.683 -6.668,-12.486 -7.092,-17.022 -2.475,-26.575 4.392,-59.637 10.639,-75.182 z"
   id="path10"
   inkscape:connector-curvature="0"
   style="clip-rule:evenodd;fill:#0f3562;fill-rule:evenodd;fill-opacity:1" />
	<path
   d="m 43.344,273.056 c 1.844,-0.284 2.139,-2.116 4.256,-2.127 -10.549,-8.952 -29.394,-21.861 -30.499,-39.01 -0.316,-4.908 0.445,-10.711 4.964,-12.767 4.897,2.983 1.753,8.666 2.128,13.476 1.724,22.09 34.248,21.433 29.08,48.94 -3.729,0.502 -6.201,-5.981 -9.93,-7.802 -1.351,2.431 -3.756,3.809 -3.546,7.802 12.092,1.586 22.983,16.064 13.476,28.371 -4.146,0.364 -5.092,-2.474 -8.511,-2.837 2.356,-5.209 6.804,-8.328 6.383,-16.313 -5.375,-1.923 -11.297,1.365 -14.895,3.546 -6.667,-4.426 -4.975,-20.77 0.709,-24.825 3.526,-0.394 9.269,-0.217 6.385,3.546 z"
   id="path12"
   inkscape:connector-curvature="0"
   style="clip-rule:evenodd;fill:#0f3562;fill-rule:evenodd;fill-opacity:1" />
	<path
   d="m 298.682,269.509 c 2.129,0 4.254,0 6.383,0 5.778,4.188 6.888,19.303 1.42,24.825 -4.432,-1.953 -8.295,-4.473 -14.896,-4.256 -2.245,6.841 2.949,12.105 5.673,16.314 -2.452,1.565 -4.527,3.511 -8.51,3.546 -8.979,-11.614 0.317,-27.331 13.476,-27.662 0.821,-4.602 -2.518,-5.047 -2.838,-8.511 -4.661,1.117 -6.562,8.424 -10.638,7.802 -5.435,-27.211 27.178,-26.986 29.079,-48.23 0.464,-5.173 -2.878,-10.99 2.129,-14.186 4.376,1.985 5.134,7.201 4.964,12.058 -0.593,17.076 -19.229,31.01 -30.497,39.01 2.931,2.424 4.151,3.9 4.255,-0.71 z"
   id="path14"
   inkscape:connector-curvature="0"
   style="clip-rule:evenodd;fill:#0f3562;fill-rule:evenodd;fill-opacity:1" />
	<path
   d="m 153.281,224.825 c -1.41,20.359 18.141,23.423 12.767,45.394 -7.557,-0.245 -13.56,-2.044 -21.987,-1.418 4.034,8.7 15.902,35.103 2.128,44.684 2.487,-21.91 -11.33,-33.562 -12.058,-54.614 4.786,7.519 18.088,0.112 26.243,4.965 2.218,-16.734 -17.931,-20.727 -13.477,-39.719 2.745,-0.38 3.463,1.265 6.384,0.708 z"
   id="path16"
   inkscape:connector-curvature="0"
   style="clip-rule:evenodd;fill:#0f3562;fill-rule:evenodd;fill-opacity:1" />
	<path
   d="m 193.71,224.116 c 7.74,16.749 -13.193,22.553 -12.768,39.01 7.343,-2.942 22.171,2.653 26.953,-4.256 -0.728,21.051 -14.545,32.704 -12.058,54.614 -13.01,-9.64 -3.365,-35.007 2.836,-44.684 -8.663,-0.626 -14.972,1.104 -22.696,1.418 -5.374,-21.97 14.178,-25.034 12.768,-45.394 2.301,0.412 3.3,-0.482 4.965,-0.708 z"
   id="path18"
   inkscape:connector-curvature="0"
   style="clip-rule:evenodd;fill:#0f3562;fill-rule:evenodd;fill-opacity:1" />
	<path
   d="m 61.076,240.43 c 11.822,8.51 11.589,29.076 11.348,49.648 5.323,3.188 9.792,7.231 14.895,10.64 0.056,-4.2 1.205,-7.307 1.418,-11.348 6.1,1.866 13.691,5.469 20.569,4.255 3.027,-2.883 3.646,-8.176 3.546,-14.185 4.698,0.814 4.944,8.808 3.546,13.476 3.541,1.187 7.414,2.043 10.638,3.546 -0.942,-7.921 -18.953,-16.901 -4.255,-24.825 2.614,0.697 1.927,4.694 2.128,7.802 5.924,7.822 17.819,16.325 12.767,30.499 -9.479,-9.435 -34.422,-3.406 -45.393,-11.349 0.392,9.921 1.345,24.491 0.709,36.882 -0.504,9.828 -0.865,21.351 -7.801,24.115 0,-14.659 0,-29.317 0,-43.975 -3.706,-6.224 -7.54,-12.32 -12.768,-17.022 -1.565,1.036 -0.562,4.639 -2.127,5.674 -1.892,0 -3.783,0 -5.674,0 -1.126,-3.293 -3.436,-8.632 -1.418,-12.767 -2.36,-3.077 -8.053,-2.823 -9.93,-6.383 4.08,-0.062 8.191,-0.153 11.348,0.709 6.342,-13.726 -0.81,-32.051 -3.546,-45.392 z"
   id="path20"
   inkscape:connector-curvature="0"
   style="clip-rule:evenodd;fill:#0f3562;fill-rule:evenodd;fill-opacity:1" />
	<path
   d="m 280.24,240.43 c -1.053,12.44 -8.962,30.56 -3.547,45.393 3.658,-0.597 7.586,-0.926 12.059,-0.709 -2.002,3.201 -6.664,3.739 -9.93,5.674 1.827,4.495 -0.039,9.977 -1.419,13.476 -1.655,0 -3.311,0 -4.964,0 -2.322,-0.279 -1.728,-3.475 -2.128,-5.674 -6.261,3.67 -8.91,10.951 -13.477,16.313 0,14.895 0,29.789 0,44.684 -6.845,-2.624 -7.259,-14.042 -7.803,-23.405 -0.707,-12.21 0.265,-25.766 0.709,-36.883 -8.652,3.171 -24.3,5.489 -38.3,5.675 -3.817,0.202 -2.571,5.467 -7.093,4.965 -6.151,-18.239 12.858,-22.884 14.186,-38.301 15.35,5.871 -1.254,17.034 -3.547,24.115 2.611,1.169 5.918,-3.049 10.64,-2.128 -1.186,-4.997 -1.444,-13.217 3.546,-14.185 -0.363,6.037 0.986,10.362 2.838,14.185 7.049,1.19 14.784,-1.934 20.567,-4.255 1.696,2.559 1.453,7.06 2.128,10.639 4.488,-0.722 8.819,-7.726 14.896,-9.221 -0.421,-20.755 -0.202,-40.867 10.639,-50.358 z"
   id="path22"
   inkscape:connector-curvature="0"
   style="clip-rule:evenodd;fill:#0f3562;fill-rule:evenodd;fill-opacity:1" />
	<path
   d="m 153.281,273.765 c 17.465,8.542 14.563,37.449 17.022,60.997 5.358,-20.412 0.407,-54.916 18.441,-60.288 -8.641,35.223 -7.803,74.037 -7.803,113.483 0.001,99.824 -0.242,201.263 7.093,295.056 1.492,19.078 6.527,37.688 5.675,54.613 -0.594,11.756 -5.157,22.844 -9.221,32.627 -3.931,9.463 -8.109,19.309 -14.186,26.951 -6.845,-18.566 -20.592,-35.873 -21.987,-58.869 -1.027,-16.924 4.156,-35.91 5.674,-55.322 7.232,-92.488 7.093,-194.154 7.093,-294.347 0,-39.278 1.119,-77.89 -7.802,-112.773 0.001,-0.709 0.001,-1.419 0.001,-2.128 z m 10.639,387.971 c -3,38.568 -12.943,91.926 7.803,114.191 14.379,-17.404 11.266,-43.162 9.22,-72.346 -2.864,-40.863 -4.856,-90.908 -9.22,-126.959 -0.069,-0.564 -0.665,-0.816 -1.419,-0.709 -1.599,26.792 -4.097,56.423 -6.384,85.823 z"
   id="path24"
   inkscape:connector-curvature="0"
   style="clip-rule:evenodd;fill:#0f3562;fill-rule:evenodd;fill-opacity:1" />
	<path
   d="m 79.517,314.903 c -3.972,1.229 -8.266,2.137 -13.476,2.128 -1.677,1.632 -2.27,4.35 -3.546,6.383 2.143,1.169 2.782,-5.234 7.802,-3.546 4.214,13.566 11.409,41.009 2.127,54.614 -5.805,-9.95 0.952,-28.153 -4.255,-38.3 -3.12,-1.847 -4.053,3.749 -9.221,2.127 -3.341,-6.947 -7.977,-22.59 0,-27.662 5.36,-3.408 16.416,-0.667 20.569,4.256 z"
   id="path26"
   inkscape:connector-curvature="0"
   style="clip-rule:evenodd;fill:#0f3562;fill-rule:evenodd;fill-opacity:1" />
	<path
   d="m 283.077,338.309 c -4.747,0.964 -5.52,-2.046 -8.511,-2.837 -6.683,9.25 1.207,28.974 -4.965,39.01 -9.281,-13.605 -2.086,-41.048 2.127,-54.614 5.039,-1.019 5.027,3.012 7.803,4.256 -0.355,-2.954 -2.482,-4.138 -2.838,-7.092 -5.535,0.098 -10.023,-0.85 -14.184,-2.128 4.152,-4.923 15.208,-7.664 20.567,-4.256 7.978,5.071 3.343,20.714 10e-4,27.661 z"
   id="path28"
   inkscape:connector-curvature="0"
   style="clip-rule:evenodd;fill:#0f3562;fill-rule:evenodd;fill-opacity:1" />
</g>
</svg>