<svg xmlns="http://www.w3.org/2000/svg" viewBox="0 0 1000 1000"><circle cx="500" cy="272.52672" r="34.08387"/><path d="M309.19694,645.17308c48.41023,61.49536,117.27072,90.16551,189.83288,90.75287v.026c.32325-.00043.64508-.01149.96819-.01305.32311.00157.64509.01263.96834.01306v-.026c72.56217-.58622,141.4231-29.2553,189.83429-90.7499,84.6788-107.56411,68.989-261.60232-38.57512-346.28126l-25.55382-.0002-.00008,10.22153c11.84384,6.35621,23.22284,16.30464,33.09764,26.739,69.23233,73.15488,50.2934,192.42056-32.53668,265.69893-37.43353,27.72268-82.72974,48.52353-127.2339,48.82147-44.50416-.29863-89.79991-21.10019-127.233-48.82345-82.82894-73.27967-101.766-192.54564-32.53253-265.69944,9.87495-10.43421,21.25411-20.38247,33.09805-26.7385l.00008-10.22152-25.55382-.0002C240.212,383.56969,224.51982,537.60765,309.19694,645.17308Z"/><path d="M393.06463,555.32385c27.13151,34.46507,65.72435,50.53325,106.3918,50.86243v.01455c.18117-.00024.36154-.00644.54262-.00731.18109.00087.36154.00707.54271.00731v-.01454c40.66745-.32855,79.26055-16.39613,106.39259-50.86077,47.45821-60.28428,38.66486-146.615-21.61942-194.07326l-14.32163-.00011,0,5.72865c6.63788,3.56234,13.01524,9.13794,18.54956,14.98587,38.80125,40.99964,28.18693,107.84207-18.23517,148.91092-20.97961,15.53717-46.36586,27.195-71.30821,27.362-24.94235-.16737-50.32834-11.8256-71.30771-27.3631C382.27026,489.8069,371.657,422.96431,410.45887,381.96528c5.53441-5.84785,11.91186-11.42335,18.5498-14.98558l0-5.72866-14.32163-.00011C354.402,408.70828,345.60736,495.03883,393.06463,555.32385Z"/><path d="M500.00017,796.47172h74.27771V778.0258H562.38524c-26.15521,0-34.06537-23.96521-34.06537-53.98413h.00006V462.69224l-28.31964-66.85852-25.99573,66.85852V724.04167h-.00018c0,30.01892-10.234,53.98413-36.38922,53.98413h-11.8927v18.44592Z"/><path d="M687.86947,754.16474,754.67436,721.695l-8.06344-16.59014-10.69617,5.19874c-23.52383,11.43348-41.11432-6.66283-54.23678-33.66165l0,0L615.71233,540.92076l-54.697-47.75249,5.84613,71.49589,65.96569,135.72117-.00016.00008c13.12246,26.99882,14.3942,53.02667-9.12963,64.46016l-10.69621,5.19877,8.06344,16.59014Z"/><path d="M312.13111,754.16474,245.32622,721.695l8.06344-16.59014,10.69617,5.19874c23.52383,11.43348,41.11432-6.66283,54.23678-33.66165l0,0,65.96569-135.72116,54.697-47.75249-5.84613,71.49589L367.17345,700.38533l.00017.00008c-13.12247,26.99882-14.39421,53.02667,9.12962,64.46016l10.69622,5.19877L378.936,786.63448Z"/></svg>