<?xml version="1.0" encoding="utf-8"?>
<!-- Generator: Adobe Illustrator 14.0.0, SVG Export Plug-In . SVG Version: 6.00 Build 43363)  -->
<!DOCTYPE svg PUBLIC "-//W3C//DTD SVG 1.1//EN" "http://www.w3.org/Graphics/SVG/1.1/DTD/svg11.dtd">
<svg version="1.1" id="Layer_1" xmlns="http://www.w3.org/2000/svg" xmlns:xlink="http://www.w3.org/1999/xlink" x="0px" y="0px"
	 width="783px" height="800px" viewBox="0 0 783 800" enable-background="new 0 0 783 800" xml:space="preserve">
<g>
	<path fill-rule="evenodd" clip-rule="evenodd" d="M614.876,51.334c9.262,18.581-14.266,23.407-13.945,33.701
		c0.35,11.234,22.938,11.368,27.891,23.242c2.287,1.587,6.638,1.109,9.297,2.324c2.175,19.702,30.71,37.691,46.484,22.08
		c8.033,13.272,11.536,31.076,24.404,39.512c2.852,35.047,26.712,54.192,29.053,85.997c4.463,11.829,13.962,15.083,17.433,25.566
		c6.914,20.895-9.484,52.493,3.485,75.537c-5.8,49.593-33.909,76.879-51.133,115.05c-13.338,4.456-26.24,2.312-32.539,13.944
		c-35.566-4.577-42.14,19.839-49.972,42.998c-9.235,2.7-19.435,9.573-30.215,6.974c-3.215-5.335-10.699-14.29-15.107-22.08
		c-7.967,1.868-10.558,1.955-23.241,0c-22.305-23.407-51.78-39.64-79.024-58.105c-3.136-12.746-6.581-25.184-10.458-37.188
		c-7.425-5.359-13.644-11.924-19.756-18.594c1.557-18.587,7.604-32.681,10.458-49.972c24.952-7.199,35.938-28.365,47.646-48.809
		c28.773,4.74,49.515,13.114,74.375,19.756c6.165,9.717,23.201,8.565,23.244,24.404c-16.159-5.535-33.207-10.18-48.81-16.269
		c-20.076,9.427-45.702,21.867-45.323,46.484c0.332,21.482,23.265,26.584,38.351,37.188c21.002,1.121,55.27,17.406,79.022,6.973
		c8.761-3.849,20.206-6.086,27.892-10.458c7.771-4.421,10.14-12.673,18.594-15.108c0.45-7.906,8.194-11.919,9.297-18.594
		c2.455-14.85-11.057-26.005-15.106-40.674c-1.541-5.581,0.015-11.672-1.162-16.27c-2.805-10.945-9.281-18.821-9.297-29.052
		c-0.981-4.854,2.258-5.489,2.324-9.297c-50.415-13.318-62.504-60.544-131.32-53.457c-10.161-9.981-15.816-24.47-24.403-36.026
		c-25.175,9.807-49.441,4.636-73.213-3.487c-3.553,4.195-4.92,10.576-5.812,17.432c-4.491,3.33-9.932,4.276-15.107,6.973
		c-13.044,6.796-22.904,15.7-37.188,23.243c-9.386,4.957-19.555,11.078-26.729,16.269c-7.993,5.784-19.443,12.326-32.54,2.325
		c-7.829,0.71-15.028,8.191-20.917,6.972c9.306-6.998,11.359-14.741,16.269-26.728c-4.271-9.675-3.475-24.416-15.107-26.729
		c-9.884,3.288-5.845,20.497-13.946,25.567c-10.292-0.995-14.409,4.184-23.242,4.648c-4.219,11.276-16.491,14.5-15.107,31.377
		c-12.273,3.997-23.952,8.587-36.025,12.784c-7.658,15.962-22.755,31.474-30.215,51.133c-1.858,4.896-1.576,11.14-3.487,16.27
		c-2.971,7.977-9.997,13.916-11.621,19.756c-1.949,7.008,0.003,14.601-1.163,20.918c-0.889,4.825-3.997,9.321-4.648,13.945
		c-4.539,32.261,11.07,55.654,17.432,85.997c16.466,14.137,13.573,47.631,36.026,55.781c1.685-6.739,3.829-12.991,2.324-19.756
		c-1.203-5.406-6.708-6.641-9.297-11.621c-5.421-10.436-2.701-23.381-8.135-30.216c7.871-3.855,17.648,10.139,18.594,20.919
		c10.273,12.969,17.47,29.015,27.891,41.836c6.672,6.886,17.148,9.968,18.594,22.08c-12.799,0.401-20.16-4.633-27.891-9.297
		c-12.175,1.775-11.041,17.942,2.324,17.432c12.94,17.99,39.733,28.5,59.268,37.188c6.764,3.007,17.094,6.616,25.566,11.622
		c18.25,10.777,36.243,34.053,58.106,37.187c17.652,2.53,39.184-0.323,54.619,2.325c10.663,1.828,21.712,0.417,32.539,2.323
		c11.594,2.042,22.489,4.377,39.513,4.649c4.942,0.078,13.678-2.784,17.431,3.485c-38.067,26.008-119.37,26.322-168.506,8.135
		c-3.473,4.307,3.045,8.531,1.162,15.107c13.592,16.234,34.665,24.99,52.295,37.188c9.685,0,19.368,0,29.053,0
		c4.708-4.202,5.557-12.264,11.621-15.108c5.641,5.206,11.927,9.768,13.945,18.595c6.854,2.055,9.268,8.551,18.595,8.135
		c6.403,4.929,10.803,10.703,19.755,16.27c7.656,4.759,43.611,18.866,18.594,26.729c-3.765,1.183-9.842-0.295-15.106,0
		c-23.764,1.328-49.798,3.908-73.214,0c-18.092-3.021-34.196-14.971-48.809-16.271c-6.983-0.62-12.865,2.799-18.593,2.324
		c-9.615-0.795-14.282-7.439-19.756-10.459c-32.073-3.687-48.672-15.527-72.051-24.403c-5.396-15.522-10.798-31.038-23.242-39.513
		c-11.896,2.065-23.639,3.167-33.701-4.648c-2.581-2.004-17.074-15.008-17.432-16.269c-1.548-5.456,1.692-9.969,2.324-15.108
		c6.616-3.457,16.062-4.082,20.918-9.297c-1.478-13.629-10.5-19.716-16.27-29.052c-1.285-6.322,3.947-6.126,3.486-11.622
		c-12.48-16.959-27.463-31.418-41.836-46.484c-2.143-8.893-9.003-11.751-13.945-20.919c-3.62-6.714-5.65-21.165-12.784-22.078
		c-16.465-2.112-12.559,25.265-12.783,38.349c-0.054,3.146-2.4,6.766-2.324,9.297c0.64,21.114,9.953,31.659,17.432,42.998
		c8.015,0.895,16.216,1.603,22.08,4.648c-19.26,24.411-1.499,69.818-9.297,101.104c-10.169-3.897-20.246-13.804-27.891-23.242
		c-20.1-24.812-36.776-54.165-41.836-95.293c-7.459-6.873-11.396-17.269-18.593-24.403c5.024-16.721-5.497-26.907-9.297-36.026
		c-7.878-18.907-3.508-42.561-11.622-61.592c5.978-5.204,21.782-16.849,22.08-29.053c0.151-6.187-3.743-6.174-6.973-12.784
		c-8.786-17.984-11.39-43.57,0-58.105c15.437-0.328,20.503,9.712,33.701,11.622c7.049-5.454,4.111-12.95,8.136-23.242
		c4.642-11.874,17.029-21.242,18.593-29.053c2.102-10.493-3.115-14.838-9.297-19.756c-2.066-16.011,6.5-21.39,17.432-24.404
		c1.59-16.412,15.876-23.317,16.269-37.188c0.114-4.029-3.833-8.216-3.486-12.783c0.409-5.395,12.388-24.521,16.27-30.215
		c1.045-1.534,4.64-2.091,5.811-3.487c6.188-7.369,9.877-16.98,15.108-22.08c11.324-11.041,32.075-19.16,31.377-39.512
		c-20.401-12.577-78.194-3.474-82.51,19.756c-1.052,5.66,2.065,9.903,2.324,16.27c-9.527,1.24-22.651-3.578-32.539-5.811
		c-19.157,6.033-45.678,14.549-61.592,5.811c0.784-14.324,12.579-17.637,16.27-29.053c15.166-15.823,34.444-27.535,53.458-39.511
		c10.052-0.794,17.173-4.52,25.566-6.973c9.357-11.535,23.403-23.36,40.674-23.242c13.153-13.576,36.546-16.912,53.458-26.729
		c10.688-0.073,18.671,14.033,27.89,15.107c15.408,1.795,36.946-29.973,53.458-27.891c5.603,5.243,8.611,13.082,15.107,17.432
		c1.847,6.533-9.705,10.44-8.135,17.432c1.6,7.124,13.542,5.976,22.08,8.135c15.743,3.982,16.219,8.185,32.54,5.811
		c28.219-4.104,63.562-2.789,83.673-12.783c6.698,3.432,14.908,6.514,23.241,2.324c0.278-4.926-1.068-8.229-2.324-11.622
		c-19.236-13.675-47.004-22.424-75.537-23.242c-9.504,4.055-10.376,16.74-17.432,23.242c-11.806-10.073-21.867-27.827-42.998-26.729
		c-9.61-10.532-29.668-10.618-39.511-20.917c6.281-11.033,36.363-20.428,49.971-22.08c21.856-2.654,48.308-3.255,69.727,0
		c4.289,0.652,7.196,3.469,11.621,3.486c6.844,0.027,12.952-6.317,19.756-6.972c9.487-0.915,23.657,5.193,36.025,4.648
		c17.176-0.758,31.4,3.356,48.81,4.648c10.178,9.965,15.886,24.4,29.054,31.377C576.586,43.214,602.287,40.115,614.876,51.334z"/>
	<path fill-rule="evenodd" clip-rule="evenodd" d="M280.187,552.205c6.178,3.893,12.392,7.751,19.756,10.459
		c0,2.712,0,5.423,0,8.135c-10.5,3.296-19.041-2.711-23.242-9.297C275.944,556.484,278.708,554.987,280.187,552.205z"/>
	<path fill-rule="evenodd" clip-rule="evenodd" d="M668.332,605.662c-1.889,3.744-0.553,6.296,0,10.459
		c-5.837,4.872-9.939,4.755-18.593,5.811c-5.575-4.198-4.281-12.154-2.324-19.756C655.386,598.23,663.66,600.449,668.332,605.662z"
		/>
	<path fill-rule="evenodd" clip-rule="evenodd" d="M625.334,631.229c5.73,7.709,0.322,19.081-4.647,23.242
		C606.769,652.695,609.84,621.572,625.334,631.229z"/>
	<path fill-rule="evenodd" clip-rule="evenodd" d="M569.553,648.66c3.863,3.109,9.872,4.075,12.784,8.135
		c-1.565,4.245-4.306,7.315-6.973,10.46c-3.548-0.957-2.787-3.269-6.973-1.162C567.707,659.325,566.515,653.85,569.553,648.66z"/>
</g>
</svg>
