<?xml version="1.0" encoding="utf-8"?>
<!-- Generator: Adobe Illustrator 14.0.0, SVG Export Plug-In . SVG Version: 6.00 Build 43363)  -->
<!DOCTYPE svg PUBLIC "-//W3C//DTD SVG 1.1//EN" "http://www.w3.org/Graphics/SVG/1.1/DTD/svg11.dtd">
<svg version="1.1" id="Layer_1" xmlns="http://www.w3.org/2000/svg" xmlns:xlink="http://www.w3.org/1999/xlink" x="0px" y="0px"
	 width="800px" height="800px" viewBox="0 0 800 800" enable-background="new 0 0 800 800" xml:space="preserve">
<g>
	<path fill-rule="evenodd" clip-rule="evenodd" d="M383.819,35.858c10.469,7.285,23.931,0.2,36.74,1.147
		c6.698,0.496,13.654,4.438,20.668,4.594c12.471,0.276,26.327-4.953,40.187-5.741c31.379-1.785,62.363,0.656,94.149,0
		c15.565,18.31,34.741,13.843,62.002,17.223c5.038,0.625,10.142,2.999,14.926,3.444c4.717,0.439,10.598-1.459,14.927,0
		c7.996,2.694,13.534,17.608,19.519,25.259c9.293,11.884,15.937,15.215,39.037,13.779c4.958,9.838,6.048,19.828,9.185,31
		c6.372,22.689,21.587,44.119,26.408,68.891c3.261,16.743,7.561,29.68,17.223,41.334c2.399,14.947-1.937,25.524-3.443,39.037
		c-1.919,17.194,5.799,33.591,3.443,51.668c-4.607,35.354-32.54,64.794-42.481,95.298c-11.122,6.866-26.374,9.602-35.594,18.37
		c-14.066,0.095-23.086,5.236-32.148,10.334c-4.944,21.35-15.201,41.403-40.187,36.742c-9.1-1.698-12.211-12.617-20.667-16.075
		c-4.416-1.806-9.021,0.349-13.777-1.147c-6.785-2.135-11.85-11.063-20.667-17.222c-3.4-2.376-7.532-2.388-10.334-4.595
		c-4.311-3.393-6.649-9.287-10.334-12.629c-13.961-12.661-30.583-18.072-41.334-26.407c-3.935-22.908-8.956-47.391-26.408-59.705
		c5.683-17.456,6.345-32.827,14.926-47.075c4.661-0.698,7.364-3.354,12.632-3.444c7.385-15.578,20.037-25.89,26.407-42.482
		c43.075,2.852,78.383,13.47,96.445,41.333c-19.821-4.289-34.379-13.842-57.407-14.925c-14.933,8.03-24.955,20.972-32.15,36.741
		c-0.872,10.669,0.273,21.646,4.595,28.705c8.369,13.674,38.021,27.889,58.556,32.149c58.354,12.104,127.943-35.106,86.113-87.261
		c5.027-22.877-13.347-36.698-6.89-60.853c-33.531-17.846-50.551-54.192-90.705-65.446c-9.91-2.778-21.243-2.386-33.298-5.741
		c-10.997-10.901-12.749-31.09-34.444-29.852c-5.969,0.34-11.972,4.72-18.371,4.592c-10.845-0.215-25.498-10.312-42.481-6.889
		c-6.726,2.076-5.812,11.794-9.186,17.222c-3.795,2.33-7.953,4.295-14.926,3.444c-3.156,1.054-3.368,5.052-4.593,8.037
		c-11.442,5.712-23.215,13.387-35.594,21.815c-10.323,7.03-23.934,19.988-35.593,20.667c-9.912,0.578-19.733-8.107-29.853,0
		c12.4-9.6,15.063-39.955-3.444-44.779c-8.421,2.72-3.583,11.656-6.89,17.222c-4.874,8.208-15.379,9.798-26.407,12.63
		c-7.762,8.312-12.29,19.86-16.075,32.148c-10.067,3.711-14.158,13.397-28.704,12.63c-8.582,9.023-10.5,24.711-21.815,31
		c1.246,10.431-2.82,15.55-6.889,20.667c-4.267,2.309-7.215-1.161-11.481,1.148c-0.859,8.912,4.56,14.083,2.296,22.963
		c-2.247,8.814-8.768,12.734-10.333,25.26c-2.985,23.882-0.708,63.174,3.444,81.52c7.084,31.298,10.708,65.486,33.297,81.52
		c18.093-20.303-14.2-42.981-4.593-65.445c19.565,30.572,31.142,69.133,55.113,95.299c-25.828,1.239-30.36-17.886-42.482-27.557
		c-9.812,12.011,1.459,25.059,9.185,33.297c6.942,7.404,17.108,16.366,22.963,20.667c12.778,9.386,30.359,15.908,44.779,25.26
		c15.543,10.08,29.117,21.452,40.187,35.593c11.807,2.965,23.072,14.232,35.593,17.224c8.14,1.945,17.688,0.127,26.408,1.147
		c19.776,2.319,39.024,8.099,56.261,11.482c18.977,3.726,39.007-2.74,57.407,4.592c-42.162,30.36-116.489,19.673-161.893,4.594
		c-8.241-2.737-22.037-7.429-29.852-11.481c-6.494-3.37-10.994-9.998-17.222-12.631c-8.032-3.396-16.667-2.502-24.111-5.74
		c-23.814-10.36-43.885-30.563-62.001-49.371c-19.588-20.336-33.176-41.07-47.075-67.742c-8.365-16.051-21.383-31.743-25.26-53.964
		c-16.008-19.068-5.143-58.29-22.963-74.631c10.927-16.152,2.968-39.144,8.038-57.408c1.178-4.247,5.856-7.569,6.888-11.482
		c4.133-15.675-6.149-26.13-5.741-39.038c10.425-10.965,15.12-15.052,21.815-32.149c1.844-4.71,5.317-11.368,5.741-14.926
		c0.628-5.277-2.07-11.21-1.148-17.223c1.125-7.332,7.361-13.262,11.481-20.667c2.396-4.306,2.631-9.091,4.593-12.629
		c8.509-15.351,23.614-25.399,29.853-39.038c-12.467-8.39-23.274,3.032-33.297,5.74c-2.257,0.61-5.237-0.583-6.89,0
		c-24.212,8.538-43.347,26.477-60.853,40.186c0.766,8.419,1.607,16.764,1.148,26.408c-21.179-2.504-36.061-0.171-51.667,6.89
		c-5.993,2.71-10.384,8.283-16.075,10.333c-7.658,2.76-14.156,2.116-18.371,9.185c-15.127-0.966-19.019,9.303-31,11.481
		c2.238-26.849,22.124-36.049,32.148-55.112c17.546-16.461,33.156-33.374,53.963-48.224c8.814-6.29,18.933-8.885,27.557-13.778
		c12.313-6.985,21.248-15,26.408-28.704c13.722-1.971,17.22-14.164,33.297-13.779c7.083-13.595,21.549-18.877,37.89-26.408
		c13.524-6.233,26.512-18.395,35.593-18.371c6.004,0.017,9.827,5.192,14.926,5.741c3.984,0.43,10.365-2.806,17.222-3.444
		c5.087-0.474,11.309,1.023,14.927,0c7.521-2.128,8.091-9.63,14.926-16.074c12.329-11.625,45.231-25.267,57.409-11.482
		C390.647,21.67,384.915,27.191,383.819,35.858z"/>
	<path fill-rule="evenodd" clip-rule="evenodd" d="M328.707,513.496c1.461,2.75,4.192,4.229,3.444,9.187
		C323.264,537.044,301.332,507.548,328.707,513.496z"/>
	<path fill-rule="evenodd" clip-rule="evenodd" d="M690.381,572.054c2.222,4.066-0.028,6.631,0,11.481
		c-5.567,2.087-9.629,5.68-17.223,5.741C673.567,578.204,675.497,568.652,690.381,572.054z"/>
	<path fill-rule="evenodd" clip-rule="evenodd" d="M487.154,772.983c-6.842-2.345-13.589-4.782-19.519-8.037
		c-20.616-3.104-23.703,13.28-34.444,20.667c-1.496,1.028-16.471,7.626-18.371,8.036c-7.03,1.521-14.083-1.063-25.26,0
		c-9.333-8.856,1.287-16.402,1.148-28.703c-6.159-6.472-22.97-2.291-31-6.89c-17.81-18.166-48.828-23.124-78.075-29.853
		c-3.325,5.479-4.06,13.546-6.89,19.519c-10.506,0.938-15.476-3.659-22.963-5.739c2.909-6.212,7.059-9.42,4.593-18.371
		c-6.075-2.729-17.844,0.239-24.111-2.297c-10.636-23.81-48.737-20.153-55.112-48.224c6.483-6.818,12.55,1.736,17.222,3.444
		c6.862,2.509,13.906,4.29,21.815,8.037c6.292,2.982,14.241,8.106,19.519,9.187c5.205,1.063,10.938-0.861,16.074,0
		c13.392,2.241,23.936,10.788,35.593,12.63c8.47,1.336,18.939-1.967,32.149-2.296c10.395-0.262,22.67,2.773,32.149,1.147
		c2.891-0.496,6.166-3.117,9.186-3.445c20.567-2.24,47.743,11.838,73.482,5.741c4.618-1.094,10.697-3.528,16.074-5.741
		c11.505-4.731,22.889-18.788,33.297-20.667c11.921-2.152,21.274,4.616,29.853,6.89c4.022,0.457-0.119-4.887,4.592-5.741
		c25.974-4.262,42.371-18.1,58.558-32.148c2.188-11.543-3.912-20.351-2.297-27.557c43.134,5.265,60.722-23.979,95.299-31
		c1.335-0.188,2.042,0.253,2.296,1.147c-15.579,51.398-49.548,84.405-90.705,110.225c-4.145,10.397-11.441,17.646-18.371,25.26
		c-15.909,0.635-22.644,15.382-33.297,22.964C516.974,760.18,501.07,763.878,487.154,772.983z"/>
</g>
</svg>
