<?xml version="1.0" encoding="UTF-8" standalone="no"?>
<!-- Created with Inkscape (http://www.inkscape.org/) -->

<svg
   xmlns:dc="http://purl.org/dc/elements/1.1/"
   xmlns:cc="http://creativecommons.org/ns#"
   xmlns:rdf="http://www.w3.org/1999/02/22-rdf-syntax-ns#"
   xmlns:svg="http://www.w3.org/2000/svg"
   xmlns="http://www.w3.org/2000/svg"
   xmlns:sodipodi="http://sodipodi.sourceforge.net/DTD/sodipodi-0.dtd"
   xmlns:inkscape="http://www.inkscape.org/namespaces/inkscape"
   width="304.75443mm"
   height="187.26413mm"
   viewBox="0 0 304.75443 187.26413"
   version="1.1"
   id="svg8"
   inkscape:version="0.92.4 (5da689c313, 2019-01-14)"
   sodipodi:docname="koradaros_glyph.svg">
  <defs
     id="defs2" />
  <sodipodi:namedview
     id="base"
     pagecolor="#ffffff"
     bordercolor="#666666"
     borderopacity="1.0"
     inkscape:pageopacity="0.0"
     inkscape:pageshadow="2"
     inkscape:zoom="0.49497475"
     inkscape:cx="541.64487"
     inkscape:cy="604.55496"
     inkscape:document-units="mm"
     inkscape:current-layer="layer1"
     showgrid="false"
     inkscape:window-width="1920"
     inkscape:window-height="1017"
     inkscape:window-x="-8"
     inkscape:window-y="-7"
     inkscape:window-maximized="1" />
  <metadata
     id="metadata5">
    <rdf:RDF>
      <cc:Work
         rdf:about="">
        <dc:format>image/svg+xml</dc:format>
        <dc:type
           rdf:resource="http://purl.org/dc/dcmitype/StillImage" />
        <dc:title></dc:title>
      </cc:Work>
    </rdf:RDF>
  </metadata>
  <g
     inkscape:label="Layer 1"
     inkscape:groupmode="layer"
     id="layer1"
     transform="translate(130.0846,-103.31664)">
    <path
       style="fill:#000000;stroke-width:1.75146222"
       d="m 6.5924652,278.47837 c 5.4044398,-15.46872 5.3959398,-19.03058 -0.0629,-26.42981 -5.52118,-7.48351 -5.49525,-10.92291 0.1551,-20.56443 3.07438,-5.24605 4.1900998,-9.1054 3.4661698,-11.98973 -1.6423698,-6.54378 -9.87497977,-14.62537 -17.5756718,-17.25332 l -6.9485792,-2.37131 6.1257772,-2.55951 c 7.61679403,-3.18249 17.404424,-12.76556 17.404424,-17.04063 0,-1.76137 -2.79243,-6.54483 -6.20541,-10.62991 -3.41297997,-4.08508 -6.9598,-8.83697 -7.881829,-10.55981 -2.20773,-4.12519 0.187599,-10.091 6.272419,-15.62202 l 4.81706,-4.3786 -3.02502,4.73076 c -3.89658997,6.09377 -2.67922997,9.55521 6.9430898,19.742 8.58698,9.0907 9.10181,10.91171 5.21165,18.43447 -2.75334,5.32435 -12.9032698,14.01523 -16.3681798,14.01523 -3.791793,0 -2.03759,2.64185 3.33263,5.01892 6.27865,2.77921 14.1017498,13.81478 15.4447098,21.78689 0.51852,3.07796 0.88218,12.29562 0.80817,20.48366 -0.11267,12.46377 -1.09849,17.43013 -6.05552,30.50583 -7.1551998,18.87408 -12.23482977,22.93335 -5.8579398,4.68132 z m 7.1302198,-37.95756 c -0.58472,-1.52372 -1.06312,-5.11696 -1.06312,-7.98494 0,-3.03037 -0.73363,-4.76109 -1.75147,-4.13202 -3.3588998,2.07587 -1.5291498,14.88737 2.12625,14.88737 0.96329,0 1.27305,-1.24669 0.68834,-2.77041 z m 24.4801,48.54636 c -0.51449,-0.83249 -3.4172,-8.1229 -6.45046,-16.20105 -4.51549,-12.02548 -5.54155,-17.38565 -5.66132,-29.5749 -0.0804,-8.18804 0.27797,-17.4057 0.79645,-20.48366 1.34296,-7.97211 9.16606,-19.00768 15.44471,-21.78689 5.37022,-2.37707 7.12442,-5.01892 3.33263,-5.01892 -3.46491,0 -13.61484,-8.69088 -16.36818,-14.01523 -3.89016,-7.52276 -3.37533,-9.34377 5.21165,-18.43447 9.62233,-10.18679 10.83967,-13.64823 6.94309,-19.742 l -3.02502,-4.73076 4.81707,4.3786 c 6.08479,5.53102 8.48014,11.49683 6.2724,15.62202 -0.92202,1.72284 -4.46884,6.47473 -7.88182,10.55981 -3.41297,4.08508 -6.20541,8.86854 -6.20541,10.62991 0,4.27507 9.78762,13.85814 17.40442,17.04063 l 6.12577,2.55951 -6.94857,2.37131 c -7.70069,2.62795 -15.9333,10.70954 -17.57567,17.25332 -0.72393,2.88433 0.39175,6.74368 3.46617,11.98973 5.65031,9.64152 5.67626,13.08092 0.15496,20.56443 -5.45111,7.38857 -5.46561,10.96632 -0.10664,26.30483 2.34959,6.72502 3.57835,12.22738 2.73057,12.22738 -0.84778,0 -1.96238,-0.68117 -2.47687,-1.5136 z m -3.83733,-48.54636 c 1.63784,-4.26818 1.26038,-10.91257 -0.68834,-12.11696 -1.01784,-0.62887 -1.75147,1.10165 -1.75147,4.13202 0,2.86798 -0.47841,6.46122 -1.06312,7.98494 -0.58471,1.52372 -0.27498,2.77041 0.68835,2.77041 0.9633,0 2.22986,-1.24669 2.81458,-2.77041 z m -102.273144,39.20511 c 0,-5.48833 10.741289,-18.07397 19.037599,-22.30641 3.520542,-1.79605 12.302639,-5.05804 19.515761,-7.24883 14.626796,-4.44261 22.7478102,-10.9049 22.7478102,-18.10157 0,-2.56109 2.270114,-6.93989 5.290974,-10.20566 l 5.29097,-5.71988 -2.59432,5.25439 c -1.42686997,2.88996 -3.03104,7.40737 -3.56482,10.03877 -1.27735,6.29719 -10.3853732,16.5141 -18.2686732,20.49294 -3.462772,1.74773 -11.001173,4.53224 -16.752004,6.18783 -19.261154,5.54505 -25.448911,10.01408 -25.448911,18.38032 0,1.72986 -1.182239,4.12639 -2.627193,5.32561 -2.21333,1.8369 -2.627193,1.50645 -2.627193,-2.09751 z m 56.102488,2.74982 c 0.03045,-0.84044 1.212868,-3.05797 2.6271932,-4.92784 3.643351,-4.81695 3.186068,-13.2349 -0.9586112,-17.64666 -3.527665,-3.75509 -3.527691,-3.75986 -0.0331,-6.92262 7.6634442,-6.93532 12.9584042,6.30964 7.4707042,18.68748 -3.102735,6.99841 -9.2327552,14.27498 -9.1064322,10.80964 z m 64.220626,-2.01927 c -7.88189,-8.70941 -9.79924,-23.47121 -3.70545,-28.52859 2.03114,-1.68571 3.25629,-1.47275 6.04472,1.05074 3.49483,3.16276 3.49479,3.16753 -0.0331,6.92262 -4.24472,4.51828 -4.56946,12.65303 -0.72426,18.14281 3.46039,4.94041 2.3029,6.70536 -1.58215,2.41242 z m 57.012425,1.12647 c -1.20414,-1.21637 -2.18933,-3.56577 -2.18933,-5.22096 0,-8.21882 -6.29165,-12.72935 -25.448925,-18.24448 -5.75082,-1.65559 -13.28924,-4.4401 -16.752,-6.18783 -7.8833,-3.97884 -16.99131,-14.19575 -18.26868,-20.49294 -0.53374,-2.6314 -2.13794,-7.14881 -3.56482,-10.03877 l -2.59431,-5.25439 5.29097,5.71988 c 3.02087,3.26577 5.29098,7.64457 5.29098,10.20566 0,7.43756 8.08734,13.58693 24.63256,18.72991 8.24975,2.56434 17.63447,6.45613 20.85497,8.64831 8.451505,5.75285 16.216685,16.02669 15.523295,20.53828 -0.47032,3.06008 -1.01577,3.37412 -2.77471,1.59733 z M -65.771228,226.2118 c -3.159814,-1.68431 -12.086571,-7.71572 -19.837246,-13.40317 -17.120696,-12.56319 -26.731686,-14.61365 -37.835506,-8.07193 l -6.64062,3.91225 3.50293,-3.88279 c 4.96615,-5.50461 15.51969,-10.51585 22.14625,-10.51585 6.648533,0 17.755951,5.08889 25.143225,11.5194 8.716979,7.58803 20.152291,13.53384 25.724356,13.37543 3.792095,-0.1079 7.08764,-2.13273 11.828271,-7.26777 6.599629,-7.14868 9.52486,-8.54378 11.434829,-5.45337 0.565918,0.9157 3.719458,1.3205 7.00782,0.89948 7.576769,-0.97011 12.324741,3.01117 9.619455,8.06604 -2.011772,3.759 -4.386523,4.3457 -6.135534,1.51571 -0.760464,-1.23047 -2.224464,-0.89591 -4.300375,0.98276 -2.462257,2.22833 -3.329921,2.34847 -3.985847,0.55209 -0.671629,-1.83955 -1.300149,-1.86087 -3.159126,-0.10724 -3.110398,2.93438 -5.123032,2.76233 -5.123032,-0.43756 0,-3.95931 -1.528568,-3.27881 -9.8359,4.3786 -8.482145,7.81859 -11.23414,8.37286 -19.55395,3.93812 z m 156.775863,-3.75178 c -8.50896,-7.84328 -10.03805,-8.53868 -10.03805,-4.56494 0,3.20016 -2.01262,3.3722 -5.12303,0.43756 -1.85898,-1.75376 -2.4875,-1.73244 -3.15912,0.10724 -0.65595,1.79645 -1.5236,1.6763 -3.98584,-0.55208 -2.07592,-1.87868 -3.53992,-2.21324 -4.30039,-0.98277 -1.74901,2.82993 -4.12376,2.24329 -6.13552,-1.51571 -2.7053,-5.05487 2.04267,-9.03615 9.61945,-8.06604 3.28836,0.42102 6.44187,0.0132 7.00782,-0.89948 1.90996,-3.09041 4.8352,-1.69531 11.43482,5.45337 4.74064,5.13504 8.03617,7.15994 11.82827,7.26777 5.572075,0.15821 17.007395,-5.7874 25.724365,-13.37543 7.38727,-6.43051 18.49469,-11.5194 25.14322,-11.5194 6.62657,0 17.18011,5.01124 22.14626,10.51585 l 3.50292,3.88279 -6.64061,-3.91225 c -5.2274,-3.07968 -8.47477,-3.73602 -15.25916,-3.08411 -8.6369,0.82991 -8.79931,0.9253 -38.52567,22.63056 -2.40826,1.7584 -6.86682,3.68579 -9.9079,4.28308 -4.770885,0.93702 -6.599405,0.0993 -13.331835,-6.10621 z m -72.03325,-16.98323 c -1.31502,-3.42689 0.10042,-5.9721 3.32122,-5.9721 1.33126,0 2.86361,0.71705 3.40524,1.59343 1.46289,2.36701 -0.81723,7.1639 -3.40524,7.1639 -1.23883,0 -2.73338,-1.25337 -3.32122,-2.78523 z m -75.264832,-2.67549 c -3.099747,-3.62025 -3.095212,-3.83678 0.148281,-7.08023 3.29346,-3.2935 3.397773,-3.28847 6.664654,0.32106 2.489345,2.75075 2.86821,4.38164 1.515865,6.52556 -2.712256,4.29983 -4.796939,4.35821 -8.328806,0.23302 z m 149.870552,1.60746 c -2.95254,-2.95251 -2.61946,-5.64408 1.1169,-9.02543 3.01013,-2.72414 3.41521,-2.6956 6.253285,0.44021 2.88035,3.18275 2.87501,3.53969 -0.10492,7.02 -3.638245,4.24911 -4.414075,4.41626 -7.265265,1.56502 z M -17.753378,188.74358 c -1.920765,-1.11602 -6.69527,-1.4423 -11.595317,-0.79225 -11.282762,1.49671 -24.656507,-1.64943 -33.142472,-7.79662 -3.861601,-2.79735 -11.356233,-10.81917 -16.654733,-17.82638 -13.904639,-18.3886 -24.63122,-26.0221 -40.04073,-28.49456 -3.63916,-0.58386 -6.20487,-1.72787 -5.70158,-2.54223 1.19422,-1.93229 10.19499,0.15821 20.6876,4.80445 9.313277,4.1242 26.964268,20.05067 34.791089,31.392 2.805422,4.06515 7.871267,9.50436 11.257428,12.0871 5.585001,4.25991 7.455714,4.67126 20.147333,4.43004 12.616128,-0.23963 26.143855,2.74956 26.143855,5.77714 0,1.46719 -2.267823,1.06743 -5.892473,-1.03869 z m 74.199493,1.2261 c 0,-3.19877 13.20105,-6.21047 26.14385,-5.96455 12.69162,0.24096 14.56234,-0.17013 20.147335,-4.43004 3.38617,-2.58274 8.45201,-8.02195 11.25744,-12.0871 7.82682,-11.34133 25.47781,-27.2678 34.79109,-31.392 10.49261,-4.64644 19.49339,-6.73674 20.68761,-4.80445 0.50329,0.81436 -2.06244,1.95837 -5.7016,2.54223 -15.36506,2.46537 -26.13927,10.11053 -39.9076,28.31768 -15.91361,21.04416 -23.73711,25.40899 -46.400575,25.88786 -8.18809,0.17277 -16.26671,0.93741 -17.95249,1.69874 -1.68578,0.76127 -3.06506,0.86546 -3.06506,0.23169 z M -18.45927,177.57641 c -14.457642,-7.23288 -23.238594,-16.22402 -27.499045,-28.15722 -11.072513,-31.01336 -14.464917,-34.95492 -35.961074,-41.78255 -14.655477,-4.65484 -13.047989,-6.06523 1.871436,-1.64195 27.297555,8.09305 40.809268,22.38908 51.353046,54.33396 1.631842,4.94405 4.439376,10.3217 6.238954,11.95028 3.0688,2.77723 3.374644,2.77769 4.925434,0.006 2.470392,-4.41434 9.7132042,-1.76388 8.2008742,3.00105 -0.8803412,2.77372 -0.430413,3.38372 2.116139,2.86911 2.034737,-0.41109 3.182601,-2.09474 3.095111,-4.53966 -0.1639,-4.57911 1.47116,-4.93102 5.26835,-1.13382 3.70556,3.70557 3.46707,7.25068 -0.63548997,9.44631 -4.83285003,2.58651 -5.33443303,2.47146 -18.97374123,-4.35206 z m 62.207285,4.27334 c -3.80199,-2.21442 -3.92037,-5.75999 -0.31278,-9.3676 3.79719,-3.79719 5.43221,-3.44535 5.26835,1.13382 -0.0876,2.44492 1.06037,4.12851 3.09511,4.53966 2.54655,0.51435 2.99648,-0.0953 2.11614,-2.86917 -1.51234,-4.76493 5.73048,-7.41533 8.20087,-3.00098 1.5508,2.77114 1.85663,2.77068 4.92544,-0.006 1.79958,-1.62857 4.60712,-7.00622 6.23895,-11.95027 10.54379,-31.94488 24.05549,-46.24092 51.353055,-54.33403 14.91942,-4.42322 16.52691,-3.01282 1.87143,1.64202 -21.49615,6.82756 -24.88855,10.76912 -35.961075,41.78248 -4.26044,11.93326 -13.0414,20.9244 -27.49904,28.15722 -13.3313,6.66941 -14.67275,6.9665 -19.29647,4.27341 z m -95.937983,-9.54746 c -1.840912,-2.21819 -1.650841,-3.10364 1.099141,-5.12066 2.868515,-2.10401 3.744857,-2.05999 6.38382,0.32039 2.319668,2.09249 2.585284,3.32997 1.099142,5.12067 -2.582471,3.11172 -5.834372,2.99018 -8.582103,-0.3204 z m 140.383053,0.3204 c -1.48615,-1.7907 -1.22054,-3.02818 1.09913,-5.12067 2.63896,-2.38058 3.5153,-2.4246 6.38382,-0.32039 2.74998,2.01702 2.94005,2.90247 1.09914,5.12066 -2.74773,3.31078 -5.99963,3.43232 -8.58209,0.3204 z M -22.35117,154.86455 c -2.206895,-2.65919 -1.315579,-7.90392 1.34323,-7.90392 0.809417,0 2.971841,1.09695 4.805379,2.43764 2.832443,2.07117 2.982208,2.86123 0.996026,5.25439 -2.899593,3.49381 -4.384306,3.53783 -7.144635,0.21183 z m 82.142905,-0.21183 c -1.98617,-2.39315 -1.8364,-3.18321 0.99604,-5.25438 4.27762,-3.12781 6.03174,-3.0769 7.29376,0.21183 1.00643,2.62266 -2.07821,7.85924 -4.62957,7.85924 -0.7274,0 -2.37449,-1.26754 -3.66023,-2.81675 z"
       id="path876"
       inkscape:connector-curvature="0" />
  </g>
</svg>
