<svg xmlns="http://www.w3.org/2000/svg" viewBox="0 0 1000 1000"><title>Unknown256</title><path d="M500,541.69H425.72v18.45h11.89c26.16,0,36.39,24,36.39,54h0V734.5l26,66.86,28.32-66.86V614.12c0-30,7.91-54,34.07-54h11.89V541.69Z"/><circle cx="719.5" cy="491.46" r="34.08"/><path d="M346.25,300.66c-61.49,48.41-90.16,117.27-90.75,189.83h0c0,.32,0,.65,0,1s0,.65,0,1h0c.59,72.56,29.26,141.42,90.75,189.83,107.56,84.68,261.6,69,346.28-38.58V618.13H682.31C676,630,666,641.36,655.57,651.23c-73.15,69.23-192.42,50.29-265.7-32.53-27.72-37.43-48.52-82.73-48.82-127.23.3-44.5,21.1-89.8,48.82-127.23,73.28-82.83,192.54-101.77,265.7-32.53,10.43,9.87,20.38,21.25,26.74,33.1h10.22V339.24C607.86,231.67,453.82,216,346.25,300.66Z"/></svg>