<?xml version="1.0" encoding="utf-8"?>
<!-- Generator: Adobe Illustrator 14.0.0, SVG Export Plug-In . SVG Version: 6.00 Build 43363)  -->
<!DOCTYPE svg PUBLIC "-//W3C//DTD SVG 1.1//EN" "http://www.w3.org/Graphics/SVG/1.1/DTD/svg11.dtd">
<svg version="1.1" id="Layer_1" xmlns="http://www.w3.org/2000/svg" xmlns:xlink="http://www.w3.org/1999/xlink" x="0px" y="0px"
	 width="512px" height="800px" viewBox="0 0 512 800" enable-background="new 0 0 512 800" xml:space="preserve">
<g>
	<path fill-rule="evenodd" clip-rule="evenodd" d="M119.31,4.998c7.124,24.583-8.659,46.37-12.988,69.664
		c-1.526,8.213,0.708,16.484,0,24.795c-1.857,21.812-7.642,40.026-4.723,62.58c1.342,10.361,0.992,24.264,1.181,37.784
		c10.328-1.203,13.271-11.868,18.892-18.892c11.199-13.994,27.443-23.948,31.88-46.049c7.067-2.771,16.72-2.959,23.615-5.904
		c3.274-3.81,3.117-11.051,5.903-15.349c30.655-7.256,65.494-8.87,88.556-25.977c17.039,6.298,30.372-3.778,43.687-4.723
		c11.162-0.792,24.12,4.302,37.784,5.904c8.517,0.999,18.236-1.435,24.795,0c10.95,2.395,18.748,13.259,27.158,18.892
		c11.808-1.284,21.962-10.171,33.062-8.266c5.58,10.532,9.041,30.284,17.71,41.326c-1.589,22.608,16.565,28.533,11.808,50.771
		c7.457,7.495,13.378,22.903,5.903,35.423c1.804,6.46,4.081,12.449,9.446,15.35c-4.528,6.099-4.43,16.825-9.446,22.433
		c2.505,10.877,8.396,18.369,10.627,29.52c-8.096-2.911-17.197-12.667-20.074-21.253c-17.991-53.715-45.472-123.261-106.267-141.689
		c-7.579-2.298-16.609-7.122-24.795-5.904c-21.351,3.177-35.249,21.107-61.398,17.711c-28.407,25.906-60.746,47.883-82.652,80.291
		c-6.252-0.809-15.678,3.483-23.615,4.723c-4.615,15.458-17.765,22.381-28.338,31.881c8.859,25.493-11.217,48.161-9.446,73.206
		c7.974,12.408,22.174,17.019,24.796,33.06c0.987,6.038-1.981,12.165-1.181,18.892c0.694,5.831,5.184,7.865,4.723,12.989
		c12.376-7.372,17.995-20.149,31.88-28.338c23.846-14.065,57.611-18.269,88.556-22.434c37.558-5.056,73.825,0.032,107.448,9.446
		c20.293,11.192,37.488,25.485,55.493,38.964c2.045,23.146,27.176,23.204,37.785,37.784c-1.103,7.948-1.479,16.625-1.181,25.976
		c4.13,7.283,13.053,9.774,18.892,15.35c-10.81,27.761-18.572,58.569-29.52,86.195c-1.028,5.751,1.615,7.83,2.363,11.808
		c-16.502,8.511-18.725,27.127-28.34,41.325c-10.075,14.88-32.466,21.944-35.421,42.506c-12.991,3.934-22.599,11.249-34.241,16.53
		c8.887,32.265-11.653,38.139-34.24,40.146c0.409-6.174-3.341-11.431-7.087-16.531c-5.091-2.617-9.541,1.091-16.53,0
		c-14.996-10.674-31.297-30.036-48.41-42.507c-2.669-21.238-31.057-24.317-20.072-51.951c-3.65-5.797-7.841-11.052-12.988-15.352
		c10.492-18.793,16.513-35.896,23.614-56.675c-40.684-13.235-70.626-37.214-99.182-62.579c-10.661,18.98-23.075,41.541-29.518,64.94
		c-4.637,16.837,2.113,37.503-5.904,50.772c-0.522,29.446,19.756,47.769,22.434,72.025c0.649,5.875-3,13.548-1.181,20.072
		c1.68,6.025,19.875,22.312,25.977,29.52c12.701,15.001,29.964,29.771,35.422,50.771c-28.448-1.697-46.042-16.896-61.398-34.24
		c-9.674-10.928-16.337-23.818-22.435-36.604c-8.131-17.057-20-31.988-35.422-42.507c-17.592-29.431-29.487-60.724-43.687-95.64
		c-7.509-18.465-10.059-40.35-21.253-54.314c2.763-6.502,6.438-11.974,3.542-21.254c-0.656-2.104-3.417-4.131-3.542-5.902
		c-0.209-2.984,3.4-6.637,3.542-9.446c0.444-8.839-4.11-13.6-7.084-20.072c9.295-15.666,3.313-25.716,2.361-41.327
		c-1.109-18.196,5.308-40.035,10.627-54.314c3.471-9.317,12.256-17.025,12.988-25.976c1.587-19.395-25.189-35.702-9.446-53.134
		c9.952,1.069,19.593,2.449,28.338,4.724c-1.221-11.508,2.346-23.896-2.361-34.241c15.539-22.762,25.781-71.578,16.53-103.906
		c-7.862,0.404-6.343,10.188-14.169,10.626c-6.665-8.901,5.853-21.451,2.362-30.699c6.154,0.552,12.96,10.642,22.434,11.808
		c1.625-8.333-3.303-20.301-8.265-25.977C75.076,79.22,91.437,68.93,94.514,55.77c1.037-4.435-0.732-8.693,0-12.988
		c2.61-15.317,15.235-25.411,21.253-37.784C116.948,4.998,118.128,4.998,119.31,4.998z M53.188,422.979
		c-13.08,46.667,5.961,106.996,14.169,136.967c0.325,2.431,4.399,1.111,4.723,3.543c1.062,9.958,2.387,19.653,5.904,27.156
		c5.059,1.931,12.183,7.087,17.711,4.723c-4.809-16.844-33.146-38.771-1.181-46.049c4.284-13.176-2.887-23.826-1.181-34.241
		c0.705-4.302,4.707-7.249,5.903-11.808c1.899-7.23-0.749-12.856,0-21.252c7.246-15.584,23.746-21.91,21.253-47.231
		c-20.302-10.004-34.818-25.792-46.049-44.868C65.413,387.331,55.736,413.887,53.188,422.979z M235.022,425.342
		c-7.636,12.465-22.346,12.396-40.146,12.986c6.05,6.109,7.603,19.059,15.35,20.074c8.902,1.166,11.156-10.838,20.073-14.168
		c2.112,2.216,4.217,4.441,5.904,7.084c-1.432,32.94,31.884,41.305,40.145,68.483c5.048,6.365,13.886,8.942,16.53,17.711
		c-9.451,4.313-17.916-2.535-27.157-2.361c-26.281,39.687,28.223,78.847,62.579,89.735c11.516-3.937,24.089-8.465,34.243-15.349
		c6.775-4.596,23.154-16.822,25.977-25.977c2.086-6.774-2.292-14.82-1.183-22.434c1.577-10.804,13.537-19.586,15.351-30.7
		c-9.472-10.601-14.895-25.251-18.892-41.325c-7.755-5.627-17.397-9.367-21.253-18.892c4.496-9.412,3.507-18.318,5.902-28.34
		c-13.236-0.537-16.491-11.058-27.157-14.167c-13.185,18.693-37.488,26.271-61.397,34.241c-4.266-5.971-11.747-8.721-18.892-11.81
		c5.265-6.681,11.932-21.397,5.902-31.878C255.406,417.941,252,432.698,235.022,425.342z"/>
	<path fill-rule="evenodd" clip-rule="evenodd" d="M59.091,99.457c-4.207,2.584-10.553-2.793-10.627-8.265
		C55.7,84.979,55.9,95.103,59.091,99.457z"/>
	<path fill-rule="evenodd" clip-rule="evenodd" d="M144.105,541.054c1.18,0,2.361,0,3.542,0c4.081,17.982-0.462,44.264-2.362,63.761
		C123.204,591.641,140.768,562.036,144.105,541.054z"/>
	<path fill-rule="evenodd" clip-rule="evenodd" d="M173.623,614.261c-6.632,3.381-13.827,1.475-18.892-2.361
		C159.726,609.044,172.22,605.494,173.623,614.261z"/>
	<path fill-rule="evenodd" clip-rule="evenodd" d="M223.214,760.673c3.149,0,6.297,0,9.446,0
		c6.059,9.781,16.031,18.924,33.061,14.169c1.725,2.211,0.048,7.824,2.362,9.446c-3.57,3.907-12.344,2.611-17.712,4.721
		c-0.874-6.996-5.645-10.095-9.446-14.167C230.727,779.349,220.978,768.69,223.214,760.673z"/>
	<path fill-rule="evenodd" clip-rule="evenodd" d="M278.709,794.914c-2.971-4.379-5.142-6.46-3.542-12.988
		c7.438-2.712,21.471-15.515,22.435-3.542C298.174,785.489,285.483,790.188,278.709,794.914z"/>
</g>
</svg>
