<?xml version="1.0" encoding="UTF-8" standalone="no"?>
<!-- Created with Inkscape (http://www.inkscape.org/) -->

<svg
   xmlns:dc="http://purl.org/dc/elements/1.1/"
   xmlns:cc="http://creativecommons.org/ns#"
   xmlns:rdf="http://www.w3.org/1999/02/22-rdf-syntax-ns#"
   xmlns:svg="http://www.w3.org/2000/svg"
   xmlns="http://www.w3.org/2000/svg"
   xmlns:sodipodi="http://sodipodi.sourceforge.net/DTD/sodipodi-0.dtd"
   xmlns:inkscape="http://www.inkscape.org/namespaces/inkscape"
   width="47.762802mm"
   height="62.886631mm"
   viewBox="0 0 169.23828 222.82664"
   id="svg2"
   version="1.1"
   inkscape:version="0.91 r13725"
   sodipodi:docname="Old zeras.svg">
  <defs
     id="defs4" />
  <sodipodi:namedview
     id="base"
     pagecolor="#ffffff"
     bordercolor="#666666"
     borderopacity="1.0"
     inkscape:pageopacity="0.0"
     inkscape:pageshadow="2"
     inkscape:zoom="0.24748737"
     inkscape:cx="-216.19962"
     inkscape:cy="183.20463"
     inkscape:document-units="px"
     inkscape:current-layer="layer3"
     showgrid="false"
     inkscape:window-width="1366"
     inkscape:window-height="705"
     inkscape:window-x="-8"
     inkscape:window-y="-8"
     inkscape:window-maximized="1"
     fit-margin-top="0"
     fit-margin-left="0"
     fit-margin-right="0"
     fit-margin-bottom="0" />
  <metadata
     id="metadata7">
    <rdf:RDF>
      <cc:Work
         rdf:about="">
        <dc:format>image/svg+xml</dc:format>
        <dc:type
           rdf:resource="http://purl.org/dc/dcmitype/StillImage" />
        <dc:title></dc:title>
      </cc:Work>
    </rdf:RDF>
  </metadata>
  <g
     inkscape:groupmode="layer"
     id="layer3"
     inkscape:label="Layer 3"
     style="display:inline;opacity:1"
     transform="translate(-66.897008,-362.04068)">
    <path
       id="path4172"
       style="fill:#000000;fill-opacity:1"
       d="m 224.05721,435.44323 c -0.3352,-0.3352 -1.14849,0.44159 -1.80729,1.72619 -1.14512,2.23286 -1.1183,2.25968 0.60945,0.60946 0.99401,-0.94941 1.53304,-2.00045 1.19784,-2.33565 z m -23.38011,26.31184 c -7.05569,-9.07398 -6.84428,-8.0862 -6.9024,-32.25 -0.0555,-23.05795 -0.91216,-28.95095 -4.40562,-30.30526 -0.98565,-0.38211 -3.62288,-2.81945 -5.8605,-5.41632 l -4.0684,-4.72158 3.4733,-6.77842 c 1.94194,-3.78984 3.98147,-9.75447 4.62588,-13.52842 0.63392,-3.7125 1.39868,-6.72437 1.69946,-6.69305 1.28685,0.134 8.42559,10.56702 9.39768,13.73436 1.04014,3.3891 8.56317,12.53222 17.20479,20.90985 6.8313,6.62263 15.278,18.28947 17.59216,24.29884 1.1936,3.09953 2.30943,8.77337 2.55661,13 0.37669,6.44142 0.11094,8.11741 -1.88288,11.87434 -2.75274,5.18698 -6.47207,7.68115 -10.09735,6.77127 -1.49559,-0.37537 -5.0877,-3.66346 -8.6244,-7.89446 -7.18849,-8.59969 -7.65689,-11.30147 -3.05954,-17.64791 4.23393,-5.84478 5.42889,-6.02758 10.03037,-1.53435 l 3.92945,3.83701 0,-6.67444 c 0,-10.27758 -2.78384,-15.39397 -16.68471,-30.66463 l -11.81529,-12.97957 -1.22937,4.20637 c -0.67616,2.3135 -2.19171,6.29291 -3.3679,8.84312 l -2.13852,4.63676 3.99412,5.36324 c 5.48467,7.36474 6.13558,8.82701 7.85714,17.65105 1.17161,6.00517 1.35413,11.37929 0.82459,24.27981 -0.58761,14.31536 -0.45634,17.00023 0.96562,19.75 2.488,4.81126 0.56397,3.82027 -4.01429,-2.06761 z M 80.469046,436.7884 c -0.6842,-0.6842 -1.632966,-1.10061 -1.183333,-0.15 0.449633,0.95061 1.374221,2.32578 1.85,1.85 0.475779,-0.47578 0.01753,-1.0158 -0.666667,-1.7 z m 16.846509,29.66667 c -0.01641,-0.5775 0.425588,-1.50543 0.982224,-2.06207 0.603988,-0.60398 1.131407,-10.05933 1.30804,-23.45 0.340795,-25.8359 1.069551,-29.30946 8.100261,-38.60912 l 4.37871,-5.7918 -2.27633,-4.5185 c -1.25198,-2.48518 -2.60969,-6.09351 -3.01713,-8.01851 -0.40745,-1.925 -0.92507,-3.81423 -1.15028,-4.1983 -0.2252,-0.38406 -2.30781,1.41594 -4.62802,4 -2.320207,2.58407 -7.557203,8.2983 -11.637769,12.6983 -4.080566,4.4 -8.494693,10.3443 -9.809171,13.20956 -2.440289,5.31926 -4.377959,19.2904 -2.675414,19.29048 0.49227,3e-5 2.266977,-1.63404 3.943791,-3.63126 2.420844,-2.88341 3.501674,-3.48755 5.247855,-2.93333 2.710282,0.86021 8.203391,8.63493 8.203391,11.61075 0,2.73291 -5.511537,10.32706 -11.503506,15.85027 l -4.554978,4.19863 -3.934537,-2.21133 c -5.321284,-2.99073 -7.387076,-7.56713 -7.39566,-16.38377 -0.01313,-13.48417 5.405417,-23.21008 23.453773,-42.09789 10.574035,-11.06586 14.868865,-16.96067 14.974615,-20.55324 0.0218,-0.74188 2.00017,-3.47836 4.39629,-6.08106 l 4.35658,-4.7322 1.08113,6.2322 c 0.59462,3.4277 2.72546,9.48979 4.73519,13.4713 4.05531,8.03399 4.16854,7.36999 -2.46744,14.46947 -1.90656,2.03972 -3.81901,3.4907 -4.24989,3.2244 -2.60678,-1.61107 -5.00893,19.16508 -4.2203,36.50137 0.56641,12.45138 0.44111,14.00349 -1.46057,18.09271 -2.12104,4.56091 -10.126668,14.32958 -10.180855,12.42294 z m 40.972865,30.38979 c -0.001,-0.36312 1.34694,-3.51312 2.9965,-7 4.83878,-10.2283 4.20567,-17.19504 -2.88939,-31.79509 -2.90641,-6.89648 -4.38249,-14.01787 -4.8008,-21.02065 -0.44496,0.0132 -3.40207,4.85072 -6.57135,10.75 -4.75437,8.84974 -11.57054,18.22595 -13.24962,18.22595 -0.2123,0 0.25992,-1.54588 1.04937,-3.4353 1.47169,-3.52225 0.92976,-9.58922 -1.40398,-15.71789 -5.975,-15.69095 -1.18052,-34.20046 12.6513,-48.8415 7.96517,-8.43116 12.00877,-9.86647 16.50273,-5.85777 4.5328,4.04334 4.45228,6.87213 -0.35462,12.45821 -2.31636,2.69184 -4.50608,5.01332 -4.86603,5.15886 -0.35996,0.14553 -1.20829,-1.26694 -1.88518,-3.13884 -1.43194,-3.95997 -6.33389,-6.64142 -9.04988,-4.95044 -1.95159,1.21507 -4.98379,9.90907 -5.83503,16.73034 -0.43733,3.50447 0.0742,7.71747 1.79104,14.75 1.32177,5.41438 2.73112,9.84433 3.13187,9.84433 0.40076,0 2.62209,-3.44992 4.93628,-7.6665 3.57285,-6.50993 10.61614,-16.07904 15.60598,-21.20255 2.52844,-2.59616 2.33039,-0.35585 -0.30956,3.50181 -2.44226,3.56877 -2.6128,4.48466 -2.20979,11.86724 0.3408,6.24298 1.17695,9.70211 3.80711,15.75 1.85373,4.2625 3.69333,7.75 4.08801,7.75 0.39468,0 2.12563,-2.98009 3.84655,-6.62243 3.36317,-7.11815 5.20298,-15.04878 4.61137,-19.87757 -0.20215,-1.65 -0.41886,-3.96527 -0.48157,-5.14504 -0.0627,-1.17977 -1.23125,-3.20477 -2.59674,-4.5 -1.3655,-1.29523 -2.4905,-2.69246 -2.5,-3.10496 -0.11093,-4.81539 15.55361,14.94729 21.93442,27.6729 l 1.46558,2.9229 2.21529,-7.9229 c 1.21841,-4.35759 2.24952,-10.913 2.29136,-14.56756 0.0872,-7.6214 -3.18312,-19.63383 -5.59752,-20.56033 -2.77603,-1.06526 -6.72938,1.14544 -8.86875,4.95938 l -2.08795,3.72227 -2.9658,-3.23833 c -6.80554,-7.43092 -6.71439,-7.23724 -4.98232,-10.5867 2.01731,-3.90106 5.2752,-6.15163 8.90499,-6.15163 2.21002,0 4.28087,1.43006 8.886,6.13637 7.8341,8.00624 11.30811,13.62515 14.32241,23.16525 3.14766,9.96218 3.10506,15.65023 -0.20961,27.985 -2.29621,8.54485 -2.51898,10.53606 -1.57454,14.07439 0.60503,2.26678 0.98498,4.23651 0.84431,4.37717 -0.85358,0.85358 -9.80515,-12.06985 -13.59515,-19.62742 -2.475,-4.93535 -4.77589,-9.00427 -5.11309,-9.04206 -0.3372,-0.0378 -0.84362,2.7438 -1.12538,6.1813 -0.36682,4.47526 -1.74423,8.94761 -4.85073,15.75 -3.62695,7.94203 -4.39796,10.72998 -4.70137,17 -0.31023,6.41096 0.0174,8.35298 2.25618,13.3743 1.44052,3.23087 2.42961,6.06381 2.19799,6.29543 -0.62702,0.62702 -8.65959,-9.67163 -10.4669,-13.41973 -0.86192,-1.7875 -1.82391,-3.25 -2.13776,-3.25 -0.31386,0 -1.58481,2.1375 -2.82435,4.75 -2.0128,4.24226 -10.22509,14.74835 -10.23188,13.08979 z m 35.74729,-5.0755 c -5.37285,-6.90533 -5.78299,-9.17069 -2.33381,-12.89048 1.93601,-2.0879 3.96566,-2.83621 10.21277,-3.76535 11.55171,-1.71811 14.97044,-6.1811 10.84536,-14.15812 -2.12293,-4.10529 -1.20475,-3.69639 3.75508,1.67228 6.16822,6.67665 7.75659,9.42598 7.76401,13.43882 0.0114,6.17413 -2.43436,7.73075 -18.7264,11.91844 -4.70904,1.21041 -6.76613,3.89534 -5.83299,7.61326 0.94792,3.77679 -0.55286,2.76584 -5.68402,-3.82885 z m -50.53085,3.2327 c 0.10681,-3.75656 -2.47818,-6.70146 -6.57284,-7.48799 -10.31622,-1.98161 -12.9053,-2.92184 -15.67633,-5.69287 -3.411997,-3.412 -3.816914,-7.04616 -1.21339,-10.8903 2.75126,-4.06227 10.48246,-12.92583 11.27449,-12.92583 0.3949,0 -0.19106,1.83738 -1.30214,4.08307 -1.90071,3.84168 -1.9252,4.28215 -0.41419,7.45078 1.68809,3.53994 2.2421,3.77796 14.92758,6.41324 10.1045,2.0991 11.47026,7.5282 4.13519,16.43803 -2.54236,3.08818 -4.76226,5.61488 -4.93311,5.61488 -0.17085,0 -0.27222,-1.35135 -0.22526,-3.00301 z m 24.40131,9.58471 c -1.99125,-2.43006 -3.62046,-4.843 -3.62046,-5.36208 0,-0.51909 1.64915,-2.97746 3.66478,-5.46305 l 3.66477,-4.51925 3.84543,4.86483 3.84542,4.86482 -3.604,5.01652 c -1.98221,2.75908 -3.73259,5.01651 -3.88974,5.01651 -0.15716,0 -1.91494,-1.98823 -3.9062,-4.4183 z m 35.62505,10.1683 c -1.23809,-2.3375 -2.24982,-5.17507 -2.24829,-6.30572 0.006,-4.07206 6.36188,-10.72625 15.06356,-15.76933 5.75955,-3.33796 8.40626,-6.15515 10.50762,-11.18441 2.15021,-5.14619 2.17729,-16.14093 0.0594,-24.13488 -1.64672,-6.21563 -2.25903,-20.38775 -0.87783,-20.31753 0.4125,0.021 2.43336,2.51806 4.4908,5.54909 3.47439,5.1185 3.72865,5.98819 3.57011,12.21188 -0.12109,4.75341 0.50192,8.66224 2.14366,13.44947 4.09774,11.94878 1.7013,24.1477 -6.19167,31.51816 -1.33508,1.2467 -5.0904,3.19833 -8.34516,4.33695 -7.06895,2.47296 -8.69726,3.81854 -12.22766,10.10452 -1.47954,2.63437 -2.91585,4.79022 -3.1918,4.79078 -0.27594,5.6e-4 -1.51469,-1.91148 -2.75277,-4.24898 z m -70.62538,-1.68639 c -3.27072,-5.29898 -4.27917,-6.16071 -9.39214,-8.02562 -8.383922,-3.05796 -9.394956,-3.7203 -13.063651,-8.55818 -3.558582,-4.69267 -6.164422,-11.83218 -6.1642,-16.88874 7.5e-5,-1.70009 1.118322,-6.69107 2.484994,-11.09107 1.613638,-5.19511 2.490119,-10.40409 2.499864,-14.85684 0.01412,-6.45012 0.245105,-7.14583 3.89422,-11.72893 l 3.879215,-4.87209 0.620785,3.10393 c 1.013356,5.06678 0.70842,8.90362 -1.379214,17.35393 -2.373179,9.60613 -2.505147,15.43598 -0.502102,22.18097 2.016345,6.78977 4.485599,9.65995 11.549749,13.42511 8.25248,4.39852 13.95235,10.7321 13.95235,15.50354 0,2.90777 -3.19704,10.39038 -4.43942,10.39038 -0.15197,0 -1.92517,-2.67137 -3.94045,-5.93639 z m 63.5211,49.61945 c -2.27768,-2.95229 -4.14123,-6.11106 -4.14123,-7.01948 0,-0.90843 2.022,-5.81686 4.49333,-10.90763 2.47134,-5.09077 4.77027,-11.3042 5.10874,-13.80762 0.58156,-4.30134 0.31015,-4.99997 -4.93494,-12.70288 -6.39879,-9.39722 -12.95652,-27.38346 -9.91713,-27.20024 1.50085,0.0905 8.25064,12.12723 8.27374,14.75437 0.0335,3.8105 4.14383,13.35625 7.69851,17.87883 7.95864,10.12567 8.1526,14.39547 1.27775,28.1282 -5.29112,10.56919 -5.70576,12.08763 -3.81667,13.97672 0.65084,0.65084 0.93939,1.42728 0.64124,1.72544 -0.29816,0.29815 -2.40566,-1.87341 -4.68334,-4.82571 z m -53.80916,4.06694 c 0.36736,-0.9625 0.91121,-2.34716 1.20854,-3.07701 0.29734,-0.72986 -1.45671,-5.11736 -3.89788,-9.75 -8.05617,-15.2883 -8.02701,-17.95713 0.33247,-30.42299 4.60382,-6.86535 8.0248,-14.90033 8.0248,-18.84816 0,-1.09553 1.6875,-4.61144 3.75,-7.81311 3.66987,-5.69684 5.90263,-7.57426 4.86261,-4.08873 -0.28719,0.9625 -1.05946,4 -1.71613,6.75 -1.52306,6.37815 -5.10244,13.64142 -9.86694,20.02199 -2.06251,2.76209 -4.05862,5.99429 -4.4358,7.18267 -0.84802,2.67187 2.06671,11.82286 6.28149,19.72118 4.27111,8.00389 4.09094,10.95602 -1.04316,17.09249 -2.29237,2.73992 -3.86737,4.19417 -3.5,3.23167 z m 19.60444,-35.5 c -1.54144,-9.57348 -4.93651,-14.57284 -4.93651,-7.26918 0,4.02527 3.23967,12.01918 4.87098,12.01918 0.45668,0 0.48617,-2.1375 0.0655,-4.75 z m 21.59973,0.5 c 1.34432,-2.8875 2.44862,-6.8125 2.45399,-8.72222 0.01,-3.4605 0.003,-3.46554 -1.97017,-1.49229 -1.08896,1.08897 -2.43896,4.40039 -3,7.35871 -1.86096,9.81285 -1.11629,10.65804 2.51618,2.8558 z m -10.92925,10.66821 c -0.33385,-0.86998 -0.61388,-3.23248 -0.6223,-5.25 -0.0114,-2.73652 -0.26153,-3.28723 -0.98469,-2.16821 -0.53316,0.825 -0.97627,3.1875 -0.98469,5.25 -0.0114,2.78398 0.39866,3.75 1.59168,3.75 1.05452,0 1.39831,-0.5438 1,-1.58179 z m -22.82341,38.83179 c 3.57632,-4.54364 9.09818,-16.81975 10.79507,-23.9994 l 1.24067,-5.24941 -4.03645,-3.45505 c -2.22005,-1.90028 -5.15252,-5.0975 -6.51661,-7.10494 -2.16748,-3.18973 -2.43205,-4.50127 -2.09857,-10.40311 0.35381,-6.26155 0.74649,-7.25376 5.39339,-13.62777 2.75649,-3.78099 6.26237,-7.55758 7.79086,-8.39243 2.67133,-1.45905 2.87132,-1.4036 5.15914,1.43028 1.30905,1.6215 2.70887,4.7715 3.11072,7 l 0.73063,4.05183 0.80769,-4.46118 c 1.00301,-5.54 4.64707,-9.55218 7.77429,-8.55964 1.19743,0.38005 4.66196,4.05097 7.69896,8.1576 4.61047,6.23428 5.61216,8.34205 6.06927,12.77099 0.76444,7.40676 -0.97337,11.70449 -7.20885,17.82799 l -5.3605,5.26424 0.8601,4.5 c 1.1389,5.95865 7.59079,20.91588 10.243,23.74606 1.15766,1.23533 1.85851,2.49238 1.55745,2.79344 -1.23936,1.23935 -8.98605,-9.31372 -12.76104,-17.38395 -2.22682,-4.76055 -4.38971,-9.26395 -4.80642,-10.00755 -0.4167,-0.7436 -2.69849,-1.49675 -5.07064,-1.67368 -4.05735,-0.3026 -4.37852,-0.13356 -5.41845,2.852 -2.56838,7.37364 -8.9478,18.50497 -13.13765,22.92368 -5.38689,5.68112 -6.93263,6.23002 -2.81606,1 z"
       inkscape:connector-curvature="0"
       sodipodi:nodetypes="sssssssscsssssssssssscsscsscssssssssssssscsssssscsssscssscscssssssscsccssssssscssssssssssssssssscsssscssssssscscsssssssscssssssssssssssssssssssscccsssccssscsssssssccssssssscsssssssssssscsssscsssssssssssssscssccsccsscsscscsscssssssscssssscsssssssss" />
  </g>
</svg>
