<?xml version="1.0" encoding="UTF-8" standalone="no"?>
<!-- Created with Inkscape (http://www.inkscape.org/) -->

<svg
   xmlns:dc="http://purl.org/dc/elements/1.1/"
   xmlns:cc="http://creativecommons.org/ns#"
   xmlns:rdf="http://www.w3.org/1999/02/22-rdf-syntax-ns#"
   xmlns:svg="http://www.w3.org/2000/svg"
   xmlns="http://www.w3.org/2000/svg"
   xmlns:sodipodi="http://sodipodi.sourceforge.net/DTD/sodipodi-0.dtd"
   xmlns:inkscape="http://www.inkscape.org/namespaces/inkscape"
   width="498.5"
   height="680"
   id="svg3867"
   version="1.1"
   inkscape:version="0.48.4 r9939"
   sodipodi:docname="New document 3">
  <defs
     id="defs3869" />
  <sodipodi:namedview
     id="base"
     pagecolor="#ffffff"
     bordercolor="#666666"
     borderopacity="1.0"
     inkscape:pageopacity="0.0"
     inkscape:pageshadow="2"
     inkscape:zoom="0.49497475"
     inkscape:cx="1013.6311"
     inkscape:cy="284.52358"
     inkscape:document-units="px"
     inkscape:current-layer="layer1"
     showgrid="false"
     fit-margin-top="0"
     fit-margin-left="0"
     fit-margin-right="0"
     fit-margin-bottom="0"
     inkscape:window-width="1366"
     inkscape:window-height="705"
     inkscape:window-x="-8"
     inkscape:window-y="-8"
     inkscape:window-maximized="1" />
  <metadata
     id="metadata3872">
    <rdf:RDF>
      <cc:Work
         rdf:about="">
        <dc:format>image/svg+xml</dc:format>
        <dc:type
           rdf:resource="http://purl.org/dc/dcmitype/StillImage" />
        <dc:title></dc:title>
      </cc:Work>
    </rdf:RDF>
  </metadata>
  <g
     inkscape:label="Layer 1"
     inkscape:groupmode="layer"
     id="layer1"
     transform="translate(1532.1563,301.8125)">
    <path
       sodipodi:nodetypes="ccscscsc"
       inkscape:connector-curvature="0"
       id="path3044"
       d="m -1428.8931,-95.319861 291.9736,0 c 0,0 -37.9928,29.980115 -37.9928,133.505189 0,98.528472 37.9928,133.517392 37.9928,133.517392 0,0 -47.9957,-16.96549 -47.9957,-133.517392 0,-109.016118 42,-131.50499 42,-131.50499 0,0 -7.3586,6.000917 -139.9052,5.996707 -146.0727,-0.005 -146.0727,-7.996906 -146.0727,-7.996906 z"
       style="fill:#000000;stroke:#000000;stroke-width:0;stroke-linecap:butt;stroke-linejoin:miter;stroke-miterlimit:4;stroke-opacity:1;stroke-dasharray:none;display:inline" />
    <path
       transform="matrix(0.99951935,0,0,1.0004097,-1431.837,-100.36842)"
       d="m 155.00467,142.00241 a 6.0023398,5.9980502 0 1 1 -12.00468,0 6.0023398,5.9980502 0 1 1 12.00468,0 z"
       sodipodi:ry="5.9980502"
       sodipodi:rx="6.0023398"
       sodipodi:cy="142.00241"
       sodipodi:cx="149.00233"
       id="path3052"
       style="fill:#000000;fill-opacity:1;fill-rule:evenodd;stroke:none;display:inline"
       sodipodi:type="arc" />
    <path
       style="fill:#000000;stroke:#000000;stroke-width:0;stroke-linecap:butt;stroke-linejoin:miter;stroke-miterlimit:4;stroke-opacity:1;stroke-dasharray:none;display:inline"
       d="m -1136.9195,171.70272 -291.9736,0 c 0,0 37.9928,-29.98012 37.9928,-133.505191 0,-98.528472 -37.9928,-133.51739 -37.9928,-133.51739 0,0 47.9957,16.965494 47.9957,133.51739 0,109.016121 -42,131.504991 -42,131.504991 0,0 7.3586,-6.00092 139.9052,-5.99671 146.0727,0.005 146.0727,7.99691 146.0727,7.99691 z"
       id="path3006"
       inkscape:connector-curvature="0"
       sodipodi:nodetypes="ccscscsc" />
    <path
       sodipodi:type="arc"
       style="fill:#000000;fill-opacity:1;fill-rule:evenodd;stroke:none;display:inline"
       id="path3008"
       sodipodi:cx="149.00233"
       sodipodi:cy="142.00241"
       sodipodi:rx="6.0023398"
       sodipodi:ry="5.9980502"
       d="m 155.00467,142.00241 a 6.0023398,5.9980502 0 1 1 -12.00468,0 6.0023398,5.9980502 0 1 1 12.00468,0 z"
       transform="matrix(-0.99951935,0,0,-1.0004097,-1133.9756,176.75128)" />
    <path
       style="fill:#000000;stroke:#000000;stroke-width:0;stroke-linecap:butt;stroke-linejoin:miter;stroke-miterlimit:4;stroke-opacity:1;stroke-dasharray:none;display:inline"
       d="m -1428.8931,-95.319861 206.4565,-206.492639 c 0,0 -5.6694,48.06871 67.521,121.272 69.6579,69.67015 121.2593,67.54148 121.2593,67.54148 0,0 -45.9323,21.94757 -128.3324,-60.46707 -77.0726,-77.08603 -63.2733,-122.69181 -63.2733,-122.69181 0,0 -0.9609,9.44759 -94.6884,103.18561 -103.2925,103.303567 -108.9427,97.652429 -108.9427,97.652429 z"
       id="path3010"
       inkscape:connector-curvature="0"
       sodipodi:nodetypes="ccscscsc"
       inkscape:transform-center-x="-51.63164"
       inkscape:transform-center-y="-75.216452" />
    <path
       inkscape:transform-center-y="-75.216452"
       inkscape:transform-center-x="51.63164"
       sodipodi:nodetypes="ccscscsc"
       inkscape:connector-curvature="0"
       id="path3012"
       d="M -1136.9195,-95.319861 -1343.376,-301.8125 c 0,0 5.6694,48.06871 -67.521,121.272 -69.6579,69.67015 -121.2593,67.54148 -121.2593,67.54148 0,0 45.9323,21.94757 128.3325,-60.46707 77.0725,-77.08603 63.2732,-122.69181 63.2732,-122.69181 0,0 0.9609,9.44759 94.6884,103.18561 103.2925,103.303567 108.9427,97.652429 108.9427,97.652429 z"
       style="fill:#000000;stroke:#000000;stroke-width:0;stroke-linecap:butt;stroke-linejoin:miter;stroke-miterlimit:4;stroke-opacity:1;stroke-dasharray:none;display:inline" />
    <path
       inkscape:transform-center-y="236.7262"
       inkscape:transform-center-x="-51.63164"
       sodipodi:nodetypes="ccscscsc"
       inkscape:connector-curvature="0"
       id="path3014"
       d="m -1428.8931,171.69486 206.4565,206.49264 c 0,0 -5.6694,-48.06871 67.521,-121.272 69.6579,-69.67015 121.2593,-67.54148 121.2593,-67.54148 0,0 -45.9323,-21.94757 -128.3324,60.46707 -77.0726,77.08603 -63.2733,122.69181 -63.2733,122.69181 0,0 -0.9609,-9.44759 -94.6884,-103.18561 -103.2925,-103.30357 -108.9427,-97.65243 -108.9427,-97.65243 z"
       style="fill:#000000;stroke:#000000;stroke-width:0;stroke-linecap:butt;stroke-linejoin:miter;stroke-miterlimit:4;stroke-opacity:1;stroke-dasharray:none;display:inline" />
    <path
       style="fill:#000000;stroke:#000000;stroke-width:0;stroke-linecap:butt;stroke-linejoin:miter;stroke-miterlimit:4;stroke-opacity:1;stroke-dasharray:none;display:inline"
       d="M -1136.9195,171.69486 -1343.376,378.1875 c 0,0 5.6694,-48.06871 -67.521,-121.272 -69.6579,-69.67015 -121.2593,-67.54148 -121.2593,-67.54148 0,0 45.9323,-21.94757 128.3325,60.46707 77.0725,77.08603 63.2732,122.69181 63.2732,122.69181 0,0 0.9609,-9.44759 94.6884,-103.18561 103.2925,-103.30357 108.9427,-97.65243 108.9427,-97.65243 z"
       id="path3016"
       inkscape:connector-curvature="0"
       sodipodi:nodetypes="ccscscsc"
       inkscape:transform-center-x="51.63164"
       inkscape:transform-center-y="236.7262" />
    <path
       inkscape:transform-center-y="-96.76934"
       inkscape:transform-center-x="-51.63164"
       sodipodi:nodetypes="ccscscsc"
       inkscape:connector-curvature="0"
       id="path3837"
       d="m -1428.8931,-161.80068 206.4565,206.492638 c 0,0 -5.6694,-48.0687143 67.521,-121.272005 69.6579,-69.670143 121.2593,-67.541473 121.2593,-67.541473 0,0 -45.9323,-21.94757 -128.3324,60.467065 -77.0726,77.0860288 -63.2733,122.691815 -63.2733,122.691815 0,0 -0.9609,-9.447589 -94.6884,-103.185615 -103.2925,-103.303565 -108.9427,-97.652425 -108.9427,-97.652425 z"
       style="fill:#000000;stroke:#000000;stroke-width:0;stroke-linecap:butt;stroke-linejoin:miter;stroke-miterlimit:4;stroke-opacity:1;stroke-dasharray:none;display:inline" />
    <path
       style="fill:#000000;stroke:#000000;stroke-width:0;stroke-linecap:butt;stroke-linejoin:miter;stroke-miterlimit:4;stroke-opacity:1;stroke-dasharray:none;display:inline"
       d="M -1136.9195,-161.80068 -1343.376,44.691958 c 0,0 5.6694,-48.0687143 -67.521,-121.272005 -69.6579,-69.670143 -121.2593,-67.541473 -121.2593,-67.541473 0,0 45.9323,-21.94757 128.3325,60.467065 77.0725,77.0860288 63.2732,122.691815 63.2732,122.691815 0,0 0.9609,-9.447589 94.6884,-103.185615 103.2925,-103.303565 108.9427,-97.652425 108.9427,-97.652425 z"
       id="path3839"
       inkscape:connector-curvature="0"
       sodipodi:nodetypes="ccscscsc"
       inkscape:transform-center-x="51.63164"
       inkscape:transform-center-y="-96.76934" />
    <path
       style="fill:#000000;stroke:#000000;stroke-width:0;stroke-linecap:butt;stroke-linejoin:miter;stroke-miterlimit:4;stroke-opacity:1;stroke-dasharray:none;display:inline"
       d="m -1428.8931,238.17568 206.4565,-206.492642 c 0,0 -5.6694,48.068715 67.521,121.272002 69.6579,69.67015 121.2593,67.54148 121.2593,67.54148 0,0 -45.9323,21.94757 -128.3324,-60.46707 -77.0726,-77.086027 -63.2733,-122.691814 -63.2733,-122.691814 0,0 -0.9609,9.447589 -94.6884,103.185614 -103.2925,103.30357 -108.9427,97.65243 -108.9427,97.65243 z"
       id="path3841"
       inkscape:connector-curvature="0"
       sodipodi:nodetypes="ccscscsc"
       inkscape:transform-center-x="-51.63164"
       inkscape:transform-center-y="96.76934" />
    <path
       inkscape:transform-center-y="96.76934"
       inkscape:transform-center-x="51.63164"
       sodipodi:nodetypes="ccscscsc"
       inkscape:connector-curvature="0"
       id="path3843"
       d="M -1136.9195,238.17568 -1343.376,31.683038 c 0,0 5.6694,48.068715 -67.521,121.272002 -69.6579,69.67015 -121.2593,67.54148 -121.2593,67.54148 0,0 45.9323,21.94757 128.3325,-60.46707 77.0725,-77.086027 63.2732,-122.691814 63.2732,-122.691814 0,0 0.9609,9.447589 94.6884,103.185614 103.2925,103.30357 108.9427,97.65243 108.9427,97.65243 z"
       style="fill:#000000;stroke:#000000;stroke-width:0;stroke-linecap:butt;stroke-linejoin:miter;stroke-miterlimit:4;stroke-opacity:1;stroke-dasharray:none;display:inline" />
  </g>
</svg>
