<?xml version="1.0" encoding="UTF-8" standalone="no"?>
<!-- Created with Inkscape (http://www.inkscape.org/) -->

<svg
   xmlns:dc="http://purl.org/dc/elements/1.1/"
   xmlns:cc="http://creativecommons.org/ns#"
   xmlns:rdf="http://www.w3.org/1999/02/22-rdf-syntax-ns#"
   xmlns:svg="http://www.w3.org/2000/svg"
   xmlns="http://www.w3.org/2000/svg"
   xmlns:sodipodi="http://sodipodi.sourceforge.net/DTD/sodipodi-0.dtd"
   xmlns:inkscape="http://www.inkscape.org/namespaces/inkscape"
   width="287.94226mm"
   height="177.06514mm"
   viewBox="0 0 287.94227 177.06514"
   version="1.1"
   id="svg8"
   inkscape:version="0.92.4 (5da689c313, 2019-01-14)"
   sodipodi:docname="rasodonar.svg">
  <defs
     id="defs2" />
  <sodipodi:namedview
     id="base"
     pagecolor="#ffffff"
     bordercolor="#666666"
     borderopacity="1.0"
     inkscape:pageopacity="0.0"
     inkscape:pageshadow="2"
     inkscape:zoom="0.35"
     inkscape:cx="1275.9381"
     inkscape:cy="166.88909"
     inkscape:document-units="mm"
     inkscape:current-layer="layer1"
     showgrid="false"
     inkscape:window-width="1920"
     inkscape:window-height="1017"
     inkscape:window-x="-8"
     inkscape:window-y="-7"
     inkscape:window-maximized="1" />
  <metadata
     id="metadata5">
    <rdf:RDF>
      <cc:Work
         rdf:about="">
        <dc:format>image/svg+xml</dc:format>
        <dc:type
           rdf:resource="http://purl.org/dc/dcmitype/StillImage" />
        <dc:title></dc:title>
      </cc:Work>
    </rdf:RDF>
  </metadata>
  <g
     inkscape:label="Layer 1"
     inkscape:groupmode="layer"
     id="layer1"
     transform="translate(221.73946,-68.000917)">
    <path
       style="fill:#000000;stroke-width:1.65484059"
       d="m -95.192914,240.51527 c 0.756278,-2.50294 2.56599,-7.31948 4.021585,-10.70329 3.684454,-8.56544 3.314625,-13.72541 -1.49057,-20.79689 -2.275405,-3.34861 -4.137099,-7.60793 -4.137099,-9.46521 0,-3.85823 11.446639,-23.98713 13.64068,-23.98713 1.553259,0 0.797488,1.61854 -3.982976,8.52965 -4.139745,5.98489 -3.81513,11.2874 1.098762,17.94784 2.275405,3.0841 4.1371,7.30978 4.1371,9.39034 0,3.35142 -5.662589,19.60065 -10.423883,29.9121 -2.422587,5.24653 -4.516104,4.64166 -2.863599,-0.82741 z m 31.985569,0.82741 c -4.7613,-10.31145 -10.423882,-26.56068 -10.423882,-29.9121 0,-2.08056 1.861694,-6.30624 4.137099,-9.39034 4.913886,-6.66044 5.238508,-11.96295 1.098756,-17.94784 -4.780464,-6.91111 -5.536235,-8.52965 -3.982976,-8.52965 2.194047,0 13.64068,20.1289 13.64068,23.98713 0,1.85728 -1.861694,6.1166 -4.137099,9.46521 -4.805188,7.07148 -5.175024,12.23145 -1.490564,20.79689 3.881027,9.02232 5.571091,15.25407 4.136943,15.25407 -0.692831,0 -2.033362,-1.67552 -2.978957,-3.72337 z m -46.777745,-3.93447 c 0.0288,-0.79407 1.14596,-2.88927 2.48226,-4.65605 3.38155,-4.47079 3.03098,-11.29784 -0.83237,-16.20933 -3.20806,-4.07838 -3.20979,-4.19415 -0.10426,-7.00462 3.92767,-3.5545 5.91488,-2.40692 8.28895,4.78658 1.575598,4.77408 1.323441,6.74875 -1.67674,13.13142 -3.32951,7.08318 -8.2731,13.11403 -8.15783,9.952 z m 59.991092,-3.41703 c -6.385698,-9.26769 -7.557626,-14.38689 -4.802881,-20.9799 2.828486,-6.76951 3.667542,-7.12208 7.878814,-3.31095 2.86403,2.59193 2.853141,2.85506 -0.283392,6.8425 -3.949408,5.02088 -4.189275,11.56936 -0.610941,16.67817 1.458078,2.08169 2.283993,4.15194 1.835362,4.60057 -0.448636,0.44845 -2.25626,-1.27504 -4.016956,-3.83039 z m -77.993852,-42.08964 c -1.86947,-2.99347 -1.80433,-3.91289 0.43594,-6.15313 2.40848,-2.40849 2.93712,-2.33043 6.17987,0.91229 3.2275,3.22751 3.31187,3.78029 0.93905,6.15313 -3.46664,3.46662 -4.93054,3.28987 -7.55484,-0.91229 z m 92.620325,0.81772 c -1.960241,-2.2146 -1.787166,-3.06847 1.23456,-6.09021 3.213814,-3.21382 3.739756,-3.28913 6.148245,-0.88064 2.240243,2.24024 2.305377,3.15966 0.43594,6.15313 -2.584203,4.13793 -4.68532,4.35771 -7.818727,0.81772 z m -127.289035,-8.91137 c -3.00074,-1.82951 -9.27892,-6.34834 -13.95152,-10.04182 -17.12766,-13.53865 -28.28556,-16.2588 -39.33944,-9.59048 l -5.79194,3.49402 4.1371,-4.4721 c 5.17326,-5.59223 13.47342,-9.14767 21.35508,-9.14767 4.44431,0 8.90738,1.94703 16.76002,7.31153 28.79349,19.67014 30.37092,20.06523 40.22075,10.07408 7.33451,-7.43974 10.00449,-8.7926 11.75694,-5.95711 0.50969,0.82472 2.3128,1.13707 4.00687,0.69406 4.32137,-1.13006 5.98243,5.77273 2.35394,9.78219 -2.07871,2.29691 -3.01341,2.5075 -4.00549,0.90228 -1.0306,-1.66758 -1.71238,-1.67552 -3.34878,-0.0375 -2.76652,2.76656 -4.70246,2.5905 -4.70246,-0.42781 0,-3.74089 -1.44425,-3.09792 -9.2933,4.13705 -8.0778,7.44588 -12.22025,8.12005 -20.15777,3.28062 z m 149.618694,-3.28062 c -7.84906,-7.23498 -9.293303,-7.87794 -9.293303,-4.13705 0,3.01799 -1.935954,3.19405 -4.702464,0.42781 -1.636407,-1.63637 -2.318186,-1.62843 -3.348768,0.0375 -0.992091,1.60529 -1.926797,1.3947 -4.005511,-0.90227 -3.628482,-4.0094 -1.96742,-10.91219 2.353944,-9.78219 1.694079,0.44282 3.497162,0.13072 4.006868,-0.694 1.752459,-2.83549 4.422443,-1.48263 11.756944,5.95711 9.8498308,9.99115 11.4272572,9.59606 40.220753,-10.07408 7.852632,-5.3645 12.315723,-7.31153 16.760013,-7.31153 7.88166,0 16.181827,3.55544 21.355087,9.14766 l 4.1371,4.47211 -5.791938,-3.49402 C 49.356984,157.506 38.199072,160.22615 21.071405,173.7648 9.2209805,183.13207 2.2920965,187.13195 -2.0963407,187.13921 c -2.0932614,0.003 -6.9440637,-2.92843 -10.9415253,-6.61321 z M -96.226679,166.9145 c -5.781501,-6.41995 -5.716851,-8.84326 0.451451,-16.92172 6.847694,-8.9681 6.514916,-11.50781 -2.914066,-22.23968 -3.511156,-3.99632 -6.383926,-8.41833 -6.383926,-9.82666 0,-3.32152 6.750747,-13.20065 9.836262,-14.39451 1.768258,-0.68419 1.660705,-0.11947 -0.413736,2.17288 -4.159979,4.59675 -3.49568,7.43049 3.816174,16.27881 3.640647,4.40568 6.61936,9.59468 6.61936,11.53114 0,1.9364 -2.334179,7.89495 -5.187064,13.24112 -5.010511,9.38947 -5.094884,9.88095 -2.478627,14.43955 1.623154,2.82817 2.174402,5.67348 1.375694,7.10069 -1.091238,1.94991 -1.946843,1.69954 -4.721566,-1.38162 z m 31.970533,1.31739 c -0.537325,-1.40026 0.212341,-4.61808 1.665891,-7.15079 2.531652,-4.41112 2.424606,-5.01387 -2.544225,-14.32522 -2.852891,-5.34617 -5.18707,-11.30472 -5.18707,-13.24112 0,-1.93646 2.978713,-7.12546 6.61936,-11.53114 7.311848,-8.84832 7.976153,-11.68206 3.816175,-16.27881 -2.074411,-2.29216 -2.18197,-2.85707 -0.413674,-2.17288 3.085503,1.19386 9.836258,11.07299 9.836258,14.39451 0,1.40833 -2.872768,5.83034 -6.383928,9.82666 -9.41067,10.71105 -9.75615,13.2789 -2.980483,22.15275 6.289284,8.23682 6.352224,11.66198 0.318417,17.33045 -3.197333,3.00373 -3.918085,3.1549 -4.746696,0.99559 z m -55.322414,-8.93114 c -2.96041,-2.43294 -5.37658,-5.91283 -5.36927,-7.73314 0.0119,-2.88721 -1.11275,-3.32021 -8.80744,-3.39195 -4.8514,-0.0438 -12.14614,-1.35223 -16.21053,-2.90441 -7.78991,-2.97502 -23.96611,-17.69884 -19.44465,-17.69884 1.40002,0 6.30819,3.72337 10.90704,8.27416 8.83303,8.74075 9.56622,8.96722 27.00455,8.3404 8.59559,-0.30898 23.11598,3.70142 23.11598,6.38442 0,0.61982 -2.02741,1.09729 -4.50537,1.06145 -5.49748,-0.0794 -7.271,5.24773 -2.82846,8.4962 1.62531,1.18842 2.63238,2.48354 2.23792,2.87802 -0.39447,0.39466 -3.13936,-1.27336 -6.09977,-3.70631 z m 77.389303,3.28456 c 0,-0.85912 1.169244,-2.0107 2.598332,-2.55909 1.558526,-0.59794 2.386311,-2.49005 2.06855,-4.72786 -0.405918,-2.85843 -1.593894,-3.71555 -5.080593,-3.66552 -2.502945,0.0375 -4.550811,-0.44157 -4.550811,-1.06145 0,-2.683 14.520378,-6.6934 23.115984,-6.38442 17.4383342,0.62682 18.1715073,0.40029 27.0045349,-8.3404 4.5988704,-4.55079 9.5070271,-8.27416 10.9070371,-8.27416 4.521471,0 -11.654727,14.72382 -19.4446389,17.69884 -4.0643907,1.55218 -11.3591261,2.85919 -16.2105421,2.90441 -7.872402,0.0732 -8.820912,0.46158 -8.822351,3.60923 -9.57e-4,2.08488 -2.369761,5.33323 -5.793564,7.94467 -3.185569,2.42976 -5.791938,3.71487 -5.791938,2.85575 z m -39.166985,-16.11057 c -0.550961,-1.43585 0.09488,-3.70724 1.435224,-5.04758 2.146099,-2.14611 2.689041,-2.13329 4.548527,0.10695 1.161345,1.39933 1.679257,3.67072 1.150913,5.04759 -1.260335,3.28437 -5.8597,3.21525 -7.134664,-0.10696 z m -33.646008,-7.03827 c -5.00589,-2.48573 -10.80699,-5.61349 -12.89134,-6.95064 -5.55898,-3.5662 -14.73984,-17.86396 -16.96289,-26.41707 -2.23055,-8.581886 -7.27779,-19.008289 -11.28246,-23.306768 -3.4352,-3.687287 -19.75246,-11.407236 -24.22951,-11.463339 -1.82033,-0.02502 -4.42669,-0.763426 -5.79194,-1.645688 -7.13759,-4.612643 16.06539,1.321454 27.05568,6.919496 15.26794,7.776802 22.95476,18.779747 34.28266,49.072309 1.13514,3.03556 3.14688,6.6022 4.47053,7.92584 2.10561,2.10559 2.65052,2.07306 4.35654,-0.26018 1.39604,-1.90919 3.2391,-2.34307 6.48866,-1.52748 3.97789,0.99841 4.20703,1.38168 1.85424,3.10211 -2.33797,1.70955 -2.37313,2.22136 -0.27238,3.96487 1.91274,1.58739 2.83852,1.48813 4.47167,-0.47973 1.13274,-1.36486 1.62726,-3.6081 1.09892,-4.98491 -1.31823,-3.43529 1.15013,-3.14658 4.470964,0.52288 3.591506,3.96855 3.45926,6.40068 -0.462146,8.49939 -4.557948,2.43932 -6.435238,2.10445 -16.657198,-2.97127 z m 57.505716,2.89691 c -3.725527,-2.16988 -3.679238,-5.26499 0.130219,-8.71254 3.772342,-3.41397 5.439146,-3.50772 4.183433,-0.23517 -0.528319,1.3768 -0.03377,3.62005 1.098912,4.98491 1.633167,1.96786 2.558935,2.06712 4.471679,0.47972 2.100754,-1.74351 2.065591,-2.25531 -0.272384,-3.96486 -2.352787,-1.72043 -2.12364,-2.10371 1.854245,-3.10212 3.249565,-0.81559 5.092627,-0.38152 6.488666,1.52748 1.706025,2.33312 2.250931,2.36565 4.356533,0.26019 1.323655,-1.32364 3.335395,-4.89028 4.470534,-7.92585 C -19.3868,95.352583 -11.699981,84.349639 3.567974,76.572836 14.558315,70.974794 37.761299,65.040697 30.623709,69.65334 29.258467,70.535602 26.652091,71.276199 24.831764,71.299028 20.354725,71.355319 4.0374505,79.07508 0.60225145,82.762368 -3.4885959,87.15335 -8.6687423,97.946956 -10.858098,106.64167 c -2.226839,8.84364 -10.734125,21.55531 -17.531483,26.19585 -5.696638,3.88906 -21.766578,11.3031 -24.348361,11.2333 -1.024446,-0.025 -3.16583,-0.80933 -4.758611,-1.73707 z"
       id="path889"
       inkscape:connector-curvature="0" />
  </g>
</svg>
