<svg xmlns="http://www.w3.org/2000/svg" viewBox="0 0 495.85295 696.83336"><path d="M599.92647,734.71348c-6.17311-1.83822-85.63136-43.22644-160.88574-85.26443-16.99774-9.49516-39.35178-23.98228-64.221-41.06914,21.54679-28.82448,39.85974-45.21027,39.85974-45.21027L380.071,538.80839c-15.134,12.38958-27.7161,28.66162-38.1409,46.53421-32.83807-23.38367-67.68544-49.20063-99.15158-72.91378C302.59541,417.69837,364.342,330.69786,380.5834,308.0226c124.38216,119.67549,187.369,235.35352,187.369,235.35352,13.70321-274.57157-103.02786-491.7928-103.02786-491.7928l-14.2107,6.5979C528.87284,327.67756,527,434,527,434,391.49054,186.83479,165.99174,98.2758,165.99174,98.2758l-38.29688,30.959c83.88561,40.5892,155.93839,92.09944,216.02972,144.88748a1380.11356,1380.11356,0,0,0-137.0397,210.92043c-40.76949-31.13539-69.62213-53.82988-69.62213-53.82988l-7.61289,51.76765s-16.98626-7.97225,54.76,46.58036C124.11131,654.10707,104.07353,743.3414,104.07353,743.3414l15.73332,5.07528c12.76335-47.29955,52.3173-120.62994,97.09837-194.268q11.57832,8.62968,25.16706,18.664a876.96669,876.96669,0,0,0,80.71458,52.35842c-21.70316,54.61872-27.88352,109.03486-27.88352,109.03486l16.74836,11.16559c7.80967-39.97818,23.72784-75.11048,40.76275-103.59274,118.60544,64.39077,239.89922,106.6379,239.89922,106.6379Z" transform="translate(-104.07353 -51.58332)"/></svg>