<?xml version="1.0" encoding="UTF-8" standalone="no"?>
<!-- Created with Inkscape (http://www.inkscape.org/) -->

<svg
   xmlns:dc="http://purl.org/dc/elements/1.1/"
   xmlns:cc="http://creativecommons.org/ns#"
   xmlns:rdf="http://www.w3.org/1999/02/22-rdf-syntax-ns#"
   xmlns:svg="http://www.w3.org/2000/svg"
   xmlns="http://www.w3.org/2000/svg"
   xmlns:sodipodi="http://sodipodi.sourceforge.net/DTD/sodipodi-0.dtd"
   xmlns:inkscape="http://www.inkscape.org/namespaces/inkscape"
   width="624"
   height="414"
   id="svg3351"
   version="1.1"
   inkscape:version="0.48.4 r9939"
   sodipodi:docname="New document 5">
  <defs
     id="defs3353" />
  <sodipodi:namedview
     id="base"
     pagecolor="#ffffff"
     bordercolor="#666666"
     borderopacity="1.0"
     inkscape:pageopacity="0.0"
     inkscape:pageshadow="2"
     inkscape:zoom="0.49497475"
     inkscape:cx="722.55521"
     inkscape:cy="141.1064"
     inkscape:document-units="px"
     inkscape:current-layer="layer1"
     showgrid="false"
     inkscape:window-width="1366"
     inkscape:window-height="705"
     inkscape:window-x="-8"
     inkscape:window-y="-8"
     inkscape:window-maximized="1" />
  <metadata
     id="metadata3356">
    <rdf:RDF>
      <cc:Work
         rdf:about="">
        <dc:format>image/svg+xml</dc:format>
        <dc:type
           rdf:resource="http://purl.org/dc/dcmitype/StillImage" />
        <dc:title></dc:title>
      </cc:Work>
    </rdf:RDF>
  </metadata>
  <g
     inkscape:label="Layer 1"
     inkscape:groupmode="layer"
     id="layer1"
     transform="translate(0,-638.36218)">
    <path
       sodipodi:nodetypes="ccscscsc"
       inkscape:connector-curvature="0"
       id="path3044"
       d="m 138.9392,638.36217 291.8725,0 c 0,0 -37.9795,29.97758 -37.9795,133.49391 0,98.52014 37.9795,133.5061 37.9795,133.5061 0,0 -47.979,-16.96406 -47.979,-133.5061 0,-109.00691 41.9855,-131.49388 41.9855,-131.49388 0,0 -7.3561,6.00041 -139.8568,5.9962 -146.0222,-0.005 -146.0222,-7.99623 -146.0222,-7.99623 z"
       style="fill:#000000;stroke:#000000;stroke-width:0;stroke-linecap:butt;stroke-linejoin:miter;stroke-miterlimit:4;stroke-opacity:1;stroke-dasharray:none;display:inline" />
    <path
       transform="matrix(0.99917354,0,0,1.0003251,133.9971,633.31404)"
       d="m 155.00467,142.00241 a 6.0023398,5.9980502 0 1 1 -12.00468,0 6.0023398,5.9980502 0 1 1 12.00468,0 z"
       sodipodi:ry="5.9980502"
       sodipodi:rx="6.0023398"
       sodipodi:cy="142.00241"
       sodipodi:cx="149.00233"
       id="path3052"
       style="fill:#000000;fill-opacity:1;fill-rule:evenodd;stroke:none;display:inline"
       sodipodi:type="arc" />
    <path
       style="fill:#000000;stroke:#000000;stroke-width:0;stroke-linecap:butt;stroke-linejoin:miter;stroke-miterlimit:4;stroke-opacity:1;stroke-dasharray:none;display:inline"
       d="m 485.7877,638.36217 -291.8725,0 c 0,0 37.9795,29.97758 37.9795,133.49391 0,98.52014 -37.9795,133.5061 -37.9795,133.5061 0,0 47.979,-16.96406 47.979,-133.5061 0,-109.00691 -41.9855,-131.49388 -41.9855,-131.49388 0,0 7.3562,6.00041 139.8568,5.9962 146.0222,-0.005 146.0222,-7.99623 146.0222,-7.99623 z"
       id="path3279"
       inkscape:connector-curvature="0"
       sodipodi:nodetypes="ccscscsc" />
    <path
       sodipodi:type="arc"
       style="fill:#000000;fill-opacity:1;fill-rule:evenodd;stroke:none;display:inline"
       id="path3281"
       sodipodi:cx="149.00233"
       sodipodi:cy="142.00241"
       sodipodi:rx="6.0023398"
       sodipodi:ry="5.9980502"
       d="m 155.00467,142.00241 a 6.0023398,5.9980502 0 1 1 -12.00468,0 6.0023398,5.9980502 0 1 1 12.00468,0 z"
       transform="matrix(-0.99917354,0,0,1.0003251,490.7298,633.31404)" />
    <path
       sodipodi:nodetypes="ccscscsc"
       inkscape:connector-curvature="0"
       id="path3287"
       d="m 228.8,640.9126 206.385,206.44957 c 0,0 -5.6675,-48.05869 67.4976,-121.2467 C 572.3164,656.45985 623.9,658.58809 623.9,658.58809 c 0,0 -45.9165,-21.94301 -128.2881,60.45443 -77.0459,77.06997 -63.2514,122.66623 -63.2514,122.66623 0,0 -0.9605,-9.44562 -94.6556,-103.16409 C 234.4482,635.26265 228.8,640.9126 228.8,640.9126 z"
       style="fill:#000000;stroke:#000000;stroke-width:0;stroke-linecap:butt;stroke-linejoin:miter;stroke-miterlimit:4;stroke-opacity:1;stroke-dasharray:none;display:inline" />
    <path
       transform="matrix(0.70652239,0.70674343,0.70702769,-0.70724889,221.7374,640.98605)"
       d="m 155.00467,142.00241 a 6.0023398,5.9980502 0 1 1 -12.00468,0 6.0023398,5.9980502 0 1 1 12.00468,0 z"
       sodipodi:ry="5.9980502"
       sodipodi:rx="6.0023398"
       sodipodi:cy="142.00241"
       sodipodi:cx="149.00233"
       id="path3289"
       style="fill:#000000;fill-opacity:1;fill-rule:evenodd;stroke:none;display:inline"
       sodipodi:type="arc" />
    <path
       style="fill:#000000;stroke:#000000;stroke-width:0;stroke-linecap:butt;stroke-linejoin:miter;stroke-miterlimit:4;stroke-opacity:1;stroke-dasharray:none;display:inline"
       d="m 228.8999,640.9126 206.385,206.44957 c 0,0 -5.6675,-48.05869 67.4977,-121.2467 C 572.4164,656.45985 624,658.58809 624,658.58809 c 0,0 -45.9165,-21.94301 -128.2882,60.45443 -77.0458,77.06997 -63.2513,122.66623 -63.2513,122.66623 0,0 -0.9605,-9.44562 -94.6556,-103.16409 C 234.5481,635.26265 228.8999,640.9126 228.8999,640.9126 z"
       id="path3291"
       inkscape:connector-curvature="0"
       sodipodi:nodetypes="ccscscsc" />
    <path
       sodipodi:type="arc"
       style="fill:#000000;fill-opacity:1;fill-rule:evenodd;stroke:none;display:inline"
       id="path3293"
       sodipodi:cx="149.00233"
       sodipodi:cy="142.00241"
       sodipodi:rx="6.0023398"
       sodipodi:ry="5.9980502"
       d="m 155.00467,142.00241 a 6.0023398,5.9980502 0 1 1 -12.00468,0 6.0023398,5.9980502 0 1 1 12.00468,0 z"
       transform="matrix(0.70652239,0.70674343,0.70702769,-0.70724889,221.8373,640.98605)" />
    <path
       sodipodi:nodetypes="ccscscsc"
       inkscape:connector-curvature="0"
       id="path3295"
       d="M 395.1,640.9126 188.715,847.36217 c 0,0 5.6675,-48.05869 -67.4976,-121.2467 C 51.5835,656.45985 0,658.58809 0,658.58809 c 0,0 45.9164,-21.94301 128.2881,60.45443 77.0458,77.06997 63.2513,122.66623 63.2513,122.66623 0,0 0.9605,-9.44562 94.6556,-103.16409 C 389.4518,635.26265 395.1,640.9126 395.1,640.9126 z"
       style="fill:#000000;stroke:#000000;stroke-width:0;stroke-linecap:butt;stroke-linejoin:miter;stroke-miterlimit:4;stroke-opacity:1;stroke-dasharray:none;display:inline" />
    <path
       transform="matrix(-0.70652239,0.70674343,-0.70702769,-0.70724889,402.1626,640.98605)"
       d="m 155.00467,142.00241 a 6.0023398,5.9980502 0 1 1 -12.00468,0 6.0023398,5.9980502 0 1 1 12.00468,0 z"
       sodipodi:ry="5.9980502"
       sodipodi:rx="6.0023398"
       sodipodi:cy="142.00241"
       sodipodi:cx="149.00233"
       id="path3297"
       style="fill:#000000;fill-opacity:1;fill-rule:evenodd;stroke:none;display:inline"
       sodipodi:type="arc" />
    <path
       style="fill:#000000;stroke:#000000;stroke-width:0;stroke-linecap:butt;stroke-linejoin:miter;stroke-miterlimit:4;stroke-opacity:1;stroke-dasharray:none;display:inline"
       d="m 138.9392,1052.3622 291.8725,0 c 0,0 -37.9795,-29.9776 -37.9795,-133.49391 0,-98.52014 37.9795,-133.5061 37.9795,-133.5061 0,0 -47.979,16.96406 -47.979,133.5061 0,109.00691 41.9855,131.49391 41.9855,131.49391 0,0 -7.3561,-6.0005 -139.8568,-5.9962 -146.0222,0.01 -146.0222,7.9962 -146.0222,7.9962 z"
       id="path3301"
       inkscape:connector-curvature="0"
       sodipodi:nodetypes="ccscscsc"
       inkscape:transform-center-x="42.674044"
       inkscape:transform-center-y="73.500003" />
    <path
       sodipodi:type="arc"
       style="fill:#000000;fill-opacity:1;fill-rule:evenodd;stroke:none;display:inline"
       id="path3303"
       sodipodi:cx="149.00233"
       sodipodi:cy="142.00241"
       sodipodi:rx="6.0023398"
       sodipodi:ry="5.9980502"
       d="m 155.00467,142.00241 a 6.0023398,5.9980502 0 1 1 -12.00468,0 6.0023398,5.9980502 0 1 1 12.00468,0 z"
       transform="matrix(0.99917354,0,0,-1.0003251,133.9971,1057.4103)"
       inkscape:transform-center-x="44.673174"
       inkscape:transform-center-y="69.999557" />
    <path
       sodipodi:nodetypes="ccscscsc"
       inkscape:connector-curvature="0"
       id="path3305"
       d="m 485.7877,1052.3622 -291.8725,0 c 0,0 37.9795,-29.9776 37.9795,-133.49391 0,-98.52014 -37.9795,-133.5061 -37.9795,-133.5061 0,0 47.979,16.96406 47.979,133.5061 0,109.00691 -41.9855,131.49391 -41.9855,131.49391 0,0 7.3562,-6.0005 139.8568,-5.9962 146.0222,0.01 146.0222,7.9962 146.0222,7.9962 z"
       style="fill:#000000;stroke:#000000;stroke-width:0;stroke-linecap:butt;stroke-linejoin:miter;stroke-miterlimit:4;stroke-opacity:1;stroke-dasharray:none;display:inline"
       inkscape:transform-center-x="-12.301936"
       inkscape:transform-center-y="73.500003" />
    <path
       transform="matrix(-0.99917354,0,0,-1.0003251,490.7298,1057.4103)"
       d="m 155.00467,142.00241 a 6.0023398,5.9980502 0 1 1 -12.00468,0 6.0023398,5.9980502 0 1 1 12.00468,0 z"
       sodipodi:ry="5.9980502"
       sodipodi:rx="6.0023398"
       sodipodi:cy="142.00241"
       sodipodi:cx="149.00233"
       id="path3307"
       style="fill:#000000;fill-opacity:1;fill-rule:evenodd;stroke:none;display:inline"
       sodipodi:type="arc"
       inkscape:transform-center-x="-14.301066"
       inkscape:transform-center-y="69.999557" />
    <path
       style="fill:#000000;stroke:#000000;stroke-width:0;stroke-linecap:butt;stroke-linejoin:miter;stroke-miterlimit:4;stroke-opacity:1;stroke-dasharray:none;display:inline"
       d="M 228.8,1049.8118 435.185,843.36219 c 0,0 -5.6675,48.0587 67.4976,121.24669 69.6338,69.65562 121.2174,67.52742 121.2174,67.52742 0,0 -45.9165,21.943 -128.2881,-60.45447 -77.0459,-77.06995 -63.2514,-122.66622 -63.2514,-122.66622 0,0 -0.9605,9.44562 -94.6556,103.16409 C 234.4482,1055.4617 228.8,1049.8118 228.8,1049.8118 z"
       id="path3309"
       inkscape:connector-curvature="0"
       sodipodi:nodetypes="ccscscsc"
       inkscape:transform-center-x="-98.800471"
       inkscape:transform-center-y="101.25226" />
    <path
       sodipodi:type="arc"
       style="fill:#000000;fill-opacity:1;fill-rule:evenodd;stroke:none;display:inline"
       id="path3311"
       sodipodi:cx="149.00233"
       sodipodi:cy="142.00241"
       sodipodi:rx="6.0023398"
       sodipodi:ry="5.9980502"
       d="m 155.00467,142.00241 a 6.0023398,5.9980502 0 1 1 -12.00468,0 6.0023398,5.9980502 0 1 1 12.00468,0 z"
       transform="matrix(0.70652239,-0.70674343,0.70702769,0.70724889,221.7374,1049.7383)"
       inkscape:transform-center-x="-99.860988"
       inkscape:transform-center-y="199.50075" />
    <path
       sodipodi:nodetypes="ccscscsc"
       inkscape:connector-curvature="0"
       id="path3313"
       d="m 228.8999,1049.8118 206.385,-206.44961 c 0,0 -5.6675,48.0587 67.4977,121.24669 C 572.4164,1034.2645 624,1032.1363 624,1032.1363 c 0,0 -45.9165,21.943 -128.2882,-60.45447 -77.0458,-77.06995 -63.2513,-122.66622 -63.2513,-122.66622 0,0 -0.9605,9.44562 -94.6556,103.16409 -103.2568,103.282 -108.905,97.6321 -108.905,97.6321 z"
       style="fill:#000000;stroke:#000000;stroke-width:0;stroke-linecap:butt;stroke-linejoin:miter;stroke-miterlimit:4;stroke-opacity:1;stroke-dasharray:none;display:inline"
       inkscape:transform-center-x="-98.900431"
       inkscape:transform-center-y="101.25226" />
    <path
       transform="matrix(0.70652239,-0.70674343,0.70702769,0.70724889,221.8373,1049.7383)"
       d="m 155.00467,142.00241 a 6.0023398,5.9980502 0 1 1 -12.00468,0 6.0023398,5.9980502 0 1 1 12.00468,0 z"
       sodipodi:ry="5.9980502"
       sodipodi:rx="6.0023398"
       sodipodi:cy="142.00241"
       sodipodi:cx="149.00233"
       id="path3315"
       style="fill:#000000;fill-opacity:1;fill-rule:evenodd;stroke:none;display:inline"
       sodipodi:type="arc"
       inkscape:transform-center-x="-99.960951"
       inkscape:transform-center-y="199.50075" />
    <path
       style="fill:#000000;stroke:#000000;stroke-width:0;stroke-linecap:butt;stroke-linejoin:miter;stroke-miterlimit:4;stroke-opacity:1;stroke-dasharray:none;display:inline"
       d="M 395.1,1049.8118 188.715,843.36219 c 0,0 5.6675,48.0587 -67.4976,121.24669 C 51.5835,1034.2645 0,1032.1363 0,1032.1363 c 0,0 45.9164,21.943 128.2881,-60.45447 77.0458,-77.06995 63.2513,-122.66622 63.2513,-122.66622 0,0 0.9605,9.44562 94.6556,103.16409 103.2568,103.282 108.905,97.6321 108.905,97.6321 z"
       id="path3317"
       inkscape:connector-curvature="0"
       sodipodi:nodetypes="ccscscsc"
       inkscape:transform-center-x="129.99954"
       inkscape:transform-center-y="101.25226" />
    <path
       sodipodi:type="arc"
       style="fill:#000000;fill-opacity:1;fill-rule:evenodd;stroke:none;display:inline"
       id="path3319"
       sodipodi:cx="149.00233"
       sodipodi:cy="142.00241"
       sodipodi:rx="6.0023398"
       sodipodi:ry="5.9980502"
       d="m 155.00467,142.00241 a 6.0023398,5.9980502 0 1 1 -12.00468,0 6.0023398,5.9980502 0 1 1 12.00468,0 z"
       transform="matrix(-0.70652239,-0.70674343,-0.70702769,0.70724889,402.1626,1049.7383)"
       inkscape:transform-center-x="131.06006"
       inkscape:transform-center-y="199.50075" />
  </g>
</svg>
