<?xml version="1.0" encoding="UTF-8" standalone="no"?>
<svg
   xmlns:dc="http://purl.org/dc/elements/1.1/"
   xmlns:cc="http://creativecommons.org/ns#"
   xmlns:rdf="http://www.w3.org/1999/02/22-rdf-syntax-ns#"
   xmlns:svg="http://www.w3.org/2000/svg"
   xmlns="http://www.w3.org/2000/svg"
   xmlns:sodipodi="http://sodipodi.sourceforge.net/DTD/sodipodi-0.dtd"
   xmlns:inkscape="http://www.inkscape.org/namespaces/inkscape"
   version="1.0"
   width="2000.000000pt"
   height="2000.000000pt"
   viewBox="0 0 2000.000000 2000.000000"
   preserveAspectRatio="xMidYMid meet"
   id="svg3054"
   inkscape:version="0.48.4 r"
   sodipodi:docname="Easton_Defense.svg">
  <defs
     id="defs3064" />
  <sodipodi:namedview
     pagecolor="#ffffff"
     bordercolor="#666666"
     borderopacity="1"
     objecttolerance="10"
     gridtolerance="10"
     guidetolerance="10"
     inkscape:pageopacity="0"
     inkscape:pageshadow="2"
     inkscape:window-width="1680"
     inkscape:window-height="988"
     id="namedview3062"
     showgrid="false"
     inkscape:zoom="0.6196"
     inkscape:cx="1250"
     inkscape:cy="1217.1541"
     inkscape:window-x="-8"
     inkscape:window-y="-8"
     inkscape:window-maximized="1"
     inkscape:current-layer="svg3054" />
  <metadata
     id="metadata3056">
Created by potrace 1.11, written by Peter Selinger 2001-2013
<rdf:RDF>
  <cc:Work
     rdf:about="">
    <dc:format>image/svg+xml</dc:format>
    <dc:type
       rdf:resource="http://purl.org/dc/dcmitype/StillImage" />
  </cc:Work>
</rdf:RDF>
</metadata>
  <g
     transform="translate(0.000000,2000.000000) scale(0.100000,-0.100000)"
     fill="#000000"
     stroke="none"
     id="g3058">
    <path
       d="M9095 19859 c-100 -14 -253 -57 -352 -99 -441 -184 -761 -574 -865 -1053 -29 -137 -32 -426 -5 -560 108 -532 480 -950 996 -1118 64 -21 111 -38 104 -38 -6 -1 -76 -12 -155 -26 -1080 -187 -2132 -640 -3003 -1293 -160 -120 -275 -212 -322 -256 -41 -37 -41 -31 -2 45 36 73 92 236 114 339 22 101 31 361 16 473 -49 365 -245 718 -524 942 -270 217 -576 325 -924 325 -226 0 -439 -48 -633 -144 -835 -412 -1080 -1473 -509 -2205 218 -279 524 -466 884 -537 124 -25 395 -25 520 -1 118 24 208 51 306 92 l79 33 -33 -37 c-366 -422 -582 -713 -816 -1101 -68 -112 -81 -128 -74 -95 14 73 7 334 -11 434 -119 655 -664 1152 -1317 1200 -285 21 -539 -31 -789 -160 -148 -76 -261 -161 -380 -286 -262 -273 -401 -619 -402 -999 0 -201 30 -364 99 -539 184 -467 605 -810 1104 -901 128 -23 372 -24 498 0 271 50 539 180 726 353 77 71 77 73 19 -74 -200 -503 -350 -1086 -428 -1658 -44 -324 -51 -449 -51 -930 0 -492 7 -615 55 -959 11 -77 18 -141 16 -144 -3 -2 -11 9 -20 25 -31 60 -157 212 -242 292 -262 245 -575 375 -934 388 -174 6 -279 -4 -428 -43 -549 -143 -974 -607 -1067 -1168 -21 -127 -21 -360 0 -481 103 -595 552 -1060 1143 -1185 124 -26 338 -36 462 -21 643 79 1159 568 1266 1203 l18 106 77 -231 c364 -1101 970 -2067 1804 -2874 l177 -173 -58 21 c-357 123 -756 96 -1109 -77 -412 -202 -712 -604 -791 -1059 -23 -134 -23 -357 1 -490 85 -489 418 -907 873 -1097 476 -199 1027 -130 1439 181 172 130 343 338 434 528 160 335 188 725 77 1073 -36 113 -91 234 -142 314 -20 32 -33 56 -29 55 4 -2 55 -36 113 -75 818 -552 1778 -934 2755 -1098 374 -63 639 -86 1037 -93 l326 -6 -95 -49 c-251 -128 -465 -332 -603 -572 -131 -229 -191 -457 -191 -726 0 -244 42 -427 151 -645 83 -166 164 -277 291 -400 247 -238 538 -371 889 -406 310 -30 648 56 918 234 172 114 302 243 414 412 81 122 122 206 168 344 56 167 74 277 74 461 0 185 -18 294 -75 465 -148 444 -497 784 -950 926 -57 18 -97 34 -89 36 633 109 1048 223 1555 425 668 267 1338 663 1871 1109 l81 67 -49 -113 c-211 -489 -146 -1042 171 -1462 74 -98 223 -243 321 -312 381 -267 863 -338 1304 -190 218 72 411 195 578 367 274 282 412 622 412 1017 -1 490 -241 937 -649 1207 -244 162 -509 241 -805 242 -207 0 -376 -34 -570 -114 -70 -29 -73 -29 -54 -8 130 148 173 199 250 293 873 1066 1419 2384 1559 3755 53 527 44 1136 -25 1659 -11 84 -19 155 -17 157 2 3 21 -22 42 -53 197 -299 499 -511 864 -605 102 -26 138 -31 297 -35 216 -7 325 8 504 67 498 163 856 563 973 1088 31 143 31 442 -2 592 -119 550 -531 976 -1080 1115 -214 55 -478 55 -693 0 -578 -147 -1004 -614 -1093 -1200 -7 -44 -15 -73 -18 -65 -3 8 -24 76 -47 150 -157 508 -445 1134 -731 1588 -33 51 -53 90 -47 86 7 -4 31 -20 54 -35 22 -15 85 -50 140 -78 474 -239 1040 -200 1484 102 109 74 303 273 378 385 113 170 193 369 227 567 24 134 24 357 1 490 -108 609 -579 1082 -1189 1192 -124 22 -370 22 -494 0 -538 -97 -976 -480 -1141 -997 -83 -262 -88 -589 -12 -839 10 -33 17 -61 15 -61 -1 0 -58 64 -127 143 -229 260 -552 572 -828 798 -1256 1029 -2847 1599 -4464 1599 l-199 0 95 49 c146 74 242 144 369 271 211 210 335 436 401 731 31 138 33 435 5 569 -129 614 -589 1060 -1201 1165 -96 16 -339 19 -441 4z m446 -85 c276 -47 538 -184 738 -385 191 -192 314 -419 378 -699 25 -110 25 -433 -1 -550 -38 -175 -120 -365 -220 -509 -70 -103 -202 -239 -305 -316 -114 -86 -310 -184 -436 -219 l-100 -28 4 -50 c2 -33 -3 -63 -15 -89 -9 -22 -15 -41 -13 -43 8 -8 5971 -2707 5973 -2704 1 2 11 25 24 51 14 31 35 55 57 68 19 12 35 23 35 25 0 3 -13 30 -29 62 -42 84 -88 220 -113 335 -17 81 -21 136 -21 267 0 131 4 186 21 267 59 273 173 491 363 687 266 277 605 421 989 421 298 0 570 -88 812 -262 103 -75 260 -237 330 -344 379 -573 293 -1309 -207 -1776 -192 -181 -434 -302 -695 -349 -127 -23 -353 -23 -480 0 -254 46 -498 166 -683 337 l-76 70 -33 -23 c-18 -13 -35 -24 -37 -25 -2 -1 46 -78 106 -170 355 -543 628 -1115 817 -1713 50 -160 116 -396 116 -417 0 -10 5 -11 19 -3 11 5 31 10 45 10 l26 0 0 128 c0 376 138 710 405 977 198 199 436 325 721 382 133 26 386 24 521 -5 339 -73 624 -252 826 -521 118 -156 194 -319 245 -521 24 -95 26 -123 27 -300 0 -151 -4 -214 -18 -280 -120 -564 -554 -984 -1120 -1087 -122 -22 -341 -22 -467 1 -236 42 -464 149 -655 307 -160 132 -321 355 -390 541 -15 41 -20 46 -36 38 -26 -15 -106 -12 -137 4 l-28 14 -943 -3131 c-519 -1723 -946 -3140 -949 -3149 -3 -13 2 -18 17 -18 35 0 101 -39 119 -69 l16 -28 65 44 c135 93 310 165 494 205 145 30 389 30 534 0 289 -62 523 -191 722 -398 190 -196 304 -414 363 -687 30 -145 30 -389 0 -534 -62 -288 -192 -525 -398 -723 -154 -148 -323 -251 -516 -314 -166 -55 -261 -70 -438 -70 -177 0 -272 15 -438 70 -470 154 -828 569 -919 1064 -25 139 -22 373 6 507 41 194 120 379 226 527 l54 75 -25 16 c-14 9 -36 38 -48 64 l-22 48 -1971 -896 -1971 -895 19 -38 c10 -20 19 -55 19 -77 0 -38 2 -40 33 -45 394 -53 625 -157 864 -389 206 -200 332 -428 395 -715 31 -139 31 -405 0 -544 -63 -287 -189 -515 -395 -715 -196 -190 -416 -306 -690 -365 -134 -28 -379 -30 -510 -4 -288 56 -518 178 -723 381 -271 269 -407 595 -407 975 -1 637 423 1179 1048 1339 l40 10 -3 47 -4 46 -65 -7 c-102 -11 -670 -8 -843 5 -863 61 -1645 257 -2440 612 -198 88 -618 315 -810 436 -121 77 -330 219 -420 285 -57 42 -96 65 -98 58 -2 -7 -14 -24 -27 -39 l-23 -26 50 -56 c146 -163 258 -391 310 -633 30 -145 30 -389 0 -534 -121 -565 -553 -988 -1116 -1090 -121 -22 -351 -22 -472 0 -125 23 -291 79 -391 132 -143 76 -224 136 -343 255 -205 204 -321 419 -381 703 -31 146 -31 390 -1 534 58 269 172 488 355 680 205 214 460 353 747 408 130 25 370 25 500 0 122 -23 271 -75 383 -132 48 -25 89 -44 90 -42 2 2 11 16 20 31 10 15 35 37 56 48 l39 20 -1150 1837 c-632 1011 -1151 1839 -1152 1841 -2 1 -23 -9 -47 -23 -24 -13 -58 -25 -75 -25 l-30 0 4 -89 c2 -49 -1 -135 -8 -192 -70 -604 -503 -1079 -1100 -1206 -121 -26 -420 -25 -540 1 -495 107 -877 447 -1035 919 -49 147 -68 268 -68 432 0 471 224 887 622 1155 146 98 346 174 541 206 116 19 388 13 494 -11 356 -80 665 -290 862 -586 54 -81 124 -216 147 -282 6 -15 10 -16 28 -6 13 6 47 9 80 7 38 -3 59 0 59 6 0 6 115 970 255 2141 140 1172 255 2136 255 2143 0 6 -11 12 -24 12 -30 0 -87 19 -107 37 -15 12 -22 6 -67 -54 -47 -64 -180 -202 -247 -256 -95 -77 -285 -180 -410 -222 -154 -52 -257 -68 -440 -68 -138 -1 -189 3 -272 21 -289 62 -526 193 -723 398 -102 106 -161 187 -229 314 -169 318 -203 715 -90 1063 152 469 544 821 1029 924 147 32 375 35 520 9 270 -49 509 -171 708 -360 210 -201 341 -438 404 -729 40 -188 28 -460 -28 -651 -17 -60 -17 -66 -1 -66 6 0 24 -6 39 -14 l27 -14 62 111 c298 534 618 972 1063 1452 l89 96 -30 31 -31 31 -64 -40 c-148 -94 -297 -156 -467 -194 -112 -25 -329 -35 -448 -20 -527 65 -974 428 -1141 926 -55 165 -67 243 -67 440 0 136 4 201 18 265 62 289 194 528 401 728 208 200 444 318 731 368 68 12 133 15 265 11 153 -4 190 -8 293 -35 499 -130 869 -501 999 -999 39 -153 50 -389 24 -550 -31 -198 -107 -390 -218 -555 l-66 -96 33 -32 c18 -17 37 -46 42 -63 6 -20 15 -31 24 -29 8 2 897 404 1976 895 l1961 891 -19 38 c-10 20 -19 55 -19 76 l0 40 -67 7 c-641 67 -1135 531 -1239 1165 -19 115 -13 377 11 485 125 560 557 980 1110 1079 112 20 359 20 476 0z m1124 -2808 c1104 -109 2063 -420 2978 -968 687 -411 1318 -957 1830 -1583 58 -71 105 -131 103 -132 -1 -1 -1343 605 -2981 1347 l-2978 1349 54 4 c127 10 839 -2 994 -17z m-1546 -41 c-8 -8 -3703 -1684 -3706 -1681 -6 5 276 234 437 355 884 663 1954 1121 3020 1295 85 14 166 27 180 29 38 6 74 8 69 2z m-5729 -6151 c-132 -1105 -240 -2016 -241 -2024 -4 -57 -60 323 -83 565 -39 393 -39 926 -1 1326 68 713 240 1403 513 2053 25 61 47 105 49 99 2 -6 -104 -914 -237 -2019z m13540 537 c0 -5 11 -76 25 -157 72 -432 90 -676 90 -1184 -1 -464 -10 -606 -65 -990 -159 -1107 -578 -2152 -1228 -3063 -137 -191 -291 -385 -446 -561 -137 -155 -280 -307 -273 -291 2 6 426 1415 943 3132 516 1718 942 3123 947 3123 4 0 7 -4 7 -9z m-12575 -4866 c582 -929 1067 -1706 1079 -1725 17 -29 7 -23 -64 40 -609 544 -1124 1202 -1520 1939 -211 394 -390 830 -526 1284 -45 153 -51 178 -35 162 5 -6 485 -770 1066 -1700z m10320 -1723 c-6 -4 -41 -35 -80 -68 -901 -775 -2023 -1317 -3200 -1548 -140 -28 -438 -76 -443 -72 -2 3 3718 1695 3728 1696 2 0 0 -4 -5 -8z"
       id="path3060" />
  </g>
  <path
     sodipodi:type="arc"
     style="fill:#666666;stroke:none"
     id="path3090"
     sodipodi:cx="646.04681"
     sodipodi:cy="621.31885"
     sodipodi:rx="26.29925"
     sodipodi:ry="26.29925"
     d="m 672.34606,621.31885 a 26.29925,26.29925 0 1 1 -52.5985,0 26.29925,26.29925 0 1 1 52.5985,0 z"
     transform="scale(0.8,0.8)" />
  <path
     transform="matrix(0.8,0,0,0.8,-144.53155,193.92836)"
     sodipodi:type="arc"
     style="fill:#666666;stroke:none"
     id="path3090-0"
     sodipodi:cx="646.04681"
     sodipodi:cy="621.31885"
     sodipodi:rx="26.29925"
     sodipodi:ry="26.29925"
     d="m 672.34606,621.31885 a 26.29925,26.29925 0 1 1 -52.5985,0 26.29925,26.29925 0 1 1 52.5985,0 z" />
  <path
     transform="matrix(0.8,0,0,0.8,-198.04481,657.25252)"
     sodipodi:type="arc"
     style="fill:#666666;stroke:none"
     id="path3090-5"
     sodipodi:cx="646.04681"
     sodipodi:cy="621.31885"
     sodipodi:rx="26.29925"
     sodipodi:ry="26.29925"
     d="m 672.34606,621.31885 a 26.29925,26.29925 0 1 1 -52.5985,0 26.29925,26.29925 0 1 1 52.5985,0 z" />
  <path
     transform="matrix(0.8,0,0,0.8,48.93945,1057.0011)"
     sodipodi:type="arc"
     style="fill:#666666;stroke:none"
     id="path3090-6"
     sodipodi:cx="646.04681"
     sodipodi:cy="621.31885"
     sodipodi:rx="26.29925"
     sodipodi:ry="26.29925"
     d="m 672.34606,621.31885 a 26.29925,26.29925 0 1 1 -52.5985,0 26.29925,26.29925 0 1 1 52.5985,0 z" />
  <path
     transform="matrix(0.8,0,0,0.8,548.39651,1204.2769)"
     sodipodi:type="arc"
     style="fill:#666666;stroke:none"
     id="path3090-1"
     sodipodi:cx="646.04681"
     sodipodi:cy="621.31885"
     sodipodi:rx="26.29925"
     sodipodi:ry="26.29925"
     d="m 672.34606,621.31885 a 26.29925,26.29925 0 1 1 -52.5985,0 26.29925,26.29925 0 1 1 52.5985,0 z" />
  <path
     transform="matrix(0.8,0,0,0.8,972.38615,1011.2633)"
     sodipodi:type="arc"
     style="fill:#666666;stroke:none"
     id="path3090-7"
     sodipodi:cx="646.04681"
     sodipodi:cy="621.31885"
     sodipodi:rx="26.29925"
     sodipodi:ry="26.29925"
     d="m 672.34606,621.31885 a 26.29925,26.29925 0 1 1 -52.5985,0 26.29925,26.29925 0 1 1 52.5985,0 z" />
  <path
     transform="matrix(0.8,0,0,0.8,1174.09,351.26648)"
     sodipodi:type="arc"
     style="fill:#666666;stroke:none"
     id="path3090-4"
     sodipodi:cx="646.04681"
     sodipodi:cy="621.31885"
     sodipodi:rx="26.29925"
     sodipodi:ry="26.29925"
     d="m 672.34606,621.31885 a 26.29925,26.29925 0 1 1 -52.5985,0 26.29925,26.29925 0 1 1 52.5985,0 z" />
  <path
     transform="matrix(0.8,0,0,0.8,1052.8847,90.103492)"
     sodipodi:type="arc"
     style="fill:#666666;stroke:none"
     id="path3090-40"
     sodipodi:cx="646.04681"
     sodipodi:cy="621.31885"
     sodipodi:rx="26.29925"
     sodipodi:ry="26.29925"
     d="m 672.34606,621.31885 a 26.29925,26.29925 0 1 1 -52.5985,0 26.29925,26.29925 0 1 1 52.5985,0 z" />
  <path
     transform="matrix(0.8,0,0,0.8,424.90438,-194.84316)"
     sodipodi:type="arc"
     style="fill:#666666;stroke:none"
     id="path3090-3"
     sodipodi:cx="646.04681"
     sodipodi:cy="621.31885"
     sodipodi:rx="26.29925"
     sodipodi:ry="26.29925"
     d="m 672.34606,621.31885 a 26.29925,26.29925 0 1 1 -52.5985,0 26.29925,26.29925 0 1 1 52.5985,0 z" />
  <path
     style="fill:#808080;stroke:none"
     d="m 447.22306,878.46404 c -7.66677,-9.74673 -8.16465,-13.83943 -3.04935,-25.0663 10.66208,-23.40072 44.8586,-14.44852 44.8586,11.74339 0,20.52669 -28.899,29.73562 -41.80925,13.32291 z"
     id="path3159"
     inkscape:connector-curvature="0"
     transform="scale(0.8,0.8)" />
  <path
     style="fill:#808080;stroke:none"
     d="m 628.66464,636.93884 c -11.81963,-12.58142 -8.13826,-28.6051 8.62358,-37.5354 9.05912,-4.82648 24.70908,0.26422 29.74609,9.67595 12.9735,24.24121 -19.57022,47.87054 -38.36967,27.85945 z"
     id="path3161"
     inkscape:connector-curvature="0"
     transform="scale(0.8,0.8)" />
  <path
     style="fill:#808080;stroke:none"
     d="m 1162.8252,397.0869 c -18.2886,-12.80984 -7.5609,-43.35105 15.3264,-43.63366 4.6305,-0.0572 11.4533,3.22156 15.3622,7.38243 19.8558,21.13555 -6.9915,52.84928 -30.6886,36.25123 l 0,0 z"
     id="path3163"
     inkscape:connector-curvature="0"
     transform="scale(0.8,0.8)" />
  <path
     style="fill:#808080;stroke:none"
     d="m 1944.9648,750.13418 c -3.8677,-4.11691 -7.0321,-11.45991 -7.0321,-16.31777 0,-11.23493 13.2272,-24.70923 24.2561,-24.70923 11.2737,0 24.2562,13.46757 24.2562,25.16245 0,20.49197 -27.3177,30.9399 -41.4802,15.86455 z"
     id="path3165"
     inkscape:connector-curvature="0"
     transform="scale(0.8,0.8)" />
  <path
     style="fill:#808080;stroke:none"
     d="m 2096.9699,1076.7836 c -9.3281,-9.9294 -8.9642,-23.2181 0.9064,-33.0886 10.3982,-10.3983 22.6476,-10.1659 32.6429,0.6192 10.087,10.8841 10.0844,21.9245 -0.01,32.0163 -10.1864,10.1864 -24.2199,10.3759 -33.5419,0.4531 l 0,0 z"
     id="path3167"
     inkscape:connector-curvature="0"
     transform="scale(0.8,0.8)" />
  <path
     style="fill:#808080;stroke:none"
     d="m 1844.706,1901.4925 c -9.3281,-9.9294 -8.9642,-23.2181 0.9063,-33.0886 9.6046,-9.6045 16.235,-9.9366 30.063,-1.5055 7.9417,4.8422 10.511,8.6853 10.511,15.7225 0,23.034 -26.3204,35.0086 -41.4803,18.8716 z"
     id="path3169"
     inkscape:connector-curvature="0"
     transform="scale(0.8,0.8)" />
  <path
     style="fill:#808080;stroke:none"
     d="m 1315.2113,2143.6009 c -10.1863,-10.1864 -10.3759,-24.2199 -0.4531,-33.5419 23.0994,-21.7007 55.4934,11.1371 33.0887,33.5419 -10.1174,10.1173 -22.5183,10.1173 -32.6356,0 z"
     id="path3171"
     inkscape:connector-curvature="0"
     transform="scale(0.8,0.8)" />
  <path
     style="fill:#808080;stroke:none"
     d="m 691.01985,1959.2542 c -15.17272,-15.1727 -5.24068,-40.5739 15.86468,-40.5739 11.23493,0 24.70923,13.2272 24.70923,24.2561 0,10.783 -13.47312,24.2562 -24.25614,24.2562 -4.60867,0 -11.95167,-3.5723 -16.31777,-7.9384 z"
     id="path3173"
     inkscape:connector-curvature="0"
     transform="scale(0.8,0.8)" />
  <path
     style="fill:#808080;stroke:none"
     d="m 382.46953,1460.2139 c -9.44127,-7.645 -9.86917,-24.8573 -0.84236,-33.8841 15.06073,-15.0608 40.78754,-3.8602 40.18041,17.4931 -0.55173,19.4053 -23.70278,29.0517 -39.33805,16.391 z"
     id="path3175"
     inkscape:connector-curvature="0"
     transform="scale(0.8,0.8)" />
  <path
     style="fill:#999999;stroke:none"
     d="m 449.10666,877.83699 c -11.2549,-12.43652 -1.90017,-36.12955 14.26505,-36.12955 21.45666,0 31.78228,27.95098 14.61747,39.56884 -6.65884,4.50698 -23.50687,2.50075 -28.88252,-3.43929 z"
     id="path3177"
     inkscape:connector-curvature="0"
     transform="scale(0.8,0.8)" />
  <path
     style="fill:#999999;stroke:none"
     d="m 382.96129,1458.604 c -1.85359,-2.2335 -4.35423,-7.9817 -5.557,-12.7739 -1.70836,-6.8067 -0.38216,-10.5177 6.0613,-16.9612 10.37176,-10.3718 19.55341,-10.4675 29.71115,-0.3098 9.1779,9.1779 9.99884,16.7881 2.90375,26.9177 -5.71353,8.1572 -27.25647,10.1913 -33.1192,3.1272 l 0,0 z"
     id="path3179"
     inkscape:connector-curvature="0"
     transform="scale(0.8,0.8)" />
  <path
     style="fill:#999999;stroke:none"
     d=""
     id="path3181"
     inkscape:connector-curvature="0"
     transform="scale(0.8,0.8)" />
  <path
     style="fill:#999999;stroke:none"
     d="m 630.21921,635.27554 c -7.46136,-8.2447 -6.67467,-21.70917 1.72566,-29.53526 8.45909,-7.88084 17.98923,-8.41594 27.77792,-1.55967 9.06166,6.34703 9.77049,23.9672 1.27349,31.65688 -7.85021,7.10435 -24.10781,6.80751 -30.77707,-0.56195 l 0,0 z"
     id="path3183"
     inkscape:connector-curvature="0"
     transform="scale(0.8,0.8)" />
  <path
     style="fill:#999999;stroke:none"
     d="m 1160.3024,391.4406 c -2.7691,-3.95336 -5.0346,-10.50252 -5.0346,-14.55369 0,-17.07324 25.2874,-26.98929 36.6915,-14.38794 7.1043,7.85021 6.8075,24.10781 -0.562,30.77707 -8.6728,7.84883 -24.9863,6.8859 -31.0949,-1.83544 l 0,0 z"
     id="path3185"
     inkscape:connector-curvature="0"
     transform="scale(0.8,0.8)" />
  <path
     style="fill:#999999;stroke:none"
     d="m 1946.5193,748.47089 c -11.7786,-13.01524 -1.7538,-36.12956 15.6695,-36.12956 17.7097,0 28.0097,25.0153 15.1076,36.6915 -7.8502,7.10435 -24.1078,6.80751 -30.7771,-0.56194 l 0,0 z"
     id="path3187"
     inkscape:connector-curvature="0"
     transform="scale(0.8,0.8)" />
  <path
     style="fill:#999999;stroke:none"
     d="m 2098.5245,1075.1203 c -11.7786,-13.0152 -1.7539,-36.1296 15.6695,-36.1296 10.3793,0 21.022,10.6428 21.022,21.022 0,17.7097 -25.0153,28.0097 -36.6915,15.1076 z"
     id="path3189"
     inkscape:connector-curvature="0"
     transform="scale(0.8,0.8)" />
  <path
     style="fill:#999999;stroke:none"
     d="m 1859.7066,1906.7685 c 2.3347,-0.9342 5.1241,-0.8193 6.1988,0.2553 1.0747,1.0747 -0.8355,1.8391 -4.2448,1.6987 -3.7676,-0.1552 -4.534,-0.9216 -1.954,-1.954 z"
     id="path3191"
     inkscape:connector-curvature="0"
     transform="scale(0.8,0.8)" />
  <path
     style="fill:#999999;stroke:none"
     d="m 1846.2606,1899.8292 c -6.7922,-7.5053 -6.815,-18.1019 -0.063,-29.5314 4.7229,-7.9952 6.4637,-8.6887 16.2625,-6.4787 6.0354,1.3612 13.1152,4.2524 15.733,6.425 6.6869,5.5496 5.9924,23.6789 -1.1549,30.1471 -7.8502,7.1043 -24.1078,6.8075 -30.7771,-0.562 l 0,0 z"
     id="path3193"
     inkscape:connector-curvature="0"
     transform="scale(0.8,0.8)" />
  <path
     style="fill:#999999;stroke:none"
     d="m 1316.9754,2141.8368 c -8.0811,-8.081 -8.3574,-23.1611 -0.5539,-30.2232 7.8502,-7.1043 24.1078,-6.8075 30.7771,0.562 11.7786,13.0152 1.7539,36.1295 -15.6695,36.1295 -4.447,0 -10.9961,-2.9107 -14.5537,-6.4683 z"
     id="path3195"
     inkscape:connector-curvature="0"
     transform="scale(0.8,0.8)" />
  <path
     style="fill:#999999;stroke:none"
     d="m 692.78393,1957.4901 c -8.08104,-8.081 -8.3574,-23.1611 -0.55388,-30.2232 13.01525,-11.7786 36.12956,-1.7539 36.12956,15.6695 0,10.3793 -10.64271,21.022 -21.02199,21.022 -4.44696,0 -10.99612,-2.9107 -14.55369,-6.4683 z"
     id="path3197"
     inkscape:connector-curvature="0"
     transform="scale(0.8,0.8)" />
</svg>
