<?xml version="1.0" encoding="utf-8"?>
<!-- Generator: Adobe Illustrator 14.0.0, SVG Export Plug-In . SVG Version: 6.00 Build 43363)  -->
<!DOCTYPE svg PUBLIC "-//W3C//DTD SVG 1.1//EN" "http://www.w3.org/Graphics/SVG/1.1/DTD/svg11.dtd">
<svg version="1.1" id="Layer_1" xmlns="http://www.w3.org/2000/svg" xmlns:xlink="http://www.w3.org/1999/xlink" x="0px" y="0px"
	 width="662px" height="800px" viewBox="0 0 662 800" enable-background="new 0 0 662 800" xml:space="preserve">
<g>
	<path fill-rule="evenodd" clip-rule="evenodd" d="M233.99,141.398c6.975-2.996,14.068-10.459,22.066-5.808
		c-10.282,18.365-33.657,23.636-46.454,39.486c-4.307,0.823-4.983-1.983-9.291-1.161c-15.611,1.176-21.958,16.019-33.679,17.42
		c-7.099,7.368-26.277,24.061-8.129,32.518c17.961-14.943,38.368-27.441,53.422-45.292c2.741,1.518,8.026,0.491,10.453,2.323
		c30.491-12.004,60.31-37.12,99.875-41.809c6.282-0.744,15.282-1.172,22.066,0c6.817,1.179,13.37,6.806,20.904,8.13
		c9.657,1.697,18.536-1.606,27.872,3.484c9.393-1.951,19.202-4.324,27.872-3.484c39.631,3.838,72.383,31.971,98.715,46.453
		c0.333,11.355-8.297,4.956-12.775,3.484c-10.602-3.484-19.752-4.112-32.518-6.968c-35.104-7.853-81.549-18.852-118.457-17.42
		c-13.253,0.515-25.747,4.866-34.842,12.775c-18.006,1.138-38.094,8.82-51.099,12.774c-28.77,8.748-55.804,21.422-74.325,42.97
		c-6.864,7.986-16.632,21.014-17.421,25.55c-2.734,15.72,11.672,32.26,9.291,44.131c7.835,8.714,17.459,5.179,27.873,8.13
		c1.921,5.434,1.076,13.634,3.485,18.581c24.328-3.93,23.115-33.401,53.422-31.356c3.484-1.16,5.807-3.482,6.967-6.968
		c35.559-7.41,53.511-32.428,85.94-42.969c3.244-3.725,6.728-7.208,10.451-10.452c0.458-7.813-7.035-7.675-8.129-13.937
		c4.671-5.007,9.786-9.57,19.742-9.291c6.222,7.228-2.195,13.079-1.161,22.065c5.621,3.188,8.792-1.666,9.291-6.968
		c5.307-1.274,11.823-1.339,15.099-4.645c-1.976-6.179-5.457,2.41-8.132-1.162c2.463-5.402,11.35-7.859,17.423-9.291
		c23.18-5.467,48.674,0.569,68.519-10.452c18.349,1.781,44.152-3.893,56.905,3.484c-17.064,11.337-39.311,10.626-59.229,16.258
		c-3.319,0.939-6.039,3.824-9.29,4.646c-8.569,2.166-18.291,0.531-26.711,3.484c-9.674,3.394-23.757,14.472-36.001,18.582
		c-5.839,1.959-12.232-1.459-15.098,5.807c-3.617,0.642-7.568,0.948-10.452,2.322c-13.402,9.242-26.403,17.672-37.163,26.711
		c-6.932,5.823-11.594,8.302-19.744,13.936c-10.124,7-14.828,21.359-29.032,24.389c-9.59,24.864-33.991,34.916-53.423,49.938
		c13.744,25.691,22.3,49.798,42.971,68.52c4.906,4.443,10.948,7.834,16.259,12.774c5.115,4.759,10.492,10.56,17.42,11.613
		c5.469-8.566-2.762-17.385-3.484-25.55c-3.65-41.239,31.726-62.285,63.874-72.003c39.358-2.083,73.394,0.862,101.038,13.937
		c10.017,4.737,16.648,12.487,26.71,18.581c6.087,3.687,15.54,7.385,22.066,16.26c5.415,7.361,11.907,20.355,13.935,26.71
		c12.383,38.785-3.369,81.364-16.258,112.65c1.955,15.505-6.704,20.394-9.291,31.356c-20.241,10.341-33.785,27.379-52.261,39.485
		c-15.24-7.731-19.256,1.889-29.033,11.614c-2.577,2.563-10.102,5.918-16.258,10.452c-10.632,7.832-26.784,18.496-45.293,19.742
		c-12.507,9.003-29.182,1.004-45.293,2.323c-6.568,0.538-12.048,3.384-18.582,3.483c-26.454,0.412-55.939,1.3-78.971-6.968
		c-6.324-18.063-19.611-29.166-32.519-40.647c-31.817,3.292-41.361-22.57-59.229-37.163c-2.916-2.38-7.455-3.254-10.452-5.807
		c-8.198,1.867-12.98,7.151-17.42,12.775c3.562,19.572-4.379,29.217-3.485,44.131c4.641,5.426,14.218,5.913,17.42,12.775
		c-8.348,16.427-23.259,26.292-29.034,45.292c-0.289,6.293-1.755,11.406-4.645,15.098c2.53,9.085-3.715,16.386-6.968,23.227
		c-1.079,19.438-12.908,28.127-15.098,46.454c-12.102-0.673-4.157-21.393-11.613-26.711c-2.023-69.166-1.614-132.41,19.743-181.17
		c-8.215-20.399-32.002-32.638-45.293-53.422c-7.627-11.93-17.642-27.681-19.743-39.485c-2.217-12.455,6.486-18.92,10.452-29.034
		c-1.704-6.268-4.404-16.961-3.484-22.065c6.94,1.207,6.988,15.439,5.806,20.904c4.571,10.459,37.335,21.841,40.647,6.968
		c2.16-9.701-11.675-10.455-16.259-16.259c-1.896-12.735,1.836-19.843,6.968-25.55c0.695-6.889-2.038-10.35-1.162-17.42
		c-20.459-10.062-4.018-37.53,11.613-41.809c2.689-13.957,7.597-25.695,12.775-37.163c7.138-7.031,17.207-16.541,12.775-31.356
		c2.314-3.106,7.525-3.314,10.452-5.807c6.528-11.28,10.176-25.439,15.098-38.324c-0.307-32.867-2.058-72.334-15.098-98.714
		c-4.601,3.529-10.868,5.391-15.097,9.29c-2.625-10.531-4.95-21.546,0-31.355c7.446,1.458,9.929,7.877,12.774,13.936
		c15.351-13.924-3.181-27.24-3.484-47.615c13.299-13.079,6.642-32.667,9.291-49.938c2.447-15.959,12.361-29,17.42-41.809
		c1.875-0.328,1.999,1.098,3.484,1.162c2.869,26.667-0.226,56.931-4.645,80.133c7.469,17.332,2.743,40.562,5.807,67.358
		c1.25,10.934,6.96,33.407,15.097,33.679c4.639,0.155,4.072-4.224,9.291-9.291c6.583-6.392,22.852-16.668,34.841-24.389
		c4.404-2.837,13.518-4.833,19.742-8.129C223.012,145.5,226.602,141.304,233.99,141.398z M150.374,406.186
		c5.259-7.452,16.085-9.655,11.613-25.55c-6.199-6.861-8.593-11.28-17.42-16.259c-0.774,0-1.548,0-2.323,0
		c-5.374,14.121,0.891,39.303-1.161,54.583C148.831,420.221,146.543,411.611,150.374,406.186z M405.869,442.187
		c-15.342-2.727-31.083-0.35-45.291,5.807c-2.49,26.782,17.558,33.448,37.162,23.228c-1.269,8.408-6.544,12.812-15.097,13.937
		c-6.474,11.007,7.802,22.746,16.259,30.194c3.2,2.819,12.415,6.06,15.098,8.129c0.856,0.661,0.25,4.052,1.16,4.646
		c2.829,1.848,7.092,1.44,9.292,3.484c7.672,7.128,8.175,16.67,16.258,20.905c21.376-2.954,30.535-17.941,39.486-34.842
		c4.854-9.165,11.912-18.901,11.614-25.549c-0.357-7.957-14.129-28.715-20.905-29.034c-13.401-0.631-14.154,23.004-29.033,19.743
		C437.11,467.205,424.154,445.437,405.869,442.187z M353.61,539.739c-9.21-7.049-19.398-13.12-32.52-16.259
		c-8.513-11.615-25.396-14.863-33.678-26.71c-11.032-0.829-18.935-6.111-27.872-5.808c-7.831-8.042-18.612-13.131-23.227-24.389
		c-12.756,2.319-13.301-7.608-20.905-10.452c-1.787-0.667-5.37,0.814-6.968,0c-4.18-2.13-3.899-6.414-9.291-5.806
		c-12.465,1.406-11.259,24.642-13.936,40.646c-15.104,8.2-6.962,23.838,3.484,32.518c8.078,6.713,25.011,16.271,32.517,19.743
		c4.066,1.881,10.606,2.046,12.774,3.483c2.287,1.518,2.336,5.178,3.484,5.809c4.762,2.606,14.383,2.562,23.228,5.806
		c12.892,4.729,18.423,16.09,34.84,11.614c3.918-5.761,11.995-7.361,17.42-11.614c5.836-0.028,8.486,3.128,13.937,3.484
		c0.488,11.619,11.304,10.296,18.582,6.968c0.348-2.283-1.568-2.304-2.322-3.484c4.919-1.274,6.013-6.375,12.774-5.806
		c13.605,16.876,52.029,13.839,75.487,9.29c1.896-1.878-1.037-4.858,0-9.29C403.53,552.377,379.646,547.311,353.61,539.739z"/>
	<path fill-rule="evenodd" clip-rule="evenodd" d="M271.153,113.526c-3.049,8.176-11.378,11.074-22.065,11.613
		c-1.162-1.547-1.914-3.505-3.483-4.646C248.07,111.207,267.087,100.639,271.153,113.526z"/>
	<path fill-rule="evenodd" clip-rule="evenodd" d="M625.365,205.272c0.578,5.999-8.73,2.109-11.614,4.645
		C614.117,204.864,619.513,204.84,625.365,205.272z"/>
	<path fill-rule="evenodd" clip-rule="evenodd" d="M573.104,222.692c1.796,1.688,1.022,5.945,1.161,9.291
		c-5.609-2.969-9.158,3.981-15.098,0c0-1.936,0-3.872,0-5.807C564.6,225.801,567.122,222.516,573.104,222.692z"/>
	<path fill-rule="evenodd" clip-rule="evenodd" d="M364.062,240.112c-1.146,6.901-12.022,4.611-15.099,1.161
		C352.082,237.506,360.659,234.24,364.062,240.112z"/>
	<path fill-rule="evenodd" clip-rule="evenodd" d="M609.105,252.887c1.39,3.256,1.277,8.014,1.162,12.774
		c-2.839,1.034-5.036,2.707-9.291,2.323c-2.878-3.28-5.505-11.817-4.646-15.098C599.637,251.241,606.447,253.033,609.105,252.887z"
		/>
	<path fill-rule="evenodd" clip-rule="evenodd" d="M645.108,303.986c-11.619,1.554-10.712-9.419-16.259-13.936
		c1.396-6.731,7.401-8.858,13.936-10.452C646.602,284.602,650.177,297.201,645.108,303.986z"/>
	<path fill-rule="evenodd" clip-rule="evenodd" d="M513.875,633.81c3.863,1.169,12.634-2.57,12.775,2.321
		C522.787,634.963,514.017,638.7,513.875,633.81z"/>
	<path fill-rule="evenodd" clip-rule="evenodd" d="M492.971,667.487c-0.188,1.351,0.257,2.067,1.162,2.323
		c-1.709,6.422-7.533,8.727-16.26,8.129C469.642,667.526,486.796,664.139,492.971,667.487z"/>
</g>
</svg>
