<?xml version="1.0" encoding="utf-8"?>
<!-- Generator: Adobe Illustrator 14.0.0, SVG Export Plug-In . SVG Version: 6.00 Build 43363)  -->
<!DOCTYPE svg PUBLIC "-//W3C//DTD SVG 1.1//EN" "http://www.w3.org/Graphics/SVG/1.1/DTD/svg11.dtd">
<svg version="1.1" id="Layer_1" xmlns="http://www.w3.org/2000/svg" xmlns:xlink="http://www.w3.org/1999/xlink" x="0px" y="0px"
	 width="800px" height="800px" viewBox="0 0 800 800" enable-background="new 0 0 800 800" xml:space="preserve">
<g>
	<path fill-rule="evenodd" clip-rule="evenodd" d="M468.254,5.717c1.919,0,3.837,0,5.756,0c-0.01,4.475-5.429,4.18-6.907,1.151
		C467.805,6.803,468.465,6.696,468.254,5.717z"/>
	<path fill-rule="evenodd" clip-rule="evenodd" d="M408.392,58.671c12.052,2.704,39.737,3.546,47.198-5.755
		c18.536-3.282,33.208,9.617,47.199,11.512c5.299,0.717,9.772-1.292,14.965-1.151c41.231,1.11,56.299,38.09,92.095,50.651
		c2.862,10.952,3.482,24.146,10.361,31.082c-4.24,22.037,5.984,38.906,27.627,41.442c7.072,10.179,8.895,27.699,3.454,41.442
		c-3.513-0.708-3.276-5.166-9.21-3.453c-8.661,5.92-9.682,19.48-14.965,28.779c-10.389,4.578-17.484,12.447-24.175,20.721
		c-18.27,6.289-29.084,20.035-40.291,33.385c-20.951-5.239-40.315-2.108-54.105,8.057c-12.14-2.826-19.191-10.738-32.232-12.662
		c-3.284-17.822-16.732-25.479-25.326-37.989c-5.782,0.793-9.292-0.686-12.663-2.302c0.794-24.557,13.041-46.681,25.325-63.314
		c6.934-9.388,10.729-18.079,23.024-17.269c-2.413,19.354-23.401,25.731-19.57,48.349c1.866,11.024,14.22,19.05,24.175,24.176
		c29.963,15.428,49.746-8.515,61.012-34.536c5.844-13.497,14.649-37.505,5.757-58.71c-3.395-8.094-10.344-13.05-13.815-20.721
		c-12.259-5.041-17.443-13.068-31.08-11.512c-6.444,0.735-10.568,6.955-17.268,8.058c-5.879,0.967-24.857-0.998-35.688-1.152
		c-8.295-0.118-12.656-2.383-17.267-5.755c-20.745,21.083-47.656,35.998-69.071,56.408c-2.89,9.774-6.06,19.265-9.209,28.779
		c-9.486,5.864-18.429,12.27-33.385,12.663c-5.337,9.98-0.019,14.811-1.151,25.326c-1.541,14.312-14.494,24.646-13.813,33.385
		c0.7,8.985,11.008,10.306,17.268,17.267c8.681,27.389,22.334,49.805,34.535,73.675c-2.555,7.037-5.96,13.227-8.059,20.721
		c-0.586,6.341,7.397,4.116,6.907,10.36c-8.905,0.32-16.432-10.322-25.325-13.814c-7.442,4.455-21.402,2.39-21.873,13.814
		c4.075,5.604,12.078,6.386,18.418,6.907c4.094,4.544,7.919,14.839,4.605,23.024c2.522,6.303,8.517,9.134,12.663,13.813
		c19.287-1.636,16.917,18.386,20.721,32.234c11.815,14.292,29.086,15.927,43.745,27.628c8.373,6.683,13.872,21.153,21.871,25.326
		c1.306,0.68,18.286,5.688,23.024,6.906c29.349,7.547,60.165,6.947,95.55,8.058c2.337,0.354-0.238-3.326-1.153-3.452
		c11.688-1.417,29.937-5.047,39.141-12.664c-13.586-12.15-39.029,0.488-56.407-8.058c1.352-4.816,9.854-8.526,14.965-5.756
		c24.838-9.121,50.283-12.434,72.523-25.327c-0.916,16.352-12.091,22.444-26.477,25.327c-0.593,5.37-1.896,7.461-3.453,13.813
		c18.383,3.7,30.521-6.011,41.442-14.966c9.434-7.736,20.557-19.525,29.93-29.93c12.698-14.096,23.557-29.323,40.291-32.232
		c9.381-7.12,13.551-19.451,24.176-25.326c10.763-37.588,26.461-70.237,39.141-105.909c-1.59-7.808-0.746-12.829,3.451-17.268
		c8.048,13.611,8.837,31.705,6.909,52.954c-5.052,55.646-40.924,105.2-69.071,135.84c-0.276,4.714-3.492,6.484-3.452,11.512
		c-32.682,29.482-69.621,54.706-120.875,65.615c-16.591,5.799-37.447,12.984-56.407,14.967c-14.56,1.521-22.015-5.172-35.688-2.303
		c-13.628,2.86-25.942,4.066-39.14,2.303c-0.781,8.804,7.69,15.04,9.21,26.478c1.242,9.352-1.936,21.312,2.303,28.778
		c-3.28,12.813-19.05,9.799-21.873,21.872c-1.527,6.539,3.039,11.364,3.453,18.42c0.583,9.935-2.503,18.603-5.756,27.628
		c-15.227,1.796-19.285-7.574-26.477-13.813c-7.48,3.263-11.196,10.294-18.42,13.813c-22.643-1.941-35.295,15.091-47.197,27.628
		c-0.885,4.34,1.404,5.504,1.151,9.211c-4.757-0.538-5.723,2.718-8.058,4.604c0.917,3.689,6.608,2.602,8.058,5.757
		c-1.615-5.04-0.338-7.104,2.302-10.36c5.117-1.394,11.725-1.181,13.814,3.453c-4.924,9.046-18.015,14.59-26.477,5.755
		c-7.547,9.211-16.421,15.204-26.477,17.269c-6.208,8.288-16.228,18.662-27.628,14.965c-1.793-13.841,11.418-19.784,18.419-27.626
		c9.857-11.048,15.461-26.264,28.779-34.538c12.277-30.7,28.201-57.752,54.105-74.825c5.477-9.342,5.598-24.267-2.302-31.084
		c9.867-12.388,25.295-19.217,20.721-46.046c-4.403-5.574-13.723-6.229-23.023-6.907c-3.076-12.656-13.93-17.535-24.175-23.022
		c-6.389,3.254-3.128,9.825-4.605,14.965c-6.132,21.334-25.653,34.278-26.477,61.011c-9.731,8.304-19.532,16.541-23.024,31.084
		c-13.89,3.159-14.051,23.834-28.78,26.476c-5.912,1.061-12.899-2.96-19.57-2.303c-12.618,1.247-19.595,7.438-21.872,21.872
		c-12.178,8.869-27.801,23.104-39.14,6.908c2.981-6.75,2.51-15.913-2.303-20.722c-8.043-3.592-16.754,7.627-23.022,5.756
		c-5.221,0.617-2.689-6.52-4.605-9.209c-13.679-6.642-54.241-9.254-67.919,3.453c-3.735,0.664-6.84-3.287-11.512-2.302
		c-4.653,0.981-7.134,7.129-11.511,8.058c-11.622,2.467-17.861-7.853-31.082-10.359c-10.612,7.752-35.265,2.278-34.536-8.059
		c11.213-9.271,27.223-4.909,42.594-5.756c11.259-0.62,23.916-5.11,35.686-6.907c12.521-1.911,22.963-3.07,34.536-6.906
		c9.754-3.234,15.931-5.098,27.628-9.211c6.016-2.115,11.361-7.208,17.267-8.058c12.717-1.829,24.817,2.228,35.687,0
		c21.498-4.407,31.767-19.317,46.047-33.385c21.127,4.466,29.862-6.069,40.292-16.116c13.265-12.778,25.791-23.604,10.36-41.441
		c3.539-7.974,13.646-9.377,19.57-14.966c-3.254-10.943-13.715-14.681-21.872-20.721c-34.394-42.385-63.874-93.022-70.222-161.166
		c-3.146-33.77,2.937-68.78,2.303-102.455c4.019-10.261,9.395-25.028,6.906-37.989c-7.912,1.432-15.455,11.289-20.721,19.57
		c-5.414,8.515-12.016,16.067-16.116,23.024c-2.707,4.593-1.127,13.218-3.454,20.721c-3.708,11.956-13.766,16.501-24.175,23.023
		c-15.078,9.098-19.25,29.101-28.779,43.746c-4.526,19.393-11.92,48.069,10.36,52.954c-5.224,12.335-21.459,15.056-26.478,28.78
		c-3.662,10.017-3.745,21.01-8.058,31.081c-4.543,10.611-11.89,19.112-14.965,29.931c-23.157-32.141-15.729-112.603,1.151-149.653
		c-12.376-28.041,14.529-41.91,10.361-69.07c11.492-14.217,13.089-38.33,25.326-51.803c4.339-0.885,5.503,1.404,9.209,1.151
		c7.616-8.501,15.729-16.503,25.326-23.023c-4.987-17.545,11.469-52.349,23.022-54.105c11.304-1.719,14.164,11.57,20.722,19.569
		c14.22,2.06,17.412-13.955,25.326-18.418c5.535-3.122,14.766-0.318,20.721-3.454c8.53-4.49,6.603-14.917,9.209-24.174
		c9.315-6.802,23.204-9.031,32.232-16.117c3.033-13.083,9.587-22.646,18.419-29.93c15.246-0.445,36.256-4.17,44.896-14.966
		c17.606-2.347,27.5-12.406,37.989-21.872c12.084,0.572,16.76-6.262,27.629-6.907c1.513,0.407,1.811,2.026,3.451,2.302
		C437.925,40.623,417.991,44.479,408.392,58.671z"/>
	<path fill-rule="evenodd" clip-rule="evenodd" d="M745.688,189.905c-0.967,4.023-4.896,5.083-6.908,8.059
		C718.129,192.791,740.566,167.41,745.688,189.905z"/>
	<path fill-rule="evenodd" clip-rule="evenodd" d="M767.56,215.23c-0.05,1.97,0.854,2.982,2.302,3.455
		c-1.437,6.622-5.604,10.513-14.964,9.208c-2.502-2.746-4.729-7.037-2.304-11.512C758.236,216.651,761.31,214.353,767.56,215.23z"/>
	<path fill-rule="evenodd" clip-rule="evenodd" d="M777.919,262.429c-2.829,6.665-11.143,11.3-16.115,3.454
		C761.551,254.63,773.793,255.509,777.919,262.429z"/>
	<path fill-rule="evenodd" clip-rule="evenodd" d="M637.477,468.49c-0.829,7.996-7.221,10.432-11.512,14.965
		C615.246,474.409,628.813,456.435,637.477,468.49z"/>
	<path fill-rule="evenodd" clip-rule="evenodd" d="M114.842,698.726c-1.683,9.995-29.718,8.198-27.628-3.453
		C96.546,693.959,105.896,696.536,114.842,698.726z"/>
</g>
</svg>
