<svg xmlns="http://www.w3.org/2000/svg" viewBox="0 0 198.05 197.05"><title>Aon Ake</title><g id="Layer_2" data-name="Layer 2"><g id="Background"><g id="Aon_Ake" data-name="Aon Ake"><path d="M97.89,91.93l.38-1.4,3.56,3.14a18.48,18.48,0,0,0,2.26-3.32q9-24.25,17.92-48.56c1.48-4,3-8,4.52-12.08,2.87,3.16,5.26,6.22,8.1,8.77a110.25,110.25,0,0,0,9.11,6.72l.9-.61c-.87-2.56-1.7-5.13-2.62-7.67a62.89,62.89,0,0,1-3.83-26.39c.24-3.08,1.49-6.09,2.38-9.11.14-.45.89-.72,1.8-1.42-4.42,17.54.94,32.89,7.41,48.29C165,55,180.25,59.84,197.4,55.58c-1.53,2.46-3.82,2.94-6,3.42-8.15,1.83-16.22,1-24.17-1.12-4-1.05-7.88-2.52-11.82-3.77a17.55,17.55,0,0,0-2.38-.34c4.17,6.91,8.46,12.85,15.87,16.76C162.7,72.85,157.14,75,151.56,77c-14.47,5.35-29,10.66-43.42,16.06a30,30,0,0,0-4.29,2.48l1.37,2.92L103.78,101a19.69,19.69,0,0,0,3.63,2.39c12.4,4.68,24.84,9.27,37.27,13.89l24.35,9.1c-7.55,3.88-11.79,9.86-16.25,17.12,4.65-1.51,8.31-2.87,12.08-3.88,8.72-2.31,17.52-3.91,26.57-1.8a13.17,13.17,0,0,1,6.62,3.64c-17.6-4.33-32.79.29-48.2,7-6.37,15.09-12.06,30.53-7.35,48.52-3.74-3.42-4.17-7.28-4.41-11.09-.64-10.3,1.62-20.12,5.26-29.69.51-1.32.93-2.68,1.69-4.91-7.64,4.2-13.88,8.51-18,16.38-.84-1.92-1.6-3.45-2.19-5q-10.3-27.8-20.6-55.59a27.12,27.12,0,0,0-2.3-3.92l-3.39,2.93c-.9-.85-1.82-1.7-3.28-3.06a27.9,27.9,0,0,0-2.58,4.28c-4.31,11.51-8.53,23-12.78,34.57-3.08,8.33-6.18,16.66-9.54,25.74-4.64-7.44-10.57-12.17-18.44-16.46,5,13.38,8.91,25.84,6.44,39.19a17.29,17.29,0,0,1-2.92,6.2c3.48-17.13-1.33-32.63-8-47.43-12.9-7.91-32.17-11-47.42-7.86.8-2.23,2.79-2.56,4.68-3.14,7.78-2.4,15.51-1.21,23.16.48,5.14,1.13,10.15,2.83,16,4.51-3.74-7.07-8.32-12.58-15.41-16.85,2.71-1,4.81-1.84,6.92-2.62q26.63-9.8,53.26-19.58c1.9-.7,3.77-1.36,4.48-3.76L92,98.5l1.27-2.38c-.53-.7-.82-1.47-1.34-1.7-2.73-1.21-5.49-2.36-8.29-3.39-18.2-6.75-36.41-13.45-55.14-20.37C35.21,66.56,39.83,61,43.82,54a12.69,12.69,0,0,0-2.88.31c-8.12,3.08-16.44,5.38-25.17,5.55C10.16,60,4.49,59.92,0,56.16c5.36.3,10.88,1.07,16.35.81,9.52-.45,18.53-3.42,27.32-7a9.16,9.16,0,0,0,5.21-5.52C53.76,32.85,57.08,21,56.24,8.24c-.18-2.59-.9-5.14-.66-8.06A35.62,35.62,0,0,1,57.8,4.75C60,11.6,59.44,18.59,58,25.42c-1.36,6.44-3.47,12.73-5.21,18.93,4.57-.78,10.82-5.84,17.61-14.71,2.23,5.81,4.37,11.24,6.38,16.71,5.28,14.33,10.5,28.68,15.78,43a41.45,41.45,0,0,0,2,4.09l3.46-1.67.2,2,.72-.29Zm29.57-58.46c-6.83,18.64-13.61,37.14-20.36,55.66-.14.38.13.91.2,1.36l57-20.5c-7.46-4.42-12.43-11.37-16.37-19.07C139.81,46.41,132,41.8,127.46,33.47Zm36.92,93.36-57.45-20.52,20.43,57.31c4.56-8.74,12.73-13.17,20.68-17.78C152,138.11,156.8,131.24,164.38,126.83ZM69.74,33.39c-4.12,7.48-10.37,11.84-17.12,15.52A12.34,12.34,0,0,0,47.46,54C44,60.11,39.91,65.7,33.71,69.42c-.32.19-.42.78-.44.81L90.14,90.55C83.36,71.53,76.7,52.89,69.74,33.39ZM90.2,106.3,33.38,126.65c.11.21.23.81.59,1,6.29,3.86,10.23,9.76,14.05,15.83a14,14,0,0,0,4.57,4.33c6.28,3.81,12.43,7.7,16.34,14.21.21.36.72.55,1.06.79Zm10.53-7c-1.5-3.08-1.5-3.08-4.48-.85C97.38,100.69,99,100.23,100.73,99.3Zm-2.39,3.9c0,.11-.18.25-.15.33s.21.23.32.35l.17-.68Z"/><path d="M149.52,84.1,146.87,81c.92-.52,1.33-1,1.7-.92C150.64,80.28,150.76,81.42,149.52,84.1Z"/><path d="M147.23,114l3.17.25c0,2.15-.81,2.9-2.82,2.29C147.49,115.92,147.41,115.32,147.23,114Z"/><path d="M83.26,48.14,80.2,50.6l-.93-4Z"/><path d="M50.22,81.11l-2.09,2.6C47.58,82.89,47,82.37,47,81.9,47.14,80.15,48.07,79.7,50.22,81.11Z"/><path d="M46.38,115c1.83-1.64,2.79-1.23,3.59.69C48.56,117.32,47.53,116.94,46.38,115Z"/><path d="M81.18,146.79l1.55,2.09-3.38,1.47.65-3.47Z"/><path d="M118.43,48.6l-2.88,1.77-.59-4Z"/><path d="M116.79,146.48c1.08,2.43.95,3.49-1.57,3.39a4.47,4.47,0,0,1-.09-1.76C115.31,147.63,115.91,147.3,116.79,146.48Z"/></g></g></g></svg>