<?xml version="1.0" encoding="UTF-8" standalone="no"?>
<!-- Created with Inkscape (http://www.inkscape.org/) -->

<svg
   xmlns:dc="http://purl.org/dc/elements/1.1/"
   xmlns:cc="http://creativecommons.org/ns#"
   xmlns:rdf="http://www.w3.org/1999/02/22-rdf-syntax-ns#"
   xmlns:svg="http://www.w3.org/2000/svg"
   xmlns="http://www.w3.org/2000/svg"
   xmlns:sodipodi="http://sodipodi.sourceforge.net/DTD/sodipodi-0.dtd"
   xmlns:inkscape="http://www.inkscape.org/namespaces/inkscape"
   width="160"
   height="300"
   viewBox="0 0 160 300.00001"
   id="svg3381"
   version="1.1"
   inkscape:version="0.91 r13725"
   sodipodi:docname="Thaylen script Z.svg">
  <defs
     id="defs3383" />
  <sodipodi:namedview
     id="base"
     pagecolor="#ffffff"
     bordercolor="#666666"
     borderopacity="1.0"
     inkscape:pageopacity="0.0"
     inkscape:pageshadow="2"
     inkscape:zoom="5.6"
     inkscape:cx="96.342233"
     inkscape:cy="283.95785"
     inkscape:document-units="px"
     inkscape:current-layer="layer1"
     showgrid="false"
     inkscape:window-width="719"
     inkscape:window-height="678"
     inkscape:window-x="193"
     inkscape:window-y="86"
     inkscape:window-maximized="0"
     units="px" />
  <metadata
     id="metadata3386">
    <rdf:RDF>
      <cc:Work
         rdf:about="">
        <dc:format>image/svg+xml</dc:format>
        <dc:type
           rdf:resource="http://purl.org/dc/dcmitype/StillImage" />
        <dc:title></dc:title>
      </cc:Work>
    </rdf:RDF>
  </metadata>
  <g
     inkscape:label="Layer 1"
     inkscape:groupmode="layer"
     id="layer1"
     transform="translate(0,-752.36214)">
    <path
       style="fill:#000000"
       d="m 49.292967,1048.758 c -8.319249,-6.5106 -17.111922,-17.7196 -17.234298,-21.9703 -0.04066,-1.4124 8.174355,-1.9671 33.703998,-2.2758 l 33.757753,-0.4083 0.39847,-54.24008 0.39846,-54.23999 -22.480164,0 c -22.106211,0 -22.59353,-0.0719 -29.295293,-4.32202 -8.280954,-5.25163 -16.531287,-15.30566 -16.552763,-20.17154 -0.0086,-1.96609 15.434607,-34.46654 34.31841,-72.22324 34.33419,-68.64858 34.33419,-68.64858 40.45466,-65.23971 7.78696,4.33701 19.05011,15.50283 20.18031,20.00589 0.63428,2.5272 -6.51502,18.21966 -26.5567,58.29097 l -27.424639,54.8328 13.707649,0 c 19.30038,0 26.30242,3.31134 36.57388,17.29617 4.34597,5.91715 4.34597,5.91715 4.34597,76.99791 l 0,71.08094 -36.96685,0 c -36.032094,0 -37.077161,-0.087 -41.328853,-3.4137 z"
       id="path3467"
       inkscape:connector-curvature="0" />
  </g>
</svg>
