<svg xmlns="http://www.w3.org/2000/svg" viewBox="0 0 650 770"><defs><style>.cls-1{fill:#fff;}</style></defs><title>Sja-anat Chapters</title><g id="Layer_2" data-name="Layer 2"><g id="Layer_1-2" data-name="Layer 1"><path class="cls-1" d="M0,770V0H650V770ZM140.38,435.51c-.79,6.3-.15,8.78,4.8,10.42,5.34,1.76,6,4.95,5.77,9.82-.54,9.85,2.69,14.53,12.28,16.07a27.58,27.58,0,0,0,14.4-2c9.75-4.15,19-9.41,28.55-14.11,8.39-4.14,14.48-2.89,19.68,4.87,5.73,8.53,10.73,17.54,16.15,26.28,4.79,7.73,9.09,15.88,14.73,23,11,13.77,22.86,26.81,34.13,40.35,9.76,11.73,18.19,24.21,18.7,40.27a14.93,14.93,0,0,1-.7,3.48c-2.12-21-16.07-34.16-29.37-49.32,1.13,11.42-1.05,20.3-7.33,26.37a145.58,145.58,0,0,1-18.45,15c-11.32,7.84-23.06,15.08-34.6,22.61-14.13,9.22-15.23,24.61-18.76,38.2,18.74-6.45,37.07-14.15,56.12-19,23.3-5.9,45.26-15.27,67.87-22.94a7.91,7.91,0,0,0,4.39-4.35c4.13-12.92,13.12-20.65,25.4-25.51s24.9-9.29,32.32-21.74a42.38,42.38,0,0,1-6.2,10.77c-6.52,8.1-16.19,11.25-25.11,15.62-12.12,6-17.06,7.61-21.46,22.44a181.9,181.9,0,0,0,51-23.29c8.47-5.65,15.38-13.08,17.08-23.49,2.27-13.9-3.52-25-13.95-33.89-10.88-9.24-17.76-20.56-19-35-.36-4.22-.74-8.43-1.16-13.17a23.5,23.5,0,0,0-3.3,2.14c-5.93,5.58-11.63,11.43-17.76,16.78-4.86,4.23-9.73,9.9-15.5,11.36-13,3.3-26.38,3.81-38.28-4.74-6.64-4.77-13.36-9.42-21.3-15,2.09,5.69,3.13,10.33,5.39,14.26,4.44,7.74,9.61,15.05,14.4,22.6,2.19,3.45,4.19,7,6.27,10.55-3.31-2-5.46-4.71-7.83-7.2-11.66-12.26-20.56-26-23.78-43a13.05,13.05,0,0,0-2.16-4.25c-3.75-5.83-8.37-11.26-11.21-17.5-4.93-10.88-8.76-22.26-13.14-33.39a9.83,9.83,0,0,0-2.3-3c-3.54-3.57-7.07-7.15-10.74-10.58-1.25-1.17-2.83-2.62-4.36-2.74-10.81-.86-18.94-6.06-24.36-15.19-10.88-18.33-13.37-37.9-8.42-58.64a10.51,10.51,0,0,0-2.26-8.39A27.17,27.17,0,0,0,176.69,321c-13.37-4.65-28.16-5.45-39.39-15.24-5,4.84-11.59,17.48-12,25.15-.44,9.25-1.11,18.81.66,27.77,3.22,16.38,1.21,31.27-7.3,45.55-.83,1.39.05,4.68,1.26,6.18a17.79,17.79,0,0,0,6.79,4.88c9.83,4.12,9.88,4,6.07,14.25-.09.25.13.63.27,1.24ZM503.07,589.13c.09,1.84.65,4.87.29,7.79-2.18,17.68-9.07,33.08-21.76,45.94a185.77,185.77,0,0,1-49.8,36c-9.5,4.74-18.92,9.91-25.75,18.49-5.05,6.33-6.6,13.14-3.37,21,2.84,6.89,8.36,10,15.08,10.49a82.46,82.46,0,0,0,19.15-1c5.49-.9,10.74-3.22,16.09-4.91-.16-.51-.32-1-.49-1.52-4.37.3-8.74.88-13.11.82-6.43-.07-12.35-4.31-13-9.5-1-7.78,2.84-13.81,9.19-17.48,9.9-5.73,20.47-10.31,30.45-15.91,16.67-9.36,30.26-21.7,35.94-40.77a15.38,15.38,0,0,1,6.67-8.77A318.71,318.71,0,0,0,579.31,564,322.2,322.2,0,0,0,624,488.68C637,458,645.36,426,647.8,392.83c1.43-19.35.85-38.9.16-58.33-.85-23.73-6.31-46.77-13.26-69.37-9.32-30.25-22.66-58.75-41-84.57C583,165.4,570.47,151.51,558.6,137.17c-.92-1.11-3.45-2.23-4.42-1.74-8.73,4.38-16.46,9.88-20.82,19.2-6.65,14.25-3.93,27.55,2.66,41,6.33,13,12.24,26.15,14,40.83,2.52,21.31-11.27,42-27.58,51-10.7,5.89-20.8,12.92-30.85,19.91-2,1.41-2.63,4.91-4.28,8.23,6.92-3.37,12.38-6,17.81-8.68,11.29-5.55,23.45-9.86,33.6-17a123.51,123.51,0,0,0,27.09-26.19c10.28-13.62,10.79-29.72,3.4-45-5.54-11.46-12.85-22-19.34-33-1.13-1.93-2.1-4-3.14-5.94,76.79,90.92,85.08,217.27,36.51,309.55-51.56-32.66-123.24-15.49-154.88,30l28.51,6.61C478.17,498.38,505.09,483,540.66,486c17.92,1.5,33.11,9.29,46.32,21.18,1.21,1.09,1.76,2.91,2.61,4.4l-1.44,1.07c-10.77-10-22.54-18.28-37.3-21.13,12.85,6.21,22.35,16,30.3,27.53,1.55,2.25,2.43,4.28-.72,6-23.87-40.27-55.94-42-83.19-27.8.73,0,1.19,0,1.65,0,31.44-2,55,10.77,70.92,37.85,1.68,2.85,2.16,5.5-1.18,7.48C557,519.68,540.22,503.88,514,499.85c-16.66-2.56-30.06,3.31-41.68,14.66a4.46,4.46,0,0,0,2.21-.53c15.25-7.16,30.57-8.32,46.18-1,12.66,6,21.77,15.08,26.23,28.42a7.33,7.33,0,0,1-1.08,6.08c-7.67,8.53-15.45,17-23.63,25C516.36,578.25,509.84,583.3,503.07,589.13ZM236.82,346.23l-1.82.21c-1.13-5.37-2.7-10.69-3.31-16.12-1.79-16.05,1-30.74,15.09-40.82,9-6.45,19-8.62,29.32-2.58,9.72,5.67,14.59,15.08,17.93,24.83,8,23.47,21.58,41.81,44.5,52.25,16.09,7.33,32.54,10.93,50.19,5,15.8-5.33,25.61-23.07,20-37.64a62.35,62.35,0,0,0-26.19-31.68c-9.49-5.76-19.14-11.27-28.85-16.64-29.11-16.08-43.31-41.17-44.49-73.91-.29-8,.89-16.08,1.42-24.61a15,15,0,0,0-2.05,1.72c-14.65,18.36-17.33,38.42-7.89,59.84,7.6,17.24,20.77,30.19,35.57,41,13.62,9.91,28.32,18.5,43.13,26.59,12,6.54,17.12,16.45,17.2,29.14,0,4.15-2.57,8.89-5.25,12.37-8.86,11.53-33,9.48-42.35,3.83a70.74,70.74,0,0,1-30.11-36.71c-5.68-15.22-12.06-30-24-41.46-3.3-3.15-7-6.55-11.17-8-11.44-4-22.86-2-33.27,3.59-21.09,11.3-30.37,29.84-28.89,53.16.68,10.88,2.48,22.39,12.83,29.64a3.91,3.91,0,0,1,1,2.59c.65,8,1.24,15.91,1.82,23.87,1,13.59,1.44,27.2,7.07,40,4.2,9.58,7.17,19.71,11.63,29.14,3.21,6.81,6.81,14.19,12.28,19,10.53,9.27,22.18,17.38,34,25.07,10.4,6.78,25.6,4.92,34.83-3.28,6.71-6,13-12.37,19.7-18.39,8.63-7.8,15.68-16.64,19.64-27.72a81.33,81.33,0,0,1,3.71-9.24c6.44-12.75,10.95-26,11.73-40.4.21-3.9,0-7.82,0-11.9-5.92,0-11.39-.06-16.85.06a5,5,0,0,0-3.1,1.26c-9.54,9.48-21.14,12.42-34.22,11.32-5.11-.42-7.83,2.07-9,7.2-.59,2.56-1,5.15-1.55,7.73-1.46-16.27,7.8-25,23-30.33-13.91-5.81-26.65-10.83-35.76-22A133.58,133.58,0,0,1,294,328.28c-6.28,2.23-12.22,4.64-18.34,6.43-8.87,2.6-18.22,4.14-23.83,13,.41-1.94.78-4.26,2.11-5.14a151.18,151.18,0,0,1,14.9-8.65c6.88-3.5,14-6.52,20.86-10.05a4.6,4.6,0,0,0,1.83-4c-1.25-4.5-3.06-8.85-4.88-13.84-6.88,9.24-16.55,12-26.08,15C247.9,324.88,238.8,332.12,236.82,346.23ZM575.74,100.42l.7,1C581.6,99.3,587,97.65,591.88,95c10.69-5.74,20.25-12.61,23.82-25.34,2.63-9.4,2.22-18.67-3.8-26-13.68-16.73-31.84-27-52.71-32.2a165,165,0,0,0-24.08-3.64c-19.55-1.86-39.29-1.2-57.73,5.28-25,8.78-49.53,19.14-73.73,30-36.39,16.38-73.41,31-111.57,42.67-23,7.06-46.4,13.22-67.84,24.47-13.34,7-27.11,13.88-38.77,23.22-17.34,13.88-30.14,31.72-35.93,53.84-6.09,23.28-1.92,43.95,15.71,60.9,7,6.76,14.85,12.91,25.94,11.36.4-3.65.77-7.07,1.09-10-13-7.56-19.44-18.75-19.95-32.82-.64-17.78,6.85-32.95,17.65-46.58,12-15.16,28.76-23.89,45.47-32.42,20.08-10.25,41.85-15.78,63.43-21.92Q327.8,107.68,356.3,98c22.44-7.62,44.72-15.78,66.94-24,22.54-8.38,44.46-18.65,68.27-23.15,17.77-3.36,35.64-6.59,53.89-5.08,9.48.79,18.64,2.57,27.28,7.09,17.31,9.06,19.49,29.95,8.82,42.37A61.33,61.33,0,0,1,575.74,100.42ZM188.57,57.33l-.44-1.92c-14.83,2.73-29.91,4.51-44.44,8.39-22.93,6.13-44.14,16-62.64,31.56A90.2,90.2,0,0,0,60.23,119.8c-11.54,20.34-13.14,42.53-10.38,65.33a14.16,14.16,0,0,1-1.47,7.45c-8.19,16.71-17.78,32.83-24.7,50C5.29,288.32-1.88,336,1.72,385.24A334.86,334.86,0,0,0,12,447c12.61,47.41,34.88,89.89,67.32,126.61,13.06,14.78,27.72,28.28,42.59,41.3,18.09,15.85,38.76,28.1,60.32,38.74a7,7,0,0,0,4.6.81c6.37-1.91,11.18-5.2,11.24-13,0-2.52-.09-3.92-2.56-5-4.83-2.19-9.54-4.67-14.23-7.17a294.69,294.69,0,0,1-77-58.79,301,301,0,0,1-57.23-87.17c-18-41.73-27-85.24-25.47-130.73,1.39-40.94,11-80,27.91-117.27,2.77-6.1,6-12,9.41-18.77,1.18,2.8,1.81,4.67,2.71,6.39,2.25,4.31,1.86,8.18-.53,12.51a161.47,161.47,0,0,0-7.76,17.28,293.5,293.5,0,0,0,.72,220.61C80.55,537.25,124.4,585.6,184.44,619.5c5.14,2.9,10.54,5.34,15.24,7.7L210.74,609c-5.9-1.35-12.43-1.83-18.05-4.35-14.22-6.38-21.3-18.58-22.25-33.57-1.21-18.91,7.18-35.7,28.44-38.46,5.21-.67,15.28,4.15,17.12,9,2.59,6.89,3.61,14.18-1.51,20.39-4.88,5.91-10.64,10.73-19.32,7.68-.43-.15-1,.2-1.95.41,5.73,3.66,9.43,3.88,14.92,1.18C219,566,223.6,555,220.19,542.73c-2.95-10.58-10.58-16.64-21.55-16.34-22.56.62-39.32,17.47-41,40.87-1,13.51,4.19,25.11,10.82,36.57C43.41,524.63,2.18,358.07,67.08,235.27l5.65,10.63c-.32-3-1.63-5.44-2.55-8.05-2.79-8-6-15.89-8-24.09-3.52-14.47-4.06-29.28-3.28-44.14,1.56-30,13-55.71,35.8-75.27,20.52-17.63,46-25.34,71.79-31.64ZM418.9,398.24c2,.82,3.4,1.34,4.74,1.92,10.72,4.64,26.85,4.88,33.29-10.74q4.45-10.82,9.7-21.31c7.49-15.05,15.69-29.91,16.7-47.14.6-10.06.06-20.18,0-30.28l-1.78-.63c-1.66,7.05-6.25,8.11-12.26,7.36-2.58-.32-5.34.88-9.26,1.63,1.51-4.23,2.21-9.18,4.79-12.78,4.49-6.29,11.49-2.43,17.5-2.42,2.09-12.9,9.71-24.46,7.79-37.55-6.11,2.32-11.65,5.44-17.56,6.47-16.12,2.79-31.95.28-47.79-3.49a223,223,0,0,0-33.87-5c-6.78-.55-13.57,7-13.73,13.47-.11,4.95,7.47,13.35,12.85,14,8.41.95,16.89,1.39,25.25,2.62,12.13,1.79,18.06,8.27,19.77,19.73-3.91-1.11-8.16-2.75-12.55-3.46-7-1.14-13.32-3.05-18.59-8.49-3.27-3.37-8.1-5.21-12.22-7.73l-.86,1.3c5.06,4.52,10.24,8.93,15.16,13.6,10.89,10.32,20.76,21.5,22.39,37.19.88,8.47.16,17.11.16,25.79a21.86,21.86,0,0,1,2.21-1.32c5.17-2.36,9.88-7.47,16.32-2.69.54.39,2.21-.2,3-.8,2.68-2,4.41-1.28,5.08,1.73a75.29,75.29,0,0,1,1.05,8.25c0,.08-.52.21-1,.4l-2.53-3.79c-4,3.45-7.45,2.55-11.37-.1-5.48-3.71-12.79-1.05-15.61,5-3.49,7.52-7.11,15.09-14,20.15-3.65,2.71-8,4.45-12.09,6.64,1.11,3.84,2.47,7.6,3.24,11.47a62,62,0,0,1,1.32,11.9c0,13.54-4.72,21.41-15.75,22.53-2.94,6.62-5.66,13-8.63,19.31-1.72,3.67-.5,5.35,3.21,5.77,6.73.78,12.9-.6,18.32-4.83,11.53-9,16.77-21.19,17.48-35.49C419.14,410.71,418.9,404.91,418.9,398.24ZM386.46,297l.61-.89c-6.29-5-12.53-10.1-18.89-15-13.2-10.22-23.91-22.35-29.81-38.24-7.1-19.14-6-38.47.78-57.17,6-16.41,16.65-29,33.92-35.59,11.71-4.51,23.69-6.36,35.89-7.22,22.84-1.61,45.74-2.64,68.61-3.8,23.74-1.2,47.46-2.37,70.63-8.32,19.16-4.93,38.15-10.38,54.09-22.84,6.76-5.28,13.66-10.33,18.11-18.24,6.53-11.59,4.28-22.47-.55-33.53.15,12.68-3.14,24.1-12.44,33.05-9.47,9.1-21.2,14.28-33.91,16.73-17.45,3.38-35,6.75-52.57,8.83a474.08,474.08,0,0,1-49.26,3c-19.76.24-39.53-1-59.3-1.06a117.54,117.54,0,0,0-63.33,18c-12.14,7.47-21.53,17.32-27,30.41a109.31,109.31,0,0,0-8.2,34.27C311.71,228,320.7,252.6,343,270.53,356.09,281.08,371.88,288.28,386.46,297ZM184.24,727.41c-.6-5.86-1.92-11.44-1.57-16.91.83-12.7,9.19-21.29,18.6-28.18a159,159,0,0,1,57.64-26.18c23.26-5.53,46.73-10.24,69.83-16.35,30.46-8.06,60.83-16.59,90.9-26,13.62-4.27,27.32-9.47,36.83-21.56,8.48-10.79,12.28-27-1.33-39.4-1.6-1.46-2.75-3.44-4.45-4.71-7.72-5.74-15.56-11.32-23.35-17l-.69,1.1c3,4.08,6.12,8.12,9.08,12.25,6.19,8.62,5.3,21-1.22,29.26-10.58,13.38-25,21.2-40.57,25.89-23.49,7.06-47.43,12.77-71.37,18.17-29.34,6.62-59,11.83-87.71,21-24.6,7.87-47.86,18.11-67.28,35.58-9,8.09-12.49,15-7.39,24.81C166,710.5,175.07,719,184.24,727.41Zm208.47,27.08-.24-1a16,16,0,0,0-1.71.24A121.79,121.79,0,0,1,349.23,757c-11.08-.9-21.67-3.1-30.92-9.88-5.71-4.19-11.15-8.41-13.18-15.67-4.42-15.84,4.59-36.05,19.71-45.57,12.35-7.78,26.12-11.48,40-14.89,17.74-4.38,35.75-7.67,53.47-12.13,13-3.27,25.91-7.27,38.63-11.62,28.92-9.88,39.33-25.35,42.13-53.52,1.13-11.39-3.68-21.61-8-31.64-4.6-10.81-11.05-20.65-22.49-25.57a199,199,0,0,0-23.69-8.92c-8.11-2.32-16.58-3.41-24.89-5,5.34,3.85,11,6.42,16.42,9.29,14.37,7.54,26.93,18.11,33.24,32.68,11,25.34,6.14,44.37-16.51,61.42-9.63,7.26-20.68,11.67-32.29,15s-22.92,7.88-34.64,10.79c-29.84,7.4-59.69,14.7-86.1,31.3-12.92,8.12-22.64,19.16-26.26,34.41-3.15,13.3,1,24.54,10.91,33.79,10.87,10.13,24.29,13.13,38.52,13.81,19,.9,37.38-2.8,55.71-7.06C383.59,756.87,388.14,755.64,392.71,754.49Zm75.66-183.24c.88,12.4-5.35,21.4-13.57,29.43-9.46,9.24-21.74,13.75-33.75,17.59-24.34,7.79-49.17,14-73.8,20.88-19.84,5.53-39.79,10.67-59.47,16.74-21.54,6.65-42.2,15.12-57.7,32.73A67.8,67.8,0,0,0,215.37,715c-2.63,9.17,1.38,17.24,6.69,24.65,8.6,12,20.57,17.84,36,20.18-3.1-2.91-5.65-4.64-7.33-7-10.15-14.17-9.87-29.39-2.71-44.38,7.54-15.8,21.38-25.1,37-31.82,18.32-7.9,37.45-13.14,56.82-18,26.7-6.63,53.11-14.49,79.54-22.18,15.15-4.41,28.87-11.37,40-23.19C471.8,602.16,474.33,585.22,468.37,571.25ZM83.34,185.4a10.87,10.87,0,0,0,.42-1.82A89.53,89.53,0,0,1,107,127c13.74-15.35,31.65-25.1,50.05-33.76,19.83-9.33,41-14.36,62.46-18.15,18.14-3.21,36.53-5.17,54.6-8.73,24.23-4.79,48.26-10.62,72.39-15.94,19.18-4.23,37-12,54.56-20.91l-11.63,3.05c1.61-3.58,3.91-6.72,4.37-10.12,1.55-11.3-5.25-15.95-15.93-19.33C374.24,2,370.24,1.87,366.58,1.3c4.48,2.73,9.22,4.79,12.76,8.12,2,1.83,3.07,6,2.51,8.76-1.26,6.17-4.79,11.6-10.74,14.25-8.44,3.76-16.94,8.61-25.85,9.83-23,3.15-46.19,5.52-69.38,6.44a446.27,446.27,0,0,0-83.35,11c-23,5.33-45,12.94-64.78,25.91-17.19,11.28-32.23,24.45-40.18,44.66A90.59,90.59,0,0,0,83.34,185.4Zm375.55-41,0-.49c-16.69,1-33.39,1.82-50.05,3.13-7.42.58-15,1.33-22.09,3.48-8.46,2.57-17.38,5.42-24.43,10.48-12.23,8.78-18.89,21.72-22.23,36.59-7.4,32.95,3.11,60.72,30,80.54,6.4,4.72,12.84,9.47,18.82,14.7,14.72,12.88,25.16,28.08,26.21,48.56.92,18.05-8.67,26.44-21.52,30.91-22.31,7.78-43.69,3.41-63.33-8.85-7.85-4.89-14.63-11.5-21.91-17.34.29.59.61,1.3,1,2,8.13,15.15,21.28,24.38,36.83,30.41,13.57,5.27,27.83,6.07,42.19,4.45,12-1.35,21.72-6.66,28.39-17,7.83-12.19,8.77-25.54,6.82-39.4s-10.61-23.74-20-33c-7.82-7.69-16.26-14.75-24-22.48S365.21,254,363.17,243c-5.13-27.67,4.47-50.41,25.66-68.25,13.78-11.59,30-18.92,47.08-24.3C443.45,148.06,451.22,146.41,458.89,144.43ZM133.45,257.49l1.79-1.08c-.92-1.65-1.71-3.39-2.78-5-8.83-12.81-11.88-27.37-12.15-42.53-.48-26.81,12.83-47.29,31.56-64.67,10.38-9.62,22.6-16.77,35.63-22.47,14.87-6.5,29.35-14.09,44.59-19.53,27.18-9.71,55-17.73,82.19-27.25,22.06-7.71,43.91-16.13,65.5-25.1,17.76-7.37,35-16,52.44-24.16,1.67-.78,3-2.29,4.5-3.46l-1.23-2.07c-4.52,2.09-9,4.27-13.57,6.26-25.87,11.31-52,21.87-79.3,29.41C323.42,61.2,304.07,66,284.8,71.07c-17.33,4.58-34.76,8.85-51.92,14-10.9,3.3-21.42,7.92-32,12.1-19.31,7.6-38.63,15.21-54.92,28.6-4.09,3.36-8.56,6.55-11.75,10.67-10.69,13.84-18.57,29-21.09,46.72-2.62,18.46-.58,36.25,7.25,53.07C123.8,243.75,129,250.44,133.45,257.49ZM584.18,81.87c2.2-14.25-4.87-22.5-16.74-28.08-10.62-5-22.13-5.95-33.18-5.13C516.77,50,499,52,482.17,56.52c-26.29,7.1-51.77,17-75.26,31.2A395.72,395.72,0,0,1,344.77,118c-28.31,11-56.71,21.73-84.92,33-8.06,3.2-15.6,7.69-23.38,11.6,4.93-.91,9.21-3.41,13.82-4.39q28-6,56.14-11.13c12.27-2.27,24.48-4.1,34.73-12.33,14.47-11.61,31.52-17.88,49.6-20.54,13.37-2,25.08-7.39,36.43-13.91,21-12.07,42-24.25,65-32.2,18.72-6.46,37.8-11,57.76-8C564.31,62.36,579.32,64.09,584.18,81.87ZM277.89,69.8c-.08-.38-.16-.75-.23-1.12-7.5,1.31-15,2.54-22.48,4-18.9,3.6-37.88,6.84-56.65,11a207.55,207.55,0,0,0-66.3,27.5c-16.19,10.26-29.59,22.76-37.5,40.77-8.32,18.94-11.76,38.42-5.32,58.2,3.32,10.23,9.68,19.53,15.18,29,2.59,4.44,6.4,8.17,9.91,12.54,1.3-1.73,2-2.68,2.69-3.56s1.72-1.91,2.5-2.76c-1-1.9-1.92-3.48-2.71-5.11-9.78-20.27-11.35-41.51-7.15-63.32,4.72-24.5,17.93-43.81,38.1-57.93,9.28-6.5,19.81-11.37,30.16-16.15C202.53,91.51,227.56,81.75,254,76,262.05,74.31,269.94,71.9,277.89,69.8ZM49.48,132.64l1,.43a9.78,9.78,0,0,0,1.19-1.89A88,88,0,0,1,81,90.64,175.72,175.72,0,0,1,129.14,64c23.1-8.56,47.45-11.46,71.74-13.59,31.26-2.74,62.64-4.17,94-6.11,12.86-.8,25.73-1.44,38.6-2.16-10.38-1.52-20.73-2.28-31.07-3-19.55-1.38-39.08-3.13-58.64-4-24-1.1-48-3.85-72.2-.38-25.85,3.69-49.82,12-71.23,26.58-19.66,13.37-33,32.62-44.08,53.34C53.24,120.25,51.69,126.62,49.48,132.64Zm407.1,18.47c8.42,3.79,13.68,9,15.88,16.49,6.09,20.66-13.24,42.34-27.64,44.42-11.47,1.66-23.07,2.54-34.64,3.36s-22,4.66-30.95,12.16c-6.55,5.51-9.41,17.4-6.27,25.55a14.89,14.89,0,0,0,1.31-2.21c5.65-14.55,18.76-22.85,34.57-21.41,15.22,1.38,30.4,3.33,45.62,4.72,12.82,1.17,23.57-3.26,31.16-13.76,3.27-4.52,5.6-9.77,8-14.85C504.76,182.14,488.81,149.19,456.58,151.11Zm-345,104c-2.39-2.55-5-4.88-7.11-7.66-11.29-15.16-20-31.39-24.14-50.23-3.51-16.13-5.42-32.07-2.4-48.35,2.51-13.54,7.08-26.59,15.41-37.49A119.39,119.39,0,0,1,139.38,75c2-.93,3.94-2.15,5.91-3.23a9,9,0,0,0-4.43,1c-1.56.57-3.18,1-4.73,1.56-28.71,10.69-52.22,27.11-64.77,56.55a111.74,111.74,0,0,0-9.23,40.55c-1,29.13,5.49,56.48,20.91,81.35,4.92,7.92,11,15.09,16.68,22.68Zm74-129.5.72.39a18.27,18.27,0,0,0-3,1.26c-8.12,5.18-16.86,9.62-24.18,15.76-22.3,18.71-38.18,41.15-35,72.14,2.2,21.21,10.24,40,28.74,52.3,12.2,8.14,25.51,13.43,40.75,10.22-.88-4.55-1.74-9.06-2.52-13.08-4.6-1.07-8.89-1.41-12.6-3.05-19.28-8.54-30.62-24-34.44-44.16-4.3-22.68,1.83-43.81,15.17-62.26C167,144.52,176.74,135.41,185.57,125.62Zm33.73,81.47c-3.84-6.85-5.85-13.66-3.5-20.91,4.16-12.81,12.88-22.27,24.39-28.48a286.93,286.93,0,0,1,38-17.38c32.74-11.9,65.31-24.18,96.69-39.39,9.54-4.63,18.83-9.8,28.23-14.72-11.75,3.32-23,7.66-34.42,11.46-20.93,6.94-42,13.58-62.95,20.32-20.35,6.54-41,12.18-61,19.83s-34,22.38-42.18,42.1c-4.84,11.62-2.45,27.1,7.42,35.51Zm272.28,77.45c-8.92,5.61-2.11,12.79-3.34,18.42,7.07-4.37,14.07-8.63,21-13S524,281.87,530,276.37c14.6-13.3,20.61-31.23,13.64-50.68-4.31-12-9.36-23.8-14.55-35.47-6.64-14.92-3.36-38.25,11.25-49.61,2.77-2.15,5.75-4,8.78-6.13-10.15,2.08-20.11,3.87-29.92,6.3-2.36.58-5.44,2.89-6.05,5-1.67,5.83-3.62,12.17-2.86,18a146.69,146.69,0,0,0,7.15,28.89c4.45,12.86,10.6,25.14,14.92,38,4.7,14.06,2.86,25.7-12.51,33.64-8.23,4.26-17,7.59-25.23,11.76-2.84,1.44-5.05,4.14-7.46,6.37-.29.28,0,1.22.1,2.09Zm-263.21,4c5.54-4.72,10.86-9.17,16.08-13.73a8.08,8.08,0,0,0,2.16-3.26c5.41-15.51,28.15-21,42.48-12.56,12.42,7.31,21.81,17.76,31.43,28.1,5,5.32,9.94,10.66,15.27,15.59a10.73,10.73,0,0,0,15.24-1c-12-6.61-32.51-23.11-41.48-33.94-6.89-8.33-13.53-17-16.39-27.67-2-7.47-7.46-10.62-14.17-12.23-9.27-2.23-18.08-.43-26.72,3.32C227.7,241.82,219.74,268.63,228.37,288.53ZM394.52,521.6c16.19,16.84,17.05,41.9-3.32,58-9.84,7.8-20.76,13.19-32,18-11.72,5-24.07,8.47-36.12,12.68-5.48,1.91-10.9,4-16.35,6a2.5,2.5,0,0,0,2.17.69c16.85-3.69,33.76-7.15,50.53-11.21a327.52,327.52,0,0,0,33.44-9.64c14.43-5.16,28.26-11.6,38.42-23.92,7.1-8.6,7.41-18,1.45-27.41C423.87,530.83,410.8,524.32,394.52,521.6Zm16.6-410c7.71,0,14.87-.38,22,.1,9.45.63,17.94-2.12,26.48-5.61,11.35-4.63,22.75-9.22,34.39-13,10-3.25,20.35-4.93,31-3.24,4.77.77,8.72,3,9.93,7.84s-.9,8.43-5.32,10.7c-.4.21-.61.79-1.51,2,7.63-1.93,13.5-5.32,17.76-10.33,9-10.56,6.15-21.12-6.87-25.69a55,55,0,0,0-17.52-3.06c-19.92-.12-38.84,5.34-56.76,13.34S429.26,102.34,411.12,111.57ZM368.31,243c1.42-3.56,2.39-7.3,4.28-10.5,8-13.45,21.18-17.89,35.61-19.65,9.52-1.16,19.15-1.48,28.7-2.49,14.1-1.49,23.15-10.16,29.41-22,6.92-13.11,1.53-28.42-11.09-32.77a34.42,34.42,0,0,0-28.14,3.27c15.49,2.91,20.68,15.63,12,28.95-5.77,8.84-14.4,11.41-24.2,12.48-16.2,1.77-32.69,3.19-42.63,19.12C367.68,226.7,365.11,234.31,368.31,243ZM222.19,298.33c3.71-3.38,4.08-6.54,2.65-10.95-6.27-19.29-2.23-36.54,12.4-50.6,14.24-13.66,36.54-19.11,53.69-8.95-.65-4.08,0-8.94-2.06-11-4.57-4.61-10.05-9.17-16-11.38-23.72-8.74-43.19,5.7-53.79,24.41a59.87,59.87,0,0,0-7.32,35.6A75.43,75.43,0,0,0,222.19,298.33ZM224,750.55c-2.94-4.7-5-8.49-7.54-12-6.46-9-6.91-18.81-2.86-28.43,9-21.44,24.49-36.87,45.9-46.16,6.66-2.89,13.4-5.62,20.1-8.42a172,172,0,0,0-20.44,4.29C236,665.93,214,674.46,196.07,691c-13.63,12.59-15.37,28.49-2.51,41.53C201.9,741,213,744.87,224,750.55Zm92.1-80.15c-18.87,6.14-38,11.68-53.25,25.45-14,12.6-19,32.28-12.17,48.48,3,7.22,9.56,10.31,15.32,14.43,12,8.56,36.29,13.17,48.87,9.78-5.5-1.74-12.12-3.35-18.35-5.9-15.16-6.21-26.26-18.83-26.34-36C270.07,706,281.84,692,297.86,681,303.64,677,310,673.91,316.1,670.4ZM469.47,146.21l-.17.89c1.74.7,3.47,1.45,5.23,2.08,17.79,6.32,25.5,20,26.67,37.79.67,10.16-3.05,19.35-7.66,28.47-7.36,14.55-22.59,24.08-38.93,22.5-7.93-.76-15.81-2.17-23.71-3.21-12.19-1.62-24.41-3.93-36.59-.3-2.89.86-5.45,2.84-8.36,4.4,8.05.52,15.4.41,22.54,1.58,14.89,2.43,29.64,5.68,44.49,8.34,10.12,1.81,20.1.64,29-4.5,18.65-10.73,28.61-27.34,28.44-48.7a73.16,73.16,0,0,0-6.06-29c-5.08-11.18-16.33-16.58-27.81-20.29C474.42,145.61,471.85,146.21,469.47,146.21ZM222.49,205c3.88-1,6.17-2.66,6.89-7.42.81-5.3,4.05-9.67,8.78-13.31,8.3-6.39,17.9-8.41,27.63-10.3,14.65-2.83,29.39-5.19,44-8,2.92-.57,6.48-1.77,8.18-3.91,3.54-4.47,6-9.77,8.74-14.37-15.26,2.63-31,4.87-46.5,8.19a352.45,352.45,0,0,0-37.34,10.25c-9.38,3.11-16.43,9.91-21.84,18.18C216.91,190.6,217.62,199.73,222.49,205ZM121.83,352.08c0-5-.12-9.09,0-13.21.11-3-1.08-5-2.75-7.46-2.78-4.13-5.35-9-6-13.88-1.41-11.27,2.4-21.5,8.58-31,1.29-2,1.59-4.8,1.7-7.27.36-7.42.46-14.86.53-22.29,0-2.34-.38-4.68-.59-7-19.45,18.53-28.66,40.15-25.24,66C100.15,331.23,106.85,344,121.83,352.08ZM217.51,150a9.58,9.58,0,0,0-1.34.68c-17,10.59-30,24.67-37,43.64-6.22,16.8-5.35,32.72,7.83,46.32,1.67,1.72,4.11,2.71,6,3.93,3.77-7.42,6.59-14.24,10.55-20.31,2.57-3.94,2.74-6.44,0-10.31-9.63-13.69-9.2-28.21-1.33-42.31C206.59,163.82,212.57,156.9,217.51,150Zm91.82,563.94c8.18-13.1,20.48-20.67,34.58-24.77,11.56-3.37,23.68-4.87,35.58-7C392,680,405,682,417,674.65c14.81-9.07,31.12-15.66,46.58-23.69,4.94-2.57,9.27-6.32,13.88-9.52-4.86,1.36-8.89,4-13.29,5.78-26,10.26-53.27,16.27-80.37,22.81-17.57,4.24-35.47,7.52-51.71,16.05C320.58,692.14,312.88,701.38,309.33,713.94ZM491.09,72.41c2.54-.63,5.07-1.36,7.64-1.88,14.66-3,29.29-4.34,43.68,1.33,10.94,4.31,15,16.48,8.49,26.21-2.28,3.41-5.39,6.25-8,9.18,5.18-.82,10.6-1.54,16-2.6a43.46,43.46,0,0,0,10-2.87c13.3-6.16,16-20.29,5.45-29.92-3.15-2.88-7.67-4.61-11.86-5.94C537.86,58.13,514.29,63.56,491.09,72.41ZM308.46,729.16l2,1.42c2.33-2.81,4.22-6.22,7.07-8.31,18.18-13.34,38.8-19.82,61.19-21.1a6.84,6.84,0,0,0,4-1.22c5.58-5.31,11-10.81,17.49-17.3-17.44,2.62-34.17,4.38-50.55,7.81-13.3,2.78-25.28,9.11-34.16,20C311.09,715.94,308.39,722.09,308.46,729.16ZM219.51,311c0-4,1-7.37-.16-9.51-9.11-16.47-12.44-33.93-9.3-52.4,3.1-18.24,12.23-32.81,28.39-42.4,3.28-1.95,7-3.15,11.78-5.27-25.59,3.08-40.21,14.28-51.13,40.76C189.8,264.68,202.34,294.43,219.51,311Zm30.79-39.56c1.45-.48,2.37-.77,3.28-1.08,9.4-3.25,19-4.88,28.83-2.56,11.73,2.77,18.27,12.14,25.14,20.84,6.06,7.67,11.33,16,17.61,23.45,9.32,11.11,23.86,12.46,32.26,3.31a11.42,11.42,0,0,0,2.48-7.11c0-3.54-3.09-4.74-6.1-2.84-6.86,4.32-15.64,3.78-21.48-2-9.06-9-17.79-18.29-26.62-27.49-7.41-7.74-15.62-14.18-26-17.53C271.07,255.63,252.17,261.4,250.3,271.41Zm-53.24,40.26c1.71-4.29,3.25-7.95,4.62-11.67a5,5,0,0,0,.27-3.26c-1.88-4.58-4-9.07-6.14-13.86-19.73,1.95-38-2.2-54.56-13.88,2,18.41,15.05,31.62,33.88,33.83C183.12,303.76,190.61,306,197.06,311.67Zm-69-53.58c-.29,4.54-.74,8.09-.71,11.65.08,9.28,1.81,18.15,7.32,25.91C142,306,152.89,310.71,164.59,314c9.7,2.77,19.77,4.78,27,13.07.74-2,1.12-3.85,2.06-5.35,2.28-3.63,1.35-6.47-2.12-8.26-4.65-2.4-9.34-5.26-14.35-6.3-19.1-4-35.14-13.46-37-37.87a3.34,3.34,0,0,0-1-2.13C135.82,264.34,132.37,261.58,128.07,258.09Zm277.44-89.55a43.68,43.68,0,0,1,5.23,1c6.48,2,8.48,10.12,3,14a64.14,64.14,0,0,1-16.2,8.2c-16.52,5.73-27,13.87-31.18,32.93,1-1.89,1.71-3,2.25-4.13,3.72-7.81,9.06-14.13,17.58-16.57a240.38,240.38,0,0,1,26.47-6.09c9.41-1.56,18.3-3.32,23.56-12.55,4.24-7.45,3.59-15.32-1.93-19.4C427.48,161,412.05,162.27,405.51,168.54Zm-183,224.94c-6.31-.4-10.27-4-13.61-8.54-6.15-8.39-8.32-18-8.53-28.16-.34-16.58,3.72-32.2,10.73-46.83l-7.43-10c-3.66,12.06-7.85,23.29-10.4,34.89-4.41,20-2.5,39.4,8.39,57.26,4.91,8,12.42,11.9,22.19,12.75C223.37,400.75,223,397.19,222.52,393.48ZM454.64,112.09c3.45.34,6.07.89,8.68.82,16.56-.43,33.12-.91,49.67-1.58,6-.24,11.79-1.33,16.39-6,4.47-4.49,4.46-7.91-1.22-10.9-2.81-1.47-6.46-2.67-9.45-2.2-11.41,1.77-23,3.4-34,6.77C474.73,102.09,465.36,107.33,454.64,112.09Zm66,191.59c-6.95,3-13.55,5.64-19.94,8.69-7.82,3.74-13.63,9-14.63,18.52-.59,5.61-2.62,11.08-4.05,16.77C512.29,339.33,524.08,322.41,520.67,303.68Zm-30.33-30.85c6.09-2.66,12.32-5.27,18.43-8.12a104.88,104.88,0,0,0,12.31-6.42c7.42-4.73,10.9-12.29,8.31-20.63-3.85-12.35-8.72-24.38-13.16-36.55l-1.33.38c-.82,4-1.3,8.13-2.53,12-1.35,4.28-.72,7.52,1.79,11.45,6.24,9.75,6.08,23.5-8.17,30a82.85,82.85,0,0,0-9.3,4.73,9.58,9.58,0,0,0-3.81,4.08A73.88,73.88,0,0,0,490.34,272.83ZM408.7,729.2c-16.51-13.24-11.54-29.61.25-38.81,7.92-6.19,16.63-11.39,25.12-16.82,7.77-5,15.72-9.67,23.59-14.49a339.8,339.8,0,0,0-35.75,16.15c-13.31,7-26.7,14.1-36.5,26.23-5.39,6.69-6,16.23-.57,20C391.66,726.25,399.35,728.48,408.7,729.2Zm-195.81-417c-.76,2-1.31,3.75-2,5.39-4.66,11.1-7.56,22.61-3.75,34.38a34.84,34.84,0,0,0,9,14.37c5,4.6,11.51,7.53,17.88,11.49-.6-7.35,1-14.66-6.59-19.56-2.38-1.53-3.65-5.09-4.93-7.94a56.87,56.87,0,0,1-4.94-28.67C217.91,317.31,216.58,314.78,212.89,312.21ZM373,314.3c2.55,11.88-2,20-11.09,25.26-8.74,5-18.2,5-27.62.67,2.74,3.35,5.22,6.88,8.53,9.22,4.24,3,8.91,6.3,13.82,7.24,11.83,2.27,25.66-9.79,26.16-21.91C383.15,326.79,380.84,319.9,373,314.3ZM315.13,172l-1.42-2.16c-10.85,3.36-22,6-32.45,10.31-8.69,3.59-9.67,11.79-3.39,18.73,4.05,4.47,8.37,8.7,13.2,13.69C294,195.25,303.24,182.82,315.13,172ZM365.06,309.3c-4.23,10.21-11.24,15.59-20.61,15.27-10-.34-17.44-6-24.22-12.94a74.2,74.2,0,0,0,4.45,13.2c8.47,17.44,28.63,20.23,41.61,5.92C371.29,325.24,370.65,314,365.06,309.3Zm6.17-104c3.29-3,5.36-5.8,8.13-7.27,6.69-3.58,13.78-6.4,20.56-9.82,4.08-2.06,8.33-4.16,11.7-7.15a4.88,4.88,0,0,0-2.74-8.63c-4.23-.24-9.57.12-12.65,2.51-7,5.41-13.21,12-19.12,18.6C374.52,196.49,373.45,200.75,371.23,205.34Zm-127,119.89c6.76-3.15,13.19-6.48,19.89-9.15,7.33-2.91,14.51-5.86,18.62-13.11a5.82,5.82,0,0,0,.19-4.76c-1.37-2.61-3.44-4.85-5.22-7.24l-1.67.85c-1,6.73-5.83,9.89-11.07,12.55-2.79,1.42-5.74,2.54-8.66,3.7C248.93,311,243.89,318.33,244.22,325.23ZM124.46,286.52C113.86,301,113,320.68,121.78,327.1c3.57-8.41,7.22-17,10.78-25.43C130,296.89,127.24,291.71,124.46,286.52Zm148-106-1.11-1.53c-9.22,4.28-18.51,8.39-27.57,13-2,1-3.11,3.68-4.64,5.59,12.12-.46,23.31-1.28,35.17,3.7C268.69,193.86,269.39,187.23,272.48,180.47Zm237.08,43.08Q501.79,232.75,494,242a2.09,2.09,0,0,0-.41,1.38c.25,3.83.56,7.67.85,11.54C513.84,248.91,519.87,236.15,509.56,223.55Zm-274,114.6,1.4.22c1.4-5,3.35-9.84,4.09-14.89,1.95-13.5,4.17-26.69,18.11-35C238.2,294.49,229.7,312.38,235.51,338.15Zm148.48-17c4.86,17.17,1.74,23.87-17.29,38.14,11.88,1,22.21-3.94,25.72-12.38C395.46,339.58,391.79,327.89,384,321.15ZM395.65,387q-3.16,19.56-6.32,39.14C400.35,426.45,405.61,406.72,395.65,387ZM222.5,388.45c-1.56-5.11-1.56-11.92-4.88-14.58-6.57-5.27-12.43-10.33-14.3-19-.95,10.53,2.47,21.95,8.61,29.44C214.35,387.27,217.1,390,222.5,388.45Zm49.94-97.71c-9.45-5.52-26.72,8.85-27.93,21.58,6-3.63,12.73-7.82,19.59-11.82C268,298.22,271.89,296.09,272.44,290.74ZM236.31,419.09c-.73-8.92-1.37-17.29-2.13-25.64-.61-6.68-2.55-12.6-10.15-15.62C228.06,391.79,224.27,407.55,236.31,419.09Zm274.37-277-25.06,3.25L505.4,158Zm-237.46,34.5-.12-.56c-2.52.36-5.05.74-7.58,1.06-10,1.28-19.54,4-27.61,10.44a17.61,17.61,0,0,0-6.69,13.42c3.87-.07,6-1.21,6.83-5.12a11,11,0,0,1,4.24-6.38,90.58,90.58,0,0,1,14.5-7.36C262.13,179.89,267.73,178.38,273.22,176.57Z"/><path d="M140.38,435.51l-7.28-4.7c-.14-.61-.36-1-.27-1.24,3.81-10.25,3.76-10.13-6.07-14.25a17.79,17.79,0,0,1-6.79-4.88c-1.21-1.5-2.09-4.79-1.26-6.18,8.51-14.28,10.52-29.17,7.3-45.55-1.77-9-1.1-18.52-.66-27.77.36-7.67,6.92-20.31,12-25.15,11.23,9.79,26,10.59,39.39,15.24A27.17,27.17,0,0,1,187,327.41a10.51,10.51,0,0,1,2.26,8.39c-4.95,20.74-2.46,40.31,8.42,58.64,5.42,9.13,13.55,14.33,24.36,15.19,1.53.12,3.11,1.57,4.36,2.74,3.67,3.43,7.2,7,10.74,10.58a9.83,9.83,0,0,1,2.3,3c4.38,11.13,8.21,22.51,13.14,33.39,2.84,6.24,7.46,11.67,11.21,17.5a13.05,13.05,0,0,1,2.16,4.25c3.22,16.95,12.12,30.7,23.78,43,2.37,2.49,4.52,5.2,7.83,7.2-2.08-3.52-4.08-7.1-6.27-10.55-4.79-7.55-10-14.86-14.4-22.6-2.26-3.93-3.3-8.57-5.39-14.26,7.94,5.57,14.66,10.22,21.3,15,11.9,8.55,25.32,8,38.28,4.74,5.77-1.46,10.64-7.13,15.5-11.36,6.13-5.35,11.83-11.2,17.76-16.78a23.5,23.5,0,0,1,3.3-2.14c.42,4.74.8,9,1.16,13.17,1.24,14.43,8.12,25.75,19,35,10.43,8.86,16.22,20,13.95,33.89-1.7,10.41-8.61,17.84-17.08,23.49a181.9,181.9,0,0,1-51,23.29c4.4-14.83,9.34-16.49,21.46-22.44,8.92-4.37,18.59-7.52,25.11-15.62a42.38,42.38,0,0,0,6.2-10.77C379,565.73,366.37,570.17,354.14,575s-21.27,12.59-25.4,25.51a7.91,7.91,0,0,1-4.39,4.35c-22.61,7.67-44.57,17-67.87,22.94-19.05,4.83-37.38,12.53-56.12,19,3.53-13.59,4.63-29,18.76-38.2,11.54-7.53,23.28-14.77,34.6-22.61a145.58,145.58,0,0,0,18.45-15c6.28-6.07,8.46-15,7.33-26.37,13.3,15.16,27.25,28.34,29.37,49.32a14.93,14.93,0,0,0,.7-3.48c-.51-16.06-8.94-28.54-18.7-40.27-11.27-13.54-23.16-26.58-34.13-40.35-5.64-7.08-9.94-15.23-14.73-23-5.42-8.74-10.42-17.75-16.15-26.28-5.2-7.76-11.29-9-19.68-4.87-9.53,4.7-18.8,10-28.55,14.11a27.58,27.58,0,0,1-14.4,2c-9.59-1.54-12.82-6.22-12.28-16.07.27-4.87-.43-8.06-5.77-9.82C140.23,444.29,139.59,441.81,140.38,435.51Zm7.24-59.2c3-2.47,5.6-5.14,8.67-7.07a41.59,41.59,0,0,0,15.86-18.31c-4.56,1.86-8.93,3.23-12.89,5.36-5.53,3-12.51,3.8-15.86,10.17-.17.33,0,.84,0,1.23l2.55-1.63C146.56,369.88,147.12,373.26,147.62,376.31Zm156.66,234c-3.68-6.05-7.91-8.25-13.81-6.86-8.68,2-17.26,4.55-25.78,7.21C259.3,612.37,254.16,615,248,613c1.66,1.68,3.49,3.28,5.41,3.4,2.74.18,5.58-.58,8.33-1.19C275.49,612.19,288.56,604.5,304.28,610.33ZM142,413.91l-.21-1.85-7.38.54.1,1.31Z"/><path d="M503.07,589.13c6.77-5.83,13.29-10.88,19.14-16.61,8.18-8,16-16.49,23.63-25a7.33,7.33,0,0,0,1.08-6.08C542.46,528.08,533.35,519,520.69,513c-15.61-7.34-30.93-6.18-46.18,1a4.46,4.46,0,0,1-2.21.53c11.62-11.35,25-17.22,41.68-14.66,26.24,4,43,19.83,54.65,42.65,3.34-2,2.86-4.63,1.18-7.48-15.92-27.08-39.48-39.85-70.92-37.85-.46,0-.92,0-1.65,0C524.49,483,556.56,484.7,580.43,525c3.15-1.67,2.27-3.7.72-6-7.95-11.54-17.45-21.32-30.3-27.53,14.76,2.85,26.53,11.09,37.3,21.13l1.44-1.07c-.85-1.49-1.4-3.31-2.61-4.4-13.21-11.89-28.4-19.68-46.32-21.18-35.57-3-62.49,12.41-83.82,39.92l-28.51-6.61c31.64-45.51,103.32-62.68,154.88-30C631.78,397,623.49,270.63,546.7,179.71c1,2,2,4,3.14,5.94,6.49,11,13.8,21.59,19.34,33,7.39,15.29,6.88,31.39-3.4,45a123.51,123.51,0,0,1-27.09,26.19c-10.15,7.16-22.31,11.47-33.6,17-5.43,2.67-10.89,5.31-17.81,8.68,1.65-3.32,2.24-6.82,4.28-8.23,10.05-7,20.15-14,30.85-19.91,16.31-9,30.1-29.65,27.58-51-1.73-14.68-7.64-27.86-14-40.83-6.59-13.49-9.31-26.79-2.66-41,4.36-9.32,12.09-14.82,20.82-19.2,1-.49,3.5.63,4.42,1.74,11.87,14.34,24.41,28.23,35.15,43.39,18.29,25.82,31.63,54.32,41,84.57,6.95,22.6,12.41,45.64,13.26,69.37.69,19.43,1.27,39-.16,58.33C645.36,426,637,458,624,488.68A322.2,322.2,0,0,1,579.31,564a318.71,318.71,0,0,1-70.66,65.79,15.38,15.38,0,0,0-6.67,8.77C496.3,657.65,482.71,670,466,679.35c-10,5.6-20.55,10.18-30.45,15.91-6.35,3.67-10.16,9.7-9.19,17.48.65,5.19,6.57,9.43,13,9.5,4.37.06,8.74-.52,13.11-.82.17.51.33,1,.49,1.52-5.35,1.69-10.6,4-16.09,4.91a82.46,82.46,0,0,1-19.15,1c-6.72-.48-12.24-3.6-15.08-10.49-3.23-7.81-1.68-14.62,3.37-21,6.83-8.58,16.25-13.75,25.75-18.49a185.77,185.77,0,0,0,49.8-36c12.69-12.86,19.58-28.26,21.76-45.94C503.72,594,503.16,591,503.07,589.13Zm92.93-90c31.38-64.48,41.21-131.52,25.58-201.66q-18.45-82.8-77.12-144.94c-3.28,7.17-2.61,12.4,2.22,18.39,10.32,12.79,20.34,26,29,39.88,21.72,34.81,34.76,72.9,39.86,113.61,7.08,56.42-1,110.54-25.1,162.16-3.12,6.68-3.1,6.69,2.93,11C594.06,498,594.79,498.36,596,499.09Zm-46.08,51.38c-1.29,1.38-2,2.24-2.87,3-10.57,10.58-20.73,21.62-31.89,31.52-5.86,5.21-10.69,9.58-7.18,18,.1.25.35.42,1.5,1.7,12.68-12,25-24.25,38-35.77C553.9,563.27,552.79,557.65,549.92,550.47Z"/><path d="M236.82,346.23c2-14.11,11.08-21.35,23.77-25.27,9.53-2.94,19.2-5.72,26.08-15,1.82,5,3.63,9.34,4.88,13.84a4.6,4.6,0,0,1-1.83,4c-6.86,3.53-14,6.55-20.86,10.05a151.18,151.18,0,0,0-14.9,8.65c-1.33.88-1.7,3.2-2.11,5.14,5.61-8.86,15-10.4,23.83-13,6.12-1.79,12.06-4.2,18.34-6.43a133.58,133.58,0,0,0,20.13,34.91c9.11,11.19,21.85,16.21,35.76,22-15.19,5.33-24.45,14.06-23,30.33.51-2.58,1-5.17,1.55-7.73,1.2-5.13,3.92-7.62,9-7.2,13.08,1.1,24.68-1.84,34.22-11.32a5,5,0,0,1,3.1-1.26c5.46-.12,10.93-.06,16.85-.06,0,4.08.18,8,0,11.9-.78,14.36-5.29,27.65-11.73,40.4a81.33,81.33,0,0,0-3.71,9.24c-4,11.08-11,19.92-19.64,27.72-6.67,6-13,12.43-19.7,18.39-9.23,8.2-24.43,10.06-34.83,3.28-11.78-7.69-23.43-15.8-34-25.07-5.47-4.82-9.07-12.2-12.28-19-4.46-9.43-7.43-19.56-11.63-29.14-5.63-12.84-6.07-26.45-7.07-40-.58-8-1.17-15.91-1.82-23.87a3.91,3.91,0,0,0-1-2.59c-10.35-7.25-12.15-18.76-12.83-29.64-1.48-23.32,7.8-41.86,28.89-53.16,10.41-5.57,21.83-7.6,33.27-3.59,4.16,1.45,7.87,4.85,11.17,8,12,11.47,18.36,26.24,24,41.46A70.74,70.74,0,0,0,348.93,359c9.3,5.65,33.49,7.7,42.35-3.83,2.68-3.48,5.27-8.22,5.25-12.37-.08-12.69-5.23-22.6-17.2-29.14-14.81-8.09-29.51-16.68-43.13-26.59-14.8-10.79-28-23.74-35.57-41-9.44-21.42-6.76-41.48,7.89-59.84a15,15,0,0,1,2.05-1.72c-.53,8.53-1.71,16.6-1.42,24.61,1.18,32.74,15.38,57.83,44.49,73.91,9.71,5.37,19.36,10.88,28.85,16.64a62.35,62.35,0,0,1,26.19,31.68c5.65,14.57-4.16,32.31-20,37.64-17.65,6-34.1,2.36-50.19-5-22.92-10.44-36.48-28.78-44.5-52.25-3.34-9.75-8.21-19.16-17.93-24.83-10.36-6-20.29-3.87-29.32,2.58-14.13,10.08-16.88,24.77-15.09,40.82.61,5.43,2.18,10.75,3.31,16.12Zm60.89,59.29c-2-8.14-4.55-14.16-11.56-17.24-9.87-4.34-20.35-4.36-31.62-5,1.45,2,2.38,3.32,3.36,4.61,5.9,7.77,14.51,9.4,23.4,10.06C287.25,398.38,292.61,399.81,297.71,405.52Zm-.57,57.92c4.2.61,9.7,1.46,15.22,2.18a22.33,22.33,0,0,0,5.93.25c6.1-.82,12.16-1.89,17.69-2.78-5.64-1.49-11.49-6.1-18.65-2.71a2.74,2.74,0,0,1-1.91-.18C307.79,456.92,302,462,297.14,463.44Zm9.3,11.24c9.1,5.85,16.73,5.36,20,0Zm17.44-39.93c5.22,5.84-3.2,9.38-2.3,14.28l9.34-2.28-.36-1.24-5,.43C329.16,441.42,328.78,437.86,323.88,434.75Zm-15.61,12.36,0-1.1-6.26-.48-.06,1.58Z"/><path d="M575.74,100.42a61.33,61.33,0,0,0,5.76-5.26c10.67-12.42,8.49-33.31-8.82-42.37-8.64-4.52-17.8-6.3-27.28-7.09-18.25-1.51-36.12,1.72-53.89,5.08-23.81,4.5-45.73,14.77-68.27,23.15C401,82.19,378.74,90.35,356.3,98q-28.49,9.66-57.42,17.93c-21.58,6.14-43.35,11.67-63.43,21.92C218.74,146.35,202,155.08,190,170.24c-10.8,13.63-18.29,28.8-17.65,46.58.51,14.07,7,25.26,19.95,32.82-.32,2.89-.69,6.31-1.09,10-11.09,1.55-18.91-4.6-25.94-11.36-17.63-17-21.8-37.62-15.71-60.9,5.79-22.12,18.59-40,35.93-53.84,11.66-9.34,25.43-16.22,38.77-23.22C245.68,99,269.07,92.87,292.08,85.81c38.16-11.7,75.18-26.29,111.57-42.67,24.2-10.89,48.72-21.25,73.73-30C495.82,6.63,515.56,6,535.11,7.83a165,165,0,0,1,24.08,3.64c20.87,5.18,39,15.47,52.71,32.2,6,7.35,6.43,16.62,3.8,26-3.57,12.73-13.13,19.6-23.82,25.34-4.88,2.62-10.28,4.27-15.44,6.37Z"/><path d="M188.57,57.33l-22.08,5.38c-25.81,6.3-51.27,14-71.79,31.64-22.77,19.56-34.24,45.24-35.8,75.27-.78,14.86-.24,29.67,3.28,44.14,2,8.2,5.21,16.1,8,24.09.92,2.61,2.23,5.08,2.55,8.05l-5.65-10.63C2.18,358.07,43.41,524.63,168.47,603.83c-6.63-11.46-11.78-23.06-10.82-36.57,1.67-23.4,18.43-40.25,41-40.87,11-.3,18.6,5.76,21.55,16.34C223.6,555,219,566,208.14,571.35c-5.49,2.7-9.19,2.48-14.92-1.18.92-.21,1.52-.56,1.95-.41,8.68,3,14.44-1.77,19.32-7.68,5.12-6.21,4.1-13.5,1.51-20.39-1.84-4.89-11.91-9.71-17.12-9-21.26,2.76-29.65,19.55-28.44,38.46.95,15,8,27.19,22.25,33.57,5.62,2.52,12.15,3,18.05,4.35L199.68,627.2c-4.7-2.36-10.1-4.8-15.24-7.7-60-33.9-103.89-82.25-130.39-146.12a293.5,293.5,0,0,1-.72-220.61,161.47,161.47,0,0,1,7.76-17.28c2.39-4.33,2.78-8.2.53-12.51-.9-1.72-1.53-3.59-2.71-6.39-3.41,6.77-6.64,12.67-9.41,18.77C32.59,272.62,23,311.69,21.59,352.63,20,398.12,29,441.63,47.06,483.36a301,301,0,0,0,57.23,87.17,294.69,294.69,0,0,0,77,58.79c4.69,2.5,9.4,5,14.23,7.17,2.47,1.12,2.58,2.52,2.56,5-.06,7.76-4.87,11.05-11.24,13a7,7,0,0,1-4.6-.81C160.67,643,140,630.79,121.91,614.94c-14.87-13-29.53-26.52-42.59-41.3C46.88,536.92,24.61,494.44,12,447A334.86,334.86,0,0,1,1.72,385.24c-3.6-49.28,3.57-96.92,22-142.62,6.92-17.21,16.51-33.33,24.7-50a14.16,14.16,0,0,0,1.47-7.45c-2.76-22.8-1.16-45,10.38-65.33A90.2,90.2,0,0,1,81.05,95.36c18.5-15.55,39.71-25.43,62.64-31.56,14.53-3.88,29.61-5.66,44.44-8.39Z"/><path d="M418.9,398.24c0,6.67.24,12.47,0,18.24-.71,14.3-6,26.47-17.48,35.49-5.42,4.23-11.59,5.61-18.32,4.83-3.71-.42-4.93-2.1-3.21-5.77,3-6.28,5.69-12.69,8.63-19.31,11-1.12,15.76-9,15.75-22.53a62,62,0,0,0-1.32-11.9c-.77-3.87-2.13-7.63-3.24-11.47,4.07-2.19,8.44-3.93,12.09-6.64,6.86-5.06,10.48-12.63,14-20.15,2.82-6.1,10.13-8.76,15.61-5,3.92,2.65,7.38,3.55,11.37.1l2.53,3.79c.47-.19,1-.32,1-.4a75.29,75.29,0,0,0-1.05-8.25c-.67-3-2.4-3.74-5.08-1.73-.79.6-2.46,1.19-3,.8-6.44-4.78-11.15.33-16.32,2.69a21.86,21.86,0,0,0-2.21,1.32c0-8.68.72-17.32-.16-25.79-1.63-15.69-11.5-26.87-22.39-37.19-4.92-4.67-10.1-9.08-15.16-13.6l.86-1.3c4.12,2.52,9,4.36,12.22,7.73,5.27,5.44,11.54,7.35,18.59,8.49,4.39.71,8.64,2.35,12.55,3.46-1.71-11.46-7.64-17.94-19.77-19.73-8.36-1.23-16.84-1.67-25.25-2.62-5.38-.61-13-9-12.85-14,.16-6.43,6.95-14,13.73-13.47a223,223,0,0,1,33.87,5c15.84,3.77,31.67,6.28,47.79,3.49,5.91-1,11.45-4.15,17.56-6.47,1.92,13.09-5.7,24.65-7.79,37.55-6,0-13-3.87-17.5,2.42-2.58,3.6-3.28,8.55-4.79,12.78,3.92-.75,6.68-1.95,9.26-1.63,6,.75,10.6-.31,12.26-7.36l1.78.63c0,10.1.56,20.22,0,30.28-1,17.23-9.21,32.09-16.7,47.14q-5.22,10.47-9.7,21.31c-6.44,15.62-22.57,15.38-33.29,10.74C422.3,399.58,420.93,399.06,418.9,398.24ZM458.45,326c.69,3.68,1.37,7.41-3.37,8.48-3.27.74-6.73.65-10.39.95,7.11,4,11.36,3.75,15-.59C462.32,331.66,462.13,328.7,458.45,326Zm-25,41c7.23,6.54,11.44,6.91,14.83,1.51Zm6.64-34.15.4-1.52-4.16-1.47-.61,1.71Z"/><path d="M386.46,297c-14.58-8.71-30.37-15.91-43.47-26.46C320.7,252.6,311.71,228,313.83,199.27A109.31,109.31,0,0,1,322,165c5.48-13.09,14.87-22.94,27-30.41a117.54,117.54,0,0,1,63.33-18c19.77.11,39.54,1.3,59.3,1.06a474.08,474.08,0,0,0,49.26-3c17.62-2.08,35.12-5.45,52.57-8.83,12.71-2.45,24.44-7.63,33.91-16.73,9.3-9,12.59-20.37,12.44-33.05,4.83,11.06,7.08,21.94.55,33.53-4.45,7.91-11.35,13-18.11,18.24-15.94,12.46-34.93,17.91-54.09,22.84-23.17,6-46.89,7.12-70.63,8.32-22.87,1.16-45.77,2.19-68.61,3.8-12.2.86-24.18,2.71-35.89,7.22-17.27,6.63-27.94,19.18-33.92,35.59-6.81,18.7-7.88,38-.78,57.17,5.9,15.89,16.61,28,29.81,38.24,6.36,4.93,12.6,10,18.89,15Z"/><path d="M184.24,727.41C175.07,719,166,710.5,160.19,699.24c-5.1-9.86-1.61-16.72,7.39-24.81C187,657,210.26,646.72,234.86,638.85c28.73-9.19,58.37-14.4,87.71-21,23.94-5.4,47.88-11.11,71.37-18.17,15.6-4.69,30-12.51,40.57-25.89,6.52-8.25,7.41-20.64,1.22-29.26-3-4.13-6.05-8.17-9.08-12.25l.69-1.1c7.79,5.63,15.63,11.21,23.35,17,1.7,1.27,2.85,3.25,4.45,4.71,13.61,12.41,9.81,28.61,1.33,39.4-9.51,12.09-23.21,17.29-36.83,21.56-30.07,9.42-60.44,18-90.9,26-23.1,6.11-46.57,10.82-69.83,16.35a159,159,0,0,0-57.64,26.18c-9.41,6.89-17.77,15.48-18.6,28.18C182.32,716,183.64,721.55,184.24,727.41Z"/><path d="M392.71,754.49c-4.57,1.15-9.12,2.38-13.71,3.45-18.33,4.26-36.74,8-55.71,7.06-14.23-.68-27.65-3.68-38.52-13.81-9.92-9.25-14.06-20.49-10.91-33.79,3.62-15.25,13.34-26.29,26.26-34.41,26.41-16.6,56.26-23.9,86.1-31.3,11.72-2.91,23-7.5,34.64-10.79s22.66-7.7,32.29-15c22.65-17.05,27.47-36.08,16.51-61.42-6.31-14.57-18.87-25.14-33.24-32.68C431,529,425.34,526.4,420,522.55c8.31,1.63,16.78,2.72,24.89,5a199,199,0,0,1,23.69,8.92c11.44,4.92,17.89,14.76,22.49,25.57,4.28,10,9.09,20.25,8,31.64-2.8,28.17-13.21,43.64-42.13,53.52-12.72,4.35-25.6,8.35-38.63,11.62-17.72,4.46-35.73,7.75-53.47,12.13-13.84,3.41-27.61,7.11-40,14.89-15.12,9.52-24.13,29.73-19.71,45.57,2,7.26,7.47,11.48,13.18,15.67,9.25,6.78,19.84,9,30.92,9.88a121.79,121.79,0,0,0,41.53-3.32,16,16,0,0,1,1.71-.24Z"/><path d="M468.37,571.25c6,14,3.43,30.91-7,42-11.13,11.82-24.85,18.78-40,23.19-26.43,7.69-52.84,15.55-79.54,22.18-19.37,4.81-38.5,10.05-56.82,18-15.59,6.72-29.43,16-37,31.82-7.16,15-7.44,30.21,2.71,44.38,1.68,2.34,4.23,4.07,7.33,7-15.43-2.34-27.4-8.19-36-20.18-5.31-7.41-9.32-15.48-6.69-24.65a67.8,67.8,0,0,1,14.71-26.33c15.5-17.61,36.16-26.08,57.7-32.73,19.68-6.07,39.63-11.21,59.47-16.74,24.63-6.88,49.46-13.09,73.8-20.88,12-3.84,24.29-8.35,33.75-17.59C463,592.65,469.25,583.65,468.37,571.25Z"/><path d="M83.34,185.4a90.59,90.59,0,0,1,4.23-55.1c8-20.21,23-33.38,40.18-44.66,19.76-13,41.78-20.58,64.78-25.91a446.27,446.27,0,0,1,83.35-11c23.19-.92,46.39-3.29,69.38-6.44,8.91-1.22,17.41-6.07,25.85-9.83,5.95-2.65,9.48-8.08,10.74-14.25.56-2.72-.56-6.93-2.51-8.76C375.8,6.09,371.06,4,366.58,1.3c3.66.57,7.66.68,11.32,1.84,10.68,3.38,17.48,8,15.93,19.33-.46,3.4-2.76,6.54-4.37,10.12l11.63-3.05c-17.52,8.91-35.38,16.68-54.56,20.91-24.13,5.32-48.16,11.15-72.39,15.94-18.07,3.56-36.46,5.52-54.6,8.73-21.45,3.79-42.63,8.82-62.46,18.15-18.4,8.66-36.31,18.41-50.05,33.76a89.53,89.53,0,0,0-23.27,56.55A10.87,10.87,0,0,1,83.34,185.4Z"/><path d="M458.89,144.43c-7.67,2-15.44,3.63-23,6-17.07,5.38-33.3,12.71-47.08,24.3C367.64,192.58,358,215.32,363.17,243c2,11,8.39,20.24,16.28,28.08s16.22,14.79,24,22.48c9.43,9.27,18.08,19.15,20,33s1,27.21-6.82,39.4c-6.67,10.37-16.41,15.68-28.39,17-14.36,1.62-28.62.82-42.19-4.45-15.55-6-28.7-15.26-36.83-30.41-.37-.69-.69-1.4-1-2,7.28,5.84,14.06,12.45,21.91,17.34,19.64,12.26,41,16.63,63.33,8.85,12.85-4.47,22.44-12.86,21.52-30.91-1.05-20.48-11.49-35.68-26.21-48.56-6-5.23-12.42-10-18.82-14.7-26.87-19.82-37.38-47.59-30-80.54,3.34-14.87,10-27.81,22.23-36.59,7.05-5.06,16-7.91,24.43-10.48,7.07-2.15,14.67-2.9,22.09-3.48,16.66-1.31,33.36-2.12,50.05-3.13Z"/><path d="M133.45,257.49c-4.43-7.05-9.65-13.74-13.13-21.23-7.83-16.82-9.87-34.61-7.25-53.07,2.52-17.7,10.4-32.88,21.09-46.72,3.19-4.12,7.66-7.31,11.75-10.67,16.29-13.39,35.61-21,54.92-28.6,10.63-4.18,21.15-8.8,32-12.1,17.16-5.18,34.59-9.45,51.92-14,19.27-5.09,38.62-9.87,57.82-15.18,27.26-7.54,53.43-18.1,79.3-29.41,4.57-2,9.05-4.17,13.57-6.26l1.23,2.07c-1.49,1.17-2.83,2.68-4.5,3.46-17.43,8.17-34.68,16.79-52.44,24.16-21.59,9-43.44,17.39-65.5,25.1-27.24,9.52-55,17.54-82.19,27.25-15.24,5.44-29.72,13-44.59,19.53-13,5.7-25.25,12.85-35.63,22.47-18.73,17.38-32,37.86-31.56,64.67.27,15.16,3.32,29.72,12.15,42.53,1.07,1.56,1.86,3.3,2.78,5Z"/><path d="M584.18,81.87C579.32,64.09,564.31,62.36,550,60.14c-20-3.09-39,1.49-57.76,8-23.05,8-44,20.13-65,32.2-11.35,6.52-23.06,11.95-36.43,13.91-18.08,2.66-35.13,8.93-49.6,20.54-10.25,8.23-22.46,10.06-34.73,12.33q-28.14,5.2-56.14,11.13c-4.61,1-8.89,3.48-13.82,4.39,7.78-3.91,15.32-8.4,23.38-11.6,28.21-11.23,56.61-22,84.92-33a395.72,395.72,0,0,0,62.14-30.31c23.49-14.22,49-24.1,75.26-31.2C499,52,516.77,50,534.26,48.66c11-.82,22.56.15,33.18,5.13C579.31,59.37,586.38,67.62,584.18,81.87Z"/><path d="M277.89,69.8C269.94,71.9,262.05,74.31,254,76c-26.46,5.71-51.49,15.47-75.93,26.77-10.35,4.78-20.88,9.65-30.16,16.15-20.17,14.12-33.38,33.43-38.1,57.93-4.2,21.81-2.63,43.05,7.15,63.32.79,1.63,1.7,3.21,2.71,5.11-.78.85-1.67,1.78-2.5,2.76s-1.39,1.83-2.69,3.56c-3.51-4.37-7.32-8.1-9.91-12.54-5.5-9.43-11.86-18.73-15.18-29-6.44-19.78-3-39.26,5.32-58.2,7.91-18,21.31-30.51,37.5-40.77a207.55,207.55,0,0,1,66.3-27.5c18.77-4.19,37.75-7.43,56.65-11,7.47-1.42,15-2.65,22.48-4C277.73,69.05,277.81,69.42,277.89,69.8Z"/><path d="M49.48,132.64c2.21-6,3.76-12.39,6.75-18,11.06-20.72,24.42-40,44.08-53.34,21.41-14.55,45.38-22.89,71.23-26.58,24.2-3.47,48.16-.72,72.2.38,19.56.89,39.09,2.64,58.64,4,10.34.73,20.69,1.49,31.07,3-12.87.72-25.74,1.36-38.6,2.16-31.33,1.94-62.71,3.37-94,6.11-24.29,2.13-48.64,5-71.74,13.59A175.72,175.72,0,0,0,81,90.64a88,88,0,0,0-29.32,40.54,9.78,9.78,0,0,1-1.19,1.89Z"/><path d="M456.58,151.11c32.23-1.92,48.18,31,37.06,54.47-2.42,5.08-4.75,10.33-8,14.85-7.59,10.5-18.34,14.93-31.16,13.76-15.22-1.39-30.4-3.34-45.62-4.72-15.81-1.44-28.92,6.86-34.57,21.41a14.89,14.89,0,0,1-1.31,2.21c-3.14-8.15-.28-20,6.27-25.55,8.91-7.5,19.28-11.34,30.95-12.16s23.17-1.7,34.64-3.36c14.4-2.08,33.73-23.76,27.64-44.42C470.26,160.12,465,154.9,456.58,151.11Z"/><path d="M111.57,255.12,99.72,275.38C94.09,267.79,88,260.62,83,252.7c-15.42-24.87-21.87-52.22-20.91-81.35a111.74,111.74,0,0,1,9.23-40.55c12.55-29.44,36.06-45.86,64.77-56.55,1.55-.58,3.17-1,4.73-1.56a9,9,0,0,1,4.43-1c-2,1.08-3.87,2.3-5.91,3.23a119.39,119.39,0,0,0-46,36.42c-8.33,10.9-12.9,24-15.41,37.49-3,16.28-1.11,32.22,2.4,48.35,4.1,18.84,12.85,35.07,24.14,50.23C106.52,250.24,109.18,252.57,111.57,255.12Z"/><path d="M185.57,125.62c-8.83,9.79-18.61,18.9-26.29,29.52-13.34,18.45-19.47,39.58-15.17,62.26,3.82,20.16,15.16,35.62,34.44,44.16,3.71,1.64,8,2,12.6,3.05.78,4,1.64,8.53,2.52,13.08-15.24,3.21-28.55-2.08-40.75-10.22-18.5-12.33-26.54-31.09-28.74-52.3-3.22-31,12.66-53.43,35-72.14,7.32-6.14,16.06-10.58,24.18-15.76a18.27,18.27,0,0,1,3-1.26Z"/><path d="M219.3,207.09,210,215.43c-9.87-8.41-12.26-23.89-7.42-35.51,8.23-19.72,22.32-34.48,42.18-42.1s40.61-13.29,61-19.83c21-6.74,42-13.38,62.95-20.32,11.43-3.8,22.67-8.14,34.42-11.46-9.4,4.92-18.69,10.09-28.23,14.72-31.38,15.21-63.95,27.49-96.69,39.39a286.93,286.93,0,0,0-38,17.38c-11.51,6.21-20.23,15.67-24.39,28.48C213.45,193.43,215.46,200.24,219.3,207.09Z"/><path d="M491.58,284.54h-4.33c-.06-.87-.39-1.81-.1-2.09,2.41-2.23,4.62-4.93,7.46-6.37,8.28-4.17,17-7.5,25.23-11.76,15.37-7.94,17.21-19.58,12.51-33.64-4.32-12.89-10.47-25.17-14.92-38a146.69,146.69,0,0,1-7.15-28.89c-.76-5.79,1.19-12.13,2.86-18,.61-2.13,3.69-4.44,6.05-5,9.81-2.43,19.77-4.22,29.92-6.3-3,2.1-6,4-8.78,6.13-14.61,11.36-17.89,34.69-11.25,49.61,5.19,11.67,10.24,23.45,14.55,35.47,7,19.45,1,37.38-13.64,50.68-6,5.5-13.75,9.18-20.76,13.59s-13.92,8.63-21,13C489.47,297.33,482.66,290.15,491.58,284.54Z"/><path d="M228.37,288.53c-8.63-19.9-.67-46.71,23.9-57.38,8.64-3.75,17.45-5.55,26.72-3.32,6.71,1.61,12.17,4.76,14.17,12.23,2.86,10.7,9.5,19.34,16.39,27.67,9,10.83,29.52,27.33,41.48,33.94a10.73,10.73,0,0,1-15.24,1c-5.33-4.93-10.31-10.27-15.27-15.59-9.62-10.34-19-20.79-31.43-28.1-14.33-8.44-37.07-3-42.48,12.56a8.08,8.08,0,0,1-2.16,3.26C239.23,279.36,233.91,283.81,228.37,288.53Z"/><path d="M394.52,521.6c16.28,2.72,29.35,9.23,38.22,23.15,6,9.36,5.65,18.81-1.45,27.41-10.16,12.32-24,18.76-38.42,23.92a327.52,327.52,0,0,1-33.44,9.64c-16.77,4.06-33.68,7.52-50.53,11.21a2.5,2.5,0,0,1-2.17-.69c5.45-2,10.87-4,16.35-6,12.05-4.21,24.4-7.7,36.12-12.68,11.24-4.77,22.16-10.16,32-18C411.57,563.5,410.71,538.44,394.52,521.6Z"/><path d="M411.12,111.57c18.14-9.23,35.45-18.93,53.5-27s36.84-13.46,56.76-13.34a55,55,0,0,1,17.52,3.06c13,4.57,15.86,15.13,6.87,25.69-4.26,5-10.13,8.4-17.76,10.33.9-1.21,1.11-1.79,1.51-2,4.42-2.27,6.49-6,5.32-10.7s-5.16-7.07-9.93-7.84c-10.61-1.69-21,0-31,3.24-11.64,3.81-23,8.4-34.39,13-8.54,3.49-17,6.24-26.48,5.61C426,111.19,418.83,111.57,411.12,111.57Z"/><path d="M368.31,243c-3.2-8.66-.63-16.27,3.94-23.61,9.94-15.93,26.43-17.35,42.63-19.12,9.8-1.07,18.43-3.64,24.2-12.48,8.68-13.32,3.49-26-12-28.95a34.42,34.42,0,0,1,28.14-3.27c12.62,4.35,18,19.66,11.09,32.77-6.26,11.86-15.31,20.53-29.41,22-9.55,1-19.18,1.33-28.7,2.49-14.43,1.76-27.64,6.2-35.61,19.65C370.7,235.67,369.73,239.41,368.31,243Z"/><path d="M222.19,298.33a75.43,75.43,0,0,1-10.46-32.91,59.87,59.87,0,0,1,7.32-35.6c10.6-18.71,30.07-33.15,53.79-24.41,6,2.21,11.46,6.77,16,11.38,2.09,2.1,1.41,7,2.06,11-17.15-10.16-39.45-4.71-53.69,8.95-14.63,14.06-18.67,31.31-12.4,50.6C226.27,291.79,225.9,295,222.19,298.33Z"/><path d="M224,750.55c-11-5.68-22.1-9.52-30.44-18-12.86-13-11.12-28.94,2.51-41.53C214,674.46,236,665.93,259.16,659.85a172,172,0,0,1,20.44-4.29c-6.7,2.8-13.44,5.53-20.1,8.42-21.41,9.29-36.87,24.72-45.9,46.16-4,9.62-3.6,19.46,2.86,28.43C219,742.06,221.06,745.85,224,750.55Z"/><path d="M316.1,670.4C310,673.91,303.64,677,297.86,681c-16,11-27.79,25-27.68,45.65.08,17.16,11.18,29.78,26.34,36,6.23,2.55,12.85,4.16,18.35,5.9-12.58,3.39-36.91-1.22-48.87-9.78-5.76-4.12-12.3-7.21-15.32-14.43-6.79-16.2-1.8-35.88,12.17-48.48C278.12,682.08,297.23,676.54,316.1,670.4Z"/><path d="M469.47,146.21c2.38,0,4.95-.6,7.1.1,11.48,3.71,22.73,9.11,27.81,20.29a73.16,73.16,0,0,1,6.06,29c.17,21.36-9.79,38-28.44,48.7-8.92,5.14-18.9,6.31-29,4.5-14.85-2.66-29.6-5.91-44.49-8.34-7.14-1.17-14.49-1.06-22.54-1.58,2.91-1.56,5.47-3.54,8.36-4.4,12.18-3.63,24.4-1.32,36.59.3,7.9,1,15.78,2.45,23.71,3.21,16.34,1.58,31.57-7.95,38.93-22.5,4.61-9.12,8.33-18.31,7.66-28.47-1.17-17.81-8.88-31.47-26.67-37.79-1.76-.63-3.49-1.38-5.23-2.08Z"/><path d="M222.49,205c-4.87-5.25-5.58-14.38-1.43-20.73,5.41-8.27,12.46-15.07,21.84-18.18a352.45,352.45,0,0,1,37.34-10.25c15.5-3.32,31.24-5.56,46.5-8.19-2.71,4.6-5.2,9.9-8.74,14.37-1.7,2.14-5.26,3.34-8.18,3.91-14.64,2.85-29.38,5.21-44,8-9.73,1.89-19.33,3.91-27.63,10.3-4.73,3.64-8,8-8.78,13.31C228.66,202.32,226.37,204,222.49,205Z"/><path d="M121.83,352.08c-15-8.09-21.68-20.85-23.69-36.1-3.42-25.86,5.79-47.48,25.24-66,.21,2.34.61,4.68.59,7-.07,7.43-.17,14.87-.53,22.29-.11,2.47-.41,5.3-1.7,7.27-6.18,9.48-10,19.71-8.58,31,.61,4.84,3.18,9.75,6,13.88,1.67,2.48,2.86,4.49,2.75,7.46C121.71,343,121.83,347.12,121.83,352.08Z"/><path d="M217.51,150c-4.94,6.9-10.92,13.82-15.29,21.64-7.87,14.1-8.3,28.62,1.33,42.31,2.72,3.87,2.55,6.37,0,10.31-4,6.07-6.78,12.89-10.55,20.31-1.92-1.22-4.36-2.21-6-3.93-13.18-13.6-14-29.52-7.83-46.32,7-19,20-33,37-43.64A9.58,9.58,0,0,1,217.51,150Z"/><path d="M309.33,713.94c3.55-12.56,11.25-21.8,22.77-27.86,16.24-8.53,34.14-11.81,51.71-16.05,27.1-6.54,54.34-12.55,80.37-22.81,4.4-1.73,8.43-4.42,13.29-5.78-4.61,3.2-8.94,6.95-13.88,9.52-15.46,8-31.77,14.62-46.58,23.69C405,682,392,680,379.49,682.18c-11.9,2.12-24,3.62-35.58,7C329.81,693.27,317.51,700.84,309.33,713.94Z"/><path d="M491.09,72.41c23.2-8.85,46.77-14.28,71.35-6.49,4.19,1.33,8.71,3.06,11.86,5.94,10.55,9.63,7.85,23.76-5.45,29.92a43.46,43.46,0,0,1-10,2.87c-5.36,1.06-10.78,1.78-16,2.6,2.58-2.93,5.69-5.77,8-9.18,6.5-9.73,2.45-21.9-8.49-26.21-14.39-5.67-29-4.31-43.68-1.33C496.16,71.05,493.63,71.78,491.09,72.41Z"/><path d="M308.46,729.16c-.07-7.07,2.63-13.22,7.08-18.69,8.88-10.9,20.86-17.23,34.16-20,16.38-3.43,33.11-5.19,50.55-7.81-6.52,6.49-11.91,12-17.49,17.3a6.84,6.84,0,0,1-4,1.22c-22.39,1.28-43,7.76-61.19,21.1-2.85,2.09-4.74,5.5-7.07,8.31Z"/><path d="M219.51,311c-17.17-16.54-29.71-46.29-20.42-68.82,10.92-26.48,25.54-37.68,51.13-40.76-4.79,2.12-8.5,3.32-11.78,5.27-16.16,9.59-25.29,24.16-28.39,42.4-3.14,18.47.19,35.93,9.3,52.4C220.54,303.6,219.51,307,219.51,311Z"/><path d="M250.3,271.41c1.87-10,20.77-15.78,29.36-13,10.42,3.35,18.63,9.79,26,17.53,8.83,9.2,17.56,18.52,26.62,27.49,5.84,5.79,14.62,6.33,21.48,2,3-1.9,6.11-.7,6.1,2.84a11.42,11.42,0,0,1-2.48,7.11c-8.4,9.15-22.94,7.8-32.26-3.31-6.28-7.47-11.55-15.78-17.61-23.45-6.87-8.7-13.41-18.07-25.14-20.84-9.83-2.32-19.43-.69-28.83,2.56C252.67,270.64,251.75,270.93,250.3,271.41Z"/><path d="M197.06,311.67c-6.45-5.72-13.94-7.91-21.93-8.84-18.83-2.21-31.89-15.42-33.88-33.83,16.56,11.68,34.83,15.83,54.56,13.88,2.15,4.79,4.26,9.28,6.14,13.86a5,5,0,0,1-.27,3.26C200.31,303.72,198.77,307.38,197.06,311.67Z"/><path d="M128.07,258.09c4.3,3.49,7.75,6.25,11.11,9.11a3.34,3.34,0,0,1,1,2.13c1.83,24.41,17.87,33.87,37,37.87,5,1,9.7,3.9,14.35,6.3,3.47,1.79,4.4,4.63,2.12,8.26-.94,1.5-1.32,3.36-2.06,5.35-7.23-8.29-17.3-10.3-27-13.07-11.7-3.33-22.55-8-29.91-18.39-5.51-7.76-7.24-16.63-7.32-25.91C127.33,266.18,127.78,262.63,128.07,258.09Z"/><path d="M405.51,168.54c6.54-6.27,22-7.59,28.77-2.58,5.52,4.08,6.17,11.95,1.93,19.4-5.26,9.23-14.15,11-23.56,12.55A240.38,240.38,0,0,0,386.18,204c-8.52,2.44-13.86,8.76-17.58,16.57-.54,1.15-1.21,2.24-2.25,4.13,4.16-19.06,14.66-27.2,31.18-32.93a64.14,64.14,0,0,0,16.2-8.2c5.49-3.93,3.49-12-3-14A43.68,43.68,0,0,0,405.51,168.54Z"/><path d="M222.52,393.48c.44,3.71.85,7.27,1.34,11.41-9.77-.85-17.28-4.71-22.19-12.75-10.89-17.86-12.8-37.3-8.39-57.26,2.55-11.6,6.74-22.83,10.4-34.89l7.43,10c-7,14.63-11.07,30.25-10.73,46.83.21,10.15,2.38,19.77,8.53,28.16C212.25,389.5,216.21,393.08,222.52,393.48Z"/><path d="M454.64,112.09c10.72-4.76,20.09-10,30.12-13.06,11-3.37,22.54-5,34-6.77,3-.47,6.64.73,9.45,2.2,5.68,3,5.69,6.41,1.22,10.9-4.6,4.64-10.38,5.73-16.39,6-16.55.67-33.11,1.15-49.67,1.58C460.71,113,458.09,112.43,454.64,112.09Z"/><path d="M520.67,303.68c3.41,18.73-8.38,35.65-38.62,44,1.43-5.69,3.46-11.16,4.05-16.77,1-9.52,6.81-14.78,14.63-18.52C507.12,309.32,513.72,306.69,520.67,303.68Z"/><path d="M490.34,272.83a73.88,73.88,0,0,1,2.54-9.09,9.58,9.58,0,0,1,3.81-4.08,82.85,82.85,0,0,1,9.3-4.73c14.25-6.48,14.41-20.23,8.17-30-2.51-3.93-3.14-7.17-1.79-11.45,1.23-3.88,1.71-8,2.53-12l1.33-.38c4.44,12.17,9.31,24.2,13.16,36.55,2.59,8.34-.89,15.9-8.31,20.63a104.88,104.88,0,0,1-12.31,6.42C502.66,267.56,496.43,270.17,490.34,272.83Z"/><path d="M408.7,729.2c-9.35-.72-17-3-23.86-7.7-5.46-3.81-4.82-13.35.57-20,9.8-12.13,23.19-19.18,36.5-26.23a339.8,339.8,0,0,1,35.75-16.15c-7.87,4.82-15.82,9.51-23.59,14.49-8.49,5.43-17.2,10.63-25.12,16.82C397.16,699.59,392.19,716,408.7,729.2Z"/><path d="M212.89,312.21c3.69,2.57,5,5.1,4.62,9.46a56.87,56.87,0,0,0,4.94,28.67c1.28,2.85,2.55,6.41,4.93,7.94,7.62,4.9,6,12.21,6.59,19.56-6.37-4-12.9-6.89-17.88-11.49a34.84,34.84,0,0,1-9-14.37c-3.81-11.77-.91-23.28,3.75-34.38C211.58,316,212.13,314.25,212.89,312.21Z"/><path d="M373,314.3c7.83,5.6,10.14,12.49,9.8,20.48-.5,12.12-14.33,24.18-26.16,21.91-4.91-.94-9.58-4.24-13.82-7.24-3.31-2.34-5.79-5.87-8.53-9.22,9.42,4.37,18.88,4.37,27.62-.67C371,334.33,375.56,326.18,373,314.3Z"/><path d="M315.13,172c-11.89,10.87-21.11,23.3-24.06,40.57-4.83-5-9.15-9.22-13.2-13.69-6.28-6.94-5.3-15.14,3.39-18.73,10.45-4.33,21.6-6.95,32.45-10.31Z"/><path d="M365.06,309.3c5.59,4.68,6.23,15.94,1.23,21.45-13,14.31-33.14,11.52-41.61-5.92a74.2,74.2,0,0,1-4.45-13.2c6.78,7,14.18,12.6,24.22,12.94C353.82,324.89,360.83,319.51,365.06,309.3Z"/><path d="M371.23,205.34c2.22-4.59,3.29-8.85,5.88-11.76,5.91-6.64,12.12-13.19,19.12-18.6,3.08-2.39,8.42-2.75,12.65-2.51a4.88,4.88,0,0,1,2.74,8.63c-3.37,3-7.62,5.09-11.7,7.15-6.78,3.42-13.87,6.24-20.56,9.82C376.59,199.54,374.52,202.32,371.23,205.34Z"/><path d="M244.22,325.23c-.33-6.9,4.71-14.22,12.08-17.16,2.92-1.16,5.87-2.28,8.66-3.7,5.24-2.66,10.08-5.82,11.07-12.55l1.67-.85c1.78,2.39,3.85,4.63,5.22,7.24a5.82,5.82,0,0,1-.19,4.76c-4.11,7.25-11.29,10.2-18.62,13.11C257.41,318.75,251,322.08,244.22,325.23Z"/><path d="M124.46,286.52c2.78,5.19,5.55,10.37,8.1,15.15-3.56,8.42-7.21,17-10.78,25.43C113,320.68,113.86,301,124.46,286.52Z"/><path d="M272.48,180.47c-3.09,6.76-3.79,13.39,1.85,20.73-11.86-5-23-4.16-35.17-3.7,1.53-1.91,2.66-4.58,4.64-5.59,9.06-4.58,18.35-8.69,27.57-13Z"/><path d="M509.56,223.55c10.31,12.6,4.28,25.36-15.09,31.35-.29-3.87-.6-7.71-.85-11.54A2.09,2.09,0,0,1,494,242Q501.77,232.74,509.56,223.55Z"/><path d="M235.51,338.15c-5.81-25.77,2.69-43.66,23.6-49.62C245.17,296.79,243,310,241,323.48c-.74,5-2.69,9.93-4.09,14.89Z"/><path d="M384,321.15c7.8,6.74,11.47,18.43,8.43,25.76-3.51,8.44-13.84,13.41-25.72,12.38C385.73,345,388.85,338.32,384,321.15Z"/><path d="M395.65,387c10,19.71,4.7,39.44-6.32,39.14Q392.5,406.56,395.65,387Z"/><path d="M222.5,388.45c-5.4,1.5-8.15-1.18-10.57-4.12-6.14-7.49-9.56-18.91-8.61-29.44,1.87,8.65,7.73,13.71,14.3,19C220.94,376.53,220.94,383.34,222.5,388.45Z"/><path d="M272.44,290.74c-.55,5.35-4.45,7.48-8.34,9.76-6.86,4-13.61,8.19-19.59,11.82C245.72,299.59,263,285.22,272.44,290.74Z"/><path d="M236.31,419.09c-12-11.54-8.25-27.3-12.28-41.26,7.6,3,9.54,8.94,10.15,15.62C234.94,401.8,235.58,410.17,236.31,419.09Z"/><path d="M510.68,142.07l-5.28,16-19.78-12.71Z"/><path d="M273.22,176.57c-5.49,1.81-11.09,3.32-16.43,5.5a90.58,90.58,0,0,0-14.5,7.36,11,11,0,0,0-4.24,6.38c-.84,3.91-3,5.05-6.83,5.12a17.61,17.61,0,0,1,6.69-13.42c8.07-6.47,17.57-9.16,27.61-10.44,2.53-.32,5.06-.7,7.58-1.06Z"/><path class="cls-1" d="M147.62,376.31c-.5-3.05-1.06-6.43-1.69-10.25l-2.55,1.63c0-.39-.15-.9,0-1.23,3.35-6.37,10.33-7.2,15.86-10.17,4-2.13,8.33-3.5,12.89-5.36a41.59,41.59,0,0,1-15.86,18.31C153.22,371.17,150.61,373.84,147.62,376.31Z"/><path class="cls-1" d="M304.28,610.33c-15.72-5.83-28.79,1.86-42.51,4.9-2.75.61-5.59,1.37-8.33,1.19-1.92-.12-3.75-1.72-5.41-3.4,6.13,2,11.27-.65,16.66-2.34,8.52-2.66,17.1-5.16,25.78-7.21C296.37,602.08,300.6,604.28,304.28,610.33Z"/><path class="cls-1" d="M142,413.91h-7.49l-.1-1.31,7.38-.54Z"/><path class="cls-1" d="M596,499.09c-1.21-.73-1.94-1.11-2.61-1.59-6-4.28-6-4.29-2.93-11,24.06-51.62,32.18-105.74,25.1-162.16-5.1-40.71-18.14-78.8-39.86-113.61-8.68-13.92-18.7-27.09-29-39.88-4.83-6-5.5-11.22-2.22-18.39q58.63,62.3,77.12,144.94C637.21,367.57,627.38,434.61,596,499.09Z"/><path class="cls-1" d="M549.92,550.47c2.87,7.18,4,12.8-2.4,18.46-13,11.52-25.36,23.77-38,35.77-1.15-1.28-1.4-1.45-1.5-1.7-3.51-8.38,1.32-12.75,7.18-18,11.16-9.9,21.32-20.94,31.89-31.52C547.87,552.71,548.63,551.85,549.92,550.47Z"/><path class="cls-1" d="M297.71,405.52c-5.1-5.71-10.46-7.14-16.42-7.59-8.89-.66-17.5-2.29-23.4-10.06-1-1.29-1.91-2.62-3.36-4.61,11.27.66,21.75.68,31.62,5C293.16,391.36,295.69,397.38,297.71,405.52Z"/><path class="cls-1" d="M297.14,463.44c4.84-1.49,10.65-6.52,18.28-3.24a2.74,2.74,0,0,0,1.91.18c7.16-3.39,13,1.22,18.65,2.71-5.53.89-11.59,2-17.69,2.78a22.33,22.33,0,0,1-5.93-.25C306.84,464.9,301.34,464.05,297.14,463.44Z"/><path class="cls-1" d="M306.44,474.68h20C323.17,480,315.54,480.53,306.44,474.68Z"/><path class="cls-1" d="M323.88,434.75c4.9,3.11,5.28,6.67,1.67,11.19l5-.43.36,1.24L321.58,449C320.68,444.13,329.1,440.59,323.88,434.75Z"/><path class="cls-1" d="M308.27,447.11H302l.06-1.58,6.26.48Z"/><path class="cls-1" d="M458.45,326c3.68,2.68,3.87,5.64,1.21,8.84-3.61,4.34-7.86,4.55-15,.59,3.66-.3,7.12-.21,10.39-.95C459.82,333.43,459.14,329.7,458.45,326Z"/><path class="cls-1" d="M433.49,367l14.83,1.51C444.93,373.94,440.72,373.57,433.49,367Z"/><path class="cls-1" d="M440.13,332.88l-4.37-1.28.61-1.71,4.16,1.47Z"/></g></g></svg>