<?xml version="1.0" encoding="UTF-8" standalone="no"?>
<!-- Created with Inkscape (http://www.inkscape.org/) -->

<svg
   xmlns:dc="http://purl.org/dc/elements/1.1/"
   xmlns:cc="http://creativecommons.org/ns#"
   xmlns:rdf="http://www.w3.org/1999/02/22-rdf-syntax-ns#"
   xmlns:svg="http://www.w3.org/2000/svg"
   xmlns="http://www.w3.org/2000/svg"
   version="1.1"
   width="418.98901"
   height="499.99899"
   id="svg3071">
  <defs
     id="defs3073" />
  <metadata
     id="metadata3076">
    <rdf:RDF>
      <cc:Work
         rdf:about="">
        <dc:format>image/svg+xml</dc:format>
        <dc:type
           rdf:resource="http://purl.org/dc/dcmitype/StillImage" />
        <dc:title></dc:title>
      </cc:Work>
    </rdf:RDF>
  </metadata>
  <g
     transform="translate(469.39935,554.35589)"
     id="layer1">
    <path
       d="m -50.410346,-316.41889 c -2.082,2.417 -31.379,35.668 -71.588004,67.462 v 194.600001 h -33.336 V -225.41189 c -36.127,21.042 -111.633,54.712 -111.633,54.712 l -18.045,-31.92 c 0,0 83.59,-22.043 129.678,-42.793 v -73.468 c -28.709,15.919 -63.006,30.837 -63.006,30.837 l -10.416,-22.251 c 0,0 40.42,-12.419 73.422,-28.587 v -109.257 l -259.896,367.738001 h 197.936 v 26.044 h -252.105 l 347.402,-499.999001 v 195.016 c 23.254004,-18.04 55.174004,-48.378 57.045004,-50.128 -1.498,2.584 -24.543,41.378 -57.045004,68.505 v 76.214 c 28.335004,-19.209 69.047004,-49.798 71.587004,-51.67 z"
       id="Bronze" />
  </g>
</svg>
