<?xml version="1.0" encoding="UTF-8" standalone="no"?>
<!-- Created with Inkscape (http://www.inkscape.org/) -->

<svg
   xmlns:dc="http://purl.org/dc/elements/1.1/"
   xmlns:cc="http://creativecommons.org/ns#"
   xmlns:rdf="http://www.w3.org/1999/02/22-rdf-syntax-ns#"
   xmlns:svg="http://www.w3.org/2000/svg"
   xmlns="http://www.w3.org/2000/svg"
   xmlns:sodipodi="http://sodipodi.sourceforge.net/DTD/sodipodi-0.dtd"
   xmlns:inkscape="http://www.inkscape.org/namespaces/inkscape"
   width="18.548101mm"
   height="36.905666mm"
   viewBox="0 0 18.548101 36.905666"
   version="1.1"
   id="svg8"
   inkscape:version="0.92.3 (2405546, 2018-03-11)"
   sodipodi:docname="linil2.svg">
  <defs
     id="defs2" />
  <sodipodi:namedview
     id="base"
     pagecolor="#ffffff"
     bordercolor="#666666"
     borderopacity="1.0"
     inkscape:pageopacity="0.0"
     inkscape:pageshadow="2"
     inkscape:zoom="0.7"
     inkscape:cx="195.31987"
     inkscape:cy="16.318868"
     inkscape:document-units="mm"
     inkscape:current-layer="layer1"
     showgrid="false"
     inkscape:window-width="454"
     inkscape:window-height="405"
     inkscape:window-x="3335"
     inkscape:window-y="502"
     inkscape:window-maximized="0" />
  <metadata
     id="metadata5">
    <rdf:RDF>
      <cc:Work
         rdf:about="">
        <dc:format>image/svg+xml</dc:format>
        <dc:type
           rdf:resource="http://purl.org/dc/dcmitype/StillImage" />
        <dc:title></dc:title>
      </cc:Work>
    </rdf:RDF>
  </metadata>
  <g
     inkscape:label="Layer 1"
     inkscape:groupmode="layer"
     id="layer1"
     transform="translate(-52.374145,-26.748074)">
    <path
       style="fill:#000000;stroke-width:0.26458332"
       d="m 60.335943,62.614789 c -0.61485,-0.669701 -1.33503,-1.821427 -1.600402,-2.559392 -0.296451,-0.824402 -0.558378,-1.218959 -0.67931,-1.023287 -0.345025,0.558263 -0.450061,-1.508664 -0.464115,-9.132993 -0.0075,-4.074584 -0.02454,-7.62372 -0.03785,-7.88697 -0.04248,-0.840394 -0.55336,-0.1865 -0.55336,0.708265 0,0.472921 -0.174807,1.090972 -0.38846,1.373447 -0.357368,0.472483 -0.389134,0.400318 -0.396875,-0.90161 -0.0074,-1.247352 0.08905,-1.506243 0.813316,-2.182812 1.516094,-1.416244 1.600405,-1.232619 1.471255,3.204282 -0.106833,3.670217 0.06861,5.013393 0.483921,3.704865 0.11891,-0.374664 0.39968,-0.533009 0.94509,-0.533009 0.76412,0 0.77592,-0.02213 0.77592,-1.455208 0,-1.6854 -0.38441,-1.937494 -0.62834,-0.412059 -0.3659,2.288201 -0.65914,1.237328 -0.66915,-2.398044 -0.006,-2.059905 -0.0435,-3.775432 -0.084,-3.812281 -0.0405,-0.03685 -1.133719,0.445296 -2.4293,1.071435 -1.923285,0.9295 -2.4284,1.300551 -2.752259,2.021774 -0.311913,0.69462 -0.42132,0.779948 -0.512099,0.399392 -0.06349,-0.266171 0.0334,-0.843287 0.215318,-1.282478 0.268231,-0.647564 0.879141,-1.068781 3.231419,-2.22803 1.595362,-0.786226 2.953791,-1.429501 3.018741,-1.429501 0.1917,0 -0.0523,4.592456 -0.26782,5.041068 -0.16339,0.340067 -0.0364,0.392066 0.73693,0.301783 l 0.93433,-0.109079 v 2.154923 c 0,2.736092 -0.39353,3.459222 -1.88251,3.459222 -1.00898,0 -1.028159,0.01827 -1.041601,0.992187 -0.06255,4.532339 0.02046,7.84828 0.199761,7.979138 0.11816,0.08624 0.55829,0.811644 0.97806,1.612008 0.41977,0.800365 1.0106,1.728886 1.31296,2.06338 l 0.54973,0.608169 0.77254,-0.872752 c 0.42489,-0.480015 1.01092,-1.408536 1.30229,-2.06338 0.29136,-0.654844 0.6233,-1.251863 0.73763,-1.326711 0.11434,-0.07485 0.22545,-1.74172 0.24692,-3.704167 0.0638,-5.827786 0.17867,-5.287543 -1.12526,-5.289937 -0.96151,-0.0018 -1.17241,-0.105274 -1.45521,-0.714207 -0.1819,-0.391678 -0.33073,-1.640905 -0.33073,-2.77606 v -2.063919 h 0.78444 c 0.99355,0 1.33223,0.604911 1.33223,2.379471 0,1.580004 -0.44114,1.571491 -0.69458,-0.0134 -0.24392,-1.525436 -0.62834,-1.273342 -0.62834,0.412058 0,1.433078 0.0118,1.455208 0.77592,1.455208 0.54542,0 0.82618,0.158345 0.94509,0.533009 0.37901,1.194147 0.52647,0.106154 0.49913,-3.682678 -0.0159,-2.196745 0.0198,-3.994081 0.0793,-3.994081 0.39433,0 1.70086,0.887445 1.92607,1.308261 0.40048,0.748302 0.36569,3.124162 -0.0398,2.718662 -0.17174,-0.171733 -0.3801,-0.795301 -0.46302,-1.385704 -0.0829,-0.590404 -0.26984,-1.068699 -0.41537,-1.062878 -0.17114,0.0068 -0.24122,2.462979 -0.19843,6.955185 0.0662,6.95156 -0.0958,10.611153 -0.45977,10.386196 -0.10668,-0.06594 -0.41307,0.382887 -0.68085,0.997384 -0.59192,1.358331 -1.83126,3.009715 -2.54568,3.392064 -0.45054,0.241123 -0.68598,0.10703 -1.64377,-0.936206 z m -0.11426,-7.225568 c 0.0121,-4.004204 0.26302,-6.151563 0.71865,-6.151563 0.33835,0 0.30081,8.475515 -0.0419,9.458855 -0.16482,0.472943 -0.38736,0.859896 -0.49454,0.859896 -0.10718,0 -0.18918,-1.875235 -0.18222,-4.167188 z m 2.19355,3.282847 c -0.24835,-1.323814 -0.28979,-9.434514 -0.0482,-9.434458 0.39347,9.2e-5 0.46111,0.682927 0.53274,5.377956 0.0684,4.484897 -0.11542,6.024028 -0.48453,4.056502 z m -3.56224,-5.056336 c 0,-1.858195 0.12792,-3.312821 0.33073,-3.760798 0.29319,-0.647636 0.34589,-0.371307 0.46438,2.434947 0.12548,2.971761 -0.0566,4.356111 -0.573,4.356111 -0.12216,0 -0.22211,-1.363618 -0.22211,-3.03026 z m 4.83316,2.302656 c -0.11689,-0.254662 -0.15085,-1.88749 -0.0754,-3.628507 0.12158,-2.807672 0.17446,-3.08291 0.46781,-2.434947 0.19998,0.441748 0.33073,1.876145 0.33073,3.628507 0,2.759207 -0.22558,3.518805 -0.72309,2.434947 z M 52.393944,41.946131 c 0.05834,-0.839881 0.27728,-1.715766 0.486538,-1.946411 0.209258,-0.230645 2.055397,-1.249394 4.10253,-2.263889 l 3.722061,-1.844534 v -3.733764 c 0,-2.053571 -0.0783,-3.812106 -0.17409,-3.907858 -0.0958,-0.09575 -0.33388,-0.04148 -0.52917,0.120592 -0.24832,0.206086 -0.3576,1.020764 -0.36349,2.709683 -0.006,1.703011 -0.12294,2.566416 -0.39687,2.92859 -0.34939,0.461935 -0.38752,0.235741 -0.37909,-2.248958 0.006,-1.735763 0.13545,-2.98974 0.34857,-3.373802 0.32224,-0.580694 1.66527,-1.632236 2.08945,-1.635963 0.10914,-9.58e-4 0.19422,3.064117 0.18906,6.811278 -0.007,5.407687 -0.0874,6.949462 -0.3875,7.47448 -0.34974,0.611811 -0.37882,0.487695 -0.38749,-1.653646 -0.005,-1.273308 -0.0987,-2.310782 -0.20782,-2.305498 -0.10914,0.0053 -1.805779,0.808955 -3.77031,1.785937 l -3.571875,1.776332 -0.150777,1.129736 c -0.245124,1.836645 -0.74491,1.97995 -0.619727,0.177695 z m 11.012449,0.740566 c -0.22158,-0.388028 -0.31443,-1.338179 -0.26458,-2.707405 l 0.0768,-2.109569 2.91042,1.405792 c 3.03786,1.467351 3.72525,2.128398 3.50867,3.374219 -0.10324,0.59385 -0.13779,0.573989 -0.53562,-0.307903 -0.36387,-0.80661 -0.76994,-1.099705 -2.81287,-2.030251 l -2.38761,-1.087548 -0.0769,2.030251 c -0.0686,1.810262 -0.1139,1.965471 -0.4183,1.432414 z m 6.98428,0.04703 c -0.0883,-0.230183 -0.16291,-0.79573 -0.16574,-1.256771 -0.005,-0.812264 -0.11779,-0.893911 -3.63802,-2.633119 -1.99809,-0.987174 -3.72218,-1.790846 -3.83132,-1.785937 -0.10914,0.0049 -0.20266,1.050721 -0.20781,2.324029 -0.009,2.141341 -0.0378,2.265457 -0.3875,1.653646 -0.30013,-0.525018 -0.38006,-2.066793 -0.3875,-7.47448 -0.005,-3.747161 0.0434,-6.813021 0.10779,-6.813021 0.45433,0 1.97173,1.183796 2.22228,1.733714 0.17059,0.374404 0.30223,1.868897 0.29701,3.371965 -0.009,2.474715 -0.0409,2.644444 -0.3875,2.038071 -0.2441,-0.427009 -0.38145,-1.463274 -0.3875,-2.923646 -0.009,-2.108763 -0.2417,-2.897187 -0.85604,-2.897187 -0.11642,0 -0.21167,1.757244 -0.21167,3.904987 v 3.904988 l 3.79456,1.904391 c 2.087,1.047416 3.91663,2.058375 4.06583,2.246576 0.36817,0.464392 0.69086,3.120308 0.37912,3.120308 -0.13497,0 -0.31766,-0.188331 -0.40599,-0.418514 z"
       id="path23"
       inkscape:connector-curvature="0" />
  </g>
</svg>
