<?xml version="1.0" encoding="UTF-8" standalone="no"?>
<!-- Created with Inkscape (http://www.inkscape.org/) -->

<svg
   xmlns:dc="http://purl.org/dc/elements/1.1/"
   xmlns:cc="http://creativecommons.org/ns#"
   xmlns:rdf="http://www.w3.org/1999/02/22-rdf-syntax-ns#"
   xmlns:svg="http://www.w3.org/2000/svg"
   xmlns="http://www.w3.org/2000/svg"
   version="1.1"
   width="64.892151"
   height="68.726364"
   id="svg4635">
  <defs
     id="defs4637" />
  <metadata
     id="metadata4640">
    <rdf:RDF>
      <cc:Work
         rdf:about="">
        <dc:format>image/svg+xml</dc:format>
        <dc:type
           rdf:resource="http://purl.org/dc/dcmitype/StillImage" />
        <dc:title></dc:title>
      </cc:Work>
    </rdf:RDF>
  </metadata>
  <path
     d="m 26.429866,2.9778556 a 2.9778555,2.9778556 0 0 1 -5.955711,0 2.9778555,2.9778556 0 1 1 5.955711,0 z"
     id="path3926-3-61"
     style="fill:#000000;fill-opacity:1;fill-rule:nonzero;stroke:none;display:inline" />
  <path
     d="m 15.60652,3.5637816 7.27715,7.5257404 c -8.4599,10.77239 -6.04021,22.12759 1.66691,28.32357 9.13119,7.34083 27.86482,2.27698 26.52599,-21.45449 6.37431,40.43901 -44.52371,50.66477 -35.47005,-14.3948204 z"
     id="path3152-3-5-6"
     style="fill:#000000;fill-opacity:1;stroke:none;display:inline" />
  <path
     d="m 0.5,11.041312 c 19.85619,2.00489 40.68285,2.26294 63.89215,-1.7677704"
     id="path4217"
     style="fill:none;stroke:#000000;stroke-width:1px;stroke-linecap:butt;stroke-linejoin:miter;stroke-opacity:1" />
  <path
     d="m 8.7141908,61.127176 c -2.34738,-18.82582 -3.26495,-37.83037 -0.25254,-57.32616"
     id="path4219"
     style="fill:none;stroke:#000000;stroke-width:1px;stroke-linecap:butt;stroke-linejoin:miter;stroke-opacity:1" />
  <path
     d="M 40.108659,68.094313 38.961475,31.247647"
     id="path4221"
     style="fill:none;stroke:#000000;stroke-width:1.26409972px;stroke-linecap:butt;stroke-linejoin:miter;stroke-opacity:1" />
  <path
     d="M 15.964676,62.344516 29.861351,29.242855"
     id="path4221-4"
     style="fill:none;stroke:#000000;stroke-width:1.27704322px;stroke-linecap:butt;stroke-linejoin:miter;stroke-opacity:1" />
</svg>
