<?xml version="1.0" encoding="UTF-8" standalone="no"?>
<!-- Created with Inkscape (http://www.inkscape.org/) -->

<svg
   xmlns:dc="http://purl.org/dc/elements/1.1/"
   xmlns:cc="http://creativecommons.org/ns#"
   xmlns:rdf="http://www.w3.org/1999/02/22-rdf-syntax-ns#"
   xmlns:svg="http://www.w3.org/2000/svg"
   xmlns="http://www.w3.org/2000/svg"
   xmlns:sodipodi="http://sodipodi.sourceforge.net/DTD/sodipodi-0.dtd"
   xmlns:inkscape="http://www.inkscape.org/namespaces/inkscape"
   width="359"
   height="534"
   id="svg3446"
   version="1.1"
   inkscape:version="0.48.4 r9939"
   sodipodi:docname="Final Aon Soi.svg">
  <defs
     id="defs3448" />
  <sodipodi:namedview
     id="base"
     pagecolor="#ffffff"
     bordercolor="#666666"
     borderopacity="1.0"
     inkscape:pageopacity="0.0"
     inkscape:pageshadow="2"
     inkscape:zoom="0.35"
     inkscape:cx="438.61994"
     inkscape:cy="63.551087"
     inkscape:document-units="px"
     inkscape:current-layer="layer1"
     showgrid="false"
     fit-margin-top="0"
     fit-margin-left="0"
     fit-margin-right="0"
     fit-margin-bottom="0"
     inkscape:window-width="1366"
     inkscape:window-height="705"
     inkscape:window-x="-8"
     inkscape:window-y="-8"
     inkscape:window-maximized="1" />
  <metadata
     id="metadata3451">
    <rdf:RDF>
      <cc:Work
         rdf:about="">
        <dc:format>image/svg+xml</dc:format>
        <dc:type
           rdf:resource="http://purl.org/dc/dcmitype/StillImage" />
        <dc:title></dc:title>
      </cc:Work>
    </rdf:RDF>
  </metadata>
  <g
     inkscape:label="Layer 1"
     inkscape:groupmode="layer"
     id="layer1"
     transform="translate(1234.4986,254.52171)">
    <g
       transform="matrix(1.0000121,0,0,0.99999187,-1405.1413,-413.94858)"
       style="display:inline"
       id="g3146">
      <path
         style="fill:#000000;stroke:#000000;stroke-width:0;stroke-linecap:butt;stroke-linejoin:miter;stroke-miterlimit:4;stroke-opacity:1;stroke-dasharray:none"
         d="m 170.64061,426.42817 292.00001,0 c 0,0 -37.99611,29.97758 -37.99611,133.4939 0,98.52014 37.99611,133.5061 37.99611,133.5061 0,0 -48,-16.96406 -48,-133.5061 0,-109.0069 42.00389,-131.49387 42.00389,-131.49387 0,0 -7.35937,6.00041 -139.91795,5.9962 -146.08595,-0.005 -146.08595,-7.99623 -146.08595,-7.99623 z"
         id="path3044"
         inkscape:connector-curvature="0"
         sodipodi:nodetypes="ccscscsc" />
      <path
         sodipodi:type="arc"
         style="fill:#000000;fill-opacity:1;fill-rule:evenodd;stroke:none"
         id="path3052"
         sodipodi:cx="149.00233"
         sodipodi:cy="142.00241"
         sodipodi:rx="6.0023398"
         sodipodi:ry="5.9980502"
         d="m 155.00467,142.00241 c 0,3.31263 -2.68733,5.99805 -6.00234,5.99805 -3.315,0 -6.00234,-2.68542 -6.00234,-5.99805 0,-3.31263 2.68734,-5.99805 6.00234,-5.99805 3.31501,0 6.00234,2.68542 6.00234,5.99805 z"
         transform="matrix(0.99961018,0,0,1.0003251,165.69636,421.38004)" />
    </g>
    <g
       style="display:inline"
       id="g3150"
       inkscape:transform-center-y="-133.49891"
       transform="matrix(1.0000121,0,0,-0.99999187,-1405.1413,438.90083)"
       inkscape:transform-center-x="5.4222644e-005">
      <path
         sodipodi:nodetypes="ccscscsc"
         inkscape:connector-curvature="0"
         id="path3152"
         d="m 170.64061,426.42817 292.00001,0 c 0,0 -37.99611,29.97758 -37.99611,133.4939 0,98.52014 37.99611,133.5061 37.99611,133.5061 0,0 -48,-16.96406 -48,-133.5061 0,-109.0069 42.00389,-131.49387 42.00389,-131.49387 0,0 -7.35937,6.00041 -139.91795,5.9962 -146.08595,-0.005 -146.08595,-7.99623 -146.08595,-7.99623 z"
         style="fill:#000000;stroke:#000000;stroke-width:0;stroke-linecap:butt;stroke-linejoin:miter;stroke-miterlimit:4;stroke-opacity:1;stroke-dasharray:none" />
      <path
         transform="matrix(0.99961018,0,0,1.0003251,165.69636,421.38004)"
         d="m 155.00467,142.00241 c 0,3.31263 -2.68733,5.99805 -6.00234,5.99805 -3.315,0 -6.00234,-2.68542 -6.00234,-5.99805 0,-3.31263 2.68734,-5.99805 6.00234,-5.99805 3.31501,0 6.00234,2.68542 6.00234,5.99805 z"
         sodipodi:ry="5.9980502"
         sodipodi:rx="6.0023398"
         sodipodi:cy="142.00241"
         sodipodi:cx="149.00233"
         id="path3154"
         style="fill:#000000;fill-opacity:1;fill-rule:evenodd;stroke:none"
         sodipodi:type="arc" />
    </g>
    <g
       style="display:inline"
       transform="matrix(1.0000121,0,0,-0.99999187,-1338.1448,438.90517)"
       id="g3256"
       inkscape:transform-center-y="-133.49891"
       inkscape:transform-center-x="-3.8102548e-005">
      <path
         style="fill:#000000;stroke:#000000;stroke-width:0;stroke-linecap:butt;stroke-linejoin:miter;stroke-miterlimit:4;stroke-opacity:1;stroke-dasharray:none"
         d="m 170.64061,426.42817 292.00001,0 c 0,0 -37.99611,29.97758 -37.99611,133.4939 0,98.52014 37.99611,133.5061 37.99611,133.5061 0,0 -48,-16.96406 -48,-133.5061 0,-109.0069 42.00389,-131.49387 42.00389,-131.49387 0,0 -7.35937,6.00041 -139.91795,5.9962 -146.08595,-0.005 -146.08595,-7.99623 -146.08595,-7.99623 z"
         id="path3258"
         inkscape:connector-curvature="0"
         sodipodi:nodetypes="ccscscsc" />
      <path
         sodipodi:type="arc"
         style="fill:#000000;fill-opacity:1;fill-rule:evenodd;stroke:none"
         id="path3260"
         sodipodi:cx="149.00233"
         sodipodi:cy="142.00241"
         sodipodi:rx="6.0023398"
         sodipodi:ry="5.9980502"
         d="m 155.00467,142.00241 c 0,3.31263 -2.68733,5.99805 -6.00234,5.99805 -3.315,0 -6.00234,-2.68542 -6.00234,-5.99805 0,-3.31263 2.68734,-5.99805 6.00234,-5.99805 3.31501,0 6.00234,2.68542 6.00234,5.99805 z"
         transform="matrix(0.99961018,0,0,1.0003251,165.69636,421.38004)" />
    </g>
    <g
       style="display:inline"
       inkscape:transform-center-y="133.49891"
       inkscape:transform-center-x="-212.99824"
       id="g3262"
       transform="matrix(1.0000121,0,0,0.99999187,-1338.1448,-413.94424)">
      <path
         sodipodi:nodetypes="ccscscsc"
         inkscape:connector-curvature="0"
         id="path3264"
         d="m 170.64061,426.42817 292.00001,0 c 0,0 -37.99611,29.97758 -37.99611,133.4939 0,98.52014 37.99611,133.5061 37.99611,133.5061 0,0 -48,-16.96406 -48,-133.5061 0,-109.0069 42.00389,-131.49387 42.00389,-131.49387 0,0 -7.35937,6.00041 -139.91795,5.9962 -146.08595,-0.005 -146.08595,-7.99623 -146.08595,-7.99623 z"
         style="fill:#000000;stroke:#000000;stroke-width:0;stroke-linecap:butt;stroke-linejoin:miter;stroke-miterlimit:4;stroke-opacity:1;stroke-dasharray:none" />
      <path
         transform="matrix(0.99961018,0,0,1.0003251,165.69636,421.38004)"
         d="m 155.00467,142.00241 c 0,3.31263 -2.68733,5.99805 -6.00234,5.99805 -3.315,0 -6.00234,-2.68542 -6.00234,-5.99805 0,-3.31263 2.68734,-5.99805 6.00234,-5.99805 3.31501,0 6.00234,2.68542 6.00234,5.99805 z"
         sodipodi:ry="5.9980502"
         sodipodi:rx="6.0023398"
         sodipodi:cy="142.00241"
         sodipodi:cx="149.00233"
         id="path3266"
         style="fill:#000000;fill-opacity:1;fill-rule:evenodd;stroke:none"
         sodipodi:type="arc" />
    </g>
  </g>
</svg>
