<svg xmlns="http://www.w3.org/2000/svg" viewBox="0 0 1000 1000"><title>Gold</title><path d="M280.3,493.82C290.52,599.64,386,675.42,492.78,660,614,649.06,687.39,548.56,665,435.95c-10.42-40.76-8-39.86-81.39-110.61l-.15-.08L630,278.07a235.6,235.6,0,0,1,37.47,30.09c58.62,57.78,90.85,126.55,81.7,208.41-15.2,136.05-137.81,234-273.87,218.83S244.73,600.13,259.93,464.08l17.94-18.2,7.28,7.18C283.1,467.52,279.16,479.5,280.3,493.82Z"/><circle cx="554.58" cy="256.92" r="34.08" transform="translate(-17.7 471.54) rotate(-45.41)"/><path d="M694.5,409.17,673.72,388.4l-33.85-33.85,18.62-2.22L684.41,326C663,305,644.5,289.62,666.82,267l7.76-7.87-13.14-12.95-54.53,55.33L544.1,365.2l13.14,12.95c4.08-4.14,3.38-3.49,7.76-7.87,5.83-5.83,30.68-33.83,51.57-12.95,18.49,18.49,8.79,42.68-12.44,63.9h0L346.68,678.68l-28.89,65.66,67.3-27.25L642.53,459.64Z"/></svg>