<svg id="silverlight-symbol" xmlns="http://www.w3.org/2000/svg" viewBox="0 0 958.325 1060.444"><title>silverlight-symbol</title><path id="key" d="M588.159,21.254S532.152,68.638,489.8,99.831c-89.844-75.806-221.855-75.806-311.7,0C135.747,68.638,79.74,21.254,79.74,21.254a6.5,6.5,0,0,0-8.878.62,6.5,6.5,0,0,0-.619,8.877s47.384,56.007,78.576,98.36c-75.8,89.845-75.8,221.855,0,311.7-31.192,42.353-78.576,98.36-78.576,98.36a6.781,6.781,0,0,0,9.5,9.5s56.007-47.384,98.36-78.577c79.914,67.427,193.186,74.88,280.478,22.358a58.639,58.639,0,0,0,53.488,13.522L783.671,777.577l-84.856,84.856,22.63,0L648.374,935.5l96.982-.364,73.421-73.421-22.63,0,35.833-35.833,22.481,22.481L765.6,937.224h25.77v25.77l88.859-88.858,22.48,22.481L866.878,932.45l0-22.63L793.46,983.241l-.364,96.981,73.07-73.07,0,22.63,84.857-84.857.05.051a11.107,11.107,0,0,0,15.613,15.613l14.585,14.585a10,10,0,0,0,14.143,0l28.751-28.752a10,10,0,0,0,0-14.142l-14.585-14.586a11.106,11.106,0,0,0-15.613-15.612l-.05-.051L554.96,463.077a58.639,58.639,0,0,0-13.522-53.488C593.96,322.3,586.507,209.025,519.08,129.111c31.192-42.353,78.576-98.36,78.576-98.36a6.5,6.5,0,0,0-.619-8.877A6.5,6.5,0,0,0,588.159,21.254ZM444.826,128.161c-76.482,37.15-145.271,37.149-221.753,0a192.225,192.225,0,0,1,221.753,0ZM333.95,363.889c-32.716,0-64.716,6.138-96.539,17.611,11.472-31.823,17.611-63.824,17.611-96.539s-6.139-64.716-17.611-96.539c31.823,11.472,63.823,17.611,96.539,17.611s64.715-6.139,96.539-17.611c-11.473,31.823-17.612,63.823-17.612,96.539s6.139,64.716,17.612,96.539C398.665,370.027,366.665,363.889,333.95,363.889Zm-192-78.928a190.574,190.574,0,0,1,35.2-110.876c37.149,76.481,37.149,145.27,0,221.752A190.574,190.574,0,0,1,141.95,284.961Zm81.123,156.8c76.482-37.15,145.271-37.15,221.753,0a192.225,192.225,0,0,1-221.753,0Zm302.877-156.8a190.582,190.582,0,0,1-35.2,110.876c-37.149-76.482-37.149-145.271,0-221.752A190.582,190.582,0,0,1,525.95,284.961Z" transform="translate(-68.766 -19.778)"/></svg>