<?xml version="1.0" encoding="utf-8"?>
<!-- Generator: Adobe Illustrator 14.0.0, SVG Export Plug-In . SVG Version: 6.00 Build 43363)  -->
<!DOCTYPE svg PUBLIC "-//W3C//DTD SVG 1.1//EN" "http://www.w3.org/Graphics/SVG/1.1/DTD/svg11.dtd">
<svg version="1.1" id="Layer_1" xmlns="http://www.w3.org/2000/svg" xmlns:xlink="http://www.w3.org/1999/xlink" x="0px" y="0px"
	 width="223px" height="800px" viewBox="0 0 223 800" enable-background="new 0 0 223 800" xml:space="preserve">
<g>
	<path fill-rule="evenodd" clip-rule="evenodd" d="M188.229,224.132c1.848,3.775,7.166-1.496,8.358,1.193
		c-6.028,17.981-2.803,32.941-3.582,51.347c-0.756,17.838-12.955,28.466-15.523,44.182c-0.577,3.535,1.243,7.427,1.194,10.747
		c-0.134,9.061-5.29,17.402-7.165,27.464c-1.27,6.814-0.078,14.443-1.193,21.494c-2.166,13.676-8.021,26.388-10.747,39.405
		c-2.665,12.726,1.471,28.035-1.194,39.405c-1.947,8.302-12.34,13.716-15.524,21.494c-1.757,4.295-0.505,11.06-2.388,17.912
		c-2.242,8.158-7.43,16.289-8.358,23.882c-3.435,28.085-2.537,69.712,8.358,87.17c-0.911,14.925-4.559,27.1-3.583,40.601
		c1.25,17.271,10.067,31.74,13.136,46.57c6.775,32.737,3.043,63.595,5.971,97.916c-22.876-19.34-24.677-55.396-37.017-89.558
		c-3.065-8.486-9.751-16.291-10.747-23.883c-2.575-19.621,6.193-39.868-2.389-58.511c-0.347-5.124,5.627-3.927,5.971-8.36
		c-2.563-27.606-12.13-54.587-9.552-81.198c1.039-10.729-3.303-19.427-3.583-29.854c-0.15-5.598,2.533-11.131,2.388-16.717
		c-0.292-11.331-5.281-22.04-4.776-33.435c0.45-10.137,5.129-19.242,7.165-28.658c5.007-23.156,7.708-46.172,13.135-69.258
		c1.854-5.039-6.63,0.261-4.777-4.777c3.968-28.076-5.523-56.848-2.388-85.976c0.934-8.679,6.157-16.988,7.165-26.27
		c0.848-7.818-1.02-16.265,0-23.882c1.087-8.133,6.234-15.259,7.164-22.688c3.423-27.334-5.478-68.577-15.523-84.782
		c-3.865-6.234-9.56-11.986-15.523-15.524c-8.342-1.575-9.337,4.196-16.717,3.583c4.005-25.105-14.218-38.527-35.824-32.241
		c-10.233,2.978-13.933,15.751-22.688,11.941c3.717-37.705,29.772-67.013,71.646-66.87c12.105,9.96,23.371,15.133,33.435,25.077
		c17.368,17.159,20.799,43.791,31.046,66.87c3.414,7.688,11.06,13.62,14.33,21.494c6.521,15.701,3.48,34.317,7.164,51.347
		C178.157,186.953,185.903,206.045,188.229,224.132z"/>
</g>
</svg>
