<?xml version="1.0" encoding="utf-8"?>
<!-- Generator: Adobe Illustrator 14.0.0, SVG Export Plug-In . SVG Version: 6.00 Build 43363)  -->
<!DOCTYPE svg PUBLIC "-//W3C//DTD SVG 1.1//EN" "http://www.w3.org/Graphics/SVG/1.1/DTD/svg11.dtd">
<svg version="1.1" id="Layer_1" xmlns="http://www.w3.org/2000/svg" xmlns:xlink="http://www.w3.org/1999/xlink" x="0px" y="0px"
	 width="800px" height="800px" viewBox="0 0 800 800" enable-background="new 0 0 800 800" xml:space="preserve">
<g>
	<path fill-rule="evenodd" clip-rule="evenodd" d="M232.369,469.879c7.388,2.76,10.277,13.812,14.932,22.973
		c3.19,6.277,8.237,11.461,11.486,17.229c7.002,12.433,8.747,16.445,18.377,26.418c7.191,7.445,12.696,16.377,20.675,22.972
		c-26.223,2.102-30.444-17.798-45.943-26.418C250.163,507.911,229.233,496.084,232.369,469.879z"/>
	<path fill-rule="evenodd" clip-rule="evenodd" d="M83.053,516.971c-1.036,3.942-2.534,7.421-4.594,10.338
		c-8.906-2.579-14.718-8.254-14.932-19.525C71.821,499.674,78.064,511.734,83.053,516.971z"/>
	<path fill-rule="evenodd" clip-rule="evenodd" d="M332.296,560.618c-9.258,6.952-15.354-2.784-24.121-5.743
		C310.623,534.954,330.359,550.289,332.296,560.618z"/>
	<path fill-rule="evenodd" clip-rule="evenodd" d="M696.397,597.372c-3.215,7.123-13.06,7.615-20.674,10.338
		C670.589,595.615,688.542,587.16,696.397,597.372z"/>
	<path fill-rule="evenodd" clip-rule="evenodd" d="M333.444,206.853c-9.509,0.426-8.142,11.222-9.189,17.229
		c-16.681,12.375-42.281,11.156-42.498,41.349c-11.149,3.016-16.623,11.708-29.863,12.634c-10.64,15.395-20.554,31.516-29.863,48.24
		c-3.153,3.739-11.769,2.015-12.635,8.04c-0.934,8.209,7.581,6.968,8.041,13.783c-1.407,4.336-3.538,7.949-6.892,10.337
		c1.107,14.124-5.128,20.906-9.188,29.863c0.466,59.793,7.766,121.984,49.389,147.021c-1.189,3.021-1.374,7.048-1.148,11.486
		c32.809,44.394,95.065,52.628,133.236,90.736c13.228-2.341,24.724,9.843,39.052,11.486c7.688,0.883,15.751-0.635,24.119,0
		c36.202,2.747,72.017,13.455,106.818,9.188c-11.146,9.516-30.371,14.936-45.941,17.229c-30.269,4.457-61.112,3.515-89.591-2.297
		c-12.628-2.576-20.369-5.515-32.16-4.594c-22.402,1.747-52.474,6.269-80.401-2.297c-5.011,2.263-10.692,3.857-14.932,6.891
		c-10.779-3.513-26.162-12.444-36.755-5.742c-12.561-3.116-25.349-10.909-41.349-6.892c-7.992-12.683-18.243-23.107-29.863-32.161
		c-17.256,8.736-43.062-0.146-51.687-13.782c1.566-8.007,9.821-9.323,14.933-13.783c2.823-11.969-2.781-9.604-9.189-16.081
		c-3.846-3.886-3.256-10.745-11.486-9.188c-0.802-5.013,3.316-5.106,3.447-9.188c-16.588-33.95-44.316-56.76-70.064-81.55
		c1.176-28.359-19.087-35.278-14.931-66.617c-1.523-3.838-5.258-5.462-8.041-8.04c2.507-5.118-2.032-10.964,1.149-16.081
		c6.514,8.417,9.727,20.137,17.229,27.565c0.138,3.31-0.627,7.52,1.149,9.189c19.813,29.96,36.183,63.362,67.767,81.55
		c10.715,11.874,22.272,22.905,40.2,27.565c15.148,14.971,27.831,36.037,47.092,45.944c7.447,3.829,16.555,2.634,22.972,9.188
		c5.743,0,11.486,0,17.229,0c-3.158-12.396-15.215-18.213-22.971-26.418c-11.578-12.245-18.511-27.499-29.864-40.2
		c-4.068-19.261-23.202-41.54-27.566-64.321c-0.892-4.652,0.457-10.029,0-14.932c-1.489-15.991-13.324-24.052-9.188-42.497
		c-8.166-5.271-21.991,5.34-22.972,12.635c-1.027,7.637,8.31,10.044,6.891,18.377c-3.533,4.092-12.862,5.29-17.229,2.297
		c-4.144-4.717,4.578-3.927,3.445-9.188c-6.078-0.729-9.928,6.772-18.377,8.041c-13.97,2.095-31.216-1.693-40.201-8.041
		c1.225-10.799,13.119-6.489,19.526-8.041c7.151-1.729,11.371-7.478,19.526-12.633c6.34-4.01,13.761-4.181,17.229-9.189
		c7.75-11.194,3.755-27.606,12.634-40.2c-3.355-9.169-12.386-9.586-20.675-11.486C123.25,319.716,87.9,304.729,77.31,330.9
		c-17.437-6.001-39.397,0.707-56.281-3.446c-2.667-19.669,17.739-25.793,26.418-37.904c9.39-2.059,16.769-8.861,28.714-10.337
		c14.796-1.828,29,1.054,36.755-5.743c9.164,2.322,19.433,3.539,25.268,9.189c22.11-2.201,23.62,16.198,43.647,16.08
		c6.907-8.407,7.565-23.063,14.931-31.012c-1.089-7.696,1.947-14.441,0-19.525c19.058-31.098,43.17-57.14,71.212-79.253
		c9.617-4.496,18.965-10.636,28.715-16.08c9.029-5.041,22.041-8.215,25.269-19.526c-23.791-5.318-49.802,6.79-66.618,16.081
		c-10.051-2.967-21.509-4.525-28.714-10.337c-28.146,4.952-50.499,9.025-66.618,26.417c0.333,5.411,3.354,8.132,2.297,14.932
		c-30.521-9.48-55.624,9.976-87.292,8.04c21.196-36.045,52.546-59.164,94.184-72.361c7.321-4.547,12.84-10.897,18.377-17.229
		c16.838-1.689,28.681-7.846,40.201-17.229c15.408,0.477,21.798-8.065,34.458-10.337c12.955,2.835,22.232,12.581,34.458,10.337
		c7.735-1.419,10.632-10.877,18.377-14.932c9.789-5.123,17.705-3.385,27.566-4.594c11.73,4.346,6.883,19.013,2.297,27.566
		c6.292,4.811,18.328,3.878,28.715,4.594c12.275,16.048,46.521,23.7,71.211,11.486c3.296-1.63,6.17-6.071,10.338-6.891
		c8.206-1.613,22.877,3.922,34.458,4.594c30.601,1.775,55.643-2.153,78.104,4.594c-4.201-18.772-27.315-18.628-41.351-27.566
		c-11.247,3.947-21.651,1.116-31.011-2.297c-10.761-23.335-45.984-30.446-73.51-29.864c-5.633,4.322-11.6,8.309-13.782,16.081
		c-10.292-4.981-15.283-9.75-24.121-17.229c-19.606-1.569-36.39-8.452-51.687-17.229c0-1.531,0-3.063,0-4.595
		c7.308-9.538,27.091-6.601,36.754-13.783c30.973-8.122,68.456,5.377,97.63-4.594c10.796,8.175,26.012,2.815,39.052,3.446
		c13.808,0.667,25.705,9.027,37.903,5.742c7.298,10.314,15.737,19.486,25.27,27.566c21.109-4.143,44.674-6.825,51.687,11.486
		c-5.555,5.932-10.523,12.449-12.635,21.824c17.66,4.546,19.082,25.33,29.863,36.754c20.339-0.049,22.116,18.467,35.605,25.269
		c13.497-9.34,26.47,11.565,40.201,9.188c0.188,3.634-3.054,3.839-2.298,8.04c9.141,29.887,32.336,57.9,42.499,88.441
		c4.374,13.147,7.161,26.76,18.377,35.606c3.543,15.644-3.347,30.723-2.298,44.795c0.911,12.202,7.777,21.257,5.743,36.754
		c-5.257,40.052-31.362,64.753-48.24,98.779c-20.302,2.385-37.703,12.594-58.578,16.08c-8.66,8.187-9.49,24.203-18.377,32.161
		c-11.185-0.463-18.86,2.582-29.863,2.296c-3.547-3.429,0.342-6.693-2.299-10.336c-4.731-6.53-17.987-5.468-25.268-5.743
		c-6.034-5.452-10.221-12.751-21.824-12.634c-11.572-17.616-35.689-26.433-52.834-36.756c-8.093-16.218-9.752-41.175-27.566-50.538
		c0.065-19.843,4.698-35.118,10.338-49.389c3.984-0.921,4.415,1.711,8.039,1.148c11.548-14.487,21.697-30.372,34.458-43.646
		c33.777,10.12,73.154,11.646,87.293,39.053c-23.956-6.267-42.675-20.152-63.172-11.486c-15.958,6.745-29.806,30.25-28.716,47.092
		c1.108,17.096,33.022,33.573,51.687,39.052c34.732,10.195,83.986,3.468,104.521-13.783c8.157-6.852,20.957-22.854,20.676-39.052
		c-0.215-12.324-10.155-16.985-12.634-27.566c-1.471-6.274,0.765-12.08,0-17.229c-1.648-11.081-7.384-17.224-11.486-27.566
		c8.784-18.592-10.383-22.321-21.824-27.566c-24.919-16.679-42.149-42.82-78.104-48.241c-16.773-2.529-29.577,1.024-40.201-9.188
		c-3.853-9.547-8.207-18.592-16.08-24.121c-8.38,3.872-20.429,4.073-27.565,9.189c-11.771-4.754-32.41-6.557-43.646-8.04
		c-7.72,0.704-7.448,9.396-10.337,14.932c-7.308,2.264-13.517,5.627-21.823,6.891c-2.475,0.971-1.853,5.039-3.446,6.892
		c-23.337,9.972-43.936,22.68-64.32,35.606c-12.144-0.544-19.031,0.704-27.566-3.446c-4.01,2.082-3.504,13.629-9.189,10.337
		c-0.562-3.625,2.07-4.056,1.149-8.04C346.022,245.719,343.959,214.173,333.444,206.853z"/>
	<path fill-rule="evenodd" clip-rule="evenodd" d="M669.979,610.007c1.855,8.184-5.896,16.161-6.891,25.269
		c-22.977,26.933-45.589,52.487-74.659,71.214c-3.975,2.561-7.942,2.73-11.485,5.741c-6.805,5.788-9.96,15.013-16.079,19.527
		c-6.999,5.161-17.065,4.95-25.271,10.337c-6.899,4.528-10.772,13.365-18.377,17.229c-6.368,3.234-14.562,3.522-20.674,6.891
		c-5.073,2.796-9.068,8.477-16.081,10.337c-10.546-7.491-26.392-6.297-40.2-5.741c-5.487,0.153-7.421,10.778-16.079,16.079
		c-11.823,7.235-41.998,13.833-44.796,1.148c-1.67-7.573,2.64-9.905,5.743-14.932c-4.706-12.901-18.693-5.097-29.863-8.041
		c-5.416-1.426-7.639-7.156-12.635-10.337c-19.759-12.581-49.468-9.51-72.361-19.525c-8.021,4.021,0.047,13.013,0,19.525
		c-14.114,4.741-25.506-8.767-22.972-20.674c-7.342-0.315-12.338-2.976-20.674-2.297c-16.923-19.451-53.476-19.268-63.172-45.944
		c22.817-4.636,38.955,15.604,59.726,20.676c9.7,2.366,21.577,1.147,32.161,4.593c5.895,1.92,15.036,7.042,25.269,8.041
		c9.694,0.946,19.461-1.393,29.863-1.15c9.745,0.23,20.51,3.209,31.012,2.299c3.337-0.29,6.292-2.941,9.188-3.446
		c15.081-2.629,30.22,3.617,43.647,4.595c26,1.893,46.49-1.136,66.619-11.486c5.831-2.999,10.158-10.938,17.229-12.634
		c11.61-2.787,22.094,0.65,31.011,2.297c19.392-3.495,36.318-14.578,50.539-19.525c5.312-8.473,14.707-12.859,21.822-19.526
		c0.399-8.821-4.909-11.937-3.445-21.823c25.448,6.39,38.35-3.025,56.28-12.634c2.243-1.203,4.872-5.062,6.892-5.744
		c3.561-1.203,7.338,0.146,10.337-1.148C657.817,616.514,660.698,610.044,669.979,610.007z"/>
</g>
</svg>
