<?xml version="1.0" encoding="utf-8"?>
<!-- Generator: Adobe Illustrator 14.0.0, SVG Export Plug-In . SVG Version: 6.00 Build 43363)  -->
<!DOCTYPE svg PUBLIC "-//W3C//DTD SVG 1.1//EN" "http://www.w3.org/Graphics/SVG/1.1/DTD/svg11.dtd">
<svg version="1.1" id="Layer_1" xmlns="http://www.w3.org/2000/svg" xmlns:xlink="http://www.w3.org/1999/xlink" x="0px" y="0px"
	 width="800px" height="638px" viewBox="0 0 800 638" enable-background="new 0 0 800 638" xml:space="preserve">
<g>
	<path fill-rule="evenodd" clip-rule="evenodd" d="M532.321,24.788c-7.038,0.756-12.125,3.465-21.045,2.338
		C509.999,10.688,534.267,5.8,532.321,24.788z"/>
	<path fill-rule="evenodd" clip-rule="evenodd" d="M756.814,234.08c-0.459,8.851-11.24,10.219-15.2,3.508
		C743.293,230.346,752.887,226.456,756.814,234.08z"/>
	<path fill-rule="evenodd" clip-rule="evenodd" d="M776.69,282.019c-1.039,0.519-2.09,1.027-2.337,2.338
		c-5.912-3.052-16.396-1.533-21.047-5.846C758.32,267.294,774.742,267.61,776.69,282.019z"/>
	<path fill-rule="evenodd" clip-rule="evenodd" d="M787.214,307.742c6.031,4.758,9,26.554-7.015,22.214
		C776.272,323.784,772.646,304.938,787.214,307.742z"/>
	<path fill-rule="evenodd" clip-rule="evenodd" d="M558.045,587.187c1.559,0,3.119,0,4.678,0c0.372,2.746,1.847,4.389,1.169,8.186
		c-3.683-0.564-2.648,3.589-7.016,2.338C560.279,595.117,557.336,592.961,558.045,587.187z"/>
	<path fill-rule="evenodd" clip-rule="evenodd" d="M521.799,619.926c-4.417,6.209-17.965,8.511-18.708-2.338
		C507.445,613.43,520.637,611.971,521.799,619.926z"/>
	<path fill-rule="evenodd" clip-rule="evenodd" d="M503.091,49.341c-4.279,18.433-32.855-2.955-43.261,11.692
		c23.668,18.876,43.108-8.621,64.308-14.03c2.424,6.415,12.52,7.815,11.692,14.03c41.148-0.101,75.306,16.583,99.385,37.416
		c31.347,3.73,40.324,29.829,65.478,39.754c0.343,24.243,22.83,32.469,23.384,52.615c-7.26,2.181-7.656-5.002-11.693-8.184
		c-34.252-27.005-68.181-54.431-113.415-71.323c-0.814-3.082-5.323-2.471-5.846-5.846c-11.977-6.458-24.381-1.619-42.093-2.338
		c-26.805-1.09-50.854-7.254-74.831-2.338c-37.51,7.691-65.678,25.19-87.691,51.447c-15.453,4.425-22.118,17.635-33.909,25.723
		c0.264,6.109-0.019,11.673-1.169,16.369c-7.345,1.229-12.454,4.695-17.539,8.185c-4.136,4.227-0.235,13.517-1.169,19.877
		c-1.157,7.876-5.916,14.916-9.354,24.554c-7.067,19.808-21.255,41.454-23.385,64.308c-4.996,53.615,16.501,95.405,49.108,122.769
		c7.842,16.682,24.351,33.276,49.108,25.723c3.285,6.459,7.662,11.825,11.692,17.539c24.049-7.265,33.521,14.198,53.784,21.046
		c2.987,1.01,6.531,0.278,9.354,1.17c5.21,1.644,10.464,5.836,17.539,4.676c5.845-0.958,7.283-7.183,12.861-9.354
		c8.749-3.402,15.268,0.234,26.892-1.169c15.28-13.951,33.901-24.561,45.602-42.092c-4.004-7.277-0.558-22.896-3.508-33.907
		c-15.136-4.883-23.36,6.952-36.247,8.185c11.675-15.701-4.801-31.856-7.016-47.938c-14.021-3.78-20.192-15.284-39.753-10.523
		c-7.005,8.976-16.183,15.777-14.03,33.908c6.512,3.352,25.439-6.811,28.061,3.507c-4.561,4.403-11.155,6.775-16.368,10.523
		c-23.418,0.987-39.661-11.34-40.924-32.738c-3.024-51.224,42.218-83.757,91.199-71.323c8.22,2.086,17.104,6.234,25.723,10.523
		c34.413,17.12,62.58,42.217,76.001,81.846c4.702,13.888,2.996,44.912-1.17,59.631c-6.86,24.244-27.951,42.152-43.261,61.97
		c-2.579,3.34-3.109,8.703-5.846,11.692c-1.651,1.803-4.495,1.649-5.847,3.507c-5.346,7.359-6.346,14.767-14.03,19.877
		c-27.685,2.349-49.66,28.857-76.001,11.692c-6.583,5.888-15.73,9.212-23.384,14.03c-26.799,6.072-48.137,2.147-77.17,0
		c-38.73-20.277-82.757-22.785-108.738-56.123c-0.865-15.212,1.895-27.679-4.677-38.583c-5.465-9.07-17.853-10.23-24.554-17.539
		c-16.354-17.838-4.129-64.693-44.431-58.462c0.757-14.07-3.929-27.426-16.369-31.569c-11.419-31.499-19.871-63.688-16.369-105.23
		c7.095-10.053,20.89-13.407,24.554-26.893c-0.547,21.527,13.933,39.406,35.077,31.569c-2.441-8.861-7.545-15.06-9.354-24.554
		c6.687-12.02,15.716-21.7,22.216-33.907c-0.853-4.994-5.322-6.371-4.677-12.861c3.244-7.576,12.925-3.207,12.862-15.2
		c17.639,2.829,21.951-7.669,25.723-18.708c11.453,0.149,13.579-9.027,17.539-16.369c12.034,7.911,29.238-4.614,16.37-14.031
		c-7.806,1.548-14.613,4.095-16.37,11.692c-11.137-4.167-17.073,8.242-24.554,11.693c-9.48,4.372-18.151,5.658-19.877,18.708
		c-4.259,0.361-7.609-0.186-10.523-1.169c-2.783,1.504-3.334,5.24-4.677,8.185c-20.908,3.48-37.868,0.342-53.785,9.354
		c-3.432,1.943-5.373,6.349-9.354,8.184c-2.392,1.104-6.751-0.18-9.354,1.17c-4.533,2.351-9.115,7.199-14.031,10.523
		c-13.991,9.461-25.534,21.134-39.754,31.569c0.551,8.803,6.525,12.183,4.677,23.384c-23.578-0.583-39.664,6.326-54.954,14.031
		c-2.091,3.366-6.2,4.712-8.185,8.185c-22.749,2.585-33.218,17.449-53.785,22.216c-0.375-15.575,11.26-19.141,14.031-31.569
		c20.653-18.759,40.773-48.484,65.476-67.815c15.731-12.31,37.026-19.935,47.939-33.908c2.304-2.95,1.801-6.694,3.507-9.354
		c8.392-13.077,20.526-12.963,33.909-22.215c5.752-3.977,8.019-10.146,12.861-15.2c15.346-16.018,39.065-24.073,54.954-38.584
		c5.69,0.936,11.204,2.047,15.199,4.677c10.176-5.868,20.137-8.101,32.739-9.354c8.12-10.452,13.337-18.921,26.893-28.062
		c11.731-7.911,25.24-20.429,40.923-8.184c-0.848,7.726-1.888,15.261-2.338,23.385c9.424-1.406,24.412-6.543,35.076-10.523
		c24.168,10.19,57.81,0.834,71.323-16.369c-17.024-17.527-36.974,10.071-59.63,5.845c5.435-12.797,18.704-13.646,30.398-22.215
		C453.403,47.826,484.725,25.675,503.091,49.341z"/>
</g>
</svg>
