<?xml version="1.0" encoding="utf-8"?>
<!-- Generator: Adobe Illustrator 14.0.0, SVG Export Plug-In . SVG Version: 6.00 Build 43363)  -->
<!DOCTYPE svg PUBLIC "-//W3C//DTD SVG 1.1//EN" "http://www.w3.org/Graphics/SVG/1.1/DTD/svg11.dtd">
<svg version="1.1" id="Layer_1" xmlns="http://www.w3.org/2000/svg" xmlns:xlink="http://www.w3.org/1999/xlink" x="0px" y="0px"
	 width="663px" height="800px" viewBox="0 0 663 800" enable-background="new 0 0 663 800" xml:space="preserve">
<g>
	<path fill-rule="evenodd" clip-rule="evenodd" d="M606.646,138.114c-1.556,13.008-3.814,24.624,0,33.365
		c5.006,11.472,20.451,11.775,31.063,19.559c9.983,7.322,11.264,16.345,17.258,25.312c-4.115,8.558-13.97,18.344-26.462,11.505
		c-10.736,6.896-1.705,16.992-1.15,27.613c0.501,9.591-6.015,21.048-6.902,33.365c-1.601,22.202,1.539,42.685,9.204,57.526
		c4.073-4.746,8.275-9.365,14.956-11.505c9.374,34.81-7.227,69.089-3.451,101.246c0.59,5.027,3.891,9.66,4.602,14.958
		c6.624,49.309-35.192,80.679-44.87,117.352c-16.195,2.597-27.61,9.974-39.117,17.26c-38.478-5.114-33.585,33.145-52.924,47.17
		c-14.925,1.568-31.658-3.122-34.517-17.258c-5.71-1.96-12.425-2.915-20.709-2.3c-23.253-23.153-51.334-41.477-78.236-60.979
		c-5.826-22.553-11.76-44.998-28.762-56.374c5.291-14.651,4.368-35.517,11.504-48.322c21-1.244,23.776-20.712,36.817-29.914
		c-0.1-5.852-0.504-12.009,2.301-14.956c19.668-0.079,34.74,3.398,52.924,9.204c20.343,6.493,39.507,13.507,48.322,31.062
		c-23.48-3.387-46.008-18.128-69.032-5.752c-12.052,11.149-26.576,33.164-14.956,54.074c19.26,22.454,73.911,33.923,113.901,24.161
		c14.018-3.421,30.592-14.428,35.666-21.859c13.132-19.232,2.501-39.338-9.204-54.074c2.373-23.56-14.336-38.695-8.054-58.677
		c-47.197-10.711-55.613-60.206-119.653-54.075c-10.45-10.643-15.3-26.886-27.612-35.667c-11.34-0.383-19.239,6.944-28.763,5.752
		c-11.837-1.48-22.662-9.3-35.667-11.504c-6.26,4.862-8.413,13.83-12.656,20.708c-17.184,10.262-37.547,20.548-54.075,32.215
		c-5.659,3.994-21.868,18.047-32.214,18.408c-10.631,0.371-21.523-12.803-31.064,1.15c1.873-8.945,11.49-12.068,11.505-23.011
		c0.015-10.764-8.298-26.064-19.559-27.612c-0.177,12.508-10.951,32.285-24.161,24.161c-11.698,8.244-19.562,20.323-23.011,36.817
		c-26.715,5.5-43.704,20.725-54.075,42.569c0.823,7.493-3.572,11.188-6.902,17.258c-5.872,1.033-12.106,1.7-13.806,6.902
		c1.271,6.016,6.583,7.99,6.902,14.958c-1.365,5.923-8.614,5.959-10.355,11.504c1.361,8.404,0.173,10.933-3.451,16.109
		c-1.012,70.811,9.395,132.009,50.624,163.373c1.282,5.501-3.584,4.854-2.302,10.354c12.667,13.413,27.972,24.186,41.419,36.817
		c20.013,3.41,34.865,17.949,55.225,26.461c9.41,9.382,23.098,14.487,29.914,26.462c12.736,4.906,23.021,12.263,35.666,17.259
		c51.336-6.211,89.786,17.952,136.913,12.655c-11.723,17.811-43.925,15.137-65.58,23.011c-28.47,0.347-56.965-4.693-86.29-9.204
		c-32.587-11.456-51.003-25.851-87.439-31.063c-70.405-43.497-121.463-106.34-150.718-190.987
		c6.476-21.468-9.954-30.726-11.506-50.623c11.547-19.428,1.396-56.866,14.957-75.935c-3.058-8.063-5.945-16.298-11.506-21.859
		c8.353-8.906,15.378-19.138,24.161-27.613c1.492-9.246,4.654-16.822,9.205-23.01c-5.276-18.503,2.937-25.809,9.204-37.968
		c1.47-2.852,1.033-7.145,2.3-9.204c12.566-20.414,36.005-35.816,47.172-54.075c9.378-4.044,19.101-7.745,24.161-16.107
		c24.756-11.195,51.103-25.834,79.386-39.118c32.361-9.962,68.146-15.409,102.396-20.709c-3.058-6.65-11.947-18.851-19.559-24.161
		c-1.596-1.113-5.173,0.204-8.054-1.15c-3.202-1.505-8.615-7.424-13.806-9.204c-5.143-1.763-12.046-1.579-17.258-3.452
		c-4.807-1.727-25.627-7.446-33.365-5.752c-10.366,2.27-14.499,14.982-21.86,21.86c-10.012-4.945-19.73-10.184-25.312-19.559
		c-14.332-1.776-23.436-8.78-40.269-8.054c-7.11-8.998-24.921-7.292-34.516-13.806c4.273-15.669,24.887-14.998,36.817-23.011
		c27.638-0.228,51.706-15.446,80.537-6.903c3.979,0.911,4.857-1.279,6.903-2.301c12.438,8.42,42.147,12.396,52.924,0
		c15.756,13.629,37.187,6.277,57.526,9.204c15.705,2.26,29.977,14.238,47.172,12.656c4.006,15.553,19.748,19.369,25.312,33.365
		c8.313,4.583,17.735-2.328,27.613-1.15c3.533,0.421,7.507,4.218,12.654,5.753c14.992,4.468,28.125,2.257,32.215,16.107
		c-2.192,12.38-11.543,17.603-20.71,23.01c-2.011,14.844,16.026,9.417,26.462,9.204c3.555-0.072,8.508,2.067,13.808,2.302
		c11.729,0.517,20.331-3.268,27.611,1.15c5.584,3.388,10.05,14.622,14.958,20.709c5.995,7.44,5.668,9.97,16.106,12.656
		c0.838-34.61-30.076-43.815-46.021-63.279c1.471-42.725-22.16-66.619-49.472-83.988c-10.748,0.758-16.762,6.249-23.012,11.504
		c0-38.778-35.649-56.841-39.118-92.042c1.025-0.708,2.06-1.39,2.302,0c4.986,0,9.972,0,14.958,0
		c35.313,16.14,64.726,24.883,88.589,50.623c6.604,7.122,14.104,17.844,29.913,17.258c4.974,8.449,16.179,10.667,19.56,20.709
		C578.82,105.345,589.688,124.773,606.646,138.114z"/>
	<path fill-rule="evenodd" clip-rule="evenodd" d="M107.319,568.408c5.565,4.407,6.234,13.71,10.355,19.559
		c9.207,13.805,16.709,29.312,26.461,42.571c9.177,8.849,16.387,19.662,24.162,29.912c-12.708-0.034-28.244-6.976-34.516-17.257
		c-5.251,0.647-7.166-2.039-12.656-1.151c0.265-4.483-2.472-5.965-3.451-9.204c-0.241-5.609,4.716-6.021,4.602-11.504
		c-0.015-2.705-3.139,0.419-2.301,2.3c-6.261-10.997-7.142-27.373-16.107-35.667C106.251,582.68,103.079,571.838,107.319,568.408z"
		/>
	<path fill-rule="evenodd" clip-rule="evenodd" d="M205.114,646.645c1.514,8.033-3.958,9.081-6.904,12.655
		c-5.074-2.212-7.353-7.22-14.956-6.902C188.509,648.032,198.715,639.625,205.114,646.645z"/>
	<path fill-rule="evenodd" clip-rule="evenodd" d="M557.174,700.72c0,4.218,0,8.437,0,12.654c-6.103,5.111-18.194,4.197-20.709-3.45
		C537.689,696.645,548.248,692.707,557.174,700.72z"/>
	<path fill-rule="evenodd" clip-rule="evenodd" d="M514.604,746.74c-10.528-0.198-7.425-11.46-5.752-19.559
		C522.485,721.54,517.955,741.066,514.604,746.74z"/>
</g>
</svg>
