<?xml version="1.0" encoding="UTF-8" standalone="no"?>
<svg
   xmlns:dc="http://purl.org/dc/elements/1.1/"
   xmlns:cc="http://creativecommons.org/ns#"
   xmlns:rdf="http://www.w3.org/1999/02/22-rdf-syntax-ns#"
   xmlns:svg="http://www.w3.org/2000/svg"
   xmlns="http://www.w3.org/2000/svg"
   xmlns:sodipodi="http://sodipodi.sourceforge.net/DTD/sodipodi-0.dtd"
   xmlns:inkscape="http://www.inkscape.org/namespaces/inkscape"
   version="1.0"
   width="2450.000000pt"
   height="2450.000000pt"
   viewBox="0 0 2450.000000 2450.000000"
   preserveAspectRatio="xMidYMid meet"
   id="svg3035"
   inkscape:version="0.48.4 r"
   sodipodi:docname="Shoaff Defense.svg">
  <defs
     id="defs3045" />
  <sodipodi:namedview
     pagecolor="#ffffff"
     bordercolor="#666666"
     borderopacity="1"
     objecttolerance="10"
     gridtolerance="10"
     guidetolerance="10"
     inkscape:pageopacity="0"
     inkscape:pageshadow="2"
     inkscape:window-width="1680"
     inkscape:window-height="988"
     id="namedview3043"
     showgrid="false"
     inkscape:zoom="0.25240816"
     inkscape:cx="1246.7203"
     inkscape:cy="1550.653"
     inkscape:window-x="-8"
     inkscape:window-y="-8"
     inkscape:window-maximized="1"
     inkscape:current-layer="svg3035" />
  <metadata
     id="metadata3037">
Created by potrace 1.11, written by Peter Selinger 2001-2013
<rdf:RDF>
  <cc:Work
     rdf:about="">
    <dc:format>image/svg+xml</dc:format>
    <dc:type
       rdf:resource="http://purl.org/dc/dcmitype/StillImage" />
  </cc:Work>
</rdf:RDF>
</metadata>
  <g
     transform="translate(0.000000,2450.000000) scale(0.100000,-0.100000)"
     id="g3039"
     stroke="none"
     fill="#000000">
    <path
       d="M13627 24266 c-49 -18 -73 -40 -93 -87 -14 -30 -24 -39 -53 -44 -121 -22 -277 -121 -412 -263 -520 -541 -726 -1677 -452 -2491 68 -202 205 -422 327 -523 l61 -51 -55 6 c-269 32 -1032 33 -1380 3 -717 -63 -1296 -178 -1969 -393 -96 -30 -181 -58 -189 -61 -8 -3 4 23 28 57 271 401 247 1146 -61 1851 -295 673 -794 1152 -1228 1178 -89 5 -96 7 -119 34 -34 41 -73 58 -130 58 -34 0 -59 -7 -83 -23 -44 -29 -81 -101 -76 -147 3 -32 -3 -42 -65 -109 -118 -127 -204 -332 -239 -572 -20 -135 -15 -420 10 -588 47 -312 138 -596 286 -896 230 -465 523 -797 850 -960 61 -31 146 -64 189 -75 44 -11 81 -21 83 -23 1 -2 -32 -18 -75 -37 -142 -61 -515 -247 -682 -341 -2200 -1229 -3743 -3340 -4234 -5790 -64 -319 -107 -624 -142 -1008 l-6 -74 -29 54 c-61 113 -188 240 -344 344 -638 425 -1781 486 -2490 132 -86 -42 -220 -131 -287 -190 -71 -61 -155 -170 -196 -253 -25 -50 -37 -62 -60 -67 -36 -7 -88 -50 -107 -88 -44 -84 10 -203 103 -228 19 -5 30 -21 48 -69 95 -253 393 -495 794 -642 123 -46 365 -106 526 -131 198 -30 583 -38 784 -14 471 54 849 202 1083 425 41 39 92 96 114 127 l38 56 6 -254 c29 -1123 264 -2208 695 -3196 24 -56 44 -104 44 -107 0 -3 -21 8 -46 24 -71 44 -185 89 -286 111 -676 148 -1665 -211 -2243 -813 -135 -140 -228 -268 -300 -413 -75 -150 -96 -232 -101 -379 -4 -110 -6 -122 -28 -145 -35 -39 -48 -68 -48 -116 0 -103 94 -181 193 -161 27 5 38 -1 87 -44 159 -142 460 -222 777 -206 532 25 1138 262 1601 626 118 94 340 323 416 430 119 168 202 362 223 524 l7 49 60 -109 c576 -1037 1335 -1925 2265 -2646 809 -627 1725 -1104 2705 -1408 305 -95 764 -205 1058 -255 166 -27 159 -22 80 -62 -380 -196 -697 -773 -800 -1458 -28 -180 -38 -541 -21 -711 36 -353 129 -642 279 -869 61 -92 182 -211 263 -258 58 -33 66 -42 76 -80 15 -54 43 -90 87 -111 84 -40 186 -3 222 81 11 26 23 34 56 43 130 33 252 106 377 225 378 361 613 1028 613 1740 1 361 -54 657 -171 924 -71 161 -185 322 -285 402 l-51 42 60 -7 c278 -28 962 -32 1290 -6 1189 93 2240 385 3269 908 126 65 234 119 239 121 6 2 1 -11 -10 -30 -100 -165 -136 -504 -84 -804 44 -250 118 -470 246 -730 290 -586 729 -1040 1180 -1218 134 -53 234 -70 379 -65 115 5 122 4 149 -18 81 -67 194 -46 246 47 20 35 23 51 18 100 -5 54 -3 62 24 96 123 155 187 442 161 726 -65 715 -518 1507 -1100 1924 -224 160 -427 244 -633 261 l-81 7 163 109 c785 527 1494 1202 2072 1971 521 695 930 1457 1221 2277 218 615 379 1330 440 1963 9 88 19 186 22 218 l6 58 37 -63 c50 -88 214 -250 331 -327 641 -427 1783 -488 2495 -133 230 114 425 298 490 460 12 29 23 42 37 42 52 0 123 66 134 125 11 60 -4 106 -51 152 -24 24 -52 43 -64 43 -12 0 -24 8 -28 18 -142 411 -641 714 -1358 823 -255 39 -652 36 -915 -7 -475 -78 -875 -281 -1047 -531 l-38 -56 -7 248 c-21 787 -127 1478 -338 2210 -89 307 -240 727 -364 1010 -19 44 -34 81 -32 82 1 1 36 -15 77 -37 168 -88 336 -123 589 -123 177 1 312 17 490 59 524 123 1019 393 1376 749 300 299 444 578 444 861 0 81 2 88 29 120 100 113 20 281 -130 273 -45 -3 -53 1 -106 44 -109 88 -270 157 -443 188 -113 21 -437 18 -573 -4 -973 -162 -1895 -866 -1999 -1528 l-12 -78 -59 107 c-568 1026 -1354 1944 -2272 2653 l-71 54 101 1 c161 1 303 38 490 129 775 375 1445 1424 1412 2210 -8 182 -54 342 -128 446 -19 27 -20 33 -8 78 11 43 10 55 -5 95 -41 108 -162 143 -259 74 -26 -18 -32 -19 -80 -6 -84 21 -265 16 -372 -11 -330 -85 -686 -321 -976 -648 -358 -403 -590 -843 -685 -1300 -23 -110 -27 -153 -28 -303 0 -186 15 -280 63 -393 24 -55 25 -55 -76 11 -106 71 -366 223 -553 325 -822 446 -1792 774 -2699 912 l-43 7 72 39 c431 234 754 885 821 1654 14 169 7 485 -16 635 -72 483 -272 859 -534 1006 -40 23 -50 34 -59 68 -14 56 -47 95 -96 117 -48 22 -68 23 -119 5z m-86 -235 c55 -98 210 -109 273 -19 14 20 15 20 61 -8 251 -147 435 -529 496 -1029 17 -141 14 -472 -5 -634 -88 -730 -410 -1331 -810 -1511 -323 -146 -639 34 -827 471 -195 451 -210 1126 -39 1713 153 527 447 927 759 1033 36 12 67 23 68 23 1 0 12 -17 24 -39z m-5272 -677 c510 -133 1043 -862 1225 -1675 73 -328 75 -696 5 -949 -110 -396 -397 -583 -737 -479 -501 154 -1004 836 -1192 1619 -44 184 -60 305 -67 496 -11 323 43 574 161 752 46 69 67 94 102 124 19 17 22 16 69 -7 26 -14 56 -25 64 -25 70 0 153 62 166 122 4 18 10 37 12 42 7 10 119 -1 192 -20z m10631 -1285 l50 -11 0 -41 c0 -120 122 -192 241 -143 12 5 24 -9 51 -61 68 -130 90 -236 89 -427 -3 -667 -524 -1540 -1172 -1962 -240 -156 -459 -234 -660 -234 -161 0 -276 45 -379 149 -125 126 -170 251 -177 496 -4 132 -2 181 15 280 82 474 349 975 738 1384 276 291 614 501 907 565 77 17 229 20 297 5z m-6335 -1309 c1245 -50 2407 -348 3490 -895 438 -222 990 -559 1097 -672 20 -21 638 -744 1373 -1608 l1338 -1570 68 -140 c208 -432 407 -989 540 -1519 284 -1127 330 -2333 133 -3494 -338 -2001 -1404 -3834 -2979 -5123 -278 -227 -519 -403 -796 -581 -565 -362 -1156 -650 -1784 -870 -909 -318 -1807 -469 -2795 -469 -718 0 -1361 76 -2030 241 -1896 467 -3573 1578 -4752 3148 -291 386 -586 861 -776 1244 l-61 123 -426 2030 -427 2030 7 110 c92 1536 544 2916 1370 4186 505 775 1183 1506 1938 2087 740 569 1585 1018 2482 1317 958 319 1983 465 2990 425z m5056 -1913 c825 -680 1518 -1508 2031 -2426 32 -57 57 -105 56 -106 -2 -1 -488 567 -1081 1264 -592 696 -1110 1304 -1149 1350 -39 46 -63 79 -52 73 10 -6 98 -76 195 -155z m4629 -997 c202 -16 355 -62 481 -146 92 -61 95 -66 74 -110 -21 -45 -22 -112 -1 -152 21 -41 72 -79 118 -87 33 -6 38 -12 44 -41 3 -18 1 -69 -5 -114 -95 -708 -1200 -1471 -2181 -1507 -421 -15 -722 111 -840 350 -65 133 -72 265 -24 427 147 494 753 1009 1476 1253 238 81 440 119 713 135 11 1 76 -3 145 -8z m-20000 -4280 c488 -50 913 -205 1179 -431 99 -85 159 -159 211 -261 47 -95 64 -171 57 -263 -18 -238 -194 -440 -522 -600 -642 -312 -1656 -277 -2290 78 -162 91 -300 210 -386 331 -57 81 -98 178 -77 185 7 2 30 20 50 41 66 65 61 162 -12 231 l-38 36 37 69 c47 90 169 214 284 288 227 148 532 249 877 290 136 16 495 20 630 6z m20315 -800 c721 -49 1311 -333 1494 -720 l31 -64 -28 -23 c-15 -12 -30 -22 -34 -23 -13 0 -48 -87 -48 -118 0 -47 22 -94 60 -125 39 -33 37 -47 -22 -137 -191 -291 -663 -501 -1233 -550 -835 -71 -1683 230 -1920 681 -286 545 419 1066 1470 1087 44 1 148 -3 230 -8z m-18431 -2190 c195 -926 353 -1686 352 -1687 -2 -2 -29 58 -60 133 -391 936 -606 1917 -646 2954 -10 270 -11 311 -4 295 2 -5 163 -768 358 -1695z m-139 -1705 c392 -58 615 -263 615 -562 0 -191 -75 -379 -237 -594 -332 -442 -979 -826 -1593 -948 -299 -59 -591 -56 -806 10 -127 38 -301 145 -290 179 2 8 12 34 21 58 12 35 13 51 4 85 -15 57 -74 114 -127 123 -38 6 -41 9 -47 44 -8 49 8 166 36 255 96 313 412 666 832 931 125 79 408 220 540 269 376 138 761 193 1052 150z m12975 -3876 c650 -81 1404 -970 1597 -1884 25 -119 27 -149 27 -345 0 -191 -2 -224 -22 -295 -26 -92 -67 -185 -112 -250 -31 -45 -31 -45 -60 -30 -37 19 -113 19 -150 0 -44 -23 -82 -79 -87 -129 l-5 -45 -67 -7 c-334 -36 -798 241 -1164 696 -261 325 -492 801 -566 1165 -99 490 -15 881 224 1040 89 59 140 75 290 94 6 0 49 -4 95 -10z m-5751 -1199 c95 -12 144 -30 219 -77 244 -154 414 -501 484 -988 20 -141 17 -551 -5 -710 -78 -555 -273 -1010 -552 -1290 -108 -109 -260 -202 -355 -219 -32 -6 -36 -4 -51 26 -46 95 -182 114 -260 36 l-31 -32 -44 23 c-24 13 -70 48 -104 78 -197 179 -329 475 -392 878 -17 114 -21 184 -21 375 0 253 13 393 59 613 143 682 499 1198 885 1282 81 17 70 17 168 5z"
       id="path3041" />
  </g>
  <path
     sodipodi:type="arc"
     style="fill:#808080;fill-opacity:1;fill-rule:nonzero;stroke:#999999;stroke-opacity:0.34509804"
     id="path3047"
     sodipodi:cx="110.4362"
     sodipodi:cy="1315.3298"
     sodipodi:rx="27.237629"
     sodipodi:ry="26.742399"
     d="m 137.67383,1315.3298 a 27.237629,26.742399 0 1 1 -54.475256,0 27.237629,26.742399 0 1 1 54.475256,0 z"
     transform="matrix(0.8,0,0,0.8,-53.088616,122.81695)" />
  <path
     sodipodi:type="arc"
     style="fill:#808080;fill-opacity:1;fill-rule:nonzero;stroke:#999999;stroke-opacity:0.34509804"
     id="path3047-0"
     sodipodi:cx="110.4362"
     sodipodi:cy="1315.3298"
     sodipodi:rx="27.237629"
     sodipodi:ry="26.742399"
     d="m 137.67383,1315.3298 a 27.237629,26.742399 0 1 1 -54.475256,0 27.237629,26.742399 0 1 1 54.475256,0 z"
     transform="matrix(0.8,0,0,0.8,65.370313,691.73678)" />
  <path
     sodipodi:type="arc"
     style="fill:#808080;fill-opacity:1;fill-rule:nonzero;stroke:#999999;stroke-opacity:0.34509804"
     id="path3047-8"
     sodipodi:cx="110.4362"
     sodipodi:cy="1315.3298"
     sodipodi:rx="27.237629"
     sodipodi:ry="26.742399"
     d="m 137.67383,1315.3298 a 27.237629,26.742399 0 1 1 -54.475256,0 27.237629,26.742399 0 1 1 54.475256,0 z"
     transform="matrix(0.8,0,0,0.8,993.23254,1352.5712)" />
  <path
     sodipodi:type="arc"
     style="fill:#808080;fill-opacity:1;fill-rule:nonzero;stroke:#999999;stroke-opacity:0.34509804"
     id="path3047-6"
     sodipodi:cx="110.4362"
     sodipodi:cy="1315.3298"
     sodipodi:rx="27.237629"
     sodipodi:ry="26.742399"
     d="m 137.67383,1315.3298 a 27.237629,26.742399 0 1 1 -54.475256,0 27.237629,26.742399 0 1 1 54.475256,0 z"
     transform="matrix(0.8,0,0,0.8,1745.9816,1194.0977)" />
  <path
     sodipodi:type="arc"
     style="fill:#808080;fill-opacity:1;fill-rule:nonzero;stroke:#999999;stroke-opacity:0.34509804"
     id="path3047-86"
     sodipodi:cx="110.4362"
     sodipodi:cy="1315.3298"
     sodipodi:rx="27.237629"
     sodipodi:ry="26.742399"
     d="m 137.67383,1315.3298 a 27.237629,26.742399 0 1 1 -54.475256,0 27.237629,26.742399 0 1 1 54.475256,0 z"
     transform="matrix(0.8,0,0,0.8,2325.9945,216.31634)" />
  <path
     sodipodi:type="arc"
     style="fill:#808080;fill-opacity:1;fill-rule:nonzero;stroke:#999999;stroke-opacity:0.34509804"
     id="path3047-9"
     sodipodi:cx="110.4362"
     sodipodi:cy="1315.3298"
     sodipodi:rx="27.237629"
     sodipodi:ry="26.742399"
     d="m 137.67383,1315.3298 a 27.237629,26.742399 0 1 1 -54.475256,0 27.237629,26.742399 0 1 1 54.475256,0 z"
     transform="matrix(0.8,0,0,0.8,2207.1394,-354.18819)" />
  <path
     sodipodi:type="arc"
     style="fill:#808080;fill-opacity:1;fill-rule:nonzero;stroke:#999999;stroke-opacity:0.34509804"
     id="path3047-3"
     sodipodi:cx="110.4362"
     sodipodi:cy="1315.3298"
     sodipodi:rx="27.237629"
     sodipodi:ry="26.742399"
     d="m 137.67383,1315.3298 a 27.237629,26.742399 0 1 1 -54.475256,0 27.237629,26.742399 0 1 1 54.475256,0 z"
     transform="matrix(0.8,0,0,0.8,1823.6336,-805.04524)" />
  <path
     sodipodi:type="arc"
     style="fill:#808080;fill-opacity:1;fill-rule:nonzero;stroke:#999999;stroke-opacity:0.34509804"
     id="path3047-98"
     sodipodi:cx="110.4362"
     sodipodi:cy="1315.3298"
     sodipodi:rx="27.237629"
     sodipodi:ry="26.742399"
     d="m 137.67383,1315.3298 a 27.237629,26.742399 0 1 1 -54.475256,0 27.237629,26.742399 0 1 1 54.475256,0 z"
     transform="matrix(0.8,0,0,-0.8,1280.8619,1088.7127)" />
  <path
     sodipodi:type="arc"
     style="fill:#808080;fill-opacity:1;fill-rule:nonzero;stroke:#999999;stroke-opacity:0.34509804"
     id="path3047-5"
     sodipodi:cx="110.4362"
     sodipodi:cy="1315.3298"
     sodipodi:rx="27.237629"
     sodipodi:ry="26.742399"
     d="m 137.67383,1315.3298 a 27.237629,26.742399 0 1 1 -54.475256,0 27.237629,26.742399 0 1 1 54.475256,0 z"
     transform="matrix(0.8,0,0,0.8,702.4337,-940.54007)" />
</svg>
