<?xml version="1.0" encoding="UTF-8" standalone="no"?>
<!-- Created with Inkscape (http://www.inkscape.org/) -->

<svg
   xmlns:dc="http://purl.org/dc/elements/1.1/"
   xmlns:cc="http://creativecommons.org/ns#"
   xmlns:rdf="http://www.w3.org/1999/02/22-rdf-syntax-ns#"
   xmlns:svg="http://www.w3.org/2000/svg"
   xmlns="http://www.w3.org/2000/svg"
   xmlns:sodipodi="http://sodipodi.sourceforge.net/DTD/sodipodi-0.dtd"
   xmlns:inkscape="http://www.inkscape.org/namespaces/inkscape"
   width="347"
   height="347"
   id="svg3077"
   version="1.1"
   inkscape:version="0.48.4 r9939"
   sodipodi:docname="New document 2">
  <defs
     id="defs3079" />
  <sodipodi:namedview
     id="base"
     pagecolor="#ffffff"
     bordercolor="#666666"
     borderopacity="1.0"
     inkscape:pageopacity="0.0"
     inkscape:pageshadow="2"
     inkscape:zoom="1.4"
     inkscape:cx="267.56589"
     inkscape:cy="137.35952"
     inkscape:document-units="px"
     inkscape:current-layer="layer1"
     showgrid="false"
     inkscape:window-width="1366"
     inkscape:window-height="705"
     inkscape:window-x="-8"
     inkscape:window-y="-8"
     inkscape:window-maximized="1" />
  <metadata
     id="metadata3082">
    <rdf:RDF>
      <cc:Work
         rdf:about="">
        <dc:format>image/svg+xml</dc:format>
        <dc:type
           rdf:resource="http://purl.org/dc/dcmitype/StillImage" />
        <dc:title></dc:title>
      </cc:Work>
    </rdf:RDF>
  </metadata>
  <g
     inkscape:label="Layer 1"
     inkscape:groupmode="layer"
     id="layer1"
     transform="translate(0,-705.36218)">
    <path
       sodipodi:nodetypes="ccscscsc"
       inkscape:connector-curvature="0"
       id="path3044"
       d="m 0,705.36218 292,0 c 0,0 -37.9961,29.97758 -37.9961,133.4939 0,98.52014 37.9961,133.5061 37.9961,133.5061 0,0 -48,-16.96406 -48,-133.5061 0,-109.0069 42.0039,-131.49387 42.0039,-131.49387 0,0 -7.3594,6.00041 -139.918,5.9962 C 0,713.35341 0,705.36218 0,705.36218 z"
       style="fill:#000000;stroke:#000000;stroke-width:0;stroke-linecap:butt;stroke-linejoin:miter;stroke-miterlimit:4;stroke-opacity:1;stroke-dasharray:none;display:inline" />
    <path
       transform="matrix(0.99961018,0,0,1.0003251,-4.9443,700.31405)"
       d="m 155.00467,142.00241 a 6.0023398,5.9980502 0 1 1 -12.00468,0 6.0023398,5.9980502 0 1 1 12.00468,0 z"
       sodipodi:ry="5.9980502"
       sodipodi:rx="6.0023398"
       sodipodi:cy="142.00241"
       sodipodi:cx="149.00233"
       id="path3052"
       style="fill:#000000;fill-opacity:1;fill-rule:evenodd;stroke:none;display:inline"
       sodipodi:type="arc" />
    <path
       style="fill:#000000;stroke:#000000;stroke-width:0;stroke-linecap:butt;stroke-linejoin:miter;stroke-miterlimit:4;stroke-opacity:1;stroke-dasharray:none;display:inline"
       d="m 0,705.36218 0,292.00001 c 0,0 29.9776,-37.99611 133.4939,-37.99611 98.5201,0 133.5061,37.99611 133.5061,37.99611 0,0 -16.9641,-48 -133.5061,-48 C 24.487,949.36219 2,991.36608 2,991.36608 c 0,0 6.0004,-7.35937 5.9962,-139.91795 C 7.9962,705.36218 0,705.36218 0,705.36218 z"
       id="path3006"
       inkscape:connector-curvature="0"
       sodipodi:nodetypes="ccscscsc"
       inkscape:transform-center-x="-133.5"
       inkscape:transform-center-y="146" />
    <path
       sodipodi:type="arc"
       style="fill:#000000;fill-opacity:1;fill-rule:evenodd;stroke:none;display:inline"
       id="path3008"
       sodipodi:cx="149.00233"
       sodipodi:cy="142.00241"
       sodipodi:rx="6.0023398"
       sodipodi:ry="5.9980502"
       d="m 155.00467,142.00241 a 6.0023398,5.9980502 0 1 1 -12.00468,0 6.0023398,5.9980502 0 1 1 12.00468,0 z"
       transform="matrix(0,0.99961018,1.0003251,0,-5.0481,700.41793)"
       inkscape:transform-center-x="-137.00045"
       inkscape:transform-center-y="144" />
    <path
       style="fill:#000000;stroke:#000000;stroke-width:0;stroke-linecap:butt;stroke-linejoin:miter;stroke-miterlimit:4;stroke-opacity:1;stroke-dasharray:none;display:inline"
       d="m 347,705.36218 -292,0 c 0,0 37.9961,29.97758 37.9961,133.4939 0,98.52014 -37.9961,133.5061 -37.9961,133.5061 0,0 48,-16.96406 48,-133.5061 0,-109.0069 -42.0039,-131.49387 -42.0039,-131.49387 0,0 7.3594,6.00041 139.9179,5.9962 C 347,713.35341 347,705.36218 347,705.36218 z"
       id="path3010"
       inkscape:connector-curvature="0"
       sodipodi:nodetypes="ccscscsc" />
    <path
       sodipodi:type="arc"
       style="fill:#000000;fill-opacity:1;fill-rule:evenodd;stroke:none;display:inline"
       id="path3012"
       sodipodi:cx="149.00233"
       sodipodi:cy="142.00241"
       sodipodi:rx="6.0023398"
       sodipodi:ry="5.9980502"
       d="m 155.00467,142.00241 a 6.0023398,5.9980502 0 1 1 -12.00468,0 6.0023398,5.9980502 0 1 1 12.00468,0 z"
       transform="matrix(-0.99961018,0,0,1.0003251,351.9442,700.31405)" />
    <path
       inkscape:transform-center-y="146"
       inkscape:transform-center-x="133.5"
       sodipodi:nodetypes="ccscscsc"
       inkscape:connector-curvature="0"
       id="path3014"
       d="m 347,705.36218 0,292.00001 c 0,0 -29.9776,-37.99611 -133.4939,-37.99611 C 114.986,959.36608 80,997.36219 80,997.36219 c 0,0 16.9641,-48 133.5061,-48 109.0069,0 131.4939,42.00389 131.4939,42.00389 0,0 -6.0004,-7.35937 -5.9962,-139.91795 0,-146.08595 7.9962,-146.08595 7.9962,-146.08595 z"
       style="fill:#000000;stroke:#000000;stroke-width:0;stroke-linecap:butt;stroke-linejoin:miter;stroke-miterlimit:4;stroke-opacity:1;stroke-dasharray:none;display:inline" />
    <path
       inkscape:transform-center-y="144"
       inkscape:transform-center-x="137.00045"
       transform="matrix(0,0.99961018,-1.0003251,0,352.0481,700.41793)"
       d="m 155.00467,142.00241 a 6.0023398,5.9980502 0 1 1 -12.00468,0 6.0023398,5.9980502 0 1 1 12.00468,0 z"
       sodipodi:ry="5.9980502"
       sodipodi:rx="6.0023398"
       sodipodi:cy="142.00241"
       sodipodi:cx="149.00233"
       id="path3016"
       style="fill:#000000;fill-opacity:1;fill-rule:evenodd;stroke:none;display:inline"
       sodipodi:type="arc" />
    <path
       style="fill:#000000;stroke:#000000;stroke-width:0;stroke-linecap:butt;stroke-linejoin:miter;stroke-miterlimit:4;stroke-opacity:1;stroke-dasharray:none;display:inline"
       d="m 347,1052.3622 -292,0 c 0,0 37.9961,-29.9776 37.9961,-133.49392 C 92.9961,820.34814 55,785.36218 55,785.36218 c 0,0 48,16.96406 48,133.5061 0,109.00692 -42.0039,131.49392 -42.0039,131.49392 0,0 7.3594,-6.0005 139.9179,-5.9962 146.086,0.01 146.086,7.9962 146.086,7.9962 z"
       id="path3034"
       inkscape:connector-curvature="0"
       sodipodi:nodetypes="ccscscsc" />
    <path
       sodipodi:type="arc"
       style="fill:#000000;fill-opacity:1;fill-rule:evenodd;stroke:none;display:inline"
       id="path3036"
       sodipodi:cx="149.00233"
       sodipodi:cy="142.00241"
       sodipodi:rx="6.0023398"
       sodipodi:ry="5.9980502"
       d="m 155.00467,142.00241 a 6.0023398,5.9980502 0 1 1 -12.00468,0 6.0023398,5.9980502 0 1 1 12.00468,0 z"
       transform="matrix(-0.99961018,0,0,-1.0003251,351.9442,1057.4103)" />
    <path
       inkscape:transform-center-y="-146"
       inkscape:transform-center-x="133.5"
       sodipodi:nodetypes="ccscscsc"
       inkscape:connector-curvature="0"
       id="path3038"
       d="m 347,1052.3622 0,-292.00003 c 0,0 -29.9776,37.99611 -133.4939,37.99611 C 114.986,798.35828 80,760.36217 80,760.36217 c 0,0 16.9641,48 133.5061,48 109.0069,0 131.4939,-42.00389 131.4939,-42.00389 0,0 -6.0004,7.35937 -5.9962,139.91795 0,146.08597 7.9962,146.08597 7.9962,146.08597 z"
       style="fill:#000000;stroke:#000000;stroke-width:0;stroke-linecap:butt;stroke-linejoin:miter;stroke-miterlimit:4;stroke-opacity:1;stroke-dasharray:none;display:inline" />
    <path
       inkscape:transform-center-y="-144"
       inkscape:transform-center-x="137.00045"
       transform="matrix(0,-0.99961018,-1.0003251,0,352.0481,1057.3064)"
       d="m 155.00467,142.00241 a 6.0023398,5.9980502 0 1 1 -12.00468,0 6.0023398,5.9980502 0 1 1 12.00468,0 z"
       sodipodi:ry="5.9980502"
       sodipodi:rx="6.0023398"
       sodipodi:cy="142.00241"
       sodipodi:cx="149.00233"
       id="path3040"
       style="fill:#000000;fill-opacity:1;fill-rule:evenodd;stroke:none;display:inline"
       sodipodi:type="arc" />
    <path
       sodipodi:nodetypes="ccscscsc"
       inkscape:connector-curvature="0"
       id="path3042"
       d="m 0,1052.3622 292,0 c 0,0 -37.9961,-29.9776 -37.9961,-133.49392 0,-98.52014 37.9961,-133.5061 37.9961,-133.5061 0,0 -48,16.96406 -48,133.5061 0,109.00692 42.0039,131.49392 42.0039,131.49392 0,0 -7.3594,-6.0005 -139.918,-5.9962 C 0,1044.371 0,1052.3622 0,1052.3622 z"
       style="fill:#000000;stroke:#000000;stroke-width:0;stroke-linecap:butt;stroke-linejoin:miter;stroke-miterlimit:4;stroke-opacity:1;stroke-dasharray:none;display:inline" />
    <path
       transform="matrix(0.99961018,0,0,-1.0003251,-4.9443,1057.4103)"
       d="m 155.00467,142.00241 a 6.0023398,5.9980502 0 1 1 -12.00468,0 6.0023398,5.9980502 0 1 1 12.00468,0 z"
       sodipodi:ry="5.9980502"
       sodipodi:rx="6.0023398"
       sodipodi:cy="142.00241"
       sodipodi:cx="149.00233"
       id="path3045"
       style="fill:#000000;fill-opacity:1;fill-rule:evenodd;stroke:none;display:inline"
       sodipodi:type="arc" />
    <path
       style="fill:#000000;stroke:#000000;stroke-width:0;stroke-linecap:butt;stroke-linejoin:miter;stroke-miterlimit:4;stroke-opacity:1;stroke-dasharray:none;display:inline"
       d="M 0,1052.3622 0,760.36217 c 0,0 29.9776,37.99611 133.4939,37.99611 98.5201,0 133.5061,-37.99611 133.5061,-37.99611 0,0 -16.9641,48 -133.5061,48 C 24.487,808.36217 2,766.35828 2,766.35828 c 0,0 6.0004,7.35937 5.9962,139.91795 C 7.9962,1052.3622 0,1052.3622 0,1052.3622 z"
       id="path3047"
       inkscape:connector-curvature="0"
       sodipodi:nodetypes="ccscscsc"
       inkscape:transform-center-x="-133.5"
       inkscape:transform-center-y="-146" />
    <path
       sodipodi:type="arc"
       style="fill:#000000;fill-opacity:1;fill-rule:evenodd;stroke:none;display:inline"
       id="path3049"
       sodipodi:cx="149.00233"
       sodipodi:cy="142.00241"
       sodipodi:rx="6.0023398"
       sodipodi:ry="5.9980502"
       d="m 155.00467,142.00241 a 6.0023398,5.9980502 0 1 1 -12.00468,0 6.0023398,5.9980502 0 1 1 12.00468,0 z"
       transform="matrix(0,-0.99961018,1.0003251,0,-5.0481,1057.3064)"
       inkscape:transform-center-x="-137.00045"
       inkscape:transform-center-y="-144" />
  </g>
</svg>
