<svg xmlns="http://www.w3.org/2000/svg" viewBox="0 0 1000 1000"><title>Pewter</title><path d="M431.3,209.46l3.21,7.55c13.43,28.11-18.29,38.09-33.68,49.32a43,43,0,0,1-9.5,5l23.2,35.27-27.17,59.84c35.72-27.44,44.8-26.32,57.14-29.1,22.58-5.1,30.32-12,47.07,13.65,3.6,5.53,2.7,4.92,5.13,10.62l16.3-6.94-32.44-76.18L448.12,202.3Z"/><circle cx="467.66" cy="585.37" r="34.08"/><path d="M372.08,378.75c39.2-33.2,69.17-48.08,127-48.5l-37.31-84.54c-58.06,8.9-112.84,38.94-152.61,89.46-84.68,107.57-63.83,259.83,39,347.61h25.55V672.55c-11.74-8.7-23-14.3-32.44-25.16C273.06,565.82,289.58,441.83,372.08,378.75Z"/><polygon points="586.24 586.92 410.3 280.35 363.19 307.38 539.13 613.96 594.96 659.01 586.24 586.92"/><path d="M610.1,423.66c-27.37-34.77-66.31-51-107.34-51.31h-1.09c-41,.33-80,16.54-107.34,51.31-47.88,60.82-39,147.92,21.81,195.8H430.6v-5.78c-6.7-3.59-13.13-9.22-18.71-15.12-39.15-41.36-28.44-108.8,18.4-150.23,21.17-15.68,46.78-27.44,71.94-27.61,25.16.17,50.78,11.93,71.94,27.61C621,489.76,631.7,557.2,592.56,598.56c-5.58,5.9-12,11.52-18.71,15.12v5.78h14.45C649.11,571.58,658,484.48,610.1,423.66Z"/></svg>