<?xml version="1.0" encoding="utf-8"?>
<!-- Generator: Adobe Illustrator 14.0.0, SVG Export Plug-In . SVG Version: 6.00 Build 43363)  -->
<!DOCTYPE svg PUBLIC "-//W3C//DTD SVG 1.1//EN" "http://www.w3.org/Graphics/SVG/1.1/DTD/svg11.dtd">
<svg version="1.1" id="Layer_1" xmlns="http://www.w3.org/2000/svg" xmlns:xlink="http://www.w3.org/1999/xlink" x="0px" y="0px"
	 width="800px" height="667px" viewBox="0 0 800 667" enable-background="new 0 0 800 667" xml:space="preserve">
<g>
	<path fill-rule="evenodd" clip-rule="evenodd" d="M526.559,94.742c-7.091-0.674-14.116,3.182-17.581,9.376
		c9.253,17.276,33.152,29.272,55.09,17.582c5.634,23.278,17.808,40.018,31.647,55.089c-1.109,10.486,7.232,11.522,5.859,22.27
		c3.207,4.218,8.507,6.342,10.55,11.721c-0.317,3.98,0.907,9.503-1.173,11.722c2.557,5.649,8.687,7.725,14.067,10.549
		c-1.025,14.645,9.669,20.953,15.236,29.303c3.794,5.688,5.8,15.257,9.378,22.27c4.585,8.987,11.014,18.667,12.893,32.819
		c5.908,0.829,8.056-2.104,11.721-3.516c-4.269-10.045-3.307-23.355-4.688-36.335c-0.78-7.323-4.555-14.698-3.517-21.098
		c1.654-10.214,12.337-13.458,14.065-22.271c-4.143-18.736-24.854-23.731-22.271-45.713c16.896-5.686,32.728-11.543,18.754-32.819
		c-0.626-5.706,4.674-5.485,5.859-9.377c0-4.297,0-8.595,0-12.893c-6.817-5.92-5.474-14.514-8.204-22.271
		c-4.413-12.537-16.344-15.123-23.442-24.614c-8.135-0.322-7.924,7.703-15.236,8.205c-3.403-3.496-2.562-10.409,0-14.066
		c-0.624-3.284-5.648-2.167-8.206-3.516c1.687-9.505-3.168-18.396-15.237-17.582c-10.671-18.242-39.031-18.793-45.713-41.024
		c20.769-1.892,38.746,13.315,56.262,21.099c3.323,1.476,5.668,4.875,8.205,8.205c26.298,7.303,36.813,30.389,58.606,42.196
		c7.164,20.299,32.157,39.473,36.336,62.122c4.88,26.454-1.453,55.229,5.859,83.221c-8.057,17.717,5.959,29.483,5.861,43.369
		c-0.129,18.163-25.325,24.997-23.442,48.057c-4.688,12.697-15.84,31.868-11.722,50.4c1.844,8.295,9.701,10.844,11.722,18.755
		c-14.678,6.421-19.491,22.704-24.614,38.68c-6.015,0.936-7.69-2.469-12.894-2.344c-3.885,0.021-1.189,6.623-3.516,8.204
		c-23.924,12.021-23.178,48.713-39.853,67.983c15.695,3.186,25.583-9.575,26.959-24.615c7.381-7.073,10.422-18.489,12.894-30.474
		c9.656-11.287,22.642-0.417,33.99-2.346c9.032-1.533,13.785-12.975,24.614-10.549c12.807-12.49,21.583-21.76,29.304-41.023
		c3.402-8.491,8.104-17.275,7.032-24.615c-1.092-7.487-12.183-13.349-12.894-21.098c-0.58-6.341,4.685-12.306,7.034-17.582
		c3.586,0.71,6.105,2.489,9.376,3.516c0.053-4.74-4.104-5.272-4.688-9.376c6.078-22,9.107-49.076,0-72.671
		c2.252-6.734,1.981-15.991,3.518-23.442c12.501,8.917,17.629,30.764,19.926,46.885c1.333,9.366,2.293,18.243,3.516,28.131
		c2.9,23.473-3.252,48.153-5.861,70.328c-2.331,19.82-7.38,31.096-11.721,46.884c-3.897,14.18-11.487,31.024-15.237,45.713
		c-29.979,31.36-64.025,58.656-98.458,85.564c-5.281,5.269-10.118,10.979-14.065,17.581c-7.889,3.443-14.127,8.536-21.099,12.895
		c-44.727-1.018-79.228,19.312-107.835,41.023c-0.532,6.564-0.472,9.595-3.515,15.238c-13.093-0.751-28.332-13.53-41.025-3.517
		c-19.344,0.873-46.567,0.852-59.777-5.861c-1.836-4.976,3.358-11.973,4.688-17.581c7.09-0.059,14.757-0.692,18.753,2.345
		c34.576-13.601,63.151-41.038,93.771-65.639c12.826-10.308,30.193-24.819,43.368-38.681c9.565-10.064,25.177-26.469,29.303-37.508
		c2.32-6.208,0.346-13.321,2.345-19.927c3.574-11.812,11.104-21.452,15.236-31.646c5.419-13.366,10.601-36.52,11.722-53.916
		c1.233-19.146-8.939-45.749-21.098-62.124c-7.146-9.623-17.065-13.874-19.926-32.819c-7.895-8.125-19.629-12.41-29.304-18.753
		c0-3.126,0-6.251,0-9.377c-1.274-3.804-5.734-4.423-8.205-7.032c-7.467,1.034-14.726,1.469-23.441-2.345
		c-2.28-0.997-3.45-4.536-5.862-5.861c-3.309-1.82-7.44-1.23-9.377-2.344c-3.149-1.814-4.179-5.174-7.032-7.033
		c-2.34-1.525-6.517-0.823-9.377-2.344c-4.212-2.241-7.308-7.827-10.549-9.377c-1.895-0.907-5.01,0.632-7.032,0
		c-8.954-2.794-17.918-9.9-25.787-11.721c-3.021-0.699-5.91,0.44-9.376,0c-18.533-2.355-49.708-8.261-66.811-3.516
		c-13.661,3.789-31.001,9.803-43.369,15.237c-16.66,7.321-28.967,20.661-48.057,26.959c-4.545,6.395-5.491,16.389-7.033,25.787
		c-7.706,4.015-16.243,7.199-24.614,10.549c-1.764,5.318-0.765,9.613,0,15.237c-20.861,8.441-34.2,24.407-46.885,41.024
		c-2.25,10.011,4.5,16.551,4.688,25.787c0.213,10.451-6.114,18.197-3.516,26.958c1.957,6.6,9.106,11.88,12.893,17.582
		c4.153,6.255,7.122,11.804,10.548,18.754c14.129-0.967,24.2,8.013,35.165,4.688c17.732-5.376,0.609-30.456,9.376-45.712
		c10.562,6.238,20.84,12.76,39.853,10.549c13.346-7.361,24.063-17.352,32.819-29.303c-8.107-7.131-17.071-13.405-26.958-18.754
		c-9.891,4.955-7.895,21.799-21.099,23.441c-3.5-8.912,1.536-27.633,3.517-38.68c7.142-4.777,14.403-10.203,22.271-11.721
		c29.407-5.676,66.492,14.096,73.843,37.508c7.829,24.931-1.546,58.441-12.893,75.016c-1.189,1.737-4.427,1.921-5.86,3.517
		c-7.118,7.922-8.457,19.578-17.582,25.785c-9.725,6.615-22.266,14.516-29.304,23.444c-14.219,1.8-20.508,9.353-29.303,11.72
		c-30.991,8.34-66.444,8.631-90.253-2.344c-16.058-7.401-37.726-26.605-50.401-39.853c-12.17-12.718-24.57-27.065-38.68-38.68
		c-3.884-26.322-5.858-47.316-10.549-72.672c3.685-6.082,8.7-10.835,14.065-15.237c-20.146-38.562,8.721-72.769,5.86-111.352
		c-12.509-7.417-20.229,9.168-29.303,11.721c-4.628,1.302-9.353-1.005-14.065,0c-11.463,2.445-33.781,21.841-38.68,32.819
		c-2.243,5.025,1.301,11.766-3.516,15.238c4.098,1.261,13.237,14.489,5.861,19.926c-4.285,3.698-6.503-2.177-8.205-4.688
		c-5.279,2.926-7.741,8.669-8.206,16.41c-14.765,10.63-15.246,35.545-24.614,51.573c-1.369,7.618-1.62,16.353-10.549,16.411
		c-7.762-6.812,1.067-25.601-2.344-35.166c16.839-55.05,34.062-109.716,73.844-141.825c5.833-15.265,22.311-19.885,37.507-25.786
		c3.013-0.114,1.676-4.576,4.689-4.689c24.372-5.569,43.07-18.43,66.811-28.13c6.283-5.829,14.34-9.885,21.098-15.238
		c25.032,4.473,53.53,5.571,77.36,0c17.273-4.039,25.115-20.364,37.508-25.787c8.924,4.425,23.609,18.978,36.335,8.205
		c-1.842-15.349-25.234-9.148-25.786-25.786c1.406-6.408,7.841-7.788,7.033-16.41c-1.925-6.342-8.36-0.956-15.238-2.344
		c-21.83-15.122-54.344-30.846-87.909-17.582c-0.25,6.26,5.247-0.024,7.032,4.689c-3.205,17.547-15.954,5.379-28.131,3.517
		c-15.161-2.319-31.36,3.738-42.196,0c-11.167,5.696-30.933,8.833-44.541,8.205c0.191-1.363-0.258-2.085-1.171-2.345
		c1.798-6.316,11.132-10.712,17.582-14.065c14.769-7.679,41.462-4.638,55.09-17.582c19.556,0.856,37.271-4.675,56.261-8.205
		c19.231-3.575,39.045,0,58.606,0c13.992,0,25.002-1.393,37.507,4.688c0.789,0.383,0.677,3.304,1.172,3.516
		c6.955,2.982,15.388,3.129,21.098,5.861c7.294,3.489,12.494,13.117,25.787,11.721c12.082,15.658,46.791,8.689,62.122,21.099
		c15.768,4.116,39.758-0.457,49.229,10.548C520.669,80.42,517.221,89.957,526.559,94.742z"/>
	<path fill-rule="evenodd" clip-rule="evenodd" d="M72.95,318.617c5.069,0.401,9.489,1.451,11.721,4.688
		c0.596,5.675-5.372,4.787-3.517,11.721c-3.841,0.065-4.481,3.334-9.377,2.343C72.326,332.838,69.591,321.817,72.95,318.617z"/>
	<path fill-rule="evenodd" clip-rule="evenodd" d="M99.908,394.804c-3.696-4.117-7.738-7.89-9.377-14.064
		C99.911,371.544,103.985,385.293,99.908,394.804z"/>
	<path fill-rule="evenodd" clip-rule="evenodd" d="M376.528,619.852c8.4,2.895,11.37,18.001,1.172,21.098
		C367.885,637.747,374.018,626.472,376.528,619.852z"/>
	<path fill-rule="evenodd" clip-rule="evenodd" d="M347.225,643.293c-3.547,8.046-22.653,10.139-26.958,1.173
		C323.225,633.826,343.995,632.232,347.225,643.293z"/>
</g>
</svg>
