<svg xmlns="http://www.w3.org/2000/svg" viewBox="0 0 1000 1000"><title>Duralumin</title><path d="M766,420.65l-7.91,2.46c-35.23,13.26-37.73-12.62-46.36-36-1.79-4.87-5.37-10.58-5.63-11.44l-35.93,18.27-49.52-15.36c18,26.71,20.9,32.76,23,45.35,2.43,14.36,1.65,29.46-26,42.83-6,2.9-5.22,2.21-11.19,4.07l5.31,17.08,79.81-24.8,79.81-24.8Z"/><path d="M740.09,359l-7.54,3.42c-30.8,17-38-6.26-52.74-25.1-3.19-4.09-7.34-8.91-7.71-9.72l-30.44,16.8-64.2,2c15.94,12,38.87,25.93,41.32,33.25,4.62,13.81,5.65,26.82-20.07,43.52-5.59,3.63-4.9,2.85-10.6,5.43l7.39,16.28,76.1-34.55,76.1-34.55Z"/><path d="M390.61,750l2.58-7.87c13.57-32.47-9.57-40.29-29.9-52.87-4.41-2.73-9.65-6.32-10.51-6.6l12.57-28.9,2.2-62c13.67,14.54,27,32,33.91,35.55,13,6.58,23.72,2.58,37.52-24.8,3-5.95,2.29-5.18,4.24-11.13l17,5.57-26,79.42-26,79.42Z"/><path d="M451.5,767.25l1.79-8.08c8.21-31.7-14.62-37.73-38.68-44.38-5-1.38-11.57-4.54-12.45-4.73L416.88,674l-19.41-48.08c28.1,15.68,34.38,18.11,47.1,19.19,14.51,1.23,29.5-.8,40.53-29.41,2.4-6.22,1.77-5.38,3.12-11.49l17.46,3.87L487.6,689.65l-18.09,81.59Z"/><path d="M463,357l-8.13,8.68C437,384.73,412.52,375.82,390.6,355.3l.06-.07L304.1,274.17l-66.57-26.72L267,313.81h0l86.57,81.07-.06.07c21.91,20.52,34,42.67,16.12,61.76l-8.13,8.68L374.94,478l50.77-54.22,50.77-54.22Z"/><circle cx="521.08" cy="514.43" r="34.08" transform="translate(-129.16 177.76) rotate(-17.26)"/><path d="M255.4,519.86A240.41,240.41,0,0,0,476.72,727.46L492,653.91c-34.7-.28-71.89-8.61-99.24-34C326.5,558.62,313.42,464.52,369,391.62s145.5-84,225.29-36.1c39.81,23.9,52.87,68.8,58.21,111.6l77.63-20.25c-14.09-58.5-42.44-113.19-91-150.2A238.44,238.44,0,0,0,494,247.44a244,244,0,0,0-32.62,2.2,240.25,240.25,0,0,0-206,270.21Z"/></svg>