<?xml version="1.0" encoding="utf-8"?>
<!-- Generator: Adobe Illustrator 14.0.0, SVG Export Plug-In . SVG Version: 6.00 Build 43363)  -->
<!DOCTYPE svg PUBLIC "-//W3C//DTD SVG 1.1//EN" "http://www.w3.org/Graphics/SVG/1.1/DTD/svg11.dtd">
<svg version="1.1" id="Layer_1" xmlns="http://www.w3.org/2000/svg" xmlns:xlink="http://www.w3.org/1999/xlink" x="0px" y="0px"
	 width="800px" height="800px" viewBox="0 0 800 800" enable-background="new 0 0 800 800" xml:space="preserve">
<g>
	<path fill-rule="evenodd" clip-rule="evenodd" d="M546.031,16.998c5.321,1.208,9.796,3.263,17.284,2.305
		c0.101,3.74,6.871,0.811,5.762,5.762c19.181,1.696,28.305,17.942,42.634,26.503c4.73,2.824,9.803,2.697,13.829,5.761
		c21.255,16.176,33.833,41.412,56.462,56.463c1.234,4.144,3.387,7.368,6.913,9.218c5.686,25.534,29.807,39.973,32.265,73.748
		c3.028,41.59-6.366,97.701,6.913,129.057c-3.681,6.973-2.777,16.12-6.913,24.199c-2.204,4.308-7.9,6.961-10.371,11.523
		c-2.512,4.641-3.662,14.211-6.913,23.046c-5.371,14.59-16.508,32.709-13.826,55.311c1.239,10.457,7.901,14.348,11.521,24.197
		c-7.837,10.983-18.5,19.142-19.589,36.875c-18.729,4.316-20.962,25.129-35.721,33.415c0,3.073,0,6.146,0,9.219
		c-7.084,11.219-7.95,23.854-13.828,34.569c-3.773,6.879-12.631,12.051-9.218,23.047c16.278-0.239,18.613-14.419,29.959-19.59
		c-4.587-19.376,12.254-26.784,10.371-47.245c12.015-0.66,16.06-9.289,23.046-14.979c7.244,2.74,15.749,4.223,23.046,6.913
		c12.896-17.064,36.602-23.317,40.331-49.55c10.232-10.506,12.192-29.287,17.284-44.939c0.991-5.6-7.511-1.708-8.067-5.761
		c0-12.29,0-24.582,0-36.874c2.126-2.869,7.245-2.742,6.915-8.066c1.805-7.566-4.657-6.866-5.761-11.523
		c0.785-5.136,4.366-1.505,5.761-6.914c0.608-4.834-2.014-6.437-2.304-10.371c16.654-24.447-10.686-53.963,1.15-78.356
		c13.601-1.967,17.351,19.967,19.591,33.417c1.989,11.956,0.312,22.092,1.151,36.873c0.765,13.473,6.34,26.169,5.761,38.026
		c-1.259,25.799-5.106,51.396-5.761,74.9c-0.098,3.479,1.753,9.062,1.152,12.674c-0.897,5.387-7.211,10.535-9.219,17.284
		c-1.252,4.212-0.05,8.712-1.152,12.676c-2.398,8.627-9.481,18.932-12.674,28.808c-2.721,8.413-2.354,16.535-5.763,21.894
		c-1.75,2.753-6.084,4.128-8.065,6.914c-20.891,29.35-53.327,54.205-73.748,80.661c-14.038,9.392-25.87,20.989-33.416,36.872
		c-5.62,3.217-11.627,6.043-16.133,10.371c-21.811,2.723-44.792,8.558-66.834,19.589c-2.628,1.315-5.436,5.421-8.065,6.915
		c-4.432,2.518-10.604,2.524-16.132,5.763c-12.304,7.203-40.262,20.559-33.416,38.025c-7.559,7.876-12.305,1.06-20.742,0
		c-33.642-4.229-88.142,19.483-97.945-11.524c6.974-8.749,19.022-12.405,32.263-6.913c21.396-10.876,40.124-24.619,58.769-41.483
		c6.152-5.564,13.001-10.727,18.437-16.132c5.333-5.305,8.069-13.249,13.826-18.437c3.308-2.979,8.102-3.999,11.524-6.913
		c4.014-3.419,5.685-8.898,9.218-12.676c3.922-4.192,10.09-6.444,13.827-10.371c17.389-18.269,29.811-40.528,46.092-59.919
		c7.419-53.199,35.065-99.708,28.809-155.562c-0.875-7.802-3.951-16.982-6.913-23.045c-3.971-8.125-7.924-12.934-12.676-23.046
		c-3.803-8.089-9.401-15.072-16.133-20.742c-1.534-19.589-11.353-30.899-19.588-43.788c-5.315-0.062-11.267,0.512-14.98-1.152
		c-2.152-5.704-5.316-9.172-3.457-16.132c-4.145-8.916-13.973-12.147-26.503-12.676c-10.799-5.286-20.059-12.489-31.112-18.436
		c-3.271-1.761-4.303-5.25-6.914-6.915c-4.98-3.175-12.491-5.742-18.437-9.218c-15.926-9.313-34.172-16.156-59.919-19.589
		c-12.909-1.722-31.771-2.812-43.788-1.152c-5.9,0.815-10.507,6.228-16.133,8.066c-4.336,1.417-12.481,0.797-19.589,3.457
		c-26.405,13.794-58.759,30.935-81.813,51.854c-2.269,11.175-5.43,21.458-9.218,31.111c-6.971,3.401-17.724,3.019-21.894,9.219
		c0.281,5.096,2.359,8.395,2.304,13.828c-3.879,9.18-14.553,11.565-21.894,17.284c-3.915,7.978-13.202,13.407-18.437,20.742
		c-4.205,5.892-11.171,18.331-11.522,25.351c-0.378,7.522,5.709,15.416,5.761,24.198c0.056,9.35-3.241,13.905-6.914,23.047
		c8.753,23.126,21.102,42.657,35.721,59.919c12.388-1.928,23.753,1.701,35.722-1.151c13.059-9.897-0.905-25.552,0-40.331
		c19.565,4.862,40.565,1.788,56.463-1.152c10.855-11.422,22.784-21.771,26.503-40.331c-8.875-7.64-19.025-14.007-25.351-24.198
		c-9.084,6.663-12.543,18.953-14.979,32.265c-4.235-0.374-6.376-2.842-10.371-3.457c-3.277-12.004,0.259-28.682,1.152-36.874
		c11.009-8.446,19.076-19.305,34.568-20.742c19.932-1.847,35.518,11.955,50.701,14.98c12.193,14.763,25.038,28.046,27.656,53.006
		c3.784,36.082-21.608,77.377-40.331,93.335c-2.048,4.549-4.075,12.098-8.066,14.981c-20.429,14.756-47.911,29.459-73.747,38.024
		c-31.081,10.306-72.795,1.149-94.488-11.521c-10.032-5.86-15.789-10.998-24.199-19.59c-14.148-14.455-25.223-31.872-40.33-47.244
		c-12.531-12.75-22.557-15.859-24.199-36.875c-1.02-13.056-3.394-19.312-4.609-35.721c-1.499-20.253-8.636-33.388,6.914-41.482
		c0.073-22.602-9.783-41.359-6.914-63.376c2.966-22.75,14.638-42.74,19.589-62.225c13.38-8.758,19.589-27.277,29.96-42.635
		c13.234-19.599,26.568-36.675,39.178-56.462c9.604-0.415,12.643-9.259,21.894-10.371c13.323-1.603,28.152,8.67,42.634,5.761
		c16.251-3.264,19.6-22.438,33.417-29.959c20.404,0.198,45.864-3.897,62.224-11.523c3.031-8.876,5.628-18.186,9.219-26.502
		c5.424,3.472,17.604,5.497,26.502,2.305c5.08-1.823,8.368-9.349,13.828-11.523c3.038-1.209,7.705-0.227,12.675-1.152
		c12.559-2.338,22.463-7.826,41.483-8.066c19.885-0.251,46.143-1.131,58.767,2.304c16.209,4.41,19.088,26.811,32.266,34.569
		c-6.592,4.389-15.592-0.611-21.896,1.152c-13.126,3.672-15.3,20.686-19.587,34.569c11.84,6.626,21.03-6.687,35.721-4.61
		c5.295,18.104,25.621,24.811,36.872,33.417c7.462,0.546,7.458-6.37,14.98-5.762c2.34,16.483,12.256,25.387,14.98,41.483
		c0.665,2.792,4.352,2.562,6.913,3.457c3.596,14.458,12.901,23.204,19.59,34.569c0.246,10.892,2.852,19.426,12.675,20.741
		c4.572,19.196,15.532,34.798,23.047,51.853c7.326,16.63,13.119,35.417,21.893,50.702c4.136,0.679,5.574-1.339,8.066-2.304
		c-6.786-33.305-13.613-74.185,5.762-97.946c-7.974-16.994-22.37-27.563-23.046-51.854c4.997-5.226,12.555-7.037,20.74-3.457
		c14.168-3.027,4.663-16.321,3.457-28.808c-1.606-16.652,5.658-38.288,1.153-51.854c-7.187-12.403-17.522-21.657-25.351-33.417
		c-7.922,0.306-8.878,6.075-14.981,4.609c-7.463-1.792-7.235-16.294-16.13-13.827c-0.247-5.238,6.716-3.27,8.064-6.914
		c-4.531-8.924-9.653-15.186-19.588-16.132C593.025,45.287,554.578,46.092,546.031,16.998z"/>
	<path fill-rule="evenodd" clip-rule="evenodd" d="M22.888,390.342c0.38,6.91-2.839,10.22-5.761,13.828
		C-0.943,401.006,13.977,374.844,22.888,390.342z"/>
	<path fill-rule="evenodd" clip-rule="evenodd" d="M35.562,458.328c-2.762,3.993-7.176,1.868-10.371,3.457
		c-2.176-0.128-0.799-3.81-3.457-3.457C22.3,447.297,33.891,450.136,35.562,458.328z"/>
	<path fill-rule="evenodd" clip-rule="evenodd" d="M357.054,747.555c0,2.305,0,4.609,0,6.914c-4.949,1.58-7.586,5.474-12.675,6.914
		c-5.989-2.845-12.186-5.483-10.371-16.132C339.908,741.689,349.805,741.743,357.054,747.555z"/>
	<path fill-rule="evenodd" clip-rule="evenodd" d="M305.201,763.688c-2.767,6.067-7.825,9.843-11.523,14.979
		c-4.854-5.134-13.208-6.766-13.828-16.133C287.633,754.776,299.045,755.209,305.201,763.688z"/>
</g>
</svg>
