<?xml version="1.0" encoding="utf-8"?>
<!-- Generator: Adobe Illustrator 14.0.0, SVG Export Plug-In . SVG Version: 6.00 Build 43363)  -->
<!DOCTYPE svg PUBLIC "-//W3C//DTD SVG 1.1//EN" "http://www.w3.org/Graphics/SVG/1.1/DTD/svg11.dtd">
<svg version="1.1" id="Layer_1" xmlns="http://www.w3.org/2000/svg" xmlns:xlink="http://www.w3.org/1999/xlink" x="0px" y="0px"
	 width="589px" height="800px" viewBox="0 0 589 800" enable-background="new 0 0 589 800" xml:space="preserve">
<g>
	<path fill-rule="evenodd" clip-rule="evenodd" d="M428.177,27.211c11.802,12.733,23.61-9.312,34.15-12.521
		c25.546,11.337,41.371-11.273,68.298-3.415c1.927,15.661-22.514,14.615-33.012,21.628c-18.137,2.738-35.314,10.86-53.5,17.074
		c-15.433,5.274-29.435,15.473-46.67,22.767c-3.368,1.426-6.018,5.371-9.106,6.83c-12.555,5.931-26.646,5.43-33.011,18.213
		c-10.703,1.526-31.882,2.201-39.841,10.245c-24.967-2.33-35.616,13.432-54.638,21.628c-7.083,6.956-15.456,12.622-21.628,20.489
		c11.88-5.729,25.536-5.546,34.149-12.521c15.686,1.223,36.965,10.08,56.915,6.83c3.469-4.121,5.241-9.937,9.107-13.659
		c9.899-1.554,14.918,1.777,20.488,4.553c37.874-16.72,85.516,6.972,114.97,20.489c5.922,10.773,9.508,23.882,14.798,35.288
		c-8.932,1.287-13.72-9.794-22.766-9.106c-9.907,0.754-24.365,18.02-12.522,27.32c5.09-0.223,6.063-4.561,10.244-5.691
		c7.535,1.951,9.019,9.954,17.076,11.383c-0.311,3.865,0.881,9.229-1.14,11.382c11.566,5.89,15.742,19.167,31.873,20.49
		c5.519,23.699,6.228,52.204,19.351,68.299c-0.764,5.306-3.333,8.808-4.553,13.659c7.979,4.084,9.84,18.256,13.659,29.596
		c9.875-4.166,2.43-25.649,10.246-31.873c17.535,6.64,20.231,33.132,22.766,60.33c2.372,25.469,1.896,57.222,0,79.682
		c-0.501,5.934-2.532,11.271-2.276,17.074c0.236,5.379,2.549,9.94,2.276,14.799c-0.535,9.534-8.731,18.054-10.245,28.457
		c-0.921,6.332,1.535,12.188,1.139,18.213c-1.101,16.725-13.247,30.923-11.383,46.67c-16.541,5.088-24.036,19.221-34.149,30.734
		c4.892,27.532-4.698,45.776-19.351,59.191c-4.105-0.447-7.634-1.473-11.384-2.275c-3.48-4.11-4.508-10.669-7.969-14.798
		c-12.005,3.55-17.564,13.549-26.181,20.489c-5.488,0.749-11.271,0.701-15.936,2.275c-6.633,2.239-11.084,9.117-17.075,12.522
		c-2.299,1.306-5.01-0.063-6.83,1.139c-13.297,8.782-23.021,21.972-37.563,28.457c0.854,5.597,0.369,12.53,5.691,13.659
		c4.797,3.966,2.403-6.866,9.106-4.553c-0.269,4.918-2.497,9.139-6.83,6.83c1.668,3.482,0.308,5.93-1.138,9.106
		c-5.453,2.136-9.453,5.725-18.212,4.553c-3.169-5.152-2.473-13.829,0-19.352c-10.999,1.145-15.24,9.045-15.937,20.489
		c-8.812,0.066-14.564,6.484-22.768,7.969c-3.693,0.669-8.413-1.021-12.521,0c-6.37,1.585-8.941,7.4-14.799,10.245
		c-12.028,5.841-25.257,5.398-38.702,4.553c2.249-11.031,12.407-14.153,22.766-17.074c27.35-13.68,49.147-29.187,71.713-44.394
		c5.739-3.868,11.355-7.964,15.937-12.521c8.078-8.037,12.001-20.568,23.904-26.182c16.514-29.776,43.958-48.624,64.883-73.99
		c-20.812,0.913-33.617,19.387-48.946,29.596c-10.925,7.275-23.571,6.956-35.287,14.798c-25.875,0.713-49.991,9.166-75.129,6.83
		c3.448-11.637,18.411-12.808,28.458-17.074c10.66-4.527,21.504-9.28,31.873-12.521c1.795-1.998,5.226-2.362,5.69-5.691
		c33.081-6.769,61.519-32.779,88.789-52.362c8.196-24.435,25.49-39.772,38.701-59.192c3.181-13.895,10.665-23.483,15.937-35.286
		c4.087-24.812,7.391-61.294-7.969-76.267c2.368-18.685-3.471-29.162-4.554-44.395c-2.742-6.743-13.21-5.761-15.935-12.521
		c7.49-20.292-11.702-24.025-22.767-33.012c-8.443-6.857-9.881-16.676-18.212-18.212c-17.119-29.513-50.013-46.662-84.235-59.191
		c-19.128-7.003-54.544-11.39-83.096-4.553c-3.373,0.807-7.121,4.405-11.383,5.691c-12.025,3.631-27.529,2.027-36.426,7.969
		c-6.364,4.25-9.403,18.943-17.075,22.765c-6.871,3.424-15.875-0.134-21.628,4.553c-2.714,4.115-2.248,11.412-4.553,15.937
		c-31.81,0.827-41.208,22.015-59.191,38.703c9.615,20.31-9.236,25.508-9.106,43.255c0.072,9.942,8.794,23.759,11.382,35.287
		c1.75,7.798,1.014,12.604,6.83,17.074c10.794-1.331,19.629,10.773,28.458,10.246c11.659-0.698,12.163-13.532,11.383-30.733
		c8.628-4.099,22.204,2.53,27.318,9.106c8.123-2.953,16.512,3.93,25.043,2.274c7.77-1.507,30.893-21.216,29.596-31.872
		c-1.25-10.258-18.909-13.306-23.905-22.766c-9.064,7.251-12.524,20.108-25.043,23.905c5.47-25.684,14.269-47.596,40.979-44.394
		c33.831,4.055,62.839,41.777,51.223,81.958c-10.412,36.016-61.021,69.894-99.032,75.128c-37.268,5.133-74.921-2.591-95.618-18.213
		c-18.1-13.662-26.099-35.982-39.841-55.777c-5.112-17.273-12.579-32.194-22.766-44.394c2.196-25.881,5.345-50.812,11.383-72.851
		c2.664-5.683,10.336-6.358,13.659-11.383c0.071-17.653,1.08-31.175,6.83-44.394c2.367-5.442,4.827-12.506,6.83-15.936
		c4.031-6.904,11.198-12.521,17.075-20.49c14.72-19.958,33.963-45.168,55.776-59.191c3.458-16.653,10.408-29.812,26.181-34.149
		c10.17-21.703,30.717-33.028,46.671-48.948c21.401,7.388,42.453-1.282,45.532-21.627c6.941-6.339,15.17-11.39,21.627-18.213
		c11.741-1.495,16.716,3.773,21.629,9.106c0.135,7.345-4.598,9.823-4.555,17.075c12.29,3.452,17.837-7.376,29.596-7.968
		c6.335-0.318,12.439,5.465,19.353,5.691c4.441,0.146,8.38-2.913,12.521-3.415c3.231-0.391,6.958,1.263,10.245,1.138
		c7.223-0.272,14.33-5.075,21.628-6.829c5.535-1.331,11.214,2.014,14.798-3.415c-2.32-5.708,1.719-10.768-2.277-14.798
		c-0.014-12.535,14.225-10.817,21.628-15.936C443.342,16.082,429.717,21.346,428.177,27.211z"/>
	<path fill-rule="evenodd" clip-rule="evenodd" d="M19.526,276.5c5.431,4.136,2.74,13.068-1.138,17.074
		C10.498,291.658,6.466,275.437,19.526,276.5z"/>
	<path fill-rule="evenodd" clip-rule="evenodd" d="M14.973,331.139c7.409,1.06,7.235,8.121,3.416,12.521
		C13.911,341.75,10.811,335.428,14.973,331.139z"/>
	<path fill-rule="evenodd" clip-rule="evenodd" d="M209.624,652.14c-1.945,3.046-7.253,11.546-9.106,11.384
		C186.335,662.284,201.553,630.389,209.624,652.14z"/>
	<path fill-rule="evenodd" clip-rule="evenodd" d="M169.783,655.555c-5.879-0.187-6.631,4.752-10.245,6.83
		c-7.711-1.394-11.562-6.65-15.936-11.384C147.61,638.021,167.281,649.119,169.783,655.555z"/>
	<path fill-rule="evenodd" clip-rule="evenodd" d="M255.155,653.278c0.029,11.42-15.776,8.466-19.351,2.276
		C237.936,649.78,250.349,649.791,255.155,653.278z"/>
	<path fill-rule="evenodd" clip-rule="evenodd" d="M223.283,794.428c-1.897,0-3.794,0-5.691,0
		C220.856,788.361,229.236,783.936,223.283,794.428z"/>
</g>
</svg>
