<?xml version="1.0" encoding="UTF-8" standalone="no"?>
<!-- Created with Inkscape (http://www.inkscape.org/) -->

<svg
   xmlns:dc="http://purl.org/dc/elements/1.1/"
   xmlns:cc="http://creativecommons.org/ns#"
   xmlns:rdf="http://www.w3.org/1999/02/22-rdf-syntax-ns#"
   xmlns:svg="http://www.w3.org/2000/svg"
   xmlns="http://www.w3.org/2000/svg"
   xmlns:sodipodi="http://sodipodi.sourceforge.net/DTD/sodipodi-0.dtd"
   xmlns:inkscape="http://www.inkscape.org/namespaces/inkscape"
   width="58.096321mm"
   height="63.260979mm"
   viewBox="0 0 205.85311 224.15307"
   id="svg2"
   version="1.1"
   inkscape:version="0.91 r13725"
   sodipodi:docname="Modern zeras.svg">
  <defs
     id="defs4" />
  <sodipodi:namedview
     id="base"
     pagecolor="#ffffff"
     bordercolor="#666666"
     borderopacity="1.0"
     inkscape:pageopacity="0.0"
     inkscape:pageshadow="2"
     inkscape:zoom="1.4"
     inkscape:cx="245.53182"
     inkscape:cy="164.81409"
     inkscape:document-units="px"
     inkscape:current-layer="layer3"
     showgrid="false"
     inkscape:window-width="1366"
     inkscape:window-height="705"
     inkscape:window-x="-8"
     inkscape:window-y="-8"
     inkscape:window-maximized="1"
     fit-margin-top="0"
     fit-margin-left="0"
     fit-margin-right="10"
     fit-margin-bottom="0" />
  <metadata
     id="metadata7">
    <rdf:RDF>
      <cc:Work
         rdf:about="">
        <dc:format>image/svg+xml</dc:format>
        <dc:type
           rdf:resource="http://purl.org/dc/dcmitype/StillImage" />
        <dc:title></dc:title>
      </cc:Work>
    </rdf:RDF>
  </metadata>
  <g
     inkscape:groupmode="layer"
     id="layer3"
     inkscape:label="Layer 3"
     style="display:inline;opacity:1"
     transform="translate(-459.34061,-361.852)">
    <path
       id="path4168"
       style="opacity:1;fill:#000000;fill-opacity:1"
       d="m 586.68624,455.24179 -5.09948,-4.73672 1.35519,-5.5 c 3.96813,-16.10465 5.29785,-33.32531 3.21269,-41.60626 -1.23922,-4.92138 -5.87903,-9.39374 -9.74544,-9.39374 -6.85655,0 -14.10938,7.01738 -14.14239,13.68328 l -0.0189,3.81672 -5.88121,-6.0471 c -5.10431,-5.24827 -5.81148,-6.43718 -5.35331,-9 1.16426,-6.5123 8.0197,-12.4529 14.37062,-12.4529 5.43134,0 27.36389,17.71197 29.71895,24 1.9783,5.28206 2.27606,18.53581 0.73696,32.80349 -1.62613,15.07454 -2.36092,19.205 -3.41262,19.18323 -0.35287,-0.007 -2.93635,-2.1448 -5.74106,-4.75 z m -90.33716,2.42412 c -3.10107,-9.48997 -4.54113,-40.35241 -2.25207,-48.26513 1.32899,-4.59401 6.88124,-10.25991 19.25772,-19.6519 4.90276,-3.7205 8.52473,-5.74381 10.28212,-5.74381 7.22312,0 14.64886,6.65507 14.64886,13.12855 0,2.84437 -0.95202,4.37996 -5.5,8.87145 l -5.5,5.43168 0,-3.49333 c 0,-4.98886 -4.33868,-10.97602 -9.32878,-12.87325 -4.67274,-1.77657 -7.0607,-1.22909 -10.89868,2.49873 -4.43987,4.31244 -5.32523,8.66327 -4.44814,21.85904 0.57522,8.65425 3.9496,27.59342 5.30786,29.79114 0.3527,0.57067 -1.87362,3.41585 -4.94737,6.32263 l -5.58864,5.28504 z m 37.22452,33.1193 c 0.2022,-7.79572 -3.42196,-16.08392 -11.27282,-25.78014 -6.8994,-8.52112 -9.24404,-13.96734 -9.17823,-21.31956 0.0811,-9.06099 2.49398,-14.05562 16.59305,-27.99865 6.8129,-6.7375 13.23895,-12.04977 13.88998,-12.04575 0.65103,0.004 -4.95445,6.26077 -10.07019,11.34411 -5.11574,5.08334 -7.49468,7.10387 -9.23274,10.69292 -1.73806,3.58905 -1.48137,3.92533 -1.66712,7.05839 0.3868,8.04459 3.58555,11.70772 10.9747,20.86457 3.10275,3.84502 6.75411,9.87322 8.28747,13.68217 l 2.74103,6.80884 2.405,-5.7031 c 2.90431,-6.88714 4.35694,-9.24166 10.10814,-16.38394 6.34866,-7.88424 8.15805,-12.22493 9.00474,-20.30079 0,0 -0.12982,-3.60058 -1.47064,-6.69525 -1.34082,-3.09467 -5.82942,-7.39459 -8.36295,-10.22298 -2.53353,-2.82839 -10.83342,-10.79269 -10.52063,-11.10549 0.31279,-0.3128 4.05775,1.91205 14.56791,12.33757 10.51016,10.42552 16.1227,18.83609 16.10246,27.75924 -0.0164,7.2425 -2.43783,12.84278 -9.12643,21.10787 -7.86192,9.71497 -11.35402,17.30691 -11.43947,24.86983 -0.0388,3.4375 -0.39355,6.25 -0.78824,6.25 -0.39469,0 -2.83338,-2.45069 -5.41933,-5.44598 l -4.70172,-5.44598 -5.7934,5.97612 -5.79341,5.97612 0.16288,-6.28014 z m 6.28588,16.57831 -4.92622,-5.61631 4.80706,-4.35147 4.80707,-4.35147 3.71536,2.94261 c 6.74806,5.34457 6.74451,5.31593 1.42291,11.47991 -2.62977,3.04605 -4.80807,5.5326 -4.84068,5.52566 -0.0326,-0.007 -2.27607,-2.53996 -4.9855,-5.62893 z m 26.18446,15.81416 c -6.93514,-7.41422 -8.1744,-10.39663 -8.1744,-19.67261 0,-5.68256 0.50363,-8.94416 1.73858,-11.25931 2.10402,-3.94439 10.9631,-11.05905 19.16,-15.38723 19.0062,-10.03579 20.58113,-12.40368 22.8492,-34.35346 2.27552,-22.02186 2.85142,-36.72109 1.64892,-42.0869 -2.08562,-9.30645 -10.13998,-17.23121 -16.26747,-16.00571 -2.74294,0.54859 -3.68535,0.0598 -7.91341,-4.10473 -5.31712,-5.23717 -5.77977,-6.30266 -2.7367,-6.30266 5.69541,0 22.24609,11.56969 29.5326,20.64465 7.90708,9.84785 8.68614,14.51875 7.48705,44.88918 -0.80769,20.45699 -1.262,24.87065 -3.05269,29.65668 -2.71251,7.24984 -7.98968,12.09635 -19.13292,17.57153 -16.03584,7.87913 -22.89699,16.63253 -22.89699,29.2118 0,4.41767 0.52664,7.33303 1.602,8.86832 2.93916,4.19625 0.75601,3.24799 -3.84377,-1.66955 z m -47.72643,4.28034 c 0.0175,-0.52412 0.6925,-1.82646 1.5,-2.89408 2.40243,-3.17629 1.90786,-14.0852 -0.9094,-20.05887 -3.42719,-7.26697 -8.40969,-11.60953 -20.14759,-17.55986 -20.2807,-10.28097 -22.13127,-14.84437 -22.68508,-55.94014 -0.27659,-20.52465 -0.18451,-21.76057 2.02978,-27.24374 2.32071,-5.74672 11.11111,-15.79695 19.19732,-21.94866 7.11986,-5.41654 17.98317,-9.6572 17.98317,-7.02001 0,0.43318 -2.15984,2.91496 -4.79965,5.51507 -4.26849,4.20431 -5.15253,4.6569 -7.98832,4.08975 -6.58891,-1.31779 -14.95355,7.83545 -16.54753,18.10759 -0.785,5.0588 0.99928,35.55786 2.77608,47.45197 2.2475,15.04509 3.41774,16.39088 24.6684,28.36913 7.12699,4.01723 14.66485,10.35223 16.57961,13.9339 1.24202,2.32327 1.72933,5.54114 1.7156,11.32866 -0.0164,6.89871 -0.40183,8.73104 -2.62958,12.5 -2.65212,4.48694 -10.80093,13.11096 -10.74281,11.36929 z m 54.77443,50.79705 c -6.72685,-6.91826 -10.80623,-13.8857 -10.80623,-18.45668 0,-4.94737 3.36617,-12.02963 7.40175,-15.57291 6.1673,-5.41497 6.59825,-6.64792 6.59825,-18.87782 0,-16.65683 0.62757,-17.71121 17,-28.56176 5.775,-3.82728 11.7347,-8.38117 13.24378,-10.11976 4.23044,-4.87382 8.4205,-13.42985 10.86992,-22.19618 2.08213,-7.45182 2.23067,-10.05842 2.30589,-40.46489 0.0704,-28.46453 -0.14019,-33.21341 -1.69623,-38.24555 -3.26761,-10.56725 -10.2982,-15.60963 -17.0607,-12.23605 -3.05465,1.52386 -3.05889,1.52197 -8.38711,-3.74006 -4.82112,-4.76123 -5.16654,-5.38488 -3.6121,-6.52152 2.28686,-1.67219 7.59862,-1.59199 11.8365,0.17871 5.98005,2.49863 23.41625,16.8622 26.6687,24.96854 1.00902,2.51486 1.23861,3.64639 1.48313,6.31602 0.82543,9.01205 0.73184,37.77991 0.73184,37.77991 -0.12416,38.40421 -0.65625,44.12323 -4.90686,52.73974 -5.02513,10.18656 -7.66856,13.01423 -19.88365,21.2695 -6.51807,4.40508 -13.03051,9.53937 -14.47208,11.40954 -2.45079,3.17946 -2.62744,4.12577 -2.71973,14.56986 -0.0543,6.14325 -0.42069,12.4525 -0.81425,14.02055 -0.39356,1.56805 -3.00649,5.35745 -5.80653,8.4209 -8.57069,9.37698 -9.69323,15.49562 -4.38542,23.90374 3.46956,5.49613 2.10742,5.27454 -3.58887,-0.58383 z m -60.2803,0.89017 c 5.50881,-8.32436 4.34943,-14.58632 -4.5716,-24.6919 -3.27488,-3.70973 -5.98101,-7.46571 -6.01361,-8.34662 -0.0326,-0.88091 -0.15205,-6.77665 -0.26544,-13.10165 -0.12429,-6.9327 -0.69911,-12.37242 -1.44736,-13.69666 -1.48865,-2.6346 -10.39545,-9.53724 -18.89216,-14.64114 -7.92015,-4.75758 -11.69435,-9.1334 -16.48003,-19.10702 -3.53993,-7.37741 -3.94968,-9.11817 -4.83888,-20.55754 -1.31535,-16.92151 -1.27173,-58.23779 0.0692,-65.56398 1.64965,-9.01279 5.22633,-15.11313 14.2237,-24.25979 11.35927,-11.54773 20.68946,-15.8198 26.02679,-11.91705 1.55444,1.13664 1.20902,1.76029 -3.6121,6.52152 -5.32822,5.26203 -5.33246,5.26392 -8.38711,3.74006 -6.60471,-3.29486 -13.03694,1.02246 -16.60843,11.1476 -1.77337,5.02749 -2.11536,8.87536 -2.47382,27.834 -0.77977,41.24091 1.43695,55.71359 10.71443,69.95321 3.49963,5.37144 5.77932,7.42989 14.92712,13.47845 11.76372,7.77821 15.41005,11.07011 17.03974,15.38344 0.58499,1.5483 1.06659,7.8483 1.07021,14 0.007,12.15812 0.43322,13.39847 6.60853,19.23877 4.14891,3.92383 7.38488,10.51668 7.38488,15.04569 0,4.4964 -4.3461,11.99373 -10.8114,18.65044 -5.58243,5.7477 -7.12539,6.1227 -3.66267,0.89017 z m 12.33209,-0.91495 c 3.86112,-4.27612 7.49762,-9.03042 8.0811,-10.5651 1.75799,-4.62386 1.26459,-10.08158 -1.24492,-13.77057 -1.2682,-1.86425 -3.9682,-5.80255 -6,-8.75176 -4.1388,-6.00756 -4.81508,-11.00488 -2.05229,-15.16528 2.36829,-3.56634 16.63044,-17.97251 17.79284,-17.97251 0.53992,0 -0.88589,1.9125 -3.16845,4.25 -4.6731,4.78556 -6.63609,8.99932 -5.65178,12.13208 0.36599,1.16486 2.57535,4.59292 4.90968,7.61792 2.33434,3.025 4.81661,6.61421 5.51617,7.97601 1.20345,2.34273 1.3308,2.37481 2.36577,0.5959 0.60162,-1.03407 3.15275,-4.62328 5.66917,-7.97602 7.19706,-9.58898 7.14518,-12.67891 -0.34161,-20.34589 -2.28256,-2.3375 -3.70899,-4.25 -3.16983,-4.25 1.70198,0 17.28332,16.37056 18.38391,19.3151 1.70444,4.56006 1.22639,8.15377 -1.6356,12.29535 -8.86396,12.82708 -9.31218,13.66303 -9.31218,17.36792 0,5.71942 2.33141,10.17769 8.97129,17.15553 3.31579,3.48456 6.02871,6.55899 6.02871,6.83207 0,1.39329 -20.50189,-20.07497 -22.69156,-23.76114 -2.79516,-4.70549 -2.71309,-4.70822 -5.71584,0.19058 -2.20761,3.60157 -21.90186,24.60459 -23.07139,24.60459 -0.37588,0 2.47569,-3.49865 6.33681,-7.77478 z"
       inkscape:connector-curvature="0"
       sodipodi:nodetypes="scsssscssssscssssssscsssssscscssszzzcsscssszzzzsscsscccccscccsscssssssssssssssssscssssssssssssssscsssssssssssssssssssssssscssssssssssssssssscsssccsssssssssssssssssssssss" />
  </g>
</svg>
