<?xml version="1.0" encoding="UTF-8" standalone="no"?>
<!-- Created with Inkscape (http://www.inkscape.org/) -->

<svg
   xmlns:dc="http://purl.org/dc/elements/1.1/"
   xmlns:cc="http://creativecommons.org/ns#"
   xmlns:rdf="http://www.w3.org/1999/02/22-rdf-syntax-ns#"
   xmlns:svg="http://www.w3.org/2000/svg"
   xmlns="http://www.w3.org/2000/svg"
   xmlns:sodipodi="http://sodipodi.sourceforge.net/DTD/sodipodi-0.dtd"
   xmlns:inkscape="http://www.inkscape.org/namespaces/inkscape"
   width="50"
   height="90"
   viewBox="0 0 50 90"
   id="svg2"
   version="1.1"
   inkscape:version="0.91 r13725"
   sodipodi:docname="Vorin numeral 1173 colored.svg">
  <defs
     id="defs4" />
  <sodipodi:namedview
     id="base"
     pagecolor="#ffffff"
     bordercolor="#666666"
     borderopacity="1.0"
     inkscape:pageopacity="0.0"
     inkscape:pageshadow="2"
     inkscape:zoom="1.2126881"
     inkscape:cx="-56.485444"
     inkscape:cy="-115.68824"
     inkscape:document-units="px"
     inkscape:current-layer="layer1"
     showgrid="false"
     units="px"
     inkscape:window-width="1280"
     inkscape:window-height="962"
     inkscape:window-x="-8"
     inkscape:window-y="-8"
     inkscape:window-maximized="1" />
  <metadata
     id="metadata7">
    <rdf:RDF>
      <cc:Work
         rdf:about="">
        <dc:format>image/svg+xml</dc:format>
        <dc:type
           rdf:resource="http://purl.org/dc/dcmitype/StillImage" />
        <dc:title></dc:title>
      </cc:Work>
    </rdf:RDF>
  </metadata>
  <g
     inkscape:label="Layer 1"
     inkscape:groupmode="layer"
     id="layer1"
     transform="translate(0,-962.36216)">
    <g
       id="g4148">
      <path
         inkscape:connector-curvature="0"
         id="path4151"
         d="m 24.000702,1049.8931 c -1.059086,-0.7744 -1.172102,-2.6234 -0.999321,-16.3498 0.194812,-15.4766 0.194812,-15.4766 2.354509,-15.4766 2.159697,0 2.159697,0 2.35362,15.625 0.182059,14.6691 0.111068,15.6694 -1.160376,16.3498 -0.949866,0.5084 -1.710902,0.4641 -2.548432,-0.1484 z"
         style="fill:#000070;fill-opacity:1" />
      <path
         inkscape:connector-curvature="0"
         d="m 30.146754,1021.0576 c -4.815026,-7.155 -5.322129,-9.3221 -2.265062,-9.6799 1.543373,-0.1807 2.430837,0.737 6.361415,6.5777 4.815026,7.1549 5.322129,9.3221 2.265062,9.6799 -1.543373,0.1807 -2.430836,-0.737 -6.361415,-6.5777 z m -17.629063,6.2478 c -1.100702,-1.1007 -0.246534,-3.1091 4.018589,-9.4486 3.868728,-5.7504 4.7519,-6.6596 6.293808,-6.4791 3.05466,0.3575 2.55031,2.5245 -2.245947,9.6499 -3.337176,4.9578 -4.953264,6.7577 -6.067613,6.7577 -0.835397,0 -1.734874,-0.2159 -1.998837,-0.4799 z"
         style="fill:#ab0000;fill-opacity:1"
         id="path4147" />
      <path
         inkscape:connector-curvature="0"
         d="m 8.6985982,1004.3886 c -0.227908,-0.5939 -0.23598,-1.5447 -0.01794,-2.1129 0.746591,-1.9456 16.4413958,-14.80662 17.3941128,-14.25351 0.500775,0.29073 4.369415,3.55166 8.596978,7.24653 5.944014,5.19508 7.636078,7.07178 7.464148,8.27888 -0.449627,3.1567 -2.968631,2.215 -10.003658,-3.73954 -7.469496,-6.32226 -6.185585,-6.5648 -17.396935,3.28644 -2.879625,2.5303 -5.3584268,3.0617 -6.0367068,1.2941 z m 0,11.5184 c -0.71636,-1.8668 0.145906,-2.8978 8.3695658,-10.007 5.318659,-4.5979 8.33784,-6.74634 8.967643,-6.38124 0.522206,0.3027 4.40838,3.57354 8.635943,7.26834 5.944014,5.1951 7.636078,7.0718 7.464148,8.2789 -0.449627,3.1567 -2.968631,2.215 -10.003658,-3.7395 -7.469496,-6.3223 -6.185585,-6.5648 -17.396935,3.2864 -2.879625,2.5303 -5.3584268,3.0617 -6.0367068,1.2941 z"
         style="fill:#008f00;fill-opacity:1"
         id="path4143" />
      <path
         inkscape:connector-curvature="0"
         d="m 23.170205,984.42326 c -0.207764,-0.54143 -0.286911,-5.34145 -0.175883,-10.66673 0.201871,-9.68232 0.201871,-9.68232 2.361568,-9.68232 2.159697,0 2.159697,0 2.159697,10.43854 0,10.43854 0,10.43854 -1.983816,10.66672 -1.189312,0.1368 -2.135101,-0.16606 -2.361566,-0.75621 z m 7.344961,4.00754 c -1.071028,-1.07103 -0.274406,-3.08424 4.019436,-10.15787 3.955236,-6.51581 4.717022,-7.38727 6.299117,-7.20597 3.001958,0.34401 2.506075,2.66492 -2.241409,10.4906 -3.463211,5.7087 -4.811546,7.35317 -6.029024,7.35317 -0.862503,0 -1.784157,-0.21597 -2.04812,-0.47993 z m -18.374462,-6.83824 c -4.7684108,-7.86017 -5.2673678,-10.18127 -2.2626428,-10.5256 1.5834668,-0.18145 2.3483078,0.69743 6.3645138,7.31348 2.510621,4.13585 4.451579,8.11611 4.313239,8.84503 -0.151547,0.79851 -0.983219,1.41076 -2.092284,1.54029 -1.635649,0.19102 -2.340172,-0.60825 -6.322826,-7.1732 z"
         style="fill:#0080c1;fill-opacity:1"
         id="path4741" />
    </g>
  </g>
</svg>
