<?xml version="1.0" encoding="UTF-8" standalone="no"?>
<!-- Created with Inkscape (http://www.inkscape.org/) -->

<svg
   xmlns:dc="http://purl.org/dc/elements/1.1/"
   xmlns:cc="http://creativecommons.org/ns#"
   xmlns:rdf="http://www.w3.org/1999/02/22-rdf-syntax-ns#"
   xmlns:svg="http://www.w3.org/2000/svg"
   xmlns="http://www.w3.org/2000/svg"
   xmlns:sodipodi="http://sodipodi.sourceforge.net/DTD/sodipodi-0.dtd"
   xmlns:inkscape="http://www.inkscape.org/namespaces/inkscape"
   width="51.010765mm"
   height="62.164677mm"
   viewBox="0 0 180.74681 220.26854"
   id="svg2"
   version="1.1"
   inkscape:version="0.91 r13725"
   sodipodi:docname="Middle zeras.svg">
  <defs
     id="defs4" />
  <sodipodi:namedview
     id="base"
     pagecolor="#ffffff"
     bordercolor="#666666"
     borderopacity="1.0"
     inkscape:pageopacity="0.0"
     inkscape:pageshadow="2"
     inkscape:zoom="1.979899"
     inkscape:cx="192.02724"
     inkscape:cy="165.69725"
     inkscape:document-units="px"
     inkscape:current-layer="layer3"
     showgrid="false"
     inkscape:window-width="1366"
     inkscape:window-height="705"
     inkscape:window-x="-8"
     inkscape:window-y="-8"
     inkscape:window-maximized="1"
     fit-margin-top="0"
     fit-margin-left="0"
     fit-margin-right="0"
     fit-margin-bottom="0" />
  <metadata
     id="metadata7">
    <rdf:RDF>
      <cc:Work
         rdf:about="">
        <dc:format>image/svg+xml</dc:format>
        <dc:type
           rdf:resource="http://purl.org/dc/dcmitype/StillImage" />
        <dc:title></dc:title>
      </cc:Work>
    </rdf:RDF>
  </metadata>
  <g
     inkscape:groupmode="layer"
     id="layer3"
     inkscape:label="Layer 3"
     style="display:inline;opacity:1"
     transform="translate(-255.14285,-363.24402)">
    <path
       id="path4147"
       style="fill:#000000;fill-opacity:1"
       d="m 412.03571,421.31259 c -4.46704,-2.48634 -6.04204,-4.30752 -3.72525,-4.30752 2.09712,0 3.05162,-5.13048 2.02483,-10.8835 -0.87266,-4.88945 -1.63878,-6.19902 -5.91829,-10.1165 -5.52962,-5.06183 -7.81846,-8.71283 -6.3701,-10.16119 1.04464,-1.04464 11.45681,-5.6e-4 10.78791,1.08175 -0.81008,1.31073 3.32017,8.93911 5.45995,10.08428 3.02357,1.61817 6.21867,9.35842 6.36697,15.42426 0.11551,4.72457 -1.81864,11.60186 -3.24734,11.54657 -0.34577,-0.0134 -2.76618,-1.21405 -5.37868,-2.66815 z m -140.22432,-0.25786 c -3.45368,-6.67868 -0.79924,-18.62482 5.41628,-24.37563 2.51128,-2.32353 4.19972,-4.91232 4.60183,-7.05575 0.55467,-2.95668 1.09893,-3.46233 4.29568,-3.99095 2.01329,-0.33293 4.44803,-0.61027 5.41053,-0.61632 2.74212,-0.0172 2.14562,4.28728 -1,7.21626 -1.5125,1.40834 -3.95048,3.67586 -5.41773,5.03894 -2.69608,2.50468 -4.82787,8.14471 -4.81304,12.73379 0.013,4.03926 1.11166,7 2.5974,7 2.61671,0 1.37158,1.50548 -3.51503,4.25 -2.693,1.5125 -5.15598,2.75 -5.4733,2.75 -0.31732,0 -1.2635,-1.32765 -2.10262,-2.95034 z m 50.57017,151.56538 c 1.38139,-5.00298 0.50247,-7.16767 -5.58913,-13.76553 -5.75532,-6.23364 -6.94453,-9.68018 -5.34223,-15.48272 1.57105,-5.68936 0.42324,-14.64523 -2.69339,-21.0154 -2.20891,-4.51484 -4.20772,-6.63966 -10.83971,-11.52311 -4.47226,-3.29313 -8.95006,-6.96419 -9.95066,-8.1579 -5.46735,-6.5225 -8.8141,-19.89406 -8.25003,-32.96199 0.17113,-3.96461 -0.15868,-12.89262 -0.7329,-19.84001 l -1.04405,-12.63163 -3.6666,0.4918 c -3.08006,0.41312 -4.25168,-0.0219 -7.32405,-2.71949 -6.59551,-5.79094 -11.80596,-20.08573 -11.80596,-32.38949 0,-13.51251 5.18505,-19.94324 18.34289,-22.74968 11.7961,-2.51599 17.72185,-6.53577 19.34066,-13.11989 0.74681,-3.0375 2.23516,-3.36513 7.56009,-1.66418 8.13931,2.59995 8.99004,3.09982 7.77245,4.56693 -0.76232,0.91853 -0.96476,3.71549 -0.59133,8.16978 0.65356,7.79569 5.74194,19.73287 8.82905,20.71268 3.27902,1.04072 2.07404,2.10579 -3.86095,3.41268 -3.1625,0.69638 -6.60105,2.00549 -7.64123,2.90913 -3.61162,3.13754 -5.56643,9.18793 -5.53871,17.14298 l 0.0261,7.5 2.91069,-5.63681 c 3.94724,-7.64415 9.79454,-12.44157 18.32091,-15.03137 5.92897,-1.80087 7.42689,-1.92229 10.89533,-0.88312 4.88858,1.46466 8.79061,5.15144 8.73787,8.25584 -0.026,1.53235 -1.50806,3.3759 -4.45796,5.54546 -2.43043,1.7875 -4.6128,3.25 -4.84971,3.25 -0.23691,0 -0.72111,-1.54774 -1.07599,-3.43942 -0.4581,-2.44187 -1.61224,-4.03706 -3.97932,-5.5 -5.85492,-3.61854 -10.69218,-2.33533 -12.56277,3.3326 -1.20347,3.64657 -0.0855,10.19567 4.00513,23.46216 1.07779,3.49543 1.95962,8.23924 1.95962,10.54179 0,3.61009 -0.59033,4.76582 -4.28785,8.39466 -2.35832,2.31452 -4.51796,4.20821 -4.7992,4.20821 -0.28124,0 -0.32943,-1.5583 -0.10707,-3.4629 0.22592,-1.93522 -0.74497,-7.46936 -2.20081,-12.54464 -1.43275,-4.99496 -2.60503,-9.7101 -2.60503,-10.47808 0,-0.76799 -0.41643,-1.65371 -0.92539,-1.96827 -0.50897,-0.31456 -1.48904,2.02138 -2.17792,5.19098 -1.02576,4.71957 -2.12769,6.65089 -6.08651,10.66767 -2.6587,2.69762 -5.04594,4.69282 -5.30498,4.43377 -0.25905,-0.25905 -0.0293,-2.01119 0.51061,-3.89366 0.61246,-2.13552 0.63567,-4.55504 0.0617,-6.43377 -2.2463,-7.35285 -2.88384,-24.88735 -1.1387,-31.31778 1.35095,-4.97789 6.7423,-11.40438 11.07198,-13.19779 1.64406,-0.68099 2.9892,-1.3452 2.9892,-1.47602 0,-0.13081 -1.55966,-3.61352 -3.4659,-7.73933 -1.90625,-4.12582 -3.76951,-9.40014 -4.14058,-11.7207 -0.58906,-3.68377 -0.94238,-4.14484 -2.7841,-3.63316 -1.16018,0.32233 -5.16734,1.03454 -8.90479,1.58269 -7.40365,1.08585 -14.06329,3.99663 -16.82446,7.3536 -3.10554,3.77565 -5.24133,13.84162 -4.53939,21.39417 0.94854,10.20597 3.13385,16.39546 7.30513,20.69049 3.8574,3.97184 4.51899,4.06866 13.50125,1.97571 l 2.64717,-0.61682 0.73179,10.73643 c 0.40249,5.90504 0.50683,15.03736 0.23188,20.29404 -0.58913,11.26299 1.02638,20.41336 4.71537,26.70813 1.65419,2.82267 5.86517,6.82419 12.1618,11.55683 11.9121,8.95334 14.80669,13.94542 14.84263,25.59798 l 0.0222,7.19956 2.11073,-2.64378 c 2.51749,-3.15327 4.81248,-11.37914 4.53519,-16.25535 -0.30136,-5.29958 -2.94311,-12.46858 -5.42858,-14.73176 -1.21954,-1.11046 -4.91734,-3.48016 -8.21734,-5.26599 -10.52941,-5.6981 -12.35287,-7.02812 -14.58324,-10.63694 -1.86962,-3.02511 -2.0918,-4.41652 -1.54325,-9.66476 0.55348,-5.29543 1.14443,-6.64664 4.33659,-9.91572 2.03269,-2.08166 4.00265,-3.78483 4.3777,-3.78483 0.37504,0 0.44701,2.92617 0.15993,6.5026 -0.52011,6.47946 -0.5086,6.51522 3.23551,10.04637 2.06662,1.94906 6.51582,4.92989 9.88712,6.62405 3.3713,1.69416 7.37733,3.9612 8.90228,5.03785 3.24957,2.29428 6.72736,8.62671 6.72736,12.24929 0,3.97774 1.75082,2.97418 2.49492,-1.43008 1.73538,-10.27162 -1.51398,-22.29102 -8.94775,-33.09782 -4.76972,-6.93397 -6.54716,-11.25307 -6.54716,-15.90933 0,-3.21211 0.73234,-4.41862 5.25,-8.64918 8.0055,-7.49676 14.72898,-12.7281 15.44206,-12.01502 0.3527,0.3527 0.45377,0.77868 0.22461,0.94663 -6.69764,4.90853 -11.91667,10.31706 -11.91667,12.34936 0,2.82457 3.69598,10.15312 8.01088,15.88432 1.6725,2.22147 4.07064,6.57264 5.3292,9.66927 l 2.2883,5.63022 1.13181,-4.23171 c 0.62249,-2.32745 2.73974,-6.45362 4.705,-9.16927 5.31074,-7.33854 9.34507,-15.97929 8.79766,-18.84285 -0.27532,-1.44026 -2.70943,-4.2481 -5.8667,-6.76747 -2.96788,-2.36824 -5.39615,-4.67475 -5.39615,-5.12558 0,-2.16448 15.57159,10.69386 18.72984,15.46629 3.13804,4.74191 2.53247,9.29681 -2.24886,16.91525 -1.86978,2.97924 -4.62722,7.40021 -6.12764,9.82437 -3.59338,5.80562 -5.35682,12.92819 -5.33803,21.56037 0.0178,8.18992 1.36875,11.6778 2.48471,6.41521 1.58278,-7.46398 4.45821,-10.76496 13.47215,-15.46595 4.69031,-2.44611 10.10283,-5.76114 12.02783,-7.36675 3.42749,-2.8588 3.49711,-3.06558 3.36071,-9.9806 l -0.13928,-7.06131 3.13928,2.63744 c 5.03698,4.23176 5.88751,6.08413 5.95223,12.96326 0.0558,5.93022 -0.18593,6.66452 -3.22659,9.80168 -1.8078,1.86517 -6.81574,5.29053 -11.12876,7.61191 -4.31302,2.32139 -8.72833,5.04658 -9.8118,6.05598 -2.30741,2.14968 -6.14579,11.86451 -6.14579,15.55481 0,4.23524 3.02136,13.2799 5.3327,15.96379 l 2.1673,2.51664 0.0271,-8.30702 c 0.0375,-11.47387 1.85974,-14.62336 14.19586,-24.53533 15.72106,-12.63173 16.57137,-14.64373 16.80845,-39.77169 0.0934,-9.9 0.49975,-20.63012 0.90298,-23.84472 0.67414,-5.3743 0.9075,-5.79576 2.89936,-5.23645 1.19142,0.33454 3.98295,0.87521 6.2034,1.20147 3.7641,0.55308 4.28564,0.31821 7.71005,-3.4722 4.58156,-5.07124 6.82211,-12.43332 6.95751,-22.86125 0.2206,-16.98896 -5.21858,-23.85085 -20.73493,-26.1585 -3.8334,-0.57012 -7.89994,-1.31317 -9.03675,-1.65123 -1.82566,-0.54289 -2.26947,0.11383 -3.80194,5.62584 -0.95425,3.43226 -2.91083,8.72596 -4.34796,11.76379 -1.68111,3.55359 -2.21462,5.6561 -1.49599,5.89564 5.36344,1.78782 11.42146,8.72868 13.19679,15.11998 1.46903,5.28861 1.23788,16.72719 -0.52591,26.02514 -0.88096,4.64404 -1.25764,9.72825 -0.87873,11.86047 l 0.6632,3.73202 -4.347,-4 c -5.67136,-5.21865 -5.4247,-4.81827 -6.8262,-11.0808 -0.66698,-2.98056 -1.55349,-5.4192 -1.96998,-5.4192 -1.04898,0 -6.01884,18.56636 -6.33824,23.67835 l -0.26107,4.17834 -4.5,-3.84823 c -4.23667,-3.62304 -4.49278,-4.13088 -4.37655,-8.67835 0.0679,-2.65656 1.5304,-9.6053 3.25,-15.44164 3.84016,-13.03351 4.05101,-18.67136 0.8121,-21.71416 -1.27295,-1.19587 -3.4564,-2.17431 -4.85212,-2.17431 -3.90532,0 -9.24249,4.08839 -9.83994,7.5376 -0.28222,1.62932 -0.88768,2.90503 -1.34546,2.83491 -1.34136,-0.20546 -8.53856,-5.76952 -9.02776,-6.97925 -0.9024,-2.2315 2.00184,-5.95182 6.38313,-8.17675 5.53205,-2.80932 9.81512,-2.37317 18.74164,1.90847 6.59711,3.16433 9.96183,6.71394 13.9402,14.70619 l 2.32405,4.66883 -0.38474,-9.34896 c -0.34365,-8.3505 -0.69124,-9.78415 -3.25464,-13.42387 -2.48756,-3.53202 -3.6607,-4.25411 -8.80556,-5.42002 -3.2646,-0.73981 -6.12903,-1.53849 -6.36538,-1.77485 -0.23636,-0.23635 0.68223,-1.46531 2.0413,-2.73102 3.99236,-3.71809 8.09618,-14.37147 8.00754,-20.7873 -0.0419,-3.03269 -0.22729,-6.33388 -0.41199,-7.33599 -0.27068,-1.46858 1.06313,-2.26981 6.87606,-4.13052 l 7.21188,-2.30852 1.16455,3.63053 c 0.6405,1.99678 1.89515,4.46666 2.78812,5.48861 2.51905,2.8829 10.11541,6.35418 16.47982,7.5307 7.29321,1.34823 13.56062,5.47242 16.14375,10.62319 2.96248,5.9072 2.77348,18.62642 -0.42174,28.38213 -4.31651,13.17928 -12.12544,21.77231 -17.54261,19.30409 -2.1767,-0.99177 -2.37031,-0.81665 -2.8961,2.61949 -0.3099,2.02527 -0.85066,12.45731 -1.2017,23.18231 -1.01164,30.9084 -3.36405,36.63031 -19.65787,47.81486 -5.71042,3.91981 -9.21482,8.33665 -11.30924,14.25381 -1.85513,5.24114 -2.09197,14.51896 -0.4942,19.36023 1.41272,4.2806 0.19955,6.93446 -6.65534,14.55875 -4.35455,4.8433 -4.8212,5.82935 -4.8212,10.18734 0,2.65376 -0.225,4.825 -0.5,4.82498 -0.95713,-6e-5 -6.02399,-6.93286 -7.06172,-9.6623 -1.74101,-4.57922 -0.19696,-9.65416 4.67321,-15.35971 4.53985,-5.31857 7.38851,-9.95213 7.38851,-12.01797 0,-0.62664 -2.47469,-3.91149 -5.49931,-7.29966 -5.97192,-6.68975 -8.77631,-11.80076 -10.60128,-19.32089 -0.64593,-2.66169 -2.88167,-7.09098 -4.9683,-9.84287 -2.08663,-2.75188 -4.47883,-6.32369 -5.31601,-7.93735 l -1.52214,-2.93393 -1.10458,2.90527 c -0.60752,1.59789 -2.72936,4.88809 -4.7152,7.31155 -2.28015,2.78263 -4.27259,6.79353 -5.40705,10.88476 -2.23617,8.06431 -5.43759,13.60049 -11.30852,19.55566 -6.28301,6.37318 -6.03147,9.1 1.61201,17.47514 7.97129,8.73433 7.95748,17.03803 -0.041,24.64171 l -3.04992,2.89938 1.01713,-3.68372 z m 29.92686,-34.62719 c 2.05659,-1.10066 3.53855,-6.70732 2.55094,-9.65091 -0.33897,-1.01032 -1.90954,-3.39369 -3.49016,-5.29638 -2.54102,-3.0588 -3.06853,-3.29787 -4.55488,-2.0643 -1.4406,1.19558 -1.8168,1.18978 -2.63015,-0.0406 -0.76201,-1.15268 -1.63114,-0.64718 -4.40891,2.5643 -3.94598,4.56209 -4.73785,10.46316 -1.83456,13.67126 1.86945,2.06572 11.05791,2.58795 14.36772,0.81659 z m 6.81505,39.23378 c -3.60377,-3.69689 -8.14584,-8.86399 -10.09348,-11.48242 l -3.54116,-4.7608 -3.42145,4.7608 c -4.44064,6.17894 -14.71117,17.26079 -15.9971,17.26079 -0.55,0 1.59595,-2.80394 4.76878,-6.23097 7.9439,-8.58036 10.70969,-14.82254 9.69618,-21.88353 l -0.77301,-5.3855 -4.9069,-1.21385 c -5.46794,-1.35264 -6.19637,-2.11744 -7.09764,-7.45201 -0.8476,-5.01687 1.4435,-9.55311 8.64992,-17.12632 l 5.80109,-6.09635 -2.08309,-3.37052 -2.0831,-3.37052 3.74961,-5.44426 3.7496,-5.44425 3.85059,5.16096 3.8506,5.16097 -2.03685,3.62408 -2.03684,3.62408 4.15983,4.37289 c 7.44247,7.82366 9.95804,11.9923 9.94192,16.47514 -0.0225,6.26016 -1.771,8.76824 -6.98526,10.01982 -4.43739,1.06511 -4.51221,1.15211 -5.37779,6.25293 -0.48278,2.84504 -0.60873,6.2448 -0.27988,7.55503 0.85842,3.4202 5.52894,10.07136 11.11802,15.83285 2.6574,2.73937 4.6287,5.18361 4.38067,5.43164 -0.24802,0.24803 -3.39949,-2.57378 -7.00326,-6.27068 z"
       inkscape:connector-curvature="0" />
  </g>
</svg>
