<?xml version="1.0" encoding="utf-8"?>
<!-- Generator: Adobe Illustrator 14.0.0, SVG Export Plug-In . SVG Version: 6.00 Build 43363)  -->
<!DOCTYPE svg PUBLIC "-//W3C//DTD SVG 1.1//EN" "http://www.w3.org/Graphics/SVG/1.1/DTD/svg11.dtd">
<svg version="1.1" id="Layer_1" xmlns="http://www.w3.org/2000/svg" xmlns:xlink="http://www.w3.org/1999/xlink" x="0px" y="0px"
	 width="572px" height="800px" viewBox="0 0 572 800" enable-background="new 0 0 572 800" xml:space="preserve">
<g>
	<path fill-rule="evenodd" clip-rule="evenodd" d="M287.794,6.75c20.41,20.997,16.161,60.997,16.813,103.678
		c2.443,160.024,4.202,322.96,4.202,488.27c0,13.774,1.864,29.022-0.7,37.128c-2.756,8.712-12.014,10.913-19.614,16.112
		c-9.065-4.805-18.106-7.144-21.017-15.412c-2.644-7.51-0.7-25.404-0.7-37.828c0-163.08,1.759-328.252,4.203-488.27
		c0.383-25.055-2.303-52.425,2.102-73.556C275.549,25.039,282.691,15.133,287.794,6.75z"/>
	<path fill-rule="evenodd" clip-rule="evenodd" d="M353.645,85.21c6.719,0.034,19.078,5.56,29.422,9.107
		c10.364,3.554,21.582,5.034,28.721,9.807c23.914,15.991,16.112,80.371,16.112,121.192c0,32.988,1.069,65.367-1.4,92.47
		c-12.469,9.015-37.95,5.016-49.036,15.412c-1.658,39.269-4.479,79.769-4.904,120.491c-0.532,50.809-6.87,108.951,4.904,149.913
		c2.481,8.639,6.584,17.727,7.705,25.919c1.941,14.191-2.693,29.748-0.701,43.435c-9.371-3.006-16.976-7.776-25.919-11.209
		c-7.994-22.846-20.354-48.16-21.717-79.16c-1.394-31.688,0.873-65.272,2.102-98.074c2.038-54.415,3.611-113.168,7.706-168.828
		c0.656-8.928,0.093-18.416,2.802-21.717c5.637-6.864,20.742-1.055,32.225-3.502c6.109-1.302,15.265-6.843,17.514-13.31
		c3.164-9.1,0.823-24.42,1.4-37.128c1.172-25.793,0.864-49.965,0-74.957c-0.434-12.539,1.519-25.678-1.4-36.428
		c-2.607-9.598-13.362-16.7-20.316-23.117C369.753,97.118,362.117,90.818,353.645,85.21z"/>
	<path fill-rule="evenodd" clip-rule="evenodd" d="M195.324,674.356c1.827-13.476-2.396-28.773-0.701-42.733
		c1.996-16.432,12.549-34.275,14.011-53.241c3.034-39.386-0.773-81.413-1.401-122.592c-0.622-40.781-3.021-81.248-4.904-120.491
		c-10.056-11.66-36.671-6.761-49.037-16.112c-2.505-40.608-1.401-94.524-1.401-140.106c0-16.105-1.479-32.351,0.701-46.235
		c1.378-8.781,9.177-23.151,15.412-27.32c6.201-4.146,17.681-6.432,27.321-9.808c10.297-3.606,20.487-6.394,29.422-9.808
		c0.467,0,0.934,0,1.401,0c-8.069,6.495-16.091,12.734-24.519,20.316c-6.477,5.826-18.151,13.393-21.016,23.117
		c-3.053,10.36-0.975,24.824-1.401,37.128c-0.839,24.259-1.184,48.9,0,74.957c0.582,12.8-1.647,26.792,1.401,36.428
		c2.239,7.079,10.946,12.611,17.513,14.011c11.308,2.409,26.612-3.333,32.225,3.503c4.923,5.996,3.696,35.5,4.203,46.234
		c2.218,46.928,4.566,97.864,6.305,144.309c1.238,33.044,3.554,66.805,2.102,98.775c-1.389,30.589-13.895,55.807-21.716,78.46
		C212.3,666.579,204.695,671.351,195.324,674.356z"/>
	<path fill-rule="evenodd" clip-rule="evenodd" d="M551.193,422.164c-18.3,8.787-49.927,4.248-73.556,7.707
		c2.601,67.82,16.49,129.538,33.625,185.64c5.758,18.852,14.538,37.42,18.215,55.342c2.094,10.212-0.064,23.032-6.306,29.422
		c-15.378-43.162-35.307-85.717-49.037-132.399c-13.871-47.163-19.527-98.451-28.722-152.016
		c17.541-16.317,52.738-14.98,84.064-17.512c0.208-35.712,2.101-74.194,2.101-111.385c0-12.205,2.908-26.074,0.7-37.128
		c-1.362-6.819-9.684-15.902-15.411-20.315c-11.33-8.729-27.838-13.424-39.931-21.016c11.99-4.003,38.499,0.843,47.637,5.604
		c5.467,2.849,9.116,9.263,14.01,15.412c3.993,5.017,11.017,11.226,12.61,16.812c3.221,11.294,1.4,28.685,1.4,43.433
		C552.594,331.218,553.666,385.303,551.193,422.164z"/>
	<path fill-rule="evenodd" clip-rule="evenodd" d="M102.854,209.204c-11.521,8.005-28.063,13.276-39.229,21.716
		c-6.08,4.596-14.548,12.671-16.112,19.615c-2.432,10.799,0.7,25.15,0.7,37.128c0,36.008,1.828,75.505,2.102,111.384
		c29.997,4.096,66.819,1.367,84.063,18.215c-9.535,53.738-14.566,105.221-28.721,152.715
		c-13.77,46.196-33.859,88.741-49.038,131.699c-5.847-6.244-8.456-17.448-6.305-28.721c3.46-18.134,12.39-36.415,18.213-55.343
		c16.92-54.989,29.988-117.016,34.326-185.641c-22.574-4.979-55.965,0.858-74.256-8.406c-2.469-36.341-1.401-90.245-1.401-133.1
		c0-14.81-1.668-31.968,1.401-42.733c1.594-5.587,8.656-11.845,12.609-16.812c4.932-6.196,8.533-12.557,14.011-15.412
		C66.782,209.483,85.611,207.589,102.854,209.204z"/>
	<path fill-rule="evenodd" clip-rule="evenodd" d="M467.829,240.728c12.065,4.131,27.019,13.545,34.326,25.219
		c8.627,13.778,14.41,41.267,9.809,60.946c-1.534,6.562-7.549,14.458-12.61,19.615c-17.912,18.25-43.374,31.856-70.753,38.529
		c-1.562,74.365,4.088,138.58,10.508,201.753c1.707,16.799,2.486,32.813,5.604,47.636c5.829,27.704,16.187,54.181,24.52,81.261
		c4.108,13.354,11.816,26.503,13.31,39.229c1.391,11.85-3.015,23.495-2.802,33.626c-2.766,1.044-4.316-3.085-6.306-4.903
		c-5.705-5.224-17.171-12.75-21.016-19.616c-3.162-5.649-4.531-13.965-7.005-21.016c-11.548-32.917-25.114-68.799-31.523-106.48
		c-2.798-16.446-2.792-34.05-3.503-51.839c-2.787-69.731-1.148-145.648-2.102-218.565c20.08-9.429,44.858-16.077,63.748-28.021
		c6.071-3.838,13.906-10.944,16.112-17.513c4.871-14.507,2.602-36.243-1.4-48.336C482.462,259.312,472.624,251.573,467.829,240.728z
		"/>
	<path fill-rule="evenodd" clip-rule="evenodd" d="M111.26,242.128c-2.521,9.988-13.842,18.206-18.213,30.123
		c-4.439,12.1-5.97,34.406-1.401,49.037c2.087,6.682,9.478,14.311,15.412,18.215c18.854,12.397,44.392,17.913,64.449,28.02
		c-1.073,73.188,0.83,149.701-2.102,219.267c-1.441,34.207-5.637,65.177-14.711,95.972c-6.229,21.139-12.998,41.669-20.315,62.348
		c-2.423,6.846-3.999,14.944-7.005,20.314c-5.794,10.349-20.196,17.085-27.32,25.22c0.202-10.198-3.953-21.855-2.802-33.626
		c1.254-12.825,9.219-26.633,13.31-39.93c8.339-27.102,18.508-52.917,24.519-81.962c3.021-14.595,3.928-30.439,5.604-46.936
		c6.416-63.133,12.046-126.93,10.508-201.053c-25.369-7.072-52.723-20.857-70.753-39.229c-4.907-5-11.07-12.853-12.61-18.914
		c-5.042-19.852,1.72-48.652,9.107-60.946C84.427,255.578,99.071,247.358,111.26,242.128z"/>
</g>
</svg>
