<?xml version="1.0" encoding="UTF-8" standalone="no"?>
<!-- Created with Inkscape (http://www.inkscape.org/) -->

<svg
   xmlns:dc="http://purl.org/dc/elements/1.1/"
   xmlns:cc="http://creativecommons.org/ns#"
   xmlns:rdf="http://www.w3.org/1999/02/22-rdf-syntax-ns#"
   xmlns:svg="http://www.w3.org/2000/svg"
   xmlns="http://www.w3.org/2000/svg"
   xmlns:sodipodi="http://sodipodi.sourceforge.net/DTD/sodipodi-0.dtd"
   xmlns:inkscape="http://www.inkscape.org/namespaces/inkscape"
   width="160"
   height="300"
   viewBox="0 0 160 300.00001"
   id="svg3381"
   version="1.1"
   inkscape:version="0.91 r13725"
   sodipodi:docname="Thaylen script SH.svg">
  <defs
     id="defs3383" />
  <sodipodi:namedview
     id="base"
     pagecolor="#ffffff"
     bordercolor="#666666"
     borderopacity="1.0"
     inkscape:pageopacity="0.0"
     inkscape:pageshadow="2"
     inkscape:zoom="0.7"
     inkscape:cx="-32.937781"
     inkscape:cy="130.73625"
     inkscape:document-units="px"
     inkscape:current-layer="layer1"
     showgrid="false"
     inkscape:window-width="719"
     inkscape:window-height="678"
     inkscape:window-x="193"
     inkscape:window-y="86"
     inkscape:window-maximized="0"
     units="px" />
  <metadata
     id="metadata3386">
    <rdf:RDF>
      <cc:Work
         rdf:about="">
        <dc:format>image/svg+xml</dc:format>
        <dc:type
           rdf:resource="http://purl.org/dc/dcmitype/StillImage" />
        <dc:title></dc:title>
      </cc:Work>
    </rdf:RDF>
  </metadata>
  <g
     inkscape:label="Layer 1"
     inkscape:groupmode="layer"
     id="layer1"
     transform="translate(0,-752.36214)">
    <path
       style="fill:#000000"
       d="m 49.665772,1049.1527 c -5.216436,-3.1808 -18.583321,-19.2559 -18.584878,-22.3504 -7.39e-4,-1.4552 7.80557,-1.8889 33.997408,-1.8889 l 33.998364,0 0,-67.1827 0,-67.18275 -34.085023,-68.22036 c -18.746756,-37.5212 -33.737689,-68.56768 -33.313208,-68.99218 1.966692,-1.96667 8.949455,1.76762 15.821295,8.461 6.421775,6.25499 10.811371,13.848 29.479476,50.9928 l 21.93418,43.64347 0.0815,-51.75306 c 0.0778,-49.31716 0.21321,-51.75306 2.877014,-51.75306 5.67653,0 21.38258,13.88895 24.22946,21.42625 0.98824,2.61645 1.56263,52.47614 1.62325,140.90432 l 0.094,136.85507 -36.658774,0 c -33.68742,0 -37.050659,-0.2447 -41.493988,-2.954 z"
       id="path3493"
       inkscape:connector-curvature="0" />
  </g>
</svg>
