<?xml version="1.0" encoding="UTF-8" standalone="no"?>
<!-- Created with Inkscape (http://www.inkscape.org/) -->

<svg
   xmlns:dc="http://purl.org/dc/elements/1.1/"
   xmlns:cc="http://creativecommons.org/ns#"
   xmlns:rdf="http://www.w3.org/1999/02/22-rdf-syntax-ns#"
   xmlns:svg="http://www.w3.org/2000/svg"
   xmlns="http://www.w3.org/2000/svg"
   xmlns:sodipodi="http://sodipodi.sourceforge.net/DTD/sodipodi-0.dtd"
   xmlns:inkscape="http://www.inkscape.org/namespaces/inkscape"
   width="160"
   height="300"
   viewBox="0 0 160 300.00001"
   id="svg3381"
   version="1.1"
   inkscape:version="0.91 r13725"
   sodipodi:docname="Thaylen script S.svg">
  <defs
     id="defs3383" />
  <sodipodi:namedview
     id="base"
     pagecolor="#ffffff"
     bordercolor="#666666"
     borderopacity="1.0"
     inkscape:pageopacity="0.0"
     inkscape:pageshadow="2"
     inkscape:zoom="0.7"
     inkscape:cx="-74.727986"
     inkscape:cy="126.11512"
     inkscape:document-units="px"
     inkscape:current-layer="layer1"
     showgrid="false"
     inkscape:window-width="719"
     inkscape:window-height="678"
     inkscape:window-x="193"
     inkscape:window-y="86"
     inkscape:window-maximized="0"
     units="px" />
  <metadata
     id="metadata3386">
    <rdf:RDF>
      <cc:Work
         rdf:about="">
        <dc:format>image/svg+xml</dc:format>
        <dc:type
           rdf:resource="http://purl.org/dc/dcmitype/StillImage" />
        <dc:title></dc:title>
      </cc:Work>
    </rdf:RDF>
  </metadata>
  <g
     inkscape:label="Layer 1"
     inkscape:groupmode="layer"
     id="layer1"
     transform="translate(0,-752.36214)">
    <path
       style="fill:#000000"
       d="m 118.9543,1049.4457 c -6.29591,-3.8688 -17.45136,-15.3179 -19.06785,-19.5695 -0.73832,-1.942 -1.34239,-28.3189 -1.34239,-58.61556 l 0,-55.0848 -22.560498,0 c -22.560505,0 -22.560505,0 -28.961705,-4.91357 -3.52066,-2.70247 -8.506023,-7.52639 -11.078583,-10.71982 -4.677383,-5.80624 -4.677383,-5.80624 -5.133269,-42.18895 l -0.455884,-36.38272 35.366307,-35.45755 c 35.366292,-35.45755 35.366292,-35.45755 39.975672,-33.07395 6.42194,3.32093 17.70017,14.91985 20.0697,20.64041 1.97741,4.7739 1.97741,4.7739 -32.276462,39.05207 l -34.253868,34.27817 0,19.88153 0,19.88154 22.551697,0.51663 c 22.292843,0.5107 22.626893,0.56925 29.103463,5.10009 3.6035,2.52093 8.7629,7.87045 11.46537,11.88786 4.91357,7.30438 4.91357,7.30438 4.91357,77.43545 0,55.09987 -0.40504,70.12987 -1.88983,70.12547 -1.03941,0 -3.93087,-1.2599 -6.42544,-2.7928 z"
       id="path3454"
       inkscape:connector-curvature="0" />
  </g>
</svg>
