<?xml version="1.0" encoding="utf-8"?>
<!-- Generator: Adobe Illustrator 14.0.0, SVG Export Plug-In . SVG Version: 6.00 Build 43363)  -->
<!DOCTYPE svg PUBLIC "-//W3C//DTD SVG 1.1//EN" "http://www.w3.org/Graphics/SVG/1.1/DTD/svg11.dtd">
<svg version="1.1" id="Layer_1" xmlns="http://www.w3.org/2000/svg" xmlns:xlink="http://www.w3.org/1999/xlink" x="0px" y="0px"
	 width="800px" height="276.75px" viewBox="0 0 800 276.75" enable-background="new 0 0 800 276.75" xml:space="preserve">
<g>
	<path fill-rule="evenodd" clip-rule="evenodd" d="M406.98,18.963c2.106,3.585,4.085,5.62,2.156,10.766
		c4.93,4.04,7.521,10.432,12.923,14.009c-0.509,3.392,3.314,2.437,2.156,6.461c1.51,3.427,5.313,4.865,7.539,7.54
		c0.738,0.894,0.316,2.419,1.088,3.234c0.982,1.07,4.507,2.735,4.298,6.461c2.645,1.14,4.294,3.148,6.468,5.392
		c0.878,0.911,1.262,2.332,2.155,3.227c0.773,0.771,2.649,1.297,3.228,2.157c0.265,0.386-0.352,1.867,0,2.156
		c0.125,0.104,1.016-0.141,1.086,0c0.178,0.386-0.315,1.893,0,2.156c0.142,0.114,0.983-0.158,1.071,0
		c0.228,0.395-0.333,1.877,0,2.148c0.281,0.237,2.017,0.815,2.157,1.078c0.84,1.534,0.42,3.051,1.067,4.313
		c0.301,0.553,1.019-0.131,1.089,1.079c0.051,0.876,1.21,1.06,1.068,2.147c3.192,3.086,5.892,5.822,8.628,10.775
		c0.542,0.974,2.068,2.726,2.155,4.313c0.106,2.191,5.504,4.584,6.454,7.54c2.927,0.446,6.415,0.043,10.78,1.078
		c2.384,0.562,3.105,0.386,7.54,0c4.473-0.394,11.133,0.421,16.148,0c3.052-0.263,4.488-1.982,8.627-1.078
		c0.878,0.184,1.069,1.095,2.157,1.078c1.052-0.027,2.331-1.175,4.313-1.078c6.436,0.314,10.046,2.454,13.99-1.08
		c0.246-0.211,2.071-0.858,2.158-1.078c0.945-2.104,0.823-3.384,2.156-5.382c0.332-0.509,1.981-1.72,2.157-2.157
		c0.612-1.561-0.509-3.778,0-5.392c0.14-0.438,2.103-1.901,2.157-2.147c0.541-3.024-0.406-6.066,0-8.618
		c3.225-3.436,4.504-9.064,6.468-14.008c0.177-0.448,1.018,0.052,1.07-1.079c0.104-2.078-0.404-3.84,1.069-5.384
		c0.877-0.92,1.298-2.332,2.157-3.235c0.385-0.394,1.28-2.883,3.244-3.226c4.032-0.596,3.347,3.306,4.296,5.382
		c0.244,0.509,1.015-0.096,1.085,1.078c0.053,1.026,1.981,3.078,1.071,6.462c-0.947,2.533,2.419,3.059,3.243,4.313
		c0.841,1.323,0.018,3.795,2.141,4.304c0.104,8.767,2.383,15.01,7.555,19.393c-0.578,6.321,2.998,8.477,5.385,11.854
		c4.908-0.167,4.224-0.895,8.608,0c2.77,0.113,5.136,0.604,6.469,2.156c3.734-1.192,7.188-2.92,12.922-2.156
		c1.578,0.209,1.981,1.06,3.227,1.078c2.313,0.036,5.417-1.158,7.556-1.078c4.191,0.148,13.153,2.139,20.464,1.078
		c1.523-0.229,2.033-1.096,3.226-1.078c2.174,0.033,3.664,0.63,7.54,1.078c1.401,0.157,2.929-0.246,4.312,0
		c1.053,0.184,1.613,1.105,3.228,1.078c1.754-0.035,1.84-0.833,3.242-1.078c2.578-0.456,4.331,0.28,6.453-1.078
		c0.51-0.325,0.806-0.913,1.086-1.08c0.809-0.473,2.297-0.446,3.228-1.078c1.999-1.349,2.788-2.543,4.312-4.305
		c3.278-3.804,7.139-8.679,11.853-12.931c-0.436-2.596,1.965-2.341,1.07-5.382c4.155-2.315,6.224-6.715,9.696-9.697
		c-0.314-1.306,1.77-0.525,2.155-1.078c0.316-0.448-0.368-1.763,0-2.156c0.333-0.36,1.808,0.35,2.158,0
		c0.368-0.369-0.334-1.753,0-2.157c0.719-0.86,2.612-1.253,3.224-2.157c0.737-1.034,0.282-2.35,1.09-3.226
		c0.49-0.553,3.208-3.174,4.294-3.235c0.476-0.027,2.947-3.208,4.313-4.305c0.668-0.543,1.017,0.131,1.087-1.079
		c0.071-1.438,1.472-0.342,2.14-1.078c1.438-1.561,1.893-4.699,3.245-6.462c0.612-0.805,2.278-2.287,3.225-3.234
		c2.859-2.858,4.857-4.812,9.696-6.462c-0.211-3.55,3.016-3.857,5.384-5.391c0.594-0.385-0.158-1.008,1.085-1.079
		c2.509-0.131,4.595-6.53,8.611-6.461c4.542-0.42,4.032,4.989,5.38,7.54c0.3,0.561,1.019-0.131,1.088,1.078
		c0.089,1.552,2.054,2.332,2.157,4.313c0.07,1.254,2.35,4.358,3.226,6.462c0.193,0.474,1.019-0.071,1.089,1.078
		c0.033,0.825-0.335,2.491,0,3.235c0.211,0.509,1.944,0.658,2.14,1.07c0.419,0.885-0.405,2.35,0,3.235
		c0.612,1.315,1.543,1.857,2.154,3.235c0.176,0.386-0.298,1.902,0,2.148c1.054,0.868,1.456,0.868,2.157,2.157
		c0.212,0.394-0.333,1.885,0,2.156c1.035,0.852,1.545,0.815,2.156,2.157c1.264,2.709,2.14,5.944,3.227,8.618
		c0.668,1.596,1.491,2.577,2.156,4.304c0.631,1.623,0.404,2.656,1.087,4.314c0.194,0.464,1.019-0.062,1.071,1.078
		c0.017,0.404-0.281,3.007,0,3.226c0.437,0.351,2.278,1.876,3.227,3.235c0.315,1.735-1.019,1.85-1.07,3.234
		c1.158,0.29,0.35,2.491,1.07,3.228c0.928,0.946,1.543-0.368,2.155,1.078c0.298,0.693,1.14,1.228,1.086,2.156
		c-0.018,0.255-1.488,1.07-1.086,2.157c0.684,1.78,1.296,5.041,4.313,5.382c-0.475,3.708,0.42,6.04,1.087,8.618
		c-2.28,0.973-4.032,2.595-6.471,3.235c-1.683,0.438-3.68-0.316-5.383,0c-1.962,0.351-7.048,1.428-11.853,1.078
		c-2.349-0.176-4.261-0.921-6.469-1.078c-0.825-0.061-1.755,1.173-3.228,1.078c0.388,0.027-0.753-0.999-1.088-1.078
		c-0.664-0.167-1.454,0.088-2.138,0c-4.19-0.553-9.766-0.491-16.167-1.079c-2.418-0.218-4.172-1.017-6.471-1.077
		c-2.434-0.07-3.82,0.99-6.45,1.077c-2.366,0.07-4.296-1.043-6.469-1.077c-3.894-0.07-9.188,1.533-15.079,1.077
		c-5.399-0.42-9.979-0.526-17.236,0c-1.017,0.07-2.243-0.218-3.225,0c-0.878,0.194-1.09,1.096-2.157,1.079
		c-1.054-0.027-2.333-1.184-4.314-1.079c-2.121,0.114-6.206,2.578-8.626,4.305c-4.612,3.322-8.348,7.925-10.765,14.009
		c-1.421,1.096-3.979,1.053-5.385,2.156c-1.665,2.28-3.103,4.796-4.313,7.53c-1.419,1.106-3.962,1.071-5.38,2.157
		c0.698,3.946-2.334,4.14-2.157,7.54c-3.822-0.579-2.648,3.823-6.472,3.244c-0.035,3.19-2.805,5.347-4.296,7.539
		c-0.421,0.596-1.017-0.175-1.085,1.069c-0.142,2.613-4.454,5.962-6.473,8.627c-1.312,1.755-2.471,3.999-4.294,6.454
		c-0.456,0.611-1.016-0.177-1.087,1.085c0,0.211-0.86,1.91-1.068,2.155c-0.843,0.948-2.193,0.282-3.245,1.071
		c-1.211,0.91-1.351,4.945-4.296,5.382c-1.771,0.247-4.839-2.121-5.383-4.294c-0.141-0.579,0.281-1.684,0-2.159
		c-0.174-0.279-2.122-0.909-2.156-1.086c-0.476-1.788,0.332-4.12,0-6.452c-1.264-1.981-2.822-3.646-4.313-5.399
		c-1.088-2.613-0.228-6.12-1.088-8.609c-0.174-0.526-1.718-1.314-2.138-2.157c-1.998-3.961-2.858-11.748-7.557-15.077
		c0.718-2.562-0.493-4.025-1.07-6.471c-0.719-3.042-0.719-6.383-2.157-8.618c-0.384-0.597-1.018,0.166-1.067-1.078
		c-0.16-2.806-2.034-1.911-2.158-4.304c-0.159-2.91-3.155-6.567-4.312-9.696c-10.731-0.763-21.496-1.482-33.404-1.079
		c-2.751,0.123-2.139,3.613-2.139,6.461c-2.839,1.113-3.626,4.278-6.469,5.392c-1.034,0.719,0.177,4.357-1.087,5.383
		c-1.017,0.841-1.753-0.483-2.14,1.079c-0.14,0.561,0.28,1.666,0,2.156c-0.281,0.448-1.981,0.684-2.155,1.079
		c-0.562,1.165,0.579,3.155,0,4.304c-0.581,1.131-5.294,2.902-3.242,7.547c-1.141,0.914-3.456,1.965-4.297,3.229
		c-0.509,0.752,0.385,2.419,0,3.225c-0.282,0.562-1.896,0.615-2.157,1.087c-0.684,1.176-0.492,2.157-1.088,3.226
		c-0.316,0.563-1-0.14-1.068,1.088c-0.089,1.56-0.317,3.594-2.157,5.383c-2.421-0.42-3.839-1.017-5.384-2.156
		c-2.017-1.49-1.664-2.63-3.243-4.314c-6.453-6.891-12.256-16.077-21.531-21.54c-0.665-4.234-4.997-5.356-7.537-8.617
		c-0.597-0.771-0.403-2.428-1.087-3.235c-0.809-0.957-2.491-1.237-3.229-2.158c-0.734-0.92-0.312-2.402-1.084-3.235
		c-1.526-1.63-3.613-2.892-5.386-4.303c-3.523,1.84-6.803,0.412-11.852,1.077c-1.595,0.211-1.946,1.026-3.225,1.079
		c-2.211,0.079-4.595-1.955-8.61-1.079c-2.366,0.509-2.804,0.449-6.47,0c-2.332-0.289-6.523-0.753-9.695,0
		c-0.877,0.203-1.072,1.079-2.158,1.079c-2.331-0.01-4.154-0.921-6.47-1.079c-1.736-0.122-1.874,1.202-3.226,1.079
		c0.069,0-0.35-1.043-1.068-1.079c-1.438-0.078-4.262,0.877-6.472,1.079c-2.595,0.236-4.76-0.193-7.54,0
		c-4.672,0.315-4.9,0.955-9.695,0c-1.174-0.238-1.981,0.088-2.156-1.079c-2.175-0.691-2.752,1.85-5.384,2.157
		c-1.928,0.219-4.033-1.025-6.47-1.078c-1.271-0.035-3.357,0.85-5.381,1.078c-2.99,0.324-5.691-0.325-6.463,0
		c-3.48,1.456-6.662,4.866-6.47,9.696c-1.577,0.298-2.445,1.955-3.226,3.226c-0.245,0.395,0.342,1.876,0,2.156
		c-1.989,1.623-1.033,0.615-2.156,4.313c-0.114,0.359-3.138,4.751-3.235,6.452c-0.027,0.508-0.764,2.298-1.07,3.244
		c-0.895,2.7-2.507,6.856-4.314,9.697c-0.455,0.701-1.663,3.19-1.077,6.452c-2.025-0.386-1.281,2.525-2.156,3.244
		c-0.14,0.105-0.991-0.158-1.078,0c-0.221,0.385,0.332,1.876,0,2.139c-0.124,0.105-1.009-0.122-1.07,0
		c-0.194,0.404,0.306,1.91,0,2.157c-0.141,0.122-1.009-0.141-1.08,0c-1.331,2.524-2.796,4.418-3.234,8.625
		c-2.84,0.755-2.28,4.91-5.382,5.384c1,8.907-5.787,10.012-7.539,16.167c-4.024-2.386-6.349-6.68-8.626-10.785
		c-0.86-1.542-0.334-3.032-1.07-4.294c-0.394-0.684-1.842-1.562-2.158-2.159c-0.638-1.207-0.57-2.138-1.077-3.24
		c-0.194-0.422-0.842-0.124-1.08-1.072c-0.167-0.684,0.131-1.472,0-2.154c-1.78-1.297-2.884-3.631-4.304-5.385
		c-1.981-2.438-3.479-4.242-5.392-7.539c-0.596-1.034-1.622-1.367-2.156-2.156c-0.72-1.069-0.342-2.28-1.071-3.227
		c-0.657-0.86-1.472-1.105-2.157-2.156c-0.463-0.719-0.586-1.387-1.077-2.157c-0.325-0.509-0.912-0.806-1.079-1.087
		c-0.982-1.647-1.965-3.19-3.235-5.383c-0.534-0.928-0.447-2.069-1.078-3.225c-2.035-3.789-5.403-7.199-5.383-11.854
		c-1.964-1.28-4.137-2.384-4.305-5.382c-0.201-3.481-4.033-4.998-5.391-8.627c-8.811-0.682-16.176,0.509-23.698,1.079
		c0.352-0.026-0.542-1.079-1.077-1.079c-0.948,0-2.454,1.062-4.314,1.079c-1.395,0.018-2.91,0.15-4.305,0
		c-1.026-0.105-0.762-1.007-1.078-1.079c-1.071-0.21-0.947,1.088-1.078,1.079c-2.675-0.192-4.244-0.982-6.463-1.079
		c-3.339-0.131-7.801,2.516-10.773-1.069c-2.937-0.789-2.166,2.14-4.304,2.147c-2.685,0.167-3.341-1.691-5.394-2.147
		c-3.154-0.281-3.303,2.428-6.46,2.147c-3.094,0.228-5.468-0.271-6.468-2.147c-6.393,2.033-13.274,2.875-21.542,1.069
		c-0.892-0.193-1.06-1.024-2.156-1.069c-1.743-0.07-1.85,0.832-3.235,1.069c-0.779,0.141-9.696-1.306-10.765,0
		c-0.493,0.606-2.884,1.667-4.315-1.069c-2.033,1.192-5.083,1.367-7.538,2.147c-2.017-1.569-7.137-0.044-8.618-2.147
		c-3.471,0.526-6.366,3.937-8.619,0c-2.419-1.062-1.98,1.841-4.312,2.147c-1.833,0.246-3.385-1.209-5.384-1.079
		c-3.549,0.237-7.003,2.218-11.851,1.079c-0.895-0.21-1.053-1.007-2.148-1.079c-1.868-0.114-3.359,1.131-5.392,1.079
		c-1.93-0.044-2.272-1.166-4.305-1.079c-1.964,0.096-4.428,1.071-6.47,1.079c-2.612,0.018-4.979-0.956-7.54-1.079
		c-1.613-0.069-3.832,1.079-5.381,1.079c-2.229,0-3.48-1.147-5.394-1.079c-6.934,0.281-13.938,2.07-21.54-1.069
		c-3.165,1.025-3.051,1.929-6.461,1.069c-2.331-0.579-2.822,1.193-4.312,1.079c-1.701-0.122-2.613-0.57-4.313-1.079
		c-3.674-1.077-9.828,0.141-17.235,0c-4.481-0.079-9.329,0.912-12.923-2.147c-0.745-3.516,3.341-3.007,5.383-4.314
		c0.097-0.052,1.412-1.157,1.078-1.077c1.675-0.431,1.5,0.973,2.157,1.077c2.542,0.405,1.737-1.516,5.383-1.077
		c0.719,0.088,2.456,1.052,2.157,1.077c2.244-0.228,4.365-2.007,6.46-2.156c6.155-0.421,12.738-0.439,19.393,0
		c4.803,0.324,10.073,1.964,15.079,2.156c0.719,0.027,5.015,0.465,5.392,0c0.052-0.061-0.045-1.07,0-1.077
		c3.233-0.15,4.198,2.173,6.461,0c2.191-2.096,2.665,1.646,4.312,0c0.877-0.868,1.088-0.281,3.228,0c1.41,0.192,2.9-0.176,4.312,0
		c2.287,0.298,4.225,0.999,6.461,1.077c2.587,0.096,5.112-0.956,7.54-1.077c0.938-0.043,2.323-0.194,3.235,0
		c2.464,0.533,3.024,0.385,7.54,0c-0.333,0.034,0.562,1.727,1.079,1.077c2.927-3.655,9.984,3.534,14-2.156
		c1.945,0.851,4.225,1.938,6.47,2.156c1.411,0.141,3.56-1.034,5.382-1.077c1.981-0.036,3.823,1.14,5.383,1.077
		c2.313-0.078,4.287-0.938,6.47-1.077c2.122-0.124,4.339-0.158,6.461,0c2.359,0.184,4.27,1.017,6.46,1.077
		c2.245,0.07,4.191-0.981,6.47-1.077c2.112-0.088,4.191,1.06,6.46,1.077c2.211,0.019,4.384-0.929,6.463-1.077
		c2.454-0.167,4.952-0.264,7.538,0c3.56,0.367,9.031,1.191,15.089,1.077c0.875-0.017,1.06-1.209,2.148-1.077
		c1.157,0.14,2.025,1.227,5.392,1.077c4.217-0.175,7.952-1.298,11.852-1.077c4.103,0.236,7.207,1.367,12.923,1.077
		c3.26-0.158,6.223-2.146,10.774-1.077c0.893,0.209,1.06,1.017,2.156,1.077c0.868,0.053,1.7-1.28,3.226-1.077
		c0.911,0.122,1.052,1.07,2.156,1.077c2.359,0.027,4.209-1.034,6.462-1.077c1.788-0.036,2.85,1.955,4.312,0
		c1.071-1.297,0.71-1.842,0-3.227c-0.842-1.64-1.884-3.06-3.233-5.393c-0.528-0.902-1.772-1.482-2.157-2.147
		c-1.026-1.841-1.193-4.584-2.147-6.469c-0.405-0.781-1.623-1.079-2.159-2.158c-0.647-1.279-0.418-2.121-1.078-3.225
		c-0.638-1.079-1.506-1.315-2.156-2.156c-1.375-1.797-2.525-4.902-4.305-7.54c-0.64-0.938-1.569-0.878-2.156-2.158
		c-0.184-0.385,0.309-1.893,0-2.157c-0.805-0.657-2.656-1.332-3.235-2.147c-0.265-0.394,0.358-1.867,0-2.157
		c-1.052-0.868-2.656-2.884-4.305-5.391c-0.613-0.921-1.629-1.395-2.156-2.148c-0.272-0.394,0.35-1.868,0-2.157
		c-0.158-0.131-0.965,0.167-1.079,0c-1.096-1.656-0.982-3.778-2.156-5.382c-1.07-1.474-2.927-2.104-4.304-3.235
		c0.989-3.227-1.606-3.2-2.157-5.383c-0.519-2.095-1.045-2.085-2.159-4.313c-0.638-1.279-0.463-2.113-1.069-3.235
		c-0.252-0.456-1.981-0.692-2.156-1.078c-1.324-2.928-1.184-8.145-5.391-9.688c-3.349,0.238-1.816,5.357-2.148,8.619
		c-3.752,1.419-4.576,5.629-6.471,8.616c-0.5,0.791-1.533,1.158-2.148,2.149c-0.927,1.508-1.191,4.261-3.233,6.47
		c-2.025,1.56-0.133,7.048-2.158,8.618c-3.156-0.28-3.306,2.438-6.461,2.148c-1.35-1.385-1.639-2.954-2.156-4.305
		c-1.113-2.927-0.946-3.577,2.156-7.539c0.606-0.78,1.473-1.271,2.157-2.156c0.632-0.833,0.817-2.025,2.148-2.156
		c0.184-3.761,2.682-6.742,4.314-9.697c1.428-2.595,1.892-6.548,5.381-7.54c-1.666-7.776,4.295-7.907,3.235-15.077
		c0.869-0.931,2.956-0.641,3.236-2.159c4.595-0.727,5.944,3.956,7.539,6.462c0.376,0.596,2.018,1.813,2.156,2.156
		c0.755,1.894-0.158,3.481,1.069,5.391c0.395,0.597,1.019-0.175,1.079,1.07c0.131,2.48,1.237,1.911,2.157,3.235
		c0.271,0.386-0.35,1.867,0,2.158c0.167,0.132,0.965-0.167,1.08,0c0.271,0.385-0.352,1.867,0,2.157
		c0.857,0.701,2.077-0.466,2.155,1.069c0.02,0.413-0.281,3.016,0,3.235c0.885,0.728,3.121,1.254,3.226,3.235
		c0.097,1.718,0.719,1.868,1.079,3.226c0.79,2.454,3.244,3.226,5.39,4.313c-1.77,3.393,2.036,4.217,2.149,6.461
		c0.078,1.395,1.596,1.359,2.156,2.156c0.273,0.386-0.35,1.868,0,2.157c1.561,1.271,2.972,2.656,5.392,4.305
		c-1.235,4.47,2.262,4.199,2.148,7.538c0.482,2.455,3.638,2.684,4.314,5.393c0.587,2.349,1.174,1.814,2.156,3.226
		c2.016,2.937,3.578,5.716,5.384,8.617c0.376,0.623,2.007,1.798,2.156,2.158c0.349,0.885-0.446,2.401,0,3.234
		c0.298,0.562,1.008-0.132,1.079,1.078c0.069,1.395,1.691,1.342,2.146,2.157c1.729,3.069,2.947,6.462,4.314,9.688
		c5.268-0.842,11.905,2.839,19.391,1.079c0.878-0.203,1.062-1.052,2.157-1.079c1.93-0.035,2.263,1.149,4.304,1.079
		c2.648-0.08,5.806-0.93,8.619-1.079c0.131,0,1.149,1.464,2.156,1.079c0.403-0.15,0.037-0.948,1.079-1.079
		c4.55-0.535,12.17,0.815,18.314,0c3.165-0.413,3.524-0.728,7.54,0c1.664,0.307,4.137-0.675,4.304,1.079
		c3.822-4.252,10.055,0.595,15.087-2.148c3.295-1.009,2.648-5.971,5.383-7.548c1.918-1.947,2.051-4.26,3.233-6.461
		c0.3-0.561,1.009,0.14,1.079-1.078c0.027-0.501,0.798-1.562,1.07-2.158c0.632-1.358,0.991-3.541,2.156-5.381
		c0.325-0.51,0.912-0.798,1.079-1.079c0.604-1.007,0.483-1.911,1.079-3.226c1.157-2.57,3.322-4.201,2.156-7.549
		c6.602-0.929,4.375-10.705,9.695-12.921c-1.481-4.673,1.64-8.145,2.149-10.774c0.255-1.314-0.44-3.06,0-4.305
		c0.061-0.157,1.876-0.385,2.155-1.079c0.369-0.911-0.42-2.357,0-3.234c0.255-0.525,1.017,0.105,1.079-1.078
		c0.071-1.377,1.814-1.368,2.156-2.157c0.396-0.893-0.421-2.341,0-3.227c0.342-0.718,3.701-2.296,2.159-6.47
		c3.48,1.333,0.822-3.48,4.303-2.147c-1.325-3.646,1.763-5.997,2.158-9.697c0.087-0.85-0.352-2.472,0-3.235
		c0.755-1.639,4.557-1.841,3.236-4.304C404.824,18.963,405.902,18.963,406.98,18.963z M402.677,39.425
		c-0.281,1.017-0.798,0.57-1.08,1.078c-1.006,1.833-1.357,5.875-2.155,7.54c-0.044,0.088-0.841,0.719-1.079,1.079
		c-0.771,1.209-1.096,1.288-2.156,2.156c-0.14,0.123-1.07,4.286-1.079,4.313c-0.98,2.524,0.334,2.079-1.067,3.226
		c-0.3,0.246,0.147,1.771,0,2.157c-1.535,3.823-3.254,7.557-3.237,12.922c-2.576-0.298-1.664,1.289-2.156,3.235
		c-0.482,1.921-1.515,2.937-2.155,4.313c-0.255,0.552-0.798-0.026-1.07,1.078c-0.333,1.333-0.202,1.429-1.08,2.148
		c-0.351,0.289,0.272,1.771,0,2.157c-1.438,2.062-3.349,2.384-4.312,4.314c-1.254,2.515-1.123,3.971-2.158,5.382
		c-0.49,0.676-1.727,1.359-2.146,2.157c-0.291,0.534,0.148,1.561,0,2.147c-0.237,0.957-0.887,0.659-1.079,1.08
		c-1.096,2.358-2.936,6.373-3.235,7.547c-0.754,3.016-1.586,2.245-2.156,4.305c-0.369,1.333,0.289,2.955,0,4.313
		c7.932-0.921,15.657,0.429,23.706,0c5.234-0.289,6.347-0.692,8.616,0c0.897,0.271,2.29-0.044,3.228,0
		c6.154,0.289,11.749,0.465,17.235,0c2.12-0.185,4.332-1.042,6.471-1.078c3.612-0.062,7.748,1.393,10.765,1.078
		c3.98-0.421,3.122-0.447,6.469,0c1.387,0.174,2.913-0.008,4.313,0c1.878,0.009,3.334-1.078,4.296-1.078
		c0.702,0,1.246,1.078,1.089,1.078c3.243,0.052,5.646-0.044,8.607,0c1.28-3.972-1.544-4.332-2.138-5.392
		c-2.316-3.98-4.279-6.899-6.47-9.695c-1.562-1.982-2.84-4.174-4.313-5.383c-0.35-0.29,0.281-1.771,0-2.156
		c-0.474-0.675-1.562-1.359-2.157-2.158c-1.244-1.657-3.262-2.727-4.296-4.304c-1.07-1.622-1.104-4.506-2.157-6.462
		c-0.367-0.657-1.646-1.271-2.155-2.156c-0.543-0.92-0.404-2.306-1.088-3.235c-1.595-2.183-4.453-3.383-6.452-5.383
		c-1.859-1.85-3.665-4.252-5.401-6.47c-1.786-2.297-2.471-5.102-4.294-7.539c-1.685-2.219-6.558-3.507-5.385-7.54
		c-2.611-1.701-4.769-3.849-6.47-6.461c-0.141-4.165-4.373-4.253-5.391-7.54c-1.078,0-2.146,0-3.226,0
		C402.456,37.216,402.947,38.426,402.677,39.425z M750.619,41.581c-0.207,6.252-5.927,6.988-8.609,10.774
		c-2.051,0.466-2.7,2.323-5.38,2.156c-0.3,2.176-2.018,2.938-3.245,4.305c-1.315,1.499-2.962,2.84-4.296,4.313
		c-1.245,1.368-2.017,2.911-3.244,4.305c-1.243,1.428-3.069,2.884-4.296,4.313c-1.208,1.385-2.242,3.146-3.243,4.305
		c-1.299,1.499-2.998,2.717-4.297,4.313c-3.979,4.839-6.889,10.415-10.781,14c-1.333,1.227-5.33,3.218-5.384,4.313
		c-0.105,1.973-2.351,2.499-3.225,3.227c-0.352,0.288,0.262,1.771,0,2.156c-0.526,0.736-1.562,1.263-2.158,2.156
		c-0.508,0.746-0.578,1.464-1.087,2.157c-1.753,2.401-4.929,4.137-4.294,7.54c1.893,1.559,4.416,0.077,6.451,0
		c9.713-0.385,19.077-0.754,28.018,0c4.191,0.349,5.543,0.402,8.609,0c4.609-0.614,8.961-0.211,12.924,0
		c1.596,0.077,2.207,0.885,3.241,1.078c5.684,1.034,9.714-1.229,12.925,2.147c1.684-3.621,6.434-1.332,7.537-1.069
		c1.351,0.315,2.93-0.175,4.313,0c2.298,0.281,4.542,1.008,6.454,1.069c1.085,0.044,1.295-0.886,2.155-1.069
		c4.47-0.973,5.315,2.762,7.541,0c0.088-3.506-3.087-6.531-4.298-9.696c-0.456-1.157-0.61-3.762-1.087-5.391
		c-0.017-0.097-0.981,0.078-1.067,0c-0.229-0.176,0.035-1.833,0-2.158c-0.509-4.251-1.877-4.084-3.244-6.46
		c0.735-3.147-0.579-4.979-1.071-5.382c-0.089-0.079-1.087-3.271-1.067-3.236c-0.755-3.015-1.597-2.244-2.157-4.304
		c-0.37-1.341,0.28-2.955,0-4.313c-3.807-1.596-3.858-6.435-5.383-9.696c-0.597-1.263-1.841-1.947-2.157-3.226
		c-0.158-0.623,0.264-1.579,0-2.157c-0.193-0.403-1.912-0.596-2.157-1.078c-0.577-1.148,0.438-3.094,0-4.313
		c-1.421,0.192-0.543-1.438-1.086-2.149c-1.438-1.928-4.858-2.26-4.297-5.39c-2.104-2.21-1.507-7.111-5.398-7.541
		C752.058,41.581,751.339,41.581,750.619,41.581z M557.804,88.984c-1.456,2.489-4.33,3.568-3.243,8.618
		c-1.437,1.069-2.104,2.91-4.297,3.225c0,2.158,0,4.314,0,6.47c-2.786,0.815-3.752,3.437-3.243,7.539
		c6.803,5.244,17.99-0.56,28.018,1.08c1.178-6.813-5.417-10.557-7.539-16.159c-0.597-1.542,0.334-3.759,0-5.391
		c-0.33-1.516-1.683-1.85-2.156-3.226c-0.21-0.588,0.036-1.534,0-2.157c-0.21-3.515-3.349-6.62-4.313-9.697
		c-1.067,0-2.156,0-3.226,0C556.05,82.76,557.277,85.126,557.804,88.984z M484.548,129.915c1.122,1.553,0.896,2.875,2.157,4.314
		c0.736,0.841,2.332,0.342,3.227,1.078c0.369,0.298-0.314,1.797,0,2.148c1.875,2.095,4.402,4.541,6.471,6.47
		c2.243,2.095,4.785,4.242,7.54,5.382c0.121,2.963,2.699,5.628,4.294,7.54c1.807,2.158,3.491,5.909,7.559,5.383
		c1.56-2.385,0.717-7.171,3.226-8.607c1.631-2.667,2.207-6.411,5.382-7.541c-1.017-3.208,1.7-6.092,2.156-6.469
		c0.298-0.237-0.141-1.771,0-2.157c0.912-2.42,2.14-4.138,3.228-5.383c1.525-1.735,1.7-2.446,2.155-4.314
		c0.545-2.182,3.139-2.157,2.158-5.382c-17.955,0-35.91,0-53.863,0C479.623,125.62,483.024,127.83,484.548,129.915z
		 M601.971,124.532c-1.859-0.122-3.418-1.928-4.312-2.156c-3.138-0.781-4.507,0.614-6.471,1.079
		c-1.754,0.412-3.436-0.132-4.295,1.077c-0.456,1.5,1.018,2.341,1.069,3.226c0.055,1.148,0.876,0.606,1.07,1.079
		c0.385,0.921-0.299,2.289,0,3.235c0.42,1.297,1.578,1.087,2.155,2.157c0.053,1.069-0.054,2.157,0,3.226
		c0.071,1.096,0.929,0.674,1.088,1.078c0.526,1.464,0.456,2.358,1.07,4.313c0.806,2.517,2.979,4.717,2.156,8.618
		c1.278,0.526,2.438,1.14,3.225,2.158c-1.49,3.786,1.896,4.575,2.156,5.383c0.685,1.98,0.475,4.629,1.088,6.469
		c1.192,3.594,4.209,6.646,3.226,11.835c2.719,1.963,5.138,4.208,5.383,8.628c3.087-0.546,4.139-2.21,5.384-3.228
		c0.368-0.297-0.299-1.789,0-2.157c2.822-3.523,6.504-6.154,8.627-8.626c1.034-1.193,1.175-3.051,2.155-4.296
		c1.771-2.298,3.489-4.296,5.385-6.469c1.629-1.878,3.769-3.524,5.381-5.385c0.578-0.647,0.387-0.525,1.089-1.087
		c1.086-0.858,0.228-1.016,1.069-2.157c2.138-2.822,11.729-10.625,11.851-12.921c0.072-1.245,0.685-0.483,1.071-1.079
		c3.367-5.198,10.116-6.75,10.782-14.001C643.614,123.604,620.259,125.777,601.971,124.532z M344.5,127.758
		c-1.955-0.7-4.401-0.974-6.46-1.069c-1.974-0.096-3.271,1.052-4.314,1.069c-1.079,0.027-1.28-0.885-2.149-1.069
		c-3.865-0.842-5.82,0.789-8.616,1.069c-3.508,0.36-7.978,0.491-11.854,0c-4.171-0.517-4.787-0.324-8.617,0
		c-7.505,0.659-15.746-0.14-20.47-1.069c-1.516,4.226,1.727,5.523,2.156,6.461c0.938,2.06,0.018,5.04,3.228,5.382
		c1.113,4.638,3.83,7.662,6.468,10.774c0,1.437,0,2.876,0,4.315c3.675,3.137,8.331,5.312,7.54,12.92
		c5.638,3.701,8.083,10.592,12.923,15.079c0.017,2.508,1.912,5.19,2.156,5.384c0.35,0.298-0.271,1.771,0,2.158
		c0.57,0.822,2.428,1.507,3.236,2.154c1.357,1.123-1.833,6.399,2.156,4.314c3.235,1.086,1.903-2.403,2.148-4.314
		c2.201-0.314,2.113-2.909,4.314-3.227c0-1.806,0-3.593,0-5.382c3.28-0.666,2.103-5.805,5.382-6.471
		c-1.385-3.893,1.719-4.436,2.156-5.382c0.921-2.018,1.297-4.682,2.158-6.47c0.165-0.352,1.866-0.701,2.156-1.07
		c0.456-0.613,0.868-2.734,1.07-3.244c0.421-1.033-1.037-0.875-1.07-1.067c-0.325-1.614,2.622-2.843,3.225-3.229
		c0-2.154,0-4.312,0-6.469c1.904-0.973,1.78-3.963,4.314-4.305c-1.201-5.153,3.349-4.55,2.156-9.695
		c2.243-2.069,4.489-4.129,5.383-7.549C352.891,124.349,347.551,126.005,344.5,127.758z"/>
	<path fill-rule="evenodd" clip-rule="evenodd" d="M442.538,226.877c0.859,0.56,1.736,1.121,3.226,1.068
		c-2.066,3.312-0.262,7.942-2.155,10.782c-0.262,0.386-0.701,2.911-1.07,3.228c-0.121,0.089-1.033-0.123-1.086,0
		c-1.543,3.558-0.281,5.768-4.312,6.469c0.034,1.035,1.331,0.825,2.154,1.07c-2.752,2.278-3.788,6.26-8.608,6.469
		c-1.317-8.03-6.172-12.501-8.627-19.391c1.282,1.228,3.805,1.21,6.471,1.069c-0.072,5.453,2.383,8.38,4.312,11.853
		c2.227,0.124,0.771-2.945,2.158-4.313c1.577-1.578,2.384,0.912,1.068-3.226c1.734,0.298,1.857-1.018,3.226-1.088
		C440.049,235.1,439.927,232.258,442.538,226.877z"/>
	<path fill-rule="evenodd" clip-rule="evenodd" d="M545.953,231.172c2.209,2.14,1.015,2.14,3.225,0
		c3.383-0.508,4.208,1.542,6.471,2.156c-0.598,3.366-6.243,1.665-8.628,3.244c-0.561,0.333-3.489,5.364-2.158,6.451
		c1.369,1.122,0.16,0.299,0,1.089c-0.208,1.068,1.091,0.946,1.091,1.068c-0.055,0.597-0.809,1.473-1.091,2.157
		c-0.138,0.385,0.302,1.911,0,2.156c-1.611,1.316,0.055,2.543-1.066,5.382c-0.86-0.56-1.756-1.122-3.228-1.068
		c0.054-7.804,2.016-10.152-1.086-17.235c-1.561,1.665-5.506,0.945-8.609,1.069c2.016-2.052-0.648-1.945,0-5.384
		c0.945,0.667,1.927,1.298,2.155,0c1.998,0.141,3.596,0.702,4.296,2.157C538.902,232.03,545.863,235.048,545.953,231.172z"/>
	<path fill-rule="evenodd" clip-rule="evenodd" d="M383.285,234.415c-0.938,3.14-1.614,1.211-4.313,1.07
		c-2.937-0.088-2.166,1.806-4.305,0c-1.113,0-0.754,1.35-1.078,2.156c-0.501,1.244-0.527,2.489-1.078,4.313
		c-0.65,2.139-0.378,0.72,0,4.312c0.254,2.42,0.49,5.961-1.079,8.608c-2.753-1.014-1.673-4.576-2.156-7.538
		c-0.797-4.961-2.202-10.924,1.077-14.01c2.5-0.333,4.139,0.176,5.393,1.087c-0.245-1.245,2.331-3.261,5.382-2.157
		C382.25,232.662,381.899,234.293,383.285,234.415z"/>
	<path fill-rule="evenodd" clip-rule="evenodd" d="M497.472,236.572c-3.437,0.911-3.333-1.701-5.384-2.157
		c-3.383-0.019-6.013,3.559-8.625,1.07c-0.3-2.228,3.189-0.772,4.313-2.157c0.087-0.088-0.106-1.033,0-1.07
		c1.384-0.419,1.929,1.124,2.155,1.07C493.945,232.646,498.347,230.681,497.472,236.572z"/>
	<path fill-rule="evenodd" clip-rule="evenodd" d="M515.795,232.258c0.946,0.842,2.419,1.159,4.294,1.07
		c0.51,9.204,7.153,12.256,7.542,21.548c-3.877-0.421-3.278-5.33-5.385-7.538c-3.594,0-7.17,0-10.767,0
		c-1.419,0.385-1.7,1.895-3.243,2.156c-2.191,0.683-0.299,5.436-4.294,4.313c-0.037-2.543,1.857-3.175,1.068-6.47
		c2.542,0.385,3.069-3.016,4.313-4.314c0.91-0.946,1.419-2.086,2.155-3.226c0.772-1.228,1.212-2.243,2.158-3.226
		C514.146,236.027,514.881,233.82,515.795,232.258z M513.638,243.023c-0.841,0.246-2.14,0.037-2.158,1.089
		c2.963-0.387,7.559,3.085,9.697,0c-2.315-1.281-2.524-4.666-4.313-6.471C516.493,240.149,515.759,242.29,513.638,243.023z"/>
	<path fill-rule="evenodd" clip-rule="evenodd" d="M573.953,232.258c3.19,1.562-1.281,4.332-4.296,3.228
		c-0.666,2.261,0.98,2.84,1.07,4.312c0.104,1.771-0.896,1.841-1.07,3.226c-0.281,2.054,1.369,4.087,0,5.4
		c0.142,3.069,4.487,1.965,7.539,2.14c-0.509,2.052-3.735,2.911-5.398,3.244c-0.511,0.104-3.983,0.315-4.299,0
		c-0.998-1-0.56-0.352-2.156,0c-2.664,0.579-4.382,0.788-6.47,0c-0.701-4.296,4.104-3.086,7.541-3.244
		c1.525-0.544-1.965-10.836,1.085-12.922c-0.456-2.421-5.713-0.034-6.47-2.156c0.16-2.982,4.49-2.018,7.541-2.157
		c0.296,0,1.999,0.21,2.157,0C572.146,231.593,571.568,234.503,573.953,232.258z"/>
	<path fill-rule="evenodd" clip-rule="evenodd" d="M625.657,232.258c6.856,4.647,1.439,13.993,3.246,21.55
		c-4.77,1.175-5.366-1.823-8.627-2.155c0.14-1.931-1.316-2.28-1.068-4.314c-3.315,0.807-2.071-2.964-5.383-2.157
		c-1.896,1-2.386,3.367-2.158,6.472c2.158,2.191-0.473,2.102-1.088,4.311c-3.873-1.733-1.75-8.152-2.155-12.939
		c-0.229-2.874-1.508-5.54-1.07-7.538c3.909,0.053,6.436,3.26,8.609,5.382c2.367,2.297,4.138,5.226,6.47,7.557
		C625.5,245.023,624.378,237.448,625.657,232.258z"/>
	<path fill-rule="evenodd" clip-rule="evenodd" d="M231.391,235.485c0.745,4.032-8.153,2.629-6.471-1.07
		C226.597,232.646,229.953,233.958,231.391,235.485z"/>
	<path fill-rule="evenodd" clip-rule="evenodd" d="M238.931,236.572c2.498,2.401,3.594,7.398,2.155,10.766
		c0.59-0.42,2.763,0.543,3.229,0c0.342-0.386-0.369-1.808,0-2.157c0.376-0.351,1.797,0.368,2.156,0c0.342-0.333-0.359-1.84,0-2.157
		c0.402-0.332,1.656,0.21,2.156,0c1.991-0.841,1.053-3.296,3.228-3.226c6.899,0.65,3.742,11.345,9.695,12.923
		c-2.463,3.769-3.814-2.544-7.54-1.068c-0.781-2.456-0.955-5.506-2.156-7.54c-3.157,0.788-4.629,3.261-6.462,5.382
		c0.248,1.105-4.104,4.559-4.306,4.313c-0.683-0.843-0.709-0.912-1.077,0c-1.35-0.158-0.798-1.999-1.079-3.244
		C238.3,247.776,236.731,241.043,238.931,236.572z"/>
	<path fill-rule="evenodd" clip-rule="evenodd" d="M224.92,239.798c1.938-0.141,2.279,1.315,4.315,1.069
		c-0.982,4.156-1.027,5.26,0,10.785c2.393,0.472,5.837-3.333,6.46-1.089c0.946,3.472-3.55,1.489-3.226,4.312
		c-3.312-0.28-4.848-2.332-7.549-3.224C224.92,247.706,224.92,243.742,224.92,239.798z"/>
	<path fill-rule="evenodd" clip-rule="evenodd" d="M314.334,239.798c-0.307,3.999-5.699,2.911-5.384,7.54
		c0.493,6.662,13.045,4.943,14.01,0c-0.211-3.033-1.877-4.595-5.391-4.314c0.306-1.91-1.019-2.209-1.08-1.068
		c-3.945-2.314,3.131-2.509,5.392-2.157c0.026,1.053,1.314,0.841,2.148,1.069c0.57,0.877,1.131,1.754,1.078,3.245
		c0.605,2.437,1.683-1.317,3.236,1.068c-1.447,3.594-4.068,5.997-6.462,8.627c-2.252,0.456-2.857-0.737-4.312-1.087
		c-2.166,2.085-0.308,1.509-4.305,1.087c-2.298-0.245-2.708-0.684-4.314-1.087c-1.911-0.475-2.376-0.72-4.304-2.157
		c2.376-2.928,0.062-4.927,1.069-7.54c0.193-0.473,1.288,0.527,1.079,1.089c-0.036,0.104,1.84-0.475,1.079-1.089
		c-1.052-0.841-0.65-0.473,0-1.068C309.336,240.621,311.757,239.097,314.334,239.798z"/>
	<path fill-rule="evenodd" clip-rule="evenodd" d="M347.736,225.789c1.104,3.628-3.35,1.683-5.392,2.156
		c-1.096,0.701-1.113,2.473-3.228,2.156c0,3.227,0,6.471,0,9.696c1.473,2.105,6.601,0.58,8.619,2.157
		c-1.228,2.735-4.779,3.122-8.619,3.226c2.552,4.383-0.78,9.257,1.08,12.923c-1.271,1.612-4.481,1.279-4.314,4.312
		c-1.623,0.597-1.912-4.207,0-4.312c3.297-0.159-2.656-3.21,0-5.383c1.491-1.21-0.149-0.335,0-4.297
		c0.184-2.349-3.822-0.491-5.382-1.086c0-1.07,0-2.157,0-3.226c5.653-2.122,3.339-5.822,4.305-12.94
		c1.05-0.018,0.841-1.315,1.077-2.14c3.244-1.069,4.804-3.822,9.695-3.243C345.842,224.438,347.717,224.7,347.736,225.789z"/>
	<path fill-rule="evenodd" clip-rule="evenodd" d="M201.225,253.808c-0.832-1.298,1.061-1.876,1.08-2.155
		c0.061-1.002-1.569-2.332-1.08-4.314c0.088-0.369,1.061-1.473,1.08-1.07c-0.053-1.123-1.86-3.35-1.08-6.47
		c0.158-0.614,1.087-1.141,1.08-1.07c0.333-2.681-3.473-8.818,3.233-7.556c-0.675,1.017,1.035,0.895,1.071,1.086
		c0.209,1.019-1.079,1-1.071,1.07c0.062,0.613,2.332,4.366,1.071,5.399c-0.07,0.054-1.062-0.07-1.071,0
		c-0.342,2.157,2.807,3.176-1.077,3.228c1.63,0.685,0.035,2.279,0,2.157c0.395,1.384,1.666,1.77,2.148,3.226
		c-0.159-0.474-1.605,0.647-1.071,1.086c0.649,0.51,1.149,0.913,1.071,2.14c3.954,0,7.906,0,11.852,0
		c0.482,0.964,0.948,1.929,2.156,2.157c-0.665,0.963-1.306,1.929,0,2.155c0.334,2.192-3.112-0.21-3.233-1.068
		C212.919,255.806,207.906,252.772,201.225,253.808z"/>
	<path fill-rule="evenodd" clip-rule="evenodd" d="M398.363,233.328c2.517-0.735,5.427,0.965,8.618,0
		c0.344-0.088,1.455-1.07,1.087-1.07c0.858-0.018,1.719,1.106,3.226,1.07c2.561-0.052,5.069-1.438,7.541,0
		c-0.333,2.789-2.823,1.841-4.313,2.157c-0.351,0.07-1.947-0.246-2.156,0c-1.051,1.298-0.491-0.018-2.157,0
		c-0.841,0.017-1.104,1.017-2.14,1.087c-2.742,0.174-5.819-0.142-9.705,0c-0.306,3.278,3.456,4.19,1.079,6.451
		c3.401-1.472,6.504,2.666,7.539,0c3.7,3.42-6.705,1.86-6.46,5.4c0.385,2.841,5.488,0.965,6.46,3.229
		c1.174-0.265,0.737-2.141,2.156-2.158c2.245-0.456,2.859,0.735,4.314,1.069c1.524-0.088,3.051-0.175,3.226,1.089
		c0.474,4.767-4.067,2.21-7.54,2.155c-3.98-0.054-9.467,0.771-12.93-1.087c-0.131-1.929,1.325-2.263,1.08-4.297
		c0.962-2.051-2.009-2.542-2.159-3.243c-0.148-0.702,2.211-5.296,1.079-8.608C398.512,237.062,398.258,235.03,398.363,233.328z"/>
	<path fill-rule="evenodd" clip-rule="evenodd" d="M481.307,234.415c3.03,0.018-2.561,2.929,2.156,2.157
		c-0.037,1.945-2.422,2.085-3.227,3.226c-1.21,1.683-0.264,3.033-2.155,4.314c1.595,9.203,14.902,6.047,23.702,5.382
		c-0.489,4.226-4.785,5.26-8.625,3.227c-1.104,1.052-2.175,2.139-3.227,3.242c-1.244,0.265-1.542-1.928-2.155-2.155
		c-2.052-0.825-4.665-0.124-7.54-1.087c-0.386-0.123-0.017-1.019-1.068-1.068c-0.353-0.018-4.07-4.122-4.316-5.385
		c-0.488-2.612,0.598-3.49,1.07-5.4C476.676,237.87,478.623,237.361,481.307,234.415z"/>
	<path fill-rule="evenodd" clip-rule="evenodd" d="M277.715,240.867c-2.437-2.35,5.207,0.333,3.226,4.313
		c-0.762,0.912-1.884,0.685-3.226,1.087c-0.63,0.176-1.051,1.07-1.078,1.07c-0.772,0.156-1.332-0.982-1.079-1.07
		c-1.393,0.456-1.182,3.334-5.392,2.156c0.07,1.911,4.297,2.841,6.471,3.229c2.517,0.454,6.417-1.247,7.539,1.068
		c1.176,2.752-2.98,2.771-5.391,2.155c-0.44-0.105-1.359-1.068-1.07-1.068c-1.857-0.035-2.385,1.471-4.313,1.068
		c0.07,0.018-0.517-0.927-1.078-1.068c-1.464-0.368-2.158-0.368-3.228-1.087c-0.849-0.562-2.542-1.245-4.312-2.157
		c-0.342-2.525-1.7-4.032-1.079-7.54c2.796,0.649,3.875-0.42,3.235-3.226c1.797,0,3.586,0,5.383,0c-0.315,3.63-4.78,3.12-5.383,6.47
		c0.49,1.368,3.199-0.561,6.461-1.087c-0.202,0.034,0.499-1.807,1.079-1.068c1.579,1.98,1.823-1.701,4.305-2.157
		C278.987,241.043,278.373,240.938,277.715,240.867z"/>
	<path fill-rule="evenodd" clip-rule="evenodd" d="M453.306,235.485c0.7-1.403,2.77-0.404,4.312-1.07
		c0.456-0.21,1.859-2.087,2.156-2.157c1.28-0.297,0.634,0.982,1.069,1.07c1.072,0.228,0.948-1.088,1.089-1.07
		c0.999,0.07,1.895,1.753,2.138,0c2.313,3.069,6.452,4.103,7.559,7.54c0.7,2.227-1.036,2.877-1.09,4.314
		c-0.087,2.227,1.757,3.138,1.09,5.382c-1.054,0.035-0.842,1.316-1.09,2.158c-1.277,0.191-2.454,0.367-3.225,1.068
		c-0.228,0.21-0.893,2.085-1.086,2.155c-2.562,0.948-6.049-2.437-7.541,1.087c-2.175,0.352-3.646-7.731-4.313-2.155
		c-1.191-0.649-1.368-2.155-2.14-3.244c-0.685-0.929-2.716-1.018-2.156-3.226c0.949,0.473,1.929,0.945,2.156,2.156
		c1.563-0.474-0.121-0.946,0-2.156c-0.875-0.211-1.085-1.087-2.156-1.07C450.955,242.481,452.918,239.78,453.306,235.485z
		 M468.382,247.338c0,0.595,0.879,1.228,1.089,0c-2.139-0.842-3.876-3.77-2.157-5.383c-2.366-0.157-2.313-2.718-2.155-5.383
		c-3.385,1.228-2.613-1.701-4.315-2.157c-0.664,2.438-3.138,2.403-3.226,4.312c-0.053,1.07-0.945,0.668-1.087,1.07
		c-0.911,2.613,1.212,6.366-1.068,8.626c3.119,0.809,2.786,5.103,7.54,4.297C465.841,251.967,465.281,247.828,468.382,247.338z"/>
	<path fill-rule="evenodd" clip-rule="evenodd" d="M583.648,235.485c0.719-1.403,2.771-0.404,4.313-1.07
		c0.456-0.21,1.859-2.087,2.156-2.157c1.28-0.297,0.631,0.982,1.069,1.07c1.088,0.228,0.947-1.088,1.088-1.07
		c0.998,0.07,1.894,1.753,2.156,0c2.297,3.069,6.435,4.103,7.539,7.54c0.702,2.227-1.018,2.877-1.088,4.314
		c-0.086,2.227,1.754,3.138,1.088,5.382c-1.052,0.035-0.84,1.316-1.088,2.158c-1.261,0.191-2.454,0.367-3.225,1.068
		c-0.228,0.21-0.894,2.085-1.069,2.155c-2.578,0.948-6.051-2.437-7.557,1.087c-2.157,0.352-3.631-7.731-4.295-2.155
		c-1.213-0.649-1.387-2.155-2.158-3.244c-0.686-0.929-2.699-1.018-2.157-3.226c0.964,0.473,1.929,0.945,2.157,2.156
		c1.562-0.474-0.105-0.946,0-2.156c-0.877-0.211-1.07-1.087-2.157-1.07C581.316,242.481,583.282,239.78,583.648,235.485z
		 M598.727,247.338c0,0.595,0.877,1.228,1.088,0c-2.123-0.842-3.875-3.77-2.156-5.383c-2.349-0.157-2.314-2.718-2.156-5.383
		c-3.386,1.228-2.611-1.701-4.314-2.157c-0.666,2.438-3.12,2.403-3.226,4.312c-0.052,1.07-0.931,0.668-1.069,1.07
		c-0.929,2.613,1.211,6.366-1.088,8.626c3.14,0.809,2.805,5.103,7.541,4.297C596.186,251.967,595.624,247.828,598.727,247.338z"/>
	<path fill-rule="evenodd" clip-rule="evenodd" d="M384.362,233.328c3.139-0.262,3.718,2.035,5.384,3.244
		c0.808,3.312-2.954,2.068-2.156,5.383c-3.279-0.052-5.481,0.98-6.462,3.226c0.019,1.737,1.253,2.401,2.157,3.243
		c0.42,0.388,1.805,1.948,2.157,2.14c1.077,0.632,0.824-1.018,1.07-1.069c1.917-0.387,0.981,2.717,4.312,2.158
		c1.579,2.541,2.271,1.997,1.079,5.381c-3.637,0.403-4.593-1.858-6.46-3.226c-3.228,0.98-3.201-1.614-5.391-2.155
		c-1.947-0.492-6.094-2.315-5.384-6.472c4.663-2.157,9.854-3.788,12.923-7.539C387.161,235.573,382.662,237.555,384.362,233.328z"/>
</g>
</svg>
