<?xml version="1.0" encoding="UTF-8" standalone="no"?>
<!-- Created with Inkscape (http://www.inkscape.org/) -->

<svg
   xmlns:dc="http://purl.org/dc/elements/1.1/"
   xmlns:cc="http://creativecommons.org/ns#"
   xmlns:rdf="http://www.w3.org/1999/02/22-rdf-syntax-ns#"
   xmlns:svg="http://www.w3.org/2000/svg"
   xmlns="http://www.w3.org/2000/svg"
   xmlns:sodipodi="http://sodipodi.sourceforge.net/DTD/sodipodi-0.dtd"
   xmlns:inkscape="http://www.inkscape.org/namespaces/inkscape"
   width="478"
   height="534"
   id="svg3052"
   version="1.1"
   inkscape:version="0.48.4 r9939"
   sodipodi:docname="New document 2">
  <defs
     id="defs3054" />
  <sodipodi:namedview
     id="base"
     pagecolor="#ffffff"
     bordercolor="#666666"
     borderopacity="1.0"
     inkscape:pageopacity="0.0"
     inkscape:pageshadow="2"
     inkscape:zoom="1.4142136"
     inkscape:cx="385.32764"
     inkscape:cy="251.37177"
     inkscape:document-units="px"
     inkscape:current-layer="layer1"
     showgrid="false"
     fit-margin-top="0"
     fit-margin-left="0"
     fit-margin-right="0"
     fit-margin-bottom="0"
     inkscape:window-width="1366"
     inkscape:window-height="705"
     inkscape:window-x="-8"
     inkscape:window-y="-8"
     inkscape:window-maximized="1" />
  <metadata
     id="metadata3057">
    <rdf:RDF>
      <cc:Work
         rdf:about="">
        <dc:format>image/svg+xml</dc:format>
        <dc:type
           rdf:resource="http://purl.org/dc/dcmitype/StillImage" />
        <dc:title></dc:title>
      </cc:Work>
    </rdf:RDF>
  </metadata>
  <g
     inkscape:label="Layer 1"
     inkscape:groupmode="layer"
     id="layer1"
     transform="translate(153.22123,-102.5625)">
    <path
       sodipodi:nodetypes="ccscscsc"
       inkscape:connector-curvature="0"
       id="path3044"
       d="m -153.22123,369.5625 292,0 c 0,0 -37.9961,29.97759 -37.9961,133.4939 0,98.52013 37.9961,133.5061 37.9961,133.5061 0,0 -47.999993,-16.96406 -47.999993,-133.5061 0,-109.0069 42.003883,-131.49387 42.003883,-131.49387 0,0 -7.44531,6.00418 -140.0038919,5.99997 -146.0859481,-0.005 -145.9999981,-8 -145.9999981,-8 z"
       style="fill:#000000;stroke:#000000;stroke-width:0;stroke-linecap:butt;stroke-linejoin:miter;stroke-miterlimit:4;stroke-opacity:1;stroke-dasharray:none;display:inline" />
    <path
       transform="matrix(1.0000858,0,0,1.0003252,-158.16783,364.51437)"
       d="m 155.00467,142.00241 a 6.0023398,5.9980502 0 1 1 -12.00468,0 6.0023398,5.9980502 0 1 1 12.00468,0 z"
       sodipodi:ry="5.9980502"
       sodipodi:rx="6.0023398"
       sodipodi:cy="142.00241"
       sodipodi:cx="149.00233"
       id="path3052"
       style="fill:#000000;fill-opacity:1;fill-rule:evenodd;stroke:none;display:inline"
       sodipodi:type="arc" />
    <path
       style="fill:#000000;stroke:#000000;stroke-width:0;stroke-linecap:butt;stroke-linejoin:miter;stroke-miterlimit:4;stroke-opacity:1;stroke-dasharray:none;display:inline"
       d="M -70.681978,563.01871 135.89144,356.5625 c 0,0 -5.67265,48.06024 67.55926,121.25059 69.69741,69.65786 121.32807,67.52956 121.32807,67.52956 0,0 -45.95838,21.9437 -128.40525,-60.45638 -77.11619,-77.07243 -63.30908,-122.67017 -63.30908,-122.67017 0,0 -1.01952,9.50937 -94.800169,103.23084 -103.351048,103.28532 -108.946249,97.57177 -108.946249,97.57177 z"
       id="path3006"
       inkscape:connector-curvature="0"
       sodipodi:nodetypes="ccscscsc"
       inkscape:transform-center-x="8.8430468"
       inkscape:transform-center-y="103.25646" />
    <path
       sodipodi:type="arc"
       style="fill:#000000;fill-opacity:1;fill-rule:evenodd;stroke:none;display:inline"
       id="path3008"
       sodipodi:cx="149.00233"
       sodipodi:cy="142.00241"
       sodipodi:rx="6.0023398"
       sodipodi:ry="5.9980502"
       d="m 155.00467,142.00241 a 6.0023398,5.9980502 0 1 1 -12.00468,0 6.0023398,5.9980502 0 1 1 12.00468,0 z"
       transform="matrix(0.70716743,-0.70676614,0.70767319,0.70727161,-77.75102,562.94525)"
       inkscape:transform-center-x="7.7815601"
       inkscape:transform-center-y="201.50723" />
    <path
       style="fill:#000000;stroke:#000000;stroke-width:0;stroke-linecap:butt;stroke-linejoin:miter;stroke-miterlimit:4;stroke-opacity:1;stroke-dasharray:none;display:inline"
       d="m -153.22123,369.5625 292,0 c 0,0 -37.9961,-29.97758 -37.9961,-133.4939 0,-98.52014 37.9961,-133.5061 37.9961,-133.5061 0,0 -47.999993,16.96406 -47.999993,133.5061 0,109.0069 42.003883,131.49387 42.003883,131.49387 0,0 -7.44531,-6.00418 -140.0038919,-5.99997 -146.0859481,0.005 -145.9999981,8 -145.9999981,8 z"
       id="path3026"
       inkscape:connector-curvature="0"
       sodipodi:nodetypes="ccscscsc"
       inkscape:transform-center-x="97.999996"
       inkscape:transform-center-y="-133.50392" />
    <path
       sodipodi:type="arc"
       style="fill:#000000;fill-opacity:1;fill-rule:evenodd;stroke:none;display:inline"
       id="path3028"
       sodipodi:cx="149.00233"
       sodipodi:cy="142.00241"
       sodipodi:rx="6.0023398"
       sodipodi:ry="5.9980502"
       d="m 155.00467,142.00241 a 6.0023398,5.9980502 0 1 1 -12.00468,0 6.0023398,5.9980502 0 1 1 12.00468,0 z"
       transform="matrix(1.0000858,0,0,-1.0003105,-158.16783,374.585)"
       inkscape:transform-center-x="100.04757"
       inkscape:transform-center-y="-137.00236" />
    <path
       inkscape:transform-center-y="-90.242788"
       inkscape:transform-center-x="-36.153538"
       sodipodi:nodetypes="ccscscsc"
       inkscape:connector-curvature="0"
       id="path3030"
       d="M -70.681978,176.09033 135.89144,382.5625 c 0,0 -5.67265,-48.06396 67.55926,-121.25997 69.69741,-69.66324 121.32807,-67.53478 121.32807,-67.53478 0,0 -45.95838,-21.94539 -128.40525,60.46106 -77.11619,77.07839 -63.30908,122.67965 -63.30908,122.67965 0,0 -1.01952,-9.5101 -94.800169,-103.23882 C -65.086777,170.37633 -70.681978,176.09033 -70.681978,176.09033 z"
       style="fill:#000000;stroke:#000000;stroke-width:0;stroke-linecap:butt;stroke-linejoin:miter;stroke-miterlimit:4;stroke-opacity:1;stroke-dasharray:none;display:inline" />
    <path
       inkscape:transform-center-y="-188.50115"
       inkscape:transform-center-x="-37.215018"
       transform="matrix(0.70716743,0.70682079,0.70767319,-0.7073263,-77.75102,176.16379)"
       d="m 155.00467,142.00241 a 6.0023398,5.9980502 0 1 1 -12.00468,0 6.0023398,5.9980502 0 1 1 12.00468,0 z"
       sodipodi:ry="5.9980502"
       sodipodi:rx="6.0023398"
       sodipodi:cy="142.00241"
       sodipodi:cx="149.00233"
       id="path3032"
       style="fill:#000000;fill-opacity:1;fill-rule:evenodd;stroke:none;display:inline"
       sodipodi:type="arc" />
  </g>
</svg>
