<?xml version="1.0" encoding="UTF-8" standalone="no"?>
<!-- Created with Inkscape (http://www.inkscape.org/) -->

<svg
   xmlns:dc="http://purl.org/dc/elements/1.1/"
   xmlns:cc="http://creativecommons.org/ns#"
   xmlns:rdf="http://www.w3.org/1999/02/22-rdf-syntax-ns#"
   xmlns:svg="http://www.w3.org/2000/svg"
   xmlns="http://www.w3.org/2000/svg"
   xmlns:sodipodi="http://sodipodi.sourceforge.net/DTD/sodipodi-0.dtd"
   xmlns:inkscape="http://www.inkscape.org/namespaces/inkscape"
   width="687.29517"
   height="858.47791"
   id="svg2"
   version="1.1"
   inkscape:version="0.48.4 r9939"
   sodipodi:docname="template.svg">
  <defs
     id="defs4" />
  <sodipodi:namedview
     id="base"
     pagecolor="#ffffff"
     bordercolor="#666666"
     borderopacity="1.0"
     inkscape:pageopacity="0.0"
     inkscape:pageshadow="2"
     inkscape:zoom="0.5"
     inkscape:cx="599.55783"
     inkscape:cy="440.72331"
     inkscape:document-units="px"
     inkscape:current-layer="g3812"
     showgrid="false"
     showguides="true"
     inkscape:guide-bbox="true"
     inkscape:window-width="1366"
     inkscape:window-height="706"
     inkscape:window-x="-8"
     inkscape:window-y="-8"
     inkscape:window-maximized="1"
     fit-margin-top="0"
     fit-margin-left="0"
     fit-margin-right="0"
     fit-margin-bottom="0">
    <sodipodi:guide
       orientation="1,0"
       position="250,271.27604"
       id="guide3769" />
    <sodipodi:guide
       orientation="0,1"
       position="250,271.27604"
       id="guide3771" />
    <sodipodi:guide
       orientation="1,0"
       position="1.816983e-006,271.27604"
       id="guide3773" />
    <sodipodi:guide
       orientation="1,0"
       position="500,271.27604"
       id="guide3775" />
    <sodipodi:guide
       orientation="0,1"
       position="250,521.27213"
       id="guide3777" />
    <sodipodi:guide
       orientation="0,1"
       position="250,21.276034"
       id="guide3779" />
    <sodipodi:guide
       orientation="0,1"
       position="250,518.77214"
       id="guide3774" />
    <sodipodi:guide
       orientation="1,0"
       position="240,518.77214"
       id="guide3776" />
    <sodipodi:guide
       orientation="1,0"
       position="260,518.77214"
       id="guide3778" />
    <sodipodi:guide
       orientation="0,1"
       position="250,593.77214"
       id="guide3807" />
    <sodipodi:guide
       orientation="0,1"
       position="250,556.27604"
       id="guide3818" />
  </sodipodi:namedview>
  <metadata
     id="metadata7">
    <rdf:RDF>
      <cc:Work
         rdf:about="">
        <dc:format>image/svg+xml</dc:format>
        <dc:type
           rdf:resource="http://purl.org/dc/dcmitype/StillImage" />
        <dc:title></dc:title>
      </cc:Work>
    </rdf:RDF>
  </metadata>
  <g
     inkscape:groupmode="layer"
     id="layer3"
     inkscape:label="Layer#1"
     style="display:none"
     transform="translate(-250,87.201802)">
    <path
       style="fill:none;stroke:#000000;stroke-width:1px;stroke-linecap:butt;stroke-linejoin:miter;stroke-opacity:1"
       d="m 490,252.5039 20,0"
       id="path3780"
       inkscape:connector-curvature="0" />
    <path
       sodipodi:type="arc"
       style="fill:none;stroke:#000000;stroke-width:5;stroke-linecap:round;stroke-miterlimit:4;stroke-opacity:1;stroke-dasharray:none;display:inline"
       id="path3822"
       sodipodi:cx="140.75"
       sodipodi:cy="551.25"
       sodipodi:rx="37.5"
       sodipodi:ry="37.5"
       d="m 178.25,551.25 a 37.5,37.5 0 1 1 -75,0 37.5,37.5 0 1 1 75,0 z"
       transform="translate(359.25,-336.25)" />
  </g>
  <g
     inkscape:groupmode="layer"
     id="layer2"
     inkscape:label="Layer"
     style="display:inline"
     transform="translate(-250,87.201802)">
    <path
       sodipodi:type="arc"
       style="fill:none;stroke:#000000;stroke-width:5.00000191;stroke-miterlimit:4;stroke-dasharray:none"
       id="path3781"
       sodipodi:cx="492"
       sodipodi:cy="525"
       sodipodi:rx="242"
       sodipodi:ry="274.99609"
       d="m 734,525 a 242,274.99609 0 1 1 -484,0 242,274.99609 0 1 1 484,0 z"
       transform="matrix(1.0231426,0,0,0.90037825,-3.3861509,27.301419)" />
    <path
       sodipodi:type="arc"
       style="fill:none;stroke:#999999;stroke-width:5;stroke-miterlimit:4;stroke-opacity:1;stroke-dasharray:none"
       id="path3783-1"
       sodipodi:cx="461.75"
       sodipodi:cy="775.5625"
       sodipodi:rx="12.375"
       sodipodi:ry="12.6875"
       d="m 474.125,775.5625 a 12.375,12.6875 0 1 1 -24.75,0 12.375,12.6875 0 1 1 24.75,0 z"
       transform="matrix(0.58007664,-0.34255657,0.33411921,0.56578904,-152.83241,6.2566647)"
       inkscape:transform-center-y="-213.11407"
       inkscape:transform-center-x="125.85169" />
    <path
       inkscape:transform-center-x="194.45263"
       inkscape:transform-center-y="-153.11574"
       transform="matrix(0.41676678,-0.52928193,0.51624542,0.4065016,-287.27528,276.01279)"
       d="m 474.125,775.5625 a 12.375,12.6875 0 1 1 -24.75,0 12.375,12.6875 0 1 1 24.75,0 z"
       sodipodi:ry="12.6875"
       sodipodi:rx="12.375"
       sodipodi:cy="775.5625"
       sodipodi:cx="461.75"
       id="path3827"
       style="fill:none;stroke:#999999;stroke-width:5;stroke-miterlimit:4;stroke-opacity:1;stroke-dasharray:none"
       sodipodi:type="arc" />
    <path
       sodipodi:type="arc"
       style="fill:none;stroke:#999999;stroke-width:5;stroke-miterlimit:4;stroke-opacity:1;stroke-dasharray:none"
       id="path3829"
       sodipodi:cx="461.75"
       sodipodi:cy="775.5625"
       sodipodi:rx="12.375"
       sodipodi:ry="12.6875"
       d="m 474.125,775.5625 a 12.375,12.6875 0 1 1 -24.75,0 12.375,12.6875 0 1 1 24.75,0 z"
       transform="matrix(-0.41086399,-0.53387704,0.52072737,-0.40074417,89.719005,1208.267)"
       inkscape:transform-center-y="150.94713"
       inkscape:transform-center-x="196.14082" />
    <path
       inkscape:transform-center-x="127.55437"
       inkscape:transform-center-y="212.09936"
       transform="matrix(-0.57731466,-0.34719115,0.33863966,-0.56309508,376.38445,1309.1303)"
       d="m 474.125,775.5625 a 12.375,12.6875 0 1 1 -24.75,0 12.375,12.6875 0 1 1 24.75,0 z"
       sodipodi:ry="12.6875"
       sodipodi:rx="12.375"
       sodipodi:cy="775.5625"
       sodipodi:cx="461.75"
       id="path3831"
       style="fill:none;stroke:#999999;stroke-width:5;stroke-miterlimit:4;stroke-opacity:1;stroke-dasharray:none"
       sodipodi:type="arc" />
    <path
       sodipodi:type="arc"
       style="fill:none;stroke:#999999;stroke-width:5;stroke-miterlimit:4;stroke-opacity:1;stroke-dasharray:none"
       id="path3833"
       sodipodi:cx="461.75"
       sodipodi:cy="775.5625"
       sodipodi:rx="12.375"
       sodipodi:ry="12.6875"
       d="m 474.125,775.5625 a 12.375,12.6875 0 1 1 -24.75,0 12.375,12.6875 0 1 1 24.75,0 z"
       transform="matrix(-0.66440638,-0.11134663,0.10860412,-0.64804169,681.65279,1298.1071)"
       inkscape:transform-center-y="244.09596"
       inkscape:transform-center-x="40.90757" />
    <path
       inkscape:transform-center-x="-133.54234"
       inkscape:transform-center-y="208.38117"
       transform="matrix(-0.56719411,0.36348968,-0.35453672,-0.55322383,1170.4096,969.59947)"
       d="m 474.125,775.5625 a 12.375,12.6875 0 1 1 -24.75,0 12.375,12.6875 0 1 1 24.75,0 z"
       sodipodi:ry="12.6875"
       sodipodi:rx="12.375"
       sodipodi:cy="775.5625"
       sodipodi:cx="461.75"
       id="path3835"
       style="fill:none;stroke:#999999;stroke-width:5;stroke-miterlimit:4;stroke-opacity:1;stroke-dasharray:none"
       sodipodi:type="arc" />
    <path
       sodipodi:type="arc"
       style="fill:none;stroke:#999999;stroke-width:5;stroke-miterlimit:4;stroke-opacity:1;stroke-dasharray:none"
       id="path3837"
       sodipodi:cx="461.75"
       sodipodi:cy="775.5625"
       sodipodi:rx="12.375"
       sodipodi:ry="12.6875"
       d="m 474.125,775.5625 a 12.375,12.6875 0 1 1 -24.75,0 12.375,12.6875 0 1 1 24.75,0 z"
       transform="matrix(-0.41016783,0.53441207,-0.5212492,-0.40006519,1289.9938,714.20214)"
       inkscape:transform-center-y="150.69135"
       inkscape:transform-center-x="-196.33748" />
    <path
       inkscape:transform-center-x="-230.28259"
       inkscape:transform-center-y="-90.698557"
       transform="matrix(0.24687281,0.62680757,-0.61136896,0.24079219,1090.4439,-66.876341)"
       d="m 474.125,775.5625 a 12.375,12.6875 0 1 1 -24.75,0 12.375,12.6875 0 1 1 24.75,0 z"
       sodipodi:ry="12.6875"
       sodipodi:rx="12.375"
       sodipodi:cy="775.5625"
       sodipodi:cx="461.75"
       id="path3839"
       style="fill:none;stroke:#999999;stroke-width:5;stroke-miterlimit:4;stroke-opacity:1;stroke-dasharray:none"
       sodipodi:type="arc" />
    <path
       sodipodi:type="arc"
       style="fill:none;stroke:#999999;stroke-width:5;stroke-miterlimit:4;stroke-opacity:1;stroke-dasharray:none"
       id="path3841"
       sodipodi:cx="461.75"
       sodipodi:cy="775.5625"
       sodipodi:rx="12.375"
       sodipodi:ry="12.6875"
       d="m 474.125,775.5625 a 12.375,12.6875 0 1 1 -24.75,0 12.375,12.6875 0 1 1 24.75,0 z"
       transform="matrix(0.59274256,0.32014086,-0.31225563,0.57814298,586.09126,-313.97855)"
       inkscape:transform-center-y="-217.7675"
       inkscape:transform-center-x="-117.61639" />
  </g>
  <g
     inkscape:groupmode="layer"
     id="layer1"
     inkscape:label="Layer#2"
     transform="translate(-250,87.201802)">
    <g
       id="g3812">
      <path
         inkscape:connector-curvature="0"
         id="path3036"
         d="M 304.05592,-84.701802 934.79516,653.51768 306.17724,768.77608 z"
         style="fill:none;stroke:#999999;stroke-width:5;stroke-linecap:butt;stroke-linejoin:miter;stroke-miterlimit:4;stroke-opacity:1;stroke-dasharray:none" />
      <path
         inkscape:connector-curvature="0"
         id="path3806"
         d="M 306.5,768 726,410.5"
         style="fill:none;stroke:#999999;stroke-width:5;stroke-linecap:butt;stroke-linejoin:miter;stroke-miterlimit:4;stroke-opacity:1;stroke-dasharray:none" />
      <path
         inkscape:connector-curvature="0"
         id="path3808"
         d="m 306.5,650.5 625.5,1"
         style="fill:none;stroke:#999999;stroke-width:5;stroke-linecap:butt;stroke-linejoin:miter;stroke-miterlimit:4;stroke-opacity:1;stroke-dasharray:none" />
      <path
         inkscape:connector-curvature="0"
         id="path3810"
         d="M 305.47013,-82.226929 458.9123,740.84536"
         style="fill:none;stroke:#999999;stroke-width:5;stroke-linecap:butt;stroke-linejoin:miter;stroke-miterlimit:4;stroke-opacity:1;stroke-dasharray:none" />
    </g>
  </g>
</svg>
