<?xml version="1.0" encoding="utf-8"?>
<!-- Generator: Adobe Illustrator 23.0.1, SVG Export Plug-In . SVG Version: 6.00 Build 0)  -->
<svg version="1.1" id="Logo" xmlns="http://www.w3.org/2000/svg" xmlns:xlink="http://www.w3.org/1999/xlink" x="0px" y="0px"
	 viewBox="0 0 595.28 841.89" style="enable-background:new 0 0 595.28 841.89;" xml:space="preserve">
<path d="M136.17,0c3.89,2.38,7.67,4.96,11.68,7.12c18.25,9.85,36.57,19.55,54.83,29.38c10.84,5.84,21.73,11.62,32.32,17.89
	c2.21,1.31,4.04,4.43,4.68,7.05c6.95,28.42,19.35,54.22,37.84,76.79c8.02,9.78,17.79,18.13,26.82,27.07c0.73,0.72,1.88,1,3.02,1.58
	c6.17-10.62,8.57-21.74,3.41-33.02c-6.97-15.25-14.15-30.49-22.56-44.97c-8.08-13.91-17.83-26.84-26.42-40.91
	c5.16,3.61,10.89,6.64,15.38,10.96c10.72,10.32,20.72,21.39,31.28,31.87c6.9,6.85,14.22,13.26,21.46,19.75
	c3.5,3.14,5.83,6.32,5.89,11.59c0.16,13.94,0.51,27.94,2.02,41.77c0.66,6.09,3.74,12.17,6.73,17.71
	c10.3,19.05,21.21,37.77,31.6,56.77c19.52,35.67,38.34,71.76,61.7,105.15c11.6,16.59,23.92,32.69,35.93,49
	c0.44,0.6,1.15,0.99,1.82,1.55c5.18-7.03,2.71-14.79,2.71-23.36c7.15,7.06,13.64,13.46,20.89,20.61c3.95-10.96,1.61-20.53-1.2-29.7
	c-2.79-9.11-6.99-17.78-11.05-27.82c2.24,1.38,3.78,2.01,4.92,3.08c19.86,18.6,35.07,40.36,42.82,66.61
	c3.19,10.79,4.35,22.18,6.49,33.28c0.18,0.91,0.82,1.74,1.24,2.61c0,8.21,0,16.41,0,24.62c-0.43,1.82-1.13,3.61-1.24,5.45
	c-0.97,15.6-4.64,30.6-9.47,44.75c-13.07-13.86-26.21-27.79-40.05-42.46c-6.3,9.6-11.87,18.08-17.77,27.08
	c-4.32-6.46-8.24-12.38-12.23-18.25c-3.94-5.79-7.4-12.03-12.08-17.16c-4.58-5.03-10.32-9.02-15.72-13.26
	c-15.69-12.33-31.37-24.7-47.24-36.8c-20.62-15.72-42.21-29.79-67.21-37.79c-12.97-4.15-25.84-8.65-38.9-12.48
	c-4.55-1.34-9.55-1.23-14.35-1.66c-4.51-0.41-9.06-0.49-13.54-1.08c-1.22-0.16-2.71-1.4-3.34-2.55
	c-6.68-12.26-11.17-25.42-13.16-39.12c-2.08-14.33-3.07-28.85-3.84-43.32c-0.43-8.1-5.94-11.3-11.4-15.27
	c-10.08-7.32-20.19-14.65-29.75-22.62c-7.38-6.16-13.94-13.31-21.53-20.66c14.6,6.12,28.16,11.81,41.72,17.49
	c0.43-0.28,0.85-0.56,1.28-0.85c-0.7-2.51-0.94-5.28-2.17-7.5c-8.28-14.96-18.81-28.28-30.24-40.93
	c-5.87-6.49-11.6-13.1-18.21-20.57c28.98,9.8,54.82,24.04,82.47,37.19c-0.37-4.12-0.5-7.4-0.99-10.62
	c-3.05-20-7.86-39.49-15.84-58.18c-11.96-28-27.38-54.02-46.73-77.36c-14.11-17.02-30.13-32.46-45.34-48.56
	c-1.16-1.23-2.93-1.92-3.97-3.21c-0.75-0.93-0.76-2.46-1.1-3.71C132.39,0,134.28,0,136.17,0z M320.54,274.05
	c-0.34,0.46-0.68,0.91-1.02,1.37c0.38,0.63,0.72,1.29,1.15,1.89c8.9,12.37,17.93,24.64,26.64,37.13c3.19,4.58,6.82,7.9,12.49,8.81
	c5.35,0.86,10.64,2.16,16,2.89c1.86,0.26,3.87-0.59,5.81-0.94c-0.84-1.56-1.31-3.53-2.56-4.61c-13.77-12-27.51-24.05-41.61-35.65
	C332.3,280.71,326.2,277.65,320.54,274.05z"/>
<path d="M265.91,841.89c-0.66-1-1.16-2.17-2-2.98c-19.12-18.22-38.19-36.49-57.5-54.5c-3.33-3.11-4.52-6.61-4.52-10.69
	c-0.05-82.67-0.04-165.34-0.02-248.01c0-1.06,0.2-2.11,0.38-3.9c7.22,4.24,14,8.17,20.73,12.19c12.71,7.57,25.27,15.4,38.13,22.68
	c4.71,2.67,6.42,5.97,6.42,11.22c-0.09,89.3-0.07,178.59-0.05,267.89c0,2.04,0.21,4.08,0.32,6.11
	C267.18,841.89,266.54,841.89,265.91,841.89z"/>
<path d="M289.59,841.89c0.11-2.04,0.32-4.07,0.32-6.11c0.02-85.48,0.01-170.96,0.01-256.44c0-1.94,0-3.89,0-6.71
	c14.58,8.2,28.12,15.8,41.66,23.41c6.11,3.44,12.08,7.12,18.33,10.26c3.95,1.99,5.74,4.36,5.73,9.05
	c-0.17,52.52-0.12,105.04-0.09,157.55c0,5.65-1.73,9.88-6.55,13.6c-6.68,5.16-12.49,11.46-18.61,17.34
	c-10.2,9.82-20.36,19.68-30.51,29.56c-2.85,2.77-5.61,5.65-8.41,8.47C290.85,841.89,290.22,841.89,289.59,841.89z"/>
<path d="M52.84,570.1c0.43-1.5,1.15-2.99,1.24-4.51c0.45-8.23,0.75-16.47,1.13-25.62c6.04,9.27,11.41,17.79,17.05,26.12
	c10.52,15.53,23.5,28.69,37.82,40.85c21.37,18.15,44.93,33.09,68.07,48.69c1.51,1.02,3.01,3.35,3.02,5.08
	c0.18,32.51,0.13,65.02,0.12,97.53c0,0.57-0.09,1.13-0.2,2.57c-3.42-3.44-6.27-6.3-9.12-9.16c-8.09-8.1-16.33-16.06-24.26-24.32
	c-17.13-17.85-32.87-36.86-47.19-57.05c-12.57-17.7-24.41-35.89-33.29-55.72c-5.12-11.43-8.78-23.51-13.13-35.28
	c-0.22-0.61-0.82-1.08-1.24-1.61C52.84,575.15,52.84,572.62,52.84,570.1z"/>
<path d="M172.16,245.93c8.06,7.21,15.65,13.99,23.24,20.77c3.04,2.71,5.76,5.96,9.19,8.01c4.49,2.68,5.18,6.21,5.21,10.98
	c0.16,25.7,3.18,51,13.3,74.9c2.7,6.38,6.84,12.16,10.49,18.11c4.72,7.68,12.02,5.31,18.6,4.09c9.63-1.78,18.97-0.58,28.33,1.4
	c4.38,0.93,8.74,1.92,12.91,2.83c0.24,0.64,0.48,0.95,0.44,1.21c-1.8,10.67,4.36,17.44,11.63,23.58
	c9.19,7.76,18.3,15.64,27.79,23.01c12.18,9.47,24.76,18.42,37.09,27.71c17.06,12.85,34.11,25.72,51.05,38.73
	c21.3,16.35,41.58,33.91,59.92,53.52c8.18,8.74,15.28,18.54,22.43,28.18c5.15,6.94,3.53,14.97,1.89,22.64
	c-6.23,29.17-20.7,54.24-39.2,77.15c-7.37,9.13-15.12,18.06-23.49,26.26c-20.04,19.61-42.19,36.63-66.9,52.09c0-2.3,0-4.04,0-5.79
	c0-51.13-0.06-102.26,0.11-153.39c0.01-4.17-1.21-6.79-4.73-8.76c-13.34-7.43-26.6-14.99-39.93-22.44
	c-21.9-12.24-43.91-24.27-65.7-36.7c-20.56-11.73-41.21-23.36-61.22-35.98c-15.53-9.79-30.51-20.55-45.05-31.76
	c-15.46-11.91-30.19-24.77-45.08-37.4c-8.72-7.39-17.11-15.18-25.71-22.71c-2.91-2.54-3.46-4.61-1.95-8.8
	c10.45-28.9,22.8-56.93,37.19-84.06c9.94-18.75,20.8-36.97,35-52.93C163.37,255.5,167.83,250.69,172.16,245.93z"/>
</svg>
