<?xml version="1.0" encoding="UTF-8" standalone="no"?>
<!-- Created with Inkscape (http://www.inkscape.org/) -->

<svg
   xmlns:dc="http://purl.org/dc/elements/1.1/"
   xmlns:cc="http://creativecommons.org/ns#"
   xmlns:rdf="http://www.w3.org/1999/02/22-rdf-syntax-ns#"
   xmlns:svg="http://www.w3.org/2000/svg"
   xmlns="http://www.w3.org/2000/svg"
   version="1.1"
   width="347.79001"
   height="500"
   id="svg3071">
  <defs
     id="defs3073" />
  <metadata
     id="metadata3076">
    <rdf:RDF>
      <cc:Work
         rdf:about="">
        <dc:format>image/svg+xml</dc:format>
        <dc:type
           rdf:resource="http://purl.org/dc/dcmitype/StillImage" />
        <dc:title></dc:title>
      </cc:Work>
    </rdf:RDF>
  </metadata>
  <g
     transform="translate(414.99987,655.88998)"
     id="layer1">
    <path
       d="m -105.49787,-655.88998 v 147.189 h -169.507 l -83.531,-120.97 h 197.574 v -26.219 h -254.038 l 102.371,147.189 h -99.83 l 24.193,26.19 h 93.873 l 84.375,121.332 c -6.807,5.474 -13.576,10.586 -19.988,14.91 -19.477,13.187 -87.34,35.141 -87.34,35.141 l 20.441,31 c 0,0 58.066,-25.766 83.895,-50.293 5.201,-4.93 10.01,-9.709 14.486,-14.272 l 131.313995,188.803 v -500 h -38.287995 z m 0,392.639 -72.219,-104.608 c 26.43,-31.968 32.059,-50.929 32.359,-52.078 -0.908,0.908 -19.145,19.354 -41.369,39.043 l -70.197,-101.613 h 151.426 v 219.256 z"
       id="Cadmium" />
  </g>
</svg>
