<?xml version="1.0" encoding="UTF-8" standalone="no"?>
<!-- Created with Inkscape (http://www.inkscape.org/) -->

<svg
   xmlns:dc="http://purl.org/dc/elements/1.1/"
   xmlns:cc="http://creativecommons.org/ns#"
   xmlns:rdf="http://www.w3.org/1999/02/22-rdf-syntax-ns#"
   xmlns:svg="http://www.w3.org/2000/svg"
   xmlns="http://www.w3.org/2000/svg"
   xmlns:sodipodi="http://sodipodi.sourceforge.net/DTD/sodipodi-0.dtd"
   xmlns:inkscape="http://www.inkscape.org/namespaces/inkscape"
   id="svg2"
   version="1.1"
   inkscape:version="0.91 r13725"
   width="704"
   height="800"
   viewBox="0 0 704 800"
   sodipodi:docname="Ettmetal (Feruchemy).svg">
  <metadata
     id="metadata8">
    <rdf:RDF>
      <cc:Work
         rdf:about="">
        <dc:format>image/svg+xml</dc:format>
        <dc:type
           rdf:resource="http://purl.org/dc/dcmitype/StillImage" />
        <dc:title></dc:title>
      </cc:Work>
    </rdf:RDF>
  </metadata>
  <defs
     id="defs6" />
  <sodipodi:namedview
     pagecolor="#ffffff"
     bordercolor="#666666"
     borderopacity="1"
     objecttolerance="10"
     gridtolerance="10"
     guidetolerance="10"
     inkscape:pageopacity="0"
     inkscape:pageshadow="2"
     inkscape:window-width="1366"
     inkscape:window-height="705"
     id="namedview4"
     showgrid="false"
     inkscape:zoom="0.59"
     inkscape:cx="176.38636"
     inkscape:cy="458.06251"
     inkscape:window-x="-8"
     inkscape:window-y="-8"
     inkscape:window-maximized="1"
     inkscape:current-layer="svg2" />
  <path
     style="fill:#000000"
     d="m 194.735,726.15645 c -16.40647,-21.932 -27.19708,-39.34578 -38.07874,-61.45111 -19.18717,-38.9774 -30.8243,-80.2216 -34.62154,-122.70534 -0.62596,-7.00323 -1.02922,-53.58391 -1.0313,-119.12505 L 121,315.2499 112.86296,308.95514 C 108.38758,305.49303 99.099667,297.2243 92.223145,290.58019 69.079097,268.21838 51.389863,245.09767 34.500291,215.13355 28.360862,204.24147 28.237992,203.24586 32.670034,200.3031 c 1.931705,-1.28261 2.54702,-0.75953 9.898365,8.41464 C 52.854978,221.55495 70.034531,239.16534 82.5,249.65076 92.297382,257.8919 118.08169,276 120.01894,276 120.63838,276 121,265.02918 121,246.2369 l 0,-29.76309 -7.41847,-5.81087 C 92.335164,194.0207 65.807542,164.14091 46.02619,134.57095 l -7.311185,-10.92906 2.782901,-2.39375 2.7829,-2.39375 9.21795,9.82281 C 66.158528,142.16766 76.935236,152.54374 87,160.93301 95.546513,168.05677 119.14907,185 120.52622,185 c 0.40612,0 0.53584,-31.95 0.28826,-71 l -0.45014,-71 4.06783,0.02361 4.06783,0.02361 8.83852,16.927166 c 4.86118,9.309942 12.84868,23.991784 17.75,32.626316 L 164,108.29986 l 0,49.83322 0,49.83323 4.75,2.39062 c 10.62555,5.34773 56.03035,20.58825 61.54578,20.65838 0.66232,0.008 1.81523,0.40246 2.56201,0.87564 1.07401,0.68051 0.28076,2.95708 -3.79535,10.89244 C 223.5179,253.57747 214.58146,267 212.93953,267 210.50544,267 187.50502,257.29584 177.16726,251.90724 170.93426,248.65826 165.42176,246 164.91726,246 164.38446,246 164,256.88296 164,271.96482 c 0,24.40171 0.11334,26.02547 1.88262,26.97236 3.1875,1.7059 31.12948,10.79238 40.11738,13.0458 4.675,1.17211 10.18424,2.57191 12.24276,3.11066 l 3.74276,0.97955 -4.00567,7.96688 c -4.92561,9.79655 -10.86167,19.56473 -16.12883,26.54103 l -3.98544,5.27868 -6.68279,-2.4851 c -3.67553,-1.3668 -11.15449,-4.47605 -16.61989,-6.90945 -5.46541,-2.4334 -10.08126,-4.2802 -10.25746,-4.104 -0.1762,0.17619 -0.2045,28.9955 -0.0629,64.04291 L 164.5,470.12669 218,392.89923 c 29.425,-42.47511 54.76493,-79.13892 56.31096,-81.47515 l 2.81097,-4.24767 -43.06097,-129.91145 C 210.37743,105.81366 191,47.048972 191,46.676756 191,46.30454 217.1,46 249,46 l 58,0 0,22.483928 0,22.483928 -26.82045,0.266072 L 253.3591,91.5 l 28.11434,83.21055 c 15.46288,45.7658 28.35601,83.45223 28.6514,83.74762 0.29538,0.29539 8.79534,-11.39465 18.88879,-25.97787 10.09346,-14.58321 18.67842,-26.16964 19.07771,-25.74762 0.39928,0.42203 8.66152,12.24232 18.36052,26.26732 9.699,14.025 17.90264,25.5 18.2303,25.5 0.32766,0 13.30126,-37.575 28.83023,-83.5 L 441.74687,91.5 414.87344,91.233928 388,90.967856 388,68.483928 388,46 l 58,0 c 33.11388,0 58,0.380934 58,0.887812 0,0.488296 -19.36955,59.218318 -43.04345,130.511158 -26.57822,80.03908 -42.73993,130.14303 -42.25,130.98193 0.4364,0.74722 25.76845,37.42248 56.29345,81.50058 l 55.5,80.14199 0.25746,-63.67094 c 0.1416,-35.01902 0.0727,-63.8557 -0.1531,-64.0815 -0.2258,-0.2258 -2.36666,0.60296 -4.75745,1.84169 -6.03934,3.12914 -28.20891,11.77819 -28.9775,11.30504 -1.71354,-1.05487 -13.40954,-19.32772 -18.36929,-28.69864 l -5.616,-10.61083 4.30794,-1.10124 c 17.91827,-4.58045 31.02422,-8.4393 41.30794,-12.16249 l 12,-4.34456 0.2666,-26.25 c 0.14664,-14.4375 -0.0359,-26.25 -0.40571,-26.25 -0.36977,0 -5.88974,2.6495 -12.2666,5.88778 C 507.28942,257.37469 484.33866,267 482.06047,267 c -1.63933,0 -10.57482,-13.41563 -16.10068,-24.17334 -2.82201,-5.49387 -4.97992,-10.1183 -4.79536,-10.2765 0.18456,-0.15821 7.59575,-2.35393 16.46929,-4.87938 16.89791,-4.80922 40.52618,-13.22004 48.61628,-17.30566 l 4.75,-2.39881 0,-49.90053 0,-49.90052 4.32755,-7.33263 C 541.16658,90.938962 559.02564,58.118308 563.1237,49.75 566.41729,43.024453 566.44437,43 570.59879,43 l 4.16952,0 -0.53418,71 c -0.29381,39.05 -0.20844,71 0.18971,71 1.15101,0 20.39189,-13.35665 28.07616,-19.48994 12.71227,-10.14643 28.13754,-24.56794 38.09828,-35.61909 C 645.99727,123.90093 650.69289,119 651.033,119 c 0.3401,0 1.64739,1.09534 2.90507,2.43408 l 2.2867,2.43408 -7.86238,11.80852 c -19.55335,29.36716 -48.36574,61.32006 -69.61239,77.20003 l -4.75,3.5502 0,29.78654 C 574,264.60573 574.36774,276 574.96133,276 c 1.90863,0 27.75368,-17.98463 37.03867,-25.77385 11.83459,-9.92811 31.15527,-29.76897 40.87562,-41.97615 4.05108,-5.0875 7.68288,-9.25 8.07068,-9.25 0.38779,0 1.76521,1.12846 3.06093,2.50769 2.33176,2.48205 2.33773,2.54597 0.58366,6.25 -6.66691,14.07838 -25.44892,42.27141 -39.2631,58.93649 -10.10752,12.19347 -32.05945,33.72178 -43.07779,42.24648 l -8.25,6.38289 -0.0107,109.08822 c -0.0114,116.18827 -0.19828,121.6711 -5.06276,148.53402 -10.00626,55.25717 -36.20871,112.65638 -72.20438,158.17129 l -6.03495,7.63091 -3.28114,-1.93592 -3.28114,-1.93592 3.03973,-5.15541 C 497.64131,711.95229 509.98528,684.18042 516.8205,663 c 10.57701,-32.7751 15.36431,-59.41253 17.22093,-95.8203 l 0.98524,-19.3203 -65.16574,-95.1797 c -35.84116,-52.34883 -65.71993,-95.7864 -66.39727,-96.52792 -0.99151,-1.08545 -6.5328,14.55559 -28.43092,80.25 C 360.07308,481.2808 347.65853,518 347.44486,518 c -0.21368,0 -12.38152,-36.3375 -27.03964,-80.75 -14.65812,-44.4125 -26.97179,-81.10349 -27.36371,-81.53554 -0.39193,-0.43205 -4.35902,4.51795 -8.81577,11 -4.45675,6.48205 -9.2083,13.36054 -10.55901,15.28554 -8.98489,12.80509 -111.5715,162.95454 -112.41482,164.53437 -1.37608,2.57788 0.0945,35.85437 2.27436,51.46563 4.5903,32.87341 12.04133,61.08977 23.48042,88.9182 4.90606,11.9352 15.21383,33.00259 20.91606,42.74899 l 3.02312,5.1672 -3.37154,1.98925 -3.37154,1.98926 -9.46779,-12.65645 z m 165.34067,-392.8862 9.07728,-27.22975 -10.6232,-15.52025 C 352.68699,281.98411 347.73075,275 347.51589,275 c -0.21486,0 -5.19014,7.01193 -11.05617,15.58206 l -10.66551,15.58207 10.82988,31.83416 10.82988,31.83417 1.77221,-4.66623 c 0.97471,-2.56643 5.85698,-16.91962 10.84949,-31.89598 z"
     id="path4138"
     inkscape:connector-curvature="0" />
</svg>
