<?xml version="1.0" encoding="UTF-8" standalone="no"?>
<!-- Created with Inkscape (http://www.inkscape.org/) -->

<svg
   xmlns:dc="http://purl.org/dc/elements/1.1/"
   xmlns:cc="http://creativecommons.org/ns#"
   xmlns:rdf="http://www.w3.org/1999/02/22-rdf-syntax-ns#"
   xmlns:svg="http://www.w3.org/2000/svg"
   xmlns="http://www.w3.org/2000/svg"
   version="1.1"
   width="461.72607"
   height="500.00201"
   id="svg3071">
  <defs
     id="defs3073" />
  <metadata
     id="metadata3076">
    <rdf:RDF>
      <cc:Work
         rdf:about="">
        <dc:format>image/svg+xml</dc:format>
        <dc:type
           rdf:resource="http://purl.org/dc/dcmitype/StillImage" />
        <dc:title></dc:title>
      </cc:Work>
    </rdf:RDF>
  </metadata>
  <g
     transform="translate(739.8985,663.0391)"
     id="layer1">
    <path
       d="m -322.83644,-527.4671 44.664,-34.281 h -51.842 c 0,0 -30.55096,28.922 -74.95096,71.004 v -172.295 c 0,0 -92.32,70.168 -114.834,91.723 -21.627,20.693 -79.762,89.305 -79.762,89.305 h 26.316 c 0,0 37.033,-52.487 62.369,-74.95 32.559,-28.875 56.865,-41.076 70.021,-46.103 v 146.342 c -88.4671,83.947 -206.77,196.338 -263.971,251.435 -5.5741,5.358 -13.7561,25.576 -15.5741,30.168 l -19.498,12.082 h 334.93 v -189.955 c 22.0821,-15 53.422,-34.115 53.422,-34.115 l -11.9629,-14.354 c 0,0 -22.1051,14.854 -41.4591,29.233 v -77.967 l 82.13206,-77.272 z m -118.01596,187.537 c -23.945,27.895 -36.244,54.713 -36.676,55.67 0.863,-0.935 19.979,-21.677 36.676,-38.519 v 131.842 h -242.486 l 5.334,-2.391 237.152,-223.109 v 76.507 z"
       id="Aluminum" />
  </g>
</svg>
