<?xml version="1.0" encoding="utf-8"?>
<!-- Generator: Adobe Illustrator 14.0.0, SVG Export Plug-In . SVG Version: 6.00 Build 43363)  -->
<!DOCTYPE svg PUBLIC "-//W3C//DTD SVG 1.1//EN" "http://www.w3.org/Graphics/SVG/1.1/DTD/svg11.dtd">
<svg version="1.1" id="Layer_1" xmlns="http://www.w3.org/2000/svg" xmlns:xlink="http://www.w3.org/1999/xlink" x="0px" y="0px"
	 width="800px" height="396px" viewBox="0 0 800 396" enable-background="new 0 0 800 396" xml:space="preserve">
<g>
	<path fill-rule="evenodd" clip-rule="evenodd" d="M274.215,66.732c2.769-0.734,2.869,1.893,4.04,2.692
		c0.657,0.449,3.436,0.711,4.027,1.347c0.417,0.427-0.449,2.32,0,2.69c5.332,4.358,3.777,9.785-1.346,16.133
		c-2.045,2.541-7.125,3.887-6.72,8.066c0.493,2.724,4.182,3.514,6.72,4.039c-0.459-0.098,0.581-1.498,1.346-1.346
		c0.099,0.022,0.383,1.214,1.347,1.346c3.765,0.503,7.684-0.821,10.759-4.039c0.8-0.82,0.974,0.164,1.347-1.346
		c0.657-2.605,1.29-2.593,2.693-5.374c0.797-1.597,0.569-2.637,1.346-4.04c0.393-0.699,1.258,0.186,1.344-1.344
		c0.165-3.208-0.272-10.661-1.344-14.786c-1.14-4.357-5.133-6.884-4.039-12.105c-2.857,1.149-1.785-1.906-2.693-2.693
		c-2.068-1.817-7.978-2.352-9.413-6.72c-1.697-0.361-3.71,0.461-5.374,0c-1.28-0.361-2.026-2.506-2.693-2.692
		c-1.653-0.471-3.688,0.296-5.383,0c-1.292-0.229-2.036-1.259-4.03-1.347c-5.525-0.24-11.885,1.128-17.488,2.693
		c-0.373,0.098-0.088,1.28-1.347,1.346c-1.062,0.055-3.042-0.395-4.027,0c-1.577,0.635-1.587,1.948-2.693,2.681
		c-1.347,0.898-2.823,0.471-4.04,1.347c-2.811,2.036-4.179,3.799-6.72,6.732c-0.689,0.799,0.187,1.258-1.344,1.346
		c-0.285,0.01-2.485,2.408-2.693,2.681c-0.569,0.766-1.258-0.218-1.336,1.347c-0.098,1.849-3.895,2.254-5.384,4.039
		c0.219,3.502-0.493,3.316-1.346,6.72c-0.341,1.368-1.773,2.965-2.693,5.383c-0.174,0.471,0.361,2.386,0,2.693
		c-2.494,2.048-0.054,4.27-1.347,9.413c-0.765,3.085-2.528,11.765,0,16.132c0.503,0.864,2.475,2.167,2.693,2.693
		c1.084,2.649,0.187,5.538,1.347,8.066c0.329,0.711,2.089,1.707,2.693,2.691c1.028,1.687,0.711,2.857,1.344,5.386
		c0.341,1.378,1.873,2.781,2.693,4.027c1.643,2.541,3.745,5.155,5.374,6.732c0.603,0.579,2.047,2.33,2.693,2.681
		c0.493,0.274,2.354-0.405,2.683,0c0.832,1.008,1.673,3.328,2.691,4.04c0.493,0.338,2.332-0.439,2.693,0
		c1.106,1.346,2.781,1.52,4.039,2.693c0.623,0.579,0.699,2.155,1.347,2.69c1.717,1.425,4.201,2.158,5.373,4.03
		c8.219-1.817,13.44,5.241,20.172,6.729c2.1,0.461,4.574-0.196,6.73,0c2.659,0.231,3.634,1.271,5.374,1.337
		c1.138,0.054,3.053-1.425,5.385-1.337c2.353,0.077,2.889,1.631,5.374,1.337c2.178-0.243,4.258-1.83,6.73-2.683
		c2.749-0.952,5.56-0.655,8.066-1.347c2.288-0.632,5.736-0.623,8.066-1.346c0.985-0.304,1.074-2.308,2.693-2.69
		c1.182-0.275,2.923,0.471,4.039,0c1.959-0.812,4.236-2.42,6.72-4.03c0.799-0.524,1.959-2.298,2.692-2.69
		c1.531-0.834,2.769-0.395,4.027-1.347c1.849-1.391,3.578-3.941,5.385-5.386c0.788-0.623,1.914-2.209,2.691-2.681
		c2.835-1.763,6.141-3.821,9.413-6.732c1.786-1.586,3.591-3.787,5.374-5.374c1.16-1.028,1.172-1.817,2.693-2.693
		c0.822-0.471,3.151-0.633,4.039-1.346c1.859-1.499,1.433-6.828,5.374-5.374c1.062-6.009,6.982-8.613,10.759-12.104
		c0.459-0.427-0.439-2.256,0-2.693c0.459-0.461,2.2,0.427,2.693,0c0.996-0.875,1.575-1.795,2.691-2.693
		c2.035-1.631,4.421-2.692,5.374-5.374c1.26-0.307,2.803,0.373,4.039,0c1.258-0.383,2.244-0.897,4.039-1.346
		c1.555-0.395,2.539-1.05,6.721-1.346c0.843-0.066,1.881,0.196,2.692,0c2.593-0.645,5.417-0.493,12.104,0
		c-0.042,0,2.848,2.538,4.029,1.346c3.085-3.085,7.026-0.076,10.769,1.346c0.459,0.174,2.387-0.373,2.692,0
		c0.108,0.153-0.175,1.258,0,1.335c0.481,0.242,2.364-0.383,2.67,0c1.182,1.422,7.114,4.892,10.771,5.385
		c0.329,4.586,5.8,6.12,8.076,9.413c0.328,0.493-0.437,2.33,0,2.693c1.315,1.072,1.796,1.082,2.692,2.69
		c0.263,0.493-0.416,2.354,0,2.683c0.373,0.316,2.453,0.974,2.671,1.346c1.161,1.938,0.219,3.809,1.356,5.384
		c0.768,1.083,3.372,1.599,4.027,2.693c1.053,1.719,0.591,3.919,1.358,5.374c0.351,0.688,1.246-0.165,1.334,1.346
		c0.089,1.783,2.584,2.102,2.693,4.039c0.065,1.17,1.533,3.568,2.692,5.374c0.983,1.555,0.352,3.306,1.335,5.385
		c0.307,0.656,2.43,0.798,2.692,1.344c0.964,1.874,0.459,3.382,1.356,5.376c0.569,1.303,0.462,3.601,1.336,5.383
		c0.285,0.604,2.474,0.844,2.693,1.337c0.328,0.743-0.351,1.957,0,2.69c0.285,0.613,2.473,0.855,2.69,1.346
		c0.329,0.724-0.392,2.014,0,2.693c0.876,1.555,1.95,2.32,2.693,4.039c0.919,2.146,0.613,3.699,1.336,5.374
		c0.349,0.832,0.811,1.839,1.356,2.693c1.072,1.708,0.373,3.699,1.335,8.066c0.065,0.25,1.292,0.187,1.336,1.347
		c0.022,0.361-0.132,1.018,0,1.346c0.701,1.729,0.196,3.917,1.356,8.064c0.11,0.373,1.271,0.088,1.336,1.347
		c0.066,0.985,1.116,1.5,1.356,2.692c0.788,4.235,0.832,8.777,0,12.105c-0.591,2.32,1.16,4.115,2.693,5.384
		c-2.32,1.751-1.884,4.313-2.693,6.72c-0.151,0.461,0.352,2.408,0,2.693c-0.151,0.132-1.27-0.175-1.356,0
		c-0.22,0.482,0.393,2.364,0,2.692c-1.313,1.071-1.159,3.919-2.692,8.057c-0.154,0.48,0.373,2.405,0,2.69
		c-2.539,2.079-1.533,0.768-2.671,5.386c0-0.045-1.248,3.94-1.356,4.027c-0.176,0.153-1.248-0.175-1.336,0
		c-0.263,0.503,0.395,2.363,0,2.692c-3.196,2.604-3.81,6.238-6.742,10.769c-0.48,0.746-1.246-0.218-1.335,1.336
		c-0.043,1.006-7.202,8.975-9.412,10.77c-1.16,0.92-2.999,0.373-4.027,1.334c-0.525,0.483-0.831,2.343-1.358,2.693
		c-0.48,0.307-2.342-0.437-2.69,0c-0.132,0.155,0.174,1.271,0,1.336c-0.483,0.241-2.364-0.395-2.693,0
		c-0.657,0.811-3.7,3.961-5.363,4.05c-0.328,0-1.071-0.154-1.356,0c-1.029,0.503-2.035,2.428-2.693,2.67
		c-2.691,1.094-4.443,0.153-8.056,1.356c-0.48,0.152-0.02,1.271-1.355,1.335c-0.503,0.044-3.743-0.327-4.028,0
		c-2.386,2.934-3.021,2.124-9.412,2.692c-3.831,0.351-6.391,0.525-12.105,1.358c-1.521,0.219-2.769,1.468-5.383,1.335
		c-2.179-0.11-2.276-1.027-4.028-1.335c-3.097-0.548-4.335,0.24-6.731-1.358c-1.302-0.853-2.111-0.853-4.027-1.334
		c-2.035-0.505-4.292-3.372-8.078-4.05c-1.224-2.167-1.224-3.459-2.681-5.363c-0.208-0.263-1.128-2.604-1.346-2.692
		c-0.494-0.219-2.375,0.396-2.693,0c-0.383-0.459,0.448-2.32,0-2.693c-0.854-0.698-6.566-3.742-6.73-6.72
		c-0.132-2.56-3.656-2.997-5.373-5.384c-1.138-1.576-0.341-3.984-1.347-5.385c-0.832-1.139-2.825-1.861-4.039-2.692
		c1.16-8.316-4.258-10.068-6.72-14.774c-0.81-4.271,1.072-8.516,0-13.462c-0.054-0.24-2.648-4.314-1.346-5.386
		c0.098-0.065,1.336,0.088,1.346,0c0.373-2.32-1.959-5.494-1.346-10.747c0.208-1.751,0.471-5.33,1.346-8.078
		c0.231-0.7,2.539-2.178,2.693-2.681c0.316-1.062-0.559-3.098,0-4.039c0.842-1.433,4.792-3.952,8.066-6.72
		c1.17-0.996,2.462-2.966,4.037-4.037c0.888-0.604,1.719-0.733,2.683-1.347c0.415-0.263,1.303-1.324,1.347-1.346
		c2.32-1.052,5.811-0.427,9.423-1.347c0.044-0.012,0.537-1.138,1.334-1.336c2.322-0.579,3.59-0.589,6.732-1.345
		c0.01-0.012,0.568-1.16,1.346-1.346c2.715-0.679,8.657,0.01,12.105-1.347c0.394-0.164,0.263-1.074,1.335-1.346
		c1.85-0.461,3.37,1.106,5.386,1.346c2.517,0.294,5.942-0.635,8.066,1.347c0.579,0.535,0.743,2.232,1.345,2.691
		c1.488,1.118,4.377,1.665,5.385,2.683c1.027,1.072,0.395,2.756,1.335,4.039c0.46,0.591,2.342,0.775,2.692,1.344
		c0.832,1.359,0.701,2.759,1.357,4.029c0.876,1.729,1.597,5.583,2.67,9.423c0.109,0.371,1.292,0.088,1.357,1.334
		c0.022,0.515-0.35,3.754,0,4.039c0.811,0.667,2.146,3.863,1.335,8.066c-1.422,1.554-3.281,1.488-5.362,2.692
		c-2.474,1.423-3.83,3.831-8.077,1.335c-0.942-0.548-1.85-2.122-2.692-2.671c-1.335-0.898-2.9-0.371-4.027-1.356
		c-0.854-0.743-0.022-3.721-2.693-2.693c-4.081-1.729-2.374,2.671-4.037,4.05c-0.187,0.154-1.227-0.196-1.346,0
		c-0.298,0.482,0.427,2.342,0,2.671c-0.154,0.132-1.259-0.152-1.347,0c-0.231,0.505,0.395,2.387,0,2.692
		c-0.144,0.132-1.271-0.152-1.347,0c-0.449,1.052,0.612,3.107,0,4.05c-0.701,1.073-2.189-0.525-2.682,1.336
		c-1.323,5.035,0.055,10.023,2.682,13.462c0.657,0.853-0.154,1.246,1.347,1.334c0.557,0.021,2.146,2.254,2.692,2.693
		c0.93,0.743,2.725,2.626,4.037,2.692c2.244,0.107,2.889,2.254,5.376,2.692c4.826,0.832,11.129-1.577,16.142-2.692
		c2.518-0.569,4.378-2.275,6.72-2.692c1.796-0.329,3.854,1.925,5.386,0c2.057-1.84,1.926-2.517,4.027-4.027
		c1.444-1.03,4.049-0.941,5.384-2.692c0.373-0.481-0.437-2.344,0-2.693c0.221-0.174,2.627-1.204,2.692-1.356
		c0.724-1.972-0.568-4.684,0-6.72c0.11-0.373,1.271-0.088,1.337-1.336c0.086-1.489,1.925-3.655,1.356-8.077
		c-0.547-4.026-0.897-1.861,0-5.386c0.701-2.845-1.183-3.502-1.356-5.373c-0.549-6.205-0.021-13.933-1.337-18.826
		c-0.635-2.33-4.289-3.961-2.692-6.73c-5.253-5.045-10.09-10.528-13.44-17.479c-2.845-0.47-5.209-3.885-8.076-4.039
		c-1.751-0.086-1.684-2.036-2.691-2.69c-3.022-1.938-8.013-2.683-9.413-6.72c-7.027,1.138-12.05-5.145-20.171-2.692
		c-1.226,0.373-0.755,1.094-1.346,1.346c-1.204,0.525-2.452,0.689-4.039,1.346c-0.668,0.285-2.189,2.539-2.692,2.69
		c-1.553,0.471-3.907-0.677-5.374,0c-1.423,0.658-2.747,1.729-4.039,2.693c-0.841,0.625-2.002,2.276-2.681,2.683
		c-1.828,1.083-3.863,0.459-5.386,1.345c-0.875,0.515-1.916,2.244-2.691,2.693c-0.493,0.285-2.342-0.415-2.693,0
		c-1.489,1.827-1.194,1.981-4.027,2.692c-1.763,0.439-2.803,2.639-5.386,4.027c-0.821,0.449-3.107,0.647-4.027,1.346
		c-1.336,1.03-2.595,3.941-4.04,5.386c-2.068,2.068-4.772,3.196-5.374,4.038c-0.351,0.471,0.437,2.322,0,2.683
		c-0.164,0.13-1.27-0.165-1.346,0c-0.23,0.493,0.383,2.375,0,2.693c-0.164,0.13-1.271-0.177-1.346,0
		c-1.192,2.45-1.312,5.155-2.693,8.066c-0.306,0.655-1.269-0.132-1.347,1.345c-0.032,0.581-0.503,4.959-2.691,5.386
		c3.054,4.991-0.154,10.08,0,14.786c0.033,0.831-0.198,1.905,0,2.692c0.285,1.116,1.815,2.166,1.345,4.027
		c-0.076,0.307-1.202,2.102-1.345,1.356c0.82,4.399,5.8,7.837,2.691,12.105c6.087,4.839,3.711,13.047,5.386,20.16
		c0.066,0.284,1.28,0.176,1.346,1.357c0.044,0.962,1.116,1.51,1.334,2.69c0.329,1.688-0.48,3.745,0,5.364
		c0.132,0.417,1.28,0.066,1.346,1.356c0.057,0.986-0.415,3.153,0,4.028c0.56,1.183,2.266,0.898,2.693,2.693
		c0.405,1.707-0.404,3.677,0,5.384c0.427,1.817,0.854,2.604,1.347,6.72c0.044,0.396-0.274,2.475,0,2.692
		c0.974,0.788,1.663,2.014,1.346,4.027c0.032-0.24-2.254,0.636-1.346,1.358c0.404,0.308,3.699,3.437,2.693,6.72
		c-2.168,1.072-2.43,4.202-4.04,6.721c-0.974,1.53-1.51,2.801-2.693,4.026c-1.094,1.16-1.608,2.912-2.681,4.05
		c-0.854,0.876-0.481,3.152-1.346,4.027c-1.192,1.182-3.995,0.306-5.386,1.336c-1.204,0.898-2.801,2.934-4.037,4.05
		c-2.933,2.647-5.452,6.435-8.066,9.412c-2.332-1.03-3.251,0.983-4.029,1.334c-2.178,1.008-2.822,0.374-6.729,1.359
		c-1.521,0.371-0.493,0.809-1.346,1.334c-2.934,1.839-5.484,3.065-10.759,5.386c-1.018,0.458-2.735,0.655-4.027,1.334
		c-0.667,0.373-2.168,2.517-2.693,2.693c-2.014,0.699-4.672-0.569-6.73,0c-0.373,0.108-0.088,1.29-1.336,1.356
		c-0.93,0.043-1.587,1.073-2.691,1.336c-4.488,1.071-10.595,0.743-14.798,2.69c-0.525,0.243-0.152,1.052-1.346,1.337
		c-0.8,0.218-1.926-0.307-2.693,0c-0.677,0.285-2.188,2.538-2.681,2.692c-1.599,0.503-3.841-0.613-5.386,0
		c-1.224,0.503-1.925,2.387-2.69,2.691c-1.106,0.438-2.989-0.548-4.03,0c-0.699,0.373,0.165,1.271-1.346,1.358
		c-1.717,0.088-1.707,2.254-2.69,2.692c-2.288,0.962-5.253,0.393-8.066,1.335c-1.872,0.634-4.248,2.516-5.385,2.692
		c-5.121,0.787-10.277,0.547-14.787,0c-2.178-0.263-1.565-0.263-2.693-1.356c-1.739-1.665-4.06,0.349-8.066-1.336
		c-0.602-0.24,0.078-1.271-1.347-1.335c-0.108-0.022-3.522-1.03-4.037-1.358c-0.427-0.263,0.404-2.364,0-2.692
		c-0.689-0.548-3.48,0.679-4.04,0c-0.13-0.175,0.187-1.246,0-1.335c-0.48-0.263-2.352,0.395-2.681,0
		c-0.132-0.151,0.165-1.27,0-1.356c-0.493-0.22-2.376,0.393-2.692,0c-0.427-0.505-2.517-4.355-6.732-2.692
		c-0.983-4.838-5.503-6.129-9.411-8.057c-2.32-5.757-5.802-10.33-10.759-13.462c-0.351-1.685,0.459-3.698,0-5.361
		c-0.338-1.226-2.528-2.102-2.681-2.692c-0.985-3.831-0.22-8.975-1.346-13.463c-0.088-0.306-1.282-0.132-1.346-1.336
		c-0.034-0.503,0.338-3.742,0-4.027c-1.258-1.027-3.546-4.049-2.692-9.412c-0.044,0.242,2.253-0.633,1.346-1.356
		c-3.48-2.779,3.382-13.506,0-20.16c3.217-0.177,2.462-5.253,4.039-8.078c0.393-0.722,1.258,0.176,1.335-1.356
		c0.11-1.925,2.561-2.889,2.693-5.364c0.085-1.729,2.222-1.706,2.692-2.69c0.525-1.117-0.505-2.934,0-4.051
		c0.285-0.611,1.268,0.132,1.344-1.334c0.165-3.107,3.328-4.16,5.375-6.72c0.383-0.481-0.449-2.321,0-2.693
		c1.609-1.312,3.25-3,5.384-5.383c1.04-1.16,2.156,0.632,2.693-1.337c0.777-2.955,0.897-2.298,4.027-4.049
		c0.711-0.395-0.174-1.248,1.347-1.335c1.116-0.065,4.498-3.261,5.385-5.385c5.943,1.356,10.343-4.138,16.133-5.386
		c0.711-0.131,3.152-1.312,2.691-1.335c1.719,0.089,4.52,1.29,6.72,1.335c5.408,0.153,9.741-4.29,10.759,2.692
		c2.617,0.635,5.8-0.81,8.079,0c0.329,0.132-0.297,2.452,0,2.693c0.262,0.218,1.072-0.22,1.346,0
		c0.317,0.262,1.214,1.27,1.345,1.356c1.577,0.941,3.909,0.22,5.376,1.336c3.644,2.779,4.333,9.347,9.41,10.77
		c-1.312,3.96,3.865,7.528,4.039,10.747c0.088,1.729,2.212,1.685,2.693,2.692c0.515,1.094-0.515,2.934,0,4.027
		c0.743,1.643,2.188,2.211,2.681,4.048c1.096,3.986,1.719,9.043,1.347,13.442c-0.055,0.634-0.657,6.282-1.347,8.076
		c-0.108,0.285-2.298,0.373-2.681,1.334c-0.404,1.008,0.601,3.154,0,4.029c-2.08,3.064-8.11,5.583-12.105,8.077
		c-1.028,0.635-1.378,1.925-2.693,2.692c-1.521,0.876-3.095,2.124-5.383,2.692c-1.927,0.481-3.262,1.619-5.374,1.335
		c-0.667-0.089-0.866-2.386-1.346-2.693c-1.805-1.071-4.324,0.351-5.386-1.334c-3.819-4.838,1.4-11.973-1.334-16.133
		c-0.461,0.415-9.139-6.324-12.106-2.692c-1.4,1.707-7.618,2.671-10.759,5.386c-5.396,4.618-7.738,12.346-6.73,20.159
		c1.258,9.764,8.898,13.178,13.45,20.183c3.831,0.591,8.253,1.312,12.105,2.692c3.556,1.269,5.856,3.677,9.413,4.027
		c7.507,0.743,13.035-3.765,20.172-1.335c3.02-3.546,8.285-3.918,12.104-6.742c1.893-1.38,4.849-2.955,6.732-5.363
		c0.36-0.48-0.449-2.319,0-2.692c1.837-1.511,2.166-2.494,4.027-5.386c0.481-0.743,1.271,0.221,1.347-1.334
		c0.164-3.021,2.134-1.84,2.693-4.05c0.174-0.7-0.363-2.057,0-2.692c0.316-0.547,2.472-0.875,2.69-1.335
		c0.318-0.723-0.393-2.015,0-2.692c0.385-0.657,2.497-2.146,2.683-2.692c0.907-2.494,0.623-7.289,1.346-10.747
		c-0.012,0.064,1.17-0.657,1.346-1.359c0.427-1.685-0.417-3.676,0-5.383c0.646-2.561,1.28-1.096,0-5.363
		c-0.23-0.787-1.336-1.312-1.346-1.357c-0.198-1.008,1.28-1.576,1.346-1.336c-0.932-3.217-1.994-4.179-2.692-6.72
		c-1.368-5.057-2.693-11.098-4.027-14.796c-0.341-0.941-0.713-2.803-1.346-4.049c-1.314-2.519-3.514-3.088-5.386-5.363
		c-0.897-1.094-0.525-2.978-1.334-4.05c-0.701-0.897-1.883-1.665-2.693-2.692c-2.803-3.48-7.551-5.757-8.078-12.105
		c-4.76,0.745-3.304-4.749-8.066-4.027c-2.276-2.89-4.005-6.872-6.72-9.413c-0.437-0.404-2.319,0.461-2.69,0
		c-1.128-1.379-2.048-3.885-4.04-5.373c-0.471-0.361-2.32,0.438-2.681,0c-0.122-0.143,0.143-1.293,0-1.347
		c-1.062-0.393-5.397-1.182-8.078-1.347c0.493,0.035-0.743,1.314-1.347,1.347c-2.178,0.11-2.33-1.455-4.027-1.347
		c-2.365,0.143-2.912,1.074-5.386,1.347c-1.729,0.199-3.677-0.373-5.374,0c-0.25,0.054-0.197,1.28-1.347,1.347
		c-0.37,0.012-5.592,3.6-6.72,0c-5.604,4.039-11.831,5.658-17.489,9.4c-1.378,0.92-1.597,1.621-2.693,2.692
		c-0.733,0.724,0.219,1.271-1.346,1.359c-1.028,0.041-5.175,2.69-6.72,4.026c-0.458,0.395,0.427,2.254,0,2.693
		c-0.458,0.458-2.199-0.439-2.693,0c-1.104,0.983-2.997,5.866-6.72,5.384c0.471,1.904-1.422,3.722-2.691,5.363
		c-0.34,0.437-2.506,0.963-2.692,1.356c-0.285,0.635,0.427,2.146,0,2.692c-1.062,1.355-2.813,2.583-4.027,4.027
		c-0.691,0.812,0.174,1.271-1.346,1.358c-1.653,0.086-0.613,1.729-1.346,2.671c-1.928,2.517-3.426,3.676-5.386,6.741
		c-0.657,1.028-2.604,1.225-2.681,2.669c-0.11,1.95-2.561,2.913-2.693,5.386c-0.054,1.008-2.43,4.159-4.039,5.385
		c-0.623,0.481-2.156,0.766-2.681,1.335c-0.996,1.095-0.405,2.781-1.347,4.049c-0.579,0.768-2.058,0.658-2.692,1.336
		c-3.032,3.263-5.308,7.378-8.066,9.413c-1.531,1.139-3.743,0.308-5.384,1.356c-1.052,0.657-1.324,1.926-2.693,2.693
		c-1.751,0.984-1.532-0.11-2.693,1.334c-1.248,1.577-5.297,2.276-8.066,4.027c-0.635,0.417-0.996,1.141-1.346,1.358
		c-2.046,1.204-4.903,0.984-8.066,2.692c-0.58,0.308-2.265,2.562-2.691,2.691c-1.665,0.461-3.689-0.415-5.375,0
		c-2.549,0.591-1.367,0.656-4.037,0c-2.222-0.569-2.945,1.576-5.374,1.336c-3.306-0.328-7.071-2.102-12.105-4.027
		c-1.938-0.745-4.586-0.46-6.732-1.358c-0.633-0.262-0.832-2.449-1.345-2.692c-1.731-0.765-3.745-0.547-5.375-2.691
		c-1.378-1.794-1.805-4.532-4.037-6.72c-0.733-0.723,0.218-1.248-1.346-1.336c-1.4-0.089-3.799-5.079-5.374-6.72
		c-1.675-1.751-4.083-2.494-5.386-4.049c-0.875-1.053-0.581-2.978-1.347-4.028c-0.755-1.073-1.827-1.62-2.681-2.691
		c-2.66-3.307-6.349-5.779-9.413-9.413c-0.93-1.094-0.404-3.021-1.346-4.027c-0.471-0.505-2.364-0.832-2.693-1.358
		c-0.613-0.962,0.493-2.998,0-4.027c-0.316-0.679-2.396-0.787-2.692-1.334c-0.263-0.505,0.406-2.364,0-2.692
		c-0.153-0.133-1.259,0.151-1.345,0c-0.23-0.503,0.393-2.387,0-2.693c-1.567-1.29-0.373-1.992-1.346-4.049
		c-0.329-0.68-2.364-0.766-2.683-1.335c-0.557-1.008,0.613-3.087,0-4.028c-0.36-0.57-3.36,0.328-2.692-1.356
		c0.941-4.729-2.451-3.919-2.691-8.057c-0.199-3.415-1.182-3.589-2.693-6.742c-2.715-5.658-4.302-14.885-9.413-20.16
		c1.729-9.533-3.164-15.957-5.374-22.863c-0.493-1.532,0.711-3.963,0-5.386c-0.218-0.426-2.604-1.049-2.693-1.346
		c-0.23-0.788,1.413-1.564,1.347-2.69c0.01,0.174-1.303-0.505-1.347-1.337c-0.338-6.511,2.529-14.359,2.693-25.555
		c2.44-0.132,1.707-2.32,2.681-4.039c1.631-2.845,5.209-5.898,5.386-12.104c4.728-2.955,7.114-7.443,12.104-10.759
		c0.745-0.493-0.219-1.258,1.346-1.346c0.777-0.032,4.696-2.538,4.029-5.374c3.983,0.766,6.129-2.276,9.422-4.039
		c6.217-3.327,13.494-6.348,17.479-13.45c3.787,1.018,6.357-1.467,9.413-2.683c0.481-0.197,2.384,0.372,2.691,0
		c0.11-0.143-0.143-1.291,0-1.347c1.959-0.755,4.466-0.513,6.72-1.346c1.719-0.633,2.167-2.2,4.039-2.691
		c1.685-0.439,3.688,0.405,5.374,0c2.573-0.603,9.128-1.599,16.145,0c-0.022,0,0.601,1.16,1.347,1.347
		c3.458,0.863,7.988,2.241,12.103,4.037c4.083,1.772,7.301,5.439,12.105,5.374c0.569,2.562,2.899,3.382,2.681,6.731
		c3.351-0.208,4.169,2.112,6.732,2.681c0.535,0.745-0.669,3.448,0,4.039c0.427,0.373,2.374-0.438,2.69,0
		c0.341,0.481-0.449,2.331,0,2.693c0.341,0.273,2.519,1.018,2.683,1.347c0.569,1.05-0.503,2.943,0,4.027
		c0.231,0.481,2.583,0.996,2.693,1.347c0.788,2.462,0.339,6.009,1.347,9.413c0.841,2.855,2.561,5.285,2.691,6.73
		c0.23,2.43-1.161,7.039-1.347,10.759c-0.108,2.209,1.314,12.378,0,13.449c-0.152,0.123-1.269-0.174-1.344,0
		c-0.231,0.483,0.393,2.365,0,2.684c-2.092,1.707,0.427,2.614-1.347,6.729c-0.274,0.647-2.114,1.751-2.693,2.683
		c-0.547,0.897-0.733,1.739-1.336,2.69c-0.535,0.833-2.276,1.938-2.691,2.693c-0.274,0.493,0.415,2.354,0,2.692
		c-0.208,0.165-1.204-0.208-1.346,0c-0.68,0.986-0.527,2.934-1.347,4.027c-0.515,0.702-2.2,0.702-2.693,1.346
		c-1.457,1.928-2.693,5.396-2.693,5.386c-0.437,0.405-2.308-0.46-2.681,0c-1.172,1.422-1.807,4.792-6.731,4.038
		c-2.2,4.608-9.313,5.31-13.44,8.066c-4.542,3.021-10.561,5.856-20.182,2.683c-0.699-0.23-2.178-2.528-2.681-2.683
		c-1.457-0.449-4.093,0.745-5.385,0c-0.415-0.24,0.382-2.375,0-2.69c-0.842-0.692-1.695-0.733-2.693-1.347
		c-0.491-0.307-3.61-0.854-4.027-1.346c-1.16-1.336-0.525-3.711-1.346-5.374c-1.116-2.256-5.013-6.48-2.693-10.759
		c1.567-2.484,4.258-2.067,9.413-2.693c2.967-0.36,6.688-2.44,8.066,2.693c2.933-0.284,5.604,0.361,8.079,0
		c4.049-0.603,5.471-1.707,8.066-4.039c2.943-2.648,6.062-4.793,4.038-12.104c-0.82-2.955-6.929-7.629-10.757-10.759
		c-1.83-1.489-3.799-2.343-6.732-4.04c-0.854-0.493-2.178-2.472-2.693-2.681c-1.422-0.581-5.308,0.677-8.066,0
		c-0.307-0.076-0.143-1.28-1.346-1.346c-1.17-0.066-2.112-1.347-4.027-1.347c-4.258,0-5.604,1.653-9.423,2.693
		c-0.449,0.12-2.418-0.329-2.681,0c-0.132,0.152,0.162,1.268,0,1.347c-0.493,0.218-2.376-0.395-2.693,0
		c-1.358,1.652-4.39,5.033-8.066,5.374c1.094,3.173-1.807,4.65-2.693,6.72c-0.316,0.755,0.197,1.903,0,2.693
		c-0.448,1.783-2.332,2.111-2.693,4.037c-0.415,2.256-1.466,13.047,0,16.133c0.297,0.625,2.463,0.844,2.693,1.346
		c0.614,1.359,0.351,8.604,1.347,9.423c1.805,1.466,3.557,1.456,4.027,5.375c0.339,2.756-0.186,4.343,1.347,6.72
		c0.481,0.755,1.27-0.208,1.346,1.346c0.111,1.97,2.715,1.991,4.04,4.037c0.316,0.493-0.438,2.332,0,2.693
		c0.307,0.252,2.549,1.062,2.69,1.347c1.03,2.124,0.385,3.688,1.336,5.373c0.405,0.711,1.271-0.187,1.347,1.347
		c0.187,3.479,2.089,2.167,2.692,5.386c0.13,0.677-0.351,2.1,0,2.69c1.575,2.671,7.507,3.808,5.384,8.057
		c2.156,0.021,2.987,1.576,4.027,2.692c2.058,2.209,3.842,6.392,6.732,9.413c1.511,0.546,3.939-0.725,5.374,0
		c0.427,0.218,1.062,2.604,1.346,2.69c3.512,1.008,8.919-1.489,10.759,2.692c2.45-2.735,6.556-1.772,9.413-2.692
		c1.388-0.437,1.85-2.342,2.691-2.69c1.544-0.613,3.843,0.632,5.385,0c0.58-0.243-0.088-1.271,1.334-1.337
		c0.635-0.044,1.959-1.006,2.692-1.356c1.052-0.482,2.725-0.636,4.04-1.336c0.93-0.503,1.881-2.188,2.693-2.691
		c2.539-1.576,6.436-2.146,9.413-5.385c0.404-0.439-0.461-2.321,0-2.693c2.068-1.685,5.438-2.737,8.066-5.363
		c1.53-1.531,3.139-2.912,4.037-4.05c0.373-0.459-0.449-2.319,0-2.692c0.154-0.108,1.258,0.177,1.346,0
		c0.23-0.48-0.395-2.362,0-2.681c1.018-0.842,2.475-1.543,4.027-4.039c1.018-1.632,0.186-3.983,2.693-4.027
		c-1.805-4.792,2.156-9.17,2.693-13.45c1.346-10.835,1.214-24.648,0-36.314c-0.088-0.843,0.208-1.861,0-2.693
		c-0.537-2.112-2.004-1.521-2.693-5.374c-0.525-2.955,1.368-3.458,1.346-5.386c0,0.307-1.302-0.601-1.346-1.334
		c-0.294-5.594,0.755-16.408-1.347-21.528c-0.174-0.427-1.072-0.241-1.346-1.336c-0.569-2.286-0.743-8.722-1.347-12.104
		c-0.885-5.025-1.477-10.43-2.681-14.798c-0.481-1.739,0.68-3.939-1.346-4.04c1.763-5.406,3.502-10.833,2.693-18.823
		c2.494-0.022,1.641-2.463,2.681-4.04c0.341-0.492,2.497-0.907,2.693-1.346c0.284-0.635-0.427-2.144,0-2.681
		c2.276-2.879,6.622-5.756,9.413-8.079c0.755-0.623-0.218-1.258,1.347-1.334c1.991-0.11,6.729-2.867,6.72-6.732
		c2.67-0.382,4.574,0.057,6.729-1.344c1.04-0.679,1.643-3.492,2.693-4.029c2.134-1.104,5.878-0.591,8.066-2.691
		c3.875-3.711,14.656-4.421,20.172-9.413c11.414,1.751,21.319-4.346,29.583-1.347c1.773-0.471,2.124-2.376,4.039-2.693
		c0.809-0.132,2.364,1.422,4.04,1.346c1.104-0.054,2.188-1.258,4.027-1.346c1.543-0.066,0.8,1.236,1.347,1.346
		c0.677,0.131,3.053-1.456,6.729-1.346c3.088,0.098,6.283,1.281,9.413,1.346c3.502,0.066,6.973-1.182,10.759-1.346
		c0.24-0.009,4.29,2.681,5.374,1.346c0.866-1.062,2.516-1.64,6.732-1.346c-0.319-0.022,0.646,2.222,1.344,1.346
		c0.505-0.634,1.292-1.696,2.683-1.346c2.067,0.515,1.653,1.839,5.383,2.693c5.111,1.16,8.505,0.635,13.452,0
		c2.538,4.182,8.24,5.199,13.449,6.72c1.084,0.984,1.555,3.152,2.684,4.04c0.941,0.733,3.053,0.503,4.039,1.344
		c0.459,0.385-0.428,2.256,0,2.693c0.788,0.778,4.081,0.768,5.374,2.683c0.437,2.899,1.575,5.56,2.691,8.077
		c0.23,0.493,1.062,0.174,1.346,1.334c0.604,2.386,0.329,4.083,2.693,5.386c0.361,4.421-0.493,7.848,0,12.105
		c0.503,4.312,2.661,7.846,2.693,12.104c0.01,3.36-0.613,6.644-1.346,10.759c0.022-0.165-1.192,0.701-1.347,1.346
		c0.088-0.338,1.084,9.861,0,10.759c-1.258,1.028-2.035,0.974-2.693,2.693c-0.819,2.156-0.491,4.792-1.346,6.72
		c-0.272,0.611-1.268-0.11-1.345,1.344c-0.1,1.938-2.55,2.901-2.683,5.375c-0.24,4.596-7.583,8.535-10.759,12.104
		c-1.466,1.643-1.628,4.061-2.69,5.386c-1.402,1.739-3.799,1.511-4.039,4.027c-3.995-1.653-4.027,2.551-6.72,2.693
		c-2.266,0.12-5.156,0.996-8.077,2.693c-0.571,0.329-2.256,2.561-2.683,2.692c-3.25,0.962-8.897,0.569-13.45,1.344
		c-2.747,0.461-3.426,0.822-5.386,1.337c-2.649,0.699-2.538-0.143-4.027,1.347c-1.435,1.444-6.185-2.004-8.078-2.684
		c-0.788-0.284-1.859,0.199-2.681,0c0.044,0.012-3.941-1.236-4.04-1.344c-1.378-1.697-0.36-0.198-1.346,0
		c-1.05,0.207-2.867-2.288-4.027-2.692c-2.222-0.768-4.476-1.445-6.729-1.346c-3.907-4.861-7.399-10.376-12.105-16.145
		c-0.919-1.126-3.601-3.139-4.027-4.027c-0.538-1.094,0.47-2.912,0-4.037c-0.199-0.449-1.062-0.243-1.347-1.347
		c-0.667-2.497-0.843-3.558-1.346-5.375c-1.619-5.833-3.854-10.276-1.347-14.796c0.395-0.711,1.258,0.174,1.347-1.346
		c0.132-2.529,2.561-4.246,2.693-6.72c0.152-2.921,5.515-7.979,8.066-10.759C259.649,75.399,267.046,69.106,274.215,66.732z
		 M266.148,80.182c-0.37,0.449-2.222-0.371-2.69,0c-1.128,0.91-1.599,3.033-2.693,4.039c-1.861,1.719-5.244,3.382-6.72,5.374
		c-1.106,1.5-0.461,3.754-1.346,5.385c0.088-0.164-1.314,1.312-1.347,1.335c-3.315,3.47-0.623,17.687,0,20.181
		c0.417,1.666,0.253,1.785,1.347,2.683c1.717,1.411-0.099,5.768,2.693,5.383c0.546,2.595,5.209,1.062,4.027,5.374
		c3.021,3.262,5.648,6.907,8.076,10.771c5.844-0.231,9.839,3.337,14.786,4.027c1.751,0.252,3.623-0.12,5.386,0
		c1.981,0.142,4.552,1.413,5.374,1.347c0.143-0.012,2.276-2.561,2.693-2.693c6.72-2.09,12.071,0.164,17.489-1.347
		c3.053-4.115,8.547-5.79,13.439-8.066c0.569-2.21,3.963-3.841,4.04-5.374c0.098-1.925,1.608-0.471,2.692-1.347
		c0.449-0.373-0.384-2.222,0-2.693c0.777-0.974,2.921-2.703,4.027-4.037c2.517-2.989,3.37-4.051,4.039-6.72
		c0.273-1.106,1.171-0.92,1.347-1.347c0.721-1.763,0.469-3.076,1.344-5.374c1.172-3.075,2.541-3.809,2.693-6.732
		c0.056-1.138,1.292-1.116,1.336-1.346c0.383-1.773-0.186-4.849,0-8.066c0.152-2.507,1.356-5.506,1.346-8.066
		c0-1.356-1.105-1.587-1.346-2.693c-0.919-4.258,0.569-10.899,0-13.45c-0.701-3.164-4.16-5.911-4.029-9.413
		c1.643-6.129-3.686-5.275-2.691-10.759c-2.847-0.064-4.86-2.188-5.375-2.693c-1.236-1.18-2.516-1.717-4.037-2.69
		c-2.519-1.599-4.399-3.065-5.385-5.374c-5.143,1.872-8.493-2.87-13.439-4.04c-1.805-0.427-4.859,0.437-8.077,0
		c-1.346-0.176-1.577-1.008-2.683-1.346c-5.526-1.663-5.188-0.547-9.423,0c-2.595,0.338-5.866,0.317-8.066,0
		c-4.925-0.711-3.919-0.821-8.066,0c-3.164,0.635-6.632,1.17-9.413,1.346c-4.694,0.295-3.73-1.576-8.076-1.346
		c-0.689,0.044-1.697,1.346-1.336,1.346c-4.299-0.034-6.872-1.193-8.076-1.346c-1.346-0.165-1.599,1.281-2.693,1.346
		c-8.591,0.558-21.484,1.675-25.545,2.693c-1.729,0.437-2.855,1.05-4.037,1.347c-0.81,0.197-1.905-0.296-2.693,0
		c-0.591,0.229-1.925,2.362-2.681,2.691c-0.745,0.318-1.906-0.196-2.693,0c-1.072,0.262-0.952,1.194-1.346,1.346
		c-5.636,2.2-14.742,4.542-17.479,6.72c-0.284,0.22-1.083-0.219-1.346,0c-0.437,0.351,0.439,2.354,0,2.692
		c-0.35,0.263-4.059,1.347-4.037,1.347c-1.467,0.076-1.653,2.025-2.692,2.681c-1.511,0.964-1.609,1.38-2.693,2.693
		c-1.621,1.991-5.222-0.285-5.374,2.693c-0.187,3.612-6.885,6.271-8.066,8.066c1.97,3.294-2.244,7.114-2.693,10.759
		c-0.537,4.355,0.777,8.832,1.347,13.45c0.645,5.329,0.613,9.741,1.346,14.798c0.799,5.56,2.396,11.961,2.681,17.477
		c0.066,1.248,1.248,0.986,1.347,1.346c2.582,9.467,0.765,19.591,1.346,32.277c0.142,3.075,1.128,6.379,1.347,9.411
		c0.787,10.803-0.241,23.532-1.347,28.248c-0.395,1.697,0.417,3.678,0,5.375c-0.427,1.794-2.134,1.521-2.693,2.691
		c-0.415,0.887,0.056,3.043,0,4.039c-0.066,1.4-1.126,0.787-1.346,1.347c-1.138,2.921-1.619,7.551-2.681,9.412
		c-0.373,0.657-2.08,1.881-2.693,2.693c-1.018,1.356-1.565,2.778-2.693,4.026c-0.82,0.92-3.184,0.372-4.027,1.335
		c-0.373,0.438,0.154,2.124,0,2.692c-0.537,1.991-1.533,0.218-2.692,1.356c-4.694,4.576-8.996,9.238-13.45,12.105
		c-3.765,2.431-10.342,5.933-16.145,8.057c-0.775,0.306-1.872-0.199-2.681,0c-1.105,0.284-0.919,1.182-1.346,1.356
		c-3.217,1.312-8.657,2.035-10.759,2.692c-2.21,0.677-6.063,2.014-6.73,1.335c-1.445-1.445-1.336-0.811-4.027-1.335
		c-7.105-1.4-9.425-1.992-16.145-4.049c-3.645-3.044-3.25-8.385-5.374-10.749c-1.094-1.225-3.021-1.313-4.039-2.691
		c-0.842-1.141-1.948-1.709-2.691-2.692c-0.875-1.16-0.438-2.781-1.346-4.029c-1.435-1.992-3.404-2.473-4.027-4.049
		c-0.407-0.983,0.042-2.671-1.346-2.671c-3.941-4.355-5.55-10.059-8.066-14.796c-2.693-5.058-5.977-9.587-8.079-14.797
		c-0.819-2.047-2.089-4.576-2.681-6.722c-0.373-1.357,1.281-1.038,1.334-1.345c0.285-1.424-1.224-0.932-1.334-1.346
		c-1.969-7.071-4.093-13.582-5.386-21.519c2.781-1.499,1.599-5.285,2.693-8.076c0.275-0.711,2.19-1.511,2.693-2.684
		c0.864-2.057,0.613-3.895,1.334-5.383c0.088-0.177,1.194,0.13,1.346,0c0.449-0.361-0.35-2.212,0-2.693
		c0.996-1.325,4.422-3.524,6.732-5.374c1.084-0.875,1.717-1.883,2.681-2.693c0.538-0.449,2.124,0.405,2.693,0
		c1.062-0.744-0.208-2.036,1.347-2.693c1.521-0.635,3.797,0.493,5.383,0c1.359,0.362,0.875-0.766,1.336-1.346
		c1.04-1.302,0.635-0.898,2.693-1.347c5.055-1.072,11.468,1.074,14.796-1.334c-0.537,3.217,6.129-0.755,4.039,4.027
		c4.147-1.553,6.654,1.457,9.413,2.693c2.67,1.204,5.822,2.102,8.066,4.039c1.717,1.477,2.014,5.8,5.383,5.374
		c0.275,3.863,0.208,4.226,1.337,6.729c0.218,0.471,2.386,0.768,2.691,1.337c1.665,3.076,2.977,3.666,2.692,9.422
		c-0.262,5.44-6.073,11-9.413,13.44c-0.864,0.635-1.739,2.058-2.691,2.693c-2.967,1.981-3.909,2.333-6.72,2.693
		c-4.532,0.579-7.706-0.559-10.759-1.347c-2.222-0.568-4.903-4.902-8.078-1.346c-0.219,4.707,4.74,4.236,6.732,6.732
		c1.564,1.542,3.512,4.42,8.066,5.374c3.512,0.733,14.261,1.04,12.105-2.693c7.201,0.942,7.046-1.641,10.757-4.027
		c2.058-1.336,5.942-2.114,6.72-2.693c0.755-0.569,0.546-3.328,1.346-4.04c1.116-0.973,3.054-0.262,4.04-1.346
		c0.875-0.952,1.511-3.348,2.693-5.374c0.108-0.196,1.16,0.155,1.334,0c0.395-0.316-0.23-2.2,0-2.693
		c0.088-0.164,1.194,0.132,1.347,0c0.417-0.329-0.262-2.2,0-2.691c0.098-0.176,1.172,0.143,1.346,0c0.395-0.318-0.23-2.199,0-2.683
		c0.088-0.174,1.192,0.121,1.347,0c0.405-0.338-0.252-2.2,0-2.693c0.098-0.174,1.182,0.132,1.346,0
		c0.471-0.382,1.018-3.546,1.347-4.037c1.214-1.817,2.253-5.013,2.69-6.72c0.559-2.234,1.182-5.364,1.347-6.732
		c1.106-9.773-0.832-16.449-2.691-21.516c-1.052-2.847-1.609-5.802-2.693-8.066c-0.777-1.621-1.773-1.5-2.693-2.693
		c-0.93-1.226-0.458-2.604-1.346-4.027c-0.493-0.812-2.188-1.763-2.681-2.693c-0.768-1.413-0.012-3.293-1.347-4.039
		c-2.408-1.796-2.999-2.09-5.386-2.693c-1.41-0.349-0.569-0.81-1.346-1.335c-0.832-0.581-1.773-2.08-2.681-2.692
		c-1.467-0.974-4.191-2.627-5.385-2.693c-1.148-0.054-1.104-1.291-1.346-1.346c-2.954-0.646-6.993-0.361-10.757-1.347
		c-1.697-0.437-1.587-2.242-2.693-2.681c-5.834-2.364-11.284,0.318-16.133,1.336c-0.164,0.042-0.404,1.116-1.346,1.344
		c-3.206,0.811-5.636-0.744-8.066,0c-0.338,0.11-0.886,2.475-1.346,2.693c-2.188,1.04-3.863-0.108-5.384,1.347
		c-1.226,1.182-2.506,1.718-4.029,2.692c-2.506,1.587-2.747,2.452-4.037,4.027c-0.373,0.46-2.222-0.371-2.693,0
		c-1.128,0.91-1.599,3.031-2.693,4.039c-5.319,0.481-10.013,4.815-14.786,8.066c-2.003,1.369-4.432,2.289-6.729,4.04
		c-0.92,0.699-1.621,1.881-2.683,2.69c-2.08,1.555-3.961,2.506-4.037,4.029c-0.079,1.531-0.954,0.633-1.347,1.347
		c-0.746,1.344-0.515,2.526-1.346,4.037c-0.417,0.768-2.212,1.807-2.693,2.693c-0.724,1.346-0.822,2.955-1.334,4.027
		c-1.096,2.256-2.376,4.115-2.693,5.386c-0.954,3.787-1.687,2.845-2.693,5.374c-2.112,5.33-0.515,5.363,0,10.759
		c0.285,2.965-0.361,7.276,0,9.413c0.272,1.641,2.244,3.645,2.693,5.383c0.405,1.609-0.088,3.723,0,5.385
		c0.066,1.258,1.236,0.952,1.347,1.334c0.623,2.178,0.699,4.532,1.346,6.732c0.983,3.382,3.402,6.556,2.681,9.413
		c-0.076,0.328-1.356,1.938-1.346,1.346c-0.044,2.089,2.462,4.476,2.693,5.374c0.471,1.882,0.81,2.703,1.346,4.038
		c0.13,0.328-0.022,0.985,0,1.346c0.076,1.511,0.974,0.647,1.347,1.347c1.542,2.9,3.458,5.298,4.037,6.72
		c0.395,1.008,1.314,3.547,1.337,4.027c0.086,1.555,0.863,0.613,1.346,1.358c1.925,2.977,0.853,7.485,2.691,9.413
		c1.643,1.706,0.59,2.364,1.346,5.384c0.275,1.096,1.173,0.919,1.347,1.336c1.094,2.692,1.884,5.889,2.693,6.72
		c1.072,1.138,1.587,2.889,2.681,4.05c1.182,1.226,1.719,2.494,2.692,4.026c2.365,3.701,5.977,6.348,8.066,8.078
		c0.439,0.349-0.316,2.188,0,2.669c0.307,0.461,2.244,0.986,2.693,1.359c0.449,0.372-0.373,2.209,0,2.691
		c2.112,2.649,6.085,4.814,8.066,6.72c2.604,9.499,11.515,12.694,16.143,20.183c3.065,1.05,4.412,0.765,6.72,1.334
		c1.238,0.307,0.777,1.072,1.346,1.336c0.724,0.349,1.862,2.276,2.693,2.691c1.663,0.854,3.568,1.096,5.386,1.358
		c1.991,0.285,2.801-1.271,4.027-1.358c2.45-0.175,3.129,1.84,5.383,1.358c1.665-0.372,2.661-1.839,4.029-2.693
		c2.516-1.554,7.014-2.954,9.422-4.026c1.182-0.547,0.449-1.227,2.681-1.359c1.511-0.063,0.657-0.983,1.346-1.334
		c1.479-0.787,3.635-0.306,5.386-1.356c1.084-0.635,1.565-3.35,2.681-4.029c1.741-1.049,3.645-0.393,5.386-1.334
		c1.138-0.635,1.29-3.567,4.037-2.692c0.691-4.399,5.243-6.15,6.722-8.077c0.841-1.095,0.437-2.889,1.344-4.029
		c1.653-2.121,3.809-3.28,5.386-5.382c1.477-1.992,2.386-4.577,4.027-6.721c2.497-3.263,6.426-5.933,8.066-8.078
		c0.844-1.094,0.449-2.89,1.347-4.027c1.586-1.992,3.698-3.151,5.385-5.384c1.543-2.058,2.473-4.991,4.027-6.722
		c2.08-2.298,5.527-4.378,8.076-6.72c1.106-1.028,2.934-1.619,4.029-2.69c0.766-0.745,0.7-3.24,1.344-4.052
		c0.374-0.437,2.223,0.373,2.693,0c7.838-6.073,14.152-11.262,22.865-13.439c3.12-0.776,5.953-3.14,9.413-4.038
		c1.499-0.384,2.178,1.268,2.69,1.346c1.972,0.316,2.813-1.04,4.029-1.346c2.867-0.711,4.3-1.675,6.73-2.683
		c2.31,4.039,6.075,1.051,9.413,1.336c-0.274-0.022,0.788,1.183,1.347,1.347c3.983,1.205,7.617-0.919,10.759,0
		c1.049,0.721,0.458,3.173,1.344,4.038c1.172,1.137,4.116,0.284,5.376,1.346c2.1,1.751,3.37,4.849,5.383,6.72
		c4.444,4.15,8.8,8.198,13.452,12.116c0.066,5.691,4.969,8.057,6.72,10.749c0.919,1.423,1.236,3.174,2.693,4.027
		c4.749,4.729,8.525,9.193,10.757,14.796c0.954,2.408,0.92,10.813,2.693,13.461c0.547,0.812,1.697,2.627,1.347,4.029
		c-0.886,3.525-0.547,1.356,0,5.384c0.218,1.688,1.062,1.949,1.336,4.029c0.633,4.771-0.066,8.842-1.336,10.77
		c-2.693,4.026-0.295,10.134-2.693,12.104c-0.415,0.328,0.274,2.189,0,2.67c-0.427,0.79-2.232,1.818-2.693,2.693
		c-0.349,0.679,0.186,1.947,0,2.692c-0.699,2.802-3.162,2.539-4.037,4.05c-1.204,2.079-1.621,4.684-2.683,6.72
		c-0.393,0.745-2.232,1.839-2.69,2.692c-0.854,1.556-0.385,2.802-1.347,4.027c-2.134,2.671-5.822,5.188-8.066,6.72
		c-1.226,0.832-2.703,0.462-4.039,1.358c-1.084,0.722-1.17,2.014-2.693,2.669c-2.757,1.227-5.756,1.511-6.72,2.692
		c-0.25,0.307-2.266-0.088-2.693,0c-4.213,0.854-10.627,0.897-12.103,2.693c-0.964,1.182-12.292,0-12.105,0
		c-1.018-0.044-1.258-1.334-1.347-1.334c-2.921-0.439-5.352,0.743-8.066,0c-1.837-0.505-1.466-1.928-2.693-2.693
		c-1.663-1.073-3.61-0.505-5.374-1.358c-0.721-0.326-2.08-1.29-2.69-1.334c-1.479-0.089-0.68-1.03-1.347-1.335
		c-1.763-0.875-3.887-0.22-5.375-1.358c-0.711-0.546-2.298-3.195-4.037-5.384c-1.927-2.407-3.919-4.443-4.04-6.72
		c-0.076-1.554-0.843-0.591-1.334-1.336c-1.981-2.999-2.07-3.13-2.693-6.72c-0.307-1.751-1.182-1.884-1.346-4.05
		c-0.208-2.759,0.373-5.626,1.346-9.412c0.766-2.999,2.867-9.347,4.027-9.413c1.828-0.088,2.004-4.64,2.693-5.384
		c0.964-1.029,2.845-1.883,4.04-2.692c0.611-0.395,2.089,0.437,2.691,0c0.919-0.635,0.066-1.991,1.346-2.671
		c2.737-1.511,5.483-1.905,6.72-2.692c3.054-1.947,1.959-0.13,5.374,0c1.862,0.066,2.978-1.378,4.04-1.357
		c2.484,0.088,5.494,2.758,8.066,1.357c0.24,2.692,3.087,2.43,4.039,4.026c1.05,1.752,0.689,4.466,1.346,6.72
		c1.138,3.964-0.647,8.604,2.692,10.771c1.729-2.759,7.54-1.424,8.064-5.386c4.718,0.24,4.422-4.552,8.066-5.386
		c-0.459-5.581,3.109-10.33,2.693-16.132c-0.142-2.035-4.849-13.57-6.72-16.131c-0.623-0.854-2.166-1.709-2.693-2.692
		c-0.348-0.679,0.187-1.949,0-2.692c-0.294-1.183-1.104-0.811-1.346-1.356c-0.468-1.008-0.579-3.066-1.344-4.029
		c-0.591-0.743-3.318-0.634-4.04-1.334c-0.768-0.766-0.537-3.393-1.336-4.05c-0.864-0.701-3.228-0.854-4.037-1.336
		c-0.351-0.197-0.711-0.94-1.346-1.356c-3.426-2.168-9.533-5.166-10.759-5.363c-6.752-1.161-14.732-0.352-21.516,4.028
		c-1.479,1.575-6.087,2.276-6.732,2.691c-1.498,0.963-1.609,1.38-2.681,2.692c-0.362,0.438-2.211-0.351-2.692,0
		c-1.729,1.248-3.831,4.772-5.386,6.72c-1.433,1.795-3.951,3.919-4.027,5.386c-0.088,1.553-0.831,0.592-1.346,1.335
		c-3.61,5.274-5.231,11.71-10.759,14.797c0.998,4.991-3.107,8.45-4.037,13.44c-0.604,3.283,0.284,8.253,0,12.104
		c-0.341,4.662-1.708,8.714-1.347,12.105c0.427,4.026,3.009,10.507,4.039,12.105c1.882,2.955,0.349,5.911,1.344,9.412
		c0.079,0.306,2.475,0.94,2.693,1.357c0.702,1.422-0.765,3.983,0,5.385c0.307,0.547,3.612,3.611,5.374,5.361
		c4.258,4.249,8.133,7.706,12.105,10.77c2.409,1.861,3.174,1.688,5.386,2.693c0.481,0.218,0.755,2.386,1.334,2.692
		c1.587,0.831,4.236,0.875,5.386,1.334c1.837,0.768,3.535,1.95,5.384,2.693c2.092,0.831,4.839,0.482,6.72,1.336
		c0.505,0.24,0.733,2.406,1.347,2.691c1.751,0.833,12.598,0.855,12.105,1.358c1.991-1.991,8.351-1.906,10.759-2.693
		c2.757-0.919,4.606-3.085,5.374-4.049c0.328-0.373,2.199,0.24,2.693,0c0.164-0.066-0.132-1.183,0-1.337
		c0.809-0.983,5.481,0.592,6.72,0c0.48-0.219,0.797-2.342,1.346-2.69c3.601-2.233,5.494-2.212,9.411-2.692
		c3.755-0.439,5.035-3.351,8.078-4.027c2.517,4.157,8.547-1.511,9.413-1.336c1.138,0.218-0.208,1.554,1.346,0
		c1.334-1.357,4.103,0.196,5.374-1.357c0.371-0.46,2.276,0.415,2.691,0c0.679-0.679-0.263-2.955,1.346-2.692
		c3.865-0.263,4.214-0.218,6.72-1.334c0.505-0.242,0.723-2.431,1.346-2.693c4.598-2.014,9.04-1.949,10.759-4.027
		c0.36-0.461,2.212,0.327,2.693,0c2.2-1.555,1.871-3.504,4.039-4.051c3.557-0.875,3.294-1.246,5.374-2.691
		c1.072-0.723,1.258-1.971,2.693-2.692c1.619-0.809,2.789-0.417,4.037-1.336c0.647-0.48,2.036-2.036,2.683-2.691
		c4.749-4.75,6.336-11.163,10.757-16.133c-2.144-5.274-0.25-10.792-1.334-16.132c-0.395-1.905-2.112-2.32-2.692-4.05
		c-0.373-1.073,0.054-2.891,0-4.029c-0.076-1.355-1.17-0.853-1.347-1.334c-1.334-3.83-1.204-8.274-4.039-10.77
		c2.857-1.488,0.252-5.078,0-6.72c-0.426-2.891-0.591-6.678-1.345-9.412c-0.284-1.052-1.292-1.817-1.346-2.692
		c-0.078-1.489-0.996-0.68-1.336-1.356c-2.32-4.598-1.444-9.83-2.693-13.44c-0.042-0.133-1.214,0.108-1.344,0
		c-0.395-0.328,0.229-2.212,0-2.692c-0.078-0.154-1.194,0.13-1.347,0c-0.274-0.221,0.042-2.278,0-2.692
		c-0.789-6.786-0.252-21.792,2.691-24.199c0.275-0.23-0.054-2.288,0-2.693c0.307-2.604,0.319-3.774,1.347-5.383
		c0.963-1.511,1.751-2.562,2.683-4.029c3.282-5.143,4.3-12.257,6.73-14.796c0.351-0.36,2.288-2.67,2.693-2.693
		c1.555-0.076,0.591-0.841,1.346-1.346c2.671-1.773,4.608-2.801,6.72-4.027c2.583-1.498,5.001-2.714,6.72-4.039
		c1.008-0.765,1.455-1.871,2.693-2.691c2.462-1.621,4.586-2.891,6.72-4.029c0.667-0.36,1.959,0.187,2.693,0
		c2.32-0.579,3.819-1.827,5.384-2.693c0.91-0.503,1.413-2.045,2.693-2.69c1.457-0.723,2.879-0.768,4.027-1.346
		c2.222-1.116,4.137-2.376,5.385-2.684c3.667-0.917,3.098-1.378,5.374-2.69c4.147-2.409,13.999-1.052,17.489,0
		c5.066,1.53,3.098-2.781,5.374,0c0.099,0.108,4.093,1.356,4.028,1.346c0.81,0.197,1.947-0.318,2.691,0
		c2.102,0.886,4.575,3.513,5.386,4.028c1.422,0.907,2.845,1.553,4.026,2.692c1.248,1.182,2.519,1.717,4.049,2.69
		c4.182,2.671,5.933,5.911,9.413,9.413c2.803,2.825,6.217,5.648,8.056,8.066c2.321,3.021,3.284,5.013,5.384,6.732
		c0.438,0.361,1.053,3.578,1.358,4.027c1.904,2.987,3.437,5.144,4.027,8.077c1.533,7.475-0.503,19.284,0,25.545
		c0.417,5.341,1.992,6.435,0,8.076c-0.329,0.265,0.133,2.233,0,2.693c-0.48,1.687-1.008,2.847-1.334,4.028
		c-0.789,2.801-0.789,6.499-1.359,8.077c-0.065,0.151-2.472,1.159-2.692,1.334c-0.436,0.372,0.351,2.211,0,2.692
		c-1.224,1.686-7.988,5.822-9.411,6.721c-1.511,0.963-2.562,1.751-4.028,2.692c-0.81,0.503-1.903,1.05-2.691,1.334
		c-3.197,1.204-8.056,0.701-9.412,2.693c-0.854,0.176-1.861-0.197-2.693,0c-1.115,0.284-0.92,1.182-1.357,1.357
		c-7.464,3.063-21.178,1.335-24.197-2.691c-1.994-2.431-5.231-2.826-8.066-5.386c-1.697-1.533-2.256-5.276-4.039-5.384
		c-1.521-0.066-0.646-0.527-1.347-1.337c-3.021-3.503-0.263-12.41,0-17.488c0.089-1.556,0.865-0.592,1.347-1.337
		c1.652-2.561,1.587-7.331,2.692-9.41c0.219-0.417,2.308-0.942,2.692-1.359c0.997-1.071,0.428-2.778,1.347-4.026
		c2.419-3.284,2.833-3.493,5.374-4.04c2.242-0.48,7.76-0.142,8.066,0c0.503,0.23,0.743,2.398,1.347,2.693
		c0.698,0.339,2.1,1.324,2.702,1.347c1.752,0.088,1.249,2.254,2.671,2.692c1.246,0.372,2.779-0.307,4.049,0
		c-0.284-5.855-4.728-9.03-1.357-14.798c-7.42-1.531-8.241-9.686-13.44-13.45c-6.479,0.689-17.227,0.733-18.835,2.693
		c-0.263,0.328-2.232-0.132-2.682,0c-1.685,0.471-2.867,1.028-4.039,1.346c-3.13,0.841-6.993,0.469-9.413,1.344
		c-0.536,0.187-1.751,2.212-2.691,2.683c-1.479,0.744-2.869,0.744-4.04,1.347c-3.164,1.663-5.888,2.997-6.72,4.038
		c-0.427,0.537,0.284,2.057,0,2.692c-0.218,0.493-2.398,0.745-2.693,1.347c-0.338,0.689,0.196,1.925,0,2.681
		c-0.93,3.754-1.729,11.995-1.346,20.182c0.066,1.38,1.192,1.555,1.346,2.693c0.263,1.904-1.412,2.933-1.346,4.028
		c0.088,1.378,1.083,1.575,1.346,2.691c0.623,2.648-0.36,3.984,1.347,5.386c0.415,0.328-0.274,2.188,0,2.692
		c0.427,0.765,2.209,1.795,2.693,2.671c0.777,1.4,0.547,2.45,1.346,4.049c1.356,2.715,2.823,4.771,4.027,6.721
		c0.503,0.809,2.166,1.771,2.693,2.691c0.788,1.356,0.699,2.912,1.347,4.028c2.023,3.502,4.76,5.581,6.73,8.075
		c0.404,0.505-0.459,2.234,0,2.693c0.449,0.461,2.189-0.437,2.681,0c6.546,5.714,8.154,12.324,17.49,13.439
		c2.419,0.285,7.53,3.48,9.412,0c4.136-1.006,2.584,3.7,6.722,2.692c1.717-3.875,6.4-1.839,9.422-2.692
		c2.495-0.698,3.983-2.342,5.362-2.693c1.73-0.436,2.868-1.049,4.051-1.334c3.939-0.985,3.765-0.503,6.72-1.356
		c2.538-0.897,3.917-3.962,5.384-4.029c2.475-0.13,3.438-2.582,5.385-2.69c2.014-0.109,9.325-4.247,10.747-5.385
		c0.308-0.241,2.672-2.539,4.027-4.028c0.964-1.029,0.439-2.91,1.358-4.029c0.329-0.414,2.387,0.418,2.693,0
		c0.613-0.938-0.482-3.019,0-4.048c0.24-0.525,2.405-0.678,2.69-1.334c0.702-1.686,0.307-4.729,1.336-6.721
		c0.089-0.176,1.183,0.13,1.335,0c0.461-0.373-0.351-2.212,0-2.692c1.533-2.036,3.919-2.867,4.049-5.386
		c0.066-1.444,1.074-0.722,1.337-1.334c0.919-2.081,0.48-4.335,1.356-6.742c1.226-3.393,2.452-4.947,2.692-6.72
		c0.613-4.707,0.395-11.231,0-16.133c-0.022-0.066-1.271,0.065-1.356,0c-0.284-0.219,0.045-2.289,0-2.693
		c-0.7-5.91-1.38-6.543,0-10.759c-3.678-3.885-3.7-10.036-5.386-14.786c-0.612-1.771-2.254-2.32-2.692-4.038
		c-0.961-3.907-0.329-4.554-1.335-6.732c-0.328-0.689-1.007,0.035-1.336-1.334c-0.196-0.777,0.329-1.991,0-2.693
		c-0.24-0.493-2.364-0.787-2.69-1.346c-0.372-0.613,0.174-1.991,0-2.693c-0.351-1.346-0.942-0.635-1.358-1.346
		c-2.779-4.662-4.858-8.908-6.721-13.45c-1.925-4.697-3.325-8.417-5.383-10.759c-0.767-0.885-2.016-1.675-2.693-2.681
		c-0.897-1.346-0.524-2.431-1.336-4.039c-1.356-2.714-2.823-4.782-4.027-6.72c-0.503-0.81-2.146-1.805-2.692-2.693
		c-1.204-1.894-1.511-7.103-5.384-6.73c0.547-1.871-1.292-2.912-1.337-4.029c-0.086-1.53-0.94-0.623-1.356-1.344
		c-1.751-3-1.927-5.275-4.026-5.386c-1.555-0.076-0.592-0.843-1.358-1.334c-2.998-1.994-3.218-1.873-6.72-2.693
		c-1.511-0.362-1.817-2.474-2.692-2.693c-1.619-0.404-3.699,0.121-5.362,0c-5.089-0.36-8.515-2.232-13.461-2.692
		c-2.541-0.231-2.968,1.434-5.375,1.346c0.394,0.012-0.887-1.204-1.346-1.346c-2.364-0.712-4.105,0.963-5.386,1.346
		c-2.188,0.667-2.812-0.142-4.027,1.346c-0.296,0.361-2.222-0.174-2.692,0c-2.955,1.117-5.221,2.637-6.72,4.04
		c-0.591,0.535-0.635,0.775-1.346,1.346c-0.273,0.207-1.084-0.23-1.347,0c-0.458,0.36,0.417,2.264,0,2.681
		c-0.961,0.942-3.019,0.427-4.037,1.347c-0.407,0.373,0.24,2.166,0,2.693c-0.155,0.338-2.364,0.984-2.693,1.344
		c-1.861,2.08-1.894,3.612-2.683,5.375c-0.165,0.36-2.364,0.962-2.691,1.347c-1.719,1.992-3.394,4.979-5.386,6.73
		c-1.16,1.029-2.528,0.524-4.027,1.334c-0.711,0.385-1.95,2.146-2.693,2.693c-3.841,2.813-7.892,7.595-10.759,9.413
		c-0.974,0.623-1.839,0.667-2.693,1.347c-0.449,0.36,0.417,2.276,0,2.693c-0.623,0.623-3.37,0.93-4.037,1.346
		c-3.7,2.352-5.231,4.663-8.066,6.72c-1.008,0.733-1.839,2.155-2.692,2.692c-1.675,1.072-3.645,0.415-5.374,1.344
		c-0.821,0.439-1.564,2.058-2.692,2.693c-1.773,1.008-3.054,0.373-5.374,1.346c-2.835,1.182-5.352,3.404-8.078,4.027
		c-2.09,0.483-4.574-0.207-6.72,0c-1.597,0.165-3.042,2.431-4.037,0c-11.34,7.662-28.184,4.007-43.034,2.693
		c-2.627-1.938-5.408-5.241-8.066-5.383c-1.479-0.079-0.689-1.03-1.346-1.337c-1.094-0.524-2.934,0.515-4.039,0
		c-0.525-0.25-0.68-2.44-1.347-2.693c-2.495-0.939-4.586-0.021-6.72-1.346c-0.197-0.12,0.154-1.148,0-1.344
		c-0.373-0.449-2.232,0.393-2.693,0c-0.449-0.395,0.439-2.256,0-2.692c-0.459-0.449-2.2,0.437-2.691,0
		c-1.927-1.685-3.262-3.679-5.375-5.374c-0.875-0.711-1.685-2.07-2.691-2.693c-1.16-0.724-2.834-0.471-4.029-1.347
		c-0.449-0.328,0.394-2.288,0-2.693c-1.717-1.707-5.526,0.098-5.384-2.681c-0.165-0.866,0.208-1.849,0-2.693
		c-0.296-1.192-1.094-0.821-1.347-1.346c-0.645-1.391-0.559-2.484-1.346-4.039c-0.36-0.722-2.254-1.828-2.681-2.681
		c-1.479-2.889-0.778-5.769-1.347-8.077c-0.274-1.096-1.172-0.909-1.346-1.346c-0.667-1.621-0.417-3.306-1.346-5.374
		c-0.307-0.669-2.288-1.894-2.693-2.693c-2.703-5.275-0.964-16.976,0-20.171c0.373-1.236-0.306-2.779,0-4.04
		c0.888-3.578,2.507-4.805,2.693-8.064c0.098-1.839,1.28-2.924,1.346-4.04c0.076-1.466,1.04-0.689,1.346-1.336
		c0.93-1.97,0.471-3.458,1.347-5.383c0.218-0.503,2.396-0.733,2.681-1.346c0.996-2.112,0.294-4.915,1.346-6.72
		c5.33,1.729,2.747-4.434,8.077-2.693c1.018-3.591,3.426-5.527,5.374-6.72c2.933-1.817,3.767-4.717,5.375-2.693
		c0.054,0.056,7.267-5.592,6.73-5.384c2.014-0.799,6.151-0.46,9.413-1.346c0.316-0.078,0.285-1.074,1.347-1.336
		c4.388-1.104,8.613-2.693,10.759,0c0.449,0.559,6.499-4.586,8.066-2.693c2.276,3.711,8.285,1.128,9.411,5.375
		c4.826,0.12,7.771,2.09,12.105,2.691c-1.391,3.767,2.617,2.989,4.039,4.039c1.685,1.227,2.428,2.048,4.037,4.027
		c0.941,1.182,0.439,2.693,1.347,4.039c0.701,1.062,1.993,1.236,2.683,2.693c0.525,1.094-0.449,2.899,0,4.027
		c0.349,0.888,2.264,1.258,2.691,2.693c1.172,3.896-0.469,6.587,1.346,8.066c0.363,0.306-0.174,2.222,0,2.693
		c0.724,1.925,1.807,2.561,0,4.037c-0.272,0.22,0.044,2.288,0,2.693c-0.272,2.276-0.152,2.835-1.346,4.027
		c-1.334,1.346,0.208,4.115-1.345,5.385c-0.439,0.361,0.339,2.2,0,2.681c-0.46,0.669-2.036,1.993-2.692,2.693
		c-2.332,2.538-5.364,5.461-6.72,6.731c-1.258,1.17-2.933,1.334-4.039,2.681c-0.294,0.373-2.21-0.174-2.681,0
		c-3.765,1.423-10.342,2.156-12.105,0c-0.329-0.383-2.2,0.241-2.693,0c-0.165-0.076,0.132-1.182,0-1.334
		c-0.329-0.406-2.2,0.25-2.693,0c-3.063-1.599-5.756-4.849-8.066-8.078c3.909-2.068,4.248-7.005,6.722-10.759
		c2.156-3.26,10.024-5.384,5.383-10.757C271.502,74.514,268.054,77.852,266.148,80.182z"/>
	<path fill-rule="evenodd" clip-rule="evenodd" d="M587.583,187.769c0.481,4.082-4.399,2.791-6.741,4.04
		c-0.548-2.595-5.21-1.062-4.027-5.375c2.494-2.276,4.684-0.93,8.075,0C586.291,186.805,587.407,186.248,587.583,187.769z"/>
	<path fill-rule="evenodd" clip-rule="evenodd" d="M576.814,194.499c4.223-0.645,5.253,1.916,8.075,2.683
		c0.525,1.597-2.363,0.689-2.691,1.347c-0.33,0.667,1.576,1.631,1.336,2.691c0.063-0.207-2.257,0.604-1.336,1.347
		c1.488,1.182,0.218,0.732,0,2.692c0.7,1.084,1.399,2.178,1.336,4.027c5.712,2.025,10.659-3.567,12.104-1.334
		c-0.525,0.732,0.679,3.447,0,4.026c-0.503,0.449-2.145-0.427-2.69,0c-1.053,0.844-2.586,2.453-4.029,2.693
		c-2.081,0.328-2.43-1.062-4.028-1.347c-1.203-0.209-2.911,0.427-4.048,0c-0.154-0.066,0.151-1.236,0-1.347
		c-1.228-0.897-3.044-0.284-4.027-1.347C574.077,205.498,576.552,200.355,576.814,194.499z"/>
	<path fill-rule="evenodd" clip-rule="evenodd" d="M587.583,261.732c1.532,3.634-3.129,1.576-4.049,2.692
		c-0.221,0.263-2.32,4.99-5.364,4.049c-0.985,4.094,1.356,4.883,1.335,8.056c4.99,0.656,9.105,2.104,13.442,1.357
		c4.026-0.701,5.493-5.121,9.41-4.049c1.204-7.466-4.201-8.341-10.748-8.058c0.373-2.405-1.27-2.756-1.355-1.355
		c-4.969-3.766,6.281-2.583,9.433-2.692c1.555,2.474,7.136,0.94,5.363,6.741c3.679,0.11,2.715-2.254,5.386,0
		c0.744,6.545-6.458,5.189-6.721,10.749c-1.904-0.109-3.808-0.22-4.028,1.356c-2.166,0.263-2.343-1.138-4.049-1.356
		c0.46,0.064-0.699,2.145-1.335,1.356c-1.226-1.532-1.817,0.722-2.693-1.356c-1.312,0.042-1.049,1.642-1.355,2.69
		c-2.692-2.254-5.582-0.853-8.056-1.334c-4.269-0.831-7.465-2.867-10.77-2.692c0-3.591,0-7.179,0-10.769
		c0.503-1.664,3.327-0.525,2.692,0c0.066-0.045,2.32-0.57,1.357-1.338c-2.365-1.88,2.167-1.792,5.363-2.69
		c0.394-0.109,0.088-1.292,1.356-1.357C583.992,261.646,585.788,261.82,587.583,261.732z"/>
	<path fill-rule="evenodd" clip-rule="evenodd" d="M575.479,335.719c-3.612,4.334-1.007,6.872-1.357,13.44
		c-3.523-3.502-1.052,2.165-5.386,1.334c-1.268-5.8-1.05-17.772-2.67-26.88c1.905,0.108,3.808,0.219,4.029-1.356
		c2.405,0.24,2.647,2.779,4.026,4.027c1.183,1.094,5.21,1.028,4.049,4.05c4.138-1.008,2.583,3.676,6.72,2.692
		c0.898,3.588,4.028,4.925,6.72,6.72c3.81-0.24,2.232-4.794,2.693-8.078c0.044-0.393-0.284-2.45,0-2.691
		c0.088-0.065,1.335,0.087,1.335,0c0.438-2.692-3.503-3.963,1.357-4.028c-2.519-2.561-0.154-3.37,0-6.721
		c4.881-1.312,0.613,6.546,6.72,4.029c-1.664,3.765,0.876,10.55-2.692,17.489c-0.021,3.174,2.32,3.961,1.335,8.077
		c-7.396,1.576-9.324-2.32-14.774-2.693c0.481-2.299-1.052-2.539-2.693-2.69c2.343-6.831-0.897-0.022-1.355-5.386
		c-2.497-0.175-4.488-0.876-5.364-2.693C577.076,334.623,576.814,335.719,575.479,335.719z"/>
	<path fill-rule="evenodd" clip-rule="evenodd" d="M701.888,335.719c-3.589,4.334-1.006,6.872-1.334,13.44
		c-3.547-3.502-1.072,2.165-5.386,1.334c-1.291-5.8-1.071-17.772-2.69-26.88c1.902,0.108,3.808,0.219,4.026-1.356
		c2.408,0.24,2.671,2.779,4.05,4.027c1.16,1.094,5.187,1.028,4.027,4.05c4.137-1.008,2.582,3.676,6.72,2.692
		c0.897,3.588,4.049,4.925,6.72,6.72c3.809-0.24,2.233-4.794,2.693-8.078c0.065-0.393-0.285-2.45,0-2.691
		c0.088-0.065,1.334,0.087,1.356,0c0.416-2.692-3.525-3.963,1.336-4.028c-2.519-2.561-0.155-3.37,0-6.721
		c4.902-1.312,0.612,6.546,6.72,4.029c-1.663,3.765,0.875,10.55-2.692,17.489c-0.022,3.174,2.319,3.961,1.356,8.077
		c-7.42,1.576-9.347-2.32-14.797-2.693c0.503-2.299-1.05-2.539-2.692-2.69c2.364-6.831-0.898-0.022-1.334-5.386
		c-2.519-0.175-4.511-0.876-5.386-2.693C703.486,334.623,703.246,335.719,701.888,335.719z"/>
	<path fill-rule="evenodd" clip-rule="evenodd" d="M762.413,323.613c-2.256-2.67,0.108-1.707,0-5.386
		c1.772,0.483,2.1,2.365,4.026,2.693c3.481-3.567,5.014-1.292,9.413-2.693c1.139,1.556,1.773,3.613,1.356,6.721
		C769.461,324.84,770.817,323.503,762.413,323.613z"/>
	<path fill-rule="evenodd" clip-rule="evenodd" d="M471.92,319.564c5.977,5.209-6.546,3.262-8.077,5.384
		c0.503,1.772,2.343,2.124,2.691,4.028c0.396,2.145-1.224,3.086-1.335,5.384c-0.153,3.088,3.503,5.626,0,6.72
		c2.299,2.627,6.961,2.911,12.106,2.693c-0.483,1.556-2.386,3.414-2.693,1.356c-3.524-0.086-3.502,3.395-9.413,2.693
		c-0.416-0.066-2.474,0.262-2.692,0c-1.006-1.228-1.444-0.285-4.05,0c-3.72,0.372-9.105,1.248-12.104,0
		c-0.591-6.872,9.522-3.042,14.798-4.05c-1.488-4.071-2.54-13.614,0-17.489c-1.443-3.458-11.142,1.312-9.413-5.363
		c1.401-0.854,5.604,1.116,6.72,0c0.57-0.569,1.25-1.707,2.693-1.356c0.658,0.174,1.575,1.356,1.356,1.356
		c2.452,0.175,6.677-3.765,8.057,1.336C471.876,322.214,471.613,320.614,471.92,319.564z"/>
	<path fill-rule="evenodd" clip-rule="evenodd" d="M559.323,319.564c-0.876,1.379-3.085,1.401-2.691,4.049
		c-1.052,1.271-6.699-1.685-8.056,0c-1.926,2.343-1.773-0.218-4.027,0c0.066-0.021-0.461,1.291-1.358,1.335
		c-2.647,0.133-6.172,0.811-9.411,0c-0.591-0.152-1.664-1.356-1.336-1.335c-2.342-0.088-5.689,4.072-6.742,0
		c-1.269-4.071,4.443-2.604,5.386-2.692c2.473-0.263,8.36,1.03,9.413,0c0.063-0.066,1.925-2.299,2.69-1.356
		c1.402,1.729,0.591-0.198,2.692,0C549.496,319.936,553.217,320.769,559.323,319.564z"/>
	<path fill-rule="evenodd" clip-rule="evenodd" d="M644.057,320.921c-0.745,1.925-2.102,3.284-4.026,4.027
		c-2.671-0.022-1.708-3.677-5.386-2.691c-3.591,1.794-10.333,0.438-12.105,4.027c-1.467-0.328-0.918-2.671-2.691-2.671
		c0-1.399,1.686-0.941,2.691-1.356c1.336-0.527,2.146-0.877,4.028-1.336c1.116-0.284,2.188-1.817,4.05-1.356
		c2.561,0.654,1.356,0.591,4.027,0C637.797,318.885,640.707,320.178,644.057,320.921z"/>
	<path fill-rule="evenodd" clip-rule="evenodd" d="M681.706,319.564c5.977,5.209-6.521,3.262-8.055,5.384
		c0.481,1.772,2.343,2.124,2.693,4.028c0.37,2.145-1.248,3.086-1.358,5.384c-0.152,3.088,3.502,5.626,0,6.72
		c2.319,2.627,6.96,2.911,12.105,2.693c-0.48,1.556-2.364,3.414-2.693,1.356c-3.502-0.086-3.48,3.395-9.412,2.693
		c-0.393-0.066-2.451,0.262-2.693,0c-1.006-1.228-1.422-0.285-4.027,0c-3.721,0.372-9.106,1.248-12.104,0
		c-0.591-6.872,9.521-3.042,14.797-4.05c-1.488-4.071-2.562-13.614,0-17.489c-1.445-3.458-11.164,1.312-9.413-5.363
		c1.379-0.854,5.604,1.116,6.72,0c0.569-0.569,1.248-1.707,2.693-1.356c0.657,0.174,1.555,1.356,1.334,1.356
		c2.475,0.175,6.7-3.765,8.079,1.336C681.684,322.214,681.421,320.614,681.706,319.564z"/>
	<path fill-rule="evenodd" clip-rule="evenodd" d="M762.413,323.613c-0.329,3.021-14.558,0.832-14.799,5.363
		c-0.088,1.598-2.56,1.139-4.027,1.357c-0.109,2.124,0.636,5.121-1.355,5.385c0.086,2.932,3.063,2.605,5.383,4.027
		c0.833,0.525,1.928,2.276,2.693,2.693c0.481,0.263,2.342-0.417,2.692,0c1.97,2.405,1.313-1.381,4.027,1.334
		c1.861,1.861,18.365-0.328,22.875-1.334c-0.964-0.635-1.729-3.635-2.693-4.052c-1.488-0.633-0.919,1.271-1.356,1.358
		c-1.203,0.24-3.546-2.648-9.413-1.358c-0.218-1.574-2.451-1.116-4.026-1.334c0.219-1.555-0.307-2.387-1.358-2.693
		c1.51-4.201,5.604-1.159,8.078-1.334c3.547-0.263,7.836-2.715,10.77,0c0.831-2.036,2.867-0.065,2.67,0
		c2.232-0.68,1.708-2.781,5.384-2.692c-4.748,5.231,7.596-2.124,6.72,5.385c-2.997,0.481-5.339,0.525-8.054,1.335
		c-2.276,0.679-3.395,3.786-5.386,1.334c2.627,3.7,2.627,5.736,0,9.436c-4.224,1.488-3.547,0.613-6.72-1.357
		c-0.787,0.743-1.729,0.743-2.693,1.357c-0.021,0-1.925,1.444-1.356,1.336c-1.597,0.285-0.765-1.226-1.334-1.336
		c-1.183-0.241-1.402,1.336-1.336,1.336c-1.138-0.199-1.335-1.226-2.693-1.336c-4.946-0.438-10.439,0.701-13.462,0
		c-0.284-0.089-0.152-1.291-1.334-1.357c-0.68-0.044-1.905-1.008-2.693-1.336c-1.27-0.548-3.632-0.503-5.383-1.356
		c-0.591-0.285-0.855-2.452-1.337-2.693c-1.991-0.874-4.772-0.306-6.72-2.692c-0.109-0.108,1.817-4.464,0-1.334
		c-2.298-0.876-0.853-3.088,1.337-2.693c0.174-2.407-1.644-2.822-1.337-5.384c4.641-1.159,8.821-2.824,10.747-6.72
		c1.665-1.291,4.138,1.335,4.03,1.356c1.574-0.328,1.771-2.342,2.689-2.692c1.533-0.591,0.898,1.248,1.358,1.336
		c1.204,0.24,1.334-1.336,1.334-1.336C756.875,321.315,759.151,322.562,762.413,323.613z"/>
	<path fill-rule="evenodd" clip-rule="evenodd" d="M537.807,213.324c0-5.373,0-10.759,0-16.143c1.094-5.594-1.816-11.218,0-13.439
		c2.539-2.67,6.369-0.657,9.413,0c-0.657,1.369-2.234,1.028-2.671,2.691c-0.24,0.812,1.663,4.323,1.334,6.722
		c-0.24,1.695-0.591,4.869-2.692,5.374c1.14,2.911,3.481,4.596,2.692,9.423c8.165,0.799,20.097-2.179,24.212,2.68
		c-0.834,1.205-1.621,2.408,0,2.693c-0.768,2.835-1.995-1.139-2.693-1.347c-0.876-0.263-2.649,2.453-2.692,0
		c-2.979-0.732-1.906,2.561-4.027,2.693c-3.524-0.525-7.378-0.702-9.413-2.693C547.087,213.675,541.265,214.519,537.807,213.324z"/>
	<path fill-rule="evenodd" clip-rule="evenodd" d="M670.959,197.181c2.057,6.667-7.968,6.435-10.77,6.73
		c-1.533,0.165-0.723,1.423,0,1.347c-0.46,2.102-2.364-1.182-2.692,1.347c-1.773,0-3.568,0-5.363,0c0,1.39,1.687,0.941,2.692,1.347
		c1.555,0.613,3.087,0.645,5.363,1.334c0.657,0.198,1.488,1.368,1.356,1.346c1.03,0.143,1.379-1.685,2.693-1.346
		c0.306,0.088,0.151,1.26,1.334,1.346c2.955,0.23,6.327-0.151,10.771,0c3.107,3.732-8.8,6.447-10.771,4.04
		c-2.122-2.583-1.071,0.395-5.384,0c-0.198-0.022-7.487-0.657-8.056-1.347c-0.064-0.076,0.043-1.347,0-1.347
		c-0.655-0.032-1.948,1.106-1.356,1.347c-1.511-0.624-0.329-2.023-1.335-2.693c-0.897-0.578-3.218,0.67-4.028,0
		c-2.846-2.309-4.379-6.752-4.05-10.757c0.308-1.816,5.254-0.078,5.386-2.693c0.108-2.255,5.646-0.875,9.412-2.683
		c0.569,5.955-7.838,2.923-8.078,8.067c0.568,2.715,2.759,0.656,5.386,0c0.831-0.207,1.334-1.347,1.356-1.347
		c1.599-0.24,0.768,1.238,1.336,1.347c1.357,0.274,1.139-1.357,1.335-1.347c0.701,0.034,3.436,1.096,2.692,1.347
		c2.124-0.722,2.124-4.487,6.742-4.038c-0.724-4.598-6.479-2.057-9.435-1.347c-1.271-4.86,5.297-1.872,8.076-2.683
		C665.901,196.863,667.893,197.563,670.959,197.181z"/>
	<path fill-rule="evenodd" clip-rule="evenodd" d="M621.204,271.145c-2.057,2.08-9.236,2.408-8.076-2.671
		c3.787,3.92,1.685-4.027,6.72-2.693c0-4.946,0-9.871,0-14.795c4.597-4.641,13.703-11.032,22.873-6.72
		c-0.766,4.268-5.339,0.306-9.411,1.334c-2.233,0.568-2.145,4.728-5.386,2.692c0.111,1.905,0.22,3.809-1.356,4.027
		c3.787,3.131,0.263,5.735,2.691,10.771c5.736-0.789,8.909,0.962,13.462,1.335c-1.312-0.044-0.633,3.656-1.356,4.049
		c-1.861,0.986-2.561-1.817-4.027-1.355c-2.519,0.786-4.729,3.436-8.078,2.691c-0.591,2.802,1.204,3.961,1.358,6.72
		c0.152,2.758-2.955,6.765,0,8.077c-1.4,3.985-7.728,3.043-8.078,8.056c-1.815-0.395-1.115-3.35-1.335-5.363
		c2.299-2.231,6.283,1.861,1.335-4.049C624.751,278.894,623.065,274.932,621.204,271.145z"/>
	<path fill-rule="evenodd" clip-rule="evenodd" d="M482.667,347.823c0-5.384,0-10.77,0-16.155c1.096-5.604-1.817-11.205,0-13.44
		c2.54-2.67,6.369-0.654,9.412,0c-0.657,1.359-2.231,1.03-2.692,2.693c-0.218,0.809,1.687,4.333,1.358,6.72
		c-0.242,1.686-0.591,4.881-2.693,5.386c1.117,2.911,3.481,4.574,2.693,9.413c8.165,0.809,20.094-2.168,24.209,2.69
		c-0.831,1.183-1.621,2.408,0,2.693c-0.766,2.824-1.991-1.139-2.692-1.357c-0.876-0.262-2.648,2.451-2.693,0
		c-2.976-0.745-1.903,2.562-4.027,2.693c-3.523-0.527-7.377-0.702-9.412-2.693C491.949,348.174,486.125,349.005,482.667,347.823z"/>
	<path fill-rule="evenodd" clip-rule="evenodd" d="M617.155,322.257c2.124,0.48-1.183,2.362,1.356,2.691
		c-1.006,4.378-5.996,4.771-6.72,9.412c2.452,14.754,26.879,8.428,38.985,6.72c-0.787,2.804-2.823,4.356-4.027,6.743
		c-7.684-0.241-11.098-3.174-16.133,2.67c-2.386-2.582-4.706-1.248-9.413-2.67c-0.743-0.241-4.289-2.103-6.742-2.693
		c0.22,0.044-0.591-2.276-1.334-1.356c-0.657,0.809-1.16,1.444-2.692,1.356c0.241-2.933-1.095-4.29-4.027-4.05
		c-1.466-7.945-0.985-12.563,5.384-16.132C613.368,324.051,616.323,324.116,617.155,322.257z"/>
	<path fill-rule="evenodd" clip-rule="evenodd" d="M556.632,342.439c3.765,1.729-4.226,2.778-2.67,6.72
		c-8.91-2.496-19.702,0.655-32.288-2.693c-0.438-3.109,0.219-5.166,1.335-6.72c-0.743-0.79-0.722-1.729-1.335-2.692
		c-1.729-2.693-0.416-1.008,0-5.386c0.24-2.517-1.707-5.493,0-6.72c4.355-1.663,1.028,4.355,5.386,2.692c0,2.232,0,4.488,0,6.72
		c5.298-3.021,12.893,1.6,14.797-1.334c3.021,1.817-3.459,5.406-8.077,4.027c-0.833,1.861-5.188,0.196-5.386,2.692
		c-0.284,5.668,8.712,2.059,10.77,5.384c2.671-0.022,1.706-3.676,5.386-2.69c3.325-0.199,5.561,0.699,6.72,2.69
		c1.597,0.482,0.657-2.299,1.335-2.69C552.997,342.197,556.807,345.414,556.632,342.439z"/>
	<path fill-rule="evenodd" clip-rule="evenodd" d="M599.687,190.461c3.482,0.907,3.021,5.591,4.028,8.066
		c0.22,0.579,1.269-0.066,1.335,1.346c0.066,0.93,1.094,1.575,1.358,2.691c-0.132-0.525-1.488,0.625-1.358,1.346
		c-0.174-0.897,2.168,1.533,1.358,1.347c4.049,0.942,3.873-8.723,9.41-5.384c2.804,0.285,1.751-3.36,1.337-2.693
		c0.744-1.215,2.364-1.094,2.692-2.683c12.433-0.338,8.471,15.741,18.823,17.479c-3.546,3.897-7.661-3.009-13.439-1.347
		c-1.138-2.899-3.479-4.585-2.692-9.412c-3.239-0.547-2.934,2.465-6.721,1.347c-2.582-0.285-2.647,4.039-4.026,5.386
		c-0.942,0.885-3.107,0.47-4.05,1.334c-0.35,0.341-0.985,2.528-1.334,2.692c-1.795,0.844-5.386-1.192-5.386,1.347
		c-0.132-0.548-2.648-2.387-2.693-2.693c-0.261-1.608,1.379-2.493,1.357-2.68c-0.175-1.215-1.16-2.168-1.357-4.04
		c-0.328-3.075,0.111-6.128-1.334-9.413C598.242,193.515,599.031,192.048,599.687,190.461z"/>
	<path fill-rule="evenodd" clip-rule="evenodd" d="M439.633,320.921c-1.116,1.204-0.854,3.502-2.692,4.027
		c-2.122,0.613-3.02-1.511-5.362-1.335c-4.412,0.329-7.267-0.196-10.769,1.335c1.509,2.079,3.862,3.306,5.384,5.386
		c4.104-0.986,3.951,2.319,8.056,1.334c1.815,2.692,3.151,5.845,6.741,6.72c-2.256,8.692-11.141,14.273-21.527,10.771
		c0.021-2.671,3.666-1.71,2.691-5.386c5.899,0.065,12.598,0.941,13.451-4.027c-0.219-2.124-1.4,0-1.356,0
		c-1.709-0.11-0.483-0.79-1.336-1.358c-0.744-0.458-2.245-2.494-2.692-2.669c-2.451-1.029-6.578-0.065-9.411-1.358
		c-0.636-0.283,0.107-1.271-1.347-1.334c-1.751-0.088-0.472-1.816-1.346-2.692c-1.117-1.116-4.378-0.111-4.028-2.693
		c-0.012-4.946,4.705-5.164,6.721-8.076c1.792,1.837,2.077,0.24,4.037,0C430.57,318.863,437.467,320.155,439.633,320.921z"/>
</g>
</svg>
