<?xml version="1.0" encoding="utf-8"?>
<!-- Generator: Adobe Illustrator 14.0.0, SVG Export Plug-In . SVG Version: 6.00 Build 43363)  -->
<!DOCTYPE svg PUBLIC "-//W3C//DTD SVG 1.1//EN" "http://www.w3.org/Graphics/SVG/1.1/DTD/svg11.dtd">
<svg version="1.1" id="Layer_1" xmlns="http://www.w3.org/2000/svg" xmlns:xlink="http://www.w3.org/1999/xlink" x="0px" y="0px"
	 width="800px" height="772px" viewBox="0 0 800 772" enable-background="new 0 0 800 772" xml:space="preserve">
<g>
	<path fill-rule="evenodd" clip-rule="evenodd" d="M457.898,12.502c1.372-0.192,2.101,0.26,2.36,1.18
		c0.049,8.078-8.107,17.729-9.439,28.316c15.147,0.856,18.049-17.494,31.855-20.057c6.562-1.219,11.138,3.196,17.699,3.539
		c19.188,1.004,39.887-10.266,61.354-9.439c7.365,15.089-17.09,15.986-24.777,23.598c-19.928,3.67-40.958,6.236-53.095,17.698
		c-41.396,4.533-65.169,33.949-103.828,44.834c-5.599,4.626-11.643,8.808-16.517,14.159
		c-55.328,2.886-100.392,26.241-129.785,58.993c15.365-1.805,23.081-11.037,41.295-12.979c18.195-1.94,40.877,11.865,55.454,7.079
		c9.239-3.034,12.471-14.061,18.877-20.058c12.802,5.803,25.454,3.131,36.576,1.18c20.953-3.675,41.627,6.083,60.172,10.619
		c6.164,1.508,11.994,0.341,17.699,2.36c5.565,1.97,9.846,6.856,15.338,9.438c9.109,4.285,17.829,5.273,24.777,10.62
		c1.514,4.778,4.281,8.302,4.719,14.158c28.728,2.735,44.553,18.374,71.972,22.417c5.795,16.623,13.306,31.529,25.957,41.295
		c13.11-2.646,29.572-0.442,42.475,4.72c6.053,2.421,18.344,10.73,16.519,20.058c-1.767,9.024-17.487,10.211-21.237,20.058
		c3.115,11.125,17.79,17.696,22.417,28.317c2.293,5.263,1.202,11.455,2.359,15.338c2.766,9.278,8.412,18.026,14.158,25.957
		c5.101,7.038,11.188,8.75,17.698,15.338c4.916,4.976,6.812,16.151,16.518,17.698c5.869-0.032,4.887-6.913,9.439-8.26
		c1.783-5.773-5.851-8.229-3.54-10.618c6.293,3.359,22.249,6.256,22.418,15.337c0.154,8.323-11.436,10.434-18.878,15.34
		c7.528,3.467,9.976,14.309,21.238,10.619c6.857,10.445,15.458,19.15,18.877,33.035c11.269,13.9,27.091,23.25,27.138,48.375
		c-20.502-8.976-32.514-25.831-48.375-42.477c-23.362-24.515-46.083-50.283-80.23-64.893c-9.211-21.244-36.435-23.43-51.915-40.114
		c-5.171-5.575-8.008-14.045-12.978-20.058c-15.003-18.15-28.755-37.064-51.914-44.834c-12.719,6.436-6.35,26.314,4.72,33.036
		c0.934,4.081-1.311,4.981-2.359,7.08c8.032,6.912,7.454,22.435,15.337,29.496c-2.076,3.036-5.13,5.095-7.078,8.259
		c1.923,7.122,8.037,10.054,11.799,15.338c0.684,4.618-1.016,6.851-2.36,9.439c15.698,37.108,18.225,94.504,11.799,139.224
		c-3.663,25.49-20.63,36.375-23.598,60.173c-9.582,9.688-13.524,25.016-17.697,40.115c-2.41,1.13-4.669,2.409-7.08,3.538
		c-3.943,12.524-8.649,19.765-17.697,28.317c-3.628,3.431-7.905,8.784-10.618,10.619c-8.271,5.596-20.379,6.11-29.498,10.619
		c-5.326,2.635-8.402,9.644-14.157,11.799c-2.065,0.773-3.708-0.682-5.898,0c-25.109,7.808-36.479,37.908-67.253,35.396
		c-3.437,0.89-5.851,2.801-8.258,4.719c-27.167,2.103-57.386,9.547-81.411,4.721c17.235-14.113,41.439-20.404,67.252-28.317
		c6.226-1.908,9.535-7.118,16.518-10.618c6.389-3.201,13.763-3.79,20.058-7.08c23.139-12.094,44.276-27.697,67.252-41.295
		c5.488-7.249,8.281-16.352,12.979-24.777c11.789-21.145,33.083-38.497,44.835-61.353c1.866-3.631,3.893-9.508,5.898-14.159
		c4.521-10.476,12.222-30.128,12.979-44.834c0.37-7.175-3.501-16.735-4.721-27.136c-1.829-15.608,2.647-25.816-9.438-31.857
		c0.073-28.389-1.234-55.398-23.597-61.353c4.116-19.197-5.185-32.699-22.418-34.216c-20.224-21.946-38.26-52.051-66.072-69.611
		c-15.418-9.737-23.913-11.564-44.834-20.058c-39.337-15.972-92.785-15.835-133.324,2.36c-4.719,0-9.438,0-14.158,0
		c-12.714,6.557-22.784,15.758-25.957,31.856c-18.25-1.171-37.483-1.682-30.677,18.877c-15.12,4.387-26.458,6.935-37.756,15.338
		c-10.687,7.949-17.339,20.823-30.676,27.137c-1.494,8.966,2.159,14.457,1.18,22.417c-1.325,10.772-12.048,18.925-12.979,29.496
		c-0.713,8.122,8.51,26.646,11.799,38.936c2.245,8.387,1.759,14.599,7.079,18.879c3.964,3.189,14.831,5.993,20.058,8.258
		c2.85,1.235,13.926,7.796,17.698,7.079c15.326-2.912,5.438-31.812,18.878-38.934c3.764,4.888,11.314,5.989,12.978,12.977
		c12.578-4.29,26.773,5.724,40.115,2.36c6.014-1.516,13.714-10.742,17.698-14.158c6.115-5.242,14.322-11.712,14.158-17.697
		c-0.348-12.691-20.481-17.433-24.777-29.497c-15.198,1.714-11.434,22.389-24.777,25.957c-5.6-31.313,11.913-49.375,41.295-47.194
		c38.001,2.82,73.647,48.942,56.633,94.389c-12.489,33.358-50.899,56.403-77.871,71.972c-31.699,8.932-58.961,15.515-95.568,8.258
		c-14.14-2.802-32.683-9.298-40.116-14.156c-28.082-18.36-48.972-58.553-62.532-94.39c-4.724-12.484-15.741-21.286-16.518-27.137
		c-0.541-4.07,1.492-6.359,2.359-11.799c2.541-15.924,3.983-39.786,5.899-55.454c1.04-8.502,7.877-12.966,9.439-20.057
		c7.322,0.405,6.711-2.551,11.798-2.36c-2.657-30.58,6.285-49.562,14.158-69.612c16.167-12.132,21.96-33.332,36.576-47.194
		c1.282-1.216,4.72-1.012,5.899-2.36c7.364-8.419,12.614-19.75,21.237-28.317c5.731-5.693,18.799-15.016,23.598-23.597
		c3.746-6.699,2.935-15.508,8.259-21.237c12.98-5.111,21.24-14.943,27.137-27.137c11.225-11.193,26.497-18.338,34.217-33.036
		c17.169-6.902,28.724,1.792,42.475-3.539c9.354-3.628,11.837-15.854,17.698-23.598c9.846-13.008,31.886-32.674,46.015-17.698
		c-2.726,7.72-1.223,20.687,4.719,23.598c12.837-1.321,21.108-7.208,33.036-9.439c18.176,14.506,49.77,1.466,73.151,0
		c3.021-1.541-2.738-6.245,0-7.079c5.673-2.587,14.172-2.346,17.698-7.079c0.465-9.511-16.078-2.014-12.979-14.158
		C434.454,18.947,455.933,25.48,457.898,12.502z"/>
	<path fill-rule="evenodd" clip-rule="evenodd" d="M611.279,510.403c8.602,12.537-0.693,30.411-1.178,44.834
		c-2.312,2.016-4.875,3.779-7.08,5.899c-2.685,29.172-16.806,46.907-27.138,68.433c-11.302-4.07-0.099-16.119-2.357-28.317
		c3.538-4.72,5.54-10.978,8.258-16.518c-5.857-12.726,7.607-22.892,15.339-29.497c2.971-14.333,2.923-31.686,7.078-44.834
		C606.562,510.403,608.922,510.403,611.279,510.403z"/>
	<path fill-rule="evenodd" clip-rule="evenodd" d="M565.267,630.749c3.003,0.12,2.786,4.396,1.179,5.898
		C564.398,635.574,563.396,632.515,565.267,630.749z"/>
	<path fill-rule="evenodd" clip-rule="evenodd" d="M591.224,640.188c2.628,8.75-2.852,19.011-7.079,24.777
		c-5.145,0.031-10.929,0.703-12.979-2.36C574.455,651.735,580.935,644.056,591.224,640.188z"/>
	<path fill-rule="evenodd" clip-rule="evenodd" d="M147.596,754.634c-11.029-1.556-22.506-2.666-23.597-14.157
		c1.146-0.033,0.916-1.444,1.18-2.36C138.341,731.26,161.571,740.897,147.596,754.634z"/>
	<path fill-rule="evenodd" clip-rule="evenodd" d="M250.243,756.994c-5.448,1.237-10.03,3.342-17.698,2.36
		C229.609,749.145,251.118,736.855,250.243,756.994z"/>
	<path fill-rule="evenodd" clip-rule="evenodd" d="M188.891,738.116c3.599,5.447,3.051,15.04,9.439,17.697
		c-8.47,0.998-14.261-0.683-18.878-3.538C181.989,746.946,183.727,740.819,188.891,738.116z"/>
</g>
</svg>
