<?xml version="1.0" encoding="UTF-8" standalone="no"?>
<!-- Created with Inkscape (http://www.inkscape.org/) -->

<svg
   xmlns:dc="http://purl.org/dc/elements/1.1/"
   xmlns:cc="http://creativecommons.org/ns#"
   xmlns:rdf="http://www.w3.org/1999/02/22-rdf-syntax-ns#"
   xmlns:svg="http://www.w3.org/2000/svg"
   xmlns="http://www.w3.org/2000/svg"
   xmlns:sodipodi="http://sodipodi.sourceforge.net/DTD/sodipodi-0.dtd"
   xmlns:inkscape="http://www.inkscape.org/namespaces/inkscape"
   width="507.5"
   height="515"
   id="svg2"
   version="1.1"
   inkscape:version="0.48.4 r9939"
   sodipodi:docname="Six-point_circle_final.svg">
  <defs
     id="defs4" />
  <sodipodi:namedview
     id="base"
     pagecolor="#ffffff"
     bordercolor="#666666"
     borderopacity="1.0"
     inkscape:pageopacity="0.0"
     inkscape:pageshadow="2"
     inkscape:zoom="2"
     inkscape:cx="229.24915"
     inkscape:cy="244.15672"
     inkscape:document-units="px"
     inkscape:current-layer="layer3"
     showgrid="false"
     showguides="true"
     inkscape:guide-bbox="true"
     inkscape:window-width="1366"
     inkscape:window-height="706"
     inkscape:window-x="-8"
     inkscape:window-y="-8"
     inkscape:window-maximized="1"
     fit-margin-top="0"
     fit-margin-left="0"
     fit-margin-right="0"
     fit-margin-bottom="0">
    <sodipodi:guide
       orientation="1,0"
       position="250,257.5"
       id="guide3769" />
    <sodipodi:guide
       orientation="0,1"
       position="250,257.5"
       id="guide3771" />
    <sodipodi:guide
       orientation="1,0"
       position="-6.8447434e-009,257.5"
       id="guide3773" />
    <sodipodi:guide
       orientation="1,0"
       position="500,257.5"
       id="guide3775" />
    <sodipodi:guide
       orientation="0,1"
       position="250,507.49609"
       id="guide3777" />
    <sodipodi:guide
       orientation="0,1"
       position="250,7.4999985"
       id="guide3779" />
  </sodipodi:namedview>
  <metadata
     id="metadata7">
    <rdf:RDF>
      <cc:Work
         rdf:about="">
        <dc:format>image/svg+xml</dc:format>
        <dc:type
           rdf:resource="http://purl.org/dc/dcmitype/StillImage" />
        <dc:title></dc:title>
      </cc:Work>
    </rdf:RDF>
  </metadata>
  <g
     inkscape:label="Layer 1"
     inkscape:groupmode="layer"
     id="layer1"
     transform="translate(-250,-294.86218)" />
  <g
     inkscape:groupmode="layer"
     id="layer3"
     inkscape:label="Layer#1"
     transform="translate(-250,-242.5)">
    <path
       sodipodi:type="arc"
       style="fill:none;stroke:#999999;stroke-width:5;stroke-miterlimit:4;stroke-opacity:1;stroke-dasharray:none"
       id="path3783"
       sodipodi:cx="461.75"
       sodipodi:cy="775.5625"
       sodipodi:rx="12.375"
       sodipodi:ry="12.6875"
       d="m 474.125,775.5625 c 0,7.00711 -5.54048,12.6875 -12.375,12.6875 -6.83452,0 -12.375,-5.68039 -12.375,-12.6875 0,-7.00711 5.54048,-12.6875 12.375,-12.6875 6.83452,0 12.375,5.68039 12.375,12.6875 z"
       transform="matrix(0.33683598,0.58341703,-0.56904716,0.32853953,571.45633,99.554245)"
       inkscape:transform-center-y="123.75"
       inkscape:transform-center-x="214.34129" />
    <path
       sodipodi:type="arc"
       style="fill:none;stroke:#999999;stroke-width:5;stroke-miterlimit:4;stroke-opacity:1;stroke-dasharray:none"
       id="path3783-1"
       sodipodi:cx="461.75"
       sodipodi:cy="775.5625"
       sodipodi:rx="12.375"
       sodipodi:ry="12.6875"
       d="m 474.125,775.5625 c 0,7.00711 -5.54048,12.6875 -12.375,12.6875 -6.83452,0 -12.375,-5.68039 -12.375,-12.6875 0,-7.00711 5.54048,-12.6875 12.375,-12.6875 6.83452,0 12.375,5.68039 12.375,12.6875 z"
       transform="matrix(0.67367196,0,0,0.65707906,188.93197,-257.10588)" />
    <path
       sodipodi:type="star"
       style="fill:none;stroke:#999999;stroke-width:3.54857111;stroke-linecap:round;stroke-miterlimit:3.9000001;stroke-opacity:1;stroke-dasharray:none"
       id="path2996"
       sodipodi:sides="6"
       sodipodi:cx="-775"
       sodipodi:cy="557"
       sodipodi:r1="174.92856"
       sodipodi:r2="151.49257"
       sodipodi:arg1="0.52359878"
       sodipodi:arg2="1.0471976"
       inkscape:flatsided="true"
       inkscape:rounded="0"
       inkscape:randomized="0"
       d="M -623.50743,644.46428 -775,731.92856 -926.49258,644.46428 -926.49257,469.53572 -775,382.07144 l 151.49258,87.46428 z"
       transform="matrix(1.4090178,0,0,1.4090178,1591.9871,-284.82291)" />
    <path
       inkscape:transform-center-y="247.5"
       transform="matrix(0.67367196,0,0,0.65707906,188.93197,237.89412)"
       d="m 474.125,775.5625 c 0,7.00711 -5.54048,12.6875 -12.375,12.6875 -6.83452,0 -12.375,-5.68039 -12.375,-12.6875 0,-7.00711 5.54048,-12.6875 12.375,-12.6875 6.83452,0 12.375,5.68039 12.375,12.6875 z"
       sodipodi:ry="12.6875"
       sodipodi:rx="12.375"
       sodipodi:cy="775.5625"
       sodipodi:cx="461.75"
       id="path3766"
       style="fill:none;stroke:#999999;stroke-width:5;stroke-miterlimit:4;stroke-opacity:1;stroke-dasharray:none"
       sodipodi:type="arc" />
    <path
       sodipodi:type="arc"
       style="fill:none;stroke:#999999;stroke-width:5;stroke-miterlimit:4;stroke-opacity:1;stroke-dasharray:none"
       id="path3768"
       sodipodi:cx="461.75"
       sodipodi:cy="775.5625"
       sodipodi:rx="12.375"
       sodipodi:ry="12.6875"
       d="m 474.125,775.5625 c 0,7.00711 -5.54048,12.6875 -12.375,12.6875 -6.83452,0 -12.375,-5.68039 -12.375,-12.6875 0,-7.00711 5.54048,-12.6875 12.375,-12.6875 6.83452,0 12.375,5.68039 12.375,12.6875 z"
       transform="matrix(0.33683598,-0.58341703,0.56904716,0.32853953,117.47563,638.33987)"
       inkscape:transform-center-y="123.75"
       inkscape:transform-center-x="-214.34128" />
    <path
       sodipodi:type="arc"
       style="fill:none;stroke:#999999;stroke-width:5;stroke-miterlimit:4;stroke-opacity:1;stroke-dasharray:none"
       id="path3772"
       sodipodi:cx="461.75"
       sodipodi:cy="775.5625"
       sodipodi:rx="12.375"
       sodipodi:ry="12.6875"
       d="m 474.125,775.5625 c 0,7.00711 -5.54048,12.6875 -12.375,12.6875 -6.83452,0 -12.375,-5.68039 -12.375,-12.6875 0,-7.00711 5.54048,-12.6875 12.375,-12.6875 6.83452,0 12.375,5.68039 12.375,12.6875 z"
       transform="matrix(-0.33683598,-0.58341703,0.56904716,-0.32853953,428.54366,900.44576)"
       inkscape:transform-center-x="-214.34129"
       inkscape:transform-center-y="-123.75" />
    <path
       transform="matrix(0.33683598,-0.58341703,0.56904716,0.32853953,-311.20694,390.83987)"
       d="m 474.125,775.5625 c 0,7.00711 -5.54048,12.6875 -12.375,12.6875 -6.83452,0 -12.375,-5.68039 -12.375,-12.6875 0,-7.00711 5.54048,-12.6875 12.375,-12.6875 6.83452,0 12.375,5.68039 12.375,12.6875 z"
       sodipodi:ry="12.6875"
       sodipodi:rx="12.375"
       sodipodi:cy="775.5625"
       sodipodi:cx="461.75"
       id="path3774"
       style="fill:none;stroke:#999999;stroke-width:5;stroke-miterlimit:4;stroke-opacity:1;stroke-dasharray:none"
       sodipodi:type="arc"
       inkscape:transform-center-y="-123.75"
       inkscape:transform-center-x="214.34129" />
  </g>
  <g
     inkscape:groupmode="layer"
     id="layer2"
     inkscape:label="Layer"
     transform="translate(-250,-242.5)">
    <path
       sodipodi:type="arc"
       style="fill:none;stroke:#000000;stroke-width:5;stroke-miterlimit:4;stroke-dasharray:none"
       id="path3781"
       sodipodi:cx="492"
       sodipodi:cy="525"
       sodipodi:rx="242"
       sodipodi:ry="274.99609"
       d="M 734,525 C 734,676.87615 625.65291,799.99609 492,799.99609 358.34709,799.99609 250,676.87615 250,525 250,373.12385 358.34709,250.00391 492,250.00391 c 133.65291,0 242,123.11994 242,274.99609 z"
       transform="matrix(1.0231426,0,0,0.90037825,-3.3861509,27.301419)" />
  </g>
</svg>
