<?xml version="1.0" encoding="UTF-8" standalone="no"?>
<!-- Created with Inkscape (http://www.inkscape.org/) -->

<svg
   xmlns:dc="http://purl.org/dc/elements/1.1/"
   xmlns:cc="http://creativecommons.org/ns#"
   xmlns:rdf="http://www.w3.org/1999/02/22-rdf-syntax-ns#"
   xmlns:svg="http://www.w3.org/2000/svg"
   xmlns="http://www.w3.org/2000/svg"
   xmlns:sodipodi="http://sodipodi.sourceforge.net/DTD/sodipodi-0.dtd"
   xmlns:inkscape="http://www.inkscape.org/namespaces/inkscape"
   width="160"
   height="300"
   viewBox="0 0 160 300.00001"
   id="svg3381"
   version="1.1"
   inkscape:version="0.91 r13725"
   sodipodi:docname="Thaylen script D.svg">
  <defs
     id="defs3383" />
  <sodipodi:namedview
     id="base"
     pagecolor="#ffffff"
     bordercolor="#666666"
     borderopacity="1.0"
     inkscape:pageopacity="0.0"
     inkscape:pageshadow="2"
     inkscape:zoom="0.98994949"
     inkscape:cx="66.18946"
     inkscape:cy="216.76844"
     inkscape:document-units="px"
     inkscape:current-layer="layer1"
     showgrid="false"
     inkscape:window-width="719"
     inkscape:window-height="678"
     inkscape:window-x="193"
     inkscape:window-y="86"
     inkscape:window-maximized="0"
     units="px" />
  <metadata
     id="metadata3386">
    <rdf:RDF>
      <cc:Work
         rdf:about="">
        <dc:format>image/svg+xml</dc:format>
        <dc:type
           rdf:resource="http://purl.org/dc/dcmitype/StillImage" />
        <dc:title></dc:title>
      </cc:Work>
    </rdf:RDF>
  </metadata>
  <g
     inkscape:label="Layer 1"
     inkscape:groupmode="layer"
     id="layer1"
     transform="translate(0,-752.36214)">
    <path
       style="fill:#000000"
       d="m 48.892995,1047.9204 c -3.249435,-2.363 -8.464414,-7.1366 -11.588841,-10.6084 -5.680777,-6.3121 -5.680777,-6.3121 -5.680777,-77.34475 0,-63.37501 0.258321,-71.13175 2.396208,-71.95213 1.317916,-0.50573 16.656013,-0.91952 34.08466,-0.91952 l 31.688452,0 0,-67.41188 c 0,-76.76082 -1.00574,-72.06241 13.096683,-61.18247 15.09827,11.64824 14.17105,5.97301 14.17105,86.7354 l 0,70.64155 -34.084665,0 -34.08466,0 0,68.16928 c 0,56.21772 -0.358539,68.16932 -2.045022,68.16932 -1.124761,0 -4.70365,-1.9333 -7.953088,-4.2964 z"
       id="path3415"
       inkscape:connector-curvature="0" />
  </g>
</svg>
