<?xml version="1.0" encoding="UTF-8" standalone="no"?>
<!-- Created with Inkscape (http://www.inkscape.org/) -->

<svg
   xmlns:dc="http://purl.org/dc/elements/1.1/"
   xmlns:cc="http://creativecommons.org/ns#"
   xmlns:rdf="http://www.w3.org/1999/02/22-rdf-syntax-ns#"
   xmlns:svg="http://www.w3.org/2000/svg"
   xmlns="http://www.w3.org/2000/svg"
   version="1.1"
   width="65.719063"
   height="51.4375"
   id="svg4635">
  <defs
     id="defs4637" />
  <metadata
     id="metadata4640">
    <rdf:RDF>
      <cc:Work
         rdf:about="">
        <dc:format>image/svg+xml</dc:format>
        <dc:type
           rdf:resource="http://purl.org/dc/dcmitype/StillImage" />
        <dc:title></dc:title>
      </cc:Work>
    </rdf:RDF>
  </metadata>
  <g
     transform="translate(-470.65625,-486.21875)"
     id="layer1">
    <path
       d="m 185.17857,137.18361 a 3.0357144,2.6785715 0 1 1 -6.07143,0 3.0357144,2.6785715 0 1 1 6.07143,0 z"
       transform="matrix(0.98094032,0,0,1.1117324,331.7219,368.05802)"
       id="path3926-3-77"
       style="fill:#000000;fill-opacity:1;fill-rule:nonzero;stroke:none;display:inline" />
    <path
       d="m 472.98245,493.86678 c 30.8599,1.43922 50.32815,1.43493 63.39286,-1.25 -6.80626,1.94658 -14.19704,2.3734 -18.75,10.17858 -10.98633,-8.78445 -22.56704,-6.27193 -28.88607,1.73086 -7.48661,9.48148 -3.35241,28.40933 20.85036,27.01914 -21.26966,7.47853 -47.01369,-20.09604 -17.83177,-34.64286 z"
       id="path3152-2-4-6"
       style="fill:#000000;fill-opacity:1;stroke:none;display:inline" />
    <path
       d="m 500.55812,486.30934 c -3.33862,21.6084 2.15943,35.2638 5.05076,51.26524"
       id="path4223"
       style="fill:none;stroke:#000000;stroke-width:1px;stroke-linecap:butt;stroke-linejoin:miter;stroke-opacity:1" />
    <path
       d="m 470.75862,509.54284 c 18.32858,4.32159 37.93129,2.27252 57.57869,0"
       id="path4225"
       style="fill:none;stroke:#000000;stroke-width:1px;stroke-linecap:butt;stroke-linejoin:miter;stroke-opacity:1" />
  </g>
</svg>
